<?xml version="1.0" encoding="UTF-8"?>
<!DOCTYPE svg PUBLIC "-//W3C//DTD SVG 1.1//EN" "http://www.w3.org/Graphics/SVG/1.1/DTD/svg11.dtd">
<svg  xmlns="http://www.w3.org/2000/svg" xmlns:xlink="http://www.w3.org/1999/xlink" viewport-fill="none" viewBox="0.0, 0.0, 697.6873779296875, 703.136474609375" version="1.1" height="703.136474609375" width="697.6873779296875">
<path fill="none" stroke="#004dc0" stroke-width="5.0" stroke-linecap="round" stroke-linejoin="round" d="M295.89 607.70C295.91 615.11 295.90 649.62 296.02 657.14C296.03 657.75 296.38 657.80 296.66 657.79C296.94 657.79 297.43 657.52 297.87 657.10C298.31 656.67 299.05 655.75 299.62 654.94C300.19 654.14 300.52 653.62 301.65 651.70C302.77 649.79 306.31 643.62 307.13 642.20"/><path fill="none" stroke="#004dc0" stroke-width="5.0" stroke-linecap="round" stroke-linejoin="round" d="M281.15 638.80C281.08 638.81 280.41 639.03 280.69 638.89C283.43 637.63 295.04 632.14 299.42 630.35C303.80 628.57 308.30 627.50 309.87 627.00"/><path fill="none" stroke="#004dc0" stroke-width="5.0" stroke-linecap="round" stroke-linejoin="round" d="M312.15 612.45C312.15 616.77 312.15 636.94 312.15 641.25C312.15 641.30 312.11 641.22 312.14 641.18C313.20 639.76 317.63 633.60 319.21 631.77C320.80 629.93 321.85 629.44 322.70 628.95C323.55 628.46 324.16 628.46 324.86 628.50C325.57 628.55 326.44 628.41 327.39 629.23C328.34 630.04 330.48 632.94 331.19 633.95C331.90 634.96 331.76 634.92 332.12 635.96C332.48 637.01 333.36 639.61 333.60 640.90C333.84 642.19 333.71 644.00 333.73 644.54"/><path fill="none" stroke="#004dc0" stroke-width="5.0" stroke-linecap="round" stroke-linejoin="round" d="M344.18 629.60C344.18 631.33 344.18 639.38 344.18 641.11"/><path fill="none" stroke="#004dc0" stroke-width="5.0" stroke-linecap="round" stroke-linejoin="round" d="M344.18 621.32C344.18 621.32 344.18 621.32 344.18 621.32"/><path fill="none" stroke="#004dc0" stroke-width="5.0" stroke-linecap="round" stroke-linejoin="round" d="M373.48 621.32C372.67 621.29 369.21 620.45 368.08 621.14C366.96 621.84 366.43 624.93 365.99 625.94C365.56 626.95 365.51 627.04 365.19 627.90C364.87 628.77 364.05 630.81 363.85 631.71C363.66 632.62 362.44 633.62 363.88 633.93C365.87 634.36 374.75 634.35 377.08 634.58C378.73 634.74 378.95 635.11 379.42 635.44C379.89 635.76 380.17 636.33 380.22 636.74C380.27 637.14 380.33 637.34 379.76 638.13C379.07 639.09 377.73 641.10 375.61 643.12C373.50 645.14 367.76 649.98 365.65 651.59C363.53 653.19 362.95 653.45 361.53 653.81C360.10 654.17 356.95 653.96 356.15 653.99"/><path fill="none" stroke="#004dc0" stroke-width="5.0" stroke-linecap="round" stroke-linejoin="round" d="M439.73 617.52C438.36 617.54 431.57 617.37 430.60 617.67C429.64 617.97 432.48 619.08 433.30 619.50C434.13 619.92 434.25 619.77 436.11 620.45C438.51 621.34 446.88 624.32 449.30 625.39C451.55 626.39 451.61 626.86 452.27 627.59C452.93 628.33 453.55 629.64 453.69 630.29C453.84 630.94 453.81 631.42 453.26 631.93C452.71 632.44 451.38 633.23 450.05 633.68C448.71 634.14 446.40 634.73 444.34 634.98C442.27 635.23 437.56 635.31 436.27 635.32C435.86 635.33 435.80 635.10 435.72 635.06"/><path fill="none" stroke="#004dc0" stroke-width="5.0" stroke-linecap="round" stroke-linejoin="round" d="M466.89 627.26C467.38 627.13 469.41 626.75 470.14 626.42C470.88 626.10 471.48 625.96 471.80 625.09C472.12 624.21 472.35 621.68 472.29 620.60C472.22 619.51 471.62 618.38 471.38 617.87C471.14 617.35 471.12 617.41 470.68 617.17C470.23 616.92 468.90 616.24 468.41 616.24C467.91 616.24 467.51 616.25 467.38 617.16C467.11 619.15 466.64 627.22 466.60 629.51C466.57 631.50 466.75 631.71 467.14 632.44C467.52 633.17 468.21 633.90 469.17 634.37C470.14 634.84 471.44 635.48 473.57 635.59C475.70 635.70 481.50 635.31 483.40 635.10C485.29 634.89 485.35 634.63 486.22 634.19C487.10 633.76 488.78 632.50 489.23 632.20"/><path fill="none" stroke="#004dc0" stroke-width="5.0" stroke-linecap="round" stroke-linejoin="round" d="M504.74 622.16C505.06 621.99 506.51 621.49 506.88 621.03C507.25 620.57 507.31 619.55 507.21 619.08C507.11 618.61 506.72 618.20 506.23 617.90C505.73 617.60 504.46 617.25 503.89 617.08C503.32 616.91 503.36 616.86 502.45 616.78C501.54 616.71 498.58 615.41 497.81 616.57C497.04 617.73 497.31 622.81 497.31 624.52C497.32 626.24 497.40 627.07 497.84 628.00C498.27 628.93 498.79 629.98 500.22 630.72C501.64 631.46 505.89 632.58 507.36 632.93C508.83 633.28 508.83 633.17 509.99 633.06C511.15 632.95 514.31 632.31 515.08 632.18"/><path fill="none" stroke="#004dc0" stroke-width="5.0" stroke-linecap="round" stroke-linejoin="round" d="M524.90 618.55C525.29 619.54 526.65 623.48 527.48 625.17C528.31 626.85 529.91 628.97 530.45 629.77C530.81 630.32 530.87 630.34 531.04 630.55C531.21 630.76 531.54 631.71 531.57 631.17C531.72 628.22 531.77 614.11 532.04 610.91C532.14 609.77 532.81 609.95 533.38 609.83C533.95 609.71 535.04 609.73 535.85 610.11C536.66 610.49 538.14 611.71 538.77 612.35C539.41 612.99 539.72 613.70 540.09 614.38C540.45 615.06 540.66 615.13 541.19 616.86C541.84 618.96 543.76 627.77 544.43 628.39C545.10 629.02 544.96 623.48 545.69 621.01C546.41 618.54 548.41 613.62 549.29 611.93C550.16 610.23 550.71 610.14 551.53 609.73C552.35 609.33 554.12 609.22 554.76 609.22C555.39 609.21 555.38 609.05 555.76 609.68C556.29 610.55 557.49 612.42 558.29 615.04C559.08 617.66 560.63 625.34 561.04 627.15"/><path fill="none" stroke="#004dc0" stroke-width="5.0" stroke-linecap="round" stroke-linejoin="round" d="M593.82 599.88C592.37 599.86 585.86 599.35 584.12 599.74C582.38 600.13 582.57 601.79 582.21 602.48C581.86 603.17 581.94 603.28 581.77 604.34C581.60 605.39 581.10 608.55 581.09 609.51C581.07 610.40 581.17 610.40 581.65 610.72C582.13 611.03 582.45 611.35 584.27 611.61C586.34 611.90 593.48 612.38 595.39 612.67C596.59 612.85 596.74 613.21 597.01 613.50C597.28 613.80 597.22 614.34 597.21 614.64C597.19 614.94 597.26 615.03 596.91 615.49C596.55 615.95 595.75 617.00 594.83 617.69C593.92 618.39 592.10 619.47 590.81 620.13C589.53 620.80 587.58 621.71 586.26 622.12C584.94 622.52 582.66 622.71 582.02 622.81"/><path fill="none" stroke="#004dc0" stroke-width="5.0" stroke-linecap="round" stroke-linejoin="round" d="M545.44 667.39C544.91 667.44 542.79 667.48 541.87 667.68C540.94 667.87 540.40 667.93 539.29 668.70C538.19 669.48 535.54 671.36 534.49 672.85C533.44 674.35 532.66 676.17 532.29 678.65C531.91 681.13 531.96 687.58 532.00 689.39C532.01 690.30 531.78 690.10 532.50 690.66C533.29 691.27 535.72 692.93 537.26 693.46C538.79 693.98 541.44 694.39 542.73 694.14C544.02 693.89 544.22 693.52 545.87 691.79C547.51 690.06 552.23 684.15 553.69 682.62C554.70 681.56 555.34 681.74 555.63 681.59"/><path fill="none" stroke="#004dc0" stroke-width="5.0" stroke-linecap="round" stroke-linejoin="round" d="M574.44 672.14C573.88 672.03 571.82 671.44 570.72 671.42C569.62 671.40 567.87 671.76 567.09 672.00C566.31 672.24 566.03 672.34 565.51 673.05C565.00 673.76 563.99 675.87 563.66 676.75C563.33 677.63 563.36 677.81 563.30 678.89C563.23 679.97 563.12 682.88 563.21 683.95C563.29 685.01 563.50 685.54 563.87 686.01C564.24 686.47 565.01 686.87 565.69 687.04C566.38 687.22 567.58 687.25 568.44 687.16C569.30 687.07 570.48 686.85 571.45 686.45C572.42 686.04 574.21 685.07 574.91 684.46C575.61 683.86 575.87 683.48 576.12 682.39C576.37 681.31 576.52 678.24 576.58 677.21C576.64 676.18 576.54 676.14 576.53 675.51C576.52 674.88 576.53 673.37 576.53 672.99"/><path fill="none" stroke="#004dc0" stroke-width="5.0" stroke-linecap="round" stroke-linejoin="round" d="M604.41 672.74C603.46 672.70 599.83 672.33 598.09 672.45C596.36 672.56 593.87 673.25 592.83 673.52C591.79 673.79 591.96 673.82 591.16 674.24C590.37 674.66 588.25 675.67 587.53 676.31C586.80 676.95 586.48 677.86 586.33 678.50C586.17 679.13 586.07 679.99 586.48 680.53C586.90 681.07 587.90 681.82 589.11 682.11C590.31 682.39 592.91 682.53 594.53 682.42C596.16 682.31 598.64 681.82 599.95 681.37C601.26 680.93 602.47 680.29 603.27 679.46C604.08 678.63 604.98 676.58 605.33 675.84C605.67 675.11 605.53 675.25 605.54 674.56C605.56 673.88 605.44 671.77 605.43 671.27"/><path fill="none" stroke="#004dc0" stroke-width="5.0" stroke-linecap="round" stroke-linejoin="round" d="M621.48 640.61C621.48 640.51 621.48 639.55 621.48 639.97C621.48 644.69 621.48 667.23 621.48 672.04C621.48 672.04 621.48 672.04 621.48 672.04"/><path fill="none" stroke="#004dc0" stroke-width="5.0" stroke-linecap="round" stroke-linejoin="round" d="M638.34 640.72C638.34 640.63 638.34 639.75 638.34 640.14C638.34 643.83 638.34 661.54 638.34 665.32"/><path fill="none" stroke="#004dc0" stroke-width="5.0" stroke-linecap="round" stroke-linejoin="round" d="M639.13 683.25C639.13 683.27 639.13 683.35 639.13 683.37"/><path fill="none" stroke="#004dc0" stroke-width="5.0" stroke-linecap="round" stroke-linejoin="round" d="M639.13 683.37C639.13 683.37 639.13 683.37 639.13 683.37"/><path fill="none" stroke="#823ede" stroke-width="2.0" stroke-linecap="round" stroke-linejoin="round" d="M661.67 640.94C661.63 644.35 661.46 660.25 661.42 663.65"/><path fill="none" stroke="#823ede" stroke-width="2.0" stroke-linecap="round" stroke-linejoin="round" d="M663.15 682.27C663.15 682.29 663.15 682.37 663.15 682.39"/><path fill="none" stroke="#d1000d" stroke-width="5.0" stroke-linecap="round" stroke-linejoin="round" d="M692.69 622.26C692.66 622.18 692.52 621.37 692.52 621.74C692.48 627.93 692.46 657.28 692.45 663.55"/><path fill="none" stroke="#d1000d" stroke-width="5.0" stroke-linecap="round" stroke-linejoin="round" d="M692.45 698.02C692.45 698.03 692.45 698.12 692.45 698.14"/>
</svg>