<?xml version="1.0" encoding="UTF-8"?>
<!DOCTYPE svg PUBLIC "-//W3C//DTD SVG 1.1//EN" "http://www.w3.org/Graphics/SVG/1.1/DTD/svg11.dtd">
<svg  xmlns="http://www.w3.org/2000/svg" xmlns:xlink="http://www.w3.org/1999/xlink" viewport-fill="none" viewBox="0.0, 0.0, 1077.0, 630.0" version="1.1" height="630.0" width="1077.0">
<path fill="none" stroke="#004dc0" stroke-width="1.5" stroke-linecap="round" stroke-linejoin="round" d="M1005.00 252.50C1004.40 254.63 1001.54 266.54 1001.00 266.73C1000.45 266.91 1001.18 256.37 1001.36 253.73C1001.55 251.10 1001.81 250.44 1002.23 249.15C1002.65 247.86 1003.48 246.12 1004.18 245.13C1004.89 244.13 1006.07 243.00 1006.94 242.50C1007.81 242.00 1009.20 241.67 1010.00 241.78C1010.81 241.88 1011.85 242.52 1012.31 243.21C1012.76 243.90 1013.06 245.33 1013.04 246.35C1013.02 247.37 1012.63 248.90 1012.17 250.00C1011.70 251.11 1011.11 252.69 1009.96 253.74C1008.81 254.79 1005.54 256.44 1004.50 257.00C1003.57 257.50 1003.22 257.42 1003.00 257.50"/><path fill="none" stroke="#004dc0" stroke-width="1.5" stroke-linecap="round" stroke-linejoin="round" d="M1016.50 264.00C1016.41 264.55 1015.93 267.84 1015.91 267.64C1015.89 267.44 1015.88 264.38 1016.35 262.66C1016.82 260.94 1018.34 257.57 1019.04 256.18C1019.74 254.79 1020.43 254.02 1021.02 253.40C1021.61 252.79 1022.40 252.13 1023.00 252.07C1023.60 252.01 1024.70 252.86 1025.00 253.00"/><path fill="none" stroke="#004dc0" stroke-width="1.5" stroke-linecap="round" stroke-linejoin="round" d="M1031.00 258.50C1030.99 258.05 1031.43 255.69 1030.94 255.51C1030.45 255.34 1028.59 256.26 1027.72 257.31C1026.85 258.36 1025.45 261.40 1025.14 262.51C1024.83 263.62 1025.30 264.27 1025.66 264.69C1026.01 265.12 1026.42 265.76 1027.49 265.35C1028.57 264.93 1031.74 262.89 1032.80 261.92C1033.85 260.95 1034.06 260.12 1034.54 258.85C1035.02 257.59 1035.78 254.30 1036.00 253.50"/><path fill="none" stroke="#004dc0" stroke-width="1.5" stroke-linecap="round" stroke-linejoin="round" d="M1040.50 245.50C1040.50 245.42 1040.53 244.61 1040.50 244.96C1040.37 246.57 1039.71 253.17 1039.60 256.19C1039.49 259.21 1039.58 263.75 1039.79 265.07C1039.92 265.87 1040.74 265.16 1041.00 265.00C1041.26 264.84 1041.43 264.15 1041.50 264.00"/><path fill="none" stroke="#004dc0" stroke-width="1.5" stroke-linecap="round" stroke-linejoin="round" d="M1047.00 255.00C1047.08 254.94 1047.54 254.12 1047.54 254.57C1047.54 255.77 1047.08 261.74 1047.00 263.00"/><path fill="none" stroke="#004dc0" stroke-width="1.5" stroke-linecap="round" stroke-linejoin="round" d="M1048.50 247.50C1048.52 247.19 1048.47 245.83 1048.62 245.46C1048.77 245.08 1049.29 244.99 1049.50 245.00C1049.71 245.01 1049.93 245.43 1050.00 245.50"/><path fill="none" stroke="#004dc0" stroke-width="1.5" stroke-linecap="round" stroke-linejoin="round" d="M1053.50 258.50C1053.70 258.89 1054.15 261.80 1054.80 261.13C1055.45 260.46 1057.21 255.30 1057.84 254.03C1058.36 252.98 1058.68 252.90 1058.99 252.70C1059.29 252.50 1059.64 252.15 1059.85 252.69C1060.07 253.23 1060.40 254.81 1060.42 256.36C1060.44 257.91 1060.06 262.00 1060.00 263.00"/><path fill="none" stroke="#004dc0" stroke-width="1.5" stroke-linecap="round" stroke-linejoin="round" d="M1070.00 260.50C1070.61 259.44 1073.48 254.71 1074.07 253.44C1074.47 252.60 1074.12 252.33 1073.96 252.06C1073.81 251.78 1073.66 251.38 1073.04 251.59C1072.43 251.80 1070.56 252.52 1069.84 253.45C1069.12 254.39 1068.38 256.84 1068.23 257.80C1068.08 258.77 1068.47 259.41 1068.82 259.88C1069.18 260.35 1069.61 260.76 1070.61 260.93C1071.61 261.10 1074.77 260.99 1075.50 261.00"/><path fill="none" stroke="#004dc0" stroke-width="1.5" stroke-linecap="round" stroke-linejoin="round" d="M1000.00 306.50C1000.14 307.13 1000.77 308.58 1000.93 310.72C1001.09 312.86 1000.78 322.21 1001.06 320.75C1001.33 319.29 1002.34 304.68 1002.76 300.97C1003.15 297.60 1003.47 297.15 1003.91 296.01C1004.35 294.87 1005.06 293.81 1005.69 293.37C1006.32 292.93 1007.33 292.85 1008.11 293.07C1008.89 293.29 1010.15 294.16 1010.89 294.83C1011.64 295.51 1012.64 296.76 1013.10 297.57C1013.55 298.38 1013.93 299.47 1013.90 300.21C1013.87 300.95 1013.42 301.87 1012.90 302.49C1012.37 303.11 1011.34 303.87 1010.40 304.34C1009.46 304.81 1007.57 305.29 1006.61 305.61C1005.65 305.93 1004.47 306.29 1004.00 306.50C1003.57 306.69 1003.58 306.92 1003.50 307.00"/><path fill="none" stroke="#004dc0" stroke-width="1.5" stroke-linecap="round" stroke-linejoin="round" d="M1014.50 313.00C1014.72 313.25 1015.76 314.20 1015.96 314.65C1016.17 315.10 1016.04 315.93 1015.89 316.00C1015.73 316.07 1015.08 315.87 1014.92 315.09C1014.75 314.31 1014.48 312.26 1014.79 310.82C1015.11 309.38 1016.39 306.55 1017.02 305.48C1017.65 304.41 1018.37 303.98 1018.96 303.68C1019.56 303.39 1020.39 303.38 1021.00 303.50C1021.61 303.62 1022.70 304.35 1023.00 304.50"/><path fill="none" stroke="#004dc0" stroke-width="1.5" stroke-linecap="round" stroke-linejoin="round" d="M1027.00 308.50C1026.94 308.35 1026.98 307.56 1026.61 307.49C1026.24 307.41 1025.13 307.35 1024.54 307.99C1023.96 308.62 1022.93 310.81 1022.70 311.74C1022.47 312.67 1022.75 313.54 1023.01 314.19C1023.27 314.84 1023.87 315.68 1024.44 316.09C1025.00 316.50 1026.05 316.95 1026.77 316.93C1027.48 316.91 1028.53 316.43 1029.21 315.96C1029.90 315.48 1030.91 314.62 1031.34 313.78C1031.77 312.94 1032.22 311.59 1032.10 310.34C1031.97 309.10 1030.96 306.38 1030.50 305.50C1030.04 304.62 1029.22 304.65 1029.00 304.50"/><path fill="none" stroke="#004dc0" stroke-width="1.5" stroke-linecap="round" stroke-linejoin="round" d="M1045.50 318.50C1045.32 318.32 1044.53 317.76 1044.33 317.29C1044.13 316.82 1044.15 315.50 1044.18 315.39C1044.21 315.28 1044.78 316.17 1044.53 316.56C1044.29 316.95 1042.78 317.92 1042.56 317.98C1042.33 318.03 1042.51 317.17 1043.02 316.92C1043.53 316.67 1045.27 315.87 1045.96 316.31C1046.65 316.75 1047.50 318.73 1047.60 319.84C1047.69 320.95 1047.29 322.42 1046.60 323.72C1045.91 325.02 1043.91 327.41 1043.00 328.50C1042.09 329.59 1040.88 330.62 1040.50 331.00"/><path fill="none" stroke="#004dc0" stroke-width="1.5" stroke-linecap="round" stroke-linejoin="round" d="M1058.00 305.00C1057.92 306.12 1057.20 313.58 1057.44 312.47C1057.67 311.35 1058.75 300.81 1059.57 297.55C1060.39 294.29 1062.06 291.93 1062.88 290.74C1063.69 289.56 1064.41 289.73 1065.00 289.62C1065.60 289.52 1066.39 289.75 1066.83 290.05C1067.28 290.35 1067.76 291.01 1067.94 291.62C1068.13 292.23 1068.27 293.28 1068.06 294.09C1067.85 294.90 1067.13 296.12 1066.56 297.00C1065.99 297.88 1065.11 299.14 1064.26 299.96C1063.41 300.78 1062.05 301.78 1060.89 302.46C1059.73 303.14 1057.16 304.19 1056.50 304.50"/><path fill="none" stroke="#004dc0" stroke-width="1.5" stroke-linecap="round" stroke-linejoin="round" d="M122.00 52.50C122.05 51.63 122.40 47.75 122.36 46.71C122.33 45.84 122.12 45.79 121.75 45.55C121.37 45.31 120.63 45.05 119.85 45.12C119.08 45.20 117.67 45.56 116.57 46.07C115.48 46.57 113.67 47.59 112.53 48.47C111.40 49.35 109.77 50.89 109.00 51.93C108.23 52.96 107.51 54.50 107.42 55.37C107.32 56.24 107.74 57.25 108.36 57.74C108.99 58.22 109.37 58.59 111.61 58.59C113.94 58.59 121.79 57.73 123.90 57.73C125.22 57.72 125.44 58.24 125.70 58.57C125.96 58.90 125.88 59.51 125.62 59.94C125.37 60.36 124.69 60.97 124.01 61.38C123.33 61.80 122.04 62.39 121.08 62.70C120.12 63.01 118.96 63.34 117.60 63.46C116.24 63.58 112.92 63.57 112.00 63.50C111.53 63.46 111.57 63.08 111.50 63.00"/><path fill="none" stroke="#004dc0" stroke-width="1.5" stroke-linecap="round" stroke-linejoin="round" d="M130.50 67.00C130.87 68.14 132.78 75.09 133.00 74.59C133.22 74.10 132.05 67.12 131.99 63.70C131.92 60.27 132.29 54.18 132.59 51.77C132.89 49.36 133.50 48.49 133.99 47.66C134.48 46.82 135.32 46.23 135.86 46.18C136.40 46.13 137.19 46.69 137.61 47.32C138.03 47.95 138.52 49.37 138.68 50.39C138.83 51.41 138.79 53.00 138.65 54.10C138.52 55.20 138.16 56.85 137.78 57.74C137.39 58.63 136.64 59.55 136.07 60.04C135.51 60.53 134.31 60.86 134.00 61.00"/><path fill="none" stroke="#004dc0" stroke-width="1.5" stroke-linecap="round" stroke-linejoin="round" d="M147.00 55.50C148.01 54.60 152.58 50.65 153.71 49.47C154.65 48.49 154.48 48.13 154.56 47.63C154.65 47.13 154.50 46.45 154.26 46.13C154.01 45.80 153.45 45.53 152.95 45.45C152.45 45.38 151.58 45.41 150.92 45.63C150.27 45.84 149.28 46.34 148.61 46.88C147.95 47.42 147.02 48.43 146.48 49.22C145.95 50.01 145.32 51.24 145.04 52.17C144.77 53.09 144.61 54.45 144.66 55.37C144.71 56.29 144.91 57.57 145.38 58.28C145.86 58.98 146.90 59.74 147.82 60.07C148.74 60.41 150.27 60.59 151.50 60.50C152.73 60.41 155.32 59.65 156.00 59.50"/><path fill="none" stroke="#004dc0" stroke-width="1.5" stroke-linecap="round" stroke-linejoin="round" d="M166.50 47.00C166.43 46.85 166.47 46.31 166.00 46.00C165.53 45.69 164.02 44.97 163.38 44.92C162.74 44.86 162.24 45.24 161.74 45.63C161.24 46.03 160.47 46.87 160.05 47.56C159.62 48.26 159.11 49.41 158.91 50.26C158.71 51.11 158.58 52.42 158.73 53.23C158.89 54.04 159.41 55.10 159.95 55.66C160.50 56.23 161.38 56.86 162.34 56.98C163.30 57.10 165.21 56.76 166.35 56.46C167.50 56.17 169.15 55.52 170.00 55.00C170.85 54.48 171.70 53.30 172.00 53.00"/><path fill="none" stroke="#004dc0" stroke-width="1.5" stroke-linecap="round" stroke-linejoin="round" d="M173.50 46.50C173.44 47.61 173.00 52.50 173.07 53.93C173.15 55.35 173.86 55.69 174.00 56.00"/><path fill="none" stroke="#004dc0" stroke-width="1.5" stroke-linecap="round" stroke-linejoin="round" d="M172.00 40.00C172.00 39.92 171.93 39.50 172.00 39.50C172.07 39.50 172.43 39.92 172.50 40.00"/><path fill="none" stroke="#004dc0" stroke-width="1.5" stroke-linecap="round" stroke-linejoin="round" d="M189.00 48.00C188.91 47.69 188.68 46.37 188.39 45.93C188.10 45.48 187.56 45.19 187.08 45.04C186.60 44.89 185.78 44.83 185.18 44.95C184.58 45.07 183.68 45.38 183.08 45.86C182.48 46.33 181.63 47.32 181.18 48.10C180.72 48.88 180.23 50.18 180.03 51.06C179.84 51.93 179.74 53.23 179.91 53.95C180.08 54.67 180.66 55.56 181.15 55.87C181.65 56.18 182.55 56.19 183.19 55.99C183.82 55.79 184.78 55.14 185.38 54.53C185.98 53.93 186.79 52.90 187.19 51.96C187.60 51.02 187.97 48.54 188.06 48.25C188.14 47.96 187.68 49.45 187.76 50.02C187.83 50.60 188.17 51.55 188.56 52.08C188.94 52.62 189.72 53.33 190.34 53.60C190.95 53.86 191.91 54.05 192.64 53.83C193.37 53.60 194.48 52.92 195.18 52.10C195.89 51.28 196.83 49.69 197.33 48.35C197.83 47.01 198.26 44.79 198.53 43.19C198.79 41.58 199.11 39.47 199.11 37.65C199.11 35.84 198.84 31.50 198.50 31.10C198.16 30.70 197.22 33.67 196.83 35.00C196.44 36.33 196.05 37.67 195.90 39.95C195.76 42.23 195.61 48.13 195.86 50.22C196.11 52.31 196.80 53.17 197.57 53.89C198.34 54.61 199.96 54.91 201.00 55.00C202.04 55.09 203.98 54.58 204.50 54.50"/><path fill="none" stroke="#004dc0" stroke-width="1.5" stroke-linecap="round" stroke-linejoin="round" d="M213.00 49.50C212.98 49.37 213.05 48.81 212.90 48.66C212.75 48.51 212.13 48.52 212.00 48.50"/><path fill="none" stroke="#ffd873" stroke-opacity="0.5" stroke-width="20.0" stroke-linecap="round" stroke-linejoin="round" d="M111.50 51.50C110.35 51.22 98.66 50.40 103.85 49.65C111.33 48.55 144.56 46.01 161.34 44.22C178.11 42.43 203.93 39.22 215.68 37.71C227.42 36.20 238.79 34.56 239.63 34.16C240.48 33.75 232.15 33.74 221.28 35.00C210.41 36.25 179.87 40.54 167.19 42.52C154.50 44.49 144.97 46.48 136.70 48.16C128.42 49.84 117.79 52.27 112.02 53.75C106.24 55.22 100.62 56.98 98.21 58.02C96.05 58.95 94.85 60.18 95.93 60.71C97.02 61.25 101.07 61.54 105.45 61.58C109.82 61.62 112.02 61.74 125.13 60.99C139.37 60.17 187.16 56.91 200.39 56.14C209.01 55.64 211.21 55.69 213.34 55.84C214.55 55.93 215.70 56.67 214.60 57.15C213.12 57.80 210.98 58.49 203.50 60.17C190.81 63.03 144.16 72.97 130.02 76.19C116.00 79.39 113.83 80.23 109.16 81.68C104.50 83.12 100.15 84.94 98.92 85.84C97.69 86.73 99.13 87.49 100.95 87.67C103.31 87.89 109.19 87.72 114.65 87.35C120.11 86.98 122.62 87.01 137.35 85.20C152.08 83.38 199.09 77.21 212.85 75.24C223.79 73.68 225.27 73.01 229.12 72.08C232.96 71.15 236.68 69.97 238.49 69.05C240.29 68.13 241.52 66.82 241.17 65.94C240.81 65.05 239.02 63.82 236.11 63.17C233.19 62.53 227.32 61.86 221.73 61.65C216.14 61.45 206.57 61.51 198.82 61.80C191.07 62.09 184.63 62.28 170.05 63.58C155.47 64.89 112.38 69.63 101.63 70.50C99.36 70.68 97.58 70.22 98.40 69.38C99.22 68.53 102.60 66.67 107.07 64.85C111.54 63.02 115.97 61.19 128.22 57.20C140.46 53.20 175.43 42.25 188.71 38.22C201.99 34.19 210.12 32.30 216.74 30.32C223.36 28.35 229.94 26.26 232.84 25.07C235.43 24.01 237.10 22.88 236.08 22.41C235.07 21.94 230.80 21.83 226.04 21.95C221.29 22.08 216.40 22.03 204.40 23.25C192.41 24.47 158.98 28.38 146.07 30.08C133.16 31.79 126.86 32.99 118.35 34.61C109.83 36.23 93.24 39.89 89.31 40.87C87.47 41.33 90.25 41.36 92.13 41.16C94.87 40.88 97.29 40.59 107.53 38.97C123.08 36.49 179.24 27.26 195.83 24.68C210.66 22.37 213.58 22.20 218.15 21.73C222.72 21.26 226.13 21.18 226.29 21.54C226.45 21.91 224.08 22.86 219.23 24.16C204.51 28.09 146.59 42.75 128.17 47.73C109.75 52.72 104.26 54.71 96.45 57.40C88.63 60.08 79.98 63.55 76.04 65.62C72.11 67.69 69.40 70.08 70.19 71.22C70.99 72.35 75.93 73.13 81.37 73.18C86.81 73.23 97.69 72.45 106.48 71.54C115.28 70.63 129.80 68.61 140.00 67.12C150.20 65.63 165.07 63.15 174.48 61.59C183.88 60.04 195.78 58.01 202.70 56.76C209.62 55.52 217.23 54.05 220.60 53.31C223.73 52.63 225.52 52.08 225.18 51.85C224.83 51.61 222.30 51.51 218.30 51.75C214.31 51.98 205.75 52.65 198.56 53.42C191.37 54.20 178.71 55.76 170.37 56.90C162.03 58.05 149.71 59.98 142.96 61.07C136.21 62.16 128.67 63.53 125.39 64.20C122.43 64.80 118.07 66.00 121.06 65.54C124.31 65.05 132.80 63.85 147.05 60.92C161.29 57.99 205.66 48.24 216.00 46.00"/><path fill="none" stroke="#004dc0" stroke-width="1.5" stroke-linecap="round" stroke-linejoin="round" d="M131.50 189.50C131.49 189.29 131.62 188.32 131.43 188.11C131.23 187.90 130.68 187.87 130.22 188.12C129.76 188.38 128.89 189.19 128.36 189.80C127.83 190.41 127.07 191.41 126.68 192.22C126.30 193.03 125.88 194.37 125.77 195.19C125.66 196.00 125.68 197.08 125.93 197.67C126.17 198.27 126.86 198.94 127.40 199.15C127.95 199.36 128.97 199.32 129.59 199.05C130.22 198.78 131.10 198.00 131.57 197.35C132.05 196.71 132.60 195.64 132.76 194.76C132.92 193.88 132.85 192.42 132.62 191.51C132.38 190.59 131.73 189.31 131.20 188.68C130.66 188.06 129.73 187.46 129.04 187.31C128.35 187.17 127.27 187.28 126.60 187.71C125.94 188.14 125.02 189.27 124.60 190.18C124.17 191.09 123.80 192.74 123.77 193.79C123.73 194.84 123.99 196.35 124.38 197.17C124.78 198.00 125.68 198.96 126.41 199.30C127.14 199.63 128.42 199.67 129.25 199.39C130.08 199.12 131.31 198.18 131.97 197.44C132.63 196.71 133.36 195.41 133.66 194.46C133.95 193.52 134.08 192.03 133.95 191.14C133.82 190.24 133.27 189.04 132.79 188.48C132.31 187.91 131.38 187.48 130.75 187.37C130.13 187.26 129.20 187.40 128.60 187.73C128.00 188.07 127.16 188.95 126.73 189.62C126.30 190.29 125.88 191.46 125.73 192.21C125.58 192.96 125.60 194.02 125.74 194.63C125.87 195.25 126.27 195.99 126.64 196.29C127.01 196.58 127.72 196.69 128.20 196.59C128.69 196.49 129.45 196.06 129.89 195.64C130.33 195.22 130.91 194.39 131.14 193.81C131.37 193.23 131.49 192.28 131.43 191.77C131.37 191.27 131.04 190.67 130.75 190.44C130.46 190.21 129.90 190.08 129.49 190.22C129.08 190.35 128.35 190.59 128.00 191.34C127.65 192.09 127.15 194.45 127.16 195.23C127.16 196.00 127.66 196.30 128.02 196.52C128.37 196.74 129.06 196.79 129.52 196.67C129.98 196.55 130.68 196.11 131.08 195.74C131.47 195.36 131.99 194.82 132.15 194.18C132.32 193.53 132.46 191.80 132.15 191.45C131.84 191.11 130.66 191.36 130.09 191.89C129.52 192.41 128.25 194.92 128.36 194.96C128.48 195.00 130.67 192.34 130.87 192.17C131.06 191.99 129.85 193.49 129.68 193.78C129.58 193.94 129.59 194.21 129.70 194.06C129.82 193.88 130.68 192.83 130.49 192.61C130.30 192.38 128.39 192.50 128.42 192.56C128.46 192.62 129.17 193.01 130.75 193.00C133.24 192.98 136.05 193.08 145.03 192.43C154.01 191.77 182.97 189.22 190.62 188.62C194.21 188.34 194.77 188.44 196.02 188.42C197.26 188.39 198.72 188.45 198.94 188.46C199.16 188.47 197.72 188.49 197.50 188.50"/><path fill="none" stroke="#004dc0" stroke-width="1.5" stroke-linecap="round" stroke-linejoin="round" d="M209.00 180.50C209.00 180.11 208.96 176.21 209.00 177.93C209.07 180.93 209.35 197.26 209.50 200.50C209.53 201.24 209.93 199.65 210.00 199.50"/><path fill="none" stroke="#004dc0" stroke-width="1.5" stroke-linecap="round" stroke-linejoin="round" d="M217.50 182.50C217.50 182.26 217.49 179.80 217.50 180.88C217.52 182.73 217.45 191.80 217.60 194.82C217.75 197.84 218.37 200.07 218.50 201.00"/><path fill="none" stroke="#004dc0" stroke-width="1.5" stroke-linecap="round" stroke-linejoin="round" d="M210.00 193.00C209.67 192.93 206.39 192.94 207.82 192.56C209.24 192.19 217.75 190.81 219.50 190.50"/><path fill="none" stroke="#004dc0" stroke-width="1.5" stroke-linecap="round" stroke-linejoin="round" d="M335.50 172.50C335.46 171.96 335.55 169.58 335.26 168.92C334.96 168.26 334.15 168.16 333.52 168.09C332.88 168.01 331.87 168.07 331.04 168.44C330.20 168.81 328.88 169.65 327.96 170.54C327.03 171.44 325.65 173.08 324.89 174.41C324.13 175.73 323.24 177.88 322.87 179.40C322.50 180.92 322.30 183.21 322.42 184.55C322.54 185.89 323.12 187.48 323.68 188.33C324.24 189.18 325.36 189.96 326.15 190.24C326.95 190.52 328.19 190.43 328.95 190.19C329.71 189.95 330.71 189.17 331.21 188.63C331.71 188.09 332.11 187.21 332.28 186.58C332.44 185.95 332.51 185.19 332.30 184.43C332.09 183.68 331.03 182.16 330.88 181.53C330.72 180.90 331.06 180.40 331.29 180.22C331.52 180.04 331.87 179.89 332.42 180.32C332.96 180.76 334.22 181.74 334.91 183.11C335.60 184.48 336.54 188.43 337.00 189.46C337.31 190.15 337.85 189.92 338.00 190.00"/><path fill="none" stroke="#004dc0" stroke-width="1.5" stroke-linecap="round" stroke-linejoin="round" d="M345.50 169.00C345.32 168.73 344.60 166.67 344.32 167.18C344.03 167.70 343.70 169.63 343.60 172.44C343.50 175.25 343.51 183.59 343.65 185.93C343.73 187.42 344.22 187.69 344.50 188.00C344.78 188.31 345.35 188.00 345.50 188.00"/><path fill="none" stroke="#004dc0" stroke-width="1.5" stroke-linecap="round" stroke-linejoin="round" d="M353.50 178.00C353.49 177.81 353.58 176.50 353.43 176.76C353.28 177.01 352.46 178.67 352.49 179.70C352.53 180.73 353.21 182.90 353.65 183.60C354.09 184.31 354.84 184.33 355.43 184.39C356.02 184.44 356.97 184.31 357.58 183.99C358.18 183.68 358.99 182.90 359.46 182.28C359.93 181.67 360.45 180.64 360.69 179.87C360.94 179.10 361.13 178.03 361.11 177.16C361.09 176.29 360.24 172.02 360.56 174.08C361.11 177.68 364.14 195.95 364.79 201.15C365.41 206.19 365.13 206.77 364.86 208.76C364.60 210.75 363.86 213.08 363.04 214.41C362.22 215.75 360.63 217.05 359.41 217.65C358.19 218.25 356.20 218.49 354.91 218.39C353.63 218.29 351.77 217.71 350.85 216.98C349.93 216.26 348.97 214.83 348.77 213.57C348.57 212.30 348.91 210.20 349.50 208.54C350.09 206.88 351.37 204.34 352.68 202.52C353.99 200.70 356.45 198.04 358.22 196.39C359.99 194.74 362.96 192.53 364.50 191.50C366.04 190.47 367.90 189.80 368.50 189.50"/><path fill="none" stroke="#004dc0" stroke-width="1.5" stroke-linecap="round" stroke-linejoin="round" d="M383.00 178.50C382.97 178.03 383.02 175.91 382.82 175.40C382.62 174.89 382.33 174.67 381.68 175.09C381.03 175.51 379.17 177.26 378.49 178.19C377.82 179.13 377.39 180.38 377.17 181.33C376.94 182.28 376.84 183.69 377.00 184.54C377.17 185.39 377.70 186.51 378.28 186.99C378.85 187.47 379.99 187.77 380.85 187.76C381.70 187.76 383.09 187.41 383.98 186.97C384.88 186.53 386.09 185.57 386.81 184.85C387.52 184.13 388.36 183.15 388.76 182.19C389.15 181.22 389.53 178.78 389.45 178.42C389.37 178.05 388.52 178.87 388.22 179.76C387.91 180.66 387.53 183.46 387.43 184.39C387.32 185.33 387.41 185.61 387.50 186.00C387.59 186.39 387.92 186.85 388.00 187.00"/><path fill="none" stroke="#004dc0" stroke-width="1.5" stroke-linecap="round" stroke-linejoin="round" d="M389.50 171.50C389.51 171.20 389.42 169.73 389.57 169.50C389.72 169.27 390.36 169.93 390.50 170.00"/><path fill="none" stroke="#004dc0" stroke-width="1.5" stroke-linecap="round" stroke-linejoin="round" d="M396.00 181.50C395.99 182.02 395.34 185.62 395.97 184.97C396.59 184.33 399.24 178.70 400.17 177.20C401.10 175.71 401.61 175.43 402.14 175.01C402.68 174.59 403.37 174.32 403.73 174.43C404.08 174.54 404.34 174.74 404.51 175.74C404.75 177.12 404.92 182.30 405.28 183.64C405.61 184.88 406.31 184.61 406.92 184.67C407.52 184.73 408.52 184.49 409.31 184.07C410.10 183.64 411.39 182.66 412.17 181.82C412.96 180.98 414.04 179.52 414.56 178.48C415.09 177.43 415.54 175.78 415.68 174.86C415.81 173.93 415.73 172.81 415.49 172.32C415.25 171.83 414.59 171.47 414.07 171.58C413.56 171.68 412.54 172.35 412.06 173.02C411.57 173.70 411.05 175.07 410.85 176.06C410.64 177.04 410.37 178.64 410.68 179.58C411.00 180.52 411.76 181.73 412.94 182.32C414.11 182.91 416.77 183.40 418.50 183.50C420.23 183.60 423.60 183.07 424.50 183.00"/><path fill="none" stroke="#004dc0" stroke-width="1.5" stroke-linecap="round" stroke-linejoin="round" d="M339.50 235.50C338.85 234.92 336.27 231.96 335.19 231.67C334.11 231.37 333.01 232.65 332.28 233.55C331.56 234.45 330.74 236.43 330.35 237.67C329.96 238.92 329.59 240.58 329.67 241.86C329.75 243.14 330.34 245.18 330.88 246.22C331.41 247.26 332.47 248.29 333.24 248.79C334.01 249.29 335.26 249.50 336.01 249.54C336.76 249.58 337.73 249.35 338.23 249.05C338.74 248.75 339.36 248.58 339.41 247.55C339.46 246.51 338.59 243.14 338.55 242.13C338.52 241.17 338.83 241.14 339.15 240.82C339.46 240.51 340.15 240.14 340.66 240.05C341.17 239.96 342.02 240.00 342.54 240.23C343.06 240.45 343.65 240.55 344.10 241.55C344.55 242.55 345.30 245.61 345.52 246.88C345.74 248.15 345.46 249.23 345.54 250.00C345.61 250.77 345.78 251.62 346.00 252.00C346.22 252.38 346.85 252.43 347.00 252.50"/><path fill="none" stroke="#004dc0" stroke-width="1.5" stroke-linecap="round" stroke-linejoin="round" d="M355.00 230.00C354.94 229.82 354.51 227.99 354.61 228.82C354.75 230.03 355.51 235.71 355.95 238.05C356.39 240.39 357.15 243.31 357.54 244.43C357.85 245.34 358.36 245.34 358.50 245.50"/><path fill="none" stroke="#004dc0" stroke-width="1.5" stroke-linecap="round" stroke-linejoin="round" d="M365.00 235.50C365.08 235.35 365.43 234.13 365.50 234.48C365.57 234.83 365.32 237.01 365.47 237.86C365.62 238.72 366.01 239.57 366.48 240.18C366.95 240.79 367.83 241.55 368.59 241.91C369.36 242.28 370.63 242.66 371.61 242.64C372.58 242.61 374.18 242.23 375.11 241.75C376.04 241.27 377.18 240.23 377.80 239.46C378.41 238.68 378.98 237.48 379.19 236.56C379.40 235.64 379.50 234.36 379.17 233.32C378.83 232.27 377.42 230.14 376.96 229.62C376.56 229.17 376.26 229.51 376.10 229.88C375.93 230.24 375.70 230.60 375.83 232.06C376.08 234.82 377.34 244.81 377.76 248.29C378.19 251.77 378.50 253.28 378.67 255.25C378.84 257.22 379.01 259.80 378.92 261.40C378.83 263.01 378.49 264.91 378.07 265.95C377.65 266.99 376.78 267.94 376.10 268.33C375.41 268.72 374.22 268.75 373.51 268.54C372.80 268.33 371.87 267.62 371.35 266.93C370.83 266.25 370.15 265.08 370.04 263.98C369.93 262.88 370.17 260.92 370.61 259.57C371.05 258.23 372.12 256.36 373.00 255.00C373.88 253.64 375.98 251.18 376.50 250.50"/><path fill="none" stroke="#004dc0" stroke-width="1.5" stroke-linecap="round" stroke-linejoin="round" d="M397.50 244.00C397.50 243.92 397.65 243.54 397.50 243.46C397.35 243.38 396.64 243.47 396.49 243.49C396.44 243.49 396.51 243.52 396.47 243.56C396.41 243.63 396.02 244.06 396.07 243.93C396.12 243.80 396.45 242.81 396.80 242.69C397.16 242.56 398.13 242.74 398.44 243.11C398.75 243.47 399.14 243.78 398.85 245.11C398.56 246.44 396.85 250.97 396.50 252.00"/><path fill="none" stroke="#004dc0" stroke-width="1.5" stroke-linecap="round" stroke-linejoin="round" d="M421.00 224.50C420.91 224.10 420.74 222.23 420.40 221.81C420.07 221.39 419.47 221.07 418.74 221.69C418.02 222.31 416.25 224.75 415.56 225.95C414.87 227.14 414.45 228.50 414.15 229.65C413.86 230.81 413.60 232.52 413.59 233.63C413.58 234.74 413.73 236.21 414.08 237.06C414.43 237.90 415.27 238.82 415.94 239.26C416.61 239.70 417.75 240.01 418.55 240.00C419.34 239.99 420.51 239.62 421.23 239.18C421.94 238.74 422.87 237.81 423.30 237.09C423.73 236.37 424.01 235.19 424.09 234.38C424.16 233.57 424.19 232.55 423.82 231.68C423.44 230.81 421.95 229.12 421.56 228.58C421.35 228.29 420.90 228.18 421.26 228.14C421.93 228.07 425.00 227.95 426.01 228.11C427.01 228.28 427.47 228.73 427.95 229.24C428.42 229.75 428.95 230.71 429.17 231.51C429.40 232.31 429.56 232.91 429.46 234.56C429.36 236.21 428.64 241.31 428.50 242.50"/><path fill="none" stroke="#004dc0" stroke-width="1.5" stroke-linecap="round" stroke-linejoin="round" d="M113.00 441.50C112.91 441.30 112.76 440.50 112.40 440.14C112.03 439.78 111.10 438.91 110.56 439.09C110.02 439.28 109.01 440.33 108.78 441.38C108.56 442.44 108.82 445.19 109.07 446.12C109.32 447.06 109.96 447.38 110.46 447.62C110.96 447.86 111.85 447.93 112.42 447.72C112.99 447.51 113.82 446.84 114.28 446.22C114.74 445.61 115.28 444.46 115.46 443.61C115.65 442.76 115.67 441.39 115.51 440.55C115.35 439.72 114.81 438.57 114.40 438.04C113.98 437.51 113.23 437.04 112.74 437.00C112.24 436.96 111.50 437.26 111.07 437.75C110.64 438.25 110.06 439.42 109.85 440.30C109.64 441.18 109.58 442.67 109.65 443.64C109.72 444.62 110.02 446.04 110.32 446.77C110.62 447.50 111.19 448.26 111.65 448.52C112.10 448.78 112.89 448.75 113.35 448.49C113.81 448.24 114.42 447.47 114.72 446.84C115.01 446.21 115.28 445.08 115.32 444.28C115.37 443.48 115.26 442.27 115.04 441.50C114.82 440.73 114.27 439.65 113.86 439.14C113.44 438.64 112.75 438.22 112.27 438.13C111.79 438.04 111.06 438.18 110.64 438.53C110.22 438.87 109.69 439.73 109.46 440.43C109.23 441.13 109.08 442.38 109.11 443.20C109.15 444.02 109.39 445.20 109.70 445.88C110.00 446.56 110.65 447.39 111.13 447.74C111.61 448.09 112.39 448.28 112.90 448.22C113.41 448.16 114.17 447.75 114.53 447.32C114.89 446.89 115.22 446.01 115.30 445.35C115.39 444.68 115.30 443.62 115.09 442.90C114.88 442.17 114.34 441.10 113.91 440.51C113.48 439.93 112.72 439.23 112.21 439.02C111.70 438.82 110.98 438.87 110.52 439.12C110.06 439.37 109.42 440.06 109.13 440.71C108.84 441.36 108.60 442.58 108.57 443.43C108.55 444.28 108.71 445.62 108.97 446.38C109.23 447.14 109.83 448.07 110.30 448.51C110.77 448.94 111.55 449.27 112.10 449.29C112.65 449.31 113.51 448.98 113.96 448.62C114.41 448.26 114.91 447.47 115.11 446.90C115.32 446.33 115.37 445.41 115.33 444.81C115.29 444.22 115.30 443.50 114.87 442.92C114.45 442.35 113.07 441.11 112.47 440.99C111.87 440.87 111.04 441.76 110.89 442.13C110.74 442.49 111.00 443.09 111.46 443.42C111.93 443.74 112.85 444.11 114.01 444.30C115.16 444.49 115.72 444.89 119.17 444.69C126.15 444.28 152.68 442.20 160.52 441.62C167.80 441.08 166.52 441.27 171.43 440.84C176.34 440.40 190.47 439.06 193.26 438.71C195.41 438.44 190.56 438.46 190.00 438.50C189.53 438.54 189.57 438.92 189.50 439.00"/><path fill="none" stroke="#004dc0" stroke-width="1.5" stroke-linecap="round" stroke-linejoin="round" d="M221.50 424.50C221.27 424.14 220.60 422.48 219.96 422.10C219.32 421.72 218.14 421.85 217.25 421.98C216.37 422.11 215.06 422.43 214.03 422.97C212.99 423.51 211.35 424.58 210.37 425.59C209.39 426.59 208.13 428.32 207.52 429.65C206.91 430.99 206.38 433.09 206.28 434.49C206.19 435.89 206.40 437.84 206.90 438.96C207.40 440.08 208.66 441.31 209.63 441.95C210.59 442.60 212.15 443.26 213.34 443.26C214.52 443.26 216.09 442.83 217.54 441.96C218.99 441.10 222.18 438.17 223.00 437.50"/><path fill="none" stroke="#004dc0" stroke-width="1.5" stroke-linecap="round" stroke-linejoin="round" d="M227.50 422.00C227.44 421.83 227.04 420.09 227.10 420.88C227.32 423.96 228.53 439.78 228.96 442.57C229.30 444.71 229.84 439.96 230.00 439.50"/><path fill="none" stroke="#004dc0" stroke-width="1.5" stroke-linecap="round" stroke-linejoin="round" d="M236.00 422.00C235.99 421.92 235.87 421.07 235.92 421.44C236.16 423.10 237.05 430.12 237.59 433.06C238.12 435.99 239.21 439.81 239.50 441.00"/><path fill="none" stroke="#004dc0" stroke-width="1.5" stroke-linecap="round" stroke-linejoin="round" d="M230.00 434.00C230.02 433.84 229.53 433.31 230.14 432.96C230.97 432.49 233.08 431.45 235.54 430.85C237.99 430.26 244.86 429.28 246.50 429.00"/><path fill="none" stroke="#004dc0" stroke-width="1.5" stroke-linecap="round" stroke-linejoin="round" d="M249.50 440.00C249.29 440.33 248.02 442.32 248.11 442.19C248.20 442.06 249.59 439.64 250.08 439.11C250.58 438.57 251.07 438.60 251.42 438.64C251.76 438.68 252.21 438.91 252.37 439.37C252.53 439.83 252.63 440.84 252.51 441.68C252.38 442.51 252.25 443.55 251.55 444.94C250.85 446.32 248.75 449.75 247.85 450.93C246.95 452.11 244.70 453.15 245.54 452.79C246.39 452.43 251.93 449.33 253.50 448.54C255.07 447.74 255.40 447.73 256.00 447.50C256.60 447.27 257.27 447.08 257.50 447.00"/><path fill="none" stroke="#004dc0" stroke-width="1.5" stroke-linecap="round" stroke-linejoin="round" d="M275.00 423.00C274.87 422.84 274.11 422.19 274.14 421.96C274.17 421.72 274.43 421.63 275.20 421.43C276.96 420.97 283.44 419.34 285.88 418.89C288.31 418.44 290.60 418.33 291.44 418.42C292.16 418.50 291.34 419.34 291.50 419.50C291.66 419.66 292.35 419.50 292.50 419.50"/><path fill="none" stroke="#004dc0" stroke-width="1.5" stroke-linecap="round" stroke-linejoin="round" d="M310.00 410.50C310.01 410.25 310.28 409.33 310.04 408.82C309.80 408.30 309.04 407.45 308.39 407.08C307.74 406.71 306.50 406.39 305.72 406.37C304.93 406.35 303.90 406.51 303.15 406.92C302.39 407.33 301.31 408.28 300.70 409.11C300.10 409.94 299.39 411.44 299.11 412.46C298.83 413.47 298.77 414.96 298.86 415.89C298.95 416.83 299.28 418.06 299.70 418.69C300.12 419.33 300.10 419.76 301.63 420.13C303.17 420.50 308.13 420.60 309.93 421.16C311.73 421.72 313.06 423.18 313.63 423.84C314.20 424.50 313.92 425.05 313.74 425.54C313.56 426.03 313.52 426.57 312.44 427.08C311.37 427.58 307.95 428.60 306.56 428.92C305.16 429.25 304.04 429.25 303.14 429.24C302.24 429.23 301.12 429.19 300.57 428.85C300.03 428.52 299.66 427.28 299.50 427.00"/><path fill="none" stroke="#004dc0" stroke-width="1.5" stroke-linecap="round" stroke-linejoin="round" d="M325.50 405.00C325.58 404.76 326.02 402.28 326.02 403.40C326.02 405.50 325.53 415.92 325.51 419.02C325.48 422.12 325.71 423.40 325.85 424.07C325.98 424.63 326.40 423.59 326.50 423.50"/><path fill="none" stroke="#004dc0" stroke-width="1.5" stroke-linecap="round" stroke-linejoin="round" d="M334.00 403.00C334.28 404.39 335.53 409.24 335.90 412.28C336.26 415.31 336.49 421.76 336.43 423.22C336.39 424.24 335.64 422.18 335.50 422.00"/><path fill="none" stroke="#004dc0" stroke-width="1.5" stroke-linecap="round" stroke-linejoin="round" d="M328.50 414.00C328.19 413.95 325.04 413.91 326.42 413.64C328.74 413.19 341.36 411.40 344.00 411.00"/><path fill="none" stroke="#004dc0" stroke-width="1.5" stroke-linecap="round" stroke-linejoin="round" d="M455.50 404.00C455.56 403.45 455.96 401.10 455.93 400.36C455.89 399.63 455.70 399.37 455.26 399.12C454.82 398.87 453.76 398.65 453.00 398.72C452.24 398.78 451.13 399.00 450.20 399.54C449.27 400.07 447.74 401.26 446.81 402.30C445.88 403.35 444.68 405.13 444.02 406.48C443.37 407.83 442.63 409.90 442.44 411.31C442.24 412.73 442.31 414.75 442.70 415.91C443.09 417.07 444.16 418.37 445.04 419.06C445.92 419.75 447.38 420.41 448.58 420.52C449.79 420.63 451.81 420.20 453.07 419.82C454.34 419.44 456.19 418.50 457.00 418.00C457.81 417.50 458.27 416.73 458.50 416.50"/><path fill="none" stroke="#004dc0" stroke-width="1.5" stroke-linecap="round" stroke-linejoin="round" d="M461.50 405.50C461.41 405.35 461.15 404.51 460.93 404.50C460.71 404.49 460.16 404.57 460.04 405.40C459.90 406.39 459.79 409.78 459.99 411.07C460.20 412.36 460.85 413.28 461.40 414.00C461.95 414.72 462.93 415.54 463.66 415.85C464.39 416.16 465.50 416.26 466.25 416.04C467.00 415.81 468.04 415.06 468.65 414.35C469.25 413.64 469.93 412.31 470.26 411.31C470.60 410.31 470.91 409.00 470.87 407.68C470.83 406.35 470.25 403.25 470.01 402.49C469.86 402.02 469.41 402.20 469.28 402.63C469.15 403.06 468.90 403.56 469.14 405.36C469.59 408.78 471.73 421.36 472.26 425.44C472.80 429.51 472.77 430.65 472.71 432.50C472.65 434.35 472.31 436.50 471.84 437.77C471.36 439.03 470.36 440.35 469.52 440.94C468.69 441.52 467.20 441.77 466.27 441.69C465.34 441.61 464.09 441.00 463.32 440.40C462.56 439.81 461.51 438.74 461.16 437.72C460.82 436.69 460.76 434.96 461.04 433.57C461.31 432.19 462.18 430.01 463.00 428.50C463.82 426.99 465.98 424.25 466.50 423.50"/><path fill="none" stroke="#004dc0" stroke-width="1.5" stroke-linecap="round" stroke-linejoin="round" d="M485.50 405.50C485.58 404.79 486.21 401.54 486.03 400.75C485.85 399.96 485.04 399.94 484.30 400.25C483.56 400.56 481.78 402.07 481.10 402.82C480.43 403.57 480.03 404.51 479.80 405.26C479.56 406.01 479.48 407.08 479.55 407.81C479.61 408.54 479.04 409.03 480.21 410.10C481.51 411.27 486.98 414.62 488.18 415.63C488.79 416.14 488.38 416.48 488.18 416.83C487.98 417.18 487.40 417.70 486.85 417.97C486.29 418.25 485.29 418.53 484.48 418.64C483.67 418.75 482.25 418.74 481.43 418.72C480.61 418.70 479.44 418.91 479.00 418.50C478.56 418.09 478.58 416.38 478.50 416.00"/><path fill="none" stroke="#004dc0" stroke-width="1.5" stroke-linecap="round" stroke-linejoin="round" d="M495.00 395.00C495.00 394.92 495.05 394.17 495.00 394.50C494.94 394.92 494.38 395.60 494.60 397.82C494.89 400.75 496.44 411.96 496.95 414.01C497.39 415.77 497.84 411.88 498.00 411.50"/><path fill="none" stroke="#004dc0" stroke-width="1.5" stroke-linecap="round" stroke-linejoin="round" d="M491.00 405.00C490.84 404.92 489.16 404.70 489.93 404.50C491.65 404.05 500.61 402.38 502.50 402.00"/><path fill="none" stroke="#004dc0" stroke-width="1.5" stroke-linecap="round" stroke-linejoin="round" d="M508.50 405.50C508.73 405.45 509.13 405.68 510.05 405.16C510.97 404.63 513.74 402.76 514.63 401.99C515.51 401.22 515.73 400.56 515.94 400.03C516.15 399.51 516.20 398.82 516.00 398.49C515.80 398.16 515.15 397.85 514.61 397.85C514.07 397.85 513.07 398.07 512.39 398.50C511.70 398.93 510.69 399.90 510.06 400.71C509.43 401.52 508.57 402.86 508.18 403.89C507.80 404.92 507.50 406.56 507.51 407.58C507.51 408.60 507.82 409.93 508.22 410.71C508.62 411.50 509.36 412.50 510.16 412.82C510.96 413.13 512.02 413.39 513.57 412.82C515.12 412.25 519.46 409.57 520.50 409.00"/><path fill="none" stroke="#004dc0" stroke-width="1.5" stroke-linecap="round" stroke-linejoin="round" d="M524.00 399.50C523.84 399.79 523.11 400.29 522.94 401.40C522.77 402.52 522.82 405.71 522.89 406.91C522.97 408.10 523.21 408.86 523.44 409.40C523.67 409.94 524.12 410.48 524.43 410.50C524.74 410.52 525.34 409.65 525.50 409.50"/><path fill="none" stroke="#004dc0" stroke-width="1.5" stroke-linecap="round" stroke-linejoin="round" d="M524.50 391.50C524.42 391.42 524.04 390.85 523.96 391.00C523.89 391.15 523.99 392.27 524.00 392.50"/><path fill="none" stroke="#004dc0" stroke-width="1.5" stroke-linecap="round" stroke-linejoin="round" d="M530.50 401.50C530.48 402.61 530.01 409.01 530.37 408.90C530.74 408.78 532.27 402.38 532.93 400.74C533.59 399.10 534.24 398.58 534.78 397.98C535.33 397.38 536.11 396.82 536.56 396.74C537.02 396.66 537.53 396.96 537.80 397.43C538.06 397.91 538.30 398.33 538.33 399.91C538.36 401.50 537.90 406.79 538.00 408.00C538.05 408.66 538.85 408.00 539.00 408.00"/><path fill="none" stroke="#004dc0" stroke-width="1.5" stroke-linecap="round" stroke-linejoin="round" d="M543.50 404.00C544.56 403.12 549.33 399.41 550.60 398.16C551.87 396.91 551.77 396.34 551.97 395.64C552.18 394.94 552.21 394.00 551.98 393.51C551.75 393.01 551.00 392.45 550.46 392.34C549.92 392.23 548.98 392.39 548.37 392.75C547.76 393.11 546.86 393.98 546.39 394.72C545.91 395.47 545.37 396.80 545.22 397.71C545.08 398.63 545.13 400.02 545.41 400.82C545.68 401.61 546.41 402.52 547.06 403.03C547.71 403.54 548.77 404.10 549.72 404.22C550.68 404.34 551.97 404.30 553.44 403.82C554.90 403.34 558.59 401.42 559.50 401.00"/><path fill="none" stroke="#004dc0" stroke-width="1.5" stroke-linecap="round" stroke-linejoin="round" d="M462.50 463.50C462.50 463.35 462.82 463.09 462.50 462.50C462.15 461.84 460.98 459.65 460.15 459.12C459.31 458.59 457.90 458.58 456.92 458.99C455.94 459.39 454.50 460.77 453.60 461.80C452.69 462.83 451.47 464.43 450.89 465.84C450.31 467.26 449.81 469.72 449.71 471.21C449.61 472.71 449.74 474.71 450.21 475.81C450.69 476.92 451.91 478.02 452.88 478.58C453.85 479.14 455.38 479.67 456.68 479.58C457.98 479.48 459.84 478.84 461.54 477.93C463.23 477.02 467.03 474.16 468.00 473.50"/><path fill="none" stroke="#004dc0" stroke-width="1.5" stroke-linecap="round" stroke-linejoin="round" d="M472.50 464.50C472.36 464.24 471.82 462.64 471.58 462.76C471.34 462.88 470.84 464.14 470.92 465.30C471.00 466.46 471.65 469.43 472.10 470.48C472.55 471.53 473.28 471.97 473.92 472.28C474.57 472.59 475.65 472.73 476.38 472.57C477.11 472.41 478.15 471.83 478.77 471.23C479.39 470.62 480.16 469.40 480.52 468.53C480.87 467.66 481.09 466.31 481.13 465.42C481.17 464.54 481.00 463.33 480.80 462.65C480.61 461.98 480.15 461.21 479.84 460.94C479.53 460.66 479.02 460.60 478.72 460.84C478.43 461.08 478.00 461.28 477.90 462.53C477.77 464.13 477.75 469.17 477.90 471.48C478.04 473.80 478.55 475.98 478.87 477.97C479.19 479.96 479.78 482.16 480.03 484.76C480.28 487.36 480.70 493.32 480.55 495.31C480.39 497.31 479.57 497.52 478.99 498.05C478.41 498.58 477.43 498.83 476.66 498.87C475.89 498.91 474.56 498.63 473.86 498.32C473.17 498.00 472.35 497.95 472.00 496.78C471.65 495.61 471.58 491.44 471.50 490.50"/><path fill="none" stroke="#004dc0" stroke-width="1.5" stroke-linecap="round" stroke-linejoin="round" d="M497.00 465.00C497.05 464.44 497.40 461.99 497.35 461.25C497.29 460.50 496.95 460.26 496.64 460.02C496.33 459.79 495.96 459.46 495.26 459.68C494.56 459.89 492.64 460.87 491.98 461.47C491.32 462.06 491.04 463.00 490.86 463.62C490.67 464.23 490.60 465.04 490.74 465.57C490.88 466.10 490.67 466.52 491.76 467.16C493.18 467.98 498.87 470.28 500.19 471.05C500.94 471.49 500.61 471.93 500.54 472.31C500.48 472.69 500.57 473.23 499.74 473.56C498.91 473.89 496.01 474.36 495.00 474.50C493.99 474.64 493.30 474.50 493.00 474.50"/><path fill="none" stroke="#004dc0" stroke-width="1.5" stroke-linecap="round" stroke-linejoin="round" d="M507.50 475.00C507.55 474.73 508.12 473.31 507.85 473.21C507.58 473.11 505.62 473.97 505.71 474.32C505.80 474.67 507.88 475.00 508.44 475.57C509.00 476.13 509.34 477.03 509.43 478.07C509.51 479.11 509.36 481.24 509.00 482.50C508.64 483.76 507.30 485.90 507.00 486.50"/><path fill="none" stroke="#004dc0" stroke-width="1.5" stroke-linecap="round" stroke-linejoin="round" d="M533.50 450.00C533.49 449.55 533.60 447.60 533.43 447.00C533.25 446.40 532.85 446.10 532.34 446.00C531.82 445.90 530.72 445.99 529.99 446.32C529.25 446.65 528.19 447.38 527.42 448.20C526.65 449.02 525.47 450.54 524.85 451.79C524.23 453.03 523.50 455.10 523.28 456.49C523.07 457.88 523.09 459.85 523.41 461.04C523.74 462.23 524.64 463.65 525.44 464.42C526.25 465.20 527.59 466.06 528.78 466.22C529.98 466.37 532.16 465.87 533.39 465.46C534.62 465.06 536.31 464.02 537.00 463.50C537.69 462.98 537.85 462.23 538.00 462.00"/><path fill="none" stroke="#ffd873" stroke-opacity="0.5" stroke-width="20.0" stroke-linecap="round" stroke-linejoin="round" d="M309.00 411.00C308.56 410.02 306.95 405.17 306.07 404.45C305.18 403.74 303.96 405.23 303.09 406.23C302.22 407.24 301.02 408.93 300.28 411.13C299.53 413.32 298.32 417.91 298.10 420.85C297.87 423.80 297.99 428.12 298.78 430.75C299.58 433.37 301.49 436.81 303.41 438.38C305.32 439.94 308.79 441.25 311.55 441.18C314.31 441.11 318.84 439.50 321.80 437.93C324.75 436.35 328.89 433.24 331.24 430.69C333.58 428.13 336.21 423.91 337.41 420.90C338.61 417.88 339.45 413.46 339.26 410.59C339.08 407.71 337.85 403.81 336.20 401.71C334.55 399.62 331.12 397.42 328.24 396.59C325.37 395.76 320.59 395.53 317.05 396.17C313.51 396.81 308.14 398.75 304.64 400.86C301.14 402.98 296.41 407.12 293.70 410.27C290.99 413.43 287.94 418.36 286.57 421.91C285.21 425.45 284.33 430.67 284.61 433.91C284.88 437.15 286.56 441.33 288.43 443.49C290.30 445.66 294.07 447.61 297.08 448.33C300.09 449.04 305.01 449.09 308.47 448.26C311.93 447.43 317.01 444.97 320.15 442.77C323.28 440.58 327.26 436.56 329.35 433.64C331.44 430.71 333.47 426.27 334.09 423.29C334.71 420.32 334.40 416.13 333.51 413.80C332.62 411.46 330.20 408.82 328.14 407.72C326.07 406.62 322.39 406.05 319.75 406.47C317.11 406.89 312.90 408.70 310.55 410.50C308.20 412.30 305.68 415.73 304.09 418.44C302.50 421.15 300.27 425.75 299.96 428.58C299.64 431.40 300.40 435.31 301.98 437.24C303.57 439.18 308.70 440.79 310.50 441.50C312.30 442.21 313.48 441.92 314.00 442.00"/><path fill="none" stroke="#d1000d" stroke-width="1.5" stroke-linecap="round" stroke-linejoin="round" d="M329.00 467.50C328.92 466.61 328.31 461.96 328.46 461.58C328.61 461.20 329.42 462.55 330.02 464.97C330.79 468.11 332.76 477.93 333.61 482.53C334.45 487.14 334.83 488.92 335.64 495.66C336.44 502.41 338.50 522.72 339.00 527.50"/><path fill="none" stroke="#d1000d" stroke-width="1.5" stroke-linecap="round" stroke-linejoin="round" d="M331.50 520.50C331.41 520.49 330.94 520.16 330.89 520.43C330.84 520.69 330.77 521.08 331.14 522.25C331.54 523.50 332.97 527.39 333.58 528.75C334.18 530.11 334.68 530.79 335.15 531.30C335.63 531.80 336.30 532.20 336.74 532.12C337.19 532.05 337.61 531.97 338.13 530.82C339.02 528.85 341.65 521.33 342.68 519.04C343.71 516.74 344.65 516.03 345.00 515.50"/><path fill="none" stroke="#d1000d" stroke-width="1.5" stroke-linecap="round" stroke-linejoin="round" d="M343.00 548.00C342.77 547.41 341.96 544.82 341.50 544.07C341.04 543.32 340.48 543.06 339.92 543.00C339.35 542.94 338.38 543.28 337.73 543.67C337.08 544.06 336.16 544.88 335.56 545.60C334.97 546.32 334.15 547.60 333.78 548.47C333.41 549.34 333.11 550.60 333.09 551.38C333.07 552.16 333.26 553.16 333.63 553.66C333.99 554.16 334.12 554.38 335.53 554.74C336.99 555.12 342.04 555.74 343.36 556.17C344.44 556.53 344.46 556.91 344.29 557.60C344.13 558.30 343.35 560.21 342.26 560.80C341.16 561.38 337.79 561.39 337.00 561.50"/><path fill="none" stroke="#d1000d" stroke-width="1.5" stroke-linecap="round" stroke-linejoin="round" d="M346.50 549.00C346.63 548.96 347.25 548.11 347.39 548.72C347.64 549.80 347.89 554.76 348.13 556.18C348.38 557.59 348.70 557.83 349.05 558.15C349.40 558.46 350.00 558.49 350.46 558.28C350.92 558.06 351.53 557.95 352.12 556.69C352.71 555.43 354.10 550.52 354.40 549.89C354.70 549.26 353.96 551.35 354.12 552.47C354.28 553.59 355.01 556.53 355.44 557.36C355.87 558.19 356.54 558.05 357.00 558.00C357.46 557.95 358.05 557.53 358.50 557.00C358.95 556.47 359.77 554.88 360.00 554.50"/><path fill="none" stroke="#d1000d" stroke-width="1.5" stroke-linecap="round" stroke-linejoin="round" d="M362.00 534.50C362.04 536.75 362.02 546.10 362.24 549.48C362.47 552.85 363.31 555.87 363.50 557.00"/><path fill="none" stroke="#d1000d" stroke-width="1.5" stroke-linecap="round" stroke-linejoin="round" d="M367.50 550.50C368.01 552.82 370.52 565.01 370.91 565.96C371.31 566.91 370.17 558.99 370.12 556.84C370.06 554.69 370.29 553.07 370.53 551.65C370.76 550.23 371.23 548.18 371.67 547.36C372.11 546.54 372.96 546.15 373.47 546.16C373.98 546.18 374.67 546.76 375.10 547.49C375.53 548.22 376.19 549.92 376.32 551.04C376.44 552.16 376.27 553.88 375.93 554.93C375.58 555.97 374.66 557.31 374.00 558.00C373.34 558.69 371.88 559.28 371.50 559.50"/><path fill="none" stroke="#d1000d" stroke-width="1.5" stroke-linecap="round" stroke-linejoin="round" d="M385.00 535.50C384.94 535.41 384.62 534.41 384.61 534.89C384.52 537.99 384.25 553.86 384.40 556.17C384.54 558.48 385.14 551.77 385.57 550.29C385.99 548.81 386.85 546.89 387.21 546.30C387.47 545.87 387.69 545.97 387.96 546.40C388.48 547.22 390.04 550.80 390.65 551.77C391.27 552.73 391.63 552.70 392.06 552.83C392.49 552.97 393.10 552.88 393.53 552.66C393.96 552.44 394.50 552.24 394.92 551.37C395.34 550.50 396.13 547.87 396.33 546.87C396.52 545.87 396.33 545.20 396.20 544.70C396.07 544.20 395.70 543.68 395.47 543.53C395.23 543.37 394.84 543.14 394.61 543.67C394.37 544.25 393.56 546.32 393.81 547.44C394.06 548.56 395.55 550.57 396.28 551.16C397.01 551.74 397.82 551.57 398.68 551.32C399.54 551.07 401.50 549.77 402.00 549.50"/><path fill="none" stroke="#d1000d" stroke-width="1.5" stroke-linecap="round" stroke-linejoin="round" d="M403.00 543.00C403.11 544.18 403.41 550.43 403.71 550.85C404.02 551.28 404.47 547.30 405.04 545.82C405.60 544.34 407.13 541.72 407.50 541.00"/><path fill="none" stroke="#d1000d" stroke-width="1.5" stroke-linecap="round" stroke-linejoin="round" d="M451.50 536.50C450.96 536.03 448.74 533.72 447.89 533.35C447.04 532.99 446.60 532.99 445.84 534.07C445.08 535.14 443.28 539.01 442.81 540.51C442.33 542.00 442.53 543.12 442.65 544.01C442.77 544.90 443.16 546.02 443.61 546.43C444.06 546.85 444.97 546.98 445.66 546.76C446.35 546.55 447.48 545.76 448.21 545.00C448.94 544.24 449.76 543.32 450.55 541.69C451.35 540.07 452.76 534.33 453.52 534.17C454.28 534.02 455.02 539.54 455.61 540.64C456.19 541.75 456.83 541.67 457.40 541.56C457.97 541.45 458.87 540.79 459.41 539.93C459.95 539.07 460.62 537.32 461.00 535.82C461.37 534.32 461.79 531.83 461.91 529.94C462.03 528.04 461.85 523.48 461.81 523.20C461.76 522.92 461.41 525.92 461.61 528.06C461.81 530.19 462.70 535.59 463.12 537.44C463.54 539.29 464.07 539.78 464.43 540.39C464.78 541.00 465.26 541.41 465.50 541.50C465.74 541.59 465.92 541.08 466.00 541.00"/><path fill="none" stroke="#d1000d" stroke-width="1.5" stroke-linecap="round" stroke-linejoin="round" d="M460.00 534.00C459.80 534.00 457.89 534.18 458.67 534.00C459.45 533.82 462.73 533.64 465.18 532.82C467.63 531.99 473.53 529.15 475.00 528.50"/><path fill="none" stroke="#d1000d" stroke-width="1.5" stroke-linecap="round" stroke-linejoin="round" d="M491.50 521.50C491.44 521.38 491.04 520.13 491.10 520.72C491.25 522.25 492.01 529.14 492.52 531.74C493.03 534.33 494.20 537.06 494.50 538.00"/><path fill="none" stroke="#d1000d" stroke-width="1.5" stroke-linecap="round" stroke-linejoin="round" d="M488.50 531.50C488.82 531.33 490.01 530.87 490.63 530.37C491.25 529.87 491.70 529.67 492.66 528.16C493.62 526.66 496.26 519.32 497.04 520.31C497.82 521.30 497.62 532.07 497.85 534.79C498.05 537.26 498.28 537.75 498.51 538.45C498.75 539.15 499.11 539.45 499.42 539.44C499.73 539.43 500.04 539.27 500.56 538.36C501.23 537.18 503.28 532.41 503.90 531.57C504.49 530.79 504.08 532.20 504.75 532.78C505.43 533.36 507.53 535.02 508.40 535.42C509.28 535.82 510.03 535.60 510.60 535.43C511.16 535.26 511.89 534.70 512.19 534.28C512.49 533.86 512.63 533.04 512.58 532.62C512.53 532.20 512.18 531.67 511.87 531.47C511.56 531.27 510.87 531.17 510.51 531.31C510.16 531.45 509.71 531.94 509.51 532.39C509.31 532.84 509.07 533.69 509.18 534.30C509.30 534.91 509.42 535.98 510.29 536.46C511.16 536.94 514.29 537.34 515.00 537.50"/><path fill="none" stroke="#d1000d" stroke-width="1.5" stroke-linecap="round" stroke-linejoin="round" d="M410.00 583.00C410.79 581.81 414.44 576.59 415.24 575.04C415.96 573.65 415.48 573.20 415.32 572.70C415.16 572.19 414.69 571.72 414.19 571.68C413.68 571.65 412.65 571.94 411.95 572.45C411.26 572.97 410.13 574.11 409.53 575.12C408.94 576.13 408.23 577.97 407.99 579.17C407.75 580.37 407.73 582.02 407.93 583.10C408.14 584.18 408.68 585.71 409.34 586.36C410.01 587.00 411.39 587.44 412.39 587.39C413.39 587.34 415.01 586.66 416.00 586.00C416.99 585.34 418.55 583.45 419.00 583.00"/><path fill="none" stroke="#d1000d" stroke-width="1.5" stroke-linecap="round" stroke-linejoin="round" d="M421.50 571.50C421.35 572.86 420.64 578.75 420.52 580.54C420.40 582.33 420.55 582.83 420.69 583.45C420.83 584.07 421.14 584.64 421.43 584.66C421.72 584.67 422.10 584.50 422.61 583.56C423.56 581.80 426.78 574.74 427.79 572.91C428.49 571.63 428.93 571.48 429.32 571.33C429.71 571.19 430.17 571.15 430.39 571.95C430.79 573.40 431.76 579.64 432.00 581.00"/><path fill="none" stroke="#d1000d" stroke-width="1.5" stroke-linecap="round" stroke-linejoin="round" d="M440.00 564.00C440.00 563.76 439.92 561.32 440.00 562.39C440.15 564.54 441.06 576.53 441.03 578.30C441.00 580.06 440.46 575.45 439.80 574.15C439.14 572.86 437.34 570.31 436.61 569.66C435.88 569.01 435.38 569.46 434.93 569.82C434.48 570.17 433.87 571.21 433.61 572.05C433.36 572.88 433.21 574.31 433.21 575.39C433.20 576.48 433.30 578.25 433.60 579.28C433.90 580.31 434.15 581.69 435.18 582.24C436.22 582.80 439.70 582.89 440.50 583.00"/><path fill="none" stroke="#d1000d" stroke-width="1.5" stroke-linecap="round" stroke-linejoin="round" d="M448.00 577.50C447.99 577.43 447.93 576.73 447.96 577.04C448.11 578.39 448.99 584.63 449.00 586.50C449.01 588.37 448.15 589.05 448.00 589.50"/><path fill="none" stroke="#d1000d" stroke-width="1.5" stroke-linecap="round" stroke-linejoin="round" d="M384.50 620.50C384.35 620.50 383.84 620.70 383.50 620.50C383.16 620.30 382.07 618.28 382.22 619.18C382.37 620.08 384.16 625.40 384.50 626.50"/><path fill="none" stroke="#d1000d" stroke-width="1.5" stroke-linecap="round" stroke-linejoin="round" d="M383.00 611.50C382.73 611.26 381.55 609.84 381.20 609.92C380.86 610.01 380.65 611.42 380.71 612.03C380.77 612.65 381.20 613.73 381.62 614.02C382.04 614.32 383.22 614.08 383.50 614.00C383.78 613.92 383.50 613.58 383.50 613.50"/><path fill="none" stroke="#d1000d" stroke-width="1.5" stroke-linecap="round" stroke-linejoin="round" d="M394.00 609.00C394.00 608.85 394.34 608.42 394.00 608.00C393.66 607.58 392.36 606.46 391.72 606.22C391.08 605.97 390.22 606.08 389.74 606.36C389.27 606.65 388.81 607.42 388.54 608.14C388.27 608.86 388.00 610.05 387.95 611.15C387.90 612.26 387.76 612.89 388.22 615.49C388.67 618.09 390.58 626.55 391.00 628.50"/><path fill="none" stroke="#d1000d" stroke-width="1.5" stroke-linecap="round" stroke-linejoin="round" d="M387.50 621.00C387.70 620.84 387.80 620.38 388.86 619.96C390.21 619.44 395.35 617.87 396.50 617.50"/><path fill="none" stroke="#d1000d" stroke-width="1.5" stroke-linecap="round" stroke-linejoin="round" d="M418.50 614.50C418.42 614.34 418.07 612.70 418.00 613.46C417.93 614.25 417.89 618.48 418.03 619.77C418.17 621.07 418.63 621.58 418.95 622.08C419.27 622.59 419.78 623.06 420.19 623.14C420.59 623.21 420.96 623.36 421.66 622.59C422.56 621.58 424.92 617.03 426.20 616.45C427.49 615.86 429.41 618.41 430.22 618.70C431.03 618.99 431.28 618.97 431.58 618.41C431.88 617.84 432.28 615.82 432.22 614.94C432.15 614.06 431.48 613.20 431.15 612.54C430.81 611.87 430.25 610.96 430.00 610.50C429.75 610.04 429.58 609.65 429.50 609.50"/><path fill="none" stroke="#d1000d" stroke-width="1.5" stroke-linecap="round" stroke-linejoin="round" d="M435.50 613.50C435.58 613.72 435.77 614.77 436.00 615.00C436.23 615.23 436.45 615.34 437.06 615.02C437.67 614.70 439.45 613.46 440.06 612.85C440.66 612.25 440.94 611.54 441.11 610.98C441.29 610.43 441.31 609.65 441.21 609.17C441.12 608.70 440.81 608.02 440.47 607.81C440.13 607.60 439.43 607.58 438.94 607.78C438.46 607.99 437.64 608.61 437.23 609.19C436.82 609.77 436.30 610.88 436.20 611.65C436.10 612.43 436.29 613.59 436.57 614.35C436.84 615.10 437.35 616.26 438.05 616.70C438.74 617.14 439.88 617.54 441.22 617.28C442.56 617.03 446.13 615.34 447.00 615.00"/><path fill="none" stroke="#d1000d" stroke-width="1.5" stroke-linecap="round" stroke-linejoin="round" d="M487.50 588.00C487.36 587.89 486.67 586.47 486.57 587.24C486.48 588.02 486.49 590.54 486.86 593.17C487.23 595.80 488.64 603.00 489.05 604.77C489.13 605.15 489.43 605.35 489.58 605.00C490.07 603.81 491.68 598.38 492.32 596.82C492.97 595.26 493.45 595.01 493.89 594.60C494.33 594.19 494.91 593.99 495.27 594.09C495.63 594.19 496.05 594.69 496.29 595.24C496.54 595.79 496.77 596.41 496.88 597.73C496.98 599.04 496.91 603.06 497.00 604.00C497.03 604.33 497.42 604.00 497.50 604.00"/><path fill="none" stroke="#d1000d" stroke-width="1.5" stroke-linecap="round" stroke-linejoin="round" d="M506.50 594.00C506.50 593.85 506.88 593.32 506.50 593.00C506.12 592.68 504.62 591.91 503.94 591.90C503.26 591.89 502.53 592.43 501.95 592.91C501.37 593.40 500.54 594.35 500.05 595.15C499.56 595.94 498.97 597.27 498.70 598.20C498.43 599.13 498.22 600.57 498.26 601.36C498.31 602.15 498.63 603.09 498.99 603.45C499.36 603.81 500.12 603.96 500.70 603.78C501.28 603.60 502.22 602.90 502.84 602.25C503.47 601.61 504.37 600.38 504.88 599.49C505.39 598.59 505.98 597.33 506.27 596.29C506.55 595.25 506.64 592.76 506.79 592.55C506.93 592.33 506.85 593.90 507.26 594.86C507.66 595.83 508.56 598.23 509.50 599.00C510.44 599.77 512.90 599.85 513.50 600.00"/><path fill="none" stroke="#d1000d" stroke-width="1.5" stroke-linecap="round" stroke-linejoin="round" d="M516.00 590.50C516.29 591.29 517.35 594.65 517.94 595.80C518.52 596.94 519.37 598.28 519.92 598.15C520.46 598.01 521.05 596.41 521.58 594.90C522.12 593.39 522.91 589.48 523.50 588.07C524.09 586.66 525.20 585.89 525.50 585.50"/><path fill="none" stroke="#d1000d" stroke-width="1.5" stroke-linecap="round" stroke-linejoin="round" d="M527.00 589.50C527.24 589.90 527.83 591.82 528.58 592.20C529.33 592.57 531.27 592.23 532.00 592.02C532.73 591.81 533.14 591.26 533.47 590.81C533.79 590.35 534.12 589.48 534.16 588.99C534.20 588.49 534.03 587.83 533.74 587.51C533.45 587.18 532.76 586.81 532.22 586.82C531.69 586.83 530.75 587.12 530.17 587.58C529.59 588.04 528.71 589.09 528.35 589.89C527.99 590.69 527.75 591.95 527.76 592.90C527.77 593.85 527.93 595.42 528.42 596.20C528.92 596.97 530.01 597.80 531.07 598.07C532.13 598.34 534.24 598.31 535.50 598.00C536.76 597.69 538.90 596.30 539.50 596.00"/><path fill="none" stroke="#d1000d" stroke-width="1.5" stroke-linecap="round" stroke-linejoin="round" d="M572.00 576.50C571.95 576.10 571.78 572.37 571.65 573.86C571.52 575.36 570.89 583.55 571.14 586.48C571.38 589.42 572.65 592.35 573.30 593.40C573.95 594.45 574.83 593.75 575.46 593.46C576.09 593.18 577.12 592.32 577.50 591.50C577.88 590.68 577.92 588.53 578.00 588.00"/><path fill="none" stroke="#d1000d" stroke-width="1.5" stroke-linecap="round" stroke-linejoin="round" d="M567.00 582.50C566.83 582.50 565.15 582.54 565.89 582.50C566.79 582.46 570.78 582.51 572.97 582.21C575.16 581.91 579.37 580.76 580.50 580.50"/><path fill="none" stroke="#d1000d" stroke-width="1.5" stroke-linecap="round" stroke-linejoin="round" d="M585.00 579.00C584.92 579.50 584.47 581.01 584.44 582.32C584.41 583.63 584.60 586.67 584.80 587.74C585.00 588.81 585.43 589.15 585.76 589.44C586.09 589.74 586.62 589.81 587.01 589.69C587.40 589.57 587.77 589.49 588.36 588.66C588.94 587.83 589.93 584.39 590.93 584.13C591.93 583.86 594.05 586.41 595.02 586.89C595.99 587.38 596.74 587.41 597.40 587.36C598.07 587.31 598.99 587.00 599.46 586.55C599.92 586.10 600.30 585.12 600.48 584.36C600.67 583.60 600.82 582.35 600.68 581.48C600.53 580.61 599.90 579.28 599.50 578.54C599.10 577.79 598.22 576.88 598.00 576.50C597.83 576.21 598.00 576.08 598.00 576.00"/><path fill="none" stroke="#d1000d" stroke-width="1.5" stroke-linecap="round" stroke-linejoin="round" d="M608.50 579.00C608.52 578.66 608.75 577.17 608.64 576.74C608.53 576.30 608.10 576.13 607.77 576.10C607.44 576.07 606.92 576.20 606.47 576.52C606.02 576.84 605.23 577.57 604.79 578.23C604.35 578.89 603.77 580.04 603.53 580.93C603.29 581.82 603.11 583.28 603.19 584.15C603.28 585.03 603.66 586.19 604.09 586.78C604.53 587.36 605.45 587.90 606.11 588.07C606.76 588.24 607.76 588.22 608.46 587.92C609.16 587.62 610.29 587.19 610.74 586.07C611.20 584.96 611.39 581.34 611.50 580.50"/><path fill="none" stroke="#d1000d" stroke-width="1.5" stroke-linecap="round" stroke-linejoin="round" d="M643.00 576.00C642.73 575.76 641.71 574.64 641.22 574.43C640.73 574.22 640.20 574.28 639.72 574.59C639.24 574.90 638.47 575.84 638.01 576.48C637.55 577.13 636.93 578.10 636.66 578.89C636.39 579.69 636.18 580.98 636.22 581.78C636.26 582.58 636.59 583.62 636.94 584.24C637.29 584.85 637.87 585.58 638.55 585.88C639.22 586.18 640.38 586.53 641.43 586.24C642.47 585.96 644.89 584.34 645.50 584.00"/><path fill="none" stroke="#d1000d" stroke-width="1.5" stroke-linecap="round" stroke-linejoin="round" d="M648.00 570.50C647.98 571.19 647.77 574.03 647.84 575.10C647.91 576.16 648.15 576.92 648.49 577.58C648.82 578.25 649.49 579.16 650.09 579.54C650.68 579.93 651.68 580.24 652.45 580.18C653.21 580.11 654.43 579.66 655.17 579.12C655.92 578.57 656.91 577.39 657.39 576.53C657.87 575.67 658.25 574.24 658.38 573.38C658.50 572.51 658.41 571.34 658.22 570.76C658.04 570.19 657.45 569.60 657.12 569.56C656.80 569.52 656.25 569.80 656.05 570.48C655.85 571.15 655.58 571.68 655.80 574.06C656.14 577.75 657.97 591.03 658.31 595.07C658.65 598.99 658.33 599.60 658.09 600.97C657.85 602.34 657.27 603.64 656.73 604.19C656.19 604.74 655.19 604.89 654.50 604.64C653.81 604.39 652.63 603.38 652.11 602.54C651.58 601.69 651.09 600.28 651.00 599.00C650.91 597.72 651.42 594.75 651.50 594.00"/><path fill="none" stroke="#d1000d" stroke-width="1.5" stroke-linecap="round" stroke-linejoin="round" d="M671.50 567.00C671.46 566.70 671.48 565.22 671.26 564.98C671.04 564.74 670.65 564.87 670.03 565.39C669.41 565.90 667.69 567.64 667.14 568.42C666.58 569.21 666.41 569.95 666.32 570.60C666.23 571.24 666.29 572.11 666.53 572.71C666.76 573.32 667.09 573.89 667.87 574.62C668.65 575.35 670.94 576.84 671.74 577.58C672.54 578.31 673.38 579.25 673.20 579.54C673.01 579.83 671.05 579.73 670.50 579.50C669.95 579.27 669.65 578.22 669.50 578.00"/><path fill="none" stroke="#d1000d" stroke-width="1.5" stroke-linecap="round" stroke-linejoin="round" d="M682.00 556.50C681.88 557.15 681.12 559.10 681.22 560.82C681.33 562.54 682.18 566.28 682.68 567.97C683.19 569.66 684.45 571.69 684.57 572.07C684.70 572.45 683.66 570.74 683.50 570.50"/><path fill="none" stroke="#d1000d" stroke-width="1.5" stroke-linecap="round" stroke-linejoin="round" d="M677.00 567.50C676.77 567.52 674.44 567.90 675.44 567.60C677.16 567.08 686.54 564.54 688.50 564.00"/><path fill="none" stroke="#d1000d" stroke-width="1.5" stroke-linecap="round" stroke-linejoin="round" d="M692.00 564.00C691.84 564.15 690.58 565.08 690.94 565.02C691.30 564.96 693.69 564.17 694.41 563.57C695.13 562.97 695.68 561.50 695.71 561.04C695.75 560.58 695.15 560.49 694.64 560.48C694.13 560.47 693.06 560.60 692.34 560.96C691.61 561.32 690.44 562.20 689.79 562.90C689.14 563.60 688.31 564.77 687.99 565.63C687.67 566.49 687.54 567.78 687.68 568.62C687.81 569.46 688.23 570.69 688.88 571.22C689.54 571.75 690.97 572.10 692.04 572.15C693.10 572.19 695.03 571.97 696.00 571.50C696.97 571.03 698.12 569.38 698.50 569.00"/><path fill="none" stroke="#d1000d" stroke-width="1.5" stroke-linecap="round" stroke-linejoin="round" d="M698.50 563.00C698.50 564.28 698.50 570.22 698.50 571.50"/><path fill="none" stroke="#d1000d" stroke-width="1.5" stroke-linecap="round" stroke-linejoin="round" d="M698.50 557.00C698.65 556.92 699.35 556.58 699.50 556.50"/><path fill="none" stroke="#d1000d" stroke-width="1.5" stroke-linecap="round" stroke-linejoin="round" d="M706.00 567.50C706.00 568.02 705.91 571.20 706.00 570.98C706.09 570.76 706.33 567.27 706.59 566.05C706.86 564.82 707.17 563.89 707.77 562.82C708.38 561.75 710.05 559.44 710.63 558.92C711.17 558.44 711.31 558.72 711.61 559.38C711.95 560.13 712.47 562.97 712.87 563.90C713.27 564.83 713.73 565.28 714.28 565.58C714.84 565.88 715.79 566.03 716.55 565.88C717.31 565.72 718.56 565.10 719.37 564.55C720.18 564.00 721.34 562.94 721.95 562.19C722.56 561.43 723.20 560.28 723.45 559.52C723.69 558.76 723.72 557.75 723.58 557.12C723.43 556.50 722.91 555.75 722.50 555.37C722.09 554.98 721.36 554.66 720.85 554.57C720.34 554.48 719.56 554.54 719.10 554.74C718.65 554.94 718.06 555.41 717.83 555.90C717.60 556.38 717.46 557.30 717.56 557.99C717.65 558.68 718.02 559.74 718.47 560.51C718.92 561.28 719.45 562.19 720.55 563.14C721.66 564.10 724.87 566.07 725.85 566.88C726.84 567.70 728.20 568.21 727.10 568.60C725.99 568.99 719.79 569.37 718.50 569.50"/><path fill="none" stroke="#d1000d" stroke-width="1.5" stroke-linecap="round" stroke-linejoin="round" d="M752.00 557.50C751.92 557.42 751.58 557.08 751.50 557.00"/>
</svg>