<?xml version="1.0" encoding="UTF-8"?>
<!DOCTYPE svg PUBLIC "-//W3C//DTD SVG 1.1//EN" "http://www.w3.org/Graphics/SVG/1.1/DTD/svg11.dtd">
<svg  xmlns="http://www.w3.org/2000/svg" xmlns:xlink="http://www.w3.org/1999/xlink" viewport-fill="none" viewBox="0.0, 0.0, 447.4764848635371, 335.8176110439068" version="1.1" height="335.8176110439068" width="447.4764848635371">
<path fill="none" stroke="#ffd873" stroke-opacity="0.5" stroke-width="20.0" stroke-linecap="round" stroke-linejoin="round" d="M420.35 298.05C419.77 297.92 417.41 297.20 416.48 297.17C415.55 297.14 414.74 297.40 414.14 297.84C413.54 298.28 412.86 299.31 412.49 300.09C412.11 300.88 411.69 302.10 411.63 303.09C411.57 304.07 411.79 305.62 412.10 306.66C412.40 307.70 413.07 309.16 413.69 310.01C414.32 310.85 415.43 311.86 416.27 312.31C417.11 312.76 418.39 313.04 419.28 312.99C420.18 312.95 421.48 312.56 422.22 312.02C422.97 311.48 423.84 310.33 424.26 309.38C424.68 308.44 425.03 306.82 425.04 305.72C425.05 304.61 424.74 303.03 424.34 302.01C423.93 301.00 423.03 299.63 422.32 298.94C421.60 298.25 420.42 297.60 419.54 297.43C418.67 297.26 417.30 297.45 416.47 297.84C415.63 298.23 414.57 299.17 413.98 300.05C413.40 300.93 412.74 302.52 412.56 303.69C412.37 304.85 412.47 306.65 412.75 307.81C413.04 308.97 413.80 310.56 414.46 311.42C415.12 312.28 416.28 313.18 417.15 313.53C418.02 313.87 419.40 313.94 420.26 313.71C421.12 313.48 422.22 312.72 422.88 311.99C423.54 311.26 424.33 309.88 424.65 308.83C424.97 307.78 425.10 306.13 425.01 304.99C424.92 303.84 424.49 302.19 424.05 301.19C423.61 300.19 422.76 298.92 422.10 298.31C421.44 297.69 420.31 297.15 419.63 297.09C418.95 297.02 418.03 297.37 417.56 297.89C417.10 298.40 416.63 299.59 416.52 300.54C416.40 301.48 416.53 303.12 416.80 304.21C417.08 305.30 417.75 306.90 418.34 307.78C418.93 308.65 420.01 309.64 420.74 310.03C421.47 310.42 422.49 310.54 423.21 310.36C423.93 310.18 424.98 309.53 425.56 308.84C426.13 308.15 426.76 306.83 427.04 305.78C427.32 304.73 427.56 302.97 427.45 301.84C427.33 300.71 426.86 299.14 426.28 298.25C425.69 297.35 424.46 296.29 423.52 295.86C422.59 295.42 421.13 295.15 420.04 295.34C418.95 295.53 417.17 296.39 416.25 297.14C415.33 297.89 414.36 299.28 413.92 300.36C413.48 301.44 413.21 303.19 413.32 304.35C413.44 305.51 414.03 307.16 414.70 308.10C415.37 309.04 416.83 310.08 417.79 310.62C418.75 311.17 420.14 311.63 421.12 311.74C422.10 311.85 423.49 311.67 424.31 311.35C425.13 311.02 426.10 310.29 426.57 309.59C427.04 308.88 427.41 307.59 427.46 306.65C427.51 305.71 427.32 304.31 426.93 303.34C426.54 302.37 425.63 300.99 424.83 300.16C424.03 299.34 422.64 298.28 421.59 297.86C420.54 297.43 418.96 297.20 417.86 297.36C416.75 297.51 415.17 298.12 414.22 298.89C413.28 299.66 412.10 301.24 411.57 302.49C411.04 303.74 410.70 305.83 410.68 307.23C410.67 308.63 411.00 310.68 411.48 311.84C411.96 313.00 413.03 314.40 413.89 314.99C414.75 315.58 416.21 315.91 417.19 315.80C418.17 315.68 419.54 314.97 420.41 314.24C421.27 313.51 422.40 312.04 422.95 310.94C423.50 309.84 423.99 308.05 424.06 306.92C424.14 305.79 423.81 304.32 423.46 303.40C423.11 302.48 422.46 301.30 421.73 300.78C421.00 300.27 419.60 299.90 418.58 299.98C417.57 300.05 415.76 300.84 414.97 301.28C414.19 301.72 413.60 302.65 413.36 302.89"/><path fill="none" stroke="#d1000d" stroke-width="1.5" stroke-linecap="round" stroke-linejoin="round" d="M421.97 291.06C420.99 290.65 416.95 288.71 415.44 288.35C413.94 287.99 413.26 288.13 411.95 288.63C410.64 289.13 408.25 290.45 406.71 291.68C405.18 292.90 402.72 295.61 401.73 296.79C400.74 297.98 400.51 298.30 400.13 299.57C399.75 300.84 399.17 303.47 399.20 305.26C399.23 307.06 399.77 309.73 400.35 311.54C400.92 313.34 402.34 316.12 403.04 317.32C403.73 318.52 403.86 318.79 404.95 319.53C406.04 320.27 408.04 321.78 410.30 322.25C412.56 322.71 417.75 322.90 420.02 322.64C422.29 322.38 423.98 321.37 425.45 320.53C426.91 319.69 428.70 318.17 429.78 317.03C430.86 315.90 432.05 314.67 432.67 312.98C433.29 311.29 433.92 307.99 433.91 305.77C433.91 303.56 433.28 300.17 432.62 298.21C431.96 296.25 430.29 293.89 429.52 292.69C428.75 291.49 428.19 290.94 427.48 290.22C426.77 289.49 425.92 288.60 424.77 287.87C423.62 287.14 420.95 285.84 419.84 285.34C418.72 284.84 418.49 284.65 417.36 284.55C416.23 284.44 413.50 284.47 412.29 284.62C411.08 284.77 410.67 284.67 409.32 285.53C407.96 286.39 404.83 288.51 403.25 290.36C401.67 292.20 399.60 296.07 398.79 297.81C397.98 299.55 397.96 300.69 397.83 301.96C397.70 303.23 397.49 304.39 397.95 306.25C398.41 308.12 399.67 312.22 400.93 314.41C402.19 316.59 404.58 319.24 406.36 320.83C408.14 322.42 411.30 324.22 412.80 325.00C414.30 325.78 415.25 325.85 416.35 326.03C417.44 326.21 418.96 326.30 420.08 326.21C421.20 326.12 422.32 326.05 423.81 325.42C425.29 324.79 428.75 322.90 430.01 322.03C431.27 321.15 431.50 320.90 432.23 319.59C432.97 318.29 434.42 314.84 434.91 313.30C435.40 311.77 435.40 310.60 435.50 309.38C435.59 308.15 435.76 307.04 435.57 305.16C435.37 303.28 434.68 298.64 434.18 296.84C433.68 295.04 432.97 294.17 432.21 293.17C431.45 292.16 430.14 290.93 429.11 290.14C428.07 289.36 426.60 288.50 425.32 287.95C424.03 287.40 422.51 286.75 420.54 286.47C418.58 286.18 414.03 286.00 412.24 286.06C410.45 286.12 409.60 286.49 408.61 286.85C407.62 287.21 406.56 287.88 405.65 288.46C404.75 289.05 403.76 289.42 402.59 290.74C401.42 292.06 398.70 295.68 397.83 297.26C396.96 298.83 396.92 300.00 396.78 301.24C396.65 302.48 396.70 304.19 396.94 305.51C397.18 306.84 397.79 308.72 398.40 310.07C399.01 311.42 400.08 313.26 401.02 314.50C401.96 315.75 403.45 317.33 404.66 318.39C405.87 319.45 407.68 320.81 409.10 321.55C410.51 322.30 412.54 323.00 414.08 323.34C415.63 323.68 417.83 323.88 419.42 323.82C421.00 323.76 423.18 323.41 424.66 322.95C426.14 322.49 428.03 321.54 429.28 320.74C430.53 319.94 432.07 318.73 432.97 317.61C433.87 316.49 434.80 314.72 435.27 313.28C435.73 311.85 436.01 309.69 436.07 308.04C436.13 306.39 435.98 304.01 435.66 302.26C435.34 300.51 434.58 298.00 433.92 296.39C433.26 294.77 432.20 292.73 431.27 291.48C430.35 290.22 428.93 288.83 427.75 288.03C426.57 287.22 424.76 286.42 423.38 286.09C422.00 285.77 420.07 285.75 418.58 285.85C417.08 285.95 414.95 286.33 413.44 286.76C411.93 287.19 409.84 287.84 408.48 288.69C407.13 289.53 405.49 291.19 404.41 292.41C403.32 293.63 401.97 295.34 401.25 296.83C400.53 298.32 399.81 300.21 399.61 302.33C399.40 304.45 399.86 309.67 399.91 310.96"/><path fill="none" stroke="#d1000d" stroke-width="1.5" stroke-linecap="round" stroke-linejoin="round" d="M414.44 248.55C414.00 248.09 412.22 246.08 411.51 245.48C410.80 244.88 410.31 244.70 409.72 244.57C409.14 244.44 408.30 244.38 407.62 244.60C406.95 244.82 405.95 245.37 405.24 246.06C404.53 246.74 403.53 247.99 402.90 249.16C402.26 250.33 401.41 252.34 401.00 253.87C400.60 255.40 400.18 257.77 400.19 259.38C400.19 260.98 400.45 263.31 401.01 264.54C401.57 265.78 402.84 266.95 403.92 267.60C404.99 268.26 406.71 269.05 408.17 268.90C409.64 268.75 411.80 267.72 413.71 266.61C415.62 265.49 419.81 262.24 420.89 261.46"/><path fill="none" stroke="#d1000d" stroke-width="1.5" stroke-linecap="round" stroke-linejoin="round" d="M432.19 248.01C432.15 248.95 432.09 252.83 431.93 254.26C431.77 255.69 431.55 256.53 431.10 257.53C430.65 258.53 429.44 260.51 428.95 260.92C428.46 261.32 428.21 261.03 427.84 260.25C427.44 259.41 426.48 256.64 426.26 255.33C426.05 254.01 426.19 252.06 426.39 251.46C426.59 250.86 426.84 251.01 427.60 251.30C429.15 251.89 434.63 254.71 436.77 255.43C438.91 256.15 441.11 255.99 441.88 256.08"/>
</svg>