<?xml version="1.0" encoding="UTF-8"?>
<!DOCTYPE svg PUBLIC "-//W3C//DTD SVG 1.1//EN" "http://www.w3.org/Graphics/SVG/1.1/DTD/svg11.dtd">
<svg  xmlns="http://www.w3.org/2000/svg" xmlns:xlink="http://www.w3.org/1999/xlink" viewport-fill="none" viewBox="0.0, 0.0, 809.2685603090973, 1169.3410764827997" version="1.1" height="1169.3410764827997" width="809.2685603090973">
<path fill="none" stroke="#d1000d" stroke-width="2.5" stroke-linecap="round" stroke-linejoin="round" d="M732.70 1043.63C732.06 1043.45 729.02 1042.67 728.48 1042.44C728.05 1042.25 728.69 1041.79 729.07 1042.06C729.98 1042.72 733.07 1045.75 734.55 1046.86C736.04 1047.98 737.35 1048.78 738.97 1049.51C740.58 1050.23 743.17 1051.23 745.31 1051.71C747.44 1052.19 750.72 1052.57 753.20 1052.69C755.67 1052.81 756.10 1053.07 761.82 1052.51C767.65 1051.94 785.35 1049.31 792.08 1048.87C798.82 1048.44 804.56 1049.52 806.75 1049.61C806.81 1049.62 806.72 1049.59 806.70 1049.54C806.64 1049.42 806.40 1048.95 806.35 1048.84"/><path fill="none" stroke="#d1000d" stroke-width="2.5" stroke-linecap="round" stroke-linejoin="round" d="M760.49 1071.08C760.18 1071.50 759.43 1071.78 758.41 1073.86C756.85 1077.01 752.11 1087.40 750.09 1092.12C748.07 1096.84 746.74 1099.92 744.92 1105.32C743.10 1110.72 739.90 1120.42 737.98 1128.11C736.05 1135.80 733.05 1155.17 732.09 1156.59C731.12 1158.02 731.66 1140.40 731.53 1137.59C731.52 1137.34 731.28 1137.58 731.25 1137.83C730.72 1141.61 728.55 1158.56 728.04 1162.79C727.78 1164.93 727.71 1165.41 727.83 1166.01C727.94 1166.62 728.18 1166.94 728.78 1166.81C729.37 1166.68 729.95 1166.52 731.80 1165.15C735.36 1162.51 749.40 1151.63 752.50 1149.25"/>
</svg>