<?xml version="1.0" encoding="UTF-8"?>
<!DOCTYPE svg PUBLIC "-//W3C//DTD SVG 1.1//EN" "http://www.w3.org/Graphics/SVG/1.1/DTD/svg11.dtd">
<svg  xmlns="http://www.w3.org/2000/svg" xmlns:xlink="http://www.w3.org/1999/xlink" viewport-fill="none" viewBox="0.0, 0.0, 1060.6728521793975, 496.559870724693" version="1.1" height="496.559870724693" width="1060.6728521793975">
<path fill="none" stroke="#d1000d" stroke-width="2.0" stroke-linecap="round" stroke-linejoin="round" d="M574.39 416.49C585.10 416.62 628.39 416.62 645.77 417.31C663.14 418.01 676.03 420.45 690.23 421.12C704.44 421.78 725.15 421.79 740.46 421.73C755.77 421.67 770.50 420.93 792.30 420.70C814.11 420.47 855.90 420.17 885.83 420.19C915.76 420.21 966.07 421.08 991.86 420.84C1017.64 420.60 1048.52 418.55 1057.72 418.58C1061.15 418.59 1054.30 420.09 1053.19 421.01C1052.09 421.94 1051.08 423.27 1050.38 424.76C1049.67 426.25 1048.95 428.73 1048.52 430.96C1048.10 433.18 1047.72 436.73 1047.52 439.60C1047.33 442.47 1047.38 444.42 1047.22 450.10C1047.06 455.79 1046.81 472.84 1046.48 477.51C1046.28 480.19 1045.77 480.55 1044.98 481.25C1044.18 481.96 1043.78 482.41 1041.17 482.20C1034.27 481.64 1009.27 478.44 998.94 477.51C988.61 476.57 981.07 476.31 972.30 475.97C963.54 475.62 950.65 475.25 940.48 475.21C930.30 475.18 921.91 474.87 904.49 475.74C887.06 476.61 848.68 479.13 824.29 481.02C799.90 482.91 759.99 486.85 741.90 488.34C723.82 489.84 714.73 490.27 703.72 490.98C692.70 491.69 682.05 492.53 668.50 493.06C654.94 493.59 624.51 494.35 613.37 494.51C602.22 494.68 599.15 494.36 594.19 494.14C589.23 493.92 583.76 493.43 580.30 493.02C576.85 492.61 574.01 492.23 571.15 491.39C568.29 490.56 563.07 487.68 561.24 487.44C559.41 487.20 559.01 491.98 558.97 489.79C558.91 485.99 560.62 468.07 560.80 462.10C560.99 456.13 560.63 453.16 560.21 450.01C559.79 446.86 558.44 442.56 557.99 441.10C557.76 440.37 557.29 440.41 557.17 440.28"/>
</svg>