<?xml version="1.0" encoding="UTF-8"?>
<!DOCTYPE svg PUBLIC "-//W3C//DTD SVG 1.1//EN" "http://www.w3.org/Graphics/SVG/1.1/DTD/svg11.dtd">
<svg  xmlns="http://www.w3.org/2000/svg" xmlns:xlink="http://www.w3.org/1999/xlink" viewport-fill="none" viewBox="0.0, 0.0, 941.202763502919, 485.66323749635757" version="1.1" height="485.66323749635757" width="941.202763502919">
<path fill="none" stroke="#d1000d" stroke-width="2.5" stroke-linecap="round" stroke-linejoin="round" d="M653.22 438.94C652.78 438.05 651.01 434.11 650.29 433.04C649.57 431.97 649.51 431.91 648.42 431.79C647.33 431.67 644.81 431.56 643.04 432.23C641.27 432.90 638.02 435.23 636.60 436.25C635.19 437.28 634.84 437.53 633.62 439.05C632.39 440.57 629.93 443.36 628.44 446.41C626.95 449.45 624.38 456.30 623.68 459.34C622.97 462.39 623.17 464.58 623.73 466.73C624.30 468.87 626.46 472.16 627.45 473.67C628.44 475.18 629.36 475.98 630.32 476.77C631.28 477.56 632.73 478.48 633.84 478.94C634.95 479.39 636.50 479.73 637.74 479.81C638.98 479.89 640.80 479.79 642.11 479.49C643.41 479.19 644.63 478.90 646.42 477.80C648.21 476.70 652.50 473.52 654.04 472.14C655.57 470.77 655.74 470.31 656.66 468.65C657.59 466.99 659.51 463.52 660.20 461.07C660.90 458.62 661.21 454.30 661.30 452.34C661.39 450.37 661.10 449.21 660.82 447.95C660.53 446.70 659.92 445.07 659.41 443.99C658.90 442.91 658.54 441.91 657.43 440.75C656.31 439.59 653.70 437.25 651.98 436.25C650.25 435.26 647.36 434.41 645.93 434.11C644.50 433.80 643.53 434.08 642.45 434.24C641.36 434.40 639.87 434.71 638.70 435.17C637.53 435.63 635.85 436.52 634.65 437.33C633.44 438.13 631.76 439.58 630.68 440.55C629.60 441.51 627.94 443.28 627.46 443.77"/><path fill="none" stroke="#d1000d" stroke-width="2.5" stroke-linecap="round" stroke-linejoin="round" d="M923.69 451.82C923.66 451.15 923.70 448.77 923.49 447.41C923.29 446.05 922.73 443.77 922.35 442.75C921.97 441.74 922.01 441.45 920.96 440.67C919.90 439.89 917.56 438.01 915.32 437.55C913.08 437.09 908.96 437.04 906.03 437.58C903.10 438.12 898.00 440.19 895.81 441.16C893.62 442.12 892.63 443.02 891.41 444.01C890.19 445.00 888.64 446.59 887.68 447.76C886.72 448.94 885.64 450.54 885.03 451.85C884.42 453.17 883.86 455.05 883.60 456.51C883.35 457.98 883.22 460.08 883.34 461.61C883.46 463.14 883.90 465.19 884.41 466.73C884.91 468.26 885.86 470.42 886.71 471.87C887.55 473.31 888.90 475.13 890.05 476.36C891.21 477.58 892.97 479.11 894.39 480.03C895.82 480.95 897.89 482.00 899.57 482.47C901.25 482.94 903.71 483.18 905.61 483.16C907.51 483.14 910.27 482.83 912.23 482.35C914.20 481.87 916.91 480.82 918.74 479.95C920.56 479.07 922.92 477.64 924.39 476.49C925.86 475.34 927.56 473.60 928.56 472.28C929.56 470.96 930.47 469.10 931.03 467.68C931.58 466.25 932.01 465.07 932.28 462.78C932.54 460.48 932.82 454.70 932.80 452.39C932.78 450.08 932.51 448.74 932.15 447.35C931.80 445.97 931.09 444.27 930.43 443.14C929.76 442.01 928.66 440.71 927.71 439.84C926.77 438.98 925.31 437.97 924.13 437.35C922.95 436.73 921.99 436.19 919.85 435.70C917.70 435.22 912.17 434.31 909.84 434.09C907.50 433.88 905.92 434.11 904.28 434.25C902.64 434.40 900.40 434.72 898.89 435.06C897.38 435.40 895.47 435.97 894.22 436.51C892.97 437.05 891.47 437.95 890.55 438.67C889.63 439.39 888.72 440.44 888.08 441.34C887.44 442.24 886.91 442.79 886.30 444.65C885.69 446.52 884.49 451.61 884.02 453.80C883.55 455.99 883.28 457.58 883.17 459.25C883.06 460.93 883.09 463.32 883.27 464.95C883.45 466.58 883.82 468.67 884.39 470.12C884.95 471.58 886.03 473.40 887.03 474.63C888.04 475.86 889.75 477.39 891.11 478.33C892.47 479.27 894.46 480.31 896.12 480.90C897.79 481.48 900.33 482.08 902.21 482.25C904.10 482.42 906.77 482.32 908.71 482.02C910.65 481.72 913.24 481.00 915.15 480.26C917.05 479.52 919.71 478.18 921.41 477.11C923.11 476.03 925.16 474.38 926.47 473.11C927.78 471.84 929.24 470.03 930.15 468.64C931.06 467.25 932.04 465.25 932.55 463.82C933.06 462.38 933.41 460.50 933.54 459.06C933.68 457.62 933.64 455.67 933.44 454.24C933.25 452.81 932.77 450.88 932.25 449.52C931.72 448.16 930.78 446.41 929.93 445.19C929.07 443.97 927.71 442.41 926.53 441.38C925.34 440.35 923.53 439.11 922.04 438.31C920.55 437.51 918.34 436.59 916.59 436.03C914.84 435.48 912.23 434.91 910.36 434.59C908.48 434.28 905.86 434.00 904.08 433.93C902.29 433.86 900.00 433.95 898.46 434.14C896.92 434.33 895.01 434.72 893.81 435.18C892.61 435.64 891.36 436.39 890.45 437.19C889.54 437.99 888.79 438.49 887.75 440.52C886.72 442.55 884.41 448.21 883.54 450.73C882.68 453.25 882.31 455.35 882.00 457.33C881.70 459.31 881.48 462.04 881.52 463.94C881.56 465.84 881.80 468.41 882.26 470.01C882.72 471.61 883.69 473.47 884.59 474.60C885.49 475.73 886.91 476.98 888.27 477.54C889.63 478.10 890.89 478.56 893.67 478.32C896.45 478.08 904.82 476.32 906.79 475.96"/><path fill="none" stroke="#79eb70" stroke-opacity="0.5" stroke-width="13.0" stroke-linecap="round" stroke-linejoin="round" d="M648.39 446.18C648.27 446.06 648.30 445.62 647.58 445.38C646.75 445.09 643.87 444.13 642.83 444.29C641.79 444.45 641.19 445.50 640.67 446.44C640.14 447.38 639.50 449.30 639.31 450.58C639.12 451.86 639.02 453.68 639.40 454.97C639.77 456.26 640.83 458.21 641.80 459.20C642.77 460.19 644.52 461.21 645.87 461.58C647.22 461.94 649.34 461.95 650.79 461.63C652.24 461.31 654.41 460.31 655.52 459.43C656.64 458.55 657.85 456.95 658.23 455.78C658.61 454.61 658.54 452.80 658.04 451.64C657.54 450.48 656.19 448.90 654.89 448.07C653.59 447.23 651.16 446.40 649.38 446.07C647.59 445.74 644.91 445.62 643.01 445.88C641.10 446.14 638.39 446.92 636.69 447.80C634.98 448.68 632.85 450.40 631.64 451.75C630.44 453.11 629.20 455.22 628.65 456.83C628.09 458.44 627.81 460.91 627.96 462.51C628.10 464.10 628.82 466.25 629.61 467.45C630.39 468.66 631.95 469.95 633.17 470.54C634.39 471.13 636.31 471.56 637.72 471.37C639.12 471.19 641.16 470.28 642.53 469.30C643.89 468.32 645.77 466.42 646.80 464.83C647.84 463.24 648.95 460.62 649.42 458.70C649.88 456.78 650.15 453.86 649.92 452.04C649.68 450.22 648.86 447.82 647.86 446.57C646.87 445.33 644.85 444.06 643.31 443.76C641.77 443.47 639.32 443.83 637.59 444.61C635.87 445.40 633.35 447.39 631.79 448.98C630.23 450.57 628.19 453.36 627.22 455.22C626.24 457.08 625.49 459.78 625.28 461.40C625.07 463.02 625.33 465.00 625.84 466.03C626.35 467.06 627.46 467.98 628.66 468.27C629.85 468.57 632.15 468.15 633.78 467.97C635.41 467.80 637.95 467.60 639.53 467.11C641.12 466.62 643.64 465.06 644.36 464.70"/><path fill="none" stroke="#79eb70" stroke-opacity="0.5" stroke-width="13.0" stroke-linecap="round" stroke-linejoin="round" d="M915.64 465.50C915.52 465.38 914.93 465.45 914.84 464.70C914.61 462.92 914.33 455.73 914.13 453.69C913.95 451.89 913.81 451.64 913.49 451.06C913.16 450.48 912.97 449.36 911.93 449.82C910.90 450.27 907.82 452.77 906.59 454.08C905.36 455.39 904.39 457.13 903.75 458.58C903.11 460.03 902.42 462.30 902.31 463.75C902.20 465.19 902.43 467.20 903.02 468.20C903.61 469.21 905.01 470.14 906.24 470.43C907.47 470.71 909.63 470.66 911.20 470.12C912.77 469.57 915.30 468.07 916.68 466.79C918.07 465.51 919.79 463.23 920.44 461.59C921.09 459.94 921.37 457.54 921.01 455.81C920.64 454.08 919.39 451.49 918.00 450.06C916.61 448.64 913.80 447.09 911.75 446.31C909.70 445.53 906.53 444.92 904.34 444.85C902.16 444.77 899.08 445.06 897.16 445.79C895.23 446.52 892.84 448.32 891.51 449.70C890.19 451.07 888.88 453.32 888.30 454.94C887.73 456.57 887.45 458.97 887.69 460.54C887.92 462.11 888.84 464.28 889.88 465.43C890.92 466.58 892.92 467.70 894.62 468.20C896.32 468.70 899.11 468.94 901.20 468.77C903.29 468.61 906.44 467.91 908.57 467.10C910.71 466.28 913.63 464.70 915.43 463.35C917.23 461.99 919.41 459.78 920.57 458.04C921.73 456.29 922.83 453.63 923.14 451.71C923.45 449.80 923.25 447.06 922.65 445.27C922.04 443.49 920.55 441.14 919.13 439.83C917.70 438.51 915.13 437.00 913.17 436.52C911.22 436.03 908.21 436.08 906.10 436.60C903.98 437.12 900.93 438.57 899.05 439.98C897.16 441.40 894.79 444.04 893.53 446.04C892.27 448.04 891.07 451.23 890.65 453.31C890.24 455.38 890.14 458.26 890.78 459.89C891.43 461.53 893.24 463.41 894.95 464.21C896.67 465.01 899.80 465.36 902.20 465.21C904.59 465.06 908.29 464.27 910.94 463.24C913.58 462.21 917.56 460.00 919.81 458.35C922.07 456.70 924.71 454.09 925.97 452.27C927.23 450.45 928.14 447.92 928.20 446.24C928.26 444.56 927.49 442.21 926.36 441.07C925.23 439.92 922.68 438.95 920.67 438.62C918.66 438.29 915.31 438.43 912.97 438.87C910.62 439.30 907.23 440.46 905.02 441.52C902.82 442.59 899.90 444.62 898.28 445.99C896.66 447.35 895.07 449.29 894.22 450.62C893.38 451.95 892.68 453.93 892.65 454.84C892.63 455.75 893.17 456.31 894.08 456.70C894.99 457.10 898.04 457.34 898.74 457.45"/>
</svg>