<?xml version="1.0" encoding="UTF-8"?>
<!DOCTYPE svg PUBLIC "-//W3C//DTD SVG 1.1//EN" "http://www.w3.org/Graphics/SVG/1.1/DTD/svg11.dtd">
<svg  xmlns="http://www.w3.org/2000/svg" xmlns:xlink="http://www.w3.org/1999/xlink" viewport-fill="none" viewBox="0.0, 0.0, 223.32536940940437, 564.873423980136" version="1.1" height="564.873423980136" width="223.32536940940437">
<path fill="none" stroke="#d1000d" stroke-width="2.5" stroke-linecap="round" stroke-linejoin="round" d="M212.72 528.54C211.88 528.63 208.34 528.74 207.16 529.14C205.98 529.55 205.50 530.45 204.83 531.27C204.17 532.10 203.24 533.45 202.75 534.66C202.27 535.87 201.59 536.99 201.59 539.37C201.58 541.74 202.21 548.07 202.71 550.48C203.22 552.89 204.17 554.17 204.95 555.43C205.74 556.69 206.97 558.13 207.96 558.87C208.95 559.61 210.48 560.25 211.56 560.35C212.63 560.46 214.18 560.12 215.14 559.57C216.11 559.01 217.26 557.75 217.99 556.63C218.72 555.52 219.60 553.63 220.02 552.15C220.44 550.68 220.75 548.39 220.81 546.78C220.87 545.18 220.73 542.95 220.45 541.47C220.17 539.98 219.54 538.07 218.93 536.91C218.32 535.75 217.24 534.43 216.39 533.75C215.55 533.07 214.27 532.51 213.33 532.35C212.38 532.19 211.03 532.34 210.10 532.67C209.16 533.00 207.91 533.84 207.10 534.56C206.28 535.29 205.28 536.54 204.66 537.51C204.03 538.48 203.29 539.92 202.93 541.01C202.56 542.10 202.32 543.68 202.23 544.79C202.15 545.90 202.13 547.37 202.36 548.41C202.58 549.46 202.90 550.64 203.74 551.75C204.57 552.87 207.28 555.23 207.90 555.84"/><path fill="none" stroke="#d1000d" stroke-width="2.5" stroke-linecap="round" stroke-linejoin="round" d="M187.03 529.08C187.03 528.84 187.44 528.05 187.03 527.47C186.61 526.90 185.14 525.63 184.24 525.23C183.35 524.82 181.79 524.66 181.05 524.77C180.32 524.88 180.03 524.76 179.35 525.97C178.61 527.28 177.01 530.56 176.12 533.49C175.23 536.42 173.81 542.83 173.41 545.49C173.02 548.14 173.30 549.64 173.49 551.18C173.67 552.72 174.13 554.57 174.65 555.77C175.17 556.97 176.12 558.35 176.93 559.18C177.74 560.00 179.10 560.83 180.07 561.30C181.03 561.78 182.35 562.22 183.35 562.33C184.34 562.44 185.72 562.35 186.67 562.02C187.62 561.68 188.83 560.92 189.68 560.09C190.52 559.26 191.61 557.85 192.28 556.50C192.96 555.15 193.80 552.89 194.19 551.12C194.58 549.34 194.86 546.63 194.87 544.64C194.88 542.66 194.70 539.75 194.26 537.87C193.82 535.99 192.77 533.63 191.95 532.11C191.13 530.59 189.82 528.63 188.78 527.73C187.75 526.84 186.22 526.18 185.07 526.14C183.92 526.10 181.73 527.27 181.14 527.47"/>
</svg>