<?xml version="1.0" encoding="UTF-8"?>
<!DOCTYPE svg PUBLIC "-//W3C//DTD SVG 1.1//EN" "http://www.w3.org/Graphics/SVG/1.1/DTD/svg11.dtd">
<svg  xmlns="http://www.w3.org/2000/svg" xmlns:xlink="http://www.w3.org/1999/xlink" viewport-fill="none" viewBox="0.0, 0.0, 442.5488332857364, 534.5696558428781" version="1.1" height="534.5696558428781" width="442.5488332857364">
<path fill="none" stroke="#d1000d" stroke-width="2.5" stroke-linecap="round" stroke-linejoin="round" d="M367.98 388.27C366.90 387.32 362.37 382.94 360.75 381.93C359.13 380.92 358.22 381.28 357.19 381.56C356.15 381.84 354.65 382.41 353.83 383.80C353.02 385.18 352.12 388.08 351.75 390.80C351.38 393.51 351.14 398.03 351.37 401.90C351.60 405.77 352.38 411.81 353.29 416.61C354.21 421.42 356.00 428.71 357.46 433.93C358.91 439.15 361.14 446.25 362.98 451.41C364.81 456.56 367.51 463.45 369.70 468.28C371.88 473.12 375.06 479.38 377.55 483.63C380.04 487.88 383.47 492.99 386.31 496.61C389.16 500.24 393.37 504.72 396.51 507.80C399.65 510.88 404.13 514.64 407.25 517.15C410.37 519.67 414.46 522.66 417.33 524.57C420.19 526.48 423.97 528.76 426.35 529.89C428.73 531.01 431.50 531.94 433.18 532.05C434.86 532.17 436.55 531.63 437.55 530.66C438.55 529.69 439.54 527.62 439.87 525.60C440.19 523.58 440.04 520.08 439.73 517.21C439.42 514.33 438.60 510.00 437.80 506.45C436.99 502.90 436.51 499.94 434.37 493.53C432.22 487.12 426.22 470.51 423.51 463.70C420.79 456.89 418.64 452.69 416.29 448.12C413.94 443.54 410.49 437.50 407.86 433.18C405.22 428.87 405.03 428.22 398.74 419.35C392.44 410.48 370.80 380.83 365.87 374.03"/>
</svg>