<?xml version="1.0" encoding="UTF-8"?>
<!DOCTYPE svg PUBLIC "-//W3C//DTD SVG 1.1//EN" "http://www.w3.org/Graphics/SVG/1.1/DTD/svg11.dtd">
<svg  xmlns="http://www.w3.org/2000/svg" xmlns:xlink="http://www.w3.org/1999/xlink" viewport-fill="none" viewBox="0.0, 0.0, 597.0, 612.4098787536061" version="1.1" height="612.4098787536061" width="597.0">
<path fill="none" stroke="#ffd873" stroke-opacity="0.5" stroke-width="13.0" stroke-linecap="round" stroke-linejoin="round" d="M452.00 534.00C468.42 533.52 543.48 531.42 561.48 530.82C568.51 530.58 570.42 530.12 572.00 530.00"/><path fill="none" stroke="#ffd873" stroke-opacity="0.5" stroke-width="13.0" stroke-linecap="round" stroke-linejoin="round" d="M109.50 548.00C111.55 548.21 118.46 549.12 123.18 549.38C127.89 549.64 132.68 549.95 140.94 549.74C149.19 549.54 159.77 548.41 178.20 548.01C196.62 547.60 249.46 547.21 263.75 547.06C270.23 546.99 266.99 547.09 273.48 547.03C289.41 546.86 346.08 546.36 369.99 545.97C393.90 545.57 422.43 544.67 432.86 544.40C437.32 544.28 435.09 544.14 439.54 544.15C450.33 544.16 486.17 544.23 504.80 544.52C523.43 544.81 554.00 545.82 563.73 546.10C567.68 546.21 566.71 546.30 569.65 546.35C572.59 546.41 581.16 546.37 583.32 546.46C583.90 546.49 583.90 546.92 584.00 547.00"/><path fill="none" stroke="#ffd873" stroke-opacity="0.5" stroke-width="13.0" stroke-linecap="round" stroke-linejoin="round" d="M108.50 564.50C108.06 564.57 104.78 565.02 105.58 564.96C106.38 564.90 108.31 564.29 113.83 564.10C121.96 563.81 146.14 563.60 159.77 563.08C173.40 562.56 193.90 560.98 204.70 560.61C215.50 560.24 225.61 560.46 231.78 560.61C237.96 560.75 243.12 561.34 245.87 561.56C248.63 561.77 247.29 561.86 250.15 562.04C253.45 562.25 260.38 562.92 267.88 562.95C275.38 562.97 289.11 561.99 300.17 562.21C311.22 562.43 328.85 564.05 341.57 564.39C354.30 564.74 377.37 564.48 384.99 564.50C389.94 564.51 387.47 564.50 392.41 564.50C413.58 564.49 504.97 564.49 526.09 564.44C530.82 564.43 528.45 564.32 533.19 564.18C538.06 564.04 552.95 563.81 558.55 563.48C564.16 563.15 568.99 562.11 570.56 561.96C571.66 561.86 569.31 562.12 569.00 562.50C568.69 562.88 568.58 564.20 568.50 564.50"/><path fill="none" stroke="#ffd873" stroke-opacity="0.5" stroke-width="13.0" stroke-linecap="round" stroke-linejoin="round" d="M109.50 580.50C109.28 580.58 106.95 581.08 108.00 581.00C122.39 579.90 180.34 574.27 205.47 573.14C230.59 572.02 264.30 573.43 275.52 573.51C278.69 573.53 277.11 573.47 280.28 573.67C289.59 574.24 319.58 576.68 337.63 577.32C355.68 577.97 390.27 577.84 400.62 577.97C404.58 578.02 402.60 577.95 406.56 578.19C412.74 578.57 422.41 580.41 441.81 580.52C461.21 580.63 520.59 579.14 535.91 578.91C541.25 578.83 538.58 578.76 543.92 579.01C549.33 579.26 567.94 580.24 572.00 580.61C572.89 580.69 571.15 581.37 571.00 581.50"/><path fill="none" stroke="#ffd873" stroke-opacity="0.5" stroke-width="13.0" stroke-linecap="round" stroke-linejoin="round" d="M108.50 597.00C110.24 597.28 114.87 598.55 120.11 598.87C125.35 599.18 130.05 599.76 143.44 599.13C156.83 598.50 194.61 595.46 209.38 594.69C224.15 593.92 233.11 593.95 241.92 593.99C250.73 594.03 263.16 594.80 268.11 594.95C272.64 595.09 270.38 594.91 274.91 595.01C282.34 595.18 306.62 596.17 317.65 596.04C328.67 595.92 341.10 594.79 348.42 594.16C355.74 593.53 363.57 592.18 366.43 591.85C367.14 591.77 367.26 591.83 367.50 592.00C367.74 592.17 367.92 592.85 368.00 593.00"/><path fill="none" stroke="#d1000d" stroke-width="1.5" stroke-linecap="round" stroke-linejoin="round" d="M177.00 555.00C186.38 554.70 230.12 553.30 239.50 553.00"/><path fill="none" stroke="#d1000d" stroke-width="1.5" stroke-linecap="round" stroke-linejoin="round" d="M241.50 556.00C241.43 556.08 240.54 556.42 241.00 556.50C242.48 556.76 248.14 557.48 251.33 557.71C254.53 557.94 259.07 558.01 262.32 558.04C265.57 558.08 270.30 558.04 273.01 557.94C275.73 557.84 278.85 557.61 280.43 557.39C282.00 557.17 283.04 556.63 283.50 556.50"/><path fill="none" stroke="#d1000d" stroke-width="1.5" stroke-linecap="round" stroke-linejoin="round" d="M297.50 558.00C297.35 558.00 295.84 558.05 296.50 558.00C305.00 557.39 345.86 554.49 354.18 553.96C355.68 553.87 352.33 554.42 352.00 554.50"/><path fill="none" stroke="#d1000d" stroke-width="1.5" stroke-linecap="round" stroke-linejoin="round" d="M396.50 558.00C412.70 557.78 488.45 556.72 504.50 556.50C505.17 556.49 503.65 556.50 503.50 556.50"/><path fill="none" stroke="#d1000d" stroke-width="1.5" stroke-linecap="round" stroke-linejoin="round" d="M115.50 577.50C115.88 576.97 115.97 574.64 118.00 574.00C120.03 573.36 121.67 573.28 129.05 573.22C138.43 573.14 172.78 573.46 180.50 573.50"/>
</svg>