<?xml version="1.0" encoding="UTF-8"?>
<!DOCTYPE svg PUBLIC "-//W3C//DTD SVG 1.1//EN" "http://www.w3.org/Graphics/SVG/1.1/DTD/svg11.dtd">
<svg  xmlns="http://www.w3.org/2000/svg" xmlns:xlink="http://www.w3.org/1999/xlink" viewport-fill="none" viewBox="0.0, 0.0, 594.3413715204521, 882.695556640625" version="1.1" height="882.695556640625" width="594.3413715204521">
<path fill="none" stroke="#ffd873" stroke-opacity="0.5" stroke-width="13.0" stroke-linecap="round" stroke-linejoin="round" d="M150.08 122.64C148.48 122.05 135.96 119.70 139.39 118.75C142.81 117.80 158.41 116.74 172.93 116.29C187.45 115.84 225.67 115.82 236.21 115.74C240.85 115.71 238.54 115.52 243.18 115.75C254.54 116.34 296.05 118.96 311.96 119.63C327.86 120.31 342.77 120.10 349.23 120.24C353.12 120.32 351.17 120.37 355.05 120.53C360.81 120.76 379.09 121.72 387.62 121.83C396.14 121.94 403.08 121.29 411.89 121.25C420.71 121.21 440.54 121.55 446.39 121.57C449.41 121.59 447.91 121.63 450.92 121.40C457.49 120.88 476.69 118.97 490.19 118.16C503.69 117.35 530.69 116.56 540.92 115.97C551.16 115.38 555.74 114.55 558.45 114.25C558.86 114.20 558.91 114.00 558.99 113.95C558.99 113.95 558.99 113.95 558.99 113.95"/><path fill="none" stroke="#ffd873" stroke-opacity="0.5" stroke-width="13.0" stroke-linecap="round" stroke-linejoin="round" d="M111.17 135.49C116.62 135.75 136.26 136.96 147.48 137.19C158.70 137.41 172.59 136.71 186.00 137.01C199.41 137.32 227.01 138.92 236.87 139.22C246.72 139.53 248.73 139.09 251.72 139.02C254.71 138.95 253.42 138.84 256.82 138.78C267.70 138.60 310.65 138.14 324.23 137.81C337.82 137.47 343.20 136.75 347.38 136.55C350.49 136.40 348.93 136.50 352.05 136.46C356.40 136.40 361.84 136.06 376.36 136.19C390.89 136.32 437.32 137.19 448.88 137.33C451.91 137.37 450.40 137.22 453.42 137.13C458.53 136.97 469.44 135.71 482.89 136.30C496.34 136.89 531.64 140.57 543.10 141.07C553.89 141.54 556.18 139.90 559.24 139.64C562.08 139.39 562.66 139.41 563.51 139.31C564.35 139.21 564.69 139.02 564.90 138.97"/><path fill="none" stroke="#ffd873" stroke-opacity="0.5" stroke-width="13.0" stroke-linecap="round" stroke-linejoin="round" d="M125.07 155.99C124.38 155.82 121.85 154.88 120.48 154.85C119.10 154.81 114.95 155.47 115.90 155.73C116.86 156.00 119.52 156.60 126.83 156.61C143.00 156.63 208.22 156.01 223.72 155.88C228.02 155.84 225.87 155.77 230.16 155.75C238.29 155.71 269.41 155.75 277.88 155.63C283.72 155.54 285.31 155.05 286.62 154.95"/><path fill="none" stroke="#79eb70" stroke-opacity="0.5" stroke-width="13.0" stroke-linecap="round" stroke-linejoin="round" d="M256.74 185.52C256.43 185.61 253.26 186.09 254.69 186.14C258.00 186.26 262.73 186.94 278.80 186.32C298.80 185.56 370.45 181.88 388.05 181.05C393.45 180.79 390.75 180.91 396.15 180.75C401.82 180.58 408.91 179.87 425.84 179.90C442.76 179.92 495.83 180.73 508.96 180.93C511.95 180.97 510.45 181.03 513.43 181.21C519.29 181.57 538.24 182.99 548.05 183.32C557.85 183.65 574.18 183.42 578.79 183.43"/><path fill="none" stroke="#79eb70" stroke-opacity="0.5" stroke-width="13.0" stroke-linecap="round" stroke-linejoin="round" d="M114.99 205.32C114.69 205.06 111.23 203.74 112.99 203.59C117.97 203.17 127.15 203.67 148.16 202.53C169.18 201.40 236.05 197.06 253.08 196.02C258.82 195.67 256.94 195.82 261.70 195.61C266.46 195.40 278.47 194.74 284.82 194.63C291.17 194.52 293.45 194.12 304.03 194.85C314.62 195.58 343.29 198.72 355.39 199.52C367.49 200.31 379.07 200.07 384.70 200.13C390.19 200.20 387.44 200.04 392.93 199.96C411.90 199.69 490.15 198.71 511.19 198.35C525.86 198.09 528.75 197.69 533.18 197.50C537.62 197.31 536.76 197.20 540.73 197.08C544.71 196.95 556.14 196.61 559.68 196.66C562.83 196.71 562.93 197.02 564.34 197.43C565.75 197.84 568.36 199.12 569.06 199.42"/><path fill="none" stroke="#79eb70" stroke-opacity="0.5" stroke-width="13.0" stroke-linecap="round" stroke-linejoin="round" d="M112.91 219.22C112.81 219.32 111.56 219.95 112.21 219.91C119.38 219.48 144.33 217.29 160.64 216.36C176.96 215.43 205.35 214.59 220.95 213.70C236.55 212.80 257.45 210.93 264.66 210.41C267.56 210.20 266.19 210.36 269.01 210.22C271.83 210.08 281.32 209.60 283.49 209.49"/><path fill="none" stroke="#ffd873" stroke-opacity="0.5" stroke-width="13.0" stroke-linecap="round" stroke-linejoin="round" d="M401.96 612.14C402.01 611.94 402.15 610.98 402.31 610.75C402.46 610.53 402.53 610.66 403.00 610.65C409.04 610.55 429.95 610.57 442.60 610.07C455.25 609.58 474.75 607.77 487.36 607.35C499.97 606.93 519.83 607.29 526.68 607.29C530.89 607.29 528.79 607.17 533.00 607.35C538.85 607.61 559.64 608.66 565.70 609.03C570.87 609.34 571.78 609.49 573.43 609.82C575.08 610.15 576.83 610.77 576.71 611.22C576.58 611.66 574.75 612.38 572.62 612.77C570.48 613.17 565.15 613.62 562.47 613.85C559.80 614.08 559.92 614.13 554.79 614.28C545.51 614.56 520.99 615.66 500.58 615.70C480.17 615.74 431.51 614.76 418.73 614.54C416.52 614.51 417.63 614.47 415.43 614.26C412.76 614.00 403.09 613.05 400.92 612.84"/><path fill="none" stroke="#ffd873" stroke-opacity="0.5" stroke-width="13.0" stroke-linecap="round" stroke-linejoin="round" d="M111.87 631.25C113.48 631.09 116.76 630.42 122.63 630.17C128.49 629.91 141.84 630.38 150.97 629.53C160.10 628.68 171.66 625.27 183.49 624.49C195.32 623.71 222.17 624.34 229.82 624.33C232.94 624.32 231.38 624.33 234.50 624.43C243.34 624.69 272.72 626.28 288.74 626.11C304.75 625.93 332.72 623.70 341.27 623.28C344.25 623.13 342.76 623.24 345.74 623.25C348.86 623.27 351.51 622.99 362.07 623.36C372.64 623.73 407.41 625.32 416.18 625.70C419.12 625.83 417.65 625.93 420.59 625.92C435.39 625.87 499.99 625.46 514.89 625.37C518.26 625.35 516.58 625.42 519.94 625.35C528.20 625.19 561.67 624.41 569.91 624.27C573.21 624.21 573.56 624.18 574.86 624.38C576.16 624.59 577.93 625.35 578.57 625.64C579.10 625.89 578.96 625.77 579.11 626.34C579.26 626.92 579.94 628.86 579.57 629.50C579.20 630.13 577.63 630.37 576.64 630.57C575.64 630.78 575.41 630.86 572.94 630.85C564.53 630.83 538.69 630.82 520.54 630.43C502.39 630.05 464.09 628.65 451.94 628.28C443.69 628.02 447.82 628.13 439.56 627.93C424.63 627.56 371.27 626.09 352.44 625.80C333.60 625.50 327.30 625.61 313.97 625.96C300.65 626.32 278.13 627.20 263.61 628.15C249.10 629.11 225.17 631.63 217.21 632.33C212.76 632.73 214.99 632.65 210.53 632.86C197.68 633.47 145.02 635.73 131.54 636.40C124.26 636.75 123.44 636.88 120.65 637.30C117.86 637.72 114.18 638.85 112.94 639.19C112.52 639.31 112.77 639.33 112.42 639.60C111.89 640.03 109.91 641.49 109.41 642.03C108.91 642.56 108.99 642.75 109.08 643.14C109.17 643.54 109.40 644.16 110.02 644.66C110.65 645.17 111.79 645.94 113.23 646.52C114.67 647.10 117.24 647.97 119.61 648.54C121.99 649.11 125.85 649.87 129.06 650.31C132.28 650.75 133.02 651.31 141.05 651.49C155.08 651.80 207.97 652.36 222.59 652.40C233.25 652.43 235.21 651.94 238.57 651.76C241.92 651.57 241.81 651.54 244.98 651.17C248.15 650.79 255.42 649.98 259.72 649.25C264.02 648.52 272.59 647.02 273.65 646.28C274.72 645.53 270.79 644.93 266.82 644.31C262.84 643.70 254.87 642.51 247.13 642.18C239.39 641.85 222.52 641.98 215.22 642.10C207.92 642.23 203.31 642.71 198.47 643.03C193.62 643.34 190.41 643.66 182.92 644.22C175.42 644.78 155.69 646.39 148.48 646.76C141.26 647.13 137.92 646.84 134.82 646.70C131.72 646.55 126.61 645.82 127.81 645.79C129.01 645.77 136.54 646.55 142.82 646.56C149.10 646.57 156.44 646.69 169.67 645.87C182.90 645.06 220.37 641.93 231.01 641.13C237.44 640.64 235.08 640.68 240.66 640.54C246.24 640.39 262.43 640.49 268.21 640.18C274.00 639.87 276.62 638.52 279.23 638.48C281.85 638.45 284.39 639.55 285.64 639.94C286.89 640.34 287.18 640.74 287.55 641.09C287.93 641.44 288.00 642.00 288.13 642.26C288.26 642.51 288.39 642.56 288.43 642.79C288.47 643.02 288.54 643.55 288.41 643.79C288.28 644.03 288.23 644.20 287.56 644.38C286.12 644.76 281.44 646.00 278.76 646.34C276.09 646.69 272.18 646.78 269.73 646.67C267.28 646.57 262.92 645.46 262.42 645.64C261.92 645.81 264.62 647.28 266.40 647.82C268.17 648.35 272.33 649.04 274.27 649.21C276.21 649.38 277.20 649.32 279.34 648.93C281.47 648.55 286.71 647.21 288.51 646.64C290.30 646.06 290.72 645.55 291.33 645.10C291.94 644.65 292.50 644.23 292.59 643.63C292.69 643.02 292.87 641.97 291.96 641.06C291.04 640.15 288.22 638.22 286.48 637.57C284.73 636.91 282.09 636.80 280.34 636.68C278.59 636.57 276.89 636.48 274.80 636.81C272.72 637.14 267.72 638.58 266.47 638.90"/><path fill="none" stroke="#98c2ff" stroke-opacity="0.5" stroke-width="13.0" stroke-linecap="round" stroke-linejoin="round" d="M307.46 643.06C307.25 643.01 305.68 642.63 306.07 642.72C306.46 642.80 307.72 643.49 310.07 643.63C312.43 643.77 313.98 643.90 321.77 643.67C334.72 643.28 384.53 641.50 396.37 641.09C399.27 640.99 397.82 640.99 400.71 640.95C405.28 640.90 413.57 640.46 426.78 640.72C439.98 640.97 478.71 642.34 488.76 642.65C492.11 642.75 490.44 642.73 493.78 642.79C497.57 642.85 506.41 643.20 513.99 643.08C521.56 642.95 536.55 642.00 544.29 641.96C552.03 641.91 562.11 642.62 565.61 642.77C566.98 642.83 566.31 642.76 567.66 642.98C569.59 643.28 576.83 644.53 578.45 644.80"/><path fill="none" stroke="#98c2ff" stroke-opacity="0.5" stroke-width="13.0" stroke-linecap="round" stroke-linejoin="round" d="M111.52 662.52C114.58 662.23 124.60 660.98 131.95 660.59C139.29 660.20 150.04 660.07 160.50 659.91C170.96 659.76 190.99 659.35 201.66 659.54C212.33 659.73 226.35 660.95 231.64 661.19C235.14 661.35 233.39 661.12 236.90 661.16C247.00 661.26 284.31 661.91 299.02 661.88C313.74 661.84 328.58 661.09 334.99 660.92C339.52 660.81 337.26 660.77 341.79 660.79C348.69 660.82 368.42 661.30 381.04 661.14C393.66 660.98 418.37 659.91 425.92 659.70C429.54 659.61 427.73 659.79 431.36 659.78C448.89 659.73 525.45 659.45 542.79 659.38C545.55 659.37 544.17 659.34 546.93 659.37C552.70 659.42 576.18 659.68 581.22 659.74C581.69 659.75 580.63 659.74 580.53 659.74"/><path fill="none" stroke="#98c2ff" stroke-opacity="0.5" stroke-width="13.0" stroke-linecap="round" stroke-linejoin="round" d="M114.65 678.15C114.54 678.10 113.44 677.84 113.95 677.81C125.99 677.02 177.23 673.55 194.89 672.94C212.54 672.33 225.51 673.60 231.64 673.72C234.39 673.78 233.02 673.71 235.76 673.79C239.36 673.89 246.94 674.53 255.62 674.39C264.29 674.26 284.39 673.00 293.58 672.90C302.76 672.80 312.60 673.56 316.88 673.71C320.36 673.84 318.62 673.87 322.10 673.91C335.18 674.06 391.26 674.59 404.09 674.72C406.46 674.74 405.28 674.69 407.65 674.78C417.17 675.14 458.13 676.79 467.56 677.14C469.51 677.21 468.53 677.19 470.49 677.12C476.14 676.92 495.46 676.06 505.23 675.83C515.00 675.60 530.47 675.66 535.64 675.61C538.37 675.58 537.01 675.51 539.74 675.48C543.61 675.45 557.48 675.44 561.45 675.37C564.61 675.31 565.03 675.22 566.17 675.01C567.32 674.80 568.63 674.14 569.06 673.98"/><path fill="none" stroke="#98c2ff" stroke-opacity="0.5" stroke-width="13.0" stroke-linecap="round" stroke-linejoin="round" d="M115.69 687.53C115.57 687.45 114.27 686.90 114.90 686.99C117.94 687.41 129.47 689.53 135.95 690.33C142.44 691.14 144.76 692.30 158.11 692.35C171.47 692.39 214.00 690.93 225.00 690.63C229.30 690.51 227.15 690.52 231.45 690.32C235.95 690.12 240.33 689.43 255.00 689.28C269.67 689.12 317.29 689.25 329.27 689.27C332.99 689.28 331.13 689.38 334.85 689.39C346.98 689.42 391.51 689.60 410.15 689.48C428.79 689.35 450.77 688.71 459.11 688.58C463.56 688.51 461.34 688.46 465.78 688.62C470.46 688.79 484.41 689.33 490.34 689.73C496.28 690.12 501.44 691.00 505.34 691.24C509.24 691.49 514.22 691.34 516.32 691.35C518.36 691.37 518.72 691.35 519.38 691.35C520.05 691.35 520.57 691.35 520.77 691.35"/><path fill="none" stroke="#ff9399" stroke-opacity="0.5" stroke-width="13.0" stroke-linecap="round" stroke-linejoin="round" d="M405.09 757.71C404.72 757.56 400.95 756.75 402.68 756.72C404.70 756.70 408.16 757.33 418.53 757.53C428.90 757.73 463.02 757.99 471.79 758.07C475.27 758.10 473.53 758.10 477.01 758.04C488.17 757.87 532.05 757.27 546.15 756.92C560.24 756.56 567.14 755.87 571.00 755.68C571.56 755.65 571.72 755.63 571.84 755.63C571.84 755.63 571.84 755.63 571.84 755.63"/><path fill="none" stroke="#ff9399" stroke-opacity="0.5" stroke-width="13.0" stroke-linecap="round" stroke-linejoin="round" d="M125.76 774.04C123.80 774.20 108.00 774.88 112.64 775.12C117.28 775.36 142.20 775.69 156.68 775.64C171.16 775.60 200.26 774.98 209.17 774.81C213.79 774.72 211.48 774.68 216.10 774.52C228.53 774.11 274.37 772.44 292.08 772.07C309.79 771.70 327.05 772.05 334.15 772.06C337.67 772.07 335.91 772.22 339.42 772.19C355.20 772.07 423.54 771.38 439.35 771.27C442.97 771.24 441.16 771.26 444.78 771.40C449.82 771.60 457.89 772.35 472.92 772.58C487.96 772.80 533.64 772.83 545.00 772.89C547.43 772.90 546.22 772.94 548.65 772.96C552.05 772.97 564.82 772.99 567.68 773.00"/><path fill="none" stroke="#ff9399" stroke-opacity="0.5" stroke-width="13.0" stroke-linecap="round" stroke-linejoin="round" d="M118.47 791.76C119.11 791.91 120.28 792.55 122.74 792.77C125.20 792.99 126.78 793.31 134.87 793.22C152.47 793.04 223.06 791.88 240.10 791.57C245.69 791.46 242.89 791.38 248.48 791.14C255.90 790.82 275.84 789.56 289.57 789.44C303.30 789.32 331.82 790.23 340.01 790.37C342.75 790.41 341.38 790.42 344.13 790.37C355.31 790.16 403.30 789.17 414.53 788.96C417.51 788.90 416.02 789.01 419.00 788.94C434.02 788.56 499.34 786.88 514.64 786.46C518.91 786.35 516.77 786.35 521.03 786.16C526.59 785.91 543.57 784.85 551.66 784.81C559.75 784.76 571.47 785.69 574.97 785.85"/><path fill="none" stroke="#ff9399" stroke-opacity="0.5" stroke-width="13.0" stroke-linecap="round" stroke-linejoin="round" d="M114.30 808.78C113.88 808.82 109.67 808.88 111.52 809.07C115.20 809.44 131.59 810.98 138.81 811.27C146.03 811.55 145.79 811.86 159.67 810.99C174.55 810.07 225.17 806.06 238.00 805.11C242.82 804.76 240.42 805.04 245.23 804.70C250.90 804.30 268.17 802.88 275.80 802.45C283.44 802.01 284.31 801.63 296.12 801.80C307.94 801.97 345.19 803.33 354.55 803.60C357.22 803.67 355.89 803.61 358.56 803.57C366.09 803.46 397.86 802.93 404.74 802.87C405.07 802.87 404.44 803.17 404.39 803.22"/><path fill="none" stroke="#d1000d" stroke-width="2.0" stroke-linecap="round" stroke-linejoin="round" d="M409.25 796.62C409.77 796.55 410.38 796.11 412.70 796.13C418.26 796.18 433.14 796.89 446.34 796.98C459.55 797.07 491.54 796.78 500.71 796.73C505.24 796.71 502.97 796.66 507.50 796.66C513.16 796.66 530.08 796.53 538.42 796.74C546.77 796.94 559.45 797.82 563.16 798.01"/><path fill="none" stroke="#d1000d" stroke-width="2.0" stroke-linecap="round" stroke-linejoin="round" d="M114.65 811.91C128.60 811.96 193.04 812.19 207.66 812.25C210.60 812.26 209.13 812.21 212.07 812.29C217.50 812.43 234.07 813.18 243.91 813.22C253.74 813.26 272.16 812.67 277.64 812.56C279.54 812.52 278.59 812.51 280.48 812.49C289.19 812.39 326.84 812.00 335.68 811.91C338.14 811.88 336.91 811.91 339.38 811.91C345.61 811.91 369.04 812.04 377.24 811.89C385.44 811.75 391.19 811.09 394.07 810.93C395.60 810.83 395.14 810.83 396.37 810.77C397.61 810.71 401.42 810.56 402.31 810.52"/><path fill="none" stroke="#ffd873" stroke-opacity="0.5" stroke-width="13.0" stroke-linecap="round" stroke-linejoin="round" d="M127.15 826.50C126.70 826.23 121.84 824.96 124.15 824.73C131.90 823.99 170.44 822.09 178.84 821.51C179.81 821.44 180.01 821.02 180.14 820.83C180.27 820.65 179.84 820.46 179.71 820.27C179.58 820.08 179.13 819.88 179.29 819.56C179.46 819.24 180.18 818.45 180.82 818.14C181.46 817.83 181.70 817.71 183.55 817.52C185.41 817.33 187.28 816.92 193.21 816.88C199.13 816.84 211.80 817.47 223.04 817.24C234.27 817.00 255.97 815.56 268.08 815.32C280.19 815.09 297.34 815.64 303.77 815.66C308.55 815.68 306.16 815.66 310.94 815.49C322.54 815.08 362.84 813.10 381.14 812.93C399.44 812.77 422.50 813.95 432.93 814.40C443.36 814.86 447.22 815.66 450.68 815.96C454.14 816.26 452.44 816.27 455.98 816.39C465.13 816.68 496.69 817.26 511.65 817.91C526.60 818.56 548.88 820.25 555.70 820.70C556.64 820.76 556.23 820.81 557.11 820.87C557.99 820.92 562.84 820.91 561.56 821.08C560.28 821.26 557.25 821.92 548.57 822.02C536.71 822.15 499.08 822.08 482.48 821.94C465.88 821.79 446.65 821.28 437.90 821.07C429.16 820.86 433.17 820.85 424.17 820.53C415.16 820.21 392.25 819.18 377.88 818.93C363.52 818.67 352.96 818.34 328.41 818.85C303.85 819.36 232.86 821.75 214.20 822.32C207.43 822.53 210.81 822.40 204.04 822.64C192.20 823.04 146.75 824.44 135.26 825.05C129.95 825.33 129.61 826.02 127.45 826.68C125.29 827.33 122.03 828.85 120.85 829.40C119.91 829.85 120.03 829.82 119.62 830.38C119.22 830.94 118.23 832.48 118.17 833.13C118.11 833.78 118.50 834.24 119.23 834.70C119.96 835.16 120.34 835.81 123.04 836.20C126.44 836.71 130.28 837.82 141.92 838.05C153.57 838.28 186.20 837.65 200.65 837.72C215.11 837.79 230.26 838.53 238.28 838.52C246.29 838.50 249.43 838.04 254.08 837.62C258.74 837.20 266.74 836.07 269.32 835.75C270.61 835.59 270.85 835.57 271.25 835.47C271.65 835.36 272.55 835.15 271.99 835.06C270.47 834.80 265.49 833.91 261.12 833.76C256.74 833.61 254.99 833.19 242.83 834.05C227.86 835.11 176.42 839.70 161.32 840.82C148.59 841.77 147.47 841.49 142.18 841.56C136.90 841.63 128.78 841.36 126.10 841.30C124.92 841.28 124.91 841.15 124.34 841.19C123.77 841.23 120.89 841.69 122.28 841.59C131.31 840.95 168.54 837.89 184.49 836.90C200.43 835.92 219.54 835.27 228.57 835.02C237.60 834.77 237.68 834.83 244.69 835.23C251.71 835.63 268.76 837.28 275.37 837.69C281.97 838.09 286.02 837.93 288.71 837.93C291.41 837.93 291.91 837.91 293.34 837.70C294.77 837.49 297.63 836.85 298.25 836.52C298.86 836.19 298.25 835.81 297.44 835.48C296.25 834.99 295.04 833.78 290.32 833.28C285.60 832.77 272.40 832.21 265.97 832.12C259.55 832.03 254.23 832.02 247.48 832.69C240.73 833.36 224.93 835.99 220.96 836.57"/><path fill="none" stroke="#823ede" stroke-width="2.0" stroke-linecap="round" stroke-linejoin="round" d="M140.70 862.28C144.22 862.21 153.55 861.73 164.16 861.81C174.78 861.90 203.89 862.68 211.49 862.86C213.73 862.91 212.61 862.89 214.85 862.98C220.61 863.20 241.13 864.15 249.86 864.35C258.58 864.56 269.15 864.34 273.02 864.33C274.79 864.32 273.90 864.30 275.67 864.28C284.50 864.19 323.05 863.77 331.85 863.67C333.51 863.65 332.68 863.58 334.34 863.65C336.92 863.75 344.56 864.43 349.03 864.39C353.51 864.35 359.80 863.55 364.16 863.40C368.51 863.24 375.64 863.37 378.06 863.36C379.53 863.35 378.80 863.39 380.27 863.32C385.78 863.05 409.63 861.85 414.81 861.59"/><path fill="none" stroke="#823ede" stroke-width="2.0" stroke-linecap="round" stroke-linejoin="round" d="M193.86 877.92C192.84 878.09 182.44 878.99 187.04 879.08C197.94 879.31 253.73 879.35 266.53 879.42C270.43 879.44 268.48 879.40 272.37 879.53C277.89 879.73 298.66 880.52 303.29 880.70"/><path fill="none" stroke="#823ede" stroke-width="2.0" stroke-linecap="round" stroke-linejoin="round" d="M393.27 839.70C393.27 839.96 393.27 841.18 393.27 841.44"/><path fill="none" stroke="#823ede" stroke-width="2.0" stroke-linecap="round" stroke-linejoin="round" d="M400.22 837.62C400.03 837.13 399.36 835.06 398.96 834.40C398.55 833.74 398.34 833.48 397.51 833.23C396.68 832.97 394.69 832.39 393.42 832.71C392.16 833.02 389.98 834.61 389.07 835.35C388.16 836.10 387.72 836.89 387.37 837.66C387.02 838.43 386.72 839.66 386.71 840.52C386.69 841.37 386.87 842.58 387.26 843.37C387.66 844.15 388.52 845.18 389.32 845.75C390.12 846.32 391.54 846.97 392.59 847.17C393.63 847.37 395.19 847.35 396.29 847.09C397.39 846.84 399.03 846.13 399.94 845.47C400.85 844.81 401.80 843.62 402.35 842.67C402.89 841.72 403.46 840.22 403.57 839.16C403.67 838.11 403.49 836.44 403.04 835.63C402.59 834.83 401.25 834.12 400.57 833.79C399.88 833.47 398.80 833.50 398.48 833.45"/><path fill="none" stroke="#823ede" stroke-width="2.0" stroke-linecap="round" stroke-linejoin="round" d="M103.18 867.49C103.39 867.13 104.24 865.46 104.57 865.06C104.90 864.67 105.18 864.60 105.37 864.86C105.56 865.11 105.98 865.70 105.83 866.76C105.68 867.83 104.27 871.34 104.39 871.97C104.52 872.60 106.32 871.12 106.66 870.97"/><path fill="none" stroke="#823ede" stroke-width="2.0" stroke-linecap="round" stroke-linejoin="round" d="M111.17 864.71C111.02 864.30 110.84 862.58 110.13 861.94C109.42 861.29 107.44 860.59 106.43 860.39C105.42 860.20 104.30 860.41 103.40 860.64C102.50 860.86 101.29 861.37 100.44 861.90C99.60 862.44 98.42 863.37 97.77 864.22C97.12 865.06 96.39 866.48 96.10 867.54C95.82 868.59 95.73 870.20 95.88 871.27C96.03 872.35 96.55 873.86 97.13 874.69C97.70 875.52 98.84 876.43 99.73 876.79C100.61 877.15 102.02 877.27 103.03 877.10C104.04 876.92 105.52 876.29 106.47 875.64C107.42 874.98 108.61 873.67 109.34 872.71C110.08 871.75 110.96 870.25 111.38 869.24C111.80 868.24 112.14 866.86 112.16 866.03C112.19 865.19 111.83 864.08 111.52 863.67C111.21 863.27 110.34 863.38 110.13 863.32"/><path fill="none" stroke="#823ede" stroke-width="2.0" stroke-linecap="round" stroke-linejoin="round" d="M373.12 879.65C372.86 879.61 370.19 879.34 371.37 879.33C390.61 879.28 481.80 879.31 501.35 879.31C501.56 879.31 501.62 879.31 501.67 879.31C501.67 879.31 501.67 879.31 501.67 879.31"/><path fill="none" stroke="#823ede" stroke-width="2.0" stroke-linecap="round" stroke-linejoin="round" d="M504.10 839.70C504.05 839.65 503.63 839.66 503.75 839.35C503.87 839.05 504.60 837.97 504.91 837.67C505.22 837.38 505.60 837.19 505.81 837.37C506.01 837.55 506.40 838.10 506.28 838.88C506.17 839.66 504.96 841.70 505.05 842.55C505.13 843.40 506.76 844.11 506.86 844.54C506.96 844.98 506.29 845.29 505.72 845.45C505.15 845.61 503.46 845.58 503.06 845.61"/><path fill="none" stroke="#823ede" stroke-width="2.0" stroke-linecap="round" stroke-linejoin="round" d="M511.39 835.88C511.19 835.42 510.60 833.37 510.05 832.84C509.51 832.30 508.89 832.01 507.78 832.30C506.67 832.58 503.69 833.96 502.66 834.73C501.63 835.51 501.28 836.60 500.93 837.47C500.59 838.35 500.32 839.65 500.38 840.58C500.44 841.51 500.82 842.84 501.34 843.67C501.86 844.49 502.95 845.51 503.86 846.08C504.78 846.66 506.29 847.30 507.43 847.50C508.57 847.70 510.27 847.65 511.45 847.40C512.63 847.16 514.35 846.47 515.29 845.84C516.23 845.21 517.16 844.09 517.71 843.21C518.27 842.32 518.88 840.90 518.99 839.95C519.10 839.01 519.18 837.66 518.45 836.90C517.73 836.13 514.82 835.15 514.17 834.84"/><path fill="none" stroke="#d1000d" stroke-width="2.0" stroke-linecap="round" stroke-linejoin="round" d="M174.75 732.70C175.43 732.57 176.22 732.03 179.30 731.88C184.09 731.65 197.85 731.06 206.70 731.12C215.55 731.17 230.73 732.12 238.28 732.27C245.84 732.41 253.57 732.12 257.08 732.07C260.15 732.03 258.61 732.00 261.69 731.93C267.54 731.81 286.18 731.26 296.07 731.27C305.96 731.28 322.35 731.89 327.61 732.00C329.97 732.05 328.79 732.00 331.14 732.00C334.95 732.00 346.10 731.86 352.99 732.02C359.87 732.17 371.46 732.92 377.05 733.03C382.65 733.14 387.85 732.79 390.28 732.74C392.29 732.70 391.28 732.68 393.29 732.69C404.86 732.73 455.60 732.99 467.43 733.04C470.58 733.06 469.01 733.01 472.15 733.04C482.98 733.16 526.13 733.85 539.58 733.80C553.03 733.75 557.95 732.91 561.81 732.70C564.15 732.58 564.33 732.41 565.31 732.41C566.29 732.41 567.91 732.65 568.37 732.70"/><path fill="none" stroke="#d1000d" stroke-width="2.0" stroke-linecap="round" stroke-linejoin="round" d="M115.34 749.03C115.91 748.92 116.58 748.45 119.16 748.33C122.16 748.19 128.04 748.44 135.30 748.08C142.57 747.72 157.19 746.35 167.62 745.91C178.05 745.48 198.53 745.34 204.85 745.20C208.12 745.13 206.48 745.06 209.75 745.01C216.80 744.90 242.12 744.38 251.79 744.47C261.46 744.57 270.31 745.45 274.24 745.63C276.73 745.74 275.48 745.64 277.97 745.66C290.56 745.79 345.62 746.39 358.17 746.49C360.52 746.51 359.34 746.40 361.69 746.34C371.51 746.10 414.03 745.12 423.62 744.90C424.98 744.87 424.30 744.83 425.66 744.85C431.36 744.94 452.82 745.17 461.66 745.52C470.50 745.87 480.50 746.90 484.57 747.18C487.36 747.37 486.09 747.12 488.76 747.40C491.43 747.68 500.32 748.78 502.36 749.03"/><path fill="none" stroke="#ffd873" stroke-opacity="0.5" stroke-width="13.0" stroke-linecap="round" stroke-linejoin="round" d="M184.13 727.14C182.51 726.86 170.29 725.69 173.35 725.27C176.40 724.86 194.21 725.00 204.49 724.37C214.78 723.74 235.35 721.58 241.89 721.07C246.02 720.76 243.98 720.66 248.11 721.00C253.12 721.42 270.48 723.41 275.31 723.84C278.65 724.14 276.99 723.94 280.33 723.91C292.29 723.83 338.56 723.13 355.05 723.30C371.54 723.46 384.07 724.75 390.24 725.02C394.18 725.20 392.21 724.96 396.15 725.12C402.28 725.38 417.77 726.51 431.09 726.72C444.42 726.92 476.03 726.51 484.96 726.47C488.74 726.45 486.85 726.52 490.63 726.45C498.97 726.30 529.01 725.98 540.54 725.45C552.08 724.91 563.38 723.28 567.52 722.91C567.95 722.87 567.74 722.88 568.16 722.94C568.60 723.00 570.11 723.26 570.45 723.32"/><path fill="none" stroke="#ffd873" stroke-opacity="0.5" stroke-width="13.0" stroke-linecap="round" stroke-linejoin="round" d="M114.99 740.34C114.94 740.44 114.46 740.64 114.65 741.03C114.83 741.43 115.52 742.62 116.21 742.99C116.90 743.35 117.20 743.65 119.25 743.49C124.69 743.09 144.74 740.90 152.50 740.28C160.27 739.66 162.04 739.42 171.00 739.36C179.97 739.29 201.68 739.42 212.27 739.86C222.87 740.31 236.41 741.91 241.64 742.32C245.29 742.60 243.47 742.50 247.13 742.57C251.17 742.64 254.27 743.10 268.52 742.78C283.00 742.47 328.88 740.83 343.68 740.46C358.47 740.10 362.92 740.36 367.16 740.34C370.35 740.33 368.75 740.40 371.94 740.34C379.18 740.20 402.83 739.30 415.38 739.41C427.93 739.53 448.75 740.83 455.59 741.11C459.17 741.26 457.38 741.27 460.96 741.31C465.42 741.36 481.34 741.34 485.31 741.46C486.78 741.50 487.00 741.83 487.42 742.08C487.84 742.33 488.01 742.96 488.12 743.12"/>
</svg>