<?xml version="1.0" encoding="UTF-8"?>
<!DOCTYPE svg PUBLIC "-//W3C//DTD SVG 1.1//EN" "http://www.w3.org/Graphics/SVG/1.1/DTD/svg11.dtd">
<svg  xmlns="http://www.w3.org/2000/svg" xmlns:xlink="http://www.w3.org/1999/xlink" viewport-fill="none" viewBox="0.0, 0.0, 796.5475166202121, 619.5615715201208" version="1.1" height="619.5615715201208" width="796.5475166202121">
<path fill="none" stroke="#ff9399" stroke-opacity="0.5" stroke-width="13.0" stroke-linecap="round" stroke-linejoin="round" d="M605.54 602.42C605.39 602.36 603.77 602.04 604.50 602.07C608.06 602.22 622.62 603.17 629.30 603.40C635.99 603.63 642.72 603.79 649.06 603.60C655.40 603.41 659.78 602.61 671.56 602.16C683.35 601.71 718.42 600.86 727.63 600.60C731.19 600.50 729.41 600.43 732.97 600.41C740.86 600.36 772.75 600.39 780.26 600.32C782.09 600.30 782.50 600.11 782.98 599.91C783.47 599.71 783.43 599.17 783.49 598.97C783.55 598.77 783.61 598.74 783.40 598.60C783.08 598.38 782.33 597.78 781.35 597.53C780.37 597.27 779.87 597.08 776.85 596.89C770.61 596.49 749.49 595.01 739.76 594.85C730.04 594.70 716.89 595.66 711.99 595.84C708.75 595.96 710.37 595.99 707.13 596.08C695.65 596.39 648.76 597.66 635.45 597.89C624.04 598.08 621.17 597.63 618.34 597.58C617.12 597.56 617.72 597.43 616.52 597.56C614.59 597.76 608.03 598.42 605.49 598.94C602.96 599.46 600.78 600.49 599.61 601.02C598.43 601.55 597.74 602.02 597.66 602.45C597.59 602.89 598.28 603.50 599.12 603.92C599.95 604.34 601.13 604.89 603.23 605.26C605.32 605.63 610.52 606.21 613.08 606.39C615.64 606.56 615.48 606.65 620.28 606.43C630.50 605.95 667.59 603.81 681.22 603.19C694.85 602.57 703.89 602.37 711.12 602.30C718.35 602.22 722.98 602.26 729.40 602.67C735.82 603.08 748.17 604.58 753.91 605.01C759.65 605.43 765.04 605.41 767.68 605.49C770.23 605.56 769.98 605.49 771.51 605.50C773.03 605.51 776.91 605.54 777.86 605.54"/>
</svg>