<?xml version="1.0" encoding="UTF-8"?>
<!DOCTYPE svg PUBLIC "-//W3C//DTD SVG 1.1//EN" "http://www.w3.org/Graphics/SVG/1.1/DTD/svg11.dtd">
<svg  xmlns="http://www.w3.org/2000/svg" xmlns:xlink="http://www.w3.org/1999/xlink" viewport-fill="none" viewBox="0.0, 0.0, 659.3715531433575, 504.764276848927" version="1.1" height="504.764276848927" width="659.3715531433575">
<path fill="none" stroke="#ffd873" stroke-opacity="0.5" stroke-width="13.0" stroke-linecap="round" stroke-linejoin="round" d="M382.50 304.68C382.29 304.63 381.31 305.27 381.11 304.34C379.52 296.72 373.53 264.56 371.88 253.94C370.24 243.33 370.32 238.87 370.14 233.57C369.95 228.27 370.29 223.09 370.65 218.61C371.00 214.13 371.59 207.03 372.50 203.70C373.42 200.38 375.56 199.05 376.78 196.44C378.00 193.83 378.84 190.33 380.63 186.30C382.42 182.27 386.28 173.94 388.71 169.59C391.14 165.24 394.93 159.85 396.82 157.29C398.71 154.73 399.90 153.78 401.31 152.51C402.73 151.24 403.79 150.16 406.25 148.83C408.72 147.50 413.84 145.08 417.75 143.64C421.65 142.19 427.49 140.48 432.28 139.19C437.07 137.90 445.65 135.93 449.67 135.03C453.69 134.13 452.82 134.52 459.07 133.21C468.05 131.31 498.65 124.57 509.53 122.40C520.40 120.22 524.96 119.50 531.57 118.71C538.18 117.91 547.06 117.24 553.58 117.10C560.10 116.96 568.79 117.18 575.05 117.78C581.31 118.37 590.88 120.14 595.31 121.10C599.74 122.06 601.91 123.10 604.60 124.16C607.29 125.23 610.79 126.86 613.24 128.20C615.69 129.55 618.79 131.57 620.94 133.12C623.09 134.68 625.75 136.94 627.55 138.57C629.35 140.20 631.53 142.35 632.97 143.99C634.40 145.62 636.02 147.86 637.10 149.46C638.19 151.06 639.14 152.38 640.18 154.65C641.22 156.93 643.12 160.62 644.04 164.61C644.96 168.60 646.05 177.00 646.31 181.27C646.56 185.54 646.00 190.39 645.74 193.06C645.47 195.73 645.35 196.21 644.56 199.07C643.77 201.94 642.27 207.24 640.49 212.17C638.70 217.11 634.85 227.21 632.65 231.95C630.46 236.69 628.38 240.21 625.87 243.77C623.37 247.33 619.41 252.22 615.96 255.67C612.51 259.12 605.99 264.27 602.88 266.76C599.77 269.24 599.13 269.78 595.25 272.25C591.37 274.73 581.31 280.90 577.02 283.25C572.73 285.61 573.72 285.18 566.67 287.95C556.77 291.82 521.14 305.48 511.05 309.10C503.50 311.81 504.57 311.09 499.38 312.06C494.19 313.03 481.50 314.62 476.45 315.55C471.39 316.48 471.74 316.22 465.70 318.26C459.66 320.29 442.02 327.25 436.18 329.11C430.34 330.98 429.54 330.45 426.77 330.69C423.99 330.94 420.36 330.87 417.67 330.74C414.99 330.61 411.43 330.23 408.88 329.83C406.32 329.42 403.06 328.64 400.65 328.04C398.23 327.44 396.18 326.88 392.78 325.82C389.38 324.77 380.21 321.73 377.99 321.01"/><path fill="none" stroke="#ffd873" stroke-opacity="0.5" stroke-width="13.0" stroke-linecap="round" stroke-linejoin="round" d="M115.69 448.16C115.37 441.26 113.79 411.57 113.54 402.12C113.30 392.68 113.65 391.03 114.06 385.22C114.48 379.41 115.74 367.24 116.34 363.38C116.77 360.60 117.28 362.23 118.03 359.51C118.77 356.78 120.48 348.32 121.29 345.23C122.11 342.14 122.21 341.46 123.48 338.92C124.75 336.38 128.13 330.63 129.74 328.29C131.35 325.96 131.80 325.53 134.21 323.34C136.61 321.14 142.98 315.77 145.78 313.67C148.57 311.57 149.40 311.13 152.84 309.33C156.29 307.53 163.49 303.88 168.72 301.68C173.96 299.48 183.33 296.10 187.75 294.67C192.17 293.25 195.00 292.71 198.20 292.18C201.40 291.65 204.29 291.13 209.06 291.13C213.82 291.13 223.71 291.69 229.95 292.19C236.19 292.68 242.34 293.32 250.65 294.45C258.96 295.59 275.35 298.49 285.36 299.76C295.37 301.03 311.21 302.20 317.39 302.92C323.52 303.63 322.60 303.44 326.51 304.52C330.43 305.61 338.62 308.27 343.47 310.15C348.33 312.04 354.64 314.82 358.88 317.09C363.12 319.36 369.02 323.29 371.72 325.27C374.43 327.25 375.51 328.70 376.93 330.28C378.35 331.85 380.06 334.08 381.19 335.76C382.33 337.44 383.65 339.73 384.51 341.48C385.37 343.23 386.24 344.75 386.91 347.43C387.59 350.10 388.74 356.58 389.01 359.30C389.29 362.03 389.25 362.54 388.72 365.58C388.19 368.63 386.98 375.27 385.48 379.60C383.98 383.92 381.24 390.20 378.71 394.42C376.19 398.64 372.18 403.74 368.65 407.71C365.11 411.68 358.39 417.90 355.15 420.89C351.90 423.88 350.95 424.78 347.02 427.64C343.09 430.49 335.93 435.77 328.94 439.94C321.95 444.11 306.17 452.57 300.42 455.43C294.66 458.29 293.53 458.15 290.57 459.02C287.62 459.88 285.14 460.50 280.72 461.21C276.31 461.92 265.38 463.00 261.14 463.73C256.90 464.45 257.11 464.40 252.46 466.03C247.81 467.66 235.68 472.86 230.15 474.58C224.62 476.31 222.73 475.66 215.60 477.53C208.46 479.40 190.36 485.09 182.60 487.05C174.84 489.01 168.04 489.89 163.86 490.59C159.68 491.29 157.43 491.64 154.75 491.74C152.06 491.83 148.55 491.68 145.95 491.23C143.36 490.77 139.94 489.71 137.48 488.69C135.01 487.68 131.83 485.87 129.49 484.46C127.16 483.04 124.87 481.41 121.91 479.26C118.94 477.12 112.10 472.28 109.71 470.17C107.32 468.06 106.78 466.82 105.96 465.19C105.14 463.55 104.48 460.17 104.22 459.28"/><path fill="none" stroke="#c69eff" stroke-opacity="0.5" stroke-width="13.0" stroke-linecap="round" stroke-linejoin="round" d="M244.93 218.52C244.82 218.52 243.77 218.55 244.23 218.52C249.14 218.27 267.24 216.89 277.61 216.85C287.98 216.81 304.90 218.06 313.38 218.24C321.86 218.42 328.79 218.26 334.15 218.06C339.50 217.86 346.45 217.08 349.07 216.89C350.75 216.77 350.30 216.70 351.59 216.81C352.89 216.91 356.49 217.18 357.71 217.58C358.93 217.99 359.19 218.75 359.73 219.50C360.27 220.25 360.92 221.19 361.30 222.58C361.68 223.97 362.05 225.38 362.25 228.77C362.45 232.16 362.68 241.66 362.65 245.16C362.62 248.66 362.32 250.30 362.02 252.08C361.73 253.87 361.00 256.05 360.68 257.05C360.36 258.05 360.68 257.77 359.91 258.74C359.12 259.73 356.71 262.68 355.43 263.62C354.14 264.56 353.21 264.62 351.34 265.00C349.47 265.39 347.09 265.82 342.94 266.18C338.79 266.55 333.02 267.26 323.67 267.43C314.32 267.60 287.83 267.33 280.61 267.31C277.21 267.30 278.65 267.31 275.51 267.31C272.38 267.31 263.09 267.49 259.72 267.31C256.34 267.13 254.73 266.67 253.03 266.13C251.33 265.59 249.39 264.47 248.41 263.72C247.43 262.97 247.07 262.28 246.51 261.15C245.96 260.03 245.33 258.08 244.72 256.21C244.10 254.33 243.01 251.17 242.41 248.66C241.81 246.16 241.00 241.56 240.72 239.51C240.45 237.47 240.47 237.56 240.60 235.03C240.74 232.51 238.89 224.55 241.62 222.70C244.36 220.85 256.24 222.69 258.82 222.69"/><path fill="none" stroke="#c69eff" stroke-opacity="0.5" stroke-width="13.0" stroke-linecap="round" stroke-linejoin="round" d="M250.14 227.90C265.11 227.54 338.11 225.71 349.92 225.45C361.73 225.18 333.58 225.94 328.88 226.13C324.18 226.32 325.37 226.03 318.56 226.70C311.76 227.37 292.32 229.31 283.53 230.59C274.74 231.88 264.67 234.26 259.96 235.29C255.25 236.33 253.58 236.96 252.16 237.48C250.85 237.96 249.45 238.30 250.49 238.74C251.53 239.17 255.52 240.03 259.08 240.39C262.64 240.76 268.95 241.15 274.23 241.18C279.50 241.21 288.35 240.95 294.24 240.61C300.13 240.27 309.41 239.31 313.52 238.93C317.62 238.55 316.75 238.57 321.62 238.05C326.48 237.54 341.47 236.11 345.95 235.51C349.76 234.99 352.16 234.40 351.53 234.04C350.91 233.67 345.78 233.25 341.79 233.07C337.80 232.88 331.00 232.67 324.95 232.81C318.89 232.96 306.68 233.65 301.44 234.04C296.20 234.43 293.21 234.94 290.03 235.41C286.84 235.88 283.87 236.24 280.23 237.14C276.59 238.04 269.44 240.05 265.74 241.42C262.04 242.78 257.64 245.20 255.58 246.24C253.52 247.27 253.00 247.59 252.00 248.32C251.01 249.06 249.39 250.60 248.97 251.13C248.65 251.53 248.77 251.58 249.20 251.86C249.69 252.18 250.23 252.80 252.22 253.28C254.21 253.75 256.15 254.78 262.48 255.02C268.82 255.25 288.49 254.89 294.45 254.84C299.61 254.80 297.03 254.86 302.19 254.68C309.69 254.42 337.19 253.42 344.44 253.11C348.49 252.94 348.98 252.88 350.51 252.63C352.03 252.38 353.93 251.93 354.60 251.44C355.26 250.95 355.07 249.97 354.94 249.40C354.80 248.83 354.70 248.23 353.69 247.64C352.69 247.05 349.86 245.95 348.23 245.45C346.59 244.95 344.73 244.64 342.76 244.33C340.79 244.01 339.31 243.63 335.09 243.36C330.86 243.10 320.87 242.50 314.60 242.56C308.34 242.62 299.60 243.02 293.35 243.74C287.09 244.46 276.84 246.47 272.90 247.35C268.96 248.23 268.21 248.96 267.05 249.60C265.90 250.23 265.48 250.98 265.18 251.58C264.89 252.18 264.74 252.96 265.07 253.60C265.41 254.25 265.71 255.22 267.43 255.86C269.14 256.49 274.00 257.45 276.49 257.82C278.98 258.19 281.56 258.25 284.05 258.32C286.55 258.39 288.87 258.50 293.11 258.28C297.34 258.07 303.27 257.97 312.29 256.87C321.31 255.77 346.92 251.93 353.25 250.95C354.15 250.81 354.13 250.77 354.47 250.33C354.81 249.89 355.28 249.70 355.53 248.03C355.82 245.97 356.31 238.31 356.45 236.59"/>
</svg>