<?xml version="1.0" encoding="UTF-8"?>
<!DOCTYPE svg PUBLIC "-//W3C//DTD SVG 1.1//EN" "http://www.w3.org/Graphics/SVG/1.1/DTD/svg11.dtd">
<svg  xmlns="http://www.w3.org/2000/svg" xmlns:xlink="http://www.w3.org/1999/xlink" viewport-fill="none" viewBox="0.0, 0.0, 840.9819832696404, 924.7327270507812" version="1.1" height="924.7327270507812" width="840.9819832696404">
<path fill="none" stroke="#ffd873" stroke-opacity="0.5" stroke-width="13.0" stroke-linecap="round" stroke-linejoin="round" d="M458.93 334.21C463.64 334.51 479.99 335.82 490.29 336.19C500.58 336.56 517.46 336.73 527.55 336.69C537.63 336.65 552.54 336.06 557.54 335.95C559.80 335.90 558.68 336.09 560.93 335.96C563.28 335.83 572.24 335.60 573.21 335.06C574.17 334.53 569.29 332.98 567.38 332.39C565.46 331.80 565.12 331.49 560.42 331.15C555.70 330.80 540.59 330.26 535.94 330.09C531.58 329.92 533.76 330.05 529.40 329.98C521.99 329.88 496.02 329.21 486.52 329.36C477.02 329.51 469.41 330.66 466.08 330.97C464.86 331.09 465.16 331.09 464.30 331.42C463.43 331.75 460.92 332.91 460.32 333.17"/><path fill="none" stroke="#ffd873" stroke-opacity="0.5" stroke-width="13.0" stroke-linecap="round" stroke-linejoin="round" d="M122.98 347.07C122.56 347.32 119.42 348.26 120.12 348.72C120.83 349.19 125.49 349.90 127.70 350.17C129.92 350.43 130.10 350.59 134.90 350.48C143.58 350.28 175.61 348.88 185.51 348.83C195.41 348.78 195.50 349.53 200.90 350.16C206.30 350.78 217.76 352.52 221.52 353.00C224.45 353.38 222.98 353.33 225.94 353.38C229.59 353.43 235.41 353.97 245.89 353.37C256.36 352.77 283.08 349.98 295.78 349.36C308.47 348.73 324.47 349.21 330.54 349.19C334.31 349.18 332.42 349.19 336.20 349.26C341.59 349.37 355.53 349.39 366.50 349.89C377.48 350.39 396.43 352.17 409.35 352.58C422.27 352.99 445.09 352.60 452.64 352.60C457.33 352.60 454.99 352.47 459.68 352.59C469.70 352.84 503.36 353.96 519.41 354.29C535.45 354.62 559.19 354.80 566.66 354.80C568.40 354.80 568.85 354.43 569.21 354.28C569.51 354.17 569.23 354.10 569.06 353.84C568.73 353.32 567.89 351.67 567.03 350.87C566.16 350.07 565.09 349.17 563.28 348.52C561.47 347.87 557.11 346.92 554.96 346.53C552.82 346.15 552.06 346.06 549.01 345.95C545.95 345.84 541.69 345.58 534.59 345.78C527.49 345.99 512.13 347.07 501.69 347.31C491.24 347.55 471.94 347.39 464.94 347.38C458.30 347.38 461.62 347.36 454.98 347.26C444.30 347.11 413.49 346.35 393.69 346.38C373.90 346.41 341.07 347.39 323.05 347.45C305.03 347.51 282.19 346.90 273.56 346.76C268.21 346.67 270.89 346.54 265.54 346.51C249.23 346.44 181.72 346.40 164.79 346.27C156.68 346.20 157.47 346.13 152.65 345.64C147.82 345.15 136.03 343.44 132.63 343.00C130.86 342.78 131.66 342.81 129.96 342.76C128.27 342.70 122.96 342.45 121.31 342.64C119.65 342.83 119.31 343.48 118.94 344.04C118.56 344.60 118.83 346.02 118.82 346.37"/><path fill="none" stroke="#ffd873" stroke-opacity="0.5" stroke-width="13.0" stroke-linecap="round" stroke-linejoin="round" d="M111.87 362.70C112.86 363.06 115.96 364.47 118.49 365.08C121.02 365.70 123.50 366.43 128.74 366.79C133.98 367.16 149.90 367.47 153.42 367.50C154.28 367.51 152.69 367.16 152.24 367.02C151.79 366.87 151.66 366.70 150.43 366.54C148.55 366.30 143.53 365.53 139.72 365.42C135.91 365.31 128.58 365.54 125.02 365.81C121.46 366.09 118.42 366.69 115.98 367.25C113.55 367.81 109.58 369.05 108.78 369.57C107.99 370.08 109.60 370.38 110.70 370.71C111.80 371.04 113.71 371.56 116.14 371.76C118.56 371.96 124.24 372.04 126.86 372.02C129.47 372.00 129.94 372.06 133.57 371.62C137.20 371.18 147.63 369.74 151.05 369.07C154.48 368.41 155.37 367.73 156.40 367.19C157.44 366.64 157.89 366.10 157.93 365.43C157.96 364.76 157.46 363.42 156.66 362.74C155.85 362.05 155.51 361.48 152.58 360.86C148.90 360.08 135.79 358.12 132.13 357.56C129.51 357.17 130.72 357.51 128.17 357.16C125.62 356.80 110.63 355.56 115.11 355.17C119.59 354.79 147.07 354.91 158.04 354.60C169.00 354.30 182.01 353.43 188.19 353.16C194.37 352.88 191.86 352.85 199.22 352.77C211.33 352.65 238.61 353.04 268.92 352.31C299.23 351.58 373.09 348.65 401.31 347.92C429.53 347.18 446.81 347.49 457.03 347.41C465.34 347.34 461.19 347.35 469.49 347.39C479.94 347.44 516.22 347.55 526.70 347.73C535.16 347.87 533.84 347.99 539.36 348.57C544.88 349.15 559.88 351.13 563.51 351.58"/><path fill="none" stroke="#ffd873" stroke-opacity="0.5" stroke-width="13.0" stroke-linecap="round" stroke-linejoin="round" d="M462.41 331.78C462.25 331.73 460.63 331.45 461.37 331.43C465.61 331.31 484.18 330.97 490.68 330.97C497.17 330.96 495.36 330.73 504.65 331.42C514.74 332.17 548.16 335.35 557.95 335.98C565.92 336.48 567.31 335.75 569.92 335.58C572.54 335.41 574.21 335.10 575.38 334.84C576.55 334.57 577.40 334.01 577.71 333.81C577.95 333.65 577.70 333.59 577.44 333.47C576.64 333.07 573.85 331.63 572.36 331.17C570.88 330.72 570.69 330.63 567.54 330.42C564.40 330.22 562.17 329.69 551.40 329.82C540.02 329.96 502.67 331.00 491.67 331.38C482.59 331.69 481.14 331.98 478.07 332.34C475.01 332.70 472.44 333.49 471.23 333.76C470.41 333.95 470.37 334.02 470.03 334.18C469.69 334.34 468.86 334.61 468.97 334.83C469.07 335.05 469.45 335.43 470.72 335.66C472.43 335.96 473.91 336.35 480.36 336.82C488.88 337.43 515.27 338.86 527.49 339.74C539.70 340.63 555.51 342.25 561.79 342.71C566.79 343.08 568.12 342.92 569.31 342.85C569.83 342.81 569.69 342.30 569.76 342.20"/><path fill="none" stroke="#ffd873" stroke-opacity="0.5" stroke-width="13.0" stroke-linecap="round" stroke-linejoin="round" d="M114.65 349.50C114.44 349.55 112.30 349.89 113.26 349.85C118.77 349.57 131.16 347.89 151.39 347.63C171.62 347.37 224.62 347.88 248.12 348.11C271.62 348.35 289.95 349.18 308.05 349.18C326.15 349.19 357.77 348.35 368.78 348.14C377.20 347.97 373.74 347.94 381.41 347.73C389.07 347.53 408.33 346.90 419.87 346.78C431.40 346.66 449.14 346.74 458.31 346.92C467.49 347.11 473.52 347.49 481.03 348.00C488.54 348.51 500.40 349.38 508.38 350.32C516.37 351.26 525.80 352.12 534.29 354.26C542.78 356.40 560.27 363.07 564.98 364.58C565.43 364.72 566.02 364.57 565.64 364.34C565.26 364.11 562.94 363.24 562.46 363.05"/><path fill="none" stroke="#ffd873" stroke-opacity="0.5" stroke-width="13.0" stroke-linecap="round" stroke-linejoin="round" d="M129.24 361.31C128.46 362.41 122.45 367.37 124.03 368.61C125.61 369.84 136.17 369.53 139.77 369.54C143.38 369.56 145.00 369.30 148.04 368.71C151.08 368.12 157.92 366.26 160.04 365.59C161.62 365.09 161.78 364.66 162.15 364.27C162.53 363.89 163.10 363.49 162.54 363.01C161.97 362.54 159.85 361.42 158.38 361.08C156.91 360.75 156.49 360.51 152.74 360.79C148.97 361.07 139.40 361.92 133.26 362.97C127.13 364.01 116.76 366.51 111.84 367.73C106.92 368.95 102.43 370.46 100.47 371.09C99.25 371.48 98.97 371.70 98.74 371.94C98.51 372.19 98.59 372.52 98.94 372.72C99.29 372.92 99.61 373.29 101.08 373.26C103.20 373.21 109.95 372.80 113.06 372.42C116.18 372.04 116.15 372.07 121.86 370.72C127.57 369.36 146.74 364.49 151.13 363.40"/><path fill="none" stroke="#d1000d" stroke-width="1.5" stroke-linecap="round" stroke-linejoin="round" d="M322.75 427.32C322.00 426.71 316.44 423.79 317.79 423.26C319.14 422.74 322.44 423.83 331.75 423.81C342.30 423.79 379.42 423.23 388.16 423.13C389.39 423.12 389.45 423.11 390.01 423.16C390.57 423.22 391.60 423.45 391.88 423.50"/><path fill="none" stroke="#d1000d" stroke-width="1.5" stroke-linecap="round" stroke-linejoin="round" d="M429.40 425.93C435.25 425.63 454.28 424.24 468.41 423.93C482.53 423.62 515.28 423.86 523.55 423.85"/><path fill="none" stroke="#98c2ff" stroke-opacity="0.5" stroke-width="13.0" stroke-linecap="round" stroke-linejoin="round" d="M318.58 418.98C323.22 418.62 338.62 417.10 349.49 416.54C360.35 415.97 385.52 415.74 391.02 415.22C394.53 414.89 389.17 413.75 386.15 413.11C383.13 412.47 374.41 411.37 370.87 410.96C367.33 410.55 366.46 410.52 362.56 410.36C358.66 410.21 350.58 409.88 344.86 409.95C339.15 410.01 328.99 410.43 324.48 410.78C319.98 411.13 316.79 411.80 314.82 412.26C312.86 412.73 311.66 413.44 311.38 413.88C311.10 414.31 312.25 414.87 312.98 415.18C313.70 415.49 314.00 415.81 316.21 415.95C320.44 416.23 335.67 416.91 341.19 417.05C346.71 417.19 345.14 417.15 353.01 416.86C360.87 416.57 386.06 415.64 393.63 415.12C400.26 414.67 401.73 413.81 403.44 413.41C404.65 413.13 404.81 412.74 405.06 412.48C405.31 412.22 405.08 411.81 405.09 411.69"/><path fill="none" stroke="#98c2ff" stroke-opacity="0.5" stroke-width="13.0" stroke-linecap="round" stroke-linejoin="round" d="M434.62 416.20C434.41 416.20 432.30 416.12 433.23 416.20C438.49 416.68 462.33 418.87 469.73 419.41C477.12 419.95 478.65 419.73 482.50 419.82C486.35 419.92 488.23 420.17 495.37 420.05C502.51 419.92 524.98 419.32 530.07 418.98C531.03 418.91 529.97 418.13 529.33 417.74C528.70 417.35 527.01 416.74 525.86 416.39C524.72 416.05 524.52 415.82 521.69 415.42C517.96 414.90 506.69 413.28 501.00 412.89C495.31 412.50 492.98 412.04 483.77 412.81C474.56 413.57 444.05 417.28 439.61 417.99C435.16 418.70 450.27 417.65 454.14 417.55C458.01 417.45 457.89 417.40 465.41 417.31C478.81 417.16 531.91 416.66 543.50 416.55C544.05 416.54 542.79 416.55 542.66 416.55"/><path fill="none" stroke="#004dc0" stroke-width="1.5" stroke-linecap="round" stroke-linejoin="round" d="M244.93 121.60C245.42 120.17 247.05 114.71 248.19 112.10C249.34 109.48 250.33 107.11 252.56 104.17C254.80 101.22 258.74 96.45 263.09 92.45C267.43 88.46 275.06 81.97 281.53 77.53C288.00 73.08 302.12 65.24 306.21 62.84C307.87 61.86 307.96 61.93 308.77 61.52C309.59 61.11 311.20 60.31 311.63 60.10"/><path fill="none" stroke="#004dc0" stroke-width="1.5" stroke-linecap="round" stroke-linejoin="round" d="M307.46 58.71C306.96 58.50 303.74 57.33 304.15 57.27C304.56 57.22 308.37 58.27 310.17 58.37C311.98 58.47 315.98 57.34 316.18 57.96C316.38 58.57 312.38 61.57 311.51 62.46C310.67 63.32 310.78 63.08 310.39 63.88C309.99 64.67 309.08 67.17 308.85 67.75"/><path fill="none" stroke="#004dc0" stroke-width="1.5" stroke-linecap="round" stroke-linejoin="round" d="M327.26 51.07C327.57 51.86 329.45 57.56 329.31 56.36C329.16 55.17 326.78 45.84 326.30 43.11C325.83 40.38 326.02 39.00 326.12 38.18C326.20 37.53 326.50 37.47 326.96 37.66C327.41 37.85 328.77 38.57 329.19 39.45C329.60 40.33 329.77 42.55 329.74 43.52C329.72 44.48 329.63 44.72 329.00 45.86C328.37 46.99 326.05 50.29 325.53 51.07"/><path fill="none" stroke="#004dc0" stroke-width="1.5" stroke-linecap="round" stroke-linejoin="round" d="M334.56 48.99C334.82 48.46 336.44 46.02 336.30 45.51C336.16 45.01 334.17 45.28 333.63 45.61C333.10 45.94 332.87 47.07 332.74 47.70C332.61 48.33 332.70 49.22 332.77 49.81C332.84 50.41 332.89 51.31 333.23 51.68C333.57 52.05 334.47 52.25 335.04 52.27C335.61 52.29 336.05 52.56 337.02 51.80C337.99 51.05 340.73 48.24 341.51 47.25C342.29 46.25 342.10 45.48 342.20 45.16"/><path fill="none" stroke="#004dc0" stroke-width="1.5" stroke-linecap="round" stroke-linejoin="round" d="M341.51 45.51C342.08 46.87 345.17 54.56 345.33 54.54C345.49 54.53 343.01 47.60 342.55 45.42C342.10 43.24 342.09 40.97 342.28 39.99C342.47 39.02 343.38 38.72 343.83 38.91C344.29 39.10 345.10 40.37 345.30 41.26C345.50 42.15 345.39 44.07 345.16 44.86C344.94 45.64 344.41 46.10 343.81 46.51C343.21 46.92 341.56 47.43 341.16 47.60"/><path fill="none" stroke="#004dc0" stroke-width="1.5" stroke-linecap="round" stroke-linejoin="round" d="M348.80 29.53C349.39 31.42 351.81 40.90 352.69 42.15C353.58 43.40 354.41 38.51 354.71 37.87"/><path fill="none" stroke="#004dc0" stroke-width="1.5" stroke-linecap="round" stroke-linejoin="round" d="M348.46 35.09C348.40 35.04 347.81 34.87 348.11 34.74C349.10 34.32 354.02 32.67 355.06 32.31"/><path fill="none" stroke="#004dc0" stroke-width="1.5" stroke-linecap="round" stroke-linejoin="round" d="M357.84 30.23C358.36 31.11 360.79 35.25 361.31 36.13"/><path fill="none" stroke="#004dc0" stroke-width="1.5" stroke-linecap="round" stroke-linejoin="round" d="M356.10 27.79C356.15 27.53 356.40 26.32 356.45 26.06"/><path fill="none" stroke="#004dc0" stroke-width="1.5" stroke-linecap="round" stroke-linejoin="round" d="M367.91 19.11C367.76 19.16 366.65 18.76 366.87 19.46C367.42 21.22 371.25 29.68 371.55 30.90C371.84 32.12 369.61 28.25 368.83 27.57C368.05 26.90 366.90 26.56 366.35 26.43C365.80 26.31 365.46 26.15 365.16 26.74C364.87 27.34 364.38 29.35 364.39 30.41C364.40 31.47 364.94 33.12 365.20 33.80C365.46 34.48 365.82 34.67 366.13 34.92C366.43 35.17 366.60 35.60 367.23 35.46C367.86 35.33 369.88 34.26 370.34 34.05"/><path fill="none" stroke="#004dc0" stroke-width="1.5" stroke-linecap="round" stroke-linejoin="round" d="M376.60 28.14C377.27 27.25 381.10 23.23 381.11 22.23C381.13 21.24 377.60 21.42 376.70 21.51C375.80 21.61 375.45 22.19 375.12 22.85C374.78 23.52 374.32 25.34 374.46 25.92C374.59 26.49 375.48 26.62 376.01 26.69C376.55 26.77 377.12 26.73 378.04 26.43C378.96 26.12 381.54 24.93 382.16 24.67"/><path fill="none" stroke="#004dc0" stroke-width="1.5" stroke-linecap="round" stroke-linejoin="round" d="M353.32 62.88C353.72 63.52 355.35 66.67 355.99 67.17C356.64 67.67 357.13 67.08 357.63 66.20C358.12 65.32 359.11 62.57 359.32 61.31C359.53 60.05 359.19 57.79 359.03 57.80C358.87 57.82 358.16 60.38 358.23 61.43C358.30 62.48 358.84 64.13 359.48 64.78C360.11 65.44 361.63 65.88 362.48 65.81C363.33 65.73 364.73 64.50 365.13 64.27"/><path fill="none" stroke="#004dc0" stroke-width="1.5" stroke-linecap="round" stroke-linejoin="round" d="M366.52 58.37C366.63 58.83 366.83 62.05 367.22 61.49C367.60 60.94 368.63 55.77 369.07 54.66C369.38 53.90 369.77 53.91 370.19 54.12C370.61 54.34 371.54 55.45 371.88 56.08C372.22 56.71 372.27 57.88 372.46 58.32C372.65 58.77 372.89 59.05 373.15 59.06C373.40 59.07 374.01 58.47 374.17 58.37"/><path fill="none" stroke="#004dc0" stroke-width="1.5" stroke-linecap="round" stroke-linejoin="round" d="M376.94 48.99C377.47 49.92 379.90 54.30 380.42 55.24"/><path fill="none" stroke="#004dc0" stroke-width="1.5" stroke-linecap="round" stroke-linejoin="round" d="M373.82 45.51C373.92 45.35 374.41 44.63 374.51 44.47"/><path fill="none" stroke="#004dc0" stroke-width="1.5" stroke-linecap="round" stroke-linejoin="round" d="M384.24 38.56C385.02 40.33 388.67 48.60 389.45 50.38"/><path fill="none" stroke="#004dc0" stroke-width="1.5" stroke-linecap="round" stroke-linejoin="round" d="M385.28 45.86C386.17 45.13 390.30 41.72 391.19 40.99"/><path fill="none" stroke="#004dc0" stroke-width="1.5" stroke-linecap="round" stroke-linejoin="round" d="M399.87 35.09C399.14 35.14 395.14 34.85 395.01 35.44C394.88 36.02 397.65 38.08 399.03 38.97C400.42 39.85 403.45 40.84 404.25 41.34C404.79 41.69 404.88 41.98 404.32 42.31C403.09 43.04 397.29 45.62 396.05 46.21"/><path fill="none" stroke="#ffd873" stroke-opacity="0.5" stroke-width="13.0" stroke-linecap="round" stroke-linejoin="round" d="M725.05 147.65C729.31 147.31 743.90 145.91 753.42 145.40C762.93 144.90 779.89 144.41 788.50 144.30C797.11 144.19 805.67 144.40 810.83 144.65C815.99 144.90 821.09 145.74 822.88 145.95C822.98 145.96 822.84 145.99 822.75 146.04C822.30 146.28 821.05 147.21 819.87 147.56C818.68 147.91 818.24 148.29 814.86 148.36C808.82 148.48 787.23 148.19 779.60 148.35C771.96 148.50 766.31 149.23 763.96 149.39"/><path fill="none" stroke="#ffd873" stroke-opacity="0.5" stroke-width="13.0" stroke-linecap="round" stroke-linejoin="round" d="M586.78 163.98C597.03 163.39 627.58 160.96 655.07 160.04C682.56 159.11 751.87 158.11 770.06 157.80C774.22 157.73 772.14 157.82 776.30 157.98C781.69 158.18 798.21 158.56 805.95 159.14C813.69 159.73 824.65 161.43 827.89 161.90C828.21 161.94 827.59 162.19 827.54 162.24"/><path fill="none" stroke="#ffd873" stroke-opacity="0.5" stroke-width="13.0" stroke-linecap="round" stroke-linejoin="round" d="M584.00 178.57C600.30 178.52 675.58 178.30 692.67 178.25C696.20 178.24 694.44 178.34 697.97 178.23C705.97 177.98 732.17 176.85 746.01 176.59C759.85 176.33 783.04 176.53 790.23 176.51C792.68 176.51 791.45 176.45 793.91 176.49C797.06 176.53 809.03 176.78 811.26 176.83C812.92 176.87 809.15 176.83 808.78 176.83"/><path fill="none" stroke="#ffd873" stroke-opacity="0.5" stroke-width="13.0" stroke-linecap="round" stroke-linejoin="round" d="M590.60 192.12C590.34 192.12 589.02 192.03 588.87 192.12C588.71 192.21 588.96 192.64 589.57 192.73C590.31 192.84 590.99 192.92 593.81 192.85C597.45 192.75 603.46 192.71 613.79 192.08C624.12 191.45 654.95 189.18 662.68 188.65C664.44 188.53 663.56 188.57 665.33 188.58C671.02 188.64 693.81 188.78 700.62 189.00C707.38 189.21 709.18 189.88 710.71 190.04C710.78 190.04 710.79 190.04 710.81 190.04C710.81 190.04 710.81 190.04 710.81 190.04"/><path fill="none" stroke="#ffd873" stroke-opacity="0.5" stroke-width="13.0" stroke-linecap="round" stroke-linejoin="round" d="M491.59 438.09C495.12 437.56 508.48 435.38 515.11 434.54C521.74 433.69 531.41 432.87 535.79 432.46C540.17 432.04 539.86 431.87 544.34 431.78C548.81 431.68 565.32 431.97 565.62 431.82C565.92 431.67 550.49 430.94 546.33 430.80C542.17 430.65 543.51 430.50 537.89 430.85C530.38 431.33 503.46 433.53 496.22 433.97C491.82 434.23 488.53 433.65 489.61 433.78C490.70 433.91 496.65 434.62 503.47 434.82C510.28 435.03 528.80 435.06 535.06 435.14C541.32 435.22 540.81 435.27 545.21 435.34C549.62 435.40 560.83 435.64 564.42 435.57C567.59 435.51 569.82 435.50 569.12 434.87C568.42 434.25 562.79 432.22 559.74 431.42C556.68 430.62 553.56 430.08 548.74 429.55C543.93 429.03 533.62 428.16 527.63 427.92C521.64 427.69 512.41 427.91 508.79 427.99C505.25 428.07 507.00 427.88 503.50 428.44C499.34 429.11 484.70 431.74 481.03 432.45C479.62 432.72 479.34 432.98 479.01 433.19C478.69 433.40 478.66 433.45 478.86 433.85C479.10 434.33 479.90 435.77 480.60 436.36C481.29 436.95 482.26 437.42 483.50 437.78C484.75 438.15 486.85 438.62 488.89 438.81C490.93 438.99 492.50 439.24 497.12 439.03C501.73 438.82 514.48 437.83 519.67 437.39C524.85 436.95 526.59 436.47 531.70 436.10C536.82 435.74 550.47 435.13 553.78 434.96"/><path fill="none" stroke="#ffd873" stroke-opacity="0.5" stroke-width="13.0" stroke-linecap="round" stroke-linejoin="round" d="M109.44 451.99C114.91 452.14 134.17 453.14 145.91 453.03C157.65 452.91 172.23 451.51 187.70 451.21C203.16 450.91 232.01 451.53 248.99 451.02C265.98 450.50 292.03 448.36 300.95 447.77C305.97 447.44 303.45 447.51 308.47 447.08C315.23 446.50 336.93 444.53 346.01 443.91C355.08 443.28 360.35 443.05 368.95 442.92C377.55 442.79 393.44 442.75 403.34 443.03C413.25 443.30 429.56 444.43 434.97 444.76C437.95 444.94 436.45 445.04 439.43 445.18C445.30 445.47 462.64 446.55 474.10 446.69C485.55 446.84 508.83 446.24 515.77 446.15C518.85 446.12 517.32 445.95 520.38 446.13C527.69 446.54 557.21 448.38 564.48 448.90C567.41 449.11 567.67 449.27 568.83 449.60C569.99 449.92 572.47 450.90 572.24 451.04C572.00 451.18 568.81 450.66 567.25 450.54C565.68 450.41 565.44 450.28 561.81 450.21C556.86 450.12 547.30 449.56 534.26 449.93C521.22 450.29 489.84 452.13 474.89 452.66C459.94 453.20 446.22 453.43 434.57 453.48C422.92 453.54 409.74 453.44 397.22 453.01C384.69 452.58 359.25 451.02 351.07 450.62C345.48 450.34 348.00 450.36 342.68 450.33C337.36 450.29 331.39 449.77 315.57 450.38C299.76 451.00 259.76 453.90 237.25 454.43C214.75 454.97 177.25 453.95 165.54 453.95C161.29 453.95 163.41 454.03 159.19 454.44C153.43 455.00 134.58 456.71 127.11 457.69C119.63 458.67 113.15 460.12 109.36 460.97C105.57 461.82 102.87 462.81 101.85 463.35C101.02 463.79 102.19 464.26 102.58 464.57C102.97 464.87 103.16 464.98 104.47 465.36C105.80 465.74 107.59 466.67 111.46 467.14C115.33 467.62 126.36 468.33 130.27 468.54C134.17 468.75 132.68 468.41 137.52 468.54C149.50 468.85 191.51 470.32 210.11 470.63C228.70 470.94 252.84 470.65 261.48 470.62C265.64 470.61 263.56 470.58 267.71 470.43C275.53 470.16 302.51 469.05 313.62 468.78C324.73 468.50 337.10 468.71 341.76 468.60C343.74 468.55 345.98 468.59 344.68 468.04C343.38 467.49 336.36 465.58 333.11 464.94C329.87 464.29 328.86 464.12 323.04 463.74C317.21 463.37 301.16 462.61 294.28 462.45C287.41 462.29 282.36 462.55 277.23 462.68C272.10 462.81 271.51 462.72 260.09 463.33C248.12 463.97 214.50 466.33 197.41 466.92C180.33 467.51 151.24 467.08 146.18 467.28C141.12 467.47 154.84 468.15 163.69 468.22C172.54 468.29 196.36 467.87 205.19 467.76C214.01 467.64 210.96 467.57 222.50 467.46C236.06 467.34 271.12 467.37 295.56 466.91C320.00 466.44 359.79 464.29 385.43 464.35C411.06 464.40 447.60 466.82 466.45 467.30C485.30 467.78 502.92 467.55 511.08 467.54C517.61 467.53 514.89 467.66 520.86 467.25C526.84 466.85 557.44 465.17 550.91 464.84C544.39 464.50 501.09 465.17 477.38 465.02C453.67 464.88 407.97 464.08 392.84 463.88C381.95 463.74 386.88 463.82 376.50 463.72C366.13 463.62 333.71 463.39 323.66 463.18C314.21 462.99 312.21 462.54 309.51 462.33C306.94 462.13 306.40 462.01 305.68 461.80C304.95 461.60 304.01 461.47 304.70 460.96C305.53 460.35 307.48 458.90 311.23 457.72C314.98 456.55 325.09 454.02 329.69 453.12C334.29 452.22 338.04 451.98 341.87 451.71C345.71 451.44 351.14 451.28 355.25 451.32C359.35 451.36 359.94 451.17 369.25 451.99C380.80 453.01 420.21 457.03 432.24 458.15C443.70 459.20 441.82 458.93 449.45 459.40C457.09 459.88 473.37 460.95 483.13 461.29C492.88 461.63 501.31 462.00 514.47 461.69C527.63 461.38 563.13 459.17 570.86 459.21C574.58 459.23 567.27 461.41 565.99 461.94C564.71 462.47 564.81 462.46 562.34 462.75C559.62 463.07 553.84 463.81 547.83 464.06C541.81 464.31 539.30 464.42 522.24 464.41C504.16 464.41 452.60 464.34 427.30 464.03C402.01 463.72 364.85 462.54 353.60 462.33C352.68 462.32 351.92 462.39 352.26 462.68C352.60 462.96 353.30 463.75 355.87 464.25C358.79 464.81 365.08 465.90 371.72 466.44C378.36 466.98 381.17 467.81 400.14 467.86C427.66 467.93 531.74 467.12 555.18 466.91C556.03 466.91 555.58 466.78 556.38 466.47C557.59 466.01 561.04 464.34 563.22 463.84C565.40 463.34 572.99 463.76 570.92 463.14C568.84 462.53 557.48 460.62 549.38 459.74C541.28 458.86 524.91 457.75 516.90 457.30C508.89 456.85 506.18 456.76 495.98 456.73C485.78 456.70 463.85 456.73 448.87 457.10C433.89 457.48 417.02 458.07 396.14 459.22C375.25 460.36 339.34 462.31 309.64 464.74C279.94 467.17 232.63 471.75 198.14 475.40C163.65 479.06 97.89 486.99 79.71 489.09C77.88 489.30 77.53 489.35 76.96 489.42C76.39 489.49 75.22 489.58 75.92 489.56C101.11 489.13 219.24 487.04 244.90 486.53C246.34 486.50 247.09 486.51 247.02 486.12C246.96 485.74 246.48 484.91 244.46 483.98C242.42 483.05 237.94 481.10 233.43 479.92C228.92 478.74 219.08 476.87 214.37 476.13C209.67 475.39 208.18 475.19 202.07 474.98C195.96 474.77 187.65 474.33 173.65 474.71C159.65 475.09 117.65 476.97 108.74 477.52C105.00 477.75 112.34 478.16 114.30 478.39C116.27 478.61 116.81 478.72 121.86 479.03C126.91 479.34 130.55 479.91 147.97 480.43C165.73 480.96 220.57 482.23 240.26 482.57C259.95 482.92 261.21 482.89 279.23 482.73C297.25 482.56 336.03 481.54 360.41 481.47C384.78 481.40 429.06 482.15 441.71 482.25C443.73 482.27 444.95 482.31 444.73 482.14C444.51 481.98 443.29 481.47 440.24 481.13C436.68 480.74 428.76 479.94 420.99 479.54C413.23 479.14 399.41 478.62 388.45 478.45C377.49 478.27 368.70 478.16 347.92 478.36C327.13 478.57 262.97 479.44 249.88 479.83C242.66 480.05 257.49 480.79 260.64 480.98C263.79 481.18 264.05 481.29 270.87 481.15C290.27 480.77 345.56 478.56 389.95 478.46C434.34 478.36 540.58 480.17 566.81 480.47C568.16 480.49 566.14 480.48 564.79 480.47C550.44 480.42 495.03 480.77 471.11 480.13C447.19 479.50 413.95 476.62 405.33 476.23C399.71 475.98 408.89 477.07 413.65 477.55C418.41 478.02 431.07 478.99 437.05 479.38C443.02 479.76 442.52 479.94 453.49 480.10C471.82 480.37 540.25 481.16 559.27 481.19C573.30 481.22 576.23 480.58 580.31 480.35C584.38 480.11 584.91 479.91 586.41 479.60C587.92 479.29 593.06 478.61 590.33 478.28C585.55 477.71 561.30 476.25 554.55 475.77C548.40 475.33 549.89 475.30 545.33 475.07C540.77 474.84 538.28 474.36 524.15 474.22C506.23 474.04 457.68 474.49 425.88 473.86C394.07 473.23 333.17 470.52 312.14 470.02C294.49 469.61 294.00 470.14 285.66 470.53C277.33 470.92 263.31 472.06 256.56 472.64C249.80 473.23 250.35 473.23 240.64 474.42C230.93 475.62 208.40 479.04 191.83 480.60C175.26 482.16 142.01 483.79 130.19 484.81C118.67 485.81 116.96 486.68 113.05 487.45C109.13 488.21 105.70 489.36 104.10 489.89C102.83 490.32 102.68 490.61 102.41 490.98C102.13 491.35 102.04 491.89 102.28 492.37C102.52 492.84 103.03 493.55 104.01 494.14C104.98 494.74 106.74 495.66 108.77 496.32C110.81 496.97 111.76 497.68 117.58 498.51C123.39 499.34 140.24 501.21 147.55 501.87C154.86 502.52 157.97 502.62 166.32 502.85C174.66 503.07 191.27 503.60 203.18 503.36C215.09 503.12 241.13 501.88 245.70 501.28C250.26 500.67 237.25 499.70 233.61 499.32C229.97 498.93 228.56 498.70 221.43 498.69C214.30 498.68 197.17 498.65 186.07 499.26C174.97 499.87 158.80 501.47 147.41 502.74C136.02 504.02 115.33 507.06 110.15 507.77C108.32 508.02 111.06 507.56 112.90 507.45C127.82 506.57 191.33 503.16 209.59 501.87C226.34 500.70 229.50 499.70 234.60 498.91C239.70 498.12 242.34 497.14 243.61 496.62C244.39 496.31 243.78 495.85 243.09 495.48C242.39 495.11 241.81 494.60 238.96 494.15C235.36 493.58 226.73 492.03 219.11 491.69C211.48 491.35 198.02 491.45 188.14 491.88C178.26 492.31 159.05 494.08 153.26 494.54C150.76 494.73 147.03 494.55 149.51 494.90C155.55 495.74 184.10 499.16 193.49 500.17C202.88 501.19 206.64 501.38 212.11 501.66C217.58 501.95 225.03 502.09 229.94 502.06C234.85 502.02 241.03 501.69 244.86 501.43C248.68 501.17 253.05 500.70 255.45 500.33C257.84 499.97 259.82 499.38 260.80 499.00C261.79 498.63 262.60 498.35 261.99 497.81C261.37 497.27 258.85 496.15 256.72 495.43C254.59 494.71 250.51 493.50 247.81 493.01C245.11 492.52 241.23 492.16 238.71 492.16C236.19 492.17 232.58 492.80 231.01 493.04C229.43 493.29 228.77 493.63 228.22 493.80C227.67 493.97 226.69 494.34 227.32 494.17C230.58 493.27 245.26 489.07 249.99 487.85C254.71 486.63 256.40 486.20 258.82 486.03C261.24 485.87 265.03 486.62 266.12 486.73"/><path fill="none" stroke="#d1000d" stroke-width="1.5" stroke-linecap="round" stroke-linejoin="round" d="M185.52 472.83C192.50 472.84 218.72 472.69 232.06 472.91C245.40 473.13 267.60 474.06 274.46 474.30C276.71 474.38 275.58 474.50 277.83 474.49C288.57 474.45 335.21 474.07 346.05 473.98C348.74 473.96 347.39 473.91 350.09 473.91C359.31 473.94 398.52 474.10 407.51 474.15C409.19 474.16 408.34 474.27 410.03 474.29C414.42 474.34 426.76 474.77 436.78 474.49C446.81 474.21 470.29 472.73 476.88 472.42C479.42 472.30 478.16 472.36 480.70 472.45C485.59 472.61 498.38 473.40 509.48 473.51C520.58 473.62 547.17 473.24 554.71 473.18C558.09 473.15 556.40 473.18 559.78 473.09C564.04 472.97 579.42 472.50 583.16 472.41C584.19 472.38 584.42 472.37 584.70 472.48C584.98 472.60 584.99 473.07 585.05 473.18"/><path fill="none" stroke="#d1000d" stroke-width="1.5" stroke-linecap="round" stroke-linejoin="round" d="M113.60 489.85C118.69 489.96 141.47 490.59 147.49 490.53C151.69 490.49 152.89 489.57 153.70 489.46C154.31 489.39 152.99 489.80 152.86 489.85"/><path fill="none" stroke="#ff9399" stroke-opacity="0.5" stroke-width="13.0" stroke-linecap="round" stroke-linejoin="round" d="M214.35 614.92C216.29 614.72 220.65 613.88 227.27 613.57C233.89 613.25 251.31 613.16 258.51 612.84C265.70 612.53 267.23 611.60 275.22 611.45C283.20 611.30 305.63 611.77 311.75 611.82C314.60 611.85 313.18 611.89 316.03 611.83C320.71 611.74 335.44 610.89 342.93 611.18C350.43 611.47 360.36 613.26 366.01 613.77C371.65 614.28 377.65 614.43 380.56 614.57C383.47 614.71 382.17 614.60 385.39 614.67C395.12 614.89 431.84 615.97 445.38 616.01C458.91 616.05 470.33 615.12 475.63 614.92C478.99 614.80 477.31 614.74 480.67 614.67C489.93 614.46 523.79 613.64 537.31 613.52C550.83 613.41 565.78 613.83 570.80 613.88"/><path fill="none" stroke="#ff9399" stroke-opacity="0.5" stroke-width="13.0" stroke-linecap="round" stroke-linejoin="round" d="M110.48 632.29C113.51 632.20 122.74 631.52 130.70 631.68C138.66 631.84 150.12 633.31 163.56 633.35C177.00 633.40 211.07 632.19 220.31 631.97C223.53 631.89 221.92 631.94 225.15 631.90C240.05 631.69 304.75 630.76 319.67 630.56C322.97 630.51 321.32 630.55 324.62 630.56C331.00 630.57 349.10 630.45 362.26 630.67C375.43 630.89 404.31 631.80 412.37 632.03C414.78 632.10 413.57 632.15 415.98 632.23C420.97 632.42 434.67 633.51 445.65 633.26C456.63 633.00 482.07 630.98 489.18 630.52C491.78 630.35 490.47 630.29 493.07 630.18C498.09 629.98 512.74 629.26 522.67 629.16C532.60 629.06 552.11 629.60 559.28 629.50C566.44 629.40 568.73 628.63 570.45 628.47C570.69 628.45 570.75 628.47 570.80 628.47"/><path fill="none" stroke="#ff9399" stroke-opacity="0.5" stroke-width="13.0" stroke-linecap="round" stroke-linejoin="round" d="M120.90 646.54C128.93 646.64 166.38 647.13 174.40 647.23"/><path fill="none" stroke="#ffd873" stroke-opacity="0.5" stroke-width="13.0" stroke-linecap="round" stroke-linejoin="round" d="M185.17 646.89C185.02 646.89 183.44 646.94 184.13 646.89C189.34 646.50 201.88 644.51 219.88 644.30C237.88 644.08 290.72 645.29 304.13 645.44C307.56 645.48 305.85 645.40 309.28 645.29C313.72 645.14 319.30 644.21 333.73 644.45C348.16 644.68 388.61 646.67 405.44 646.88C422.28 647.09 438.27 646.07 445.94 645.85C453.07 645.64 449.51 645.62 456.64 645.41C467.31 645.09 504.91 643.95 517.09 643.72C529.28 643.49 531.07 643.61 537.88 643.87C544.68 644.12 558.20 645.29 562.46 645.43C565.04 645.51 565.71 644.89 566.29 644.80"/><path fill="none" stroke="#ffd873" stroke-opacity="0.5" stroke-width="13.0" stroke-linecap="round" stroke-linejoin="round" d="M111.87 663.21C111.66 663.16 109.52 662.87 110.48 662.87C119.55 662.81 163.04 662.87 172.32 662.87"/><path fill="none" stroke="#acacac" stroke-opacity="0.5" stroke-width="13.0" stroke-linecap="round" stroke-linejoin="round" d="M110.83 683.71C113.43 683.14 123.46 680.30 128.20 679.89C132.93 679.48 137.51 681.07 142.42 680.98C147.33 680.89 156.72 679.58 160.91 679.30C165.10 679.02 165.61 678.95 170.34 679.13C175.06 679.31 188.43 680.28 192.41 680.50C195.40 680.66 193.91 680.66 196.90 680.59C204.55 680.40 229.60 679.37 243.43 679.21C257.25 679.05 281.49 679.48 289.06 679.55C292.28 679.58 290.68 679.45 293.90 679.66C299.28 680.00 312.64 681.46 324.96 681.86C337.29 682.26 367.78 682.28 376.06 682.35C378.79 682.37 377.43 682.43 380.15 682.33C387.81 682.06 415.86 681.15 427.12 680.56C438.38 679.97 450.46 678.75 455.23 678.40C457.65 678.22 456.44 678.26 458.87 678.23C472.97 678.04 535.16 677.34 549.28 677.16C551.75 677.13 550.51 677.11 552.98 677.06C556.16 677.00 567.83 676.81 570.45 676.76"/><path fill="none" stroke="#acacac" stroke-opacity="0.5" stroke-width="13.0" stroke-linecap="round" stroke-linejoin="round" d="M115.69 698.30C115.69 698.20 115.23 697.64 115.69 697.61C120.05 697.33 133.59 697.21 144.79 696.48C155.99 695.75 177.98 693.40 190.36 692.73C202.74 692.07 221.12 692.15 227.32 692.05C230.26 692.00 228.79 692.05 231.72 692.05C241.68 692.05 279.72 691.79 293.71 692.05C307.70 692.32 319.54 693.47 324.99 693.79C328.34 693.98 326.66 693.97 330.01 694.16C333.74 694.37 342.28 695.01 349.82 695.17C357.37 695.33 373.41 694.93 380.32 695.24C387.22 695.56 393.44 696.95 395.86 697.27C396.26 697.33 396.42 697.23 396.45 697.39C396.48 697.54 396.11 698.17 396.05 698.30"/><path fill="none" stroke="#d1000d" stroke-width="1.5" stroke-linecap="round" stroke-linejoin="round" d="M382.85 685.45C387.97 685.36 405.79 684.67 416.99 684.88C428.19 685.09 451.46 686.54 457.54 686.84"/><path fill="none" stroke="#d1000d" stroke-width="1.5" stroke-linecap="round" stroke-linejoin="round" d="M489.51 685.45C494.41 685.24 511.12 684.11 522.16 684.06C533.21 684.01 557.01 684.94 563.16 685.10"/><path fill="none" stroke="#d1000d" stroke-width="1.5" stroke-linecap="round" stroke-linejoin="round" d="M113.60 705.25C117.75 704.63 133.99 701.95 141.22 701.10C148.45 700.25 157.44 699.83 161.82 699.59C166.21 699.35 167.68 699.32 170.45 699.50C173.23 699.69 173.70 700.39 180.31 700.82C187.70 701.30 210.83 702.40 219.68 702.70C228.53 703.01 235.69 702.82 239.31 702.83C242.31 702.84 240.81 702.81 243.81 702.78C248.74 702.72 260.38 702.34 272.20 702.44C284.03 702.54 314.51 703.27 322.62 703.45C325.07 703.50 323.84 703.52 326.30 703.58C332.18 703.74 351.67 704.39 361.88 704.48C372.08 704.58 389.35 704.15 394.32 704.21C394.97 704.22 394.91 704.80 395.01 704.90"/><path fill="none" stroke="#d1000d" stroke-width="1.5" stroke-linecap="round" stroke-linejoin="round" d="M589.91 550.30C590.04 551.35 590.21 555.82 590.76 557.31C591.30 558.80 592.91 559.85 593.54 560.25C594.18 560.65 594.47 560.56 595.01 559.95C595.55 559.35 596.79 557.09 597.17 556.22C597.54 555.35 597.61 555.07 597.50 554.18C597.40 553.29 596.84 551.10 596.47 550.30C596.11 549.49 595.84 549.16 595.07 548.81C594.29 548.46 592.14 548.00 591.30 547.99C590.46 547.97 589.96 548.35 589.49 548.69C589.02 549.04 588.37 550.06 588.17 550.30"/><path fill="none" stroke="#d1000d" stroke-width="1.5" stroke-linecap="round" stroke-linejoin="round" d="M778.21 642.37C777.58 642.51 775.02 642.81 774.03 643.31C773.05 643.81 772.12 645.13 771.66 645.68C771.21 646.24 770.92 646.01 770.98 647.00C771.05 648.11 771.59 651.80 772.12 653.07C772.65 654.35 773.41 655.02 774.50 655.50C775.58 655.98 778.20 656.33 779.36 656.28C780.53 656.23 781.45 655.81 782.27 655.17C783.09 654.53 784.38 652.71 784.81 652.01C785.24 651.32 785.17 651.55 785.13 650.55C785.10 649.51 784.93 646.41 784.54 645.13C784.16 643.86 783.35 642.71 782.54 642.04C781.74 641.37 780.26 640.71 779.19 640.66C778.13 640.61 775.99 641.52 775.43 641.67"/><path fill="none" stroke="#000000" stroke-width="2.0" stroke-linecap="round" stroke-linejoin="round" d="M651.75 582.61C650.61 583.51 645.52 587.21 644.12 588.59C642.72 589.98 642.61 590.67 642.42 591.86C642.22 593.05 642.18 595.57 642.84 596.53C643.50 597.50 645.66 598.01 646.83 598.29C648.00 598.56 649.56 598.64 650.62 598.35C651.68 598.06 652.81 597.27 653.87 596.37C654.92 595.47 657.09 592.95 657.66 592.34"/><path fill="none" stroke="#000000" stroke-width="2.0" stroke-linecap="round" stroke-linejoin="round" d="M668.08 586.09C667.61 587.21 665.66 592.28 664.97 593.57C664.36 594.69 663.82 595.26 663.45 594.73C663.07 594.21 662.58 590.92 662.46 590.07C662.36 589.38 662.41 589.33 662.63 589.04C662.86 588.75 662.96 587.76 663.96 588.14C665.55 588.73 671.70 592.26 673.23 592.98C673.77 593.24 673.97 593.00 674.13 592.95C674.30 592.91 674.30 592.73 674.33 592.69"/><path fill="none" stroke="#004dc0" stroke-width="1.5" stroke-linecap="round" stroke-linejoin="round" d="M671.90 497.50C671.87 498.12 671.53 501.80 671.70 501.66C671.88 501.51 672.31 496.43 673.05 496.54C673.78 496.66 676.04 502.87 676.60 502.39C677.16 501.91 676.74 494.69 676.76 493.33C676.76 493.33 676.76 493.33 676.76 493.33"/><path fill="none" stroke="#004dc0" stroke-width="1.5" stroke-linecap="round" stroke-linejoin="round" d="M643.06 625.35C643.09 626.41 643.19 632.48 643.26 632.46C643.33 632.43 642.59 624.93 643.55 625.18C644.50 625.43 648.65 633.11 649.64 634.13C650.62 635.16 650.12 633.42 650.12 632.00C650.13 630.58 649.77 626.01 649.66 624.67C649.58 623.62 649.50 623.49 649.44 623.11C649.39 622.73 649.26 622.22 649.29 622.14C649.33 622.06 649.61 622.50 649.66 622.57"/><path fill="none" stroke="#004dc0" stroke-width="1.5" stroke-linecap="round" stroke-linejoin="round" d="M713.94 741.73C713.88 741.68 713.65 741.06 713.59 741.38C713.46 742.04 713.21 746.03 713.05 746.08C712.88 746.14 712.50 742.77 712.48 741.75C712.46 740.72 711.69 738.52 712.92 739.26C714.15 739.99 719.35 745.41 720.67 746.64C721.32 747.24 721.55 747.37 721.75 747.42C721.95 747.47 721.97 747.13 721.99 746.98C722.01 746.83 721.93 746.80 721.90 746.44C721.78 745.36 721.21 741.32 721.21 739.72C721.22 738.13 721.82 736.41 721.93 735.82"/><path fill="none" stroke="#000000" stroke-width="2.0" stroke-linecap="round" stroke-linejoin="round" d="M640.63 534.32C639.74 535.31 635.69 539.43 634.71 540.90C633.73 542.36 634.05 543.36 634.09 544.11C634.13 544.86 634.63 545.43 634.96 545.89C635.29 546.35 635.40 547.12 636.28 547.17C637.16 547.22 639.63 546.66 640.82 546.25C642.01 545.83 643.24 545.13 644.20 544.38C645.16 543.64 646.78 541.74 647.23 541.27"/><path fill="none" stroke="#000000" stroke-width="2.0" stroke-linecap="round" stroke-linejoin="round" d="M703.86 646.54C702.80 647.39 697.99 650.99 696.78 652.21C695.57 653.44 695.85 654.04 695.79 654.71C695.74 655.39 696.17 656.18 696.41 656.71C696.65 657.24 696.44 658.01 697.40 658.27C698.36 658.53 701.34 659.13 702.83 658.46C704.32 657.79 706.66 654.53 707.34 653.83"/><path fill="none" stroke="#000000" stroke-width="2.0" stroke-linecap="round" stroke-linejoin="round" d="M650.71 703.51C650.22 703.94 648.06 705.59 647.45 706.36C646.84 707.12 646.76 707.72 646.62 708.61C646.49 709.50 646.20 711.45 646.54 712.30C646.88 713.14 648.09 713.91 648.91 714.24C649.73 714.56 651.13 714.66 652.02 714.44C652.91 714.23 654.16 713.36 654.85 712.82C655.54 712.27 656.35 711.11 656.61 710.81"/><path fill="none" stroke="#000000" stroke-width="2.0" stroke-linecap="round" stroke-linejoin="round" d="M662.87 707.34C662.52 708.57 661.03 714.36 660.53 715.57C660.29 716.17 659.81 715.99 659.58 715.38C659.30 714.67 657.82 711.06 658.67 710.79C659.52 710.52 664.20 713.17 665.25 713.59C665.49 713.69 665.53 713.59 665.65 713.59C665.76 713.59 665.94 713.59 665.99 713.59"/><path fill="none" stroke="#000000" stroke-width="2.0" stroke-linecap="round" stroke-linejoin="round" d="M707.68 634.03C707.63 635.02 707.39 639.64 707.34 640.63"/><path fill="none" stroke="#000000" stroke-width="2.0" stroke-linecap="round" stroke-linejoin="round" d="M724.01 903.28C723.02 904.58 718.39 910.21 717.38 911.95C716.40 913.61 716.89 914.10 717.22 914.83C717.56 915.56 718.69 916.87 719.60 916.81C720.52 916.76 722.46 915.32 723.33 914.47C724.19 913.63 724.89 912.20 725.37 911.17C725.85 910.14 726.35 908.34 726.54 907.58C726.72 906.82 726.77 906.62 726.61 906.10C726.46 905.57 726.14 904.51 725.49 904.08C724.83 903.66 722.76 903.40 722.27 903.28"/><path fill="none" stroke="#000000" stroke-width="2.0" stroke-linecap="round" stroke-linejoin="round" d="M723.32 899.80C723.26 899.75 723.00 899.13 722.97 899.46C722.66 902.90 721.49 919.24 721.23 922.73"/><path fill="none" stroke="#000000" stroke-width="2.0" stroke-linecap="round" stroke-linejoin="round" d="M686.14 843.17C686.51 843.66 687.97 845.34 688.59 846.39C689.21 847.44 689.56 850.00 690.27 850.17C690.98 850.35 692.53 848.76 693.31 847.53C694.09 846.31 694.76 842.93 695.45 842.02C696.15 841.11 697.58 841.53 697.96 841.44"/><path fill="none" stroke="#000000" stroke-width="2.0" stroke-linecap="round" stroke-linejoin="round" d="M691.35 838.66C691.35 841.47 691.35 854.60 691.35 857.42"/><path fill="none" stroke="#ffd873" stroke-opacity="0.5" stroke-width="13.0" stroke-linecap="round" stroke-linejoin="round" d="M427.32 824.07C431.22 824.47 446.33 826.27 453.33 826.78C460.34 827.29 463.93 827.82 474.04 827.48C484.15 827.15 508.63 825.14 520.71 824.52C532.80 823.91 547.42 823.50 554.60 823.37C561.78 823.23 566.03 823.56 568.56 823.62C570.50 823.67 570.29 823.66 571.46 823.78C572.63 823.89 579.66 824.21 576.37 824.39C571.91 824.64 555.14 825.29 541.73 825.42C528.33 825.56 496.18 825.37 487.00 825.31C482.71 825.29 484.86 825.15 480.56 825.07C474.21 824.95 453.24 824.10 444.61 824.53C435.98 824.95 426.29 827.34 423.02 827.90C422.76 827.95 422.63 828.07 422.82 828.25C423.04 828.45 423.77 829.03 424.44 829.19C425.12 829.35 425.40 829.33 427.32 829.31C437.20 829.21 469.93 828.58 490.28 828.52C510.63 828.46 551.95 828.87 562.98 828.93C563.56 828.93 563.77 828.93 563.85 828.93C563.93 828.93 563.56 828.93 563.51 828.93"/><path fill="none" stroke="#ffd873" stroke-opacity="0.5" stroke-width="13.0" stroke-linecap="round" stroke-linejoin="round" d="M116.38 841.79C124.57 842.41 153.43 845.32 170.93 845.95C188.43 846.59 218.26 845.80 233.06 846.00C247.87 846.20 257.81 847.18 269.62 847.28C281.42 847.39 304.53 846.77 311.78 846.68C315.90 846.62 313.84 846.75 317.96 846.66C325.69 846.49 345.99 845.68 363.29 845.57C380.59 845.47 422.02 845.91 433.30 845.96C436.75 845.98 436.59 845.95 438.48 845.91C440.37 845.88 445.52 846.01 445.90 845.74C446.28 845.47 443.60 844.67 441.01 844.10C438.42 843.53 433.33 842.50 428.64 841.94C423.94 841.38 417.47 840.74 409.72 840.35C401.98 839.97 392.06 839.56 376.98 839.38C361.89 839.21 321.09 839.22 309.15 839.18C301.29 839.16 305.22 839.20 297.36 839.13C286.78 839.04 249.43 838.84 238.64 838.58C229.78 838.36 220.88 837.68 225.40 837.41C229.92 837.14 252.93 836.70 268.79 836.77C284.65 836.83 318.62 837.53 331.13 837.84C343.63 838.16 338.15 838.08 352.17 838.87C369.95 839.87 427.14 843.78 449.67 844.52C472.21 845.26 486.20 843.73 502.42 843.80C518.64 843.87 548.86 844.83 557.79 844.98C560.56 845.02 560.73 844.95 561.94 844.79C563.15 844.63 565.14 844.31 565.86 843.91C566.58 843.52 566.90 842.60 566.74 842.17C566.58 841.75 565.62 841.35 564.79 841.11C563.96 840.87 563.62 840.70 561.20 840.56C555.87 840.23 548.75 839.46 529.24 838.97C509.73 838.48 445.86 837.52 431.14 837.27"/><path fill="none" stroke="#ffd873" stroke-opacity="0.5" stroke-width="13.0" stroke-linecap="round" stroke-linejoin="round" d="M115.69 858.11C115.27 858.11 111.07 857.91 112.91 858.11C119.76 858.86 150.79 862.32 161.38 863.07C171.97 863.82 174.86 863.41 183.51 863.11C192.17 862.82 212.11 861.70 219.08 861.10C226.04 860.50 224.19 859.74 229.94 859.10C235.70 858.46 249.61 857.32 257.45 856.81C265.28 856.31 270.69 855.86 282.16 855.74C293.64 855.62 320.80 855.61 333.95 856.04C347.10 856.47 363.30 858.07 369.83 858.58C374.93 858.98 373.60 859.07 377.46 859.42C381.33 859.76 388.42 860.75 395.60 860.87C402.77 860.99 419.75 860.12 425.28 860.21C430.17 860.29 433.93 861.30 432.51 861.45C431.10 861.60 419.99 861.29 415.86 861.21C411.73 861.13 412.24 861.03 404.98 860.92C379.03 860.54 270.71 859.17 242.85 858.65C227.09 858.35 228.32 858.13 219.24 857.41C210.16 856.69 189.05 854.50 182.31 853.83C176.98 853.31 179.63 853.58 174.33 852.95C169.03 852.33 155.21 850.27 146.98 849.69C138.75 849.11 124.73 849.08 119.45 849.09C114.30 849.09 112.64 849.44 111.75 849.74C110.87 850.04 112.18 850.51 113.56 851.09C115.16 851.77 119.87 853.51 122.42 854.24C124.97 854.98 125.67 855.36 130.56 856.00C135.45 856.64 146.28 858.06 155.02 858.51C163.76 858.96 168.80 859.20 188.81 858.99C208.83 858.79 260.85 857.21 288.45 857.15C316.04 857.09 353.37 858.61 372.80 858.60C392.22 858.59 411.17 857.30 417.94 857.07"/><path fill="none" stroke="#000" stroke-width="1.0" stroke-linecap="round" stroke-linejoin="round" d=""/><path fill="none" stroke="#000" stroke-width="1.0" stroke-linecap="round" stroke-linejoin="round" d=""/><path fill="none" stroke="#000" stroke-width="1.0" stroke-linecap="round" stroke-linejoin="round" d=""/><path fill="none" stroke="#000" stroke-width="1.0" stroke-linecap="round" stroke-linejoin="round" d=""/><path fill="none" stroke="#000" stroke-width="1.0" stroke-linecap="round" stroke-linejoin="round" d=""/><path fill="none" stroke="#000" stroke-width="1.0" stroke-linecap="round" stroke-linejoin="round" d=""/><path fill="none" stroke="#000000" stroke-width="2.5" stroke-linecap="round" stroke-linejoin="round" d="M619.44 764.66C618.71 765.23 615.65 767.43 614.55 768.49C613.46 769.55 612.57 771.04 612.15 771.74C611.72 772.43 611.65 772.34 611.72 773.12C611.80 773.89 612.25 775.99 612.65 776.89C613.05 777.79 613.50 778.61 614.37 779.12C615.24 779.63 617.36 780.24 618.45 780.31C619.53 780.37 620.40 780.23 621.59 779.57C622.77 778.91 625.44 776.70 626.35 775.93C627.27 775.15 627.16 775.14 627.69 774.42C628.22 773.69 629.42 772.11 629.91 771.08C630.40 770.05 630.85 768.60 630.96 767.52C631.07 766.44 630.95 764.87 630.64 763.90C630.33 762.93 629.62 761.69 628.90 761.06C628.17 760.43 626.59 759.87 625.83 759.70C625.06 759.52 624.65 759.62 623.82 759.90C622.99 760.19 621.16 761.00 620.29 761.61C619.43 762.22 618.39 763.61 618.05 763.96"/><path fill="none" stroke="#000" stroke-width="1.0" stroke-linecap="round" stroke-linejoin="round" d=""/><path fill="none" stroke="#000000" stroke-width="2.5" stroke-linecap="round" stroke-linejoin="round" d="M619.44 758.41C619.44 758.08 619.41 754.81 619.44 756.25C619.54 761.24 620.03 786.26 620.12 791.70C620.13 792.22 620.11 792.32 620.06 792.48C620.01 792.65 619.83 792.75 619.79 792.80"/>
</svg>