<?xml version="1.0" encoding="UTF-8"?>
<!DOCTYPE svg PUBLIC "-//W3C//DTD SVG 1.1//EN" "http://www.w3.org/Graphics/SVG/1.1/DTD/svg11.dtd">
<svg  xmlns="http://www.w3.org/2000/svg" xmlns:xlink="http://www.w3.org/1999/xlink" viewport-fill="none" viewBox="0.0, 0.0, 859.5, 1046.0" version="1.1" height="1046.0" width="859.5">
<path fill="none" stroke="#000" stroke-width="1.0" stroke-linecap="round" stroke-linejoin="round" d=""/><path fill="none" stroke="#000" stroke-width="1.0" stroke-linecap="round" stroke-linejoin="round" d=""/><path fill="none" stroke="#79eb70" stroke-opacity="0.5" stroke-width="13.0" stroke-linecap="round" stroke-linejoin="round" d="M186.21 220.61C186.18 220.12 185.95 217.89 186.02 217.37C186.08 216.90 186.22 217.16 186.70 217.16C191.96 217.13 215.52 217.22 221.10 217.20C222.94 217.20 222.02 217.14 223.86 217.06C228.30 216.89 244.86 216.12 250.69 216.06C256.53 216.01 260.69 216.58 262.79 216.70C264.04 216.77 263.41 216.74 264.66 216.87C267.19 217.15 274.00 218.43 279.64 218.54C285.29 218.65 298.62 217.76 302.28 217.61C303.45 217.56 302.87 217.52 304.04 217.50C309.66 217.44 334.07 217.22 339.79 217.16C341.36 217.15 340.58 217.21 342.15 217.14C350.00 216.82 384.23 215.34 392.10 215.02C393.76 214.96 392.93 215.01 394.60 215.04C402.15 215.18 434.94 215.81 442.45 215.96C443.92 215.99 443.19 216.04 444.66 216.07C451.66 216.20 482.15 216.71 489.14 216.84C490.56 216.86 489.85 216.91 491.26 216.92C496.78 216.97 519.85 217.03 525.89 217.15C529.70 217.23 530.51 217.63 531.57 217.74C532.49 217.84 532.03 217.80 532.94 217.92C534.28 218.08 536.73 218.66 540.49 218.86C544.25 219.05 555.13 219.16 558.01 219.23C559.12 219.26 558.57 219.24 559.68 219.32C561.81 219.47 570.31 220.12 572.19 220.26"/><path fill="none" stroke="#000" stroke-width="1.0" stroke-linecap="round" stroke-linejoin="round" d=""/><path fill="none" stroke="#79eb70" stroke-opacity="0.5" stroke-width="13.0" stroke-linecap="round" stroke-linejoin="round" d="M113.26 237.63C113.77 237.33 115.19 236.09 116.65 235.64C118.11 235.19 119.58 234.56 122.99 234.62C126.41 234.68 134.83 235.77 139.41 236.02C143.99 236.26 151.15 236.21 153.51 236.24C154.60 236.26 154.06 236.27 155.14 236.24C160.88 236.08 185.94 235.35 191.75 235.19C193.17 235.15 192.46 235.16 193.88 235.17C199.51 235.21 223.74 235.36 229.33 235.41C230.55 235.42 229.94 235.46 231.16 235.50C236.75 235.68 261.06 236.45 266.65 236.64C267.82 236.68 267.23 236.72 268.41 236.73C273.94 236.76 297.93 236.88 303.55 236.90C305.09 236.90 304.32 236.85 305.86 236.83C312.34 236.73 340.27 236.33 346.72 236.24C348.16 236.22 347.44 236.25 348.88 236.24C355.47 236.18 384.12 235.92 390.64 235.84C391.78 235.83 391.21 235.81 392.35 235.76C397.52 235.52 419.99 234.50 425.13 234.27C426.12 234.22 425.63 234.22 426.61 234.20C431.24 234.07 451.32 233.57 455.97 233.44C457.07 233.41 456.52 233.39 457.62 233.33C461.92 233.13 480.59 232.26 484.64 232.07C484.64 232.07 484.64 232.07 484.64 232.07"/><path fill="none" stroke="#000" stroke-width="1.0" stroke-linecap="round" stroke-linejoin="round" d=""/><path fill="none" stroke="#1eb511" stroke-width="1.5" stroke-linecap="round" stroke-linejoin="round" d="M583.66 223.04C585.06 222.26 589.59 219.36 593.04 217.83C596.49 216.29 601.44 214.48 606.65 212.81C611.87 211.13 622.89 207.89 627.79 206.65C632.70 205.41 637.79 204.85 639.36 204.55C640.11 204.40 638.37 204.62 638.20 204.63C638.20 204.63 638.20 204.63 638.20 204.63"/><path fill="none" stroke="#000" stroke-width="1.0" stroke-linecap="round" stroke-linejoin="round" d=""/><path fill="none" stroke="#1eb511" stroke-width="1.5" stroke-linecap="round" stroke-linejoin="round" d="M633.34 200.11C633.20 200.11 631.79 200.07 632.41 200.11C633.43 200.18 638.91 200.20 640.19 200.59C641.48 200.98 640.97 201.94 640.98 202.70C640.99 203.46 640.43 205.07 640.24 205.66C640.04 206.24 640.12 206.07 639.67 206.60C639.21 207.13 637.97 208.56 637.17 209.20C636.38 209.84 634.80 210.63 634.38 210.88"/><path fill="none" stroke="#000" stroke-width="1.0" stroke-linecap="round" stroke-linejoin="round" d=""/><path fill="none" stroke="#1eb511" stroke-width="1.5" stroke-linecap="round" stroke-linejoin="round" d="M662.17 142.79C660.87 143.78 654.91 148.20 653.49 149.39C652.70 150.04 652.91 149.97 652.70 150.70C652.49 151.44 651.99 153.02 652.08 154.31C652.18 155.60 652.87 158.45 653.34 159.31C653.80 160.17 654.56 159.95 655.18 160.04C655.80 160.12 656.98 160.11 657.45 159.89C657.93 159.67 658.21 159.05 658.35 158.57C658.48 158.09 658.35 157.08 658.35 156.69C658.35 156.31 658.33 156.47 658.35 156.02C658.39 155.27 658.29 152.50 658.63 151.69C658.97 150.89 660.04 150.68 660.59 150.67C661.14 150.65 661.80 150.77 662.29 151.58C662.78 152.39 663.60 155.29 663.86 156.05C663.99 156.45 663.97 156.40 664.03 156.65C664.09 156.91 664.22 157.57 664.26 157.73"/><path fill="none" stroke="#000" stroke-width="1.0" stroke-linecap="round" stroke-linejoin="round" d=""/><path fill="none" stroke="#1eb511" stroke-width="1.5" stroke-linecap="round" stroke-linejoin="round" d="M669.82 139.66C669.81 139.45 669.74 137.37 669.79 138.28C669.89 140.24 670.38 150.50 670.50 152.70C670.51 152.87 670.43 152.96 670.60 152.94C670.81 152.91 671.70 152.58 671.90 152.51"/><path fill="none" stroke="#000" stroke-width="1.0" stroke-linecap="round" stroke-linejoin="round" d=""/><path fill="none" stroke="#1eb511" stroke-width="1.5" stroke-linecap="round" stroke-linejoin="round" d="M677.81 142.09C677.76 141.97 677.41 141.01 677.50 141.26C677.58 141.51 677.89 143.21 678.37 143.76C678.86 144.31 680.00 144.94 680.71 144.95C681.42 144.96 682.58 144.29 683.09 143.84C683.60 143.38 683.92 142.35 684.11 141.91C684.31 141.47 684.42 141.61 684.39 140.92C684.36 140.21 684.05 137.38 683.89 137.15C683.73 136.91 683.35 137.83 683.33 139.33C683.29 141.74 683.82 150.38 683.66 153.21C683.51 156.04 682.62 157.32 682.31 158.20C682.05 158.94 682.16 158.85 681.60 159.13C681.03 159.40 679.14 160.06 678.56 160.03C677.97 160.00 677.88 159.49 677.71 158.94C677.55 158.38 677.50 156.73 677.46 156.34"/><path fill="none" stroke="#000" stroke-width="1.0" stroke-linecap="round" stroke-linejoin="round" d=""/><path fill="none" stroke="#1eb511" stroke-width="1.5" stroke-linecap="round" stroke-linejoin="round" d="M690.31 134.10C690.27 133.99 690.31 133.22 690.04 133.38C689.76 133.54 688.91 134.03 688.48 135.20C688.06 136.36 687.19 140.09 687.19 141.12C687.20 142.15 687.97 142.07 688.51 142.03C689.04 142.00 690.34 141.17 690.75 140.91C691.17 140.66 691.12 140.56 691.26 140.32C691.40 140.08 691.64 139.46 691.70 139.31"/><path fill="none" stroke="#000" stroke-width="1.0" stroke-linecap="round" stroke-linejoin="round" d=""/><path fill="none" stroke="#1eb511" stroke-width="1.5" stroke-linecap="round" stroke-linejoin="round" d="M693.44 133.41C693.45 133.77 693.32 134.99 693.53 135.83C693.74 136.66 694.63 138.49 694.83 138.97"/><path fill="none" stroke="#000" stroke-width="1.0" stroke-linecap="round" stroke-linejoin="round" d=""/><path fill="none" stroke="#1eb511" stroke-width="1.5" stroke-linecap="round" stroke-linejoin="round" d="M693.09 126.11C693.14 126.22 693.39 126.70 693.44 126.81"/><path fill="none" stroke="#000" stroke-width="1.0" stroke-linecap="round" stroke-linejoin="round" d=""/><path fill="none" stroke="#1eb511" stroke-width="1.5" stroke-linecap="round" stroke-linejoin="round" d="M699.35 132.02C699.35 132.34 699.34 134.32 699.35 134.17C699.35 134.02 699.19 132.01 699.37 131.00C699.56 130.00 700.36 128.04 700.59 127.45C700.72 127.11 700.75 127.05 700.92 127.03C701.08 127.01 701.49 126.79 701.70 127.30C701.97 127.97 702.45 130.70 702.75 131.47C703.04 132.23 703.22 132.40 703.65 132.38C704.08 132.37 705.03 131.87 705.60 131.36C706.16 130.84 707.08 129.44 707.42 128.96C707.76 128.48 707.63 128.71 707.87 128.13C708.16 127.43 709.20 125.17 709.36 124.34C709.51 123.50 709.17 122.61 708.91 122.57C708.65 122.53 707.84 123.21 707.60 124.06C707.36 124.91 707.32 127.53 707.31 128.23C707.30 128.59 707.36 128.58 707.52 128.73C707.67 128.89 707.86 129.22 708.34 129.27C708.82 129.32 709.96 129.42 710.71 129.05C711.46 128.69 712.57 127.99 713.35 126.83C714.13 125.67 715.44 122.65 715.91 121.32C716.37 119.99 716.44 118.53 716.44 117.99C716.44 117.58 716.02 117.75 715.89 117.72C715.76 117.70 715.74 117.68 715.56 117.83C715.25 118.09 714.14 118.95 713.79 119.48C713.43 120.01 713.18 120.87 713.18 121.37C713.19 121.87 713.24 122.30 713.84 122.80C714.44 123.29 716.74 124.08 717.18 124.68C717.61 125.28 716.78 126.49 716.72 126.81C716.72 126.81 716.72 126.81 716.72 126.81"/><path fill="none" stroke="#000" stroke-width="1.0" stroke-linecap="round" stroke-linejoin="round" d=""/><path fill="none" stroke="#1eb511" stroke-width="1.5" stroke-linecap="round" stroke-linejoin="round" d="M686.14 168.84C685.57 168.95 682.97 169.34 682.32 169.54C681.79 169.70 682.01 169.73 681.82 170.20C681.62 170.67 681.09 171.77 681.00 172.67C680.91 173.56 680.93 175.71 681.23 176.17C681.52 176.64 682.48 176.01 682.95 175.76C683.41 175.51 683.85 175.29 684.31 174.52C684.78 173.74 685.78 171.24 686.05 170.59C686.17 170.31 686.08 169.86 686.16 170.15C686.24 170.50 686.28 172.34 686.64 172.93C687.01 173.51 688.29 173.89 688.58 174.05"/><path fill="none" stroke="#000" stroke-width="1.0" stroke-linecap="round" stroke-linejoin="round" d=""/><path fill="none" stroke="#1eb511" stroke-width="1.5" stroke-linecap="round" stroke-linejoin="round" d="M691.70 166.76C691.71 167.38 691.59 171.36 691.74 170.93C691.89 170.50 692.52 165.13 692.70 163.92C692.80 163.20 692.78 163.26 692.94 162.86C693.10 162.45 693.66 161.45 693.79 161.20"/><path fill="none" stroke="#000" stroke-width="1.0" stroke-linecap="round" stroke-linejoin="round" d=""/><path fill="none" stroke="#1eb511" stroke-width="1.5" stroke-linecap="round" stroke-linejoin="round" d="M697.96 165.02C698.50 164.47 700.98 162.48 701.61 161.31C702.25 160.14 702.48 157.77 702.19 157.24C701.90 156.70 700.35 157.18 699.68 157.75C699.01 158.32 698.06 160.39 697.75 161.04C697.45 161.64 697.53 161.43 697.59 162.02C697.65 162.62 697.69 164.38 698.17 164.98C698.65 165.58 699.90 166.10 700.80 166.04C701.71 165.98 703.42 165.22 704.19 164.59C704.96 163.97 705.68 162.30 705.95 161.90"/><path fill="none" stroke="#000" stroke-width="1.0" stroke-linecap="round" stroke-linejoin="round" d=""/><path fill="none" stroke="#1eb511" stroke-width="1.5" stroke-linecap="round" stroke-linejoin="round" d="M720.19 141.40C719.99 141.35 719.33 140.95 718.88 141.05C718.44 141.15 717.59 141.69 717.20 142.06C716.81 142.43 716.46 142.86 716.27 143.52C716.09 144.18 715.79 145.57 715.95 146.47C716.10 147.37 716.90 148.97 717.33 149.52C717.76 150.07 718.30 150.08 718.83 150.12C719.35 150.16 720.39 149.91 720.84 149.78C721.29 149.65 721.47 149.57 721.84 149.25C722.21 148.94 723.10 147.89 723.32 147.65"/><path fill="none" stroke="#000" stroke-width="1.0" stroke-linecap="round" stroke-linejoin="round" d=""/><path fill="none" stroke="#1eb511" stroke-width="1.5" stroke-linecap="round" stroke-linejoin="round" d="M726.79 137.92C726.66 137.81 726.19 137.14 725.91 137.15C725.62 137.16 725.11 137.14 724.89 138.00C724.61 139.09 724.00 143.19 724.04 144.44C724.09 145.68 724.71 146.17 725.22 146.29C725.72 146.42 726.98 145.53 727.41 145.25C727.83 144.98 727.77 145.07 728.03 144.44C728.29 143.79 729.04 141.99 729.17 140.91C729.29 139.82 728.92 137.78 728.88 137.23"/><path fill="none" stroke="#000" stroke-width="1.0" stroke-linecap="round" stroke-linejoin="round" d=""/><path fill="none" stroke="#1eb511" stroke-width="1.5" stroke-linecap="round" stroke-linejoin="round" d="M734.43 133.41C734.54 134.04 734.98 137.83 735.13 137.62C735.28 137.42 735.34 133.02 735.44 132.02C735.50 131.29 735.51 131.46 735.75 130.97C735.99 130.47 736.75 129.06 737.05 128.74C737.35 128.41 737.57 128.36 737.76 128.80C738.09 129.56 738.78 132.93 739.21 133.82C739.65 134.72 740.10 134.82 740.65 134.75C741.20 134.68 742.32 133.91 742.89 133.34C743.47 132.78 744.27 131.33 744.51 130.98C744.51 130.98 744.51 130.98 744.51 130.98"/><path fill="none" stroke="#000" stroke-width="1.0" stroke-linecap="round" stroke-linejoin="round" d=""/><path fill="none" stroke="#1eb511" stroke-width="1.5" stroke-linecap="round" stroke-linejoin="round" d="M746.25 122.64C746.17 122.49 746.02 121.76 745.75 121.64C745.47 121.52 744.86 121.45 744.42 121.83C743.98 122.22 742.99 123.61 742.83 124.20C742.67 124.79 743.00 125.25 743.35 125.76C743.70 126.27 744.82 127.24 745.17 127.60C745.51 127.95 745.42 127.71 745.67 128.14C745.93 128.57 747.06 130.05 746.89 130.48C746.72 130.90 744.87 130.90 744.51 130.98"/><path fill="none" stroke="#000" stroke-width="1.0" stroke-linecap="round" stroke-linejoin="round" d=""/><path fill="none" stroke="#1eb511" stroke-width="1.5" stroke-linecap="round" stroke-linejoin="round" d="M749.03 123.68C749.84 123.26 753.27 121.68 754.42 120.86C755.57 120.04 756.48 118.89 756.69 118.21C756.89 117.54 756.24 116.49 755.80 116.37C755.35 116.24 754.13 117.12 753.75 117.38C753.37 117.64 753.45 117.55 753.26 118.11C752.98 118.94 751.86 121.97 751.87 122.93C751.87 123.89 752.48 124.34 753.30 124.50C754.12 124.67 756.36 124.59 757.34 124.05C758.31 123.51 759.43 121.37 759.80 120.90"/><path fill="none" stroke="#000" stroke-width="1.0" stroke-linecap="round" stroke-linejoin="round" d=""/><path fill="none" stroke="#1eb511" stroke-width="1.5" stroke-linecap="round" stroke-linejoin="round" d="M759.45 115.69C759.58 116.16 760.07 118.90 760.35 118.81C760.63 118.72 761.13 115.75 761.32 115.06C761.49 114.48 761.37 114.75 761.67 114.23C762.00 113.67 762.84 111.84 763.49 111.33C764.15 110.82 765.67 110.90 766.05 110.83"/><path fill="none" stroke="#000" stroke-width="1.0" stroke-linecap="round" stroke-linejoin="round" d=""/><path fill="none" stroke="#1eb511" stroke-width="1.5" stroke-linecap="round" stroke-linejoin="round" d="M767.09 111.52C767.17 111.78 767.36 112.80 767.64 113.24C767.91 113.67 768.51 114.23 768.95 114.43C769.40 114.64 770.26 114.82 770.60 114.61C770.93 114.40 771.06 113.42 771.17 113.05C771.29 112.68 771.24 112.75 771.35 112.14C771.49 111.33 771.84 108.56 772.14 107.63C772.44 106.70 773.16 106.21 773.34 105.96"/><path fill="none" stroke="#000" stroke-width="1.0" stroke-linecap="round" stroke-linejoin="round" d=""/><path fill="none" stroke="#1eb511" stroke-width="1.5" stroke-linecap="round" stroke-linejoin="round" d="M776.12 107.35C776.22 107.46 776.51 108.00 776.77 108.08C777.03 108.15 777.32 108.15 777.86 107.83C778.40 107.52 779.91 106.60 780.39 105.99C780.87 105.38 781.04 104.19 781.05 103.76C781.05 103.34 780.73 103.21 780.42 103.17C780.10 103.13 779.30 103.36 778.98 103.48C778.66 103.60 778.57 103.48 778.28 103.97C777.86 104.69 776.39 107.49 776.14 108.33C775.89 109.18 776.28 109.33 776.62 109.59C776.96 109.85 777.19 110.34 778.37 110.07C779.66 109.79 783.53 108.66 785.18 107.68C786.82 106.70 788.70 104.15 789.33 103.53"/><path fill="none" stroke="#000" stroke-width="1.0" stroke-linecap="round" stroke-linejoin="round" d=""/><path fill="none" stroke="#1eb511" stroke-width="1.5" stroke-linecap="round" stroke-linejoin="round" d="M789.67 90.68C789.64 90.55 789.24 89.30 789.44 89.84C789.90 91.11 792.30 97.74 792.76 99.11C792.82 99.30 792.70 98.98 792.50 98.95C791.99 98.87 790.04 98.16 789.39 98.59C788.75 99.01 788.27 101.09 788.21 101.76C788.15 102.44 788.27 102.82 788.98 103.08C789.70 103.34 792.27 103.46 792.95 103.50C793.36 103.53 793.31 103.48 793.55 103.38C793.79 103.28 794.39 102.92 794.54 102.83"/><path fill="none" stroke="#000" stroke-width="1.0" stroke-linecap="round" stroke-linejoin="round" d=""/><path fill="none" stroke="#1eb511" stroke-width="1.5" stroke-linecap="round" stroke-linejoin="round" d="M801.14 97.97C801.14 97.97 801.14 97.97 801.14 97.97"/><path fill="none" stroke="#000" stroke-width="1.0" stroke-linecap="round" stroke-linejoin="round" d=""/><path fill="none" stroke="#000" stroke-width="1.0" stroke-linecap="round" stroke-linejoin="round" d=""/><path fill="none" stroke="#d1000d" stroke-width="1.5" stroke-linecap="round" stroke-linejoin="round" d="M223.39 161.20C224.61 160.98 226.02 159.66 231.54 159.71C237.25 159.76 256.68 161.27 261.43 161.55C262.59 161.61 262.01 161.57 263.17 161.55C268.83 161.44 293.43 160.95 299.18 160.83C300.73 160.80 299.95 160.80 301.49 160.73C304.77 160.57 314.71 159.94 321.02 159.80C327.33 159.66 339.84 159.81 343.56 159.81C345.04 159.81 344.30 159.78 345.78 159.81C351.63 159.91 376.76 160.40 382.56 160.51C383.85 160.53 383.21 160.49 384.49 160.51C391.23 160.61 420.64 161.10 427.48 161.20C429.22 161.23 428.35 161.20 430.09 161.20C438.25 161.20 473.69 161.23 481.90 161.23C483.83 161.23 482.87 161.23 484.80 161.21C493.62 161.12 531.86 160.71 540.69 160.62C542.66 160.59 541.67 160.55 543.64 160.55C547.90 160.53 565.25 160.51 569.06 160.51"/><path fill="none" stroke="#000" stroke-width="1.0" stroke-linecap="round" stroke-linejoin="round" d=""/><path fill="none" stroke="#d1000d" stroke-width="1.5" stroke-linecap="round" stroke-linejoin="round" d="M106.31 178.92C107.75 178.84 109.51 178.41 115.94 178.42C122.85 178.42 146.64 178.85 152.36 178.93C153.49 178.94 152.93 178.98 154.06 178.95C159.16 178.80 181.20 178.12 186.33 177.95C187.59 177.90 186.96 177.84 188.22 177.81C190.50 177.75 197.19 177.34 201.50 177.54C205.80 177.75 214.32 178.91 216.90 179.16C218.11 179.29 217.51 179.26 218.73 179.25C225.20 179.21 253.53 178.97 260.08 178.92C261.62 178.91 260.85 178.93 262.39 178.92C268.36 178.86 293.97 178.62 299.89 178.55C301.19 178.53 300.54 178.50 301.83 178.44C308.38 178.18 336.92 177.05 343.51 176.79C345.03 176.73 344.27 176.76 345.79 176.72C351.98 176.57 378.62 175.90 384.78 175.74C386.18 175.71 385.48 175.67 386.87 175.65C394.58 175.56 428.31 175.21 436.15 175.12C438.17 175.10 437.16 175.12 439.18 175.11C446.13 175.05 475.75 174.80 482.48 174.75C483.54 174.74 483.01 174.75 484.06 174.75C488.34 174.76 506.79 174.77 511.02 174.79C511.88 174.79 511.45 174.84 512.31 174.86C516.21 174.96 533.15 175.36 537.05 175.44C537.92 175.46 537.49 175.44 538.36 175.44C542.25 175.44 559.28 175.44 563.02 175.44C563.22 175.44 563.25 175.44 563.32 175.44C563.39 175.44 563.48 175.44 563.51 175.44"/><path fill="none" stroke="#000" stroke-width="1.0" stroke-linecap="round" stroke-linejoin="round" d=""/><path fill="none" stroke="#d1000d" stroke-width="1.5" stroke-linecap="round" stroke-linejoin="round" d="M114.30 193.86C114.81 193.80 115.43 193.43 117.73 193.47C123.04 193.58 144.54 194.39 149.72 194.55C151.44 194.61 150.58 194.58 152.30 194.55C158.82 194.46 186.80 194.07 193.22 193.97C194.46 193.95 193.84 193.92 195.08 193.90C200.90 193.78 226.22 193.27 232.01 193.16C233.12 193.14 232.56 193.16 233.68 193.16C239.17 193.16 263.11 193.16 268.63 193.16C269.86 193.16 269.25 193.15 270.48 193.16C274.22 193.21 290.10 193.46 293.57 193.51C293.57 193.51 293.57 193.51 293.57 193.51"/><path fill="none" stroke="#000" stroke-width="1.0" stroke-linecap="round" stroke-linejoin="round" d=""/><path fill="none" stroke="#ff9399" stroke-opacity="0.5" stroke-width="13.0" stroke-linecap="round" stroke-linejoin="round" d="M114.99 171.97C123.14 171.67 160.75 170.30 169.33 169.98C171.26 169.91 170.29 169.91 172.22 169.83C178.60 169.55 205.72 168.40 211.89 168.15C212.86 168.11 212.37 168.15 213.35 168.15C217.75 168.14 236.86 168.12 241.23 168.12C242.09 168.12 241.66 168.09 242.52 168.14C247.15 168.41 267.38 169.63 272.09 169.89C273.29 169.96 272.69 169.91 273.90 169.91C277.21 169.91 291.00 169.89 294.19 169.89C294.84 169.88 294.63 169.89 295.16 169.89C295.70 169.89 298.36 169.78 297.76 169.89C297.15 169.99 292.51 170.48 291.16 170.60C289.80 170.73 290.35 170.59 288.74 170.71C285.18 170.97 275.18 172.30 267.38 172.34C259.58 172.38 241.78 171.16 236.73 170.97C234.70 170.89 235.72 171.00 233.69 171.04C225.53 171.19 190.37 171.83 182.33 171.97C180.82 172.00 181.58 171.94 180.07 171.97C174.00 172.07 147.87 172.56 141.88 172.65C140.72 172.67 141.30 172.66 140.15 172.56C137.56 172.36 128.95 171.52 124.66 171.29C120.38 171.06 113.86 171.00 111.58 171.05C110.10 171.09 109.76 171.54 109.44 171.62"/><path fill="none" stroke="#000" stroke-width="1.0" stroke-linecap="round" stroke-linejoin="round" d=""/><path fill="none" stroke="#ff9399" stroke-opacity="0.5" stroke-width="13.0" stroke-linecap="round" stroke-linejoin="round" d="M502.36 150.78C502.71 150.66 503.03 149.96 504.66 149.96C512.85 149.97 548.64 150.68 556.98 150.82C559.18 150.86 558.10 150.84 560.28 150.89C562.46 150.94 569.84 151.11 571.52 151.17C571.57 151.17 571.54 151.21 571.51 151.24C571.20 151.46 570.57 152.25 569.51 152.68C568.45 153.11 567.82 153.71 564.45 154.10C561.08 154.50 550.11 155.12 547.05 155.30C545.06 155.42 546.05 155.37 544.06 155.32C537.90 155.16 511.82 154.41 505.98 154.24C505.42 154.23 505.70 154.22 505.15 154.23C503.70 154.23 497.74 154.25 496.34 154.25C496.01 154.25 496.17 154.26 495.84 154.25C495.47 154.25 492.58 154.31 493.88 154.21C498.18 153.88 519.29 152.38 524.49 152.02C527.19 151.83 525.83 151.88 528.54 151.77C533.17 151.59 550.45 150.83 555.39 150.80C559.46 150.77 559.81 151.22 561.45 151.58C563.08 151.95 565.56 152.97 566.29 153.21"/><path fill="none" stroke="#000" stroke-width="1.0" stroke-linecap="round" stroke-linejoin="round" d=""/><path fill="none" stroke="#d1000d" stroke-width="1.5" stroke-linecap="round" stroke-linejoin="round" d="M385.63 257.78C386.27 257.67 387.00 256.98 389.87 257.02C393.45 257.08 406.23 257.97 409.49 258.14C410.87 258.21 410.18 258.12 411.57 258.16C416.38 258.27 436.80 258.75 441.51 258.87C442.51 258.90 442.01 258.95 443.01 258.96C448.44 259.04 472.26 259.31 477.73 259.38C478.92 259.40 478.33 259.42 479.51 259.47C481.36 259.55 484.54 260.00 490.10 259.90C495.66 259.80 512.29 258.98 516.59 258.81C518.05 258.76 517.32 258.80 518.78 258.80C524.45 258.80 548.83 258.85 554.40 258.85C555.42 258.85 554.92 258.91 555.93 258.83C558.03 258.67 566.50 257.94 568.37 257.78"/><path fill="none" stroke="#000" stroke-width="1.0" stroke-linecap="round" stroke-linejoin="round" d=""/><path fill="none" stroke="#000" stroke-width="1.0" stroke-linecap="round" stroke-linejoin="round" d=""/><path fill="none" stroke="#000" stroke-width="1.0" stroke-linecap="round" stroke-linejoin="round" d=""/><path fill="none" stroke="#d1000d" stroke-width="1.5" stroke-linecap="round" stroke-linejoin="round" d="M117.08 276.19C122.08 276.09 145.20 275.60 150.43 275.50C151.43 275.48 150.93 275.47 151.94 275.50C157.05 275.66 179.30 276.39 184.47 276.54C185.77 276.58 185.12 276.58 186.42 276.54C191.98 276.39 216.09 275.66 221.58 275.50C222.57 275.47 222.08 275.49 223.06 275.50C226.69 275.55 242.15 275.79 245.74 275.85C246.59 275.86 246.16 275.85 247.01 275.85C250.58 275.85 265.96 275.85 269.53 275.85C270.39 275.85 269.96 275.87 270.82 275.85C275.69 275.69 297.08 274.96 302.02 274.80C303.20 274.77 302.61 274.81 303.80 274.80C309.03 274.77 331.66 274.64 336.93 274.59C338.25 274.58 337.59 274.53 338.91 274.51C346.35 274.38 378.97 273.85 386.53 273.72C388.40 273.69 387.46 273.67 389.33 273.65C395.82 273.61 423.51 273.45 429.80 273.42C430.79 273.41 430.29 273.40 431.28 273.42C435.41 273.47 453.19 273.71 457.34 273.76C458.42 273.78 457.88 273.76 458.95 273.76C463.87 273.77 485.18 273.79 490.12 273.80C491.31 273.81 490.72 273.86 491.90 273.87C497.56 273.92 522.24 274.07 527.88 274.11C528.93 274.12 528.40 274.10 529.46 274.11C533.65 274.16 551.64 274.41 555.81 274.46C556.76 274.47 556.28 274.46 557.23 274.46C558.25 274.46 561.78 274.34 562.61 274.45C563.10 274.51 562.78 275.05 562.81 275.15"/><path fill="none" stroke="#000" stroke-width="1.0" stroke-linecap="round" stroke-linejoin="round" d=""/><path fill="none" stroke="#d1000d" stroke-width="1.5" stroke-linecap="round" stroke-linejoin="round" d="M115.69 289.74C115.48 289.80 113.35 290.03 114.30 290.09C116.94 290.25 127.35 290.76 133.27 290.78C139.18 290.80 148.99 290.06 153.73 290.20C158.46 290.33 162.90 291.41 164.84 291.68C166.04 291.85 165.42 291.91 166.63 292.01C169.24 292.24 176.36 293.00 182.23 293.18C188.10 293.36 201.91 293.21 205.74 293.22C207.08 293.22 206.41 293.20 207.75 293.22C212.82 293.27 234.45 293.52 239.49 293.57C240.72 293.59 240.10 293.56 241.33 293.59C246.10 293.70 266.60 294.18 271.30 294.30C272.19 294.32 271.74 294.36 272.64 294.37C277.05 294.42 296.24 294.57 300.69 294.61C301.77 294.62 301.23 294.63 302.31 294.61C307.15 294.50 328.13 293.99 332.96 293.87C333.99 293.85 333.47 293.83 334.51 293.80C336.00 293.76 341.64 293.60 342.90 293.57"/><path fill="none" stroke="#000" stroke-width="1.0" stroke-linecap="round" stroke-linejoin="round" d=""/><path fill="none" stroke="#ffd873" stroke-opacity="0.5" stroke-width="13.0" stroke-linecap="round" stroke-linejoin="round" d="M387.71 250.83C387.45 250.89 385.17 250.85 385.98 251.18C386.79 251.51 390.60 252.62 393.13 253.04C395.65 253.45 396.32 254.03 402.80 253.96C409.81 253.88 433.75 252.75 439.82 252.53C442.14 252.45 440.98 252.50 443.30 252.53C445.88 252.57 447.88 252.93 457.03 252.78C466.55 252.62 498.85 251.69 506.76 251.49C508.74 251.44 507.75 251.47 509.73 251.42C517.09 251.23 548.69 250.43 555.81 250.25C556.73 250.22 556.27 250.16 557.18 250.18C558.69 250.21 564.76 250.36 565.87 250.46C566.78 250.54 564.75 250.78 564.55 250.83C564.55 250.83 564.55 250.83 564.55 250.83"/><path fill="none" stroke="#000" stroke-width="1.0" stroke-linecap="round" stroke-linejoin="round" d=""/><path fill="none" stroke="#ffd873" stroke-opacity="0.5" stroke-width="13.0" stroke-linecap="round" stroke-linejoin="round" d="M109.09 266.12C111.43 266.12 117.77 266.32 124.72 266.12C131.67 265.92 146.91 264.52 155.40 264.76C163.89 265.00 175.05 267.17 181.32 267.75C187.60 268.32 194.30 268.44 197.21 268.58C199.53 268.70 198.37 268.64 200.69 268.71C210.28 268.96 251.57 270.05 261.16 270.29C263.45 270.35 262.30 270.28 264.60 270.29C274.54 270.34 317.49 270.58 327.40 270.64C329.58 270.65 328.49 270.64 330.67 270.64C335.11 270.62 345.78 270.89 357.00 270.53C368.22 270.18 397.53 268.63 405.47 268.26C408.41 268.13 406.94 268.09 409.88 268.11C419.45 268.16 460.00 268.51 469.25 268.58C470.78 268.59 470.02 268.57 471.55 268.56C479.23 268.50 512.73 268.26 520.47 268.20C522.26 268.19 521.37 268.24 523.15 268.20C528.19 268.09 549.26 267.53 554.08 267.44C554.92 267.42 554.50 267.54 555.33 267.58C556.46 267.63 560.43 267.99 561.61 267.76C562.78 267.53 563.00 266.49 563.17 266.05C563.34 265.60 562.91 265.03 562.75 264.80C562.58 264.58 562.55 264.65 562.09 264.54C560.80 264.24 556.21 263.13 554.21 262.81C552.20 262.48 552.39 262.42 548.71 262.39C539.31 262.31 500.95 262.28 491.56 262.26C487.89 262.25 489.72 262.26 486.06 262.26C472.77 262.26 421.25 262.10 402.93 262.28C384.61 262.45 370.61 263.24 363.93 263.41C360.25 263.51 362.08 263.57 358.40 263.41C352.62 263.17 335.19 262.06 325.39 261.79C315.60 261.52 298.51 261.63 293.11 261.62C290.63 261.61 291.87 261.60 289.39 261.70C286.30 261.83 283.33 261.51 272.55 262.47C261.77 263.42 226.10 267.22 217.52 268.08C216.09 268.22 216.80 268.06 215.37 268.18C210.86 268.57 194.02 270.35 187.48 270.65C180.94 270.95 174.49 270.25 171.79 270.16C170.25 270.11 171.03 270.06 169.48 270.02C165.97 269.94 153.06 269.52 148.38 269.60C143.70 269.68 140.01 270.38 138.29 270.55C137.39 270.64 137.84 270.60 136.94 270.72C134.01 271.10 121.52 272.72 118.80 273.09C118.72 273.10 118.78 273.13 118.76 273.20C118.50 274.02 117.33 277.74 117.07 278.57C117.04 278.67 116.98 278.64 117.05 278.72C117.21 278.91 117.46 279.50 118.13 279.82C118.79 280.14 119.30 280.44 121.51 280.86C123.73 281.27 125.54 282.18 132.90 282.58C140.26 282.97 164.21 283.35 170.60 283.49C173.86 283.56 172.23 283.50 175.50 283.49C189.41 283.44 249.59 283.19 263.33 283.14C265.80 283.13 264.57 283.18 267.04 283.14C270.14 283.09 282.25 283.23 283.99 282.81C285.73 282.40 280.30 280.95 278.64 280.40C276.99 279.85 274.41 279.41 272.97 279.15C271.53 278.88 271.68 278.81 269.06 278.66C265.95 278.48 263.46 277.93 252.23 277.92C236.66 277.91 178.85 278.50 165.28 278.59C162.94 278.60 164.11 278.63 161.77 278.52C158.64 278.36 147.03 277.53 144.46 277.54C143.72 277.55 144.39 278.31 144.66 278.64C144.93 278.97 145.42 279.35 146.25 279.76C147.07 280.17 149.09 280.99 150.14 281.37C151.19 281.74 151.50 281.84 153.23 282.25C154.97 282.67 158.56 283.67 161.68 284.15C164.80 284.63 169.84 285.20 174.04 285.45C178.24 285.71 180.18 285.96 189.68 285.85C199.18 285.73 226.33 284.66 237.37 284.69C248.41 284.72 258.84 285.80 263.25 286.05C265.56 286.17 264.40 286.15 266.71 286.31C271.84 286.65 289.14 288.17 297.45 288.34C305.77 288.51 318.13 287.62 322.16 287.47C323.58 287.41 322.87 287.48 324.29 287.34C325.79 287.20 328.83 287.07 332.15 286.50C335.46 285.92 344.25 283.94 346.39 283.49C346.41 283.49 346.45 283.50 346.43 283.49C345.20 283.13 341.73 281.93 338.19 281.10C334.65 280.28 328.37 278.81 322.82 277.99C317.26 277.16 305.24 275.98 301.12 275.60C297.29 275.25 299.20 275.24 295.35 275.45C287.36 275.87 256.81 277.77 247.84 278.45C239.60 279.08 237.39 279.78 235.55 280.02"/><path fill="none" stroke="#ffd873" stroke-opacity="0.5" stroke-width="13.0" stroke-linecap="round" stroke-linejoin="round" d="M113.95 447.82C115.85 447.80 120.54 447.39 126.64 447.72C132.74 448.04 146.36 449.88 154.62 449.97C162.88 450.05 169.39 448.50 181.71 448.30C194.02 448.10 228.14 448.58 236.71 448.62C238.15 448.63 238.31 448.56 238.86 448.55C239.42 448.54 241.44 448.66 240.41 448.55C237.79 448.27 229.90 447.13 221.42 446.71C212.93 446.30 193.12 445.87 183.82 445.78C174.53 445.69 167.89 445.81 159.45 446.12C151.00 446.43 132.55 447.55 127.52 447.83C126.45 447.89 126.27 447.87 125.91 447.97C125.55 448.07 124.53 448.29 125.13 448.48C126.25 448.83 127.78 449.77 133.42 450.32C139.13 450.87 147.07 451.78 163.19 452.19C179.30 452.59 216.82 452.90 240.85 453.01C264.88 453.12 309.29 452.95 323.40 452.92C331.07 452.90 327.23 452.82 334.91 452.79C346.28 452.74 383.25 452.82 399.24 452.61C415.22 452.39 438.35 451.99 441.47 451.35C444.60 450.72 427.07 449.10 420.05 448.38C413.02 447.65 400.84 446.88 394.65 446.53C388.46 446.17 389.36 445.95 378.77 446.00C354.83 446.12 257.57 446.98 235.07 447.31C230.84 447.37 228.88 447.98 228.78 448.17C228.68 448.37 232.56 448.50 234.42 448.61C236.28 448.73 236.67 448.86 241.20 448.94C248.64 449.05 266.43 449.52 284.03 449.39C301.62 449.27 334.47 448.29 358.50 448.10C382.53 447.91 423.77 447.95 444.22 448.12C464.68 448.28 486.22 449.03 494.87 449.20C499.55 449.29 497.21 449.27 501.89 449.24C506.80 449.21 520.55 449.37 527.59 448.99C534.63 448.61 544.47 447.36 548.82 446.73C553.16 446.11 557.43 445.14 556.54 444.84C555.64 444.53 545.94 444.71 542.85 444.69C539.76 444.67 540.55 444.77 535.95 444.72C522.64 444.56 473.85 443.74 454.08 443.65C434.32 443.57 414.12 443.90 404.20 444.16C394.29 444.42 390.42 445.19 387.97 445.37C387.89 445.38 387.77 445.36 387.85 445.36C394.47 445.49 418.94 446.14 432.11 446.28C445.28 446.42 465.48 446.45 475.68 446.28C485.88 446.12 491.29 445.82 500.11 445.20C508.94 444.57 526.56 442.52 534.51 442.10C542.47 441.67 549.81 442.28 553.16 442.36C555.65 442.42 554.41 442.39 556.89 442.63C559.56 442.89 569.44 443.57 570.96 444.08C572.49 444.60 568.79 445.61 567.04 446.07C565.28 446.52 564.48 446.93 559.25 447.11C552.36 447.35 527.95 447.51 521.10 447.62C516.09 447.70 518.60 447.71 513.59 447.82C501.70 448.08 455.32 448.83 441.87 449.39C429.81 449.89 426.00 451.05 423.90 451.53C421.80 452.01 425.81 452.31 427.87 452.59C429.92 452.87 435.01 453.21 437.59 453.38C440.17 453.54 440.99 453.63 445.06 453.69C449.13 453.75 453.34 454.18 464.74 453.77C476.14 453.36 506.42 451.47 521.08 450.95C535.74 450.42 554.79 450.54 562.47 450.29C569.07 450.08 570.56 449.60 572.33 449.28C573.80 449.01 573.98 448.38 574.28 448.16C574.46 448.03 574.28 447.87 574.28 447.82"/><path fill="none" stroke="#ffd873" stroke-opacity="0.5" stroke-width="13.0" stroke-linecap="round" stroke-linejoin="round" d="M115.69 466.23C121.39 466.13 140.87 465.39 153.69 465.54C166.50 465.68 190.65 466.95 201.11 467.21C211.57 467.47 217.27 467.36 223.42 467.25C229.58 467.14 236.23 466.89 242.12 466.48C248.01 466.08 258.93 464.90 262.71 464.55C265.77 464.27 264.66 464.31 267.31 464.15C269.96 463.99 273.63 463.54 280.36 463.46C287.09 463.37 297.51 463.15 312.17 463.57C326.83 464.00 367.17 465.82 378.10 466.29C382.71 466.49 380.40 466.54 385.01 466.70C390.52 466.89 397.07 467.95 414.81 467.56C432.55 467.17 489.13 464.63 503.29 464.10C507.25 463.95 505.27 464.04 509.24 464.01C514.89 463.97 531.06 463.63 540.98 463.80C550.91 463.98 572.40 465.03 575.40 465.20C578.40 465.36 564.40 465.01 560.99 464.90C557.58 464.78 558.22 464.60 552.66 464.45C541.37 464.16 504.65 463.56 485.72 462.95C466.79 462.34 439.13 460.83 426.47 460.39C413.81 459.94 408.59 459.96 401.30 459.95C394.01 459.94 387.21 459.99 377.87 460.33C368.53 460.68 346.00 461.95 339.03 462.26C333.94 462.49 336.48 462.36 331.39 462.44C322.57 462.57 298.13 463.39 280.25 463.13C262.37 462.86 223.20 461.05 212.17 460.68C208.54 460.55 209.98 460.59 206.72 460.61C203.47 460.63 195.62 460.54 190.44 460.79C185.27 461.04 182.29 461.17 172.23 462.28C162.17 463.38 133.56 466.63 123.38 468.15C113.19 469.67 107.24 471.73 104.32 472.39C104.06 472.45 103.90 472.25 103.94 472.52C104.00 473.00 104.22 474.76 104.73 475.59C105.24 476.42 105.41 477.29 107.33 478.06C109.24 478.83 114.58 480.16 117.51 480.72C120.43 481.29 120.58 481.41 126.83 481.84C133.77 482.32 149.14 483.53 163.75 483.90C178.36 484.28 213.83 484.26 224.23 484.32C230.10 484.36 229.40 484.34 233.04 484.30C236.68 484.27 248.23 484.88 248.51 484.11C248.79 483.34 239.47 480.34 234.91 479.14C230.35 477.95 229.46 476.95 218.11 476.15C204.20 475.16 154.46 473.11 142.16 472.55C138.15 472.37 140.15 472.25 136.14 472.47C131.57 472.71 115.93 473.73 111.69 474.20C108.99 474.51 108.47 475.25 107.88 475.63C107.28 476.00 107.59 476.37 107.74 476.72C107.90 477.08 108.30 477.61 108.92 478.00C109.54 478.39 110.64 478.93 111.88 479.33C113.11 479.73 113.57 480.11 117.17 480.68C122.54 481.51 139.19 484.08 147.69 484.91C156.19 485.74 166.08 486.11 173.81 486.21C181.53 486.32 193.64 485.79 199.17 485.62C204.70 485.45 203.01 485.60 210.67 485.09C218.45 484.58 244.16 482.92 251.01 482.21C254.74 481.83 255.25 480.91 256.32 480.37C257.39 479.82 257.83 478.94 258.15 478.57C258.46 478.19 258.36 478.12 258.45 477.88C258.54 477.63 258.87 477.17 258.75 476.94C258.63 476.71 258.48 476.47 257.67 476.34C255.78 476.04 253.88 475.40 246.18 474.91C231.57 473.97 173.85 470.83 160.25 470.12C157.10 469.96 158.67 470.01 155.53 470.15C150.49 470.39 132.19 472.50 126.69 471.70C121.20 470.90 120.37 466.32 118.87 464.80C117.38 463.27 117.09 462.08 116.71 461.51C116.49 461.19 115.96 461.09 116.35 461.04C120.25 460.54 135.33 458.70 142.67 458.18C150.02 457.66 158.96 457.06 165.34 457.59C171.71 458.12 182.20 461.09 185.17 461.71"/><path fill="none" stroke="#98c2ff" stroke-opacity="0.5" stroke-width="13.0" stroke-linecap="round" stroke-linejoin="round" d="M456.85 483.25C458.59 483.09 460.68 482.29 468.43 482.19C479.88 482.04 522.74 482.28 533.18 482.28C536.40 482.28 534.79 482.27 538.01 482.21C544.12 482.10 568.54 481.62 573.93 481.52"/><path fill="none" stroke="#98c2ff" stroke-opacity="0.5" stroke-width="13.0" stroke-linecap="round" stroke-linejoin="round" d="M117.43 498.19C116.80 498.13 112.01 497.96 113.25 497.78C114.48 497.60 119.27 496.91 125.68 496.98C132.09 497.05 147.37 498.24 156.00 498.27C164.63 498.29 178.45 497.32 183.21 497.15C186.21 497.04 184.71 497.10 187.72 497.15C197.94 497.32 241.27 498.14 251.32 498.31C253.58 498.35 252.45 498.28 254.72 498.26C264.18 498.17 304.95 497.84 314.36 497.73C316.45 497.71 315.40 497.55 317.49 497.54C328.45 497.50 376.52 497.50 387.46 497.50C389.47 497.50 388.47 497.52 390.47 497.50C399.02 497.38 435.86 496.86 444.46 496.73C446.67 496.70 445.56 496.71 447.78 496.69C452.27 496.65 465.65 496.38 474.40 496.45C483.16 496.51 500.81 497.04 506.14 497.15C508.66 497.20 507.40 497.14 509.92 497.15C518.09 497.18 552.56 497.33 560.61 497.38C562.58 497.39 561.59 497.45 563.56 497.50C566.60 497.57 578.07 497.90 580.88 497.84C581.91 497.83 582.06 497.25 582.27 497.15"/><path fill="none" stroke="#98c2ff" stroke-opacity="0.5" stroke-width="13.0" stroke-linecap="round" stroke-linejoin="round" d="M110.48 515.56C110.80 515.47 111.13 515.03 112.62 514.92C114.78 514.77 120.81 514.45 124.89 514.52C128.96 514.58 135.17 515.34 139.77 515.37C144.37 515.39 150.39 514.73 155.55 514.69C160.71 514.66 170.58 515.06 174.15 515.16C177.64 515.26 175.89 515.22 179.38 515.38C185.92 515.69 203.29 516.97 217.80 517.22C232.30 517.47 266.52 517.06 276.06 517.06C279.61 517.06 277.84 517.23 281.39 517.22C285.93 517.20 295.08 517.29 306.32 516.93C317.55 516.56 346.90 515.28 356.30 514.78C364.78 514.32 366.90 513.79 368.99 513.59C369.81 513.51 369.85 513.56 370.22 513.44C370.59 513.31 371.65 513.12 371.43 512.76C371.22 512.41 370.84 511.57 368.82 511.06C366.66 510.50 365.01 509.34 357.07 509.08C342.37 508.60 284.97 508.08 270.80 507.85C265.31 507.75 268.05 507.78 262.57 507.52C254.09 507.11 234.86 505.43 214.26 505.14C193.66 504.84 139.32 505.46 125.24 505.55C122.00 505.57 123.61 505.52 120.38 505.73C116.38 505.99 93.14 507.06 98.57 507.28C104.00 507.49 140.34 506.77 156.58 507.16C172.82 507.54 197.51 509.30 206.85 509.85C214.85 510.32 210.83 510.36 218.84 510.85C227.61 511.38 236.87 512.71 265.33 513.39C293.80 514.07 386.46 515.05 408.58 515.36C411.40 515.40 409.99 515.56 412.82 515.49C417.62 515.37 430.35 515.09 440.62 514.58C450.89 514.08 472.18 512.50 481.28 512.14C490.39 511.78 495.87 511.99 501.31 512.17C506.74 512.34 514.37 513.07 517.51 513.30C520.65 513.53 519.08 513.58 522.24 513.70C527.16 513.89 542.78 514.63 550.32 514.55C557.86 514.47 571.15 513.99 572.50 513.16C573.86 512.34 562.34 509.86 559.36 509.05C556.38 508.25 554.91 508.14 552.62 507.80C550.33 507.46 549.81 507.14 544.11 506.79C537.61 506.39 520.36 505.42 509.29 505.15C498.23 504.88 487.62 504.39 470.33 504.97C453.05 505.56 409.17 508.29 394.05 509.03C378.94 509.77 375.86 509.81 369.57 509.92C363.28 510.03 354.99 509.80 352.13 509.77C351.05 509.75 350.93 509.72 350.51 509.70C350.09 509.67 348.55 509.55 349.33 509.59C353.45 509.84 369.75 511.07 377.97 511.35C386.19 511.63 387.85 511.73 404.14 511.45C420.43 511.17 469.43 510.05 486.57 509.48C503.70 508.92 512.42 508.03 518.39 507.69C523.72 507.38 521.56 507.38 526.38 507.19C531.19 507.01 543.61 506.41 550.50 506.47C557.39 506.53 568.34 507.24 572.31 507.58C575.50 507.85 576.07 508.24 576.97 508.74C577.88 509.24 578.10 510.54 578.33 510.90C578.43 511.05 578.65 511.02 578.49 511.11C578.08 511.34 577.08 512.19 575.60 512.40C574.12 512.61 573.27 512.87 568.64 512.52C563.23 512.11 543.90 510.09 539.53 509.66"/><path fill="none" stroke="#98c2ff" stroke-opacity="0.5" stroke-width="13.0" stroke-linecap="round" stroke-linejoin="round" d="M115.69 527.03C114.89 527.04 107.52 526.62 110.35 527.08C113.17 527.54 125.58 529.31 134.54 530.09C143.50 530.88 152.62 531.91 170.10 532.29C187.58 532.67 237.68 532.58 251.07 532.62C256.61 532.64 254.62 532.69 259.37 532.58C264.13 532.48 274.24 532.33 282.75 531.93C291.27 531.52 314.43 530.72 316.11 529.86C317.80 529.01 301.62 526.96 293.98 526.23C286.33 525.50 271.00 525.22 265.14 525.00C259.28 524.78 261.73 524.87 254.90 524.78C239.03 524.56 181.59 523.46 159.32 523.52C137.06 523.59 114.70 524.97 106.49 525.23C105.21 525.27 104.93 525.26 104.57 525.26C104.24 525.27 103.77 525.19 104.08 525.26C105.56 525.59 109.84 526.85 114.41 527.47C118.98 528.08 121.92 528.99 134.54 529.33C147.17 529.68 176.57 529.15 198.60 529.74C220.63 530.33 267.30 532.70 281.42 533.25C288.95 533.54 287.72 533.39 292.73 533.37C297.74 533.35 302.90 533.53 314.82 533.11C326.73 532.69 354.10 530.88 372.18 530.59C390.25 530.30 425.43 531.11 435.32 531.20C437.18 531.21 436.25 531.14 438.10 531.20C442.75 531.34 457.85 532.16 466.27 532.15C474.70 532.15 490.47 531.56 494.29 531.17C496.32 530.96 492.53 529.90 491.74 529.50C490.94 529.11 490.89 528.91 488.98 528.55C485.20 527.84 475.86 525.77 466.50 524.78C457.13 523.80 439.01 522.43 426.55 521.97C414.10 521.50 399.32 521.45 383.48 521.68C367.64 521.91 333.40 523.37 320.96 523.49C308.52 523.62 303.60 522.67 300.57 522.52C300.44 522.51 300.63 522.47 300.76 522.48C316.19 522.57 369.51 523.27 403.49 523.12C437.46 522.96 507.90 521.69 527.27 521.44C530.82 521.40 529.05 521.39 532.60 521.46C538.01 521.57 558.84 521.65 563.37 522.20C565.35 522.44 563.23 524.50 562.80 525.14C562.37 525.78 562.27 526.29 560.52 526.48C557.45 526.82 546.74 527.27 542.36 527.40C537.97 527.53 538.67 527.42 531.29 527.36C522.36 527.27 492.00 526.76 482.78 526.85C474.15 526.92 470.79 527.51 469.87 527.90C468.96 528.29 472.04 529.02 476.66 529.44C481.56 529.87 495.49 530.63 502.55 530.81C509.60 531.00 515.81 530.92 523.72 530.66C531.62 530.40 549.80 529.33 555.24 529.05C558.38 528.89 556.99 528.97 559.95 528.77C562.91 528.57 572.68 528.02 574.98 527.71C575.68 527.61 575.38 527.09 575.33 526.71C575.28 526.33 574.79 525.48 574.65 525.18C574.51 524.88 574.54 524.91 574.39 524.68C574.25 524.45 574.12 523.85 573.68 523.63C573.25 523.41 571.82 523.27 571.50 523.21"/><path fill="none" stroke="#98c2ff" stroke-opacity="0.5" stroke-width="13.0" stroke-linecap="round" stroke-linejoin="round" d="M113.60 545.09C117.66 545.39 129.89 546.51 140.66 547.08C151.43 547.65 172.70 548.25 185.38 548.89C198.05 549.53 212.84 551.14 225.17 551.35C237.50 551.57 259.98 550.50 267.56 550.30C273.03 550.15 270.29 550.03 275.76 549.96C284.07 549.85 316.01 549.81 323.01 549.58C323.89 549.55 322.77 548.77 322.37 548.42C321.97 548.07 321.82 547.75 320.34 547.25C318.51 546.64 314.44 545.11 310.17 544.36C305.90 543.60 300.11 542.78 291.87 542.23C283.62 541.69 266.65 541.05 255.20 540.73C243.75 540.40 227.39 540.06 215.54 540.04C203.69 540.03 190.24 539.91 176.18 540.63C162.12 541.34 130.75 544.14 121.80 544.80C118.29 545.05 118.70 545.04 116.52 544.98C114.33 544.92 108.79 544.59 107.25 544.39C106.43 544.29 105.83 543.91 106.26 543.65C106.69 543.39 107.74 542.98 110.12 542.66C112.50 542.35 116.78 541.81 122.14 541.56C127.50 541.31 130.06 540.64 145.84 540.99C161.62 541.33 208.93 543.34 227.34 543.86C245.75 544.39 260.81 544.36 268.60 544.51C275.71 544.64 272.15 544.73 279.27 544.84C287.66 544.97 316.09 545.38 324.54 545.37C331.93 545.36 333.94 544.84 335.60 544.75C335.60 544.75 335.60 544.75 335.60 544.75C335.60 544.75 335.60 544.75 335.60 544.75"/><path fill="none" stroke="#d1000d" stroke-width="1.5" stroke-linecap="round" stroke-linejoin="round" d="M113.95 507.23C118.13 507.06 131.20 506.27 141.82 506.12C152.44 505.97 176.06 506.11 184.73 506.26C193.39 506.41 196.69 506.99 199.58 507.13C202.48 507.27 201.07 507.20 204.03 507.20C211.82 507.21 237.22 507.40 251.52 507.21C265.82 507.02 291.36 506.14 299.37 505.94C303.05 505.84 301.21 505.87 304.90 505.85C320.84 505.78 389.87 505.52 405.68 505.46C408.77 505.45 407.23 505.45 410.31 505.48C426.01 505.65 494.63 506.39 510.32 506.59C513.40 506.63 511.86 506.75 514.94 506.82C523.96 507.02 562.13 507.75 570.45 507.92"/><path fill="none" stroke="#d1000d" stroke-width="1.5" stroke-linecap="round" stroke-linejoin="round" d="M114.30 521.47C123.28 521.49 159.75 521.46 174.14 521.61C188.53 521.76 204.15 522.33 210.24 522.47C213.26 522.54 211.75 522.51 214.77 522.52C227.75 522.58 283.79 522.81 296.74 522.86C299.63 522.87 298.18 522.79 301.08 522.83C308.54 522.93 332.25 523.71 346.50 523.51C360.75 523.30 388.62 521.77 396.05 521.47"/><path fill="none" stroke="#d1000d" stroke-width="1.5" stroke-linecap="round" stroke-linejoin="round" d="M263.69 508.61C263.37 507.96 262.21 505.07 261.60 504.27C260.99 503.47 260.98 503.62 259.63 503.29C258.28 502.97 257.35 502.32 252.60 502.10C246.72 501.83 226.50 501.33 220.42 501.47C214.73 501.61 213.47 502.77 212.03 503.06C211.22 503.22 211.63 503.15 210.84 503.40C210.00 503.67 207.33 504.44 206.48 504.83C205.64 505.22 205.61 505.37 205.19 506.00C204.77 506.63 203.96 508.17 203.66 509.04C203.37 509.92 203.21 511.03 203.20 511.84C203.20 512.65 203.37 513.77 203.62 514.44C203.87 515.11 203.84 515.47 204.87 516.31C205.90 517.16 209.28 519.38 210.48 520.07C211.67 520.76 211.18 520.69 212.83 520.90C215.19 521.20 220.85 522.07 226.20 522.08C231.55 522.09 242.69 521.54 248.50 520.97C254.30 520.39 261.42 519.02 264.93 518.27C268.43 517.53 270.71 516.46 271.87 515.99C272.61 515.69 272.55 515.90 272.69 515.12C272.82 514.33 273.04 511.94 272.78 510.76C272.53 509.59 271.88 508.22 270.98 507.28C270.08 506.33 267.94 505.03 266.79 504.46C265.64 503.88 265.71 503.66 263.31 503.45C260.49 503.21 255.17 502.43 247.99 502.84C240.80 503.24 220.71 505.60 215.40 506.14C213.53 506.33 213.88 506.34 212.60 506.42C211.32 506.51 208.07 506.36 206.86 506.71C205.64 507.06 204.86 507.70 204.51 508.76C204.16 509.82 204.15 512.42 204.51 513.76C204.87 515.11 206.21 516.87 206.88 517.71C207.56 518.55 207.64 518.81 209.00 519.36C210.36 519.91 211.67 520.99 215.95 521.37C220.22 521.76 233.46 521.86 237.50 521.93C241.08 522.00 240.51 521.96 242.88 521.86C245.24 521.75 249.87 521.65 253.25 521.24C256.63 520.83 263.09 519.72 265.41 519.11C267.74 518.50 268.19 517.65 268.77 517.16C269.35 516.66 269.28 516.36 269.30 515.81C269.32 515.26 268.96 513.83 268.90 513.48"/><path fill="none" stroke="#ffd873" stroke-opacity="0.5" stroke-width="13.0" stroke-linecap="round" stroke-linejoin="round" d="M212.27 512.44C213.17 512.80 213.98 514.49 218.29 514.88C223.10 515.32 239.09 515.55 244.35 515.34C249.62 515.13 251.79 513.91 253.38 513.45C254.63 513.09 254.65 512.63 254.93 512.27C255.21 511.91 255.55 511.62 255.23 511.07C254.92 510.53 254.74 509.38 252.84 508.63C250.94 507.88 246.29 506.51 242.57 506.08C238.85 505.64 231.54 505.59 228.06 505.71C224.58 505.84 221.13 506.63 219.37 506.92C217.61 507.22 217.38 507.31 216.33 507.70C215.28 508.09 212.88 508.93 212.35 509.53C211.81 510.13 212.47 511.12 212.75 511.68C213.04 512.23 213.54 512.78 214.23 513.23C214.92 513.68 216.15 514.30 217.34 514.66C218.53 515.02 220.49 515.43 222.17 515.63C223.85 515.83 225.36 516.12 228.53 516.01C231.70 515.90 238.58 515.55 243.30 514.91C248.01 514.27 256.82 512.52 259.98 511.74C263.09 510.97 263.65 510.15 264.34 509.70C264.91 509.32 264.95 509.13 264.58 508.70C264.21 508.26 262.69 507.21 261.87 506.79C261.05 506.37 260.76 506.22 259.13 505.89C257.50 505.55 253.88 504.73 251.00 504.54C248.11 504.35 244.17 504.22 239.89 504.61C235.61 505.00 226.13 506.49 222.48 507.13C218.83 507.77 216.95 508.42 215.56 508.90C214.18 509.39 213.33 509.82 213.25 510.38C213.18 510.94 214.39 512.05 215.06 512.61C215.73 513.17 215.97 513.49 217.73 514.12C219.49 514.74 224.54 516.30 226.80 516.79C229.06 517.29 230.00 517.39 232.81 517.42C235.62 517.46 242.76 517.18 245.51 517.03C248.26 516.88 248.56 516.86 251.14 516.42C253.71 515.97 260.81 514.65 262.66 514.04C263.84 513.65 263.38 513.19 263.47 512.37C263.57 511.54 264.42 509.42 263.29 508.56C262.16 507.69 260.41 507.03 255.94 506.61C251.46 506.19 237.68 505.90 233.47 505.77C229.72 505.66 231.03 505.64 227.85 505.77C224.66 505.90 215.14 506.32 212.23 506.64C209.58 506.92 209.28 507.43 208.42 507.85C207.57 508.27 206.54 508.75 206.53 509.43C206.52 510.11 207.78 511.76 208.37 512.41C208.96 513.07 208.92 513.23 210.45 513.81C211.97 514.39 215.41 515.68 218.55 516.27C221.68 516.86 227.54 517.48 231.36 517.72C235.18 517.96 241.35 517.91 244.00 517.89C246.66 517.86 246.09 517.93 249.05 517.57C252.02 517.21 261.11 516.15 263.78 515.48C266.27 514.86 266.31 513.98 266.85 513.15C267.39 512.32 267.83 510.92 267.38 509.94C266.93 508.96 265.33 507.34 263.84 506.62C262.35 505.90 261.19 505.35 257.44 505.14C253.70 504.92 242.65 505.14 238.86 505.22C235.08 505.30 236.54 505.30 232.19 505.67C227.85 506.04 213.75 507.19 209.90 507.67C207.52 507.97 206.77 508.43 206.50 508.88C206.24 509.33 207.86 510.43 208.10 510.70"/><path fill="none" stroke="#ffd873" stroke-opacity="0.5" stroke-width="13.0" stroke-linecap="round" stroke-linejoin="round" d=""/><path fill="none" stroke="#d1000d" stroke-width="1.5" stroke-linecap="round" stroke-linejoin="round" d="M349.15 437.05C348.77 437.31 345.19 440.26 346.62 438.79C350.49 434.83 369.09 416.28 374.93 410.62C380.77 404.95 384.06 402.41 385.56 401.01C385.89 400.70 385.03 401.23 384.94 401.26"/><path fill="none" stroke="#d1000d" stroke-width="1.5" stroke-linecap="round" stroke-linejoin="round" d="M390.49 391.88C390.24 391.96 389.13 392.10 388.79 392.41C388.44 392.72 388.20 393.28 388.19 393.95C388.18 394.63 388.46 396.33 388.70 396.89C388.94 397.45 389.27 397.67 389.80 397.68C390.33 397.70 391.63 397.60 392.21 396.99C392.78 396.38 393.41 394.13 393.62 393.62"/><path fill="none" stroke="#d1000d" stroke-width="1.5" stroke-linecap="round" stroke-linejoin="round" d="M393.62 387.02C393.93 387.90 395.20 391.73 395.66 392.86C396.13 393.98 396.40 394.27 396.72 394.54C397.04 394.81 397.63 394.64 397.79 394.66"/><path fill="none" stroke="#d1000d" stroke-width="1.5" stroke-linecap="round" stroke-linejoin="round" d="M396.40 386.32C396.87 387.26 399.06 391.64 399.53 392.58"/><path fill="none" stroke="#d1000d" stroke-width="1.5" stroke-linecap="round" stroke-linejoin="round" d="M396.40 391.88C396.51 391.48 396.76 389.81 397.12 389.18C397.48 388.55 398.57 387.93 398.83 387.71"/><path fill="none" stroke="#d1000d" stroke-width="1.5" stroke-linecap="round" stroke-linejoin="round" d="M404.74 388.06C404.67 388.04 404.19 388.11 404.30 387.89C404.40 387.68 405.04 386.90 405.45 386.64C405.86 386.38 406.79 385.74 407.03 386.17C407.26 386.60 406.63 389.16 407.01 389.49C407.39 389.82 409.21 388.14 409.57 388.35C409.93 388.56 409.57 390.37 409.42 390.90C409.27 391.42 408.90 391.55 408.56 391.86C408.22 392.16 407.38 392.77 407.17 392.93"/><path fill="none" stroke="#ffd873" stroke-opacity="0.5" stroke-width="13.0" stroke-linecap="round" stroke-linejoin="round" d="M585.05 902.58C590.28 902.48 607.04 901.73 619.93 901.89C632.81 902.05 662.66 903.39 670.96 903.65C673.82 903.74 672.39 903.64 675.25 903.62C688.45 903.56 745.73 903.28 759.02 903.19C762.25 903.17 760.64 903.20 763.86 903.08C769.91 902.84 792.51 901.80 799.35 901.62C806.10 901.45 807.96 901.85 809.48 901.89"/><path fill="none" stroke="#ffd873" stroke-opacity="0.5" stroke-width="13.0" stroke-linecap="round" stroke-linejoin="round" d="M581.57 918.22C581.59 917.77 581.49 915.85 581.70 915.27C581.91 914.70 581.94 914.52 582.96 914.37C585.92 913.91 596.87 912.63 601.45 912.23C606.03 911.84 605.46 911.64 613.49 911.71C622.08 911.78 651.36 912.54 658.72 912.70C661.30 912.75 660.01 912.68 662.58 912.74C666.29 912.83 675.69 912.84 683.44 913.28C691.19 913.72 703.40 915.22 714.25 915.70C725.10 916.18 748.81 916.37 755.77 916.49C759.05 916.55 757.41 916.49 760.69 916.51C769.63 916.56 804.45 916.98 815.35 916.82C826.24 916.66 830.46 915.66 833.33 915.44C834.09 915.39 834.18 915.38 834.46 915.37C834.74 915.37 835.25 915.31 835.20 915.42C835.15 915.54 834.30 916.03 834.14 916.13"/><path fill="none" stroke="#ffd873" stroke-opacity="0.5" stroke-width="13.0" stroke-linecap="round" stroke-linejoin="round" d="M574.62 928.99C578.52 928.47 594.75 926.15 600.58 925.58C606.40 925.00 604.86 924.97 613.45 925.17C626.19 925.46 669.58 927.16 685.55 927.52C701.51 927.89 713.93 927.59 719.90 927.60C723.51 927.60 721.71 927.60 725.32 927.60C734.48 927.59 769.40 927.27 780.96 927.57C792.53 927.88 798.82 929.27 802.44 929.64C804.20 929.82 803.31 929.79 805.06 930.04C807.18 930.34 813.22 931.39 816.59 931.65C819.96 931.91 825.90 931.75 827.54 931.77"/><path fill="none" stroke="#d1000d" stroke-width="1.5" stroke-linecap="round" stroke-linejoin="round" d="M619.79 951.57C621.80 951.55 628.23 951.26 633.23 951.42C638.23 951.58 643.59 952.41 653.12 952.63C662.66 952.85 689.79 952.83 696.82 952.89C698.90 952.91 697.86 952.94 699.95 953.00C705.64 953.17 729.56 953.85 734.78 954.00"/><path fill="none" stroke="#79eb70" stroke-opacity="0.5" stroke-width="13.0" stroke-linecap="round" stroke-linejoin="round" d="M621.52 946.70C621.78 946.55 622.53 945.87 623.26 945.66C623.99 945.45 624.30 945.32 626.41 945.31C632.64 945.31 651.88 945.73 664.75 945.63C677.63 945.53 704.51 944.82 712.25 944.65C714.99 944.58 713.63 944.69 716.36 944.47C719.57 944.21 730.15 943.12 733.67 942.93C737.18 942.74 738.95 943.13 739.79 943.23C740.19 943.28 739.37 943.53 739.30 943.58"/><path fill="none" stroke="#ff9399" stroke-opacity="0.5" stroke-width="13.0" stroke-linecap="round" stroke-linejoin="round" d="M585.00 1001.50C587.57 1001.54 596.48 1001.46 602.13 1001.76C607.78 1002.06 614.30 1003.13 622.67 1003.51C631.03 1003.88 650.74 1004.27 657.90 1004.29C665.06 1004.30 667.56 1003.78 670.40 1003.61C673.24 1003.44 674.15 1003.33 676.84 1003.16C679.53 1002.98 680.66 1002.62 688.34 1002.47C696.43 1002.31 720.64 1001.89 730.78 1002.13C740.92 1002.36 748.68 1003.74 755.92 1004.03C763.17 1004.32 774.81 1004.04 779.10 1004.04C782.71 1004.04 780.91 1004.24 784.51 1004.05C794.62 1003.52 837.20 1001.03 846.50 1000.50"/><path fill="none" stroke="#ff9399" stroke-opacity="0.5" stroke-width="13.0" stroke-linecap="round" stroke-linejoin="round" d="M606.50 1014.00C606.03 1014.05 605.38 1013.70 603.37 1014.31C601.14 1014.99 590.40 1017.94 591.63 1018.51C592.86 1019.08 607.35 1018.19 611.58 1018.10C615.80 1018.01 614.31 1018.05 619.79 1017.90C631.44 1017.59 668.29 1016.30 689.24 1016.01C710.19 1015.71 748.11 1015.97 759.46 1015.94C763.09 1015.93 761.27 1015.89 764.91 1015.84C774.82 1015.70 816.41 1015.13 825.50 1015.00"/><path fill="none" stroke="#ff9399" stroke-opacity="0.5" stroke-width="13.0" stroke-linecap="round" stroke-linejoin="round" d="M587.50 1033.00C587.42 1032.85 586.26 1032.02 587.00 1032.00C592.10 1031.83 611.93 1032.18 621.53 1031.90C631.13 1031.61 642.33 1030.43 650.98 1030.07C659.63 1029.71 674.56 1029.57 679.22 1029.49C681.10 1029.45 680.95 1029.50 682.04 1029.50C683.13 1029.50 685.83 1029.50 686.50 1029.50"/>
</svg>