<?xml version="1.0" encoding="UTF-8"?>
<!DOCTYPE svg PUBLIC "-//W3C//DTD SVG 1.1//EN" "http://www.w3.org/Graphics/SVG/1.1/DTD/svg11.dtd">
<svg  xmlns="http://www.w3.org/2000/svg" xmlns:xlink="http://www.w3.org/1999/xlink" viewport-fill="none" viewBox="0.0, 0.0, 850.2830022285794, 794.6824340820312" version="1.1" height="794.6824340820312" width="850.2830022285794">
<path fill="none" stroke="#ffd873" stroke-opacity="0.5" stroke-width="13.0" stroke-linecap="round" stroke-linejoin="round" d="M142.44 564.55C145.88 564.28 157.41 562.86 165.40 562.75C173.38 562.64 189.16 563.45 195.68 563.82C202.20 564.20 203.33 564.38 208.85 565.25C214.37 566.13 228.19 568.92 232.48 569.63C235.78 570.18 234.14 569.97 237.48 570.02C241.22 570.08 250.62 570.28 257.48 570.02C264.33 569.76 274.52 568.62 283.19 568.31C291.87 567.99 306.97 568.21 315.31 567.93C323.65 567.66 334.46 566.72 338.80 566.47C342.40 566.26 340.60 566.32 344.21 566.25C355.96 566.01 400.43 564.81 417.16 564.85C433.89 564.89 449.25 566.25 455.74 566.52C458.85 566.65 457.29 566.57 460.40 566.63C467.78 566.76 490.42 567.39 504.91 567.38C519.40 567.37 548.41 566.68 556.98 566.57C560.35 566.53 559.49 566.55 562.03 566.66C564.58 566.78 572.14 567.23 573.93 567.33"/><path fill="none" stroke="#ffd873" stroke-opacity="0.5" stroke-width="13.0" stroke-linecap="round" stroke-linejoin="round" d="M107.70 586.09C107.70 585.88 107.56 584.93 107.70 584.70C107.84 584.47 108.01 584.56 108.64 584.57C114.68 584.65 132.31 585.67 147.97 585.20C163.63 584.72 202.34 582.02 213.03 581.42C217.18 581.19 215.11 581.19 219.27 581.23C226.45 581.31 249.71 582.01 260.89 581.95C272.07 581.90 288.49 581.01 293.79 580.85C295.41 580.80 294.60 580.89 296.22 580.88C301.02 580.83 321.27 580.58 325.77 580.53C326.07 580.53 326.10 580.53 326.22 580.53C326.34 580.53 326.52 580.53 326.57 580.53"/><path fill="none" stroke="#ff9399" stroke-opacity="0.5" stroke-width="13.0" stroke-linecap="round" stroke-linejoin="round" d="M251.53 746.59C251.13 746.51 247.16 746.13 248.88 746.01C250.59 745.88 257.58 745.34 262.96 745.75C268.35 746.17 278.09 748.30 284.80 748.80C291.50 749.29 303.47 748.99 307.67 749.03C311.09 749.05 309.38 749.07 312.80 749.03C326.37 748.83 384.63 747.95 398.14 747.75C401.29 747.70 399.71 747.60 402.86 747.65C408.71 747.74 425.28 748.34 437.10 748.38C448.93 748.41 472.69 748.08 481.70 747.87C490.71 747.65 494.07 747.12 497.15 746.93C500.24 746.74 498.84 746.70 502.24 746.60C507.14 746.45 521.06 745.95 529.83 745.95C538.61 745.95 556.09 746.50 560.73 746.59"/><path fill="none" stroke="#ff9399" stroke-opacity="0.5" stroke-width="13.0" stroke-linecap="round" stroke-linejoin="round" d="M120.55 763.27C129.03 763.12 159.11 762.27 177.07 762.30C195.03 762.32 229.84 763.19 240.30 763.42C244.65 763.51 242.46 763.74 246.81 763.81C257.80 764.00 297.49 764.71 313.55 764.69C329.60 764.66 346.69 763.84 353.84 763.63C358.75 763.48 356.82 763.47 361.20 763.27C365.58 763.07 376.47 762.46 383.04 762.32C389.60 762.17 394.76 761.83 404.96 762.29C415.16 762.75 438.82 764.70 451.03 765.37C463.24 766.03 480.29 766.54 486.38 766.74C489.88 766.85 488.13 766.75 491.63 766.71C500.71 766.61 536.11 766.05 546.91 766.05C557.70 766.05 559.80 766.40 563.60 766.71C567.39 767.02 570.90 767.92 572.19 768.13"/><path fill="none" stroke="#ff9399" stroke-opacity="0.5" stroke-width="13.0" stroke-linecap="round" stroke-linejoin="round" d="M112.21 775.43C113.00 775.66 114.61 776.65 117.43 777.00C120.25 777.35 121.94 777.72 131.00 777.76C147.15 777.85 210.18 777.57 225.14 777.54C228.88 777.53 227.01 777.62 230.75 777.55C244.28 777.29 299.12 776.02 315.37 775.83C331.15 775.65 334.59 776.21 339.04 776.33C343.05 776.43 341.05 776.38 345.05 776.63C354.35 777.21 387.66 779.63 401.03 780.18C414.41 780.73 428.33 780.28 434.22 780.29C438.29 780.30 436.92 780.20 440.32 780.24C443.72 780.27 452.39 780.31 456.90 780.53C461.42 780.74 468.38 781.51 470.40 781.68"/><path fill="none" stroke="#d1000d" stroke-width="2.0" stroke-linecap="round" stroke-linejoin="round" d="M691.35 614.92C691.08 614.96 688.27 614.99 689.50 615.17C690.88 615.37 693.15 615.96 700.54 616.25C708.20 616.56 729.34 617.41 740.58 617.24C751.81 617.06 769.40 615.42 775.44 615.07C779.04 614.85 777.24 614.99 780.84 614.86C785.63 614.68 803.41 614.03 807.39 613.88"/><path fill="none" stroke="#d1000d" stroke-width="2.0" stroke-linecap="round" stroke-linejoin="round" d="M586.44 630.56C586.30 630.46 584.80 629.93 585.54 629.89C590.40 629.65 607.48 628.98 618.79 628.92C630.09 628.87 653.98 629.43 660.90 629.51C663.57 629.55 662.23 629.54 664.90 629.51C672.36 629.45 699.17 629.32 710.64 629.09C722.12 628.87 736.08 628.19 741.41 628.02C744.59 627.91 743.00 627.94 746.18 627.90C752.64 627.81 778.72 627.50 784.46 627.43"/><path fill="none" stroke="#d1000d" stroke-width="2.0" stroke-linecap="round" stroke-linejoin="round" d="M590.95 647.23C590.51 647.18 586.03 646.88 588.01 646.86C594.32 646.80 621.67 647.02 632.99 646.86C644.30 646.71 658.19 646.00 663.46 645.83C666.58 645.74 665.02 645.86 668.14 645.78C678.94 645.51 720.94 644.53 735.45 644.03C749.96 643.54 759.74 642.73 764.89 642.47C768.14 642.30 766.51 642.34 769.77 642.27C775.94 642.15 797.65 641.60 806.00 641.67C814.35 641.73 822.54 642.56 825.46 642.72"/><path fill="none" stroke="#d1000d" stroke-width="2.0" stroke-linecap="round" stroke-linejoin="round" d="M586.44 659.05C586.05 659.05 583.39 659.02 583.88 659.10C584.37 659.18 585.99 659.70 589.70 659.58C593.41 659.45 605.36 658.41 608.62 658.27C610.53 658.20 611.02 658.63 611.45 658.70"/><path fill="none" stroke="#79eb70" stroke-opacity="0.5" stroke-width="13.0" stroke-linecap="round" stroke-linejoin="round" d="M638.90 724.36C642.69 724.30 657.14 723.83 664.18 723.97C671.23 724.11 678.69 725.32 685.86 725.28C693.03 725.24 703.98 723.91 711.99 723.70C720.00 723.49 734.48 723.84 739.27 723.87C742.36 723.90 740.81 723.92 743.90 723.96C749.21 724.03 763.32 724.44 774.66 724.35C786.01 724.25 812.87 723.47 819.55 723.32C819.78 723.31 819.26 723.32 819.20 723.32"/><path fill="none" stroke="#79eb70" stroke-opacity="0.5" stroke-width="13.0" stroke-linecap="round" stroke-linejoin="round" d="M585.05 738.95C585.47 738.82 585.91 738.02 587.88 738.10C590.13 738.20 594.96 739.28 600.06 739.59C605.17 739.90 611.24 740.43 621.90 740.18C632.56 739.93 653.85 738.13 671.15 737.92C688.45 737.72 726.51 738.72 737.25 738.81C740.95 738.84 739.10 738.70 742.79 738.53C748.72 738.25 764.66 737.19 776.81 736.94C788.96 736.69 815.93 737.01 823.80 736.84C827.51 736.76 828.46 735.98 829.28 735.82"/><path fill="none" stroke="#79eb70" stroke-opacity="0.5" stroke-width="13.0" stroke-linecap="round" stroke-linejoin="round" d="M590.60 751.11C590.54 751.03 589.70 750.59 590.16 750.57C602.48 750.09 650.05 748.24 672.71 747.94C695.36 747.65 729.80 748.47 741.17 748.58C746.03 748.63 743.60 748.70 748.46 748.69C756.79 748.67 786.39 748.22 796.69 748.43C806.99 748.63 814.05 749.82 817.12 750.07"/><path fill="none" stroke="#79eb70" stroke-opacity="0.5" stroke-width="13.0" stroke-linecap="round" stroke-linejoin="round" d="M591.65 763.96C590.82 764.20 585.75 765.24 586.13 765.56C586.51 765.88 588.80 766.08 594.17 766.09C600.31 766.11 611.71 766.13 627.11 765.66C642.51 765.19 680.54 763.49 696.82 762.97C713.10 762.45 728.93 762.31 735.64 762.19C739.56 762.12 737.60 762.18 741.52 762.20C750.71 762.24 782.94 762.21 796.93 762.48C810.92 762.75 828.72 763.68 834.77 764.01C836.49 764.10 837.10 764.56 837.27 764.66C837.44 764.76 836.09 764.66 835.88 764.66"/><path fill="none" stroke="#79eb70" stroke-opacity="0.5" stroke-width="13.0" stroke-linecap="round" stroke-linejoin="round" d="M581.22 779.60C581.52 779.52 581.84 779.12 583.21 779.05C590.77 778.72 618.09 778.09 631.60 777.39C645.11 776.69 667.04 774.84 673.29 774.39"/>
</svg>