<?xml version="1.0" encoding="UTF-8"?>
<!DOCTYPE svg PUBLIC "-//W3C//DTD SVG 1.1//EN" "http://www.w3.org/Graphics/SVG/1.1/DTD/svg11.dtd">
<svg  xmlns="http://www.w3.org/2000/svg" xmlns:xlink="http://www.w3.org/1999/xlink" viewport-fill="none" viewBox="0.0, 0.0, 847.901716434171, 1059.87210769524" version="1.1" height="1059.87210769524" width="847.901716434171">
<path fill="none" stroke="#ff9399" stroke-opacity="0.5" stroke-width="13.0" stroke-linecap="round" stroke-linejoin="round" d="M362.01 136.19C362.42 135.99 362.72 134.89 364.75 134.85C371.86 134.74 394.44 135.62 409.35 135.39C424.27 135.16 455.09 133.57 464.20 133.30C468.12 133.18 466.16 133.41 470.07 133.58C483.79 134.20 542.36 136.82 555.70 137.40C557.90 137.50 557.42 137.41 559.00 137.49C560.59 137.57 565.04 137.70 566.29 137.92C567.25 138.09 567.17 138.81 567.33 138.97"/><path fill="none" stroke="#ff9399" stroke-opacity="0.5" stroke-width="13.0" stroke-linecap="round" stroke-linejoin="round" d="M108.74 157.73C109.80 157.57 111.04 157.02 115.77 156.67C124.16 156.04 145.91 154.13 164.69 153.57C183.48 153.00 228.98 153.00 241.01 152.90C243.59 152.88 242.30 152.90 244.87 152.95C254.50 153.10 292.58 154.07 305.19 153.95C317.79 153.84 324.61 152.52 328.88 152.18C332.06 151.92 330.47 151.99 333.64 151.69C337.93 151.27 347.86 149.84 357.50 149.42C367.14 149.00 391.17 149.00 397.90 148.89C400.85 148.84 399.37 148.73 402.32 148.69C409.18 148.61 432.86 148.16 443.65 148.35C454.43 148.54 467.90 149.75 474.23 149.96C480.57 150.17 483.27 149.82 485.89 149.74C488.51 149.66 487.82 149.60 491.70 149.44C499.05 149.13 523.69 147.95 534.89 147.68C546.10 147.41 561.53 147.54 566.40 147.64C567.18 147.65 567.19 148.24 567.33 148.35"/><path fill="none" stroke="#ff9399" stroke-opacity="0.5" stroke-width="13.0" stroke-linecap="round" stroke-linejoin="round" d="M119.16 170.23C119.16 170.08 118.50 169.41 119.16 169.19C120.45 168.76 122.36 167.69 127.74 167.38C133.11 167.07 142.86 167.48 155.00 167.12C167.13 166.76 200.48 165.31 208.64 164.98C209.12 164.96 209.12 164.97 209.36 164.91C209.61 164.85 210.24 164.44 210.26 164.56C210.28 164.68 209.61 165.54 209.49 165.72"/><path fill="none" stroke="#c69eff" stroke-opacity="0.5" stroke-width="13.0" stroke-linecap="round" stroke-linejoin="round" d="M226.51 169.89C226.21 169.63 223.74 168.64 224.49 168.21C225.25 167.77 226.78 167.17 231.54 166.98C237.92 166.72 260.27 166.54 267.03 166.49C273.44 166.44 271.71 166.27 276.65 166.63C281.59 167.00 295.64 168.56 299.99 168.91C303.76 169.22 301.88 168.88 305.67 168.99C314.26 169.25 341.76 170.66 357.25 170.63C372.75 170.59 400.54 169.09 408.96 168.77C411.93 168.66 410.44 168.68 413.41 168.54C416.76 168.38 426.02 168.12 431.33 167.72C436.64 167.31 442.46 166.10 448.82 165.83C455.17 165.57 469.57 165.93 473.71 165.95C475.53 165.97 474.62 166.01 476.44 166.02C482.09 166.06 501.98 165.86 511.41 166.18C520.83 166.50 534.52 167.85 539.30 168.14C541.93 168.31 540.62 168.07 543.25 168.16C547.43 168.30 564.01 168.88 567.16 169.09C569.15 169.22 564.64 169.47 564.20 169.54"/><path fill="none" stroke="#c69eff" stroke-opacity="0.5" stroke-width="13.0" stroke-linecap="round" stroke-linejoin="round" d="M110.83 185.17C111.37 185.03 111.96 184.38 114.44 184.26C117.43 184.11 127.62 184.28 130.79 184.17C133.96 184.05 135.00 183.58 135.56 183.47C136.12 183.36 134.71 183.44 134.54 183.43C134.48 183.43 134.39 183.44 134.45 183.43C139.82 182.87 164.00 180.30 170.37 179.68C174.72 179.25 172.54 179.36 176.91 179.29C182.77 179.19 200.39 178.74 209.44 179.03C218.49 179.32 230.23 180.82 237.23 181.23C244.23 181.64 252.87 181.68 256.13 181.77C258.01 181.82 257.07 181.74 258.95 181.81C261.44 181.90 270.66 182.30 272.72 182.39"/><path fill="none" stroke="#98c2ff" stroke-opacity="0.5" stroke-width="13.0" stroke-linecap="round" stroke-linejoin="round" d="M284.18 186.56C288.53 186.22 301.31 184.83 313.15 184.31C325.00 183.79 349.30 183.23 363.18 183.09C377.05 182.96 398.48 183.36 405.66 183.42C409.23 183.44 407.44 183.35 411.02 183.45C425.93 183.88 490.49 185.83 505.12 186.24C507.37 186.30 506.24 186.17 508.49 186.19C516.47 186.26 548.43 186.48 558.31 186.70C568.19 186.93 572.22 187.49 574.35 187.68C575.57 187.79 572.81 187.91 572.54 187.95"/><path fill="none" stroke="#98c2ff" stroke-opacity="0.5" stroke-width="13.0" stroke-linecap="round" stroke-linejoin="round" d="M115.69 204.97C118.50 204.61 128.74 202.91 134.45 202.54C140.16 202.17 144.86 202.81 153.77 202.51C162.68 202.21 173.58 200.64 193.86 200.54C214.14 200.44 273.62 201.65 288.99 201.85C293.87 201.91 291.43 201.80 296.31 201.85C308.34 201.96 347.39 202.54 369.16 202.57C390.94 202.60 429.43 202.23 441.48 202.08C446.85 202.01 444.16 201.92 449.51 201.53C459.76 200.78 498.42 197.74 509.81 197.09C520.21 196.50 518.45 196.92 525.44 197.20C532.43 197.48 551.31 198.66 556.43 198.95C558.55 199.07 557.49 198.95 559.60 199.15C562.09 199.39 571.20 200.31 572.99 200.56C573.99 200.70 571.72 200.77 571.50 200.81"/><path fill="none" stroke="#98c2ff" stroke-opacity="0.5" stroke-width="13.0" stroke-linecap="round" stroke-linejoin="round" d="M118.12 219.22C117.96 219.27 116.35 219.59 117.08 219.57C120.93 219.46 139.82 218.68 143.83 218.52"/><path fill="none" stroke="#d1000d" stroke-width="1.5" stroke-linecap="round" stroke-linejoin="round" d="M318.93 308.85C319.80 308.76 320.84 308.27 324.72 308.26C330.07 308.25 343.50 308.89 354.60 308.77C365.69 308.65 391.42 307.66 398.69 307.45C401.59 307.36 400.14 307.44 403.04 307.36C407.17 307.25 415.91 306.60 426.23 306.72C436.56 306.84 464.57 307.94 471.89 308.16C473.95 308.22 472.92 308.14 474.99 308.16C480.24 308.21 502.09 308.45 506.88 308.50"/><path fill="none" stroke="#ffd873" stroke-opacity="0.5" stroke-width="13.0" stroke-linecap="round" stroke-linejoin="round" d="M349.85 365.83C349.28 365.42 345.48 363.44 346.09 363.13C346.71 362.82 348.69 363.87 353.93 363.77C359.74 363.67 373.66 362.71 384.78 362.43C395.90 362.15 420.98 361.95 428.07 361.90C430.70 361.88 429.39 361.89 432.01 362.08C439.20 362.60 465.78 364.72 475.94 365.36C486.11 365.99 495.68 366.15 499.75 366.31C501.97 366.40 500.86 366.41 503.07 366.41C513.07 366.44 556.64 366.45 566.39 366.52C567.50 366.53 567.67 366.82 568.02 366.87C568.37 366.92 568.61 366.87 568.72 366.87"/><path fill="none" stroke="#ffd873" stroke-opacity="0.5" stroke-width="13.0" stroke-linecap="round" stroke-linejoin="round" d="M110.48 382.16C115.75 382.00 135.11 381.18 145.62 381.11C156.13 381.05 168.84 381.92 180.56 381.72C192.27 381.52 214.11 380.09 223.71 379.76C233.31 379.42 240.67 379.50 244.58 379.48C248.06 379.46 246.32 379.66 249.80 379.61C258.72 379.50 288.32 378.79 304.01 378.70C319.71 378.60 346.09 378.94 354.44 379.00C357.96 379.03 356.20 379.02 359.71 379.11C365.65 379.27 377.07 380.08 394.04 380.07C411.01 380.06 460.10 379.19 472.84 379.05C476.93 379.01 474.89 379.00 478.97 379.13C487.43 379.39 516.45 380.64 529.23 380.83C542.01 381.02 558.21 380.39 564.19 380.39C567.43 380.39 568.26 380.66 569.04 380.82C569.53 380.92 569.46 381.31 569.41 381.46C569.36 381.61 568.82 381.76 568.72 381.81"/><path fill="none" stroke="#ffd873" stroke-opacity="0.5" stroke-width="13.0" stroke-linecap="round" stroke-linejoin="round" d="M112.21 392.93C114.06 393.11 120.00 393.92 124.52 394.17C129.05 394.43 137.46 394.21 142.39 394.60C147.32 394.99 153.07 396.44 157.40 396.78C161.74 397.12 168.89 396.88 171.29 396.88C172.72 396.88 172.00 396.81 173.42 396.79C174.98 396.77 180.46 396.75 181.70 396.75"/><path fill="none" stroke="#d1000d" stroke-width="1.5" stroke-linecap="round" stroke-linejoin="round" d="M577.75 348.46C578.11 349.03 579.86 350.51 580.18 352.28C580.51 354.05 579.85 358.02 579.92 360.24C579.99 362.46 580.33 365.77 580.63 367.08C580.93 368.38 581.51 368.58 581.94 368.94C582.37 369.31 582.92 369.54 583.51 369.53C584.10 369.53 585.85 368.38 585.87 368.91C585.89 369.44 584.26 370.82 583.63 373.04C583.00 375.26 581.94 381.18 581.66 383.71C581.38 386.24 581.48 387.61 581.73 389.90C581.99 392.19 583.17 397.12 583.37 398.95C583.57 400.78 583.36 401.55 583.07 402.11C582.78 402.68 582.19 402.54 581.45 402.73C580.70 402.91 578.60 403.26 578.10 403.35"/><path fill="none" stroke="#d1000d" stroke-width="1.5" stroke-linecap="round" stroke-linejoin="round" d="M601.37 373.47C601.94 373.36 604.50 373.03 605.14 372.70C605.78 372.38 605.83 371.18 605.64 371.30C605.45 371.41 604.27 372.64 603.86 373.47C603.45 374.29 602.75 376.81 602.90 376.79C603.05 376.77 604.54 373.99 604.88 373.32C605.19 372.71 605.66 371.83 605.17 372.33C604.64 372.87 601.93 376.72 601.32 376.93C600.71 377.15 600.96 373.57 601.11 373.77C601.26 373.97 601.94 377.55 602.29 378.28C602.64 379.02 603.28 378.62 603.46 378.68"/><path fill="none" stroke="#d1000d" stroke-width="1.5" stroke-linecap="round" stroke-linejoin="round" d="M603.11 372.08C603.06 372.03 602.95 371.47 602.76 371.73C602.51 372.10 601.54 374.25 601.40 374.52C601.26 374.80 601.16 373.44 601.84 373.58C602.82 373.78 607.05 375.55 607.98 375.90"/><path fill="none" stroke="#d1000d" stroke-width="1.5" stroke-linecap="round" stroke-linejoin="round" d="M606.59 372.78C606.38 372.67 605.73 371.66 605.20 372.08C604.67 372.50 603.27 375.37 603.06 375.58C602.84 375.79 603.57 373.87 603.76 373.50C603.95 373.12 604.39 372.64 604.32 373.09C604.22 373.71 603.19 377.01 603.11 377.58C603.03 378.16 603.70 377.04 603.81 376.94"/><path fill="none" stroke="#d1000d" stroke-width="1.5" stroke-linecap="round" stroke-linejoin="round" d="M606.93 371.04C606.84 370.76 606.52 369.53 606.31 369.21C606.10 368.89 606.09 368.84 605.53 368.90C604.86 368.97 602.74 369.25 601.82 369.67C600.91 370.09 600.05 370.76 599.42 371.69C598.78 372.62 597.76 374.84 597.59 375.90C597.43 376.96 597.93 377.94 598.31 378.75C598.69 379.57 599.52 380.72 600.15 381.33C600.79 381.93 601.69 382.63 602.55 382.79C603.41 382.94 605.12 382.58 605.89 382.37C606.66 382.16 606.98 381.99 607.71 381.39C608.45 380.80 610.24 379.12 610.79 378.42C611.34 377.73 611.48 377.45 611.39 376.75C611.29 376.04 610.96 374.52 610.18 373.72C609.40 372.93 607.78 371.96 606.19 371.45C604.61 370.94 600.93 370.30 599.60 370.35C598.26 370.40 597.80 370.77 597.27 371.77C596.75 372.76 596.14 375.63 596.11 376.97C596.08 378.32 596.42 379.87 597.05 380.73C597.67 381.60 599.45 382.46 600.28 382.76C601.10 383.06 601.84 382.84 602.53 382.73C603.23 382.63 603.96 382.64 604.91 382.09C605.87 381.54 608.04 380.17 608.87 379.09C609.69 378.02 610.43 376.10 610.42 374.94C610.40 373.78 609.28 372.07 608.75 371.34C608.21 370.62 607.79 370.46 606.85 370.13C605.91 369.81 603.61 369.17 602.49 369.18C601.37 369.18 599.96 369.86 599.36 370.19C598.77 370.52 598.72 370.69 598.53 371.36C598.35 372.04 597.99 373.66 598.12 374.71C598.24 375.75 598.69 377.42 599.38 378.32C600.07 379.22 601.87 380.33 602.72 380.71C603.56 381.10 603.98 381.20 605.02 380.90C606.05 380.59 608.66 379.36 609.60 378.68C610.55 378.00 610.93 377.13 611.32 376.37C611.71 375.61 612.07 374.44 612.19 373.62C612.31 372.81 612.32 371.67 612.12 370.94C611.92 370.20 611.37 369.27 610.85 368.71C610.33 368.16 609.40 367.55 608.65 367.24C607.90 366.93 606.74 366.71 605.87 366.68C604.99 366.65 604.00 366.52 602.84 367.02C601.68 367.52 599.04 369.20 598.14 369.99C597.25 370.79 597.10 371.22 596.88 372.33C596.65 373.43 596.29 376.09 596.62 377.38C596.94 378.68 598.37 380.32 599.04 380.94C599.71 381.57 600.40 381.52 601.08 381.57C601.76 381.62 602.80 381.53 603.58 381.28C604.36 381.03 605.49 380.46 606.29 379.92C607.09 379.39 608.23 378.49 608.94 377.72C609.65 376.95 610.58 375.71 611.00 374.81C611.41 373.91 611.72 372.60 611.70 371.71C611.68 370.82 611.36 369.61 610.86 368.87C610.36 368.13 609.25 367.25 608.37 366.78C607.48 366.32 606.00 365.90 604.98 365.78C603.95 365.65 602.49 365.68 601.53 365.95C600.56 366.21 599.29 366.89 598.54 367.53C597.79 368.17 597.02 369.31 596.55 370.21C596.09 371.10 595.52 372.11 595.46 373.49C595.41 374.87 595.80 378.37 596.18 379.41C596.56 380.46 597.33 380.37 598.00 380.47C598.68 380.57 600.28 380.13 600.68 380.07"/><path fill="none" stroke="#ffd873" stroke-opacity="0.5" stroke-width="13.0" stroke-linecap="round" stroke-linejoin="round" d="M113.26 496.80C118.87 496.40 136.72 494.07 150.67 494.11C164.61 494.14 197.17 496.54 206.20 497.04C209.34 497.21 207.76 497.32 210.90 497.42C217.59 497.64 236.82 498.85 250.81 498.49C264.80 498.14 295.35 495.60 304.18 495.05C307.82 494.82 306.00 494.85 309.65 494.82C322.19 494.74 375.65 494.50 387.78 494.47C389.61 494.47 388.69 494.55 390.52 494.62C396.56 494.86 417.45 495.82 428.09 496.02C438.72 496.23 455.69 496.04 461.42 496.01C464.70 495.99 463.06 495.91 466.33 495.83C478.69 495.51 528.49 494.48 543.85 493.89C559.20 493.31 564.88 492.13 568.72 491.94C569.37 491.91 569.31 492.53 569.41 492.63"/><path fill="none" stroke="#ffd873" stroke-opacity="0.5" stroke-width="13.0" stroke-linecap="round" stroke-linejoin="round" d="M110.13 516.26C119.46 515.84 158.64 513.83 172.35 513.47C186.06 513.11 193.94 513.92 201.50 513.86C209.07 513.81 218.77 513.26 222.80 513.09C226.51 512.93 224.65 512.81 228.36 512.71C233.78 512.55 250.17 511.97 258.94 512.08C267.71 512.18 279.04 513.17 286.80 513.39C294.56 513.60 306.63 513.48 310.65 513.49C312.65 513.49 311.66 513.55 313.65 513.46C317.22 513.31 325.81 512.63 334.41 512.45C343.01 512.27 361.71 512.51 371.01 512.29C380.31 512.08 391.91 511.26 396.42 511.04C399.49 510.89 397.95 510.94 401.02 510.83C405.51 510.67 413.09 509.90 426.33 509.98C439.58 510.07 479.28 511.18 489.33 511.39C491.97 511.45 490.65 511.42 493.29 511.42C504.47 511.41 552.82 511.35 563.86 511.31C565.89 511.30 565.96 511.26 566.90 511.17C567.83 511.08 569.63 510.77 570.11 510.70"/><path fill="none" stroke="#ffd873" stroke-opacity="0.5" stroke-width="13.0" stroke-linecap="round" stroke-linejoin="round" d="M115.69 531.20C115.64 531.09 114.82 530.47 115.34 530.50C117.78 530.63 127.98 531.87 131.96 532.08C135.94 532.30 135.28 532.29 141.88 531.91C150.46 531.41 173.60 529.45 189.16 528.75C204.72 528.05 236.32 527.50 245.60 527.24C249.18 527.14 247.38 527.08 250.97 527.02C256.61 526.93 278.37 526.58 283.19 526.63C283.69 526.64 283.15 527.26 283.14 527.38"/><path fill="none" stroke="#d1000d" stroke-width="1.5" stroke-linecap="round" stroke-linejoin="round" d="M114.65 535.02C120.23 535.29 140.68 536.50 151.90 536.86C163.12 537.21 179.89 537.03 189.44 537.37C198.99 537.71 204.23 538.72 215.55 539.11C226.87 539.50 256.70 539.83 264.92 539.95C268.55 540.01 266.85 540.02 270.36 539.90C273.87 539.79 285.65 539.29 288.35 539.19"/><path fill="none" stroke="#c69eff" stroke-opacity="0.5" stroke-width="13.0" stroke-linecap="round" stroke-linejoin="round" d="M353.32 617.70C353.06 617.67 352.12 617.38 351.57 617.48C351.01 617.58 348.19 618.10 349.59 618.37C350.99 618.65 353.52 619.09 360.91 619.32C368.30 619.54 386.97 619.47 398.84 619.85C410.70 620.23 433.10 621.55 440.01 621.86C443.29 622.00 441.65 621.88 444.93 621.88C454.18 621.88 484.55 622.21 501.69 621.85C518.82 621.48 549.79 619.81 559.17 619.45C562.54 619.31 562.58 619.41 564.23 619.41C565.87 619.41 569.22 619.44 570.11 619.44"/><path fill="none" stroke="#c69eff" stroke-opacity="0.5" stroke-width="13.0" stroke-linecap="round" stroke-linejoin="round" d="M115.34 636.46C116.53 636.31 117.94 635.34 123.28 635.42C129.27 635.51 146.62 636.80 155.25 637.05C163.88 637.30 168.83 637.66 180.80 637.07C192.76 636.48 225.95 633.71 235.01 633.10C239.13 632.82 237.08 632.85 241.21 632.97C249.32 633.22 278.31 634.44 289.14 634.72C299.97 635.00 307.51 634.68 313.41 634.85C319.30 635.02 325.58 635.66 328.44 635.85C331.10 636.02 329.76 636.04 332.44 636.10C345.82 636.40 404.18 637.59 417.65 637.85C420.70 637.91 419.18 637.88 422.22 637.85C426.55 637.82 435.47 637.97 446.47 637.60C457.47 637.24 487.73 635.74 495.56 635.41C497.67 635.32 496.62 635.37 498.72 635.39C510.01 635.50 559.94 636.01 570.80 636.12C571.03 636.12 571.10 636.12 571.15 636.12"/><path fill="none" stroke="#c69eff" stroke-opacity="0.5" stroke-width="13.0" stroke-linecap="round" stroke-linejoin="round" d="M112.21 655.92C115.34 656.03 125.88 656.64 133.03 656.68C140.17 656.72 145.27 656.85 159.86 656.18C174.45 655.51 219.16 652.84 230.29 652.21C232.85 652.06 231.57 652.11 234.12 651.96C240.76 651.57 264.68 649.82 274.53 649.63C284.38 649.45 295.74 650.55 299.81 650.71C301.02 650.76 300.42 650.71 301.63 650.71C309.96 650.71 346.85 650.71 355.36 650.71C357.39 650.71 356.50 650.66 358.40 650.68C360.30 650.70 362.05 650.41 368.03 650.82C374.01 651.23 388.95 653.01 398.26 653.41C407.57 653.81 424.60 653.46 430.10 653.48C433.30 653.49 431.70 653.49 434.90 653.53C439.97 653.58 449.57 654.05 463.88 653.83C478.18 653.61 519.52 652.33 530.27 652.08C533.82 652.00 532.05 652.08 535.59 652.17C544.17 652.38 579.69 653.29 587.48 653.49"/><path fill="none" stroke="#c69eff" stroke-opacity="0.5" stroke-width="13.0" stroke-linecap="round" stroke-linejoin="round" d="M104.92 671.55C108.31 671.86 122.05 673.32 127.50 673.64C132.96 673.96 132.12 674.40 141.29 673.69C151.88 672.86 182.86 668.94 198.12 668.14C213.39 667.34 232.97 668.68 243.06 668.36C253.15 668.03 261.68 666.35 265.40 665.94C267.04 665.76 267.28 665.69 267.86 665.65C268.43 665.60 269.04 665.65 269.25 665.65"/><path fill="none" stroke="#004dc0" stroke-width="2.0" stroke-linecap="round" stroke-linejoin="round" d="M199.07 814.34C199.02 814.24 198.97 813.19 198.72 813.64C198.44 814.14 197.18 816.63 197.19 817.67C197.21 818.71 198.33 820.21 198.82 820.57C199.30 820.93 199.85 820.61 200.41 820.09C200.97 819.58 202.22 817.56 202.54 817.12"/><path fill="none" stroke="#004dc0" stroke-width="2.0" stroke-linecap="round" stroke-linejoin="round" d="M196.98 862.28C196.93 862.65 196.29 863.89 196.64 864.71C196.98 865.54 198.78 867.35 199.30 867.80C199.73 868.17 200.04 868.14 200.14 867.72C200.25 867.29 200.20 865.73 199.98 864.99C199.77 864.25 199.22 863.29 198.72 862.78C198.22 862.27 196.95 861.77 196.64 861.59"/><path fill="none" stroke="#004dc0" stroke-width="2.0" stroke-linecap="round" stroke-linejoin="round" d="M197.33 771.95C196.77 771.40 194.10 768.87 193.60 768.23C193.31 767.85 193.57 767.63 194.02 767.66C194.46 767.68 196.06 768.59 196.59 768.38C197.13 768.18 197.53 767.22 197.58 766.31C197.64 765.41 197.14 763.21 196.93 762.35C196.73 761.49 196.51 760.97 196.20 760.59C195.90 760.21 195.10 759.91 194.90 759.80C194.90 759.80 194.90 759.80 194.90 759.80"/><path fill="none" stroke="#004dc0" stroke-width="2.0" stroke-linecap="round" stroke-linejoin="round" d="M269.25 819.55C269.09 820.59 268.16 825.24 268.20 826.50C268.24 827.75 269.02 827.65 269.52 827.92C270.01 828.19 270.90 828.34 271.50 828.28C272.09 828.22 272.43 828.48 273.46 827.52C274.53 826.52 277.85 822.52 278.63 821.64"/><path fill="none" stroke="#004dc0" stroke-width="2.0" stroke-linecap="round" stroke-linejoin="round" d="M280.02 817.81C279.96 817.71 279.67 816.60 279.67 817.12C279.67 817.92 280.31 822.65 279.99 823.17C279.68 823.68 277.99 821.13 277.58 820.57C277.17 820.02 277.20 819.72 277.23 819.45C277.26 819.17 277.18 818.78 277.76 818.76C278.90 818.71 283.19 819.22 284.83 819.13C286.47 819.04 288.12 818.31 288.70 818.16"/><path fill="none" stroke="#004dc0" stroke-width="2.0" stroke-linecap="round" stroke-linejoin="round" d="M289.40 760.49C288.93 761.38 286.61 765.16 286.27 766.40C285.93 767.64 286.75 768.21 287.11 768.76C287.47 769.31 287.86 770.08 288.68 770.05C289.51 770.02 291.66 769.36 292.60 768.55C293.54 767.74 294.60 765.24 294.95 764.66"/><path fill="none" stroke="#004dc0" stroke-width="2.0" stroke-linecap="round" stroke-linejoin="round" d="M196.64 802.53C197.05 803.20 199.00 806.37 199.42 807.04"/><path fill="none" stroke="#004dc0" stroke-width="2.0" stroke-linecap="round" stroke-linejoin="round" d="M231.38 788.98C231.85 789.71 234.38 793.76 234.50 793.84C234.63 793.92 232.18 790.20 232.20 789.52C232.22 788.85 234.16 789.54 234.63 789.32C235.11 789.10 235.75 788.92 235.36 788.03C234.98 787.15 232.57 784.11 232.07 783.42"/><path fill="none" stroke="#004dc0" stroke-width="2.0" stroke-linecap="round" stroke-linejoin="round" d="M455.46 776.12C455.10 777.08 453.38 781.12 453.07 782.48C452.76 783.83 453.02 784.36 453.40 785.15C453.79 785.95 454.91 787.68 455.62 787.78C456.33 787.88 457.72 787.11 458.11 785.83C458.51 784.55 458.22 780.24 458.24 779.25"/><path fill="none" stroke="#004dc0" stroke-width="2.0" stroke-linecap="round" stroke-linejoin="round" d="M448.86 766.40C449.02 766.45 449.48 766.17 449.90 766.74C450.32 767.32 451.38 769.70 451.64 770.22"/><path fill="none" stroke="#004dc0" stroke-width="2.0" stroke-linecap="round" stroke-linejoin="round" d="M477.00 841.44C476.90 841.39 476.47 840.60 476.31 841.09C475.96 842.15 474.87 846.89 474.68 848.53C474.49 850.17 474.81 851.15 475.04 852.01C475.28 852.86 475.82 853.65 476.26 854.21C476.69 854.76 477.03 855.69 477.93 855.69C478.83 855.68 481.10 855.10 482.26 854.17C483.43 853.23 485.17 850.14 485.69 849.43"/><path fill="none" stroke="#004dc0" stroke-width="2.0" stroke-linecap="round" stroke-linejoin="round" d="M488.81 840.05C489.25 840.85 491.25 843.94 491.73 845.40C492.21 846.85 492.08 848.99 492.01 849.75C491.93 850.46 491.67 850.62 491.21 850.46C490.75 850.29 489.33 849.23 488.91 848.66C488.49 848.09 488.40 847.05 488.41 846.65C488.42 846.25 488.46 846.17 488.96 845.97C489.45 845.77 490.27 845.38 491.71 845.33C493.14 845.27 497.51 845.57 498.54 845.61"/><path fill="none" stroke="#004dc0" stroke-width="2.0" stroke-linecap="round" stroke-linejoin="round" d="M420.72 813.99C420.61 814.72 419.92 817.74 420.02 818.86C420.12 819.97 420.90 820.79 421.39 821.44C421.88 822.09 422.49 822.88 423.30 823.19C424.12 823.51 426.06 824.17 426.82 823.52C427.58 822.87 428.13 819.55 428.36 818.86"/><path fill="none" stroke="#004dc0" stroke-width="2.0" stroke-linecap="round" stroke-linejoin="round" d="M511.39 786.89C511.38 787.32 511.42 789.50 511.27 789.76C511.12 790.02 510.48 788.97 510.38 788.63C510.29 788.30 509.87 787.42 510.62 787.52C511.89 787.70 517.81 789.94 518.84 789.81C519.87 789.68 518.00 787.45 517.45 786.64C516.91 785.84 515.55 784.79 515.22 784.46"/><path fill="none" stroke="#004dc0" stroke-width="2.0" stroke-linecap="round" stroke-linejoin="round" d="M518.69 776.47C519.58 777.72 523.71 783.56 524.60 784.81"/><path fill="none" stroke="#004dc0" stroke-width="2.0" stroke-linecap="round" stroke-linejoin="round" d="M522.51 775.08C523.50 776.44 528.12 782.76 529.11 784.11"/><path fill="none" stroke="#004dc0" stroke-width="2.0" stroke-linecap="round" stroke-linejoin="round" d="M525.99 784.11C525.78 784.06 524.34 784.60 524.60 783.77C524.86 782.93 527.25 779.34 527.72 778.56"/><path fill="none" stroke="#d1000d" stroke-width="1.5" stroke-linecap="round" stroke-linejoin="round" d="M587.13 1034.95C591.79 1034.64 606.30 1033.03 618.18 1032.87C630.06 1032.72 658.62 1033.76 666.32 1033.92C668.42 1033.97 667.37 1033.89 669.48 1033.95C675.19 1034.11 694.54 1034.96 704.39 1035.00C714.24 1035.04 729.90 1034.34 735.12 1034.20C737.83 1034.13 736.48 1034.11 739.18 1034.12C746.52 1034.12 773.22 1034.44 784.06 1034.25C794.90 1034.06 806.86 1033.07 811.46 1032.86C813.61 1032.77 813.99 1032.76 814.69 1032.86C815.38 1032.97 815.87 1033.45 816.08 1033.56"/><path fill="none" stroke="#d1000d" stroke-width="1.5" stroke-linecap="round" stroke-linejoin="round" d="M591.99 1050.58C591.89 1050.58 590.84 1050.57 591.30 1050.58C592.61 1050.62 594.43 1051.00 600.70 1050.83C611.29 1050.53 646.57 1049.03 661.89 1048.63C677.21 1048.23 696.19 1048.23 702.83 1048.15C705.03 1048.12 704.42 1048.07 706.13 1048.12C707.85 1048.17 713.06 1048.44 714.28 1048.50"/><path fill="none" stroke="#ffd873" stroke-opacity="0.5" stroke-width="13.0" stroke-linecap="round" stroke-linejoin="round" d="M582.61 1029.04C582.41 1028.99 580.27 1028.72 581.22 1028.69C589.16 1028.48 622.41 1027.60 635.51 1027.61C648.62 1027.63 655.91 1028.79 668.60 1028.79C681.29 1028.80 703.11 1027.64 720.12 1027.62C737.12 1027.60 771.77 1028.50 781.97 1028.67C786.06 1028.74 784.03 1028.69 788.10 1028.74C792.17 1028.80 803.57 1029.16 809.13 1029.05C814.68 1028.93 821.30 1028.11 825.13 1028.00C828.96 1027.90 833.21 1028.31 834.67 1028.37C834.80 1028.38 834.99 1028.42 834.86 1028.41C826.68 1027.66 793.01 1024.33 780.17 1023.40C767.34 1022.48 760.89 1022.33 749.30 1022.24C737.72 1022.15 722.52 1022.30 702.94 1022.83C683.37 1023.36 632.44 1025.30 618.79 1025.78C614.24 1025.94 614.99 1025.76 611.97 1025.99C608.94 1026.22 601.78 1026.81 598.62 1027.34C595.45 1027.86 592.29 1028.99 590.87 1029.49C589.55 1029.96 589.28 1030.21 589.13 1030.68C588.99 1031.16 589.03 1031.83 589.91 1032.66C590.79 1033.49 593.37 1035.39 594.99 1036.24C596.61 1037.08 598.54 1037.73 600.71 1038.31C602.88 1038.89 606.41 1039.67 609.44 1040.08C612.47 1040.49 617.18 1040.89 620.93 1041.07C624.68 1041.25 625.43 1041.60 634.43 1041.28C645.69 1040.89 692.01 1039.13 696.03 1038.46C700.05 1037.79 670.42 1036.94 661.21 1036.82C651.99 1036.69 642.37 1037.25 634.60 1037.63C626.83 1038.02 614.51 1038.99 609.43 1039.37C604.34 1039.75 603.41 1039.90 600.71 1040.18C598.02 1040.45 592.19 1040.51 591.46 1041.20C590.72 1041.89 594.83 1044.11 595.82 1044.80C596.81 1045.48 596.45 1045.53 598.06 1045.77C600.09 1046.07 601.80 1047.10 609.38 1046.83C623.58 1046.31 678.96 1043.08 692.71 1042.33C698.28 1042.02 697.83 1041.91 701.06 1041.80C704.30 1041.68 713.06 1041.81 714.27 1041.55C715.48 1041.29 711.40 1040.49 709.11 1040.09C706.82 1039.68 705.51 1039.25 698.98 1038.83C692.46 1038.40 672.73 1037.51 665.58 1037.25C658.43 1036.99 657.76 1036.99 651.31 1037.09C644.86 1037.20 631.57 1037.52 622.58 1037.92C613.60 1038.33 597.48 1039.56 591.41 1039.81C585.34 1040.07 583.95 1039.79 582.11 1039.63C580.27 1039.47 579.59 1038.90 579.14 1038.77"/>
</svg>