<?xml version="1.0" encoding="UTF-8"?>
<!DOCTYPE svg PUBLIC "-//W3C//DTD SVG 1.1//EN" "http://www.w3.org/Graphics/SVG/1.1/DTD/svg11.dtd">
<svg  xmlns="http://www.w3.org/2000/svg" xmlns:xlink="http://www.w3.org/1999/xlink" viewport-fill="none" viewBox="0.0, 0.0, 507.7181396484375, 182.3776397705078" version="1.1" height="182.3776397705078" width="507.7181396484375">
<path fill="none" stroke="#ff9399" stroke-opacity="0.5" stroke-width="13.0" stroke-linecap="round" stroke-linejoin="round" d="M45.51 73.72C43.54 73.88 27.75 74.57 32.39 74.81C37.02 75.05 61.95 75.37 76.43 75.33C90.91 75.28 120.00 74.66 128.92 74.49C133.54 74.41 131.22 74.36 135.85 74.21C148.28 73.79 194.12 72.12 211.83 71.75C229.53 71.38 246.80 71.73 253.90 71.75C257.41 71.76 255.66 71.90 259.17 71.87C274.95 71.75 343.29 71.07 359.09 70.95C362.72 70.92 360.91 70.94 364.53 71.08C369.57 71.28 377.64 72.03 392.67 72.26C407.70 72.48 453.39 72.51 464.75 72.57C467.18 72.58 465.96 72.63 468.40 72.64C471.80 72.65 484.57 72.67 487.42 72.68"/><path fill="none" stroke="#ff9399" stroke-opacity="0.5" stroke-width="13.0" stroke-linecap="round" stroke-linejoin="round" d="M324.83 57.39C324.47 57.25 320.70 56.43 322.43 56.41C324.45 56.38 327.91 57.01 338.28 57.21C348.64 57.41 382.77 57.67 391.54 57.75C395.02 57.78 393.28 57.78 396.76 57.73C407.91 57.55 451.80 56.95 465.89 56.60C479.99 56.24 486.89 55.55 490.74 55.36C491.31 55.33 491.46 55.32 491.59 55.31C491.59 55.31 491.59 55.31 491.59 55.31"/><path fill="none" stroke="#d1000d" stroke-width="2.0" stroke-linecap="round" stroke-linejoin="round" d="M329.00 96.30C329.52 96.23 330.13 95.79 332.44 95.81C338.01 95.86 352.89 96.57 366.09 96.66C379.29 96.75 411.29 96.46 420.46 96.41C424.98 96.39 422.72 96.34 427.25 96.34C432.90 96.35 449.82 96.22 458.17 96.42C466.52 96.62 479.20 97.50 482.91 97.69"/><path fill="none" stroke="#ff9399" stroke-opacity="0.5" stroke-width="13.0" stroke-linecap="round" stroke-linejoin="round" d="M34.05 108.46C33.63 108.51 29.42 108.57 31.27 108.75C34.95 109.13 51.33 110.66 58.55 110.95C65.78 111.24 65.53 111.54 79.42 110.68C94.29 109.75 144.91 105.74 157.75 104.79C162.56 104.44 160.16 104.72 164.98 104.38C170.65 103.98 187.92 102.56 195.55 102.13C203.18 101.69 204.06 101.31 215.87 101.48C227.68 101.66 264.93 103.01 274.30 103.28C276.97 103.35 275.64 103.29 278.31 103.25C285.83 103.14 317.61 102.61 324.49 102.56C324.81 102.55 324.19 102.85 324.14 102.90"/><path fill="none" stroke="#ff9399" stroke-opacity="0.5" stroke-width="13.0" stroke-linecap="round" stroke-linejoin="round" d="M38.22 91.44C38.86 91.59 40.02 92.23 42.48 92.45C44.94 92.67 46.52 92.99 54.62 92.90C72.22 92.72 142.80 91.56 159.85 91.25C165.44 91.15 162.64 91.06 168.23 90.82C175.65 90.50 195.59 89.24 209.32 89.12C223.05 89.01 251.57 89.91 259.75 90.05C262.50 90.10 261.13 90.10 263.87 90.05C275.05 89.84 323.05 88.86 334.28 88.64C337.26 88.59 335.77 88.69 338.75 88.62C353.77 88.24 419.08 86.56 434.39 86.15C438.65 86.03 436.52 86.03 440.78 85.84C446.33 85.59 463.32 84.53 471.41 84.49C479.50 84.44 491.22 85.38 494.72 85.53"/><path fill="none" stroke="#ffd873" stroke-opacity="0.5" stroke-width="13.0" stroke-linecap="round" stroke-linejoin="round" d="M46.90 126.18C46.45 125.92 41.59 124.64 43.90 124.42C51.65 123.67 90.18 121.77 98.58 121.19C99.56 121.12 99.76 120.70 99.89 120.52C100.02 120.33 99.59 120.14 99.46 119.95C99.33 119.76 98.87 119.56 99.04 119.24C99.21 118.92 99.93 118.13 100.57 117.82C101.21 117.52 101.44 117.39 103.30 117.20C105.16 117.01 107.03 116.61 112.95 116.56C118.88 116.52 131.55 117.15 142.78 116.92C154.01 116.69 175.72 115.24 187.83 115.01C199.94 114.77 217.09 115.32 223.52 115.35C228.30 115.36 225.91 115.34 230.68 115.17C242.29 114.76 282.59 112.78 300.89 112.62C319.19 112.45 342.25 113.63 352.68 114.09C363.11 114.54 366.97 115.35 370.43 115.64C373.88 115.94 372.19 115.96 375.73 116.07C384.88 116.36 416.44 116.95 431.39 117.59C446.35 118.24 468.62 119.94 475.44 120.38C476.39 120.44 475.98 120.49 476.86 120.55C477.74 120.61 482.59 120.59 481.31 120.76C480.03 120.94 477.00 121.61 468.32 121.70C456.46 121.83 418.83 121.76 402.23 121.62C385.63 121.48 366.40 120.97 357.65 120.76C348.90 120.54 352.92 120.54 343.91 120.21C334.91 119.89 311.99 118.86 297.63 118.61C283.27 118.36 272.71 118.02 248.15 118.53C223.60 119.04 152.60 121.44 133.95 122.00C127.17 122.21 130.56 122.08 123.79 122.32C111.95 122.73 66.49 124.12 55.00 124.73C49.69 125.01 49.36 125.71 47.19 126.36C45.03 127.01 41.77 128.53 40.60 129.09C39.65 129.53 39.77 129.50 39.37 130.06C38.97 130.62 37.97 132.17 37.91 132.81C37.86 133.46 38.25 133.92 38.98 134.38C39.71 134.84 40.09 135.49 42.78 135.89C46.19 136.39 50.03 137.50 61.67 137.73C73.31 137.96 105.95 137.33 120.40 137.40C134.85 137.47 150.01 138.21 158.02 138.20C166.04 138.18 169.17 137.72 173.83 137.30C178.49 136.89 186.49 135.75 189.07 135.43C190.36 135.27 190.60 135.25 191.00 135.15C191.40 135.05 192.29 134.83 191.74 134.74C190.22 134.48 185.24 133.59 180.86 133.44C176.49 133.29 174.74 132.87 162.57 133.73C147.60 134.79 96.17 139.38 81.07 140.51C68.34 141.46 67.21 141.17 61.93 141.24C56.65 141.31 48.52 141.04 45.85 140.98C44.67 140.96 44.66 140.83 44.09 140.87C43.51 140.92 40.64 141.37 42.03 141.27C51.05 140.63 88.29 137.57 104.23 136.58C120.18 135.60 139.29 134.95 148.32 134.70C157.35 134.45 157.42 134.51 164.44 134.91C171.46 135.31 188.51 136.96 195.11 137.37C201.72 137.77 205.77 137.61 208.46 137.61C211.16 137.61 211.66 137.59 213.09 137.38C214.52 137.17 217.38 136.54 218.00 136.20C218.61 135.87 218.00 135.50 217.18 135.16C215.99 134.68 214.79 133.46 210.07 132.96C205.35 132.45 192.15 131.89 185.72 131.80C179.29 131.71 173.98 131.70 167.23 132.37C160.47 133.04 144.68 135.67 140.70 136.26"/><path fill="none" stroke="#823ede" stroke-width="2.0" stroke-linecap="round" stroke-linejoin="round" d="M60.45 161.96C63.97 161.89 73.29 161.41 83.91 161.49C94.53 161.58 123.63 162.37 131.24 162.54C133.48 162.59 132.36 162.57 134.60 162.66C140.36 162.88 160.88 163.83 169.60 164.04C178.33 164.24 188.90 164.02 192.77 164.01C194.54 164.00 193.65 163.99 195.42 163.97C204.24 163.87 242.79 163.45 251.59 163.35C253.25 163.34 252.43 163.26 254.09 163.33C256.66 163.43 264.31 164.11 268.78 164.07C273.25 164.03 279.55 163.24 283.91 163.08C288.26 162.93 295.39 163.05 297.81 163.04C299.28 163.04 298.55 163.07 300.02 163.00C305.53 162.74 329.38 161.53 334.56 161.27"/><path fill="none" stroke="#d1000d" stroke-width="2.0" stroke-linecap="round" stroke-linejoin="round" d="M34.39 111.59C48.35 111.64 112.79 111.87 127.40 111.93C130.34 111.94 128.87 111.89 131.81 111.97C137.25 112.12 153.82 112.86 163.66 112.91C173.49 112.95 191.90 112.35 197.39 112.24C199.28 112.21 198.34 112.20 200.23 112.17C208.94 112.08 246.59 111.68 255.43 111.59C257.89 111.57 256.66 111.59 259.13 111.59C265.36 111.59 288.78 111.72 296.99 111.58C305.19 111.43 310.94 110.78 313.81 110.61C315.35 110.52 314.88 110.51 316.12 110.45C317.36 110.39 321.16 110.24 322.05 110.20"/><path fill="none" stroke="#823ede" stroke-width="2.0" stroke-linecap="round" stroke-linejoin="round" d="M113.60 177.60C112.58 177.77 102.18 178.67 106.79 178.76C117.69 178.99 173.47 179.03 186.27 179.10C190.17 179.12 188.22 179.08 192.12 179.22C197.64 179.41 218.40 180.20 223.04 180.38"/><path fill="none" stroke="#823ede" stroke-width="2.0" stroke-linecap="round" stroke-linejoin="round" d="M319.97 137.30C319.78 136.82 319.11 134.74 318.71 134.08C318.30 133.43 318.09 133.16 317.26 132.91C316.43 132.65 314.44 132.07 313.17 132.39C311.91 132.71 309.73 134.29 308.82 135.04C307.91 135.78 307.47 136.57 307.12 137.34C306.76 138.12 306.47 139.34 306.45 140.20C306.44 141.05 306.62 142.26 307.01 143.05C307.40 143.83 308.27 144.86 309.07 145.43C309.86 146.00 311.29 146.65 312.33 146.85C313.38 147.05 314.93 147.03 316.04 146.78C317.14 146.52 318.78 145.82 319.68 145.15C320.59 144.49 321.55 143.30 322.10 142.35C322.64 141.40 323.21 139.90 323.32 138.84C323.42 137.79 323.24 136.12 322.79 135.32C322.34 134.51 321.00 133.80 320.32 133.48C319.63 133.15 318.54 133.18 318.23 133.13"/><path fill="none" stroke="#823ede" stroke-width="2.0" stroke-linecap="round" stroke-linejoin="round" d="M313.02 139.38C313.02 139.64 313.02 140.86 313.02 141.12"/><path fill="none" stroke="#823ede" stroke-width="2.0" stroke-linecap="round" stroke-linejoin="round" d="M22.93 167.18C23.14 166.81 23.99 165.14 24.32 164.74C24.65 164.35 24.93 164.29 25.12 164.54C25.30 164.80 25.72 165.38 25.58 166.45C25.43 167.51 24.02 171.02 24.14 171.65C24.26 172.28 26.06 170.80 26.40 170.65"/><path fill="none" stroke="#823ede" stroke-width="2.0" stroke-linecap="round" stroke-linejoin="round" d="M292.87 179.34C292.61 179.29 289.93 179.02 291.12 179.02C310.35 178.96 401.55 178.99 421.09 178.99C421.31 178.99 421.37 178.99 421.41 178.99C421.41 178.99 421.41 178.99 421.41 178.99"/><path fill="none" stroke="#823ede" stroke-width="2.0" stroke-linecap="round" stroke-linejoin="round" d="M30.92 164.40C30.76 163.98 30.59 162.27 29.88 161.62C29.17 160.97 27.19 160.27 26.18 160.07C25.17 159.88 24.05 160.09 23.15 160.32C22.25 160.54 21.04 161.05 20.19 161.59C19.35 162.12 18.17 163.06 17.52 163.90C16.87 164.74 16.14 166.16 15.85 167.22C15.57 168.28 15.47 169.88 15.63 170.96C15.78 172.03 16.30 173.55 16.87 174.37C17.45 175.20 18.59 176.11 19.48 176.47C20.36 176.84 21.77 176.95 22.78 176.78C23.79 176.61 25.27 175.98 26.22 175.32C27.16 174.66 28.36 173.35 29.09 172.39C29.83 171.43 30.70 169.93 31.13 168.93C31.55 167.92 31.89 166.55 31.91 165.71C31.93 164.87 31.57 163.76 31.27 163.35C30.96 162.95 30.09 163.06 29.88 163.01"/><path fill="none" stroke="#823ede" stroke-width="2.0" stroke-linecap="round" stroke-linejoin="round" d="M423.85 139.38C423.79 139.33 423.38 139.34 423.50 139.04C423.62 138.73 424.35 137.65 424.66 137.36C424.97 137.06 425.35 136.87 425.55 137.05C425.76 137.23 426.14 137.79 426.03 138.56C425.91 139.34 424.71 141.38 424.79 142.23C424.88 143.08 426.51 143.79 426.61 144.22C426.71 144.66 426.04 144.97 425.47 145.13C424.90 145.29 423.20 145.27 422.80 145.29"/><path fill="none" stroke="#d1000d" stroke-width="2.0" stroke-linecap="round" stroke-linejoin="round" d="M94.50 32.38C95.18 32.26 95.97 31.72 99.05 31.56C103.84 31.33 117.60 30.74 126.45 30.80C135.29 30.86 150.47 31.81 158.03 31.95C165.59 32.09 173.31 31.80 176.82 31.75C179.90 31.71 178.36 31.68 181.44 31.62C187.28 31.50 205.93 30.94 215.82 30.95C225.71 30.96 242.10 31.57 247.36 31.68C249.71 31.73 248.54 31.68 250.89 31.68C254.70 31.69 265.85 31.54 272.73 31.70C279.62 31.85 291.21 32.60 296.80 32.71C302.40 32.82 307.59 32.47 310.03 32.42C312.03 32.38 311.03 32.36 313.04 32.37C324.61 32.42 375.35 32.67 387.18 32.73C390.33 32.74 388.75 32.69 391.90 32.73C402.72 32.84 445.88 33.54 459.33 33.48C472.78 33.43 477.70 32.59 481.56 32.38C483.90 32.26 484.07 32.09 485.06 32.09C486.04 32.09 487.66 32.34 488.12 32.38"/><path fill="none" stroke="#d1000d" stroke-width="2.0" stroke-linecap="round" stroke-linejoin="round" d="M35.09 48.71C35.66 48.60 36.32 48.14 38.91 48.01C41.90 47.87 47.78 48.12 55.05 47.76C62.32 47.40 76.93 46.03 87.37 45.60C97.80 45.16 118.28 45.02 124.60 44.89C127.87 44.82 126.23 44.74 129.50 44.69C136.54 44.58 161.86 44.06 171.54 44.16C181.21 44.25 190.06 45.13 193.99 45.31C196.47 45.42 195.23 45.32 197.72 45.34C210.31 45.47 265.36 46.07 277.92 46.17C280.27 46.19 279.09 46.08 281.44 46.02C291.25 45.78 333.78 44.80 343.37 44.58C344.73 44.55 344.05 44.51 345.41 44.53C351.11 44.62 372.57 44.85 381.41 45.20C390.24 45.55 400.25 46.58 404.31 46.86C407.10 47.05 405.84 46.80 408.51 47.08C411.17 47.36 420.07 48.46 422.11 48.71"/><path fill="none" stroke="#823ede" stroke-width="2.0" stroke-linecap="round" stroke-linejoin="round" d="M431.14 135.56C430.94 135.10 430.34 133.05 429.80 132.52C429.26 131.98 428.64 131.69 427.53 131.98C426.42 132.26 423.44 133.64 422.41 134.41C421.38 135.19 421.02 136.28 420.68 137.16C420.34 138.03 420.07 139.33 420.13 140.26C420.19 141.19 420.57 142.52 421.09 143.35C421.61 144.17 422.70 145.19 423.61 145.76C424.52 146.34 426.04 146.98 427.18 147.18C428.32 147.38 430.02 147.34 431.19 147.09C432.37 146.84 434.10 146.15 435.04 145.52C435.98 144.89 436.91 143.77 437.46 142.89C438.02 142.01 438.63 140.58 438.74 139.64C438.85 138.69 438.92 137.35 438.20 136.58C437.48 135.81 434.56 134.83 433.92 134.52"/><path fill="none" stroke="#ffd873" stroke-opacity="0.5" stroke-width="13.0" stroke-linecap="round" stroke-linejoin="round" d="M34.74 40.02C34.69 40.13 34.21 40.32 34.39 40.72C34.58 41.11 35.26 42.30 35.95 42.67C36.64 43.04 36.95 43.33 38.99 43.18C44.44 42.77 64.49 40.58 72.25 39.96C80.01 39.34 81.78 39.10 90.75 39.04C99.71 38.97 121.43 39.10 132.02 39.54C142.62 39.99 156.15 41.60 161.38 42.00C165.04 42.28 163.21 42.18 166.88 42.25C170.91 42.32 174.01 42.78 188.27 42.47C202.75 42.15 248.63 40.51 263.43 40.15C278.22 39.78 282.67 40.04 286.91 40.02C290.10 40.01 288.50 40.08 291.69 40.02C298.92 39.88 322.58 38.98 335.13 39.10C347.67 39.21 368.50 40.51 375.33 40.80C378.92 40.94 377.12 40.95 380.71 40.99C385.17 41.04 401.09 41.03 405.06 41.14C406.53 41.18 406.75 41.51 407.17 41.76C407.59 42.01 407.76 42.65 407.86 42.80"/><path fill="none" stroke="#ffd873" stroke-opacity="0.5" stroke-width="13.0" stroke-linecap="round" stroke-linejoin="round" d="M103.88 26.82C102.26 26.54 90.04 25.37 93.09 24.96C96.15 24.54 113.96 24.68 124.24 24.05C134.52 23.42 155.09 21.26 161.64 20.76C165.77 20.44 163.72 20.34 167.86 20.69C172.87 21.10 190.23 23.09 195.06 23.52C198.39 23.82 196.73 23.62 200.08 23.60C212.04 23.51 258.31 22.81 274.80 22.98C291.28 23.14 303.82 24.43 309.99 24.70C313.92 24.88 311.96 24.64 315.90 24.80C322.03 25.06 337.52 26.20 350.84 26.40C364.16 26.60 395.78 26.19 404.71 26.15C408.49 26.14 406.60 26.20 410.38 26.13C418.71 25.98 448.76 25.66 460.29 25.13C471.83 24.60 483.13 22.96 487.27 22.59C487.70 22.55 487.49 22.56 487.91 22.62C488.35 22.68 489.86 22.94 490.20 23.00"/>
</svg>