<?xml version="1.0" encoding="UTF-8"?>
<!DOCTYPE svg PUBLIC "-//W3C//DTD SVG 1.1//EN" "http://www.w3.org/Graphics/SVG/1.1/DTD/svg11.dtd">
<svg  xmlns="http://www.w3.org/2000/svg" xmlns:xlink="http://www.w3.org/1999/xlink" viewport-fill="none" viewBox="0.0, 0.0, 3039.0994313691513, 1755.5" version="1.1" height="1755.5" width="3039.0994313691513">
<path fill="none" stroke="#d1000d" stroke-width="1.5" stroke-linecap="round" stroke-linejoin="round" d="M2121.79 628.47C2121.78 628.75 2121.31 631.59 2121.71 630.38C2122.57 627.81 2125.62 616.79 2127.53 611.37C2129.44 605.95 2131.91 599.96 2134.42 594.22C2136.94 588.48 2141.08 579.37 2144.31 573.11C2147.53 566.85 2152.37 558.41 2155.94 552.51C2159.52 546.61 2164.51 539.03 2168.13 533.79C2171.74 528.56 2174.35 524.80 2180.05 517.61C2185.75 510.42 2201.30 491.48 2206.12 485.85C2209.74 481.62 2211.35 480.95 2212.16 480.09C2212.44 479.79 2211.64 480.09 2211.55 480.09"/><path fill="none" stroke="#d1000d" stroke-width="1.5" stroke-linecap="round" stroke-linejoin="round" d="M2203.61 475.20C2203.33 475.20 2202.24 475.03 2201.71 475.18C2201.17 475.33 2199.55 476.06 2200.05 476.21C2200.55 476.35 2202.43 476.62 2205.05 476.17C2207.66 475.71 2215.45 473.55 2217.50 473.17C2218.37 473.01 2218.68 472.77 2218.73 473.65C2218.85 475.51 2218.34 483.79 2218.27 485.58"/><path fill="none" stroke="#d1000d" stroke-width="1.5" stroke-linecap="round" stroke-linejoin="round" d="M2231.56 448.09C2232.44 449.65 2237.30 458.51 2237.37 458.51C2237.45 458.51 2233.27 450.69 2232.08 448.10C2230.89 445.51 2230.10 443.35 2229.44 441.24C2228.77 439.13 2227.97 436.06 2227.66 434.03C2227.36 432.00 2227.24 429.31 2227.40 427.72C2227.55 426.13 2228.20 424.32 2228.69 423.43C2229.18 422.54 2230.07 421.85 2230.69 421.77C2231.31 421.70 2232.25 422.22 2232.84 422.93C2233.42 423.63 2234.17 425.21 2234.59 426.49C2235.01 427.77 2235.47 429.23 2235.63 431.47C2235.79 433.71 2235.83 439.56 2235.66 441.43C2235.49 443.27 2234.96 443.47 2234.49 443.94C2234.03 444.42 2232.93 444.49 2232.56 444.59C2232.24 444.67 2232.14 444.59 2232.06 444.59"/><path fill="none" stroke="#d1000d" stroke-width="1.5" stroke-linecap="round" stroke-linejoin="round" d="M2241.06 428.59C2241.18 428.39 2242.01 426.84 2241.82 427.29C2241.63 427.74 2240.22 430.38 2239.79 431.61C2239.36 432.83 2239.11 434.23 2238.95 435.47C2238.79 436.72 2238.69 438.70 2238.73 439.90C2238.76 441.11 2238.97 442.73 2239.19 443.52C2239.41 444.31 2239.86 444.98 2240.19 445.15C2240.52 445.31 2241.11 445.43 2241.40 444.59C2241.80 443.41 2242.63 439.03 2242.86 437.30C2243.09 435.57 2243.04 434.27 2242.93 433.05C2242.82 431.83 2242.14 429.18 2242.11 429.15C2242.09 429.13 2242.17 431.60 2242.75 432.88C2243.34 434.16 2245.24 436.94 2246.02 437.70C2246.81 438.47 2247.54 438.30 2247.99 437.98C2248.45 437.66 2248.90 435.95 2249.06 435.59"/><path fill="none" stroke="#d1000d" stroke-width="1.5" stroke-linecap="round" stroke-linejoin="round" d="M2246.56 424.09C2246.68 424.65 2246.72 426.16 2247.33 427.83C2247.94 429.50 2250.58 434.81 2250.64 435.23C2250.70 435.65 2248.54 432.45 2247.74 430.64C2246.94 428.84 2245.67 424.78 2245.31 423.19C2244.94 421.60 2245.13 420.89 2245.32 420.05C2245.51 419.21 2246.38 417.96 2246.56 417.59"/><path fill="none" stroke="#d1000d" stroke-width="1.5" stroke-linecap="round" stroke-linejoin="round" d="M2250.56 419.59C2250.90 420.43 2252.20 423.95 2252.83 425.17C2253.45 426.39 2254.82 429.47 2254.73 427.70C2254.65 425.92 2252.59 415.88 2252.29 413.33C2252.08 411.59 2252.37 411.22 2252.71 410.73C2253.05 410.25 2254.29 410.19 2254.56 410.09"/><path fill="none" stroke="#d1000d" stroke-width="1.5" stroke-linecap="round" stroke-linejoin="round" d="M2261.06 409.59C2260.83 409.57 2259.94 409.00 2259.48 409.47C2259.02 409.94 2258.19 411.17 2258.01 412.72C2257.83 414.27 2258.09 418.30 2258.26 419.79C2258.44 421.27 2258.88 422.11 2259.20 422.64C2259.53 423.18 2260.07 423.49 2260.42 423.36C2260.76 423.23 2261.24 422.53 2261.50 421.78C2261.77 421.03 2262.17 420.16 2262.20 418.38C2262.23 416.60 2261.60 410.98 2261.73 409.92C2261.86 408.86 2262.58 411.04 2263.05 411.31C2263.51 411.59 2264.23 411.85 2264.81 411.74C2265.38 411.63 2266.38 411.25 2266.89 410.56C2267.40 409.88 2268.00 408.42 2268.21 407.19C2268.42 405.95 2268.46 403.89 2268.31 402.35C2268.16 400.80 2267.66 398.42 2267.18 396.89C2266.71 395.36 2265.87 393.35 2265.14 392.13C2264.41 390.91 2262.53 388.37 2262.32 388.75C2262.11 389.14 2262.83 392.39 2263.72 394.71C2264.60 397.04 2267.19 402.30 2268.24 404.25C2269.28 406.19 2270.03 406.97 2270.71 407.67C2271.38 408.38 2272.28 408.96 2272.73 408.95C2273.19 408.94 2273.61 408.47 2273.74 407.58C2273.87 406.70 2274.09 405.84 2273.62 403.05C2273.16 400.26 2271.56 392.58 2270.64 388.98C2269.71 385.37 2267.60 379.52 2267.48 379.00C2267.36 378.49 2269.19 383.90 2269.85 385.55C2270.51 387.20 2270.95 388.23 2271.86 389.97C2272.78 391.72 2275.11 395.89 2275.96 397.19C2276.72 398.39 2277.10 398.48 2277.47 398.69C2277.85 398.89 2278.35 399.19 2278.44 398.54C2278.79 395.99 2279.76 384.67 2279.83 381.64C2279.89 379.38 2279.19 378.76 2278.92 378.37C2278.65 377.98 2278.28 378.55 2278.04 379.01C2277.80 379.48 2277.41 380.59 2277.31 381.46C2277.20 382.33 2277.16 383.81 2277.32 384.80C2277.48 385.79 2277.89 387.39 2278.36 388.07C2278.83 388.74 2279.75 389.16 2280.47 389.32C2281.20 389.47 2282.31 389.66 2283.17 389.12C2284.02 388.57 2285.36 387.12 2286.17 385.69C2286.98 384.26 2288.21 380.80 2288.56 379.59C2288.92 378.37 2288.56 377.89 2288.56 377.59"/><path fill="none" stroke="#d1000d" stroke-width="1.5" stroke-linecap="round" stroke-linejoin="round" d="M2282.56 359.59C2282.43 359.46 2281.37 357.97 2281.65 358.75C2282.13 360.15 2284.42 366.12 2285.82 368.93C2287.23 371.75 2289.94 375.99 2291.03 377.52C2292.02 378.91 2292.76 378.85 2293.06 379.09"/><path fill="none" stroke="#d1000d" stroke-width="1.5" stroke-linecap="round" stroke-linejoin="round" d="M2308.56 420.59C2308.63 421.49 2309.14 425.68 2309.01 426.62C2308.90 427.49 2308.30 427.03 2307.71 426.85C2307.13 426.68 2306.63 426.68 2305.13 425.44C2303.62 424.20 2299.27 420.17 2297.69 418.57C2296.10 416.98 2295.29 416.04 2294.54 414.79C2293.79 413.54 2292.83 410.89 2292.69 410.27C2292.54 409.65 2293.27 410.25 2293.56 410.67C2293.86 411.08 2294.42 412.00 2294.66 413.03C2294.90 414.07 2295.09 416.02 2295.16 417.57C2295.24 419.11 2295.37 420.79 2295.15 423.33C2294.93 425.87 2293.81 433.16 2293.68 434.50C2293.56 435.83 2294.00 433.37 2294.32 432.24C2294.65 431.10 2294.61 430.40 2295.85 426.93C2297.38 422.63 2303.26 407.09 2304.56 403.59"/><path fill="none" stroke="#d1000d" stroke-width="1.5" stroke-linecap="round" stroke-linejoin="round" d="M2332.56 374.09C2332.05 374.21 2329.92 374.22 2329.15 374.88C2328.37 375.54 2327.70 376.76 2327.41 378.49C2327.12 380.22 2327.02 384.92 2327.21 386.42C2327.40 387.92 2328.22 388.23 2328.69 388.49C2329.15 388.76 2329.86 388.65 2330.32 388.21C2330.78 387.78 2331.39 386.59 2331.75 385.60C2332.11 384.61 2332.56 383.33 2332.74 381.61C2332.92 379.89 2332.82 374.59 2332.95 374.13C2333.07 373.67 2333.27 377.46 2333.57 378.56C2333.86 379.65 2334.43 380.78 2334.91 381.44C2335.38 382.09 2336.19 382.81 2336.74 382.93C2337.29 383.05 2338.10 382.81 2338.56 382.22C2339.02 381.64 2339.62 380.21 2339.82 379.03C2340.01 377.85 2339.99 375.80 2339.85 374.36C2339.72 372.93 2339.41 370.95 2338.92 369.45C2338.42 367.95 2336.61 364.10 2336.54 364.35C2336.47 364.60 2337.75 369.32 2338.47 371.11C2339.20 372.90 2341.18 377.24 2341.35 376.30C2341.52 375.36 2339.79 367.10 2339.61 364.84C2339.43 362.57 2339.47 360.51 2340.16 361.22C2340.85 361.94 2343.46 368.41 2344.21 369.61C2344.55 370.16 2344.90 369.83 2345.10 369.22C2345.30 368.62 2345.64 366.96 2345.56 365.59C2345.48 364.22 2344.71 360.91 2344.56 360.09"/><path fill="none" stroke="#d1000d" stroke-width="1.5" stroke-linecap="round" stroke-linejoin="round" d="M2339.06 345.09C2339.06 344.78 2338.43 341.79 2339.06 343.02C2340.59 345.95 2347.54 361.02 2349.24 364.68C2350.07 366.46 2350.30 366.89 2350.42 367.39C2350.53 367.85 2350.44 368.22 2350.02 367.99C2349.06 367.47 2345.30 364.98 2344.03 363.96C2342.75 362.94 2341.79 362.07 2341.51 361.18C2341.23 360.29 2341.17 359.44 2342.15 358.00C2343.13 356.56 2346.95 352.85 2348.06 351.59C2349.17 350.34 2349.34 349.89 2349.56 349.59"/><path fill="none" stroke="#d1000d" stroke-width="1.5" stroke-linecap="round" stroke-linejoin="round" d="M2350.56 349.09C2350.66 349.77 2350.83 352.28 2351.21 353.61C2351.58 354.93 2352.64 357.18 2353.06 357.93C2353.46 358.62 2354.14 358.79 2354.06 358.59C2353.99 358.39 2352.79 356.89 2352.56 356.59"/><path fill="none" stroke="#d1000d" stroke-width="1.5" stroke-linecap="round" stroke-linejoin="round" d="M2371.56 322.09C2372.52 324.32 2377.80 336.03 2377.92 336.94C2378.04 337.85 2374.00 331.40 2372.36 328.14C2370.72 324.88 2367.96 317.96 2367.02 315.20C2366.08 312.45 2366.14 311.05 2366.09 309.77C2366.03 308.48 2366.28 307.17 2366.65 306.61C2367.01 306.06 2367.88 305.85 2368.50 306.06C2369.11 306.27 2370.12 307.20 2370.74 308.01C2371.37 308.81 2372.19 309.70 2372.66 311.44C2373.13 313.17 2373.84 317.84 2373.90 319.57C2373.97 321.29 2373.38 322.19 2373.10 322.94C2372.82 323.70 2372.29 324.34 2372.06 324.59C2371.84 324.83 2371.64 324.59 2371.56 324.59"/><path fill="none" stroke="#d1000d" stroke-width="1.5" stroke-linecap="round" stroke-linejoin="round" d="M2349.06 344.09C2348.98 343.87 2348.49 342.77 2348.49 342.62C2348.49 342.48 2348.98 343.02 2349.06 343.09"/><path fill="none" stroke="#d1000d" stroke-width="1.5" stroke-linecap="round" stroke-linejoin="round" d="M2385.06 312.59C2384.82 312.33 2383.85 311.05 2383.44 310.85C2383.04 310.64 2382.69 310.89 2382.35 311.22C2382.02 311.54 2381.52 311.69 2381.22 313.00C2380.93 314.31 2380.43 318.38 2380.38 319.95C2380.33 321.52 2380.64 322.64 2380.88 323.47C2381.13 324.30 2381.64 325.18 2382.01 325.48C2382.37 325.77 2382.93 325.76 2383.31 325.44C2383.69 325.11 2384.15 324.90 2384.52 323.32C2384.97 321.42 2385.48 313.81 2386.31 312.80C2387.15 311.79 2389.50 316.02 2390.06 316.59"/><path fill="none" stroke="#d1000d" stroke-width="1.5" stroke-linecap="round" stroke-linejoin="round" d="M2389.56 308.59C2389.98 309.35 2392.26 313.90 2392.34 313.68C2392.42 313.46 2390.52 309.16 2390.10 307.12C2389.68 305.09 2389.64 301.14 2389.56 300.09"/><path fill="none" stroke="#d1000d" stroke-width="1.5" stroke-linecap="round" stroke-linejoin="round" d="M2394.06 300.59C2394.61 301.90 2397.43 308.54 2397.67 309.31C2397.91 310.09 2396.32 307.35 2395.67 305.76C2395.03 304.16 2393.72 300.67 2393.40 298.69C2393.09 296.71 2393.31 293.73 2393.56 292.59C2393.81 291.45 2394.84 291.31 2395.06 291.09"/><path fill="none" stroke="#d1000d" stroke-width="1.5" stroke-linecap="round" stroke-linejoin="round" d="M2400.56 289.59C2400.36 289.57 2399.49 289.33 2399.17 289.48C2398.86 289.63 2398.63 289.94 2398.48 290.61C2398.33 291.29 2398.06 292.34 2398.18 293.97C2398.30 295.60 2398.93 299.99 2399.28 301.47C2399.63 302.94 2400.13 303.46 2400.51 303.80C2400.90 304.14 2401.50 304.14 2401.85 303.73C2402.20 303.32 2402.63 302.14 2402.86 301.10C2403.09 300.06 2403.35 298.91 2403.38 296.81C2403.42 294.71 2402.88 287.99 2403.10 287.10C2403.33 286.22 2404.47 290.29 2404.91 290.91C2405.36 291.53 2405.74 291.43 2406.06 291.25C2406.39 291.07 2406.86 290.52 2407.08 289.72C2407.30 288.93 2407.49 287.35 2407.53 285.96C2407.56 284.57 2407.84 283.56 2407.32 280.47C2406.81 277.38 2404.29 266.56 2404.12 265.35C2403.95 264.15 2405.23 269.90 2406.20 272.42C2407.17 274.95 2409.58 280.25 2410.56 282.20C2411.54 284.15 2412.16 284.77 2412.74 285.41C2413.32 286.05 2414.00 286.45 2414.41 286.46C2414.82 286.46 2415.28 286.10 2415.47 285.44C2415.66 284.79 2415.84 284.20 2415.68 282.09C2415.51 279.97 2414.98 274.44 2414.38 271.35C2413.77 268.26 2411.98 262.18 2411.64 261.50C2411.30 260.81 2411.88 265.31 2412.10 266.78C2412.33 268.25 2412.48 269.50 2413.15 271.31C2413.83 273.12 2415.78 277.52 2416.58 278.85C2417.39 280.18 2417.95 280.10 2418.50 280.20C2419.05 280.30 2419.62 280.55 2420.25 279.50C2420.87 278.45 2422.23 275.41 2422.68 273.19C2423.13 270.96 2423.41 266.75 2423.23 264.69C2423.06 262.63 2421.96 260.24 2421.52 259.47C2421.10 258.74 2420.60 259.24 2420.26 259.54C2419.92 259.85 2419.44 260.67 2419.26 261.50C2419.07 262.33 2418.94 263.91 2419.03 265.08C2419.13 266.24 2419.43 268.18 2419.88 269.28C2420.32 270.37 2421.23 271.75 2422.01 272.37C2422.79 273.00 2424.09 273.56 2425.07 273.43C2426.05 273.30 2427.59 272.60 2428.53 271.49C2429.46 270.39 2430.70 268.04 2431.31 266.08C2431.93 264.12 2432.46 260.88 2432.64 258.46C2432.81 256.03 2432.71 252.31 2432.49 249.91C2432.27 247.51 2431.74 244.39 2431.15 242.46C2430.57 240.52 2428.83 236.90 2428.60 237.04C2428.37 237.17 2429.17 241.70 2429.63 243.36C2430.09 245.01 2430.63 246.19 2431.69 248.08C2432.76 249.96 2435.49 254.25 2436.73 255.91C2437.96 257.57 2439.57 258.65 2439.92 259.12C2440.26 259.58 2439.19 259.09 2439.06 259.09"/><path fill="none" stroke="#d1000d" stroke-width="1.5" stroke-linecap="round" stroke-linejoin="round" d="M2350.56 407.59C2351.38 409.66 2355.67 420.13 2356.01 421.37C2356.35 422.61 2353.98 418.27 2352.84 415.84C2351.70 413.42 2349.27 407.49 2348.42 405.18C2347.58 402.88 2347.41 401.64 2347.24 400.47C2347.06 399.30 2347.12 398.01 2347.24 397.40C2347.36 396.80 2347.73 396.44 2348.06 396.45C2348.39 396.46 2349.02 396.92 2349.43 397.47C2349.83 398.02 2350.44 399.20 2350.75 400.11C2351.06 401.03 2351.34 402.54 2351.50 403.60C2351.65 404.66 2351.83 406.04 2351.76 407.18C2351.69 408.31 2351.16 410.61 2351.04 411.19C2351.01 411.31 2350.91 411.11 2350.97 411.00C2351.23 410.56 2352.06 408.76 2352.78 408.22C2353.49 407.68 2355.16 407.13 2355.72 407.43C2356.28 407.72 2356.48 409.50 2356.50 410.19C2356.53 410.88 2356.25 411.47 2355.88 412.05C2355.52 412.64 2354.34 413.78 2354.06 414.09"/><path fill="none" stroke="#d1000d" stroke-width="1.5" stroke-linecap="round" stroke-linejoin="round" d="M2372.06 385.09C2372.01 384.59 2371.86 382.43 2371.67 381.74C2371.49 381.06 2371.15 380.77 2370.82 380.55C2370.50 380.33 2369.90 380.21 2369.51 380.29C2369.11 380.37 2368.61 380.25 2368.17 381.07C2367.74 381.89 2366.78 384.69 2366.60 385.73C2366.43 386.76 2366.77 387.40 2367.03 387.96C2367.30 388.53 2367.15 389.24 2368.38 389.51C2369.60 389.77 2373.73 389.53 2375.20 389.73C2376.68 389.93 2377.86 390.28 2378.19 390.83C2378.51 391.38 2378.06 392.82 2377.36 393.39C2376.67 393.95 2374.21 394.48 2373.56 394.59C2373.10 394.66 2373.14 394.16 2373.06 394.09"/><path fill="none" stroke="#d1000d" stroke-width="1.5" stroke-linecap="round" stroke-linejoin="round" d="M2373.56 370.09C2374.85 371.94 2380.60 380.03 2382.16 382.43C2383.64 384.71 2383.67 385.24 2383.95 386.09C2384.24 386.94 2384.05 387.79 2384.06 388.09"/><path fill="none" stroke="#d1000d" stroke-width="1.5" stroke-linecap="round" stroke-linejoin="round" d="M2376.56 381.59C2376.27 381.31 2374.84 380.16 2374.58 379.75C2374.33 379.34 2374.42 379.31 2374.84 378.86C2376.11 377.49 2381.83 371.83 2383.06 370.59"/><path fill="none" stroke="#d1000d" stroke-width="1.5" stroke-linecap="round" stroke-linejoin="round" d="M2383.56 368.59C2383.39 368.66 2382.49 368.79 2382.39 369.05C2382.29 369.31 2382.45 369.53 2382.91 370.31C2383.66 371.59 2386.77 378.41 2387.40 377.55C2388.02 376.69 2387.11 366.53 2387.06 364.59"/><path fill="none" stroke="#d1000d" stroke-width="1.5" stroke-linecap="round" stroke-linejoin="round" d="M2392.56 359.59C2392.34 359.51 2391.46 358.96 2391.08 359.05C2390.70 359.13 2390.39 359.22 2390.03 360.17C2389.68 361.11 2388.86 364.06 2388.70 365.33C2388.54 366.60 2388.78 367.74 2388.94 368.62C2389.09 369.49 2389.45 370.61 2389.76 371.16C2390.06 371.72 2390.59 372.26 2390.95 372.34C2391.32 372.41 2391.89 372.12 2392.19 371.65C2392.50 371.17 2392.83 370.62 2393.02 369.17C2393.20 367.73 2393.46 363.61 2393.45 362.00C2393.44 360.38 2392.95 358.54 2392.92 358.41C2392.89 358.29 2392.86 360.32 2393.26 361.18C2393.67 362.04 2395.07 363.79 2395.64 364.16C2396.20 364.53 2396.68 364.04 2397.04 363.65C2397.40 363.26 2397.85 362.34 2398.03 361.58C2398.22 360.82 2398.47 360.04 2398.28 358.58C2398.08 357.12 2396.69 352.01 2396.73 351.87C2396.77 351.73 2397.83 355.86 2398.53 357.65C2399.24 359.43 2401.30 365.39 2401.45 363.76C2401.60 362.13 2399.72 349.36 2399.53 346.78C2399.49 346.35 2399.86 346.26 2400.15 346.59C2400.74 347.29 2402.62 350.49 2403.51 351.46C2404.41 352.44 2405.30 352.75 2406.12 353.08C2406.94 353.41 2408.12 353.98 2408.96 353.66C2409.81 353.34 2411.23 352.38 2411.77 350.94C2412.31 349.51 2412.45 345.12 2412.56 344.09"/><path fill="none" stroke="#d1000d" stroke-width="1.5" stroke-linecap="round" stroke-linejoin="round" d="M2406.06 323.59C2406.05 323.35 2405.58 320.99 2405.99 321.98C2406.86 324.10 2411.80 335.38 2411.89 337.71C2411.97 340.04 2407.58 337.38 2406.55 337.52C2405.52 337.65 2405.34 338.18 2405.01 338.64C2404.68 339.09 2404.41 339.89 2404.35 340.54C2404.30 341.20 2404.43 342.28 2404.65 342.99C2404.88 343.71 2405.39 344.79 2405.86 345.30C2406.33 345.82 2407.12 346.32 2407.78 346.42C2408.43 346.51 2409.44 346.35 2410.21 345.92C2410.99 345.49 2412.14 344.50 2412.95 343.55C2413.75 342.60 2414.64 341.60 2415.57 339.58C2416.50 337.57 2418.60 332.15 2419.15 330.11C2419.71 328.07 2419.39 327.01 2419.26 325.98C2419.13 324.95 2418.69 323.86 2418.31 323.24C2417.92 322.62 2417.20 322.07 2416.69 321.86C2416.19 321.66 2415.42 321.71 2414.95 321.90C2414.49 322.09 2413.86 322.40 2413.61 323.13C2413.36 323.86 2413.12 325.99 2413.26 326.76C2413.39 327.53 2413.36 327.65 2414.51 328.28C2415.79 328.97 2420.46 330.70 2421.78 331.38C2423.01 332.01 2423.14 332.09 2423.31 332.77C2423.48 333.45 2423.22 335.26 2422.92 335.91C2422.62 336.55 2421.67 336.95 2421.32 337.05C2420.97 337.15 2420.68 336.66 2420.56 336.59"/><path fill="none" stroke="#d1000d" stroke-width="1.5" stroke-linecap="round" stroke-linejoin="round" d="M2427.56 326.09C2427.71 325.86 2428.41 324.81 2428.56 324.59"/><path fill="none" stroke="#1eb511" stroke-width="1.5" stroke-linecap="round" stroke-linejoin="round" d="M2349.78 688.09C2349.55 688.37 2347.99 690.32 2348.28 689.95C2348.57 689.59 2350.19 687.07 2351.70 685.64C2353.22 684.20 2355.83 682.18 2358.39 680.38C2360.95 678.58 2365.20 675.68 2368.76 673.62C2372.31 671.56 2377.84 668.57 2382.09 666.63C2386.34 664.68 2392.46 662.29 2397.10 660.66C2401.74 659.03 2408.19 657.03 2413.03 655.76C2417.87 654.49 2424.52 653.12 2429.38 652.19C2434.23 651.27 2434.67 650.99 2445.42 649.60C2456.69 648.15 2493.39 644.12 2504.51 642.51C2514.70 641.04 2516.41 639.75 2519.52 638.90C2522.63 638.06 2523.82 637.55 2525.24 636.87C2526.66 636.18 2528.59 634.71 2528.97 634.33C2529.35 633.95 2527.95 634.33 2527.77 634.33"/><path fill="none" stroke="#1eb511" stroke-width="1.5" stroke-linecap="round" stroke-linejoin="round" d="M2510.45 630.15C2510.41 629.81 2508.64 627.94 2510.17 627.87C2513.68 627.70 2529.58 628.69 2533.84 629.02C2537.06 629.28 2537.60 629.61 2538.56 630.10C2539.52 630.60 2540.22 631.35 2540.24 632.32C2540.26 633.28 2540.35 634.05 2538.69 636.54C2536.29 640.13 2526.81 652.60 2524.28 656.22C2522.35 658.97 2522.17 659.78 2521.80 660.61C2521.48 661.34 2521.80 661.63 2521.80 661.81"/><path fill="none" stroke="#1eb511" stroke-width="1.5" stroke-linecap="round" stroke-linejoin="round" d="M2569.50 617.50C2569.29 617.28 2568.08 615.18 2568.11 616.06C2568.14 616.94 2568.87 621.25 2569.71 623.35C2570.55 625.46 2572.79 628.93 2573.71 630.08C2574.62 631.22 2575.24 631.03 2575.83 631.00C2576.41 630.96 2577.12 630.52 2577.59 629.84C2578.06 629.17 2578.55 628.49 2578.97 626.50C2579.39 624.52 2580.15 619.16 2580.38 616.61C2580.60 614.05 2580.26 609.67 2580.46 609.48C2580.67 609.30 2581.34 613.95 2581.74 615.39C2582.13 616.83 2582.65 618.07 2583.10 619.07C2583.55 620.07 2584.04 621.34 2584.76 622.04C2585.49 622.74 2587.10 623.97 2587.96 623.74C2588.82 623.51 2590.12 620.99 2590.50 620.50"/><path fill="none" stroke="#1eb511" stroke-width="1.5" stroke-linecap="round" stroke-linejoin="round" d="M2596.00 607.50C2595.84 607.21 2595.40 605.99 2594.93 605.57C2594.46 605.16 2593.47 604.58 2592.86 604.74C2592.26 604.90 2591.25 606.11 2590.89 606.64C2590.54 607.18 2590.37 607.56 2590.51 608.30C2590.65 609.04 2590.59 610.27 2591.83 611.55C2593.08 612.84 2597.67 615.79 2598.83 616.85C2599.78 617.73 2599.73 618.34 2599.53 618.66C2599.34 618.98 2597.88 619.10 2597.50 619.00C2597.12 618.90 2597.07 618.15 2597.00 618.00"/><path fill="none" stroke="#1eb511" stroke-width="1.5" stroke-linecap="round" stroke-linejoin="round" d="M2600.00 602.00C2599.92 602.05 2599.46 601.97 2599.46 602.30C2599.46 602.64 2599.51 603.18 2599.97 604.22C2600.43 605.27 2601.88 608.20 2602.54 609.29C2603.20 610.39 2603.83 611.07 2604.35 611.52C2604.88 611.98 2605.59 612.34 2606.04 612.32C2606.48 612.30 2607.01 611.91 2607.33 611.39C2607.66 610.87 2608.02 610.53 2608.20 608.87C2608.38 607.21 2608.07 600.88 2608.50 600.32C2608.94 599.76 2610.39 604.09 2611.10 605.16C2611.81 606.24 2612.53 607.01 2613.23 607.48C2613.93 607.95 2614.99 608.39 2615.75 608.30C2616.51 608.21 2617.62 607.61 2618.29 606.89C2618.96 606.17 2619.81 604.68 2620.24 603.50C2620.67 602.32 2621.05 600.37 2621.17 599.03C2621.29 597.68 2621.24 595.71 2621.06 594.53C2620.88 593.35 2620.35 591.89 2619.97 591.17C2619.59 590.44 2618.93 589.84 2618.50 589.72C2618.08 589.59 2617.54 589.85 2617.15 590.32C2616.77 590.79 2616.21 591.90 2615.93 592.85C2615.65 593.81 2615.35 594.89 2615.28 596.67C2615.21 598.45 2615.28 603.15 2615.47 604.71C2615.66 606.27 2616.18 606.69 2616.55 607.08C2616.91 607.46 2617.48 607.56 2617.91 607.29C2618.34 607.03 2618.99 606.14 2619.41 605.30C2619.83 604.46 2620.35 603.58 2620.72 601.71C2621.09 599.85 2621.48 593.53 2621.89 592.86C2622.30 592.19 2622.99 596.43 2623.45 597.24C2623.92 598.04 2624.52 598.15 2624.98 598.22C2625.44 598.29 2626.12 598.21 2626.51 597.71C2626.89 597.21 2627.40 596.03 2627.54 594.90C2627.68 593.77 2628.02 593.27 2627.44 590.17C2626.74 586.41 2622.77 570.09 2622.85 569.84C2622.93 569.58 2626.81 584.52 2627.99 588.48C2629.17 592.45 2630.20 595.01 2630.72 596.26C2630.96 596.83 2631.40 597.41 2631.48 596.80C2631.74 594.58 2632.35 583.79 2632.50 581.50"/><path fill="none" stroke="#1eb511" stroke-width="1.5" stroke-linecap="round" stroke-linejoin="round" d="M2631.50 572.00C2631.50 571.54 2631.50 568.66 2631.50 568.96C2631.50 569.26 2631.29 572.04 2631.52 574.03C2631.76 576.01 2632.42 579.80 2633.06 582.18C2633.70 584.56 2635.13 588.44 2635.79 589.87C2636.44 591.30 2636.95 591.51 2637.41 591.69C2637.87 591.88 2638.36 592.02 2638.86 591.10C2639.48 589.94 2641.07 586.07 2641.58 583.96C2642.10 581.85 2642.25 578.16 2642.29 577.05C2642.31 576.62 2641.95 576.17 2641.84 576.59C2641.67 577.27 2641.15 580.32 2641.18 581.57C2641.20 582.81 2641.58 584.05 2642.01 584.88C2642.45 585.70 2643.33 586.69 2644.08 587.06C2644.82 587.44 2646.12 587.58 2647.00 587.36C2647.88 587.14 2649.15 586.46 2649.94 585.57C2650.74 584.68 2651.83 582.82 2652.30 581.43C2652.77 580.04 2653.05 577.83 2653.06 576.31C2653.08 574.79 2652.76 572.60 2652.40 571.27C2652.04 569.94 2651.24 568.25 2650.64 567.45C2650.04 566.66 2648.99 566.09 2648.38 565.98C2647.78 565.86 2646.98 566.14 2646.60 566.69C2646.21 567.24 2645.79 568.39 2645.79 569.64C2645.79 570.90 2645.32 571.65 2646.61 575.08C2649.25 582.14 2660.53 608.86 2663.42 616.71C2665.94 623.59 2665.54 624.52 2665.82 627.44C2666.11 630.36 2665.93 633.88 2665.32 636.19C2664.71 638.50 2663.13 641.34 2661.75 642.83C2660.38 644.32 2657.89 645.77 2656.15 646.11C2654.42 646.45 2651.92 645.91 2650.21 645.11C2648.49 644.32 2646.00 642.94 2644.72 640.81C2643.45 638.67 2642.20 634.13 2641.72 630.85C2641.24 627.58 2641.38 621.75 2641.50 619.00C2641.62 616.25 2642.35 613.47 2642.50 612.50"/><path fill="none" stroke="#1eb511" stroke-width="1.5" stroke-linecap="round" stroke-linejoin="round" d="M2692.50 532.00C2692.50 531.78 2692.94 530.98 2692.50 530.50C2692.06 530.02 2690.28 528.92 2689.55 528.83C2688.81 528.73 2688.09 529.38 2687.58 529.86C2687.08 530.35 2686.46 531.25 2686.18 532.03C2685.89 532.82 2685.15 533.10 2685.69 535.11C2686.84 539.38 2692.56 556.25 2693.86 560.54C2694.48 562.62 2694.32 563.15 2694.32 563.76C2694.32 564.36 2694.20 564.46 2693.85 564.57C2693.51 564.68 2692.28 564.51 2692.00 564.50"/><path fill="none" stroke="#1eb511" stroke-width="1.5" stroke-linecap="round" stroke-linejoin="round" d="M2684.00 555.00C2684.01 554.56 2683.88 552.80 2684.07 552.07C2684.27 551.34 2684.22 551.22 2685.28 550.14C2686.40 549.00 2690.57 545.35 2691.50 544.50"/><path fill="none" stroke="#1eb511" stroke-width="1.5" stroke-linecap="round" stroke-linejoin="round" d="M2699.50 541.50C2699.35 541.76 2698.74 541.95 2698.52 543.20C2698.30 544.45 2697.83 547.94 2698.02 549.83C2698.20 551.71 2699.25 554.75 2699.74 555.75C2700.24 556.76 2700.88 556.55 2701.33 556.51C2701.77 556.47 2702.38 556.00 2702.70 555.49C2703.02 554.98 2703.37 553.92 2703.47 553.10C2703.57 552.28 2703.51 550.96 2703.36 550.03C2703.21 549.10 2703.04 548.16 2702.46 546.88C2701.88 545.60 2699.94 542.31 2699.50 541.50"/><path fill="none" stroke="#1eb511" stroke-width="1.5" stroke-linecap="round" stroke-linejoin="round" d="M2707.00 539.50C2707.24 540.49 2708.02 544.62 2708.61 546.08C2709.21 547.54 2710.46 548.85 2710.98 549.22C2711.50 549.59 2711.77 549.02 2712.08 548.55C2712.38 548.07 2712.71 547.80 2713.01 546.06C2713.36 544.03 2714.11 535.62 2714.43 534.98C2714.75 534.35 2714.92 540.49 2715.16 541.83C2715.40 543.17 2715.75 543.54 2716.05 543.93C2716.35 544.32 2716.81 544.52 2717.16 544.41C2717.51 544.29 2718.03 544.26 2718.39 543.14C2718.78 541.91 2719.68 538.60 2719.79 536.20C2719.91 533.80 2719.11 527.55 2719.15 527.13C2719.19 526.71 2719.58 531.33 2720.07 533.40C2720.55 535.46 2722.09 541.32 2722.38 540.90C2722.66 540.49 2721.83 533.05 2721.97 530.63C2722.12 528.20 2722.97 525.63 2723.35 524.76C2723.65 524.05 2724.17 524.43 2724.50 524.78C2724.82 525.12 2725.22 526.24 2725.53 527.06C2725.85 527.88 2726.14 528.97 2726.60 530.25C2727.06 531.53 2728.10 534.82 2728.61 535.61C2729.12 536.39 2729.64 535.89 2730.00 535.50C2730.36 535.11 2730.85 533.38 2731.00 533.00"/><path fill="none" stroke="#1eb511" stroke-width="1.5" stroke-linecap="round" stroke-linejoin="round" d="M2733.00 504.50C2732.99 504.41 2732.84 503.57 2732.96 503.93C2733.82 506.39 2737.84 518.22 2738.70 520.90C2738.88 521.47 2738.78 521.71 2738.66 521.80C2738.54 521.89 2738.34 521.84 2737.91 521.53C2737.20 521.03 2734.74 518.85 2733.95 518.45C2733.16 518.05 2733.02 518.50 2732.62 518.85C2732.23 519.20 2731.65 519.56 2731.32 520.77C2730.99 521.99 2730.32 525.69 2730.40 526.96C2730.49 528.22 2731.26 528.71 2731.86 529.20C2732.46 529.68 2733.39 530.25 2734.38 530.20C2735.38 530.15 2737.28 529.48 2738.50 528.85C2739.72 528.22 2741.68 526.73 2742.50 526.00C2743.32 525.27 2743.77 524.30 2744.00 524.00"/><path fill="none" stroke="#1eb511" stroke-width="1.5" stroke-linecap="round" stroke-linejoin="round" d="M2697.00 593.00C2696.93 592.92 2696.39 592.04 2696.50 592.50C2696.80 593.78 2698.62 600.15 2699.00 601.50"/><path fill="none" stroke="#1eb511" stroke-width="1.5" stroke-linecap="round" stroke-linejoin="round" d="M2693.50 581.00C2693.36 580.91 2692.54 580.35 2692.54 580.43C2692.54 580.50 2693.36 581.34 2693.50 581.50"/><path fill="none" stroke="#1eb511" stroke-width="1.5" stroke-linecap="round" stroke-linejoin="round" d="M2702.00 588.00C2702.21 589.39 2703.04 597.21 2703.42 597.30C2703.80 597.39 2703.95 590.92 2704.54 588.60C2705.12 586.29 2706.70 582.94 2707.33 581.86C2707.83 581.01 2708.36 581.23 2708.74 581.42C2709.13 581.61 2709.48 582.00 2709.92 583.14C2710.36 584.28 2711.22 587.90 2711.68 589.00C2712.14 590.10 2712.58 590.20 2713.00 590.50C2713.42 590.80 2714.27 590.92 2714.50 591.00"/><path fill="none" stroke="#1eb511" stroke-width="1.5" stroke-linecap="round" stroke-linejoin="round" d="M2728.00 561.50C2727.88 561.49 2727.31 560.96 2727.18 561.40C2727.05 561.85 2726.97 562.65 2727.14 564.47C2727.31 566.28 2727.85 571.21 2728.29 573.48C2728.74 575.76 2729.73 578.70 2730.10 579.66C2730.27 580.08 2730.47 580.10 2730.75 579.85C2731.04 579.61 2731.81 578.28 2732.00 578.00"/><path fill="none" stroke="#1eb511" stroke-width="1.5" stroke-linecap="round" stroke-linejoin="round" d="M2738.00 565.00C2737.93 564.71 2737.74 563.42 2737.50 563.04C2737.26 562.65 2736.78 562.38 2736.38 562.42C2735.97 562.46 2735.28 562.85 2734.80 563.31C2734.33 563.78 2733.60 564.70 2733.20 565.52C2732.80 566.35 2732.34 567.72 2732.13 568.79C2731.92 569.85 2731.75 571.56 2731.80 572.61C2731.84 573.65 2732.08 575.01 2732.42 575.73C2732.76 576.45 2733.52 577.17 2734.05 577.41C2734.58 577.66 2735.39 577.65 2735.95 577.35C2736.51 577.06 2737.33 576.17 2737.79 575.47C2738.24 574.76 2738.75 573.58 2739.00 572.67C2739.25 571.76 2739.47 570.30 2739.46 569.40C2739.45 568.49 2739.22 567.38 2738.93 566.65C2738.63 565.91 2737.71 564.82 2737.50 564.50"/><path fill="none" stroke="#1eb511" stroke-width="1.5" stroke-linecap="round" stroke-linejoin="round" d="M2746.50 558.00C2746.34 557.91 2745.74 557.34 2745.42 557.38C2745.10 557.42 2744.75 557.44 2744.39 558.28C2743.99 559.19 2742.94 561.72 2742.77 563.48C2742.61 565.24 2743.05 568.82 2743.31 570.02C2743.58 571.22 2744.13 571.32 2744.53 571.48C2744.93 571.65 2745.49 571.97 2745.97 571.13C2746.46 570.29 2747.61 567.62 2747.77 565.91C2747.93 564.20 2747.38 560.91 2747.04 559.72C2746.70 558.53 2745.73 558.26 2745.50 558.00"/><path fill="none" stroke="#1eb511" stroke-width="1.5" stroke-linecap="round" stroke-linejoin="round" d="M2753.00 557.00C2753.04 558.75 2752.93 565.65 2753.28 568.66C2753.63 571.66 2755.67 578.01 2755.33 577.05C2754.99 576.09 2751.83 565.49 2751.02 562.23C2750.20 558.97 2750.08 557.21 2749.89 555.30C2749.71 553.40 2749.66 550.94 2749.81 549.54C2749.95 548.14 2750.42 546.68 2750.85 545.97C2751.28 545.26 2752.12 544.83 2752.68 544.79C2753.24 544.76 2754.12 545.25 2754.62 545.75C2755.11 546.25 2755.82 546.74 2755.97 548.13C2756.13 549.52 2755.96 553.38 2755.66 555.00C2755.35 556.62 2754.59 557.88 2753.96 558.93C2753.34 559.98 2752.09 561.24 2751.50 562.00C2750.91 562.76 2750.23 563.70 2750.00 564.00"/><path fill="none" stroke="#1eb511" stroke-width="1.5" stroke-linecap="round" stroke-linejoin="round" d="M2767.50 539.50C2767.42 539.88 2767.00 540.42 2766.98 542.01C2766.96 543.59 2767.36 550.81 2767.38 550.09C2767.40 549.37 2767.08 539.64 2767.12 537.18C2767.16 534.84 2767.33 534.42 2767.68 533.72C2768.04 533.02 2769.23 532.68 2769.50 532.50"/><path fill="none" stroke="#1eb511" stroke-width="1.5" stroke-linecap="round" stroke-linejoin="round" d="M2771.00 537.50C2771.01 537.82 2770.95 539.31 2771.06 539.64C2771.18 539.97 2771.45 540.05 2771.77 539.70C2772.34 539.06 2774.39 536.65 2774.88 535.35C2775.37 534.06 2775.16 531.84 2775.03 531.09C2774.91 530.34 2774.38 530.33 2774.04 530.33C2773.69 530.34 2773.21 530.23 2772.73 531.13C2772.19 532.15 2770.75 535.15 2770.45 537.11C2770.15 539.08 2770.46 542.93 2770.72 544.24C2770.98 545.56 2771.57 545.69 2772.16 545.90C2772.75 546.10 2773.78 546.07 2774.62 545.60C2775.46 545.13 2776.79 543.93 2777.76 542.78C2778.73 541.62 2780.14 539.49 2781.09 537.89C2782.03 536.29 2783.21 534.47 2784.07 532.10C2784.93 529.74 2786.45 523.93 2786.80 522.11C2787.07 520.71 2786.67 520.38 2786.40 520.00C2786.14 519.62 2785.50 519.47 2785.02 519.58C2784.54 519.68 2784.02 519.71 2783.19 520.74C2782.36 521.76 2780.18 524.90 2779.47 526.40C2778.76 527.91 2778.60 529.46 2778.46 530.77C2778.31 532.07 2778.31 534.01 2778.52 535.10C2778.72 536.19 2779.20 537.50 2779.81 538.06C2780.42 538.62 2781.67 539.05 2782.58 538.85C2783.49 538.65 2784.93 537.71 2785.87 536.73C2786.80 535.74 2788.09 533.77 2788.80 532.29C2789.51 530.81 2790.32 528.42 2790.61 526.87C2790.90 525.31 2790.87 523.16 2790.71 521.94C2790.55 520.72 2789.97 519.30 2789.56 518.70C2789.15 518.11 2788.40 517.82 2787.97 517.96C2787.55 518.11 2786.93 518.81 2786.75 519.65C2786.57 520.49 2786.51 522.11 2786.78 523.55C2787.05 524.98 2786.88 525.63 2788.55 529.23C2790.42 533.24 2797.38 546.11 2799.23 550.28C2801.08 554.45 2800.75 555.15 2800.89 557.04C2801.04 558.93 2800.76 561.31 2800.22 562.91C2799.69 564.50 2798.40 566.52 2797.32 567.67C2796.23 568.82 2794.30 570.14 2793.00 570.56C2791.69 570.99 2789.79 571.08 2788.61 570.49C2787.43 569.91 2785.94 568.29 2785.12 566.69C2784.30 565.08 2783.43 562.45 2783.14 559.79C2782.85 557.13 2782.75 552.31 2783.18 548.96C2783.61 545.62 2784.90 540.34 2786.00 537.50C2787.10 534.66 2789.82 531.12 2790.50 530.00"/><path fill="none" stroke="#1eb511" stroke-width="1.5" stroke-linecap="round" stroke-linejoin="round" d="M2794.50 512.50C2794.86 514.28 2797.10 525.27 2796.88 524.37C2796.65 523.47 2793.51 509.18 2793.00 506.50C2792.94 506.17 2793.43 506.50 2793.50 506.50"/><path fill="none" stroke="#1eb511" stroke-width="1.5" stroke-linecap="round" stroke-linejoin="round" d="M2800.50 508.00C2800.70 508.01 2801.94 507.37 2801.84 508.04C2801.73 508.71 2800.09 511.07 2799.81 512.48C2799.53 513.89 2799.78 516.51 2799.97 517.43C2800.16 518.34 2800.71 518.41 2801.09 518.58C2801.46 518.76 2802.08 518.82 2802.46 518.60C2802.84 518.37 2803.38 518.14 2803.65 517.09C2803.92 516.04 2804.45 513.33 2804.28 511.60C2804.10 509.86 2802.77 506.41 2802.50 505.50"/><path fill="none" stroke="#1eb511" stroke-width="1.5" stroke-linecap="round" stroke-linejoin="round" d="M2805.50 504.50C2805.76 504.72 2806.72 505.15 2807.23 505.97C2807.74 506.78 2808.43 510.70 2808.92 509.95C2809.42 509.20 2809.86 503.23 2810.53 500.97C2811.19 498.71 2812.73 495.78 2813.33 494.87C2813.78 494.20 2814.09 494.23 2814.54 494.90C2815.19 495.86 2816.92 500.26 2817.64 501.28C2818.30 502.23 2818.78 501.78 2819.32 501.70C2819.86 501.62 2820.72 501.24 2821.24 500.74C2821.76 500.24 2822.35 499.67 2822.78 498.37C2823.21 497.07 2823.97 493.51 2824.12 492.07C2824.28 490.63 2824.12 489.86 2823.84 488.78C2823.57 487.69 2822.67 485.47 2822.27 484.85C2821.86 484.23 2821.54 484.27 2821.15 484.65C2820.77 485.02 2819.92 486.65 2819.72 487.35C2819.52 488.05 2819.13 488.19 2819.81 489.31C2820.72 490.79 2824.96 495.84 2825.78 497.20C2826.23 497.97 2825.66 498.01 2825.25 498.43C2824.83 498.85 2823.34 499.76 2823.00 500.00"/><path fill="none" stroke="#1eb511" stroke-width="1.5" stroke-linecap="round" stroke-linejoin="round" d="M2836.00 488.50C2836.29 488.19 2837.66 486.54 2837.96 486.46C2838.26 486.39 2837.99 487.77 2838.00 488.00"/><path fill="none" stroke="#1eb511" stroke-width="1.5" stroke-linecap="round" stroke-linejoin="round" d="M2828.50 535.00C2828.31 534.74 2827.60 533.60 2827.21 533.28C2826.82 532.97 2826.32 532.86 2825.92 532.90C2825.51 532.94 2824.92 532.80 2824.51 533.55C2824.09 534.29 2823.24 536.76 2823.15 537.87C2823.05 538.98 2823.49 540.09 2823.88 540.95C2824.28 541.80 2825.14 543.00 2825.79 543.56C2826.43 544.12 2827.50 544.60 2828.21 544.67C2828.93 544.75 2829.94 544.53 2830.54 544.07C2831.14 543.61 2831.85 542.49 2832.20 541.60C2832.56 540.71 2832.85 539.23 2832.90 538.12C2832.94 537.01 2832.86 535.29 2832.50 534.22C2832.14 533.15 2830.80 531.48 2830.50 531.00"/><path fill="none" stroke="#1eb511" stroke-width="1.5" stroke-linecap="round" stroke-linejoin="round" d="M2835.50 528.00C2835.61 528.74 2835.86 531.51 2836.26 532.93C2836.67 534.35 2837.88 537.83 2838.21 537.47C2838.55 537.10 2838.31 532.07 2838.50 530.50C2838.69 528.93 2838.90 528.20 2839.50 527.00C2840.10 525.80 2842.05 523.17 2842.50 522.50"/><path fill="none" stroke="#1eb511" stroke-width="1.5" stroke-linecap="round" stroke-linejoin="round" d="M2722.00 642.00C2722.00 641.76 2721.75 639.36 2721.98 640.40C2722.29 641.81 2723.77 650.14 2724.07 651.43C2724.38 652.72 2724.01 649.36 2724.00 649.00"/><path fill="none" stroke="#1eb511" stroke-width="1.5" stroke-linecap="round" stroke-linejoin="round" d="M2718.00 633.50C2717.92 633.38 2717.25 632.53 2717.48 632.68C2717.70 632.83 2719.20 634.23 2719.50 634.50"/><path fill="none" stroke="#1eb511" stroke-width="1.5" stroke-linecap="round" stroke-linejoin="round" d="M2728.50 640.50C2728.87 641.19 2730.49 645.87 2730.97 645.10C2731.44 644.34 2731.43 637.23 2731.68 635.40C2731.92 633.63 2732.28 633.40 2732.62 632.89C2732.96 632.38 2733.30 631.76 2733.96 631.98C2734.61 632.21 2736.09 633.41 2736.97 634.39C2737.84 635.36 2739.04 637.77 2739.79 638.46C2740.55 639.16 2741.67 638.92 2742.00 639.00"/><path fill="none" stroke="#1eb511" stroke-width="1.5" stroke-linecap="round" stroke-linejoin="round" d="M2769.50 612.50C2769.48 612.15 2769.68 610.70 2769.35 610.18C2769.03 609.66 2768.03 608.91 2767.31 609.02C2766.59 609.13 2765.13 610.30 2764.58 610.89C2764.03 611.48 2763.80 612.30 2763.63 612.94C2763.46 613.59 2763.36 614.54 2763.44 615.17C2763.52 615.81 2763.79 616.65 2764.14 617.18C2764.50 617.72 2764.71 618.06 2765.81 618.72C2766.91 619.38 2770.57 620.99 2771.45 621.56C2772.02 621.93 2772.00 622.12 2771.69 622.55C2771.38 622.99 2770.17 624.10 2769.39 624.46C2768.61 624.83 2766.93 624.92 2766.50 625.00"/><path fill="none" stroke="#1eb511" stroke-width="1.5" stroke-linecap="round" stroke-linejoin="round" d="M2775.50 608.00C2775.99 609.58 2778.45 618.18 2778.77 618.51C2779.09 618.83 2777.75 611.90 2777.63 610.15C2777.50 608.41 2777.73 607.65 2777.93 606.88C2778.14 606.12 2778.61 605.36 2778.98 605.08C2779.36 604.79 2779.99 604.78 2780.44 605.01C2780.88 605.24 2781.31 605.50 2781.97 606.60C2782.62 607.71 2784.32 611.94 2784.80 612.40C2785.28 612.85 2785.06 610.50 2785.14 609.62C2785.23 608.73 2785.26 607.40 2785.38 606.48C2785.50 605.57 2785.76 604.21 2785.96 603.50C2786.15 602.80 2786.47 602.05 2786.70 601.76C2786.93 601.46 2787.11 601.12 2787.49 601.52C2788.16 602.22 2790.34 605.59 2791.17 606.43C2792.01 607.28 2792.47 607.16 2793.05 607.16C2793.62 607.16 2794.18 607.40 2794.99 606.44C2795.81 605.49 2797.80 602.19 2798.49 600.79C2799.17 599.40 2799.41 598.43 2799.56 597.13C2799.72 595.83 2799.71 592.96 2799.53 592.13C2799.34 591.30 2798.76 591.53 2798.33 591.58C2797.91 591.63 2797.20 591.98 2796.71 592.44C2796.22 592.89 2795.51 593.86 2795.06 594.60C2794.61 595.35 2793.96 595.99 2793.68 597.41C2793.40 598.83 2793.12 602.76 2793.19 604.08C2793.26 605.39 2793.76 605.76 2794.14 606.15C2794.51 606.54 2795.18 606.83 2795.67 606.67C2796.17 606.51 2796.94 605.78 2797.45 605.11C2797.97 604.44 2798.59 603.73 2799.12 602.23C2799.65 600.74 2800.52 595.83 2800.98 595.16C2801.44 594.50 2801.84 597.32 2802.22 597.80C2802.60 598.29 2803.10 598.39 2803.53 598.40C2803.96 598.40 2804.65 598.24 2805.08 597.83C2805.52 597.41 2806.15 597.28 2806.44 595.63C2806.72 593.98 2807.23 589.50 2806.99 586.83C2806.74 584.15 2805.31 579.38 2804.79 577.80C2804.39 576.57 2803.89 576.38 2803.56 576.31C2803.23 576.24 2802.78 576.66 2802.60 577.33C2802.42 578.00 2802.33 579.55 2802.35 580.80C2802.37 582.05 2802.24 583.51 2802.73 585.66C2803.22 587.81 2804.87 593.30 2805.62 595.10C2806.37 596.91 2807.10 597.26 2807.73 597.71C2808.36 598.15 2809.25 598.32 2809.84 598.09C2810.43 597.87 2811.20 597.13 2811.66 596.20C2812.11 595.27 2812.62 593.36 2812.87 591.91C2813.11 590.46 2813.39 588.90 2813.28 586.55C2813.18 584.19 2812.65 578.26 2812.18 576.19C2811.71 574.13 2810.53 572.63 2810.15 572.76C2809.76 572.90 2809.47 575.28 2809.62 577.11C2809.76 578.94 2810.53 582.78 2811.11 584.98C2811.70 587.17 2812.96 590.51 2813.54 591.72C2814.11 592.88 2814.78 592.96 2815.00 593.00C2815.22 593.04 2815.00 592.15 2815.00 592.00"/><path fill="none" stroke="#1eb511" stroke-width="1.5" stroke-linecap="round" stroke-linejoin="round" d="M2842.50 557.00C2842.46 556.25 2842.65 552.16 2842.23 552.01C2841.81 551.85 2840.17 554.63 2839.69 555.95C2839.22 557.27 2838.86 559.61 2839.08 560.79C2839.31 561.98 2840.19 563.11 2841.17 563.87C2842.16 564.63 2845.45 565.41 2845.65 565.88C2845.85 566.35 2842.97 566.83 2842.50 567.00"/><path fill="none" stroke="#1eb511" stroke-width="1.5" stroke-linecap="round" stroke-linejoin="round" d="M2848.00 557.00C2848.12 556.99 2848.56 556.45 2848.78 556.92C2849.23 557.90 2850.67 562.51 2851.00 563.50"/><path fill="none" stroke="#1eb511" stroke-width="1.5" stroke-linecap="round" stroke-linejoin="round" d="M2847.00 550.00C2847.00 549.85 2846.83 549.08 2846.98 549.00C2847.13 548.92 2847.85 549.42 2848.00 549.50"/><path fill="none" stroke="#1eb511" stroke-width="1.5" stroke-linecap="round" stroke-linejoin="round" d="M2847.50 554.50C2847.70 554.48 2848.33 553.63 2848.82 554.36C2849.41 555.26 2851.01 560.64 2851.47 560.46C2851.92 560.27 2851.58 555.06 2851.84 553.13C2852.11 551.21 2852.92 548.46 2853.25 547.61C2853.44 547.12 2853.80 546.99 2854.02 547.47C2854.51 548.52 2855.95 553.32 2856.53 554.62C2857.08 555.84 2857.43 555.92 2857.90 556.10C2858.36 556.28 2858.86 556.54 2859.66 555.85C2860.45 555.15 2862.51 552.53 2863.21 551.44C2863.90 550.35 2864.21 549.72 2864.29 548.56C2864.37 547.40 2864.03 544.66 2863.74 543.72C2863.46 542.79 2862.82 542.62 2862.37 542.33C2861.91 542.05 2861.20 541.79 2860.72 541.84C2860.23 541.89 2859.56 542.20 2859.14 542.67C2858.72 543.14 2858.19 544.15 2857.94 544.98C2857.68 545.82 2857.47 547.24 2857.46 548.24C2857.46 549.23 2857.61 550.79 2857.92 551.64C2858.22 552.48 2858.91 553.47 2859.48 553.86C2860.05 554.24 2861.01 554.41 2861.72 554.19C2862.44 553.97 2863.54 553.19 2864.22 552.42C2864.90 551.64 2865.81 550.12 2866.26 549.03C2866.71 547.93 2867.06 546.19 2867.21 545.12C2867.36 544.04 2867.34 542.58 2867.25 541.88C2867.15 541.18 2866.77 540.54 2866.59 540.46C2866.42 540.38 2866.13 540.69 2866.10 541.32C2866.08 541.96 2865.73 542.55 2866.45 544.69C2867.21 546.95 2869.94 553.62 2871.19 556.40C2872.44 559.19 2873.81 561.26 2874.80 563.26C2875.79 565.25 2877.21 567.91 2877.79 569.73C2878.37 571.54 2878.80 573.80 2878.67 575.36C2878.54 576.92 2877.79 578.98 2876.93 580.15C2876.07 581.31 2874.30 582.66 2872.93 583.13C2871.56 583.60 2869.35 583.54 2867.81 583.28C2866.28 583.01 2863.95 582.49 2862.70 581.35C2861.46 580.20 2860.21 577.86 2859.50 575.64C2858.79 573.41 2858.23 568.70 2858.00 566.50C2857.77 564.30 2858.00 561.83 2858.00 561.00"/><path fill="none" stroke="#1eb511" stroke-width="1.5" stroke-linecap="round" stroke-linejoin="round" d="M2866.50 527.00C2867.24 530.55 2870.60 547.42 2871.43 550.65C2871.79 552.08 2871.91 548.82 2872.00 548.50"/><path fill="none" stroke="#1eb511" stroke-width="1.5" stroke-linecap="round" stroke-linejoin="round" d="M2875.00 541.50C2875.57 540.46 2878.19 536.23 2878.78 534.56C2879.38 532.90 2879.12 531.08 2878.98 530.42C2878.85 529.77 2878.28 529.99 2877.89 530.18C2877.50 530.36 2876.81 531.01 2876.40 531.69C2875.99 532.36 2875.37 533.70 2875.15 534.67C2874.93 535.64 2874.82 537.15 2874.93 538.15C2875.03 539.16 2875.27 540.66 2875.82 541.38C2876.38 542.10 2877.53 542.80 2878.61 542.96C2879.69 543.13 2881.74 542.94 2883.00 542.50C2884.26 542.06 2886.40 540.38 2887.00 540.00"/><path fill="none" stroke="#1eb511" stroke-width="1.5" stroke-linecap="round" stroke-linejoin="round" d="M2835.50 620.00C2835.50 619.92 2835.55 619.40 2835.50 619.50C2835.45 619.60 2835.00 619.86 2835.15 620.65C2835.60 623.12 2838.07 633.77 2838.50 636.00C2838.59 636.46 2838.07 635.58 2838.00 635.50"/><path fill="none" stroke="#1eb511" stroke-width="1.5" stroke-linecap="round" stroke-linejoin="round" d="M2831.50 631.00C2831.19 631.02 2829.37 631.57 2829.44 631.12C2829.51 630.67 2830.83 628.92 2831.96 628.00C2833.10 627.08 2836.24 625.45 2837.00 625.00"/><path fill="none" stroke="#1eb511" stroke-width="1.5" stroke-linecap="round" stroke-linejoin="round" d="M2842.50 620.50C2842.39 620.67 2841.90 620.94 2841.80 621.64C2841.70 622.34 2841.57 624.14 2841.84 625.18C2842.10 626.21 2843.11 627.98 2843.56 628.53C2844.00 629.08 2844.45 628.98 2844.82 628.86C2845.18 628.75 2845.57 628.75 2845.97 627.76C2846.38 626.76 2847.22 623.80 2847.52 622.20C2847.82 620.59 2847.64 617.01 2847.97 617.06C2848.30 617.12 2849.23 621.55 2849.72 622.56C2850.20 623.57 2850.73 623.62 2851.20 623.82C2851.67 624.02 2852.39 624.07 2852.85 623.87C2853.31 623.67 2853.86 623.39 2854.26 622.48C2854.66 621.57 2855.38 618.90 2855.52 617.82C2855.66 616.75 2855.07 614.83 2855.18 615.30C2855.29 615.78 2856.18 621.28 2856.25 620.99C2856.32 620.70 2855.53 615.26 2855.65 613.39C2855.76 611.52 2856.50 609.83 2857.00 608.50C2857.50 607.17 2858.70 605.10 2859.00 604.50"/><path fill="none" stroke="#1eb511" stroke-width="1.5" stroke-linecap="round" stroke-linejoin="round" d="M2862.00 608.50C2861.94 609.02 2861.57 610.68 2861.62 611.94C2861.67 613.19 2862.08 617.63 2862.32 616.87C2862.55 616.11 2862.78 609.07 2863.17 606.85C2863.57 604.64 2864.53 602.75 2864.95 602.11C2865.35 601.48 2865.67 602.16 2865.97 602.53C2866.28 602.90 2866.47 603.15 2866.98 604.57C2867.49 605.99 2868.86 610.81 2869.39 612.00C2869.72 612.74 2870.33 612.42 2870.50 612.50"/><path fill="none" stroke="#1eb511" stroke-width="1.5" stroke-linecap="round" stroke-linejoin="round" d="M2906.00 573.50C2905.94 573.28 2905.71 571.05 2905.61 572.05C2905.49 573.23 2905.48 578.74 2905.23 581.38C2904.97 584.03 2904.27 588.19 2903.90 589.67C2903.57 590.95 2903.10 591.11 2902.72 591.27C2902.35 591.42 2901.78 591.10 2901.41 590.70C2901.04 590.31 2900.61 589.78 2900.23 588.64C2899.85 587.50 2898.95 584.35 2898.87 583.10C2898.78 581.85 2898.44 579.95 2899.67 580.32C2900.90 580.70 2905.45 584.72 2907.07 585.57C2908.70 586.42 2909.39 586.24 2910.50 586.00C2911.61 585.76 2913.90 584.30 2914.50 584.00"/><path fill="none" stroke="#1eb511" stroke-width="1.5" stroke-linecap="round" stroke-linejoin="round" d="M2933.00 547.00C2932.79 546.76 2931.28 544.02 2931.60 545.40C2932.17 547.87 2935.81 562.27 2936.80 563.48C2937.79 564.70 2937.68 555.64 2938.19 553.50C2938.69 551.36 2939.71 549.79 2940.15 549.21C2940.60 548.64 2940.69 549.10 2941.18 549.65C2941.91 550.48 2944.17 553.92 2945.01 554.71C2945.84 555.49 2946.22 555.06 2946.75 554.89C2947.28 554.72 2947.97 554.61 2948.55 553.58C2949.14 552.54 2950.36 549.26 2950.65 547.97C2950.94 546.68 2950.68 545.72 2950.50 544.97C2950.33 544.21 2949.82 543.31 2949.48 542.92C2949.13 542.54 2948.60 542.31 2948.20 542.37C2947.79 542.44 2947.16 542.44 2946.80 543.35C2946.44 544.25 2945.85 547.26 2945.80 548.41C2945.76 549.57 2946.12 550.44 2946.52 551.05C2946.91 551.66 2947.79 552.21 2948.43 552.48C2949.07 552.76 2949.94 553.06 2950.76 552.87C2951.59 552.68 2952.99 552.24 2953.93 551.21C2954.86 550.18 2956.54 546.78 2957.00 546.00"/><path fill="none" stroke="#1eb511" stroke-width="1.5" stroke-linecap="round" stroke-linejoin="round" d="M2955.50 528.00C2955.94 529.97 2957.66 538.29 2958.42 541.14C2959.17 543.99 2960.15 546.72 2960.54 547.00C2960.92 547.28 2960.93 543.60 2961.00 543.00"/><path fill="none" stroke="#1eb511" stroke-width="1.5" stroke-linecap="round" stroke-linejoin="round" d="M2961.50 534.50C2961.57 535.78 2961.93 541.72 2962.00 543.00"/><path fill="none" stroke="#1eb511" stroke-width="1.5" stroke-linecap="round" stroke-linejoin="round" d="M2958.50 531.00C2958.73 530.85 2959.77 530.15 2960.00 530.00"/><path fill="none" stroke="#1eb511" stroke-width="1.5" stroke-linecap="round" stroke-linejoin="round" d="M2967.50 527.50C2967.27 527.56 2966.25 526.91 2965.98 527.92C2965.69 529.02 2965.40 533.23 2965.57 534.79C2965.74 536.35 2966.40 537.91 2967.14 538.32C2967.88 538.72 2970.00 537.62 2970.50 537.50"/><path fill="none" stroke="#1eb511" stroke-width="1.5" stroke-linecap="round" stroke-linejoin="round" d="M2973.50 530.50C2973.51 530.28 2973.20 529.94 2973.57 529.04C2974.16 527.61 2976.83 522.45 2977.40 521.01C2977.77 520.05 2977.44 519.75 2977.33 519.46C2977.21 519.18 2977.03 518.79 2976.61 519.11C2976.16 519.46 2974.75 520.96 2974.30 521.76C2973.85 522.55 2973.69 523.60 2973.59 524.39C2973.49 525.18 2973.47 526.29 2973.65 527.01C2973.82 527.73 2974.29 528.72 2974.77 529.21C2975.25 529.69 2976.12 530.11 2976.83 530.25C2977.54 530.39 2978.70 530.37 2979.51 530.14C2980.32 529.90 2981.47 529.30 2982.24 528.67C2983.01 528.05 2984.03 526.92 2984.65 525.97C2985.26 525.02 2985.97 523.51 2986.35 522.35C2986.72 521.20 2987.01 519.43 2987.16 518.26C2987.31 517.08 2987.52 515.69 2987.34 514.55C2987.17 513.40 2986.34 511.18 2986.01 510.64C2985.67 510.10 2985.43 510.39 2985.08 510.93C2984.70 511.52 2983.61 513.36 2983.44 514.60C2983.28 515.83 2983.67 518.19 2983.99 519.14C2984.30 520.09 2984.63 520.32 2985.55 520.92C2986.48 521.52 2989.22 522.54 2990.16 523.12C2991.10 523.70 2992.59 524.07 2991.81 524.80C2991.04 525.54 2986.02 527.52 2985.00 528.00"/><path fill="none" stroke="#1eb511" stroke-width="1.5" stroke-linecap="round" stroke-linejoin="round" d="M2997.00 518.00C2996.85 517.92 2996.15 517.58 2996.00 517.50"/><path fill="none" stroke="#79eb70" stroke-opacity="0.5" stroke-width="13.0" stroke-linecap="round" stroke-linejoin="round" d="M2556.50 627.50C2556.35 627.35 2554.82 627.15 2555.50 626.50C2556.95 625.13 2559.93 622.96 2566.17 618.35C2572.41 613.74 2589.10 601.43 2597.11 595.76C2605.12 590.10 2608.83 587.37 2619.55 580.55C2630.26 573.74 2653.01 559.52 2668.53 550.31C2684.06 541.10 2713.37 524.77 2723.06 519.13C2729.94 515.13 2730.47 514.57 2733.13 512.72C2735.79 510.88 2740.74 507.28 2740.78 506.86C2740.83 506.44 2737.15 508.03 2733.41 509.90C2729.66 511.77 2720.37 516.75 2715.82 519.31C2711.26 521.87 2711.48 521.73 2703.03 526.95C2692.43 533.51 2659.46 553.78 2645.15 562.99C2630.84 572.20 2615.18 583.06 2607.63 588.37C2600.07 593.67 2598.19 595.55 2594.80 598.37C2591.40 601.18 2589.84 602.29 2585.00 607.13C2580.17 611.98 2566.43 626.31 2562.56 630.66C2559.72 633.84 2559.55 635.20 2559.19 636.09C2558.92 636.79 2559.55 636.68 2560.19 636.61C2560.83 636.55 2561.79 636.42 2563.45 635.64C2565.10 634.87 2566.19 634.50 2571.23 631.45C2576.75 628.12 2592.93 618.05 2600.28 613.39C2607.63 608.74 2607.02 609.19 2620.22 600.40C2637.42 588.95 2697.97 548.51 2714.92 537.08C2727.27 528.74 2729.91 526.59 2733.19 524.19C2735.74 522.33 2736.13 521.80 2736.78 521.10C2737.43 520.40 2737.65 519.74 2737.54 519.50C2737.43 519.26 2736.95 519.21 2736.05 519.51C2735.15 519.81 2733.70 520.39 2731.55 521.49C2729.41 522.59 2728.19 523.12 2721.74 526.84C2711.50 532.75 2678.87 551.50 2663.27 560.89C2647.68 570.28 2629.39 581.85 2617.76 589.45C2606.13 597.05 2591.90 607.24 2585.73 611.56C2579.58 615.87 2578.68 616.71 2576.64 618.23C2574.61 619.75 2569.11 623.90 2572.18 621.71C2577.92 617.60 2604.79 597.96 2614.94 590.88C2625.09 583.79 2631.91 579.45 2639.81 574.46C2647.72 569.46 2655.57 564.48 2667.61 557.58C2679.65 550.68 2704.48 536.81 2720.10 528.45C2735.71 520.10 2761.28 507.06 2771.70 501.86C2782.12 496.65 2788.38 493.94 2789.57 493.75C2790.75 493.55 2782.32 498.72 2779.62 500.55C2776.93 502.38 2776.37 502.65 2771.61 505.95C2766.84 509.26 2763.44 512.30 2747.86 522.59C2732.28 532.88 2685.13 562.99 2667.73 574.58C2650.32 586.16 2640.59 593.43 2631.84 599.81C2623.09 606.19 2603.56 620.60 2609.38 617.11C2615.21 613.62 2657.81 584.87 2670.70 576.54C2683.58 568.21 2678.83 571.43 2695.31 561.56C2714.55 550.03 2778.57 511.64 2798.98 499.69C2819.39 487.74 2825.48 485.03 2831.36 481.91C2835.74 479.58 2842.29 476.12 2838.17 478.89C2830.79 483.83 2794.80 506.53 2782.19 514.83C2769.59 523.13 2762.58 528.17 2754.14 534.22C2745.70 540.26 2733.82 549.01 2725.90 555.15C2717.99 561.28 2707.92 569.51 2701.38 575.12C2694.84 580.74 2687.11 587.90 2682.30 592.60C2677.49 597.29 2673.27 601.84 2669.30 606.42C2665.33 611.01 2658.28 620.02 2655.83 623.18C2653.73 625.91 2653.48 626.61 2653.00 627.50C2652.53 628.40 2651.62 629.55 2652.68 629.16C2653.76 628.77 2655.55 628.30 2660.18 624.87C2668.54 618.70 2697.28 596.35 2708.39 588.03C2719.50 579.71 2726.42 574.90 2734.27 569.43C2742.12 563.96 2745.63 561.23 2760.72 551.58C2775.82 541.92 2823.80 512.15 2834.90 505.04C2835.38 504.73 2835.27 504.42 2834.75 504.20C2834.06 503.92 2831.26 503.51 2830.34 503.14C2829.43 502.77 2829.14 502.42 2828.66 501.74C2828.18 501.06 2827.40 499.27 2827.13 498.62C2826.86 497.97 2826.80 497.97 2826.84 497.40C2826.88 496.83 2827.13 495.42 2827.39 494.81C2827.65 494.20 2829.44 492.38 2828.57 493.31C2827.62 494.32 2823.74 498.97 2821.05 501.55C2818.35 504.14 2814.52 507.42 2810.59 510.54C2806.66 513.65 2805.80 515.13 2794.84 522.33C2779.42 532.47 2725.10 566.68 2707.81 578.10C2690.52 589.52 2679.96 598.60 2679.59 598.48C2679.22 598.36 2698.64 582.65 2705.33 577.30C2712.02 571.95 2717.92 567.51 2724.16 562.82C2730.40 558.13 2739.99 551.04 2746.93 546.05C2753.86 541.05 2759.50 536.82 2770.38 529.50C2781.27 522.18 2819.45 498.36 2819.50 497.24C2819.56 496.13 2792.47 510.54 2770.76 522.09C2749.04 533.64 2690.49 565.59 2674.75 574.27C2668.55 577.68 2668.02 578.39 2665.79 579.95C2663.55 581.50 2662.12 582.50 2659.85 584.64C2657.58 586.79 2652.42 592.37 2650.66 594.24C2648.93 596.09 2649.22 595.76 2648.17 597.12C2647.12 598.48 2644.50 602.01 2643.66 603.29C2642.81 604.57 2642.63 605.18 2642.55 605.65C2642.47 606.12 2642.58 606.76 2643.10 606.41C2657.26 597.05 2723.21 552.67 2736.91 543.24C2738.27 542.31 2735.99 543.00 2734.46 543.53C2732.93 544.07 2729.83 545.24 2726.72 546.78C2723.61 548.31 2718.25 551.09 2713.72 553.77C2709.18 556.44 2702.02 560.84 2696.48 564.60C2690.94 568.37 2682.60 574.34 2676.80 578.85C2671.00 583.36 2662.86 590.16 2657.83 594.68C2652.79 599.20 2646.72 605.14 2643.21 608.97C2639.71 612.81 2636.08 617.57 2634.45 620.24C2632.81 622.91 2632.06 625.57 2632.31 626.77C2632.56 627.97 2634.30 628.40 2636.12 628.23C2637.93 628.07 2641.21 627.10 2644.40 625.68C2647.59 624.25 2648.94 623.74 2657.38 618.73C2671.49 610.37 2719.74 581.35 2738.41 569.94C2757.07 558.54 2769.90 550.40 2781.82 542.70C2793.74 534.99 2808.69 525.00 2817.85 518.57C2827.00 512.14 2839.22 502.72 2842.86 499.86C2843.29 499.52 2842.64 499.31 2842.12 499.48C2841.20 499.80 2840.19 500.06 2836.69 501.95C2830.98 505.03 2812.81 515.05 2804.07 520.04C2795.32 525.03 2786.78 530.14 2778.42 535.22C2770.06 540.30 2757.29 548.18 2748.35 553.93C2739.41 559.68 2727.33 567.71 2718.83 573.56C2710.34 579.41 2699.13 587.46 2691.73 592.93C2684.34 598.39 2675.23 605.44 2669.53 610.00C2663.84 614.57 2657.63 620.00 2653.78 623.37C2649.92 626.74 2645.82 630.50 2643.80 632.48C2641.79 634.46 2640.48 636.00 2640.33 636.58C2640.18 637.16 2641.36 637.16 2642.81 636.35C2648.45 633.18 2654.75 629.75 2677.97 615.46C2701.68 600.87 2778.20 553.37 2800.89 539.10C2820.08 527.02 2823.50 524.26 2829.22 520.29C2834.94 516.32 2836.56 514.75 2839.04 512.66C2841.52 510.56 2844.15 508.02 2845.73 506.34C2847.32 504.65 2848.77 502.64 2849.59 501.43C2850.41 500.21 2851.20 499.49 2851.20 498.22C2851.19 496.96 2849.89 494.88 2849.54 492.99C2849.20 491.11 2849.40 487.45 2848.89 485.67C2848.38 483.89 2846.86 482.05 2846.14 481.13C2845.43 480.20 2844.85 479.80 2844.11 479.52C2843.37 479.25 2842.45 478.97 2841.19 479.27C2839.94 479.58 2839.10 479.50 2835.73 481.55C2822.83 489.38 2770.24 522.03 2755.18 531.47C2741.77 539.88 2748.42 535.60 2735.33 544.50C2721.85 553.65 2681.66 580.82 2665.33 592.51C2648.99 604.19 2631.69 618.02 2626.43 622.40C2624.46 624.04 2628.83 622.15 2630.22 621.72C2631.60 621.30 2632.20 621.37 2635.66 619.56C2646.40 613.95 2688.17 591.42 2701.83 584.31C2715.49 577.20 2719.20 575.73 2726.71 572.17C2734.23 568.60 2735.12 568.27 2751.94 560.51C2771.85 551.33 2844.39 518.02 2859.44 510.94C2864.00 508.79 2854.44 512.27 2852.25 513.27C2850.06 514.28 2849.63 514.48 2844.86 517.63C2835.44 523.86 2805.45 543.78 2789.40 554.81C2773.35 565.84 2751.83 581.05 2737.89 591.15C2723.95 601.24 2704.71 615.85 2696.48 622.10C2688.24 628.36 2686.13 630.31 2683.00 632.84C2679.88 635.38 2676.72 637.98 2675.65 639.00C2675.32 639.31 2675.49 639.89 2675.87 639.64C2687.40 632.22 2736.25 600.02 2752.57 589.52C2768.90 579.03 2771.15 577.63 2784.69 569.68C2798.23 561.73 2828.62 544.11 2842.85 536.52C2857.08 528.93 2877.12 520.52 2879.55 519.05C2881.98 517.59 2865.22 524.14 2859.03 526.77C2852.84 529.39 2845.38 533.01 2838.28 536.56C2831.18 540.11 2820.23 545.67 2811.71 550.43C2803.18 555.20 2790.25 562.76 2781.46 568.34C2772.66 573.93 2760.71 582.08 2753.07 587.65C2745.42 593.22 2736.13 600.55 2730.49 605.48C2724.86 610.41 2718.61 616.81 2715.51 620.52C2712.40 624.22 2710.27 628.19 2709.78 630.18C2709.28 632.18 2710.41 633.62 2712.21 633.82C2714.00 634.01 2717.79 633.22 2721.77 631.51C2725.74 629.79 2732.72 625.88 2738.68 622.36C2744.65 618.83 2746.52 617.92 2761.52 608.01C2782.16 594.37 2859.98 542.60 2876.30 531.45C2879.80 529.06 2873.81 532.07 2870.35 533.64C2866.89 535.21 2859.87 538.53 2853.24 541.92C2846.60 545.31 2835.26 551.17 2826.12 556.23C2816.97 561.30 2802.60 569.46 2792.27 575.71C2781.94 581.95 2766.95 591.43 2757.27 597.85C2747.59 604.28 2735.16 613.01 2727.74 618.55C2720.32 624.08 2711.93 631.01 2707.80 634.76C2703.67 638.50 2700.72 642.10 2700.22 643.55C2699.72 645.00 2701.69 645.21 2704.47 644.42C2707.39 643.58 2713.90 640.74 2719.69 637.97C2725.48 635.19 2730.94 632.46 2743.06 625.92C2755.18 619.38 2784.65 603.44 2800.48 594.36C2816.30 585.27 2839.07 571.29 2848.57 565.35C2858.07 559.40 2860.21 557.47 2863.82 554.74C2867.43 552.02 2870.80 549.07 2872.64 547.18C2874.47 545.30 2875.78 543.33 2876.05 542.16C2876.33 540.99 2875.65 539.91 2874.48 539.38C2873.30 538.85 2870.80 538.54 2868.22 538.65C2865.65 538.77 2861.37 539.13 2857.29 540.13C2853.21 541.13 2846.62 543.10 2841.00 545.35C2835.38 547.59 2826.74 551.44 2819.84 555.10C2812.95 558.77 2802.57 564.87 2795.04 569.77C2787.50 574.67 2776.74 582.40 2769.62 587.77C2762.51 593.15 2753.38 600.62 2747.62 605.61C2741.86 610.59 2734.92 617.22 2731.23 621.02C2727.54 624.82 2724.14 628.94 2723.01 630.94C2721.88 632.93 2722.27 634.21 2723.70 634.33C2725.13 634.45 2727.05 634.48 2732.54 631.73C2740.07 627.94 2752.32 621.95 2773.91 609.10C2795.51 596.25 2859.29 556.73 2876.51 546.08C2884.78 540.96 2886.45 539.75 2888.72 538.09C2890.98 536.43 2892.00 535.38 2891.63 535.01C2891.26 534.65 2889.34 534.72 2886.23 535.63C2883.12 536.55 2876.73 538.74 2870.89 541.12C2865.05 543.51 2855.32 547.67 2847.29 551.54C2839.26 555.40 2826.89 561.57 2817.38 566.89C2807.87 572.21 2793.56 580.77 2783.89 586.99C2774.21 593.21 2761.25 602.20 2752.87 608.34C2744.50 614.49 2734.15 622.70 2728.08 627.95C2722.01 633.20 2715.64 639.65 2712.42 643.35C2709.19 647.05 2707.12 650.68 2706.58 652.60C2706.04 654.52 2707.13 655.86 2708.84 656.14C2710.54 656.42 2714.40 655.66 2717.96 654.44C2721.52 653.23 2727.44 650.52 2732.55 648.02C2737.66 645.51 2742.01 643.49 2752.02 637.74C2762.04 631.99 2788.63 616.13 2799.32 609.69C2810.00 603.25 2813.84 600.89 2823.24 594.83C2832.64 588.77 2852.88 575.63 2862.00 569.27C2871.11 562.92 2879.96 555.71 2884.02 552.46C2887.67 549.55 2888.07 548.78 2889.08 547.63C2890.09 546.48 2890.86 545.24 2890.75 544.76C2890.63 544.29 2889.70 544.20 2888.29 544.48C2886.89 544.75 2884.38 545.36 2881.36 546.60C2878.34 547.84 2873.17 550.17 2868.16 552.73C2863.14 555.28 2854.83 559.77 2847.94 563.62C2841.05 567.47 2830.45 573.48 2822.21 578.39C2813.98 583.30 2801.57 590.95 2793.07 596.36C2784.57 601.78 2772.98 609.44 2765.53 614.49C2758.08 619.55 2748.93 625.93 2743.43 630.06C2737.92 634.19 2731.78 639.35 2728.85 642.02C2725.93 644.70 2724.20 647.01 2723.94 647.90C2723.68 648.79 2725.14 648.72 2727.12 647.95C2729.17 647.15 2730.90 646.68 2737.60 642.58C2748.71 635.80 2784.53 612.93 2801.14 602.72C2817.74 592.50 2838.28 580.66 2848.31 574.48C2858.35 568.30 2862.75 565.18 2868.01 561.51C2873.28 557.84 2879.45 553.21 2883.40 550.03C2887.36 546.84 2891.91 542.85 2894.37 540.25C2896.83 537.66 2899.07 534.50 2899.80 532.71C2900.53 530.92 2900.13 529.34 2899.26 528.32C2898.39 527.31 2896.06 526.49 2893.99 525.92C2891.91 525.36 2888.14 524.92 2885.40 524.55C2882.67 524.18 2878.75 523.65 2875.75 523.47C2872.75 523.30 2868.77 523.03 2865.39 523.39C2862.01 523.75 2857.04 524.69 2853.24 525.85C2849.44 527.00 2843.99 529.23 2840.06 531.09C2836.13 532.95 2830.55 536.16 2827.04 538.24C2823.52 540.31 2818.81 543.36 2816.63 544.93C2814.45 546.49 2812.70 548.15 2812.50 548.66C2812.29 549.16 2813.55 549.01 2815.24 548.28C2817.11 547.47 2818.56 546.78 2824.90 543.26C2835.07 537.62 2877.96 512.92 2882.98 510.70C2887.99 508.49 2864.95 523.42 2858.34 528.49C2851.73 533.56 2844.43 539.50 2838.89 544.52C2833.36 549.53 2825.65 557.12 2821.44 561.91C2817.23 566.71 2812.74 572.96 2810.81 576.48C2808.87 580.00 2807.98 583.72 2808.56 585.39C2809.13 587.06 2811.67 588.02 2814.64 587.59C2817.61 587.16 2823.44 584.81 2828.36 582.53C2833.28 580.25 2841.02 575.91 2847.42 572.40C2853.81 568.89 2863.55 563.27 2871.00 559.15C2878.44 555.03 2889.45 548.93 2897.05 544.94C2904.65 540.96 2914.92 535.78 2921.68 532.58C2928.44 529.38 2937.23 525.54 2942.10 523.59C2946.97 521.64 2951.98 520.00 2954.12 519.58C2955.81 519.26 2957.30 519.63 2956.37 520.84C2955.44 522.05 2953.86 523.52 2947.91 527.63C2934.45 536.96 2883.01 571.58 2866.64 583.01C2850.27 594.44 2845.56 598.56 2838.77 603.83C2831.98 609.10 2824.93 615.02 2821.38 618.14C2817.83 621.25 2815.14 624.02 2815.09 624.59C2815.04 625.16 2817.43 624.37 2821.03 621.95C2828.90 616.68 2855.09 597.93 2867.52 589.43C2879.94 580.92 2892.53 572.55 2903.88 565.24C2915.23 557.94 2932.00 547.32 2943.20 540.70C2954.39 534.08 2969.40 525.96 2978.49 521.09C2987.58 516.23 2998.09 511.05 3003.82 508.25C3009.56 505.45 3014.72 503.32 3016.74 502.40C3017.14 502.22 3017.75 501.99 3017.34 502.14C3015.71 502.73 3010.93 504.22 3005.87 506.33C3000.81 508.43 2991.79 512.23 2983.60 516.16C2975.41 520.08 2961.99 526.67 2951.24 532.49C2940.49 538.32 2923.75 547.81 2911.92 555.01C2900.09 562.21 2883.48 573.02 2872.38 580.50C2861.29 587.98 2846.70 598.23 2837.94 604.87C2829.18 611.52 2819.30 619.89 2813.97 624.78C2808.63 629.67 2804.09 634.81 2802.36 637.46C2800.63 640.12 2800.74 642.11 2802.45 642.48C2804.16 642.85 2809.07 641.75 2813.76 639.93C2818.45 638.12 2826.78 633.97 2833.72 630.38C2840.67 626.78 2851.60 620.80 2860.06 615.96C2868.52 611.11 2877.25 606.04 2890.13 598.07C2903.00 590.09 2934.50 570.12 2945.88 562.76C2957.26 555.40 2961.23 552.46 2965.97 549.01C2970.72 545.57 2975.48 541.79 2977.52 539.82C2979.55 537.85 2980.44 536.25 2979.54 535.87C2978.64 535.49 2975.53 535.80 2971.53 537.26C2967.53 538.71 2959.59 542.13 2952.86 545.54C2946.13 548.96 2934.94 555.06 2926.66 560.05C2918.38 565.04 2906.06 572.96 2897.65 578.82C2889.25 584.67 2877.75 593.37 2870.64 599.10C2863.53 604.83 2854.92 612.58 2850.27 617.00C2845.62 621.41 2841.39 626.29 2839.66 628.54C2838.22 630.42 2837.54 632.21 2838.73 631.97C2839.93 631.73 2842.17 631.01 2847.64 626.95C2860.07 617.74 2905.85 582.45 2921.59 570.57C2937.33 558.68 2941.55 555.64 2952.56 547.73C2963.56 539.83 2987.98 523.00 2994.93 517.86C2998.07 515.53 2999.62 513.74 2998.83 513.48C2998.03 513.22 2994.66 514.03 2989.63 516.12C2984.60 518.22 2974.48 522.77 2965.28 527.43C2956.09 532.10 2940.47 540.26 2928.34 547.23C2916.21 554.20 2897.55 565.50 2884.41 573.89C2871.26 582.29 2855.24 593.13 2840.72 603.18C2826.21 613.23 2796.09 635.07 2787.63 640.91C2785.71 642.23 2782.69 643.75 2784.34 642.10C2788.34 638.10 2798.70 628.28 2814.31 614.26C2829.91 600.24 2874.98 560.76 2888.38 548.66C2898.99 539.07 2900.80 536.87 2903.64 533.58C2906.48 530.29 2908.22 527.35 2907.32 526.72C2906.41 526.08 2902.40 527.01 2897.61 529.35C2892.83 531.69 2883.03 537.46 2875.42 542.31C2867.81 547.17 2855.48 555.49 2846.88 561.72C2838.29 567.95 2825.56 577.70 2818.12 583.88C2810.67 590.05 2801.57 598.46 2797.26 602.88C2792.96 607.30 2789.67 611.74 2789.41 613.32C2789.14 614.90 2791.77 615.01 2795.52 613.41C2799.52 611.71 2808.22 606.78 2816.04 601.99C2823.87 597.20 2837.17 588.26 2847.69 581.50C2858.20 574.74 2874.41 564.27 2886.15 556.90C2897.89 549.53 2914.76 539.08 2925.97 532.34C2937.19 525.61 2951.92 517.01 2960.94 512.02C2969.96 507.02 2980.39 501.85 2986.11 499.03C2991.83 496.20 2997.04 493.91 2999.08 493.19C2999.82 492.93 3000.33 493.74 2999.69 494.20C2994.26 498.15 2973.42 511.98 2962.91 519.48C2952.39 526.98 2940.02 536.07 2929.61 544.19C2919.21 552.31 2903.71 564.93 2893.55 573.62C2883.38 582.32 2869.58 594.69 2861.85 602.14C2854.13 609.58 2845.96 618.56 2842.05 623.23C2838.14 627.90 2835.70 632.04 2835.78 633.28C2835.86 634.52 2838.76 633.74 2842.57 631.47C2846.38 629.21 2849.56 627.08 2861.18 618.18C2872.79 609.28 2906.30 582.66 2920.00 572.14C2933.71 561.61 2943.50 554.50 2952.57 548.01C2961.65 541.52 2973.61 533.41 2980.51 528.87C2987.41 524.32 2995.01 519.87 2998.57 517.70C3002.12 515.52 3007.96 512.10 3004.23 514.38C2995.26 519.83 2954.48 544.16 2938.76 554.06C2923.04 563.96 2910.83 572.41 2899.41 580.38C2888.00 588.36 2872.32 599.90 2862.67 607.22C2853.03 614.53 2841.61 623.56 2835.12 629.15C2828.63 634.74 2822.29 641.16 2819.39 644.50C2816.49 647.84 2815.34 650.57 2815.79 651.40C2816.25 652.22 2818.98 651.66 2822.43 650.02C2825.89 648.38 2828.44 647.70 2838.81 640.49C2854.69 629.44 2910.24 589.12 2928.28 576.39C2946.33 563.65 2945.91 564.03 2959.10 555.59C2972.30 547.15 3006.53 526.43 3016.24 520.12C3021.89 516.44 3022.37 515.19 3023.85 513.47C3025.32 511.75 3026.12 509.72 3026.10 508.65C3026.07 507.57 3024.95 506.70 3023.68 506.32C3022.41 505.93 3021.37 505.66 3017.63 506.09C3013.89 506.51 3008.10 506.55 2998.75 509.15C2989.41 511.75 2968.57 519.30 2955.35 523.42C2942.13 527.54 2921.78 532.81 2910.62 536.63C2899.45 540.45 2892.15 543.74 2880.91 548.90C2869.67 554.05 2844.91 566.62 2835.67 571.00C2826.42 575.39 2822.72 576.60 2819.27 578.12C2815.81 579.64 2815.63 579.46 2812.63 581.15C2809.64 582.84 2806.59 584.35 2799.30 589.38C2792.00 594.41 2767.88 612.21 2763.99 614.69C2760.11 617.18 2769.45 609.32 2773.37 605.94C2777.29 602.56 2779.73 600.16 2790.12 592.14C2800.52 584.13 2830.71 561.28 2842.67 552.51C2854.62 543.73 2859.98 540.12 2869.81 533.63C2879.65 527.14 2903.80 512.22 2908.24 509.23C2912.67 506.23 2902.44 512.13 2899.35 513.66C2896.27 515.20 2894.97 515.91 2887.67 519.45C2880.36 522.98 2859.30 533.23 2850.65 537.24C2842.00 541.25 2835.59 544.02 2830.01 546.19C2824.43 548.36 2817.48 550.72 2813.45 551.68C2809.42 552.64 2805.27 552.99 2803.14 552.58C2801.01 552.16 2799.51 550.62 2799.26 548.91C2799.02 547.21 2800.05 544.04 2801.52 541.23C2802.98 538.43 2806.32 533.76 2809.05 530.21C2811.79 526.65 2814.54 523.11 2819.75 517.54C2824.97 511.97 2839.24 497.84 2843.82 493.07C2848.33 488.38 2849.22 487.26 2850.29 485.76C2851.34 484.29 2851.75 483.18 2850.92 483.12C2850.09 483.07 2847.48 483.91 2844.75 485.40C2842.02 486.88 2836.66 490.33 2832.72 493.02C2828.78 495.71 2822.76 500.10 2818.50 503.31C2814.24 506.52 2807.94 511.37 2804.32 514.43C2800.69 517.49 2796.21 521.77 2794.32 523.69C2792.44 525.61 2791.29 527.09 2791.72 527.22C2792.14 527.34 2794.53 526.15 2797.16 524.53C2799.78 522.91 2803.16 520.97 2809.22 516.42C2815.28 511.87 2831.81 498.88 2837.55 494.19C2843.29 489.50 2845.20 487.44 2847.48 485.14C2849.75 482.85 2851.78 480.30 2852.71 478.87C2853.64 477.44 2854.02 476.19 2853.67 475.59C2853.31 474.99 2851.89 474.68 2850.36 474.86C2848.82 475.05 2846.20 475.74 2843.46 476.83C2840.71 477.92 2839.49 478.25 2832.08 482.11C2823.53 486.55 2794.84 502.30 2786.52 506.47C2780.24 509.62 2778.79 509.52 2776.56 509.92C2774.34 510.32 2772.44 509.98 2771.68 509.16C2770.91 508.35 2770.35 507.40 2771.48 504.50C2772.82 501.04 2779.32 489.22 2780.65 486.09C2781.30 484.57 2781.21 483.78 2780.35 483.63C2779.50 483.49 2778.24 483.37 2774.94 485.14C2769.75 487.92 2755.85 495.99 2745.77 502.14C2735.69 508.30 2715.25 521.53 2707.75 526.18C2700.25 530.84 2698.01 532.03 2695.75 533.17C2693.90 534.11 2692.09 534.67 2692.70 533.78C2693.31 532.89 2696.43 529.98 2699.83 527.23C2703.23 524.49 2709.95 519.39 2715.36 515.48C2720.76 511.58 2729.58 505.39 2735.88 501.19C2742.18 496.99 2751.43 491.10 2757.35 487.48C2763.27 483.86 2770.06 479.92 2775.34 477.04C2780.62 474.16 2794.93 466.63 2792.55 468.28C2790.18 469.94 2767.45 483.18 2759.53 488.07C2751.61 492.96 2745.38 497.10 2739.76 500.90C2734.15 504.69 2726.16 510.32 2722.11 513.38C2718.06 516.44 2714.15 519.82 2712.78 521.29C2711.91 522.21 2711.74 523.51 2712.96 523.18C2714.47 522.76 2716.50 522.08 2722.87 518.50C2736.30 510.97 2788.96 480.52 2802.47 472.96C2809.18 469.21 2811.05 468.87 2812.93 468.11C2814.23 467.59 2816.15 467.09 2815.02 467.91C2807.91 473.13 2776.89 494.36 2765.51 502.87C2754.12 511.39 2746.61 518.08 2739.15 524.70C2731.69 531.31 2722.00 540.64 2715.79 546.97C2709.57 553.31 2702.05 561.72 2697.73 566.93C2693.41 572.13 2688.97 578.45 2686.97 581.69C2684.96 584.92 2684.16 587.47 2684.37 588.48C2684.58 589.49 2686.06 589.56 2688.39 588.40C2690.72 587.25 2692.98 585.88 2699.88 580.78C2706.77 575.68 2726.89 560.20 2734.34 554.41C2741.79 548.62 2746.17 544.95 2749.52 542.20C2752.87 539.45 2758.27 535.05 2756.67 536.08C2755.07 537.11 2748.23 541.62 2738.85 549.06C2729.47 556.51 2703.82 577.51 2694.16 585.69C2684.50 593.87 2679.08 599.05 2674.44 603.60C2669.80 608.15 2665.27 613.27 2663.23 616.01C2661.20 618.75 2660.11 621.26 2660.89 621.86C2661.66 622.46 2664.94 621.64 2668.39 620.01C2671.83 618.37 2675.77 616.45 2683.82 610.97C2691.88 605.50 2713.12 590.29 2722.08 583.50C2731.04 576.72 2740.79 568.20 2743.56 565.73C2745.18 564.30 2742.42 565.89 2740.60 567.06C2738.31 568.54 2732.82 572.27 2728.25 575.58C2723.68 578.88 2718.41 582.59 2710.15 589.11C2701.90 595.62 2680.37 612.97 2673.21 619.00C2666.06 625.03 2664.45 627.13 2662.45 629.33C2660.44 631.53 2659.40 633.25 2659.84 633.65C2660.28 634.05 2662.06 633.94 2665.40 632.00C2670.49 629.05 2687.13 618.33 2693.73 613.94C2700.33 609.56 2704.36 606.55 2709.38 602.78C2714.39 599.00 2726.30 589.63 2727.17 588.76C2728.05 587.90 2722.99 591.23 2715.23 597.01C2705.68 604.13 2667.38 633.55 2663.46 636.28C2659.54 639.01 2683.00 620.39 2689.07 615.20C2695.14 610.00 2701.59 604.05 2703.91 601.67C2705.05 600.51 2705.19 599.53 2704.59 599.32C2703.99 599.12 2702.19 599.48 2699.89 600.29C2697.60 601.10 2696.24 601.51 2689.29 604.74C2680.74 608.72 2651.31 623.03 2642.85 626.80C2636.50 629.63 2634.93 629.69 2632.89 629.88C2630.86 630.07 2629.32 629.35 2629.25 628.06C2629.18 626.77 2629.51 625.33 2632.41 621.25C2636.42 615.61 2652.15 595.86 2655.96 590.45C2658.10 587.41 2658.31 585.85 2657.83 585.20C2657.34 584.54 2655.33 584.85 2652.73 586.10C2650.12 587.35 2644.78 590.66 2640.45 593.53C2636.12 596.40 2630.96 599.88 2623.85 605.21C2616.73 610.54 2598.70 624.56 2593.00 629.06C2588.06 632.95 2586.83 634.26 2585.85 635.21C2585.55 635.51 2586.11 635.60 2586.47 635.37C2587.93 634.44 2589.69 633.49 2595.57 628.96C2601.52 624.37 2619.55 610.10 2626.16 604.78C2632.76 599.46 2636.67 596.15 2639.61 593.50C2642.55 590.85 2645.06 588.14 2645.77 587.13C2646.34 586.31 2645.22 586.27 2644.34 586.72C2642.68 587.56 2638.44 590.16 2634.69 592.73C2630.95 595.29 2624.19 600.13 2619.38 603.80C2614.57 607.47 2607.36 613.14 2602.63 617.18C2597.90 621.22 2591.47 627.07 2587.86 630.72C2584.24 634.37 2580.09 639.11 2578.53 641.52C2576.96 643.93 2576.47 646.10 2577.43 646.79C2578.39 647.47 2581.83 647.15 2584.90 646.10C2587.98 645.05 2593.56 642.21 2597.95 639.77C2602.35 637.34 2609.59 632.87 2614.18 629.87C2618.76 626.87 2624.94 622.53 2628.53 619.79C2632.12 617.04 2636.20 613.36 2638.11 611.56C2640.02 609.77 2641.48 608.08 2641.28 607.82C2641.07 607.57 2638.84 608.60 2636.75 609.89C2634.66 611.18 2630.39 614.17 2627.34 616.43C2624.30 618.70 2620.08 621.93 2616.44 625.00C2612.79 628.07 2603.85 636.22 2603.06 636.88C2602.28 637.54 2609.56 631.06 2611.20 629.40C2612.84 627.73 2613.56 626.66 2614.01 625.78C2614.47 624.91 2614.72 623.94 2614.24 623.56C2613.76 623.19 2612.41 623.07 2610.83 623.30C2609.25 623.54 2608.30 623.43 2603.70 625.14C2598.01 627.25 2578.68 635.20 2572.90 637.41C2567.83 639.34 2567.04 639.46 2565.13 639.86C2563.23 640.27 2561.41 640.34 2560.17 640.09C2558.94 639.84 2558.09 639.30 2556.93 638.19C2555.77 637.08 2553.80 634.06 2552.44 632.67C2551.08 631.27 2548.82 629.66 2547.87 628.89C2546.92 628.12 2546.55 627.94 2546.13 627.51C2545.70 627.09 2545.15 626.59 2545.03 626.07C2544.91 625.55 2544.81 624.91 2545.34 624.05C2545.87 623.20 2546.87 621.87 2548.55 620.37C2550.23 618.87 2551.02 618.01 2556.52 614.04C2562.69 609.60 2577.57 598.86 2589.67 590.74C2601.77 582.62 2622.87 568.69 2637.18 559.94C2651.50 551.18 2664.11 543.72 2685.08 532.39C2706.04 521.06 2757.95 494.11 2776.97 484.41C2796.00 474.72 2805.86 470.61 2811.92 467.78C2815.48 466.12 2815.71 466.24 2817.37 465.54C2819.04 464.84 2823.07 463.18 2823.02 463.10C2822.96 463.02 2818.58 464.34 2817.00 465.00C2815.42 465.66 2813.18 467.12 2812.50 467.50"/><path fill="none" stroke="#79eb70" stroke-opacity="0.5" stroke-width="13.0" stroke-linecap="round" stroke-linejoin="round" d="M2780.50 504.50C2780.43 504.27 2779.31 503.80 2780.00 503.00C2781.04 501.79 2784.68 498.58 2787.46 496.40C2790.25 494.22 2793.68 491.77 2798.57 488.44C2803.47 485.11 2814.37 477.78 2820.10 474.18C2825.82 470.59 2838.42 463.20 2836.72 464.47C2835.02 465.73 2814.16 478.95 2808.75 482.62C2803.34 486.28 2802.39 487.40 2800.65 488.87C2798.91 490.35 2797.52 491.79 2797.16 492.45C2796.80 493.11 2797.35 493.44 2798.24 493.27C2799.17 493.09 2800.10 492.91 2803.39 491.22C2807.90 488.92 2823.86 480.27 2828.28 477.89C2831.37 476.23 2835.16 473.81 2832.87 475.33C2830.58 476.84 2816.28 485.57 2813.00 488.00C2810.84 489.60 2811.30 490.98 2811.00 491.50"/><path fill="none" stroke="#000000" stroke-width="2.0" stroke-linecap="round" stroke-linejoin="round" d="M2727.00 563.00C2727.00 562.43 2727.00 556.65 2727.00 559.19C2727.00 562.04 2726.93 578.58 2727.00 582.00C2727.01 582.33 2727.43 582.00 2727.50 582.00"/><path fill="none" stroke="#000000" stroke-width="2.0" stroke-linecap="round" stroke-linejoin="round" d="M2732.50 566.00C2732.48 565.65 2732.54 563.60 2732.38 563.64C2732.21 563.69 2731.57 564.80 2731.39 566.31C2731.21 567.82 2731.10 572.03 2731.20 573.73C2731.29 575.43 2731.67 576.66 2732.03 577.65C2732.39 578.63 2733.09 579.81 2733.61 580.28C2734.13 580.75 2734.96 580.99 2735.51 580.79C2736.06 580.59 2736.87 579.76 2737.27 578.94C2737.67 578.12 2738.07 576.49 2738.16 575.30C2738.25 574.10 2738.08 572.18 2737.86 570.95C2737.64 569.73 2737.14 568.16 2736.69 567.16C2736.24 566.15 2735.38 564.82 2734.84 564.26C2734.31 563.71 2733.42 563.35 2733.15 563.46C2732.87 563.57 2733.02 564.77 2733.00 565.00"/><path fill="none" stroke="#000000" stroke-width="2.0" stroke-linecap="round" stroke-linejoin="round" d="M2743.00 559.00C2742.85 558.83 2742.30 557.75 2742.00 557.90C2741.70 558.04 2741.13 558.87 2741.02 559.97C2740.92 561.08 2741.11 564.09 2741.29 565.26C2741.47 566.42 2741.88 567.16 2742.22 567.74C2742.56 568.31 2743.13 568.91 2743.55 569.09C2743.96 569.27 2744.58 569.22 2744.99 568.94C2745.39 568.67 2745.96 568.34 2746.23 567.24C2746.49 566.14 2746.96 563.23 2746.78 561.62C2746.59 560.01 2745.27 557.27 2745.00 556.50"/><path fill="none" stroke="#000000" stroke-width="2.0" stroke-linecap="round" stroke-linejoin="round" d="M2750.00 552.00C2750.82 555.14 2755.24 571.50 2755.44 572.96C2755.63 574.41 2752.22 564.80 2751.30 561.67C2750.37 558.55 2749.49 554.56 2749.26 552.10C2749.02 549.65 2749.50 546.54 2749.75 545.31C2749.99 544.12 2750.54 544.12 2750.92 543.90C2751.30 543.69 2751.90 543.70 2752.28 543.90C2752.67 544.09 2753.16 544.66 2753.50 545.19C2753.83 545.72 2754.29 546.63 2754.51 547.42C2754.73 548.21 2755.00 549.02 2754.96 550.46C2754.93 551.90 2754.57 555.67 2754.28 557.02C2753.99 558.37 2753.60 558.79 2753.04 559.46C2752.47 560.14 2750.88 561.19 2750.50 561.50"/><path fill="none" stroke="#000000" stroke-width="2.0" stroke-linecap="round" stroke-linejoin="round" d="M2766.00 538.00C2765.95 538.63 2765.47 540.51 2765.66 542.20C2765.86 543.89 2767.14 549.57 2767.29 549.28C2767.43 548.98 2766.66 542.60 2766.63 540.26C2766.61 537.92 2766.90 534.85 2767.12 533.68C2767.31 532.67 2767.68 532.60 2768.11 532.50C2768.54 532.40 2769.72 532.92 2770.00 533.00"/><path fill="none" stroke="#000000" stroke-width="2.0" stroke-linecap="round" stroke-linejoin="round" d="M2771.50 542.50C2771.51 542.72 2771.40 544.10 2771.57 543.96C2771.74 543.82 2772.36 542.75 2772.64 541.58C2772.92 540.40 2773.33 537.34 2773.44 536.14C2773.54 534.94 2773.42 534.16 2773.34 533.56C2773.25 532.96 2773.05 532.34 2772.87 532.14C2772.70 531.94 2772.33 531.76 2772.16 532.21C2771.87 532.98 2771.12 535.95 2770.92 537.26C2770.72 538.57 2770.71 539.99 2770.81 540.93C2770.91 541.88 2771.28 542.95 2771.59 543.56C2771.90 544.17 2772.33 544.97 2772.88 545.01C2773.44 545.06 2774.37 544.78 2775.29 543.88C2776.21 542.98 2778.44 539.73 2779.00 539.00"/><path fill="none" stroke="#000000" stroke-width="2.0" stroke-linecap="round" stroke-linejoin="round" d="M2782.00 530.50C2781.86 529.46 2781.32 524.74 2781.08 523.56C2780.92 522.78 2780.74 521.92 2780.36 522.61C2779.97 523.30 2778.80 526.87 2778.51 528.17C2778.21 529.46 2778.35 530.40 2778.39 531.23C2778.44 532.06 2778.57 533.17 2778.81 533.72C2779.06 534.26 2779.57 534.78 2780.04 534.87C2780.51 534.96 2781.09 535.27 2781.93 534.30C2782.78 533.34 2784.98 529.90 2785.69 528.45C2786.40 527.00 2786.53 525.69 2786.68 524.62C2786.83 523.55 2786.78 522.12 2786.68 521.29C2786.58 520.45 2786.27 519.49 2786.02 519.05C2785.78 518.61 2785.30 518.35 2785.03 518.38C2784.75 518.41 2784.34 518.76 2784.18 519.26C2784.03 519.76 2783.88 520.71 2783.98 521.72C2784.09 522.72 2783.86 523.25 2784.88 525.94C2786.32 529.76 2791.85 542.72 2793.59 547.12C2795.33 551.52 2795.80 552.96 2796.47 555.29C2797.15 557.62 2797.83 560.66 2798.08 562.66C2798.33 564.66 2798.35 567.14 2798.13 568.61C2797.91 570.08 2797.21 571.62 2796.61 572.44C2796.01 573.25 2794.96 573.89 2794.12 574.03C2793.28 574.18 2792.46 574.50 2791.01 573.43C2789.57 572.35 2785.83 568.61 2784.49 566.86C2783.16 565.12 2782.69 563.43 2782.11 561.80C2781.53 560.17 2780.81 557.78 2780.62 556.02C2780.43 554.26 2779.95 553.37 2780.83 550.06C2781.71 546.76 2785.65 536.41 2786.50 534.00"/><path fill="none" stroke="#000000" stroke-width="2.0" stroke-linecap="round" stroke-linejoin="round" d="M2793.00 515.00C2793.40 516.14 2795.69 523.66 2795.69 522.59C2795.69 521.52 2793.80 511.09 2793.00 507.87C2792.20 504.65 2790.66 501.72 2790.36 501.14C2790.06 500.56 2790.75 503.50 2791.00 504.00C2791.25 504.50 2791.85 504.42 2792.00 504.50"/><path fill="none" stroke="#000000" stroke-width="2.0" stroke-linecap="round" stroke-linejoin="round" d="M2799.00 509.50C2798.89 509.49 2798.44 509.25 2798.24 509.46C2798.03 509.67 2797.68 509.96 2797.65 510.90C2797.61 511.84 2797.80 514.67 2798.01 515.73C2798.22 516.78 2798.70 517.42 2799.07 517.91C2799.44 518.41 2800.07 518.93 2800.48 519.02C2800.89 519.11 2801.47 519.27 2801.83 518.52C2802.20 517.78 2803.12 515.84 2802.92 514.04C2802.72 512.24 2800.86 507.63 2800.50 506.50"/><path fill="none" stroke="#000000" stroke-width="2.0" stroke-linecap="round" stroke-linejoin="round" d="M2805.00 499.00C2805.31 500.71 2806.71 510.17 2807.06 510.39C2807.42 510.61 2807.11 502.52 2807.37 500.46C2807.63 498.40 2807.95 496.11 2808.80 496.64C2809.65 497.16 2812.15 502.82 2813.06 503.94C2813.81 504.87 2814.25 504.36 2814.85 504.10C2815.45 503.85 2816.42 503.07 2817.04 502.25C2817.67 501.43 2818.39 500.46 2819.01 498.64C2819.63 496.82 2820.89 491.86 2821.18 490.11C2821.47 488.36 2821.09 487.67 2820.94 486.99C2820.78 486.32 2820.41 485.80 2820.12 485.63C2819.83 485.45 2819.32 485.56 2819.01 485.79C2818.70 486.03 2818.28 486.38 2818.07 487.18C2817.86 487.97 2817.54 490.26 2817.64 491.10C2817.74 491.94 2817.89 492.20 2818.73 492.76C2819.56 493.32 2821.92 494.07 2823.21 494.84C2824.49 495.61 2826.67 497.08 2827.32 497.92C2827.97 498.77 2827.95 499.34 2827.53 500.47C2827.10 501.61 2824.95 504.75 2824.50 505.50"/><path fill="none" stroke="#000000" stroke-width="2.0" stroke-linecap="round" stroke-linejoin="round" d="M2841.00 553.00C2840.94 552.74 2840.74 551.55 2840.57 551.26C2840.41 550.96 2840.29 550.80 2839.92 551.06C2839.53 551.33 2838.48 552.01 2837.97 553.07C2837.46 554.12 2836.72 556.91 2836.53 558.08C2836.33 559.26 2836.50 560.11 2836.64 560.89C2836.78 561.67 2837.10 562.70 2837.45 563.30C2837.81 563.90 2838.51 564.59 2839.02 564.91C2839.54 565.23 2839.92 565.49 2840.89 565.44C2841.86 565.40 2844.72 564.68 2845.47 564.63C2845.88 564.60 2845.96 564.66 2845.90 565.07C2845.83 565.55 2845.42 567.02 2844.99 567.82C2844.56 568.63 2843.41 570.03 2843.04 570.43C2842.79 570.69 2842.58 570.56 2842.50 570.50C2842.42 570.44 2842.50 570.08 2842.50 570.00"/><path fill="none" stroke="#000000" stroke-width="2.0" stroke-linecap="round" stroke-linejoin="round" d="M2847.50 555.50C2847.45 555.98 2846.93 557.74 2847.15 558.72C2847.38 559.69 2848.72 561.51 2849.00 562.00"/><path fill="none" stroke="#000000" stroke-width="2.0" stroke-linecap="round" stroke-linejoin="round" d="M2845.50 546.00C2845.42 545.95 2844.68 545.44 2844.98 545.66C2845.28 545.89 2847.12 547.22 2847.50 547.50"/><path fill="none" stroke="#000000" stroke-width="2.0" stroke-linecap="round" stroke-linejoin="round" d="M2853.00 551.50C2853.13 551.59 2853.64 551.63 2853.86 552.08C2854.07 552.53 2854.35 553.69 2854.43 554.50C2854.51 555.31 2854.53 557.37 2854.37 557.48C2854.22 557.59 2853.63 556.44 2853.41 555.23C2853.19 554.01 2852.90 550.69 2852.88 549.39C2852.85 548.08 2853.08 547.18 2853.23 546.51C2853.38 545.84 2853.68 545.19 2853.90 544.94C2854.12 544.70 2854.50 544.36 2854.71 544.87C2855.21 546.13 2856.72 552.03 2857.28 553.40C2857.62 554.22 2858.06 553.98 2858.46 554.00C2858.87 554.02 2859.62 553.80 2860.00 553.50C2860.38 553.20 2860.85 552.22 2861.00 552.00"/><path fill="none" stroke="#000000" stroke-width="2.0" stroke-linecap="round" stroke-linejoin="round" d="M2863.00 546.50C2862.88 545.91 2862.43 543.27 2862.18 542.54C2861.94 541.81 2861.61 541.78 2861.35 541.66C2861.10 541.54 2860.79 541.25 2860.47 541.75C2860.12 542.31 2859.22 544.38 2858.98 545.38C2858.74 546.39 2858.80 547.56 2858.88 548.45C2858.95 549.34 2859.17 550.61 2859.50 551.29C2859.82 551.98 2860.50 552.75 2861.03 553.04C2861.56 553.33 2862.44 553.44 2863.04 553.22C2863.64 552.99 2864.51 552.22 2865.02 551.55C2865.53 550.88 2866.18 549.62 2866.46 548.73C2866.73 547.85 2866.98 546.73 2866.83 545.63C2866.68 544.53 2865.78 542.01 2865.46 541.40C2865.20 540.92 2864.78 541.22 2864.67 541.60C2864.55 541.98 2864.48 542.87 2864.67 543.93C2864.87 544.99 2865.33 546.92 2865.94 548.69C2866.55 550.45 2866.72 551.09 2868.74 555.70C2870.78 560.35 2877.71 575.38 2879.56 579.71C2880.89 582.83 2880.87 583.45 2881.04 584.58C2881.21 585.71 2881.12 586.73 2880.67 587.26C2880.22 587.79 2879.09 588.14 2878.03 588.12C2876.97 588.10 2875.08 587.69 2873.57 587.13C2872.07 586.57 2869.68 585.48 2867.97 584.41C2866.26 583.33 2863.66 581.52 2862.16 579.94C2860.65 578.36 2858.96 575.86 2857.95 573.86C2856.95 571.86 2855.68 568.76 2855.49 566.61C2855.29 564.45 2855.37 562.67 2856.65 559.50C2857.92 556.33 2862.90 547.60 2864.00 545.50"/><path fill="none" stroke="#000000" stroke-width="2.0" stroke-linecap="round" stroke-linejoin="round" d="M2864.50 533.50C2864.41 533.19 2863.40 530.08 2863.92 531.42C2865.11 534.48 2870.94 550.09 2872.46 553.91C2873.29 556.00 2873.66 556.43 2874.04 556.89C2874.42 557.35 2874.86 557.06 2875.00 557.00C2875.14 556.94 2875.00 556.58 2875.00 556.50"/><path fill="none" stroke="#000000" stroke-width="2.0" stroke-linecap="round" stroke-linejoin="round" d="M2878.00 544.50C2878.32 543.25 2879.86 537.94 2880.15 536.14C2880.43 534.35 2880.09 533.14 2879.91 532.53C2879.73 531.92 2879.45 531.64 2878.95 532.06C2878.45 532.49 2877.04 534.43 2876.58 535.37C2876.12 536.32 2875.92 537.52 2875.87 538.37C2875.81 539.21 2876.01 540.34 2876.23 541.01C2876.45 541.68 2876.82 542.58 2877.34 542.84C2877.87 543.10 2878.80 543.10 2879.72 542.74C2880.64 542.39 2882.56 541.21 2883.50 540.50C2884.44 539.79 2885.62 538.38 2886.00 538.00"/><path fill="none" stroke="#000000" stroke-width="2.0" stroke-linecap="round" stroke-linejoin="round" d="M2832.00 617.00C2831.93 617.00 2831.45 616.67 2831.50 617.00C2831.65 618.02 2832.36 621.34 2833.02 623.78C2833.68 626.23 2835.14 631.20 2835.90 633.30C2836.65 635.40 2837.60 637.18 2838.02 637.79C2838.33 638.23 2838.54 637.86 2838.69 637.35C2838.91 636.62 2839.42 634.40 2839.46 632.93C2839.51 631.45 2839.07 628.31 2839.00 627.50"/><path fill="none" stroke="#000000" stroke-width="2.0" stroke-linecap="round" stroke-linejoin="round" d="M2830.50 628.50C2830.27 628.64 2828.69 629.54 2828.94 629.46C2829.19 629.38 2830.64 628.93 2832.15 627.96C2833.65 626.99 2837.97 623.74 2839.00 623.00"/><path fill="none" stroke="#000000" stroke-width="2.0" stroke-linecap="round" stroke-linejoin="round" d="M2842.00 618.50C2842.18 619.31 2842.66 622.66 2843.17 623.90C2843.69 625.15 2844.92 626.43 2845.44 626.82C2845.96 627.20 2846.30 626.82 2846.62 626.48C2846.93 626.14 2847.31 625.95 2847.52 624.55C2847.80 622.77 2848.16 615.37 2848.45 614.63C2848.73 613.89 2849.11 618.52 2849.42 619.60C2849.72 620.68 2850.10 621.38 2850.50 621.84C2850.90 622.30 2851.62 622.55 2852.07 622.65C2852.52 622.74 2853.21 622.75 2853.50 622.50C2853.79 622.25 2853.93 621.22 2854.00 621.00"/><path fill="none" stroke="#000000" stroke-width="2.0" stroke-linecap="round" stroke-linejoin="round" d="M2854.50 611.00C2854.70 612.24 2855.76 619.38 2855.85 619.29C2855.94 619.20 2854.94 612.53 2855.11 610.39C2855.28 608.25 2856.72 605.81 2857.00 605.00"/><path fill="none" stroke="#000000" stroke-width="2.0" stroke-linecap="round" stroke-linejoin="round" d="M2860.50 603.50C2860.85 605.35 2862.59 615.06 2862.81 615.80C2863.04 616.55 2861.95 610.46 2862.01 608.46C2862.07 606.47 2862.88 603.54 2863.23 602.51C2863.55 601.59 2864.01 601.60 2864.37 601.59C2864.73 601.58 2865.13 601.61 2865.63 602.42C2866.14 603.24 2867.06 605.97 2867.72 607.04C2868.37 608.10 2869.66 609.13 2870.00 609.50"/><path fill="none" stroke="#000000" stroke-width="2.0" stroke-linecap="round" stroke-linejoin="round" d="M2903.50 576.00C2903.35 575.99 2902.74 575.60 2902.52 575.94C2902.30 576.28 2902.07 576.68 2902.01 578.27C2901.90 580.92 2902.42 592.79 2901.78 593.63C2901.14 594.47 2898.35 585.85 2897.74 583.85C2897.12 581.86 2896.93 580.47 2897.69 580.31C2898.45 580.16 2901.68 582.26 2902.80 582.82C2903.92 583.37 2904.14 583.75 2905.15 584.00C2906.15 584.25 2908.85 584.42 2909.50 584.50"/><path fill="none" stroke="#000000" stroke-width="2.0" stroke-linecap="round" stroke-linejoin="round" d="M2936.00 543.50C2935.65 543.57 2934.01 543.60 2933.66 543.98C2933.31 544.35 2933.35 544.69 2933.67 546.00C2934.30 548.63 2937.25 560.16 2937.85 561.51C2938.45 562.86 2937.57 556.75 2937.67 555.00C2937.77 553.25 2938.25 550.79 2938.52 549.86C2938.78 548.97 2939.16 548.99 2939.48 548.85C2939.79 548.71 2940.01 548.52 2940.61 548.93C2941.22 549.34 2942.83 550.98 2943.49 551.59C2944.14 552.19 2944.31 552.61 2944.97 552.97C2945.64 553.33 2947.13 554.25 2947.94 553.98C2948.76 553.71 2949.92 552.44 2950.38 551.16C2950.84 549.88 2951.14 546.94 2951.03 545.47C2950.91 544.00 2949.96 541.96 2949.61 541.35C2949.30 540.81 2948.92 541.17 2948.67 541.41C2948.43 541.65 2948.02 541.84 2947.98 542.94C2947.94 544.04 2948.14 547.51 2948.40 548.75C2948.67 550.00 2949.25 550.71 2949.75 551.24C2950.24 551.77 2951.05 552.15 2951.68 552.27C2952.31 552.38 2953.30 552.38 2953.96 552.01C2954.62 551.65 2955.54 550.79 2956.07 549.82C2956.60 548.84 2957.29 546.15 2957.50 545.50"/><path fill="none" stroke="#000000" stroke-width="2.0" stroke-linecap="round" stroke-linejoin="round" d="M2954.50 529.50C2954.42 529.29 2953.76 527.16 2953.98 528.12C2954.21 529.16 2955.17 533.82 2956.07 536.43C2956.96 539.05 2959.37 544.89 2959.96 545.58C2960.55 546.26 2959.99 541.69 2960.00 541.00"/><path fill="none" stroke="#000000" stroke-width="2.0" stroke-linecap="round" stroke-linejoin="round" d="M2961.00 533.50C2961.30 534.70 2962.70 540.30 2963.00 541.50"/><path fill="none" stroke="#000000" stroke-width="2.0" stroke-linecap="round" stroke-linejoin="round" d="M2960.00 531.00C2960.00 530.85 2960.00 530.15 2960.00 530.00"/><path fill="none" stroke="#000000" stroke-width="2.0" stroke-linecap="round" stroke-linejoin="round" d="M2966.50 529.00C2966.50 528.78 2966.66 527.37 2966.52 527.52C2966.38 527.67 2965.73 528.86 2965.59 529.99C2965.45 531.12 2965.47 533.95 2965.58 535.06C2965.69 536.16 2965.99 536.83 2966.31 537.37C2966.63 537.90 2967.23 538.46 2967.71 538.60C2968.19 538.74 2968.69 538.99 2969.51 538.33C2970.33 537.66 2972.35 535.52 2973.17 534.15C2974.00 532.79 2974.73 530.25 2974.98 529.24C2975.24 528.24 2975.00 527.65 2974.87 527.45C2974.75 527.26 2974.27 527.86 2974.15 527.93C2974.13 527.95 2974.10 527.94 2974.11 527.91C2974.36 527.06 2975.56 523.33 2975.81 522.24C2976.05 521.23 2975.97 521.02 2975.81 520.68C2975.64 520.33 2975.04 519.61 2974.70 519.95C2974.35 520.29 2973.69 522.09 2973.50 522.93C2973.31 523.78 2973.36 524.76 2973.41 525.58C2973.47 526.41 2973.60 527.65 2973.84 528.40C2974.09 529.16 2974.59 530.15 2975.04 530.60C2975.49 531.05 2976.23 531.32 2976.84 531.39C2977.45 531.46 2978.40 531.43 2979.10 531.08C2979.80 530.72 2980.80 529.87 2981.54 529.04C2982.27 528.20 2983.63 526.03 2984.00 525.50"/><path fill="none" stroke="#000000" stroke-width="2.0" stroke-linecap="round" stroke-linejoin="round" d="M2988.00 511.00C2987.84 510.85 2987.38 510.13 2986.92 510.02C2986.46 509.91 2985.51 509.93 2984.95 510.29C2984.39 510.65 2983.49 511.84 2983.19 512.41C2982.89 512.98 2982.93 513.53 2982.94 514.08C2982.94 514.62 2982.83 515.15 2983.22 516.02C2983.62 516.89 2984.22 518.53 2985.59 519.89C2986.96 521.24 2991.81 523.97 2992.34 525.04C2992.88 526.11 2989.80 526.59 2989.15 527.04C2988.49 527.48 2988.25 527.86 2988.00 528.00C2987.75 528.14 2987.57 528.00 2987.50 528.00"/><path fill="none" stroke="#000000" stroke-width="2.0" stroke-linecap="round" stroke-linejoin="round" d="M2987.00 511.50C2987.08 512.27 2987.54 514.70 2987.54 516.65C2987.54 518.60 2987.08 523.32 2987.00 524.50"/><path fill="none" stroke="#d1000d" stroke-width="1.5" stroke-linecap="round" stroke-linejoin="round" d="M2132.00 1675.00C2131.39 1675.74 2127.60 1680.53 2127.94 1679.93C2128.28 1679.33 2131.83 1674.15 2134.29 1670.99C2136.75 1667.84 2140.72 1663.03 2144.36 1658.88C2148.00 1654.72 2153.96 1648.06 2158.57 1643.31C2163.19 1638.56 2170.19 1631.73 2175.12 1627.21C2180.06 1622.70 2186.97 1616.87 2191.48 1613.21C2195.99 1609.54 2199.71 1606.59 2205.19 1602.77C2210.66 1598.95 2224.53 1589.85 2227.95 1587.71C2228.40 1587.43 2227.99 1588.38 2228.00 1588.50C2228.00 1588.50 2228.00 1588.50 2228.00 1588.50"/><path fill="none" stroke="#d1000d" stroke-width="1.5" stroke-linecap="round" stroke-linejoin="round" d="M2225.00 1586.50C2224.04 1586.53 2217.52 1587.22 2218.58 1586.72C2219.65 1586.21 2230.45 1582.58 2232.09 1583.15C2233.73 1583.72 2229.89 1589.40 2229.50 1590.50"/><path fill="none" stroke="#d1000d" stroke-width="1.5" stroke-linecap="round" stroke-linejoin="round" d="M2252.50 1562.50C2252.33 1562.30 2251.29 1559.95 2251.34 1561.14C2251.42 1563.38 2252.79 1573.84 2253.05 1577.41C2253.31 1580.98 2253.26 1583.71 2253.10 1584.94C2252.98 1585.81 2252.43 1585.53 2251.96 1585.61C2251.50 1585.69 2250.44 1585.67 2250.00 1585.50C2249.56 1585.33 2249.15 1584.65 2249.00 1584.50"/><path fill="none" stroke="#d1000d" stroke-width="1.5" stroke-linecap="round" stroke-linejoin="round" d="M2250.50 1552.00C2250.73 1551.70 2251.77 1550.30 2252.00 1550.00"/><path fill="none" stroke="#d1000d" stroke-width="1.5" stroke-linecap="round" stroke-linejoin="round" d="M2259.50 1559.00C2259.49 1558.93 2259.33 1558.26 2259.46 1558.54C2259.68 1559.00 2260.48 1561.66 2260.96 1562.10C2261.43 1562.54 2261.99 1562.47 2262.60 1561.47C2263.44 1560.10 2265.88 1553.35 2266.53 1552.94C2267.19 1552.54 2266.78 1557.67 2266.97 1558.78C2267.16 1559.89 2267.48 1560.08 2267.83 1560.35C2268.17 1560.62 2268.79 1560.77 2269.27 1560.61C2269.75 1560.44 2270.29 1560.47 2271.04 1559.25C2271.79 1558.02 2273.69 1554.01 2274.26 1552.46C2274.83 1550.90 2274.77 1549.79 2274.83 1548.89C2274.89 1547.99 2274.80 1546.89 2274.65 1546.47C2274.51 1546.04 2274.24 1545.64 2273.87 1546.03C2273.50 1546.42 2272.43 1548.27 2272.17 1549.07C2271.92 1549.88 2271.56 1549.98 2272.19 1551.40C2272.85 1552.89 2275.92 1557.59 2276.60 1559.04C2277.18 1560.27 2277.10 1560.33 2276.71 1561.07C2276.32 1561.82 2274.41 1563.56 2274.00 1564.00"/><path fill="none" stroke="#d1000d" stroke-width="1.5" stroke-linecap="round" stroke-linejoin="round" d="M2280.00 1540.00C2280.11 1539.69 2280.51 1538.07 2280.72 1537.96C2280.93 1537.85 2281.24 1538.30 2281.42 1539.27C2281.66 1540.59 2282.20 1544.33 2282.35 1546.78C2282.50 1549.23 2283.04 1555.37 2282.42 1555.62C2281.81 1555.86 2278.84 1549.73 2278.23 1548.42C2277.80 1547.48 2278.23 1547.31 2278.38 1546.88C2278.53 1546.45 2278.37 1546.16 2279.23 1545.55C2280.90 1544.37 2287.96 1539.98 2289.50 1539.00"/><path fill="none" stroke="#d1000d" stroke-width="1.5" stroke-linecap="round" stroke-linejoin="round" d="M2312.00 1525.50C2312.00 1525.11 2312.10 1523.42 2312.00 1522.89C2311.90 1522.36 2311.67 1522.12 2311.34 1521.98C2311.01 1521.84 2310.63 1521.37 2309.79 1521.97C2308.87 1522.63 2306.26 1525.07 2305.25 1526.37C2304.24 1527.67 2303.55 1529.32 2303.06 1530.63C2302.57 1531.95 2302.07 1533.90 2301.99 1535.13C2301.91 1536.36 2302.07 1538.04 2302.50 1538.85C2302.94 1539.65 2303.98 1540.28 2304.86 1540.48C2305.74 1540.69 2307.24 1540.65 2308.38 1540.20C2309.52 1539.74 2311.40 1538.51 2312.46 1537.43C2313.53 1536.35 2314.82 1534.26 2315.50 1533.00C2316.18 1531.74 2316.77 1529.60 2317.00 1529.00"/><path fill="none" stroke="#d1000d" stroke-width="1.5" stroke-linecap="round" stroke-linejoin="round" d="M2317.00 1518.50C2316.95 1518.36 2316.66 1516.86 2316.64 1517.54C2316.58 1519.32 2316.47 1527.67 2316.61 1530.39C2316.75 1533.10 2317.29 1534.88 2317.57 1535.65C2317.79 1536.23 2318.21 1535.97 2318.50 1535.50C2318.79 1535.03 2319.35 1532.95 2319.50 1532.50"/><path fill="none" stroke="#d1000d" stroke-width="1.5" stroke-linecap="round" stroke-linejoin="round" d="M2323.00 1514.00C2323.00 1513.84 2322.98 1512.21 2323.00 1512.93C2323.03 1513.92 2322.98 1518.12 2323.20 1520.61C2323.43 1523.09 2324.38 1528.17 2324.50 1529.50C2324.53 1529.83 2324.07 1529.50 2324.00 1529.50"/><path fill="none" stroke="#d1000d" stroke-width="1.5" stroke-linecap="round" stroke-linejoin="round" d="M2317.00 1527.00C2316.92 1526.99 2316.15 1527.14 2316.46 1526.96C2317.36 1526.43 2322.02 1524.02 2323.00 1523.50"/><path fill="none" stroke="#d1000d" stroke-width="1.5" stroke-linecap="round" stroke-linejoin="round" d="M2328.00 1524.50C2327.98 1524.58 2327.53 1525.04 2327.89 1525.04C2328.31 1525.03 2330.10 1524.49 2330.76 1524.48C2331.43 1524.47 2332.14 1524.25 2332.33 1524.96C2332.52 1525.67 2331.51 1528.61 2332.02 1529.21C2332.53 1529.81 2335.10 1528.91 2335.76 1528.96C2336.33 1529.00 2336.34 1529.26 2336.41 1529.53C2336.47 1529.80 2336.48 1530.29 2336.20 1530.76C2335.92 1531.22 2335.77 1531.86 2334.54 1532.65C2333.31 1533.43 2328.98 1535.50 2328.00 1536.00"/><path fill="none" stroke="#d1000d" stroke-width="1.5" stroke-linecap="round" stroke-linejoin="round" d="M1801.50 1746.00C1801.97 1746.14 1802.47 1746.62 1804.63 1746.96C1807.04 1747.34 1809.12 1747.79 1817.59 1748.55C1826.06 1749.30 1839.33 1751.24 1861.09 1751.99C1882.85 1752.73 1946.14 1753.30 1962.66 1753.54C1968.33 1753.62 1965.49 1753.55 1971.17 1753.60C1979.92 1753.67 2013.53 1753.94 2021.00 1754.00"/>
</svg>