<?xml version="1.0" encoding="UTF-8"?>
<!DOCTYPE svg PUBLIC "-//W3C//DTD SVG 1.1//EN" "http://www.w3.org/Graphics/SVG/1.1/DTD/svg11.dtd">
<svg  xmlns="http://www.w3.org/2000/svg" xmlns:xlink="http://www.w3.org/1999/xlink" viewport-fill="none" viewBox="0.0, 0.0, 518.2576288872278, 147.80456542422223" version="1.1" height="147.80456542422223" width="518.2576288872278">
<path fill="none" stroke="#ffd873" stroke-opacity="0.5" stroke-width="13.0" stroke-linecap="round" stroke-linejoin="round" d="M325.87 54.60C325.93 54.39 326.07 53.43 326.22 53.21C326.38 52.99 326.45 53.12 326.92 53.11C332.96 53.01 353.86 53.02 366.52 52.53C379.17 52.03 398.67 50.22 411.28 49.81C423.89 49.39 443.75 49.75 450.59 49.75C454.81 49.75 452.70 49.62 456.91 49.81C462.77 50.07 483.55 51.11 489.62 51.48C494.79 51.80 495.70 51.95 497.35 52.28C499.00 52.61 500.75 53.23 500.62 53.67C500.50 54.11 498.67 54.83 496.53 55.23C494.40 55.62 489.06 56.08 486.39 56.30C483.72 56.53 483.84 56.58 478.71 56.74C469.43 57.02 444.91 58.11 424.50 58.15C404.09 58.19 355.42 57.22 342.65 57.00C340.44 56.96 341.55 56.92 339.34 56.71C336.67 56.46 327.01 55.51 324.83 55.29"/><path fill="none" stroke="#98c2ff" stroke-opacity="0.5" stroke-width="13.0" stroke-linecap="round" stroke-linejoin="round" d="M231.38 85.52C231.17 85.47 229.60 85.09 229.99 85.17C230.38 85.26 231.63 85.95 233.99 86.09C236.34 86.23 237.89 86.35 245.69 86.12C258.63 85.74 308.45 83.95 320.29 83.54C323.18 83.45 321.73 83.44 324.63 83.41C329.19 83.35 337.48 82.92 350.69 83.17C363.90 83.42 402.63 84.79 412.68 85.10C416.03 85.21 414.35 85.18 417.70 85.24C421.48 85.31 430.33 85.66 437.90 85.53C445.48 85.41 460.46 84.46 468.21 84.41C475.95 84.37 486.02 85.08 489.53 85.23C490.90 85.29 490.22 85.22 491.58 85.43C493.50 85.74 500.74 86.98 502.36 87.26"/><path fill="none" stroke="#ffd873" stroke-opacity="0.5" stroke-width="13.0" stroke-linecap="round" stroke-linejoin="round" d="M35.78 73.71C37.40 73.54 40.68 72.88 46.54 72.62C52.41 72.36 65.76 72.84 74.89 71.99C84.02 71.14 95.58 67.73 107.41 66.95C119.24 66.16 146.09 66.79 153.74 66.78C156.86 66.78 155.30 66.79 158.42 66.88C167.26 67.15 196.64 68.74 212.65 68.56C228.67 68.39 256.64 66.16 265.19 65.73C268.17 65.58 266.68 65.70 269.66 65.71C272.78 65.72 275.42 65.45 285.99 65.82C296.55 66.19 331.32 67.77 340.10 68.16C343.04 68.29 341.56 68.38 344.50 68.37C359.31 68.32 423.91 67.91 438.81 67.83C442.18 67.81 440.49 67.88 443.86 67.81C452.11 67.64 485.59 66.87 493.82 66.72C497.12 66.66 497.47 66.63 498.77 66.84C500.07 67.04 501.85 67.81 502.49 68.10C503.02 68.35 502.88 68.23 503.03 68.80C503.18 69.38 503.86 71.32 503.48 71.95C503.11 72.59 501.54 72.83 500.55 73.03C499.56 73.23 499.33 73.31 496.86 73.31C488.45 73.29 462.61 73.27 444.46 72.89C426.31 72.50 388.01 71.11 375.86 70.73C367.60 70.48 371.73 70.59 363.48 70.38C348.55 70.01 295.19 68.55 276.35 68.25C257.51 67.96 251.21 68.07 237.89 68.42C224.56 68.77 202.04 69.65 187.53 70.61C173.01 71.56 149.08 74.08 141.12 74.79C136.67 75.18 138.91 75.10 134.45 75.32C121.60 75.92 68.93 78.18 55.45 78.85C48.18 79.21 47.35 79.34 44.56 79.76C41.78 80.17 38.09 81.30 36.86 81.65C36.43 81.77 36.68 81.78 36.34 82.06C35.81 82.48 33.82 83.95 33.32 84.48C32.82 85.01 32.90 85.20 33.00 85.60C33.09 86.00 33.32 86.61 33.94 87.12C34.56 87.63 35.71 88.39 37.15 88.97C38.59 89.56 41.15 90.42 43.53 90.99C45.90 91.56 49.76 92.32 52.98 92.77C56.20 93.21 56.94 93.77 64.97 93.95C78.99 94.26 131.88 94.82 146.51 94.86C157.17 94.89 159.12 94.40 162.48 94.21C165.84 94.03 165.72 94.00 168.90 93.62C172.07 93.25 179.34 92.44 183.64 91.71C187.94 90.97 196.51 89.47 197.57 88.73C198.63 87.99 194.71 87.38 190.73 86.77C186.75 86.15 178.79 84.97 171.05 84.64C163.31 84.31 146.44 84.43 139.14 84.56C131.84 84.69 127.23 85.16 122.38 85.48C117.54 85.80 114.33 86.11 106.83 86.67C99.33 87.23 79.61 88.85 72.39 89.22C65.18 89.59 61.84 89.30 58.74 89.15C55.64 89.01 50.53 88.27 51.73 88.25C52.93 88.23 60.46 89.00 66.74 89.01C73.02 89.02 80.36 89.14 93.59 88.33C106.82 87.51 144.28 84.38 154.93 83.58C161.35 83.10 158.99 83.13 164.57 82.99C170.15 82.85 186.34 82.94 192.13 82.63C197.92 82.33 200.54 80.97 203.15 80.94C205.76 80.90 208.31 82.01 209.55 82.40C210.80 82.79 211.10 83.20 211.47 83.54C211.84 83.89 211.92 84.46 212.05 84.71C212.18 84.97 212.30 85.01 212.34 85.24C212.38 85.47 212.46 86.01 212.33 86.25C212.20 86.49 212.14 86.66 211.48 86.83C210.03 87.21 205.36 88.45 202.68 88.80C200.01 89.14 196.10 89.23 193.64 89.13C191.19 89.02 186.83 87.92 186.33 88.09C185.83 88.26 188.54 89.74 190.31 90.27C192.09 90.81 196.24 91.50 198.18 91.66C200.12 91.83 201.12 91.77 203.25 91.39C205.39 91.00 210.62 89.67 212.42 89.09C214.22 88.52 214.63 88.01 215.25 87.56C215.86 87.11 216.41 86.69 216.51 86.08C216.60 85.48 216.79 84.43 215.87 83.52C214.96 82.61 212.13 80.68 210.39 80.02C208.65 79.36 206.00 79.25 204.25 79.14C202.50 79.03 200.80 78.93 198.72 79.27C196.64 79.60 191.63 81.04 190.38 81.35"/><path fill="none" stroke="#98c2ff" stroke-opacity="0.5" stroke-width="13.0" stroke-linecap="round" stroke-linejoin="round" d="M38.56 120.61C38.46 120.56 37.35 120.29 37.87 120.26C49.90 119.48 101.15 116.01 118.80 115.40C136.46 114.78 149.43 116.05 155.56 116.18C158.30 116.23 156.93 116.17 159.68 116.24C163.27 116.34 170.86 116.98 179.53 116.85C188.21 116.72 208.30 115.45 217.49 115.35C226.68 115.25 236.52 116.02 240.80 116.17C244.27 116.29 242.53 116.32 246.01 116.37C259.09 116.52 315.18 117.04 328.01 117.17C330.38 117.20 329.20 117.14 331.57 117.24C341.09 117.60 382.05 119.24 391.47 119.59C393.42 119.67 392.45 119.64 394.40 119.57C400.05 119.38 419.37 118.51 429.15 118.29C438.92 118.06 454.38 118.12 459.56 118.07C462.29 118.04 460.92 117.96 463.65 117.94C467.52 117.90 481.40 117.89 485.36 117.82C488.52 117.77 488.95 117.68 490.09 117.47C491.23 117.26 492.55 116.59 492.98 116.44"/><path fill="none" stroke="#98c2ff" stroke-opacity="0.5" stroke-width="13.0" stroke-linecap="round" stroke-linejoin="round" d="M35.44 104.97C38.50 104.68 48.52 103.43 55.86 103.04C63.21 102.65 73.96 102.53 84.42 102.37C94.87 102.21 114.91 101.80 125.58 101.99C136.25 102.19 150.27 103.40 155.55 103.65C159.06 103.81 157.31 103.58 160.81 103.61C170.92 103.71 208.22 104.37 222.94 104.33C237.65 104.30 252.49 103.54 258.91 103.38C263.44 103.26 261.17 103.22 265.70 103.24C272.61 103.28 292.33 103.76 304.95 103.60C317.57 103.44 342.29 102.36 349.84 102.16C353.46 102.06 351.65 102.25 355.27 102.24C372.80 102.19 449.36 101.90 466.70 101.84C469.47 101.83 468.08 101.80 470.85 101.82C476.62 101.87 500.10 102.14 505.14 102.20C505.60 102.20 504.55 102.20 504.45 102.20"/><path fill="none" stroke="#98c2ff" stroke-opacity="0.5" stroke-width="13.0" stroke-linecap="round" stroke-linejoin="round" d="M39.61 129.99C39.49 129.91 38.18 129.36 38.82 129.45C41.86 129.87 53.39 131.99 59.87 132.79C66.35 133.59 68.67 134.76 82.03 134.80C95.39 134.85 137.92 133.39 148.92 133.08C153.22 132.96 151.07 132.97 155.37 132.78C159.87 132.57 164.24 131.89 178.91 131.73C193.59 131.57 241.21 131.71 253.19 131.73C256.91 131.73 255.05 131.83 258.77 131.84C270.90 131.88 315.43 132.05 334.07 131.93C352.71 131.81 374.69 131.16 383.03 131.04C387.47 130.97 385.25 130.91 389.69 131.08C394.38 131.25 408.33 131.79 414.26 132.18C420.20 132.58 425.36 133.46 429.26 133.70C433.15 133.94 438.13 133.79 440.24 133.81C442.28 133.83 442.63 133.81 443.30 133.81C443.97 133.81 444.48 133.81 444.69 133.81"/>
</svg>