<?xml version="1.0" encoding="UTF-8"?>
<!DOCTYPE svg PUBLIC "-//W3C//DTD SVG 1.1//EN" "http://www.w3.org/Graphics/SVG/1.1/DTD/svg11.dtd">
<svg  xmlns="http://www.w3.org/2000/svg" xmlns:xlink="http://www.w3.org/1999/xlink" viewport-fill="none" viewBox="0.0, 0.0, 563.4851739429861, 415.14025341142707" version="1.1" height="415.14025341142707" width="563.4851739429861">
<path fill="none" stroke="#ffd873" stroke-opacity="0.5" stroke-width="13.0" stroke-linecap="round" stroke-linejoin="round" d="M19.80 358.54C19.48 351.63 17.90 321.94 17.66 312.50C17.41 303.06 17.76 301.40 18.18 295.59C18.60 289.78 19.86 277.62 20.45 273.76C20.88 270.97 21.40 272.60 22.14 269.88C22.88 267.16 24.59 258.69 25.41 255.61C26.23 252.52 26.33 251.83 27.60 249.29C28.86 246.75 32.24 241.01 33.85 238.67C35.46 236.33 35.92 235.91 38.32 233.71C40.73 231.52 47.09 226.14 49.89 224.04C52.68 221.94 53.52 221.50 56.96 219.70C60.40 217.91 67.60 214.26 72.83 212.06C78.07 209.86 87.44 206.47 91.86 205.05C96.28 203.62 99.12 203.09 102.31 202.55C105.51 202.02 108.41 201.51 113.17 201.51C117.93 201.51 127.82 202.06 134.06 202.56C140.30 203.06 146.46 203.69 154.77 204.83C163.08 205.96 179.46 208.86 189.47 210.13C199.48 211.40 215.33 212.58 221.50 213.29C227.64 214.00 226.71 213.81 230.63 214.90C234.54 215.98 242.73 218.64 247.59 220.53C252.44 222.42 258.76 225.20 262.99 227.46C267.23 229.73 273.13 233.67 275.84 235.64C278.54 237.62 279.62 239.08 281.04 240.65C282.46 242.23 284.17 244.45 285.31 246.13C286.44 247.81 287.77 250.11 288.63 251.86C289.48 253.61 290.35 255.13 291.03 257.80C291.70 260.48 292.86 266.96 293.13 269.68C293.40 272.40 293.37 272.92 292.84 275.96C292.31 279.00 291.09 285.65 289.59 289.98C288.09 294.30 285.35 300.58 282.83 304.80C280.30 309.01 276.30 314.11 272.76 318.09C269.23 322.06 262.51 328.28 259.26 331.27C256.02 334.26 255.06 335.16 251.13 338.01C247.20 340.87 240.04 346.15 233.05 350.32C226.06 354.48 210.28 362.94 204.53 365.80C198.78 368.66 197.64 368.53 194.69 369.39C191.73 370.26 189.25 370.88 184.84 371.59C180.42 372.29 169.49 373.38 165.25 374.10C161.02 374.82 161.22 374.78 156.57 376.41C151.93 378.03 139.79 383.24 134.26 384.96C128.73 386.68 126.84 386.03 119.71 387.90C112.58 389.77 94.47 395.47 86.71 397.43C78.95 399.39 72.15 400.26 67.98 400.97C63.80 401.67 61.55 402.02 58.86 402.11C56.18 402.21 52.66 402.06 50.07 401.60C47.48 401.15 44.06 400.09 41.59 399.07C39.12 398.05 35.94 396.25 33.61 394.83C31.27 393.42 28.99 391.78 26.02 389.64C23.05 387.50 16.21 382.66 13.82 380.55C11.43 378.44 10.90 377.20 10.08 375.56C9.25 373.93 8.60 370.54 8.34 369.66"/><path fill="none" stroke="#ffd873" stroke-opacity="0.5" stroke-width="13.0" stroke-linecap="round" stroke-linejoin="round" d="M286.62 215.06C286.41 215.01 285.42 215.65 285.23 214.71C283.63 207.10 277.64 174.93 276.00 164.32C274.35 153.70 274.44 149.25 274.25 143.95C274.07 138.65 274.41 133.46 274.76 128.98C275.12 124.50 275.70 117.40 276.62 114.08C277.54 110.75 279.67 109.42 280.89 106.81C282.11 104.20 282.96 100.70 284.75 96.68C286.54 92.65 290.39 84.31 292.82 79.96C295.25 75.61 299.05 70.23 300.94 67.67C302.83 65.11 304.01 64.16 305.43 62.89C306.84 61.62 307.90 60.54 310.37 59.20C312.83 57.87 317.96 55.46 321.86 54.01C325.76 52.57 331.60 50.86 336.39 49.57C341.18 48.27 349.77 46.30 353.78 45.41C357.80 44.51 356.94 44.90 363.18 43.58C372.16 41.69 402.77 34.95 413.64 32.77C424.52 30.60 429.07 29.88 435.68 29.08C442.29 28.29 451.17 27.62 457.70 27.48C464.22 27.34 472.90 27.55 479.16 28.15C485.42 28.75 494.99 30.52 499.42 31.47C503.86 32.43 506.02 33.47 508.71 34.54C511.40 35.61 514.90 37.24 517.35 38.58C519.80 39.92 522.91 41.94 525.05 43.50C527.20 45.05 529.86 47.32 531.66 48.95C533.47 50.58 535.65 52.73 537.08 54.36C538.51 56.00 540.14 58.24 541.22 59.84C542.30 61.44 543.25 62.76 544.30 65.03C545.34 67.30 547.23 70.99 548.15 74.98C549.07 78.98 550.17 87.38 550.42 91.65C550.68 95.91 550.11 100.77 549.85 103.44C549.59 106.11 549.46 106.58 548.68 109.45C547.89 112.32 546.38 117.62 544.60 122.55C542.81 127.48 538.96 137.59 536.77 142.33C534.58 147.07 532.49 150.59 529.99 154.15C527.48 157.70 523.53 162.59 520.08 166.04C516.63 169.49 510.10 174.65 507.00 177.13C503.89 179.62 503.24 180.15 499.36 182.63C495.48 185.10 485.42 191.27 481.13 193.63C476.85 195.98 477.84 195.56 470.78 198.32C460.89 202.20 425.26 215.86 415.17 219.48C407.61 222.18 408.69 221.47 403.50 222.44C398.31 223.40 385.61 224.99 380.56 225.92C375.51 226.85 375.86 226.60 369.82 228.64C363.78 230.67 346.14 237.62 340.30 239.49C334.46 241.35 333.66 240.82 330.88 241.07C328.10 241.31 324.47 241.25 321.79 241.12C319.10 240.99 315.54 240.61 312.99 240.20C310.44 239.80 307.18 239.02 304.76 238.42C302.35 237.82 300.29 237.25 296.89 236.20C293.50 235.15 284.32 232.11 282.10 231.39"/>
</svg>