<?xml version="1.0" encoding="UTF-8"?>
<!DOCTYPE svg PUBLIC "-//W3C//DTD SVG 1.1//EN" "http://www.w3.org/Graphics/SVG/1.1/DTD/svg11.dtd">
<svg  xmlns="http://www.w3.org/2000/svg" xmlns:xlink="http://www.w3.org/1999/xlink" viewport-fill="none" viewBox="0.0, 0.0, 503.6025284406792, 373.6796804705393" version="1.1" height="373.6796804705393" width="503.6025284406792">
<path fill="none" stroke="#ffd873" stroke-opacity="0.5" stroke-width="13.0" stroke-linecap="round" stroke-linejoin="round" d="M375.21 272.38C375.05 272.33 373.43 272.05 374.17 272.03C378.41 271.91 396.98 271.57 403.48 271.56C409.97 271.56 408.16 271.33 417.45 272.02C427.54 272.77 460.96 275.95 470.75 276.57C478.72 277.08 480.11 276.35 482.72 276.18C485.34 276.01 487.01 275.70 488.18 275.44C489.35 275.17 490.20 274.61 490.50 274.41C490.75 274.25 490.50 274.19 490.24 274.06C489.44 273.67 486.65 272.23 485.16 271.77C483.68 271.32 483.48 271.23 480.34 271.02C477.19 270.82 474.96 270.28 464.20 270.42C452.82 270.56 415.47 271.60 404.47 271.98C395.39 272.29 393.94 272.58 390.87 272.94C387.81 273.29 385.23 274.09 384.03 274.36C383.20 274.55 383.17 274.62 382.83 274.78C382.49 274.94 381.66 275.21 381.77 275.43C381.87 275.65 382.25 276.03 383.52 276.26C385.23 276.55 386.70 276.95 393.16 277.42C401.67 278.03 428.07 279.46 440.29 280.34C452.50 281.23 468.31 282.85 474.59 283.31C479.59 283.68 480.91 283.52 482.11 283.45C482.63 283.41 482.49 282.90 482.56 282.80"/><path fill="none" stroke="#ffd873" stroke-opacity="0.5" stroke-width="13.0" stroke-linecap="round" stroke-linejoin="round" d="M35.78 287.67C35.35 287.91 32.22 288.85 32.92 289.32C33.63 289.78 38.29 290.50 40.50 290.77C42.72 291.03 42.90 291.19 47.70 291.08C56.37 290.88 88.41 289.48 98.31 289.43C108.21 289.38 108.30 290.13 113.70 290.76C119.10 291.38 130.56 293.12 134.32 293.60C137.25 293.98 135.78 293.93 138.74 293.98C142.39 294.03 148.21 294.57 158.69 293.97C169.16 293.36 195.88 290.58 208.58 289.96C221.27 289.33 237.27 289.80 243.34 289.79C247.11 289.78 245.22 289.79 249.00 289.86C254.39 289.96 268.33 289.99 279.30 290.49C290.28 290.99 309.23 292.77 322.15 293.18C335.07 293.58 357.89 293.20 365.44 293.20C370.13 293.20 367.79 293.07 372.48 293.19C382.50 293.44 416.16 294.56 432.21 294.89C448.25 295.22 471.98 295.40 479.46 295.40C481.19 295.40 481.65 295.03 482.01 294.88C482.30 294.76 482.03 294.70 481.86 294.43C481.53 293.92 480.69 292.26 479.83 291.47C478.96 290.67 477.89 289.77 476.08 289.12C474.27 288.47 469.90 287.51 467.76 287.13C465.62 286.74 464.86 286.66 461.81 286.55C458.75 286.44 454.49 286.18 447.39 286.38C440.29 286.59 424.93 287.67 414.48 287.91C404.04 288.15 384.74 287.99 377.74 287.98C371.10 287.97 374.42 287.96 367.78 287.86C357.10 287.71 326.28 286.95 306.49 286.98C286.70 287.00 253.86 287.99 235.84 288.05C217.82 288.11 194.99 287.50 186.36 287.36C181.01 287.27 183.69 287.14 178.34 287.11C162.03 287.04 94.52 287.00 77.59 286.86C69.48 286.80 70.27 286.73 65.45 286.24C60.62 285.75 48.83 284.03 45.43 283.60C43.66 283.38 44.46 283.41 42.76 283.36C41.07 283.30 35.76 283.04 34.11 283.24C32.45 283.43 32.11 284.08 31.73 284.64C31.36 285.20 31.63 286.62 31.61 286.97"/><path fill="none" stroke="#ffd873" stroke-opacity="0.5" stroke-width="13.0" stroke-linecap="round" stroke-linejoin="round" d="M24.67 303.30C25.66 303.66 28.76 305.07 31.29 305.68C33.82 306.29 36.30 307.03 41.54 307.39C46.78 307.75 62.70 308.06 66.22 308.10C67.08 308.11 65.49 307.76 65.04 307.61C64.59 307.47 64.46 307.30 63.23 307.14C61.35 306.90 56.33 306.13 52.52 306.02C48.71 305.91 41.38 306.13 37.82 306.41C34.26 306.68 31.22 307.29 28.78 307.85C26.34 308.41 22.37 309.65 21.58 310.16C20.79 310.68 22.39 310.98 23.50 311.31C24.60 311.64 26.51 312.16 28.94 312.36C31.36 312.55 37.04 312.64 39.66 312.62C42.27 312.59 42.74 312.66 46.37 312.22C50.00 311.77 60.42 310.34 63.85 309.67C67.28 309.01 68.17 308.33 69.20 307.78C70.23 307.24 70.69 306.70 70.73 306.03C70.76 305.36 70.26 304.02 69.46 303.33C68.65 302.65 68.31 302.07 65.37 301.46C61.70 300.68 48.59 298.72 44.93 298.16C42.31 297.76 43.52 298.11 40.97 297.75C38.42 297.40 23.43 296.15 27.91 295.77C32.39 295.39 59.87 295.50 70.84 295.20C81.80 294.90 94.81 294.03 100.99 293.75C107.17 293.48 104.66 293.45 112.02 293.37C124.13 293.24 151.41 293.63 181.72 292.91C212.03 292.18 285.89 289.25 314.11 288.52C342.32 287.78 359.61 288.08 369.83 288.00C378.14 287.94 373.99 287.95 382.29 287.99C392.74 288.03 429.02 288.15 439.50 288.33C447.96 288.47 446.64 288.59 452.16 289.17C457.68 289.75 472.68 291.73 476.31 292.18"/><path fill="none" stroke="#ffd873" stroke-opacity="0.5" stroke-width="13.0" stroke-linecap="round" stroke-linejoin="round" d="M371.73 274.81C376.44 275.11 392.79 276.42 403.09 276.79C413.38 277.16 430.26 277.32 440.34 277.29C450.43 277.25 465.33 276.66 470.34 276.55C472.60 276.50 471.48 276.68 473.73 276.56C476.08 276.42 485.04 276.20 486.00 275.66C486.97 275.12 482.09 273.57 480.18 272.99C478.26 272.40 477.92 272.09 473.21 271.75C468.50 271.40 453.39 270.86 448.74 270.68C444.38 270.52 446.56 270.65 442.20 270.58C434.79 270.47 408.82 269.81 399.32 269.96C389.82 270.11 382.21 271.26 378.88 271.57C377.66 271.68 377.96 271.69 377.10 272.02C376.23 272.35 373.72 273.51 373.12 273.77"/><path fill="none" stroke="#ffd873" stroke-opacity="0.5" stroke-width="13.0" stroke-linecap="round" stroke-linejoin="round" d="M42.04 301.91C41.26 303.00 35.25 307.97 36.83 309.20C38.41 310.44 48.97 310.13 52.57 310.14C56.18 310.16 57.80 309.90 60.84 309.31C63.88 308.72 70.72 306.86 72.84 306.19C74.42 305.69 74.58 305.26 74.95 304.87C75.33 304.48 75.90 304.09 75.34 303.61C74.77 303.13 72.65 302.01 71.18 301.68C69.71 301.35 69.29 301.10 65.54 301.39C61.77 301.67 52.20 302.52 46.06 303.56C39.93 304.60 29.56 307.11 24.64 308.32C19.72 309.54 15.23 311.06 13.26 311.69C12.05 312.08 11.77 312.30 11.54 312.54C11.31 312.79 11.39 313.12 11.74 313.32C12.09 313.51 12.40 313.89 13.88 313.86C16.00 313.81 22.74 313.40 25.86 313.02C28.98 312.64 28.95 312.67 34.66 311.31C40.37 309.96 59.53 305.09 63.92 303.99"/><path fill="none" stroke="#d1000d" stroke-width="1.5" stroke-linecap="round" stroke-linejoin="round" d="M342.20 366.53C348.05 366.23 367.08 364.84 381.21 364.53C395.33 364.22 428.08 364.46 436.35 364.44"/><path fill="none" stroke="#ffd873" stroke-opacity="0.5" stroke-width="13.0" stroke-linecap="round" stroke-linejoin="round" d="M27.45 290.10C27.24 290.15 25.10 290.49 26.06 290.44C31.57 290.16 43.96 288.49 64.19 288.23C84.42 287.97 137.42 288.48 160.92 288.71C184.42 288.95 202.75 289.78 220.85 289.78C238.95 289.78 270.57 288.95 281.58 288.73C290.00 288.57 286.54 288.54 294.21 288.33C301.87 288.13 321.13 287.50 332.67 287.38C344.20 287.26 361.94 287.34 371.11 287.52C380.29 287.70 386.32 288.09 393.83 288.60C401.34 289.11 413.19 289.98 421.18 290.92C429.17 291.85 438.60 292.72 447.09 294.86C455.58 297.00 473.07 303.66 477.78 305.18C478.22 305.32 478.82 305.16 478.44 304.93C478.06 304.70 475.74 303.84 475.26 303.65"/><path fill="none" stroke="#98c2ff" stroke-opacity="0.5" stroke-width="13.0" stroke-linecap="round" stroke-linejoin="round" d="M231.38 359.58C236.01 359.21 251.42 357.70 262.29 357.14C273.15 356.57 298.31 356.33 303.81 355.82C307.33 355.49 301.97 354.35 298.95 353.71C295.93 353.07 287.21 351.97 283.67 351.56C280.13 351.15 279.26 351.11 275.36 350.96C271.46 350.81 263.37 350.48 257.66 350.54C251.95 350.61 241.79 351.03 237.28 351.38C232.77 351.72 229.59 352.40 227.62 352.86C225.66 353.32 224.46 354.04 224.18 354.47C223.90 354.91 225.05 355.46 225.78 355.78C226.50 356.09 226.80 356.40 229.01 356.55C233.24 356.83 248.47 357.51 253.99 357.65C259.51 357.78 257.94 357.75 265.80 357.46C273.67 357.17 298.86 356.24 306.43 355.72C313.05 355.27 314.53 354.40 316.24 354.01C317.45 353.73 317.61 353.34 317.86 353.08C318.11 352.82 317.88 352.40 317.88 352.28"/><path fill="none" stroke="#d1000d" stroke-width="1.5" stroke-linecap="round" stroke-linejoin="round" d="M235.55 367.92C234.80 367.31 229.24 364.39 230.59 363.86C231.94 363.33 235.24 364.43 244.55 364.41C255.10 364.39 292.22 363.83 300.95 363.73C302.19 363.72 302.25 363.71 302.80 363.76C303.36 363.82 304.40 364.05 304.68 364.10"/><path fill="none" stroke="#98c2ff" stroke-opacity="0.5" stroke-width="13.0" stroke-linecap="round" stroke-linejoin="round" d="M347.41 356.80C347.21 356.80 345.10 356.72 346.02 356.80C351.29 357.28 375.13 359.46 382.52 360.01C389.92 360.55 391.45 360.32 395.30 360.42C399.15 360.52 401.03 360.77 408.17 360.65C415.31 360.52 437.78 359.92 442.87 359.57C443.83 359.51 442.77 358.73 442.13 358.34C441.50 357.95 439.81 357.34 438.66 356.99C437.52 356.64 437.32 356.42 434.48 356.02C430.76 355.49 419.48 353.88 413.80 353.49C408.11 353.10 405.78 352.64 396.57 353.40C387.36 354.17 356.85 357.88 352.41 358.59C347.96 359.30 363.07 358.25 366.94 358.15C370.81 358.05 370.69 357.99 378.20 357.91C391.61 357.76 444.71 357.26 456.30 357.15C456.85 357.14 455.59 357.15 455.46 357.15"/>
</svg>