<?xml version="1.0" encoding="UTF-8"?>
<!DOCTYPE svg PUBLIC "-//W3C//DTD SVG 1.1//EN" "http://www.w3.org/Graphics/SVG/1.1/DTD/svg11.dtd">
<svg  xmlns="http://www.w3.org/2000/svg" xmlns:xlink="http://www.w3.org/1999/xlink" viewport-fill="none" viewBox="0.0, 0.0, 788.8412916294835, 377.6179478675065" version="1.1" height="377.6179478675065" width="788.8412916294835">
<path fill="none" stroke="#004dc0" stroke-width="2.0" stroke-linecap="round" stroke-linejoin="round" d="M140.01 132.09C139.96 131.98 139.91 130.94 139.66 131.39C139.38 131.89 138.12 134.38 138.13 135.42C138.15 136.46 139.27 137.95 139.75 138.31C140.24 138.68 140.79 138.36 141.35 137.84C141.91 137.32 143.16 135.31 143.48 134.86"/><path fill="none" stroke="#004dc0" stroke-width="2.0" stroke-linecap="round" stroke-linejoin="round" d="M137.92 180.03C137.87 180.39 137.23 181.63 137.58 182.46C137.92 183.29 139.72 185.09 140.24 185.54C140.67 185.91 140.98 185.88 141.08 185.46C141.19 185.04 141.14 183.48 140.92 182.74C140.71 182.00 140.16 181.04 139.66 180.53C139.16 180.02 137.89 179.51 137.58 179.33"/><path fill="none" stroke="#004dc0" stroke-width="2.0" stroke-linecap="round" stroke-linejoin="round" d="M137.58 120.27C137.99 120.95 139.94 124.11 140.36 124.79"/><path fill="none" stroke="#004dc0" stroke-width="2.0" stroke-linecap="round" stroke-linejoin="round" d="M210.19 137.30C210.03 138.34 209.10 142.99 209.14 144.24C209.18 145.50 209.96 145.40 210.46 145.67C210.95 145.93 211.84 146.09 212.43 146.03C213.03 145.97 213.37 146.22 214.40 145.26C215.47 144.27 218.79 140.26 219.57 139.38"/><path fill="none" stroke="#004dc0" stroke-width="2.0" stroke-linecap="round" stroke-linejoin="round" d="M220.96 135.56C220.90 135.46 220.61 134.35 220.61 134.86C220.60 135.67 221.25 140.39 220.93 140.91C220.62 141.43 218.93 138.88 218.52 138.32C218.11 137.76 218.14 137.46 218.17 137.19C218.20 136.92 218.12 136.53 218.70 136.50C219.84 136.46 224.13 136.96 225.77 136.87C227.41 136.78 229.06 136.05 229.64 135.91"/><path fill="none" stroke="#004dc0" stroke-width="2.0" stroke-linecap="round" stroke-linejoin="round" d="M138.27 89.70C137.71 89.14 135.04 86.62 134.54 85.97C134.25 85.60 134.51 85.38 134.96 85.40C135.40 85.43 137.00 86.33 137.53 86.13C138.07 85.93 138.47 84.96 138.52 84.06C138.57 83.15 138.08 80.96 137.87 80.10C137.67 79.24 137.45 78.72 137.14 78.33C136.84 77.95 136.03 77.66 135.84 77.54C135.84 77.54 135.84 77.54 135.84 77.54"/><path fill="none" stroke="#004dc0" stroke-width="2.0" stroke-linecap="round" stroke-linejoin="round" d="M230.34 78.24C229.87 79.12 227.55 82.90 227.21 84.14C226.87 85.38 227.69 85.96 228.05 86.50C228.41 87.05 228.80 87.83 229.62 87.80C230.45 87.77 232.60 87.10 233.54 86.30C234.48 85.49 235.54 82.99 235.89 82.40"/><path fill="none" stroke="#004dc0" stroke-width="2.0" stroke-linecap="round" stroke-linejoin="round" d="M396.40 93.87C396.04 94.82 394.32 98.87 394.01 100.22C393.70 101.58 393.96 102.10 394.34 102.90C394.73 103.69 395.85 105.42 396.56 105.53C397.27 105.63 398.66 104.85 399.05 103.57C399.45 102.29 399.16 97.98 399.18 97.00"/><path fill="none" stroke="#004dc0" stroke-width="2.0" stroke-linecap="round" stroke-linejoin="round" d="M172.32 106.72C172.79 107.45 175.32 111.51 175.44 111.59C175.57 111.67 173.12 107.95 173.14 107.27C173.16 106.59 175.10 107.29 175.57 107.07C176.05 106.84 176.69 106.66 176.30 105.78C175.92 104.89 173.51 101.86 173.01 101.17"/><path fill="none" stroke="#004dc0" stroke-width="2.0" stroke-linecap="round" stroke-linejoin="round" d="M417.94 159.18C417.84 159.13 417.41 158.34 417.24 158.84C416.90 159.90 415.81 164.64 415.62 166.27C415.43 167.91 415.74 168.90 415.98 169.75C416.22 170.60 416.76 171.40 417.20 171.95C417.63 172.50 417.97 173.44 418.87 173.43C419.77 173.43 422.04 172.85 423.20 171.91C424.36 170.97 426.11 167.88 426.62 167.17"/><path fill="none" stroke="#004dc0" stroke-width="2.0" stroke-linecap="round" stroke-linejoin="round" d="M429.75 157.79C430.19 158.60 432.19 161.69 432.67 163.14C433.15 164.60 433.02 166.74 432.94 167.50C432.87 168.20 432.61 168.37 432.15 168.20C431.68 168.04 430.27 166.97 429.85 166.40C429.43 165.83 429.34 164.80 429.35 164.40C429.35 163.99 429.40 163.91 429.90 163.72C430.39 163.52 431.21 163.13 432.65 163.08C434.08 163.02 438.45 163.31 439.48 163.35"/><path fill="none" stroke="#004dc0" stroke-width="2.0" stroke-linecap="round" stroke-linejoin="round" d="M361.66 131.74C361.55 132.47 360.86 135.48 360.96 136.60C361.06 137.72 361.84 138.53 362.33 139.19C362.82 139.84 363.43 140.63 364.24 140.94C365.06 141.25 367.00 141.91 367.76 141.26C368.52 140.61 369.07 137.30 369.30 136.60"/><path fill="none" stroke="#004dc0" stroke-width="2.0" stroke-linecap="round" stroke-linejoin="round" d="M389.80 84.14C389.96 84.19 390.42 83.92 390.84 84.49C391.26 85.06 392.32 87.44 392.58 87.96"/><path fill="none" stroke="#d1000d" stroke-width="1.5" stroke-linecap="round" stroke-linejoin="round" d="M532.93 368.33C532.83 368.33 531.78 368.31 532.24 368.33C533.55 368.36 535.37 368.75 541.64 368.57C552.23 368.28 587.51 366.78 602.83 366.38C618.15 365.97 637.13 365.97 643.77 365.90C645.97 365.87 645.35 365.82 647.07 365.87C648.79 365.92 654.00 366.19 655.22 366.24"/><path fill="none" stroke="#d1000d" stroke-width="1.5" stroke-linecap="round" stroke-linejoin="round" d="M528.07 352.69C532.73 352.38 547.24 350.77 559.12 350.62C571.00 350.47 599.56 351.51 607.26 351.67C609.36 351.71 608.31 351.63 610.42 351.69C616.13 351.85 635.48 352.71 645.33 352.75C655.18 352.79 670.84 352.08 676.06 351.95C678.77 351.88 677.42 351.86 680.12 351.86C687.46 351.87 714.16 352.18 725.00 351.99C735.84 351.81 747.80 350.82 752.40 350.61C754.55 350.51 754.93 350.50 755.63 350.61C756.32 350.71 756.81 351.20 757.02 351.30"/><path fill="none" stroke="#004dc0" stroke-width="2.0" stroke-linecap="round" stroke-linejoin="round" d="M466.92 101.86C466.72 101.81 465.27 102.35 465.54 101.51C465.80 100.68 468.19 97.08 468.66 96.30"/><path fill="none" stroke="#004dc0" stroke-width="2.0" stroke-linecap="round" stroke-linejoin="round" d="M459.63 94.22C460.52 95.47 464.65 101.30 465.54 102.56"/><path fill="none" stroke="#004dc0" stroke-width="2.0" stroke-linecap="round" stroke-linejoin="round" d="M452.33 104.64C452.31 105.07 452.36 107.25 452.21 107.51C452.06 107.77 451.42 106.71 451.32 106.38C451.22 106.04 450.81 105.16 451.56 105.27C452.83 105.45 458.75 107.69 459.78 107.56C460.81 107.42 458.94 105.19 458.39 104.39C457.85 103.59 456.49 102.54 456.16 102.21"/><path fill="none" stroke="#004dc0" stroke-width="2.0" stroke-linecap="round" stroke-linejoin="round" d="M463.45 92.83C464.44 94.18 469.06 100.51 470.05 101.86"/><path fill="none" stroke="#ffd873" stroke-opacity="0.5" stroke-width="13.0" stroke-linecap="round" stroke-linejoin="round" d="M523.55 346.79C523.35 346.74 521.21 346.47 522.16 346.44C530.10 346.23 563.35 345.34 576.45 345.36C589.56 345.37 596.85 346.54 609.54 346.54C622.23 346.54 644.05 345.39 661.06 345.37C678.06 345.35 712.71 346.25 722.91 346.42C727.00 346.48 724.97 346.43 729.04 346.49C733.11 346.55 744.51 346.90 750.07 346.79C755.62 346.68 762.24 345.85 766.07 345.75C769.90 345.65 774.15 346.06 775.61 346.12C775.74 346.12 775.93 346.17 775.80 346.16C767.62 345.41 733.95 342.07 721.11 341.15C708.28 340.22 701.83 340.07 690.24 339.98C678.66 339.90 663.46 340.04 643.88 340.57C624.31 341.10 573.38 343.05 559.73 343.52C555.18 343.68 555.93 343.50 552.91 343.73C549.88 343.97 542.72 344.56 539.56 345.08C536.39 345.61 533.23 346.73 531.81 347.23C530.49 347.70 530.22 347.95 530.07 348.43C529.93 348.90 529.97 349.57 530.85 350.41C531.73 351.24 534.31 353.13 535.93 353.98C537.55 354.83 539.48 355.48 541.65 356.05C543.82 356.63 547.35 357.41 550.38 357.83C553.41 358.24 558.12 358.63 561.87 358.81C565.62 359.00 566.37 359.34 575.37 359.03C586.63 358.64 632.95 356.87 636.97 356.20C640.99 355.53 611.36 354.68 602.15 354.56C592.93 354.44 583.31 354.99 575.54 355.38C567.77 355.76 555.45 356.74 550.37 357.12C545.28 357.50 544.35 357.65 541.65 357.92C538.96 358.20 533.13 358.25 532.40 358.95C531.66 359.64 535.76 361.86 536.76 362.54C537.75 363.23 537.39 363.27 539.00 363.51C541.03 363.82 542.74 364.85 550.32 364.57C564.52 364.06 619.90 360.83 633.65 360.08C639.22 359.77 638.77 359.66 642.00 359.54C645.24 359.43 654.00 359.55 655.21 359.29C656.42 359.04 652.34 358.24 650.05 357.83C647.76 357.42 646.45 357.00 639.92 356.57C633.39 356.15 613.67 355.26 606.52 355.00C599.37 354.74 598.70 354.74 592.25 354.84C585.80 354.94 572.51 355.26 563.52 355.67C554.54 356.08 538.42 357.30 532.35 357.56C526.28 357.82 524.89 357.53 523.05 357.38C521.21 357.22 520.52 356.64 520.08 356.51"/>
</svg>