<?xml version="1.0" encoding="UTF-8"?>
<!DOCTYPE svg PUBLIC "-//W3C//DTD SVG 1.1//EN" "http://www.w3.org/Graphics/SVG/1.1/DTD/svg11.dtd">
<svg  xmlns="http://www.w3.org/2000/svg" xmlns:xlink="http://www.w3.org/1999/xlink" viewport-fill="none" viewBox="0.0, 0.0, 136.36610743029527, 141.04360961914062" version="1.1" height="141.04360961914062" width="136.36610743029527">
<path fill="none" stroke="#000000" stroke-width="2.0" stroke-linecap="round" stroke-linejoin="round" d="M131.67 119.59C130.67 120.89 126.05 126.52 125.03 128.26C124.06 129.92 124.55 130.41 124.88 131.14C125.21 131.87 126.35 133.18 127.26 133.13C128.18 133.07 130.12 131.63 130.99 130.78C131.85 129.94 132.55 128.52 133.03 127.48C133.51 126.45 134.01 124.65 134.19 123.89C134.38 123.13 134.43 122.93 134.27 122.41C134.11 121.88 133.79 120.82 133.14 120.40C132.49 119.97 130.41 119.71 129.93 119.59"/><path fill="none" stroke="#000000" stroke-width="2.0" stroke-linecap="round" stroke-linejoin="round" d="M130.98 116.11C130.92 116.06 130.66 115.44 130.63 115.77C130.32 119.21 129.15 135.55 128.89 139.04"/><path fill="none" stroke="#000000" stroke-width="2.0" stroke-linecap="round" stroke-linejoin="round" d="M99.01 54.97C99.01 57.78 99.01 70.92 99.01 73.73"/><path fill="none" stroke="#000000" stroke-width="2.0" stroke-linecap="round" stroke-linejoin="round" d="M93.80 59.49C94.17 59.97 95.63 61.65 96.25 62.70C96.86 63.75 97.22 66.31 97.93 66.49C98.64 66.66 100.19 65.07 100.97 63.84C101.75 62.62 102.41 59.25 103.11 58.33C103.81 57.42 105.24 57.84 105.61 57.75"/>
</svg>