<?xml version="1.0" encoding="UTF-8"?>
<!DOCTYPE svg PUBLIC "-//W3C//DTD SVG 1.1//EN" "http://www.w3.org/Graphics/SVG/1.1/DTD/svg11.dtd">
<svg  xmlns="http://www.w3.org/2000/svg" xmlns:xlink="http://www.w3.org/1999/xlink" viewport-fill="none" viewBox="0.0, 0.0, 254.10560607910156, 123.81731304256124" version="1.1" height="123.81731304256124" width="254.10560607910156">
<path fill="none" stroke="#ffd873" stroke-opacity="0.5" stroke-width="13.0" stroke-linecap="round" stroke-linejoin="round" d="M241.11 83.03C241.00 80.85 240.97 78.94 240.90 76.90C240.77 73.21 240.90 69.57 241.11 66.19"/><path fill="none" stroke="#c69eff" stroke-opacity="0.5" stroke-width="13.0" stroke-linecap="round" stroke-linejoin="round" d="M120.90 71.24C135.87 70.87 208.87 69.04 220.68 68.78C232.49 68.51 204.35 69.27 199.64 69.46C194.94 69.65 196.13 69.37 189.33 70.04C182.52 70.71 163.08 72.64 154.29 73.93C145.50 75.21 135.43 77.59 130.72 78.62C126.01 79.66 124.34 80.29 122.92 80.81C121.61 81.29 120.21 81.63 121.25 82.07C122.29 82.50 126.28 83.36 129.84 83.72C133.40 84.09 139.72 84.48 144.99 84.51C150.26 84.54 159.11 84.28 165.00 83.94C170.90 83.60 180.17 82.64 184.28 82.26C188.39 81.88 187.51 81.90 192.38 81.38C197.25 80.87 212.23 79.44 216.72 78.84C220.53 78.33 222.92 77.74 222.29 77.37C221.67 77.00 216.54 76.58 212.55 76.40C208.56 76.22 201.76 76.00 195.71 76.14C189.66 76.29 177.44 76.98 172.20 77.37C166.96 77.76 163.97 78.28 160.79 78.74C157.61 79.21 154.64 79.57 150.99 80.48C147.35 81.38 140.20 83.38 136.50 84.75C132.80 86.11 128.41 88.53 126.35 89.57C124.28 90.60 123.76 90.92 122.77 91.65C121.77 92.39 120.15 93.93 119.73 94.46C119.41 94.86 119.54 94.91 119.96 95.19C120.45 95.51 120.99 96.14 122.98 96.61C124.97 97.08 126.91 98.12 133.24 98.35C139.58 98.58 159.25 98.22 165.21 98.17C170.37 98.13 167.79 98.19 172.96 98.01C180.46 97.75 207.95 96.75 215.20 96.45C219.25 96.27 219.74 96.22 221.27 95.96C222.79 95.71 224.69 95.26 225.36 94.77C226.02 94.29 225.83 93.30 225.70 92.73C225.56 92.16 225.46 91.56 224.46 90.97C223.45 90.38 220.63 89.28 218.99 88.78C217.35 88.28 215.50 87.97 213.53 87.66C211.55 87.34 210.07 86.96 205.85 86.69C201.63 86.43 191.63 85.84 185.37 85.89C179.10 85.95 170.36 86.35 164.11 87.07C157.85 87.79 147.60 89.80 143.66 90.68C139.72 91.56 138.97 92.30 137.82 92.93C136.66 93.56 136.24 94.31 135.94 94.91C135.65 95.51 135.50 96.29 135.83 96.94C136.17 97.58 136.48 98.55 138.19 99.19C139.90 99.82 144.76 100.79 147.25 101.16C149.75 101.52 152.32 101.58 154.81 101.65C157.31 101.72 159.63 101.83 163.87 101.62C168.11 101.40 174.03 101.30 183.05 100.20C192.07 99.10 217.69 95.26 224.01 94.28C224.91 94.14 224.89 94.10 225.23 93.66C225.57 93.22 226.05 93.03 226.29 91.36C226.58 89.30 227.07 81.64 227.21 79.92"/><path fill="none" stroke="#c69eff" stroke-opacity="0.5" stroke-width="13.0" stroke-linecap="round" stroke-linejoin="round" d="M115.69 61.86C115.58 61.86 114.53 61.88 114.99 61.86C119.90 61.60 138.00 60.22 148.37 60.18C158.75 60.14 175.67 61.39 184.15 61.57C192.63 61.75 199.55 61.59 204.91 61.39C210.26 61.19 217.22 60.41 219.83 60.22C221.51 60.10 221.06 60.03 222.36 60.14C223.65 60.24 227.25 60.51 228.47 60.92C229.69 61.32 229.95 62.09 230.49 62.83C231.03 63.58 231.68 64.52 232.06 65.91C232.44 67.30 232.81 68.72 233.01 72.10C233.22 75.49 233.45 85.00 233.41 88.49C233.38 91.99 233.08 93.63 232.78 95.42C232.49 97.20 231.76 99.38 231.44 100.38C231.12 101.38 231.44 101.10 230.67 102.07C229.88 103.06 227.48 106.01 226.19 106.95C224.91 107.89 223.97 107.95 222.10 108.33C220.23 108.72 217.85 109.15 213.70 109.51C209.55 109.88 203.78 110.59 194.43 110.76C185.08 110.93 158.59 110.66 151.37 110.64C147.98 110.64 149.41 110.64 146.28 110.64C143.14 110.64 133.85 110.82 130.48 110.64C127.11 110.47 125.49 110.00 123.79 109.46C122.10 108.93 120.15 107.80 119.17 107.05C118.19 106.30 117.83 105.61 117.27 104.49C116.72 103.36 116.09 101.41 115.48 99.54C114.86 97.66 113.77 94.50 113.17 91.99C112.57 89.49 111.76 84.89 111.49 82.84C111.21 80.80 111.23 80.89 111.36 78.37C111.50 75.84 109.65 67.88 112.38 66.03C115.12 64.18 127.01 66.03 129.59 66.02"/>
</svg>