<?xml version="1.0" encoding="UTF-8"?>
<!DOCTYPE svg PUBLIC "-//W3C//DTD SVG 1.1//EN" "http://www.w3.org/Graphics/SVG/1.1/DTD/svg11.dtd">
<svg  xmlns="http://www.w3.org/2000/svg" xmlns:xlink="http://www.w3.org/1999/xlink" viewport-fill="none" viewBox="0.0, 0.0, 411.61687464493696, 222.15704345703125" version="1.1" height="222.15704345703125" width="411.61687464493696">
<path fill="none" stroke="#004dc0" stroke-width="1.5" stroke-linecap="round" stroke-linejoin="round" d="M207.06 200.16C207.00 200.67 206.71 203.64 206.68 203.54C206.66 203.44 206.68 200.71 206.90 199.49C207.13 198.28 207.70 196.43 208.19 195.43C208.68 194.42 209.64 193.15 210.18 192.79C210.72 192.44 211.52 192.93 211.81 193.07C212.09 193.20 212.04 193.25 212.07 193.71C212.10 194.28 212.13 196.12 212.00 196.87C211.87 197.62 211.57 198.16 211.19 198.73C210.80 199.31 210.04 200.33 209.46 200.70C208.88 201.06 207.44 201.06 207.33 201.17C207.22 201.29 208.43 201.39 208.74 201.47C209.05 201.55 208.96 201.57 209.40 201.71C210.09 201.93 212.73 202.75 213.31 202.94"/><path fill="none" stroke="#004dc0" stroke-width="1.5" stroke-linecap="round" stroke-linejoin="round" d="M216.09 195.99C216.14 195.89 216.39 195.40 216.44 195.30"/><path fill="none" stroke="#004dc0" stroke-width="1.5" stroke-linecap="round" stroke-linejoin="round" d="M222.00 198.77C221.90 198.45 221.61 196.93 221.33 196.67C221.06 196.41 220.57 196.45 220.15 197.06C219.74 197.67 218.75 200.03 218.55 200.74C218.35 201.45 218.71 201.62 218.81 201.82C218.91 202.02 218.89 202.13 219.21 202.08C219.67 201.99 221.38 201.59 221.92 201.25C222.45 200.92 222.63 200.44 222.79 199.86C222.95 199.27 223.09 197.28 222.99 197.37C222.88 197.47 222.23 199.00 222.09 200.49C221.95 201.98 222.04 206.08 222.04 207.33C222.04 208.34 222.14 207.96 222.11 208.84C222.08 209.73 222.25 212.58 221.85 213.21C221.46 213.84 220.00 213.33 219.50 213.04C219.00 212.75 218.67 211.54 218.52 211.28"/><path fill="none" stroke="#004dc0" stroke-width="1.5" stroke-linecap="round" stroke-linejoin="round" d="M216.09 199.12C216.09 199.64 216.09 202.07 216.09 202.59"/><path fill="none" stroke="#004dc0" stroke-width="1.5" stroke-linecap="round" stroke-linejoin="round" d="M240.76 192.86C240.71 193.49 240.38 195.85 240.42 197.06C240.47 198.26 240.76 200.85 241.08 200.91C241.40 200.97 242.27 198.07 242.55 197.45C242.76 196.99 242.69 197.08 242.95 196.81C243.21 196.54 243.85 195.28 244.31 195.68C244.76 196.08 245.72 198.90 245.97 199.46"/><path fill="none" stroke="#004dc0" stroke-width="1.5" stroke-linecap="round" stroke-linejoin="round" d="M229.64 198.77C229.76 198.43 229.81 196.92 230.43 196.50C231.06 196.08 233.30 196.07 233.81 195.99"/><path fill="none" stroke="#004dc0" stroke-width="1.5" stroke-linecap="round" stroke-linejoin="round" d="M231.73 193.91C231.73 193.81 231.73 192.87 231.73 193.28C231.73 194.38 231.73 200.01 231.73 201.20"/><path fill="none" stroke="#004dc0" stroke-width="1.5" stroke-linecap="round" stroke-linejoin="round" d="M225.82 193.21C225.77 194.58 225.45 201.48 225.51 202.33C225.58 203.18 226.07 199.51 226.25 198.86C226.43 198.23 226.39 198.37 226.70 197.99C227.02 197.61 228.02 195.89 228.36 196.32C228.70 196.75 228.86 200.17 228.95 200.85"/><path fill="none" stroke="#004dc0" stroke-width="1.5" stroke-linecap="round" stroke-linejoin="round" d="M270.64 195.64C271.05 195.30 273.05 193.84 273.39 193.36C273.72 192.89 273.01 192.59 272.87 192.47C272.74 192.35 272.69 192.48 272.49 192.57C272.29 192.67 271.77 192.76 271.53 193.12C271.28 193.47 270.94 194.50 270.86 194.95C270.78 195.41 270.82 195.85 270.99 196.15C271.16 196.45 271.38 196.96 271.99 196.96C272.60 196.96 274.11 196.84 275.05 196.17C276.00 195.51 277.80 193.07 278.28 192.52"/><path fill="none" stroke="#004dc0" stroke-width="1.5" stroke-linecap="round" stroke-linejoin="round" d="M267.51 186.61C267.46 187.16 267.07 189.08 267.18 190.29C267.28 191.50 268.34 194.38 268.21 194.69C268.07 194.99 266.61 192.71 266.27 192.34C266.10 192.15 266.10 192.15 265.94 192.16C265.77 192.18 265.37 191.97 265.16 192.44C264.94 192.90 264.47 194.52 264.48 195.28C264.50 196.04 264.76 197.06 265.26 197.52C265.77 197.98 267.20 198.36 267.85 198.34C268.50 198.32 269.33 197.52 269.59 197.38"/><path fill="none" stroke="#004dc0" stroke-width="1.5" stroke-linecap="round" stroke-linejoin="round" d="M256.04 194.25C256.14 194.83 256.24 198.15 256.71 198.12C257.18 198.10 258.72 194.75 259.16 194.09C259.38 193.76 259.44 193.74 259.65 193.74C259.85 193.74 260.28 193.51 260.51 194.08C260.75 194.68 261.14 197.18 261.26 197.73"/><path fill="none" stroke="#004dc0" stroke-width="1.5" stroke-linecap="round" stroke-linejoin="round" d="M250.14 194.95C249.85 194.90 248.69 194.40 248.23 194.65C247.76 194.90 247.14 195.95 247.04 196.61C246.93 197.28 247.15 198.87 247.53 199.07C247.91 199.28 249.18 198.21 249.56 197.98C249.94 197.75 249.73 197.83 250.06 197.51C250.43 197.16 251.60 195.56 252.00 195.60C252.40 195.65 252.44 197.42 252.73 197.80C253.03 198.17 253.78 198.03 253.96 198.08"/><path fill="none" stroke="#004dc0" stroke-width="1.5" stroke-linecap="round" stroke-linejoin="round" d="M247.01 208.84C247.01 210.48 246.65 218.83 246.99 219.76C247.33 220.69 248.88 215.84 249.28 215.06C249.47 214.68 249.39 214.66 249.64 214.53C249.90 214.40 250.52 213.93 251.00 214.19C251.47 214.44 252.29 215.84 252.81 216.25C253.34 216.66 254.06 217.08 254.51 216.92C254.95 216.77 255.55 215.79 255.78 215.21C256.00 214.62 256.01 213.39 256.01 213.00C256.01 212.69 256.04 212.67 255.77 212.60C255.50 212.54 254.57 212.39 254.21 212.59C253.85 212.80 253.48 213.19 253.36 213.97C253.25 214.76 253.06 217.06 253.43 217.81C253.80 218.56 255.14 218.87 255.84 218.98C256.55 219.10 257.79 218.63 258.13 218.57"/><path fill="none" stroke="#004dc0" stroke-width="1.5" stroke-linecap="round" stroke-linejoin="round" d="M280.36 184.18C280.27 184.30 279.85 184.31 279.77 184.96C279.67 185.81 279.54 188.47 279.68 189.82C279.82 191.17 280.65 193.61 280.69 193.96C280.73 194.31 280.14 192.50 279.97 192.15C279.81 191.80 279.92 191.86 279.59 191.61C279.26 191.36 278.11 190.28 277.75 190.48C277.38 190.68 277.08 192.32 277.13 192.94C277.19 193.57 277.70 194.35 278.08 194.65C278.46 194.96 279.43 194.90 279.67 194.95"/><path fill="none" stroke="#004dc0" stroke-width="1.5" stroke-linecap="round" stroke-linejoin="round" d="M238.67 210.23C237.75 211.50 233.58 217.73 232.53 218.67C231.48 219.62 231.66 217.19 231.66 216.55C231.67 215.91 232.37 214.74 232.56 214.43C232.68 214.23 232.75 214.29 232.91 214.46C233.59 215.20 236.12 218.38 237.09 219.31C238.06 220.23 239.03 220.45 239.37 220.66"/><path fill="none" stroke="#004dc0" stroke-width="1.5" stroke-linecap="round" stroke-linejoin="round" d="M261.26 208.15C261.21 209.00 260.82 212.40 260.92 213.81C261.03 215.22 261.80 216.97 261.95 217.53"/><path fill="none" stroke="#004dc0" stroke-width="1.5" stroke-linecap="round" stroke-linejoin="round" d="M264.03 214.06C264.09 214.63 264.33 217.30 264.38 217.88"/><path fill="none" stroke="#004dc0" stroke-width="1.5" stroke-linecap="round" stroke-linejoin="round" d="M270.98 211.62C270.80 211.57 270.07 211.22 269.78 211.25C269.49 211.28 269.32 211.26 269.05 211.81C268.75 212.40 267.83 214.38 267.81 215.22C267.79 216.05 268.45 217.03 268.92 217.38C269.40 217.72 270.67 217.51 270.98 217.53"/><path fill="none" stroke="#004dc0" stroke-width="1.5" stroke-linecap="round" stroke-linejoin="round" d="M281.41 210.58C281.12 210.36 279.92 209.20 279.51 209.09C279.10 208.99 278.67 209.51 278.65 209.91C278.63 210.30 278.81 211.19 279.37 211.73C279.92 212.27 281.80 213.19 282.35 213.52C282.79 213.78 282.72 213.64 283.01 213.90C283.30 214.16 284.21 214.79 284.28 215.23C284.36 215.67 283.61 216.59 283.49 216.84"/><path fill="none" stroke="#004dc0" stroke-width="1.5" stroke-linecap="round" stroke-linejoin="round" d="M274.80 213.71C274.97 213.37 275.82 211.93 275.90 211.46C275.98 211.00 275.54 210.68 275.34 210.59C275.15 210.50 274.76 210.74 274.60 210.85C274.44 210.97 274.37 210.97 274.27 211.36C274.09 212.14 273.34 215.24 273.34 216.10C273.34 216.96 273.73 217.00 274.26 217.11C274.79 217.22 276.49 216.88 276.89 216.84"/><path fill="none" stroke="#004dc0" stroke-width="1.5" stroke-linecap="round" stroke-linejoin="round" d="M264.38 209.54C264.38 209.49 264.38 209.24 264.38 209.19"/><path fill="none" stroke="#d1000d" stroke-width="1.5" stroke-linecap="round" stroke-linejoin="round" d="M133.41 74.05C133.23 73.70 132.56 72.10 132.19 71.75C131.83 71.39 131.41 71.52 130.95 71.68C130.49 71.85 129.56 72.41 129.13 72.86C128.70 73.31 128.24 74.15 128.08 74.70C127.92 75.25 127.70 76.13 128.07 76.55C128.43 76.96 130.06 77.30 130.54 77.48C131.02 77.65 130.82 77.46 131.26 77.72C131.78 78.02 133.98 79.15 133.99 79.49C133.99 79.82 131.72 79.88 131.32 79.95"/><path fill="none" stroke="#d1000d" stroke-width="1.5" stroke-linecap="round" stroke-linejoin="round" d="M137.23 64.67C137.44 66.54 138.41 75.30 138.62 77.17"/><path fill="none" stroke="#d1000d" stroke-width="1.5" stroke-linecap="round" stroke-linejoin="round" d="M135.14 73.01C135.12 72.76 134.23 71.94 135.01 71.36C135.80 70.79 139.55 69.51 140.36 69.18"/><path fill="none" stroke="#d1000d" stroke-width="1.5" stroke-linecap="round" stroke-linejoin="round" d="M119.86 81.00C119.75 81.21 119.17 81.70 119.12 82.44C119.07 83.17 119.59 85.99 119.52 85.87C119.45 85.75 118.87 82.49 118.66 81.62C118.46 80.75 118.41 81.12 118.16 80.06C117.87 78.85 116.87 74.76 116.75 73.58C116.64 72.57 117.08 72.42 117.31 72.16C117.55 71.91 117.94 71.85 118.33 71.86C118.72 71.88 119.58 72.01 119.92 72.27C120.25 72.53 120.45 72.98 120.56 73.58C120.68 74.17 120.82 75.53 120.68 76.24C120.54 76.95 119.84 77.95 119.63 78.32C119.47 78.60 119.45 78.59 119.32 78.69C119.19 78.78 118.43 79.10 118.76 78.93C119.09 78.76 120.83 77.70 121.52 77.56C122.20 77.42 123.10 77.71 123.33 78.01C123.56 78.32 123.39 79.08 123.06 79.60C122.74 80.13 121.55 81.16 121.16 81.52C120.77 81.88 120.86 81.82 120.45 82.01C120.05 82.19 118.77 82.62 118.47 82.73"/><path fill="none" stroke="#1eb511" stroke-width="1.5" stroke-linecap="round" stroke-linejoin="round" d="M353.32 73.35C353.36 74.67 353.37 80.43 353.56 82.11C353.75 83.80 354.16 84.24 354.60 84.60C355.04 84.96 355.63 84.94 356.49 84.53C357.36 84.13 359.67 82.40 360.35 81.90C360.88 81.52 360.80 81.50 361.05 81.21C361.29 80.92 361.86 80.14 362.01 79.95"/><path fill="none" stroke="#d1000d" stroke-width="1.5" stroke-linecap="round" stroke-linejoin="round" d="M149.04 66.75C148.80 66.93 147.83 67.48 147.45 67.96C147.07 68.44 146.70 69.22 146.53 69.94C146.36 70.65 146.23 72.32 146.33 72.75C146.42 73.18 146.98 72.86 147.18 72.82C147.38 72.77 147.40 72.76 147.66 72.45C148.01 72.04 149.03 71.02 149.50 70.07C149.97 69.12 150.46 66.31 150.80 66.11C151.14 65.91 151.41 68.22 151.75 68.73C152.09 69.25 152.82 69.48 153.06 69.56C153.31 69.65 153.31 69.57 153.39 69.30C153.62 68.53 154.42 64.49 154.60 64.41C154.78 64.34 154.60 68.16 154.60 68.83C154.60 68.86 154.59 68.91 154.60 68.88C154.78 68.17 155.43 65.11 155.79 64.09C156.14 63.08 156.68 62.37 156.98 62.09C157.27 61.81 157.52 61.74 157.76 62.22C158.11 62.92 159.03 66.08 159.29 66.77C159.35 66.90 159.49 66.78 159.51 66.78C159.54 66.78 159.47 66.76 159.46 66.75"/><path fill="none" stroke="#d1000d" stroke-width="1.5" stroke-linecap="round" stroke-linejoin="round" d="M163.28 55.29C163.55 56.39 164.98 61.73 165.07 62.65C165.16 63.57 164.13 61.67 163.88 61.43C163.64 61.20 163.73 61.21 163.42 61.07C163.10 60.93 162.13 60.36 161.80 60.53C161.46 60.70 161.17 61.72 161.19 62.21C161.20 62.71 161.57 63.54 161.89 63.86C162.21 64.17 162.61 64.37 163.32 64.32C164.03 64.28 165.64 64.09 166.61 63.54C167.58 63.00 169.23 61.26 169.79 60.70C170.29 60.18 170.23 60.38 170.33 59.76C170.42 59.13 170.66 57.09 170.41 56.53C170.17 55.97 169.04 55.93 168.69 56.01C168.34 56.10 168.13 56.65 168.08 57.11C168.02 57.57 167.89 58.36 168.33 59.09C168.77 59.82 170.57 61.47 171.02 61.96C171.27 62.23 171.34 62.12 171.37 62.40C171.40 62.67 171.56 63.47 171.24 63.81C170.91 64.15 169.50 64.54 169.19 64.67"/><path fill="none" stroke="#d1000d" stroke-width="1.5" stroke-linecap="round" stroke-linejoin="round" d="M141.75 70.57C141.85 71.20 142.34 74.51 142.44 74.72C142.54 74.92 142.21 72.89 142.44 71.95C142.67 71.01 143.67 69.08 143.95 68.48C144.14 68.08 144.24 68.04 144.33 67.94C144.41 67.84 144.50 67.82 144.52 67.79"/><path fill="none" stroke="#1eb511" stroke-width="1.5" stroke-linecap="round" stroke-linejoin="round" d="M365.48 76.13C365.63 75.82 365.64 75.07 366.47 74.03C367.31 72.99 370.35 69.91 371.04 69.18"/><path fill="none" stroke="#1eb511" stroke-width="1.5" stroke-linecap="round" stroke-linejoin="round" d="M369.65 63.28C369.50 63.36 368.91 63.46 368.64 63.83C368.37 64.20 367.81 64.36 367.85 65.74C367.89 67.73 368.87 75.22 368.96 77.09C369.00 77.91 368.56 78.03 368.43 78.20C368.29 78.38 368.19 78.24 368.06 78.24C367.93 78.24 367.64 78.22 367.56 78.22"/><path fill="none" stroke="#1eb511" stroke-width="1.5" stroke-linecap="round" stroke-linejoin="round" d="M370.69 71.27C370.86 70.96 370.72 69.96 371.82 69.18C372.91 68.40 377.06 66.53 377.99 66.06"/><path fill="none" stroke="#1eb511" stroke-width="1.5" stroke-linecap="round" stroke-linejoin="round" d="M372.78 63.28C372.68 63.64 371.92 64.03 372.12 65.69C372.33 67.46 373.86 73.68 374.17 75.09"/><path fill="none" stroke="#1eb511" stroke-width="1.5" stroke-linecap="round" stroke-linejoin="round" d="M362.01 77.52C361.89 77.61 361.02 78.29 361.21 78.10C361.40 77.91 362.87 77.05 363.27 76.27C363.66 75.50 363.81 73.46 363.86 72.95C363.88 72.79 363.71 72.79 363.62 72.92C363.26 73.43 361.79 75.21 361.48 76.32C361.17 77.43 361.24 79.55 361.55 80.33C361.86 81.11 362.73 81.69 363.53 81.53C364.32 81.37 366.37 79.60 366.87 79.26"/><path fill="none" stroke="#1eb511" stroke-width="1.5" stroke-linecap="round" stroke-linejoin="round" d="M372.43 90.38C372.22 90.19 371.43 89.25 371.03 89.14C370.63 89.03 370.03 88.76 369.76 89.63C369.48 90.51 369.09 94.29 369.16 95.05C369.22 95.78 369.94 94.95 370.20 94.68C370.45 94.41 370.71 93.58 370.85 93.26C370.99 92.94 370.98 92.99 371.11 92.55C371.24 92.10 371.52 90.14 371.72 90.28C371.91 90.43 372.32 93.02 372.43 93.50"/><path fill="none" stroke="#1eb511" stroke-width="1.5" stroke-linecap="round" stroke-linejoin="round" d="M362.01 91.77C361.95 91.54 361.40 89.36 361.62 90.27C361.85 91.17 363.15 96.83 363.51 97.79C363.80 98.56 363.88 96.93 363.99 96.65C364.10 96.38 364.01 96.38 364.27 95.94C364.68 95.25 366.24 92.23 366.73 92.03C367.23 91.82 367.44 94.17 367.56 94.55"/><path fill="none" stroke="#1eb511" stroke-width="1.5" stroke-linecap="round" stroke-linejoin="round" d="M374.86 86.90C374.86 86.78 374.79 85.50 374.86 86.06C374.96 86.85 375.39 91.50 375.53 92.20C375.67 92.90 375.72 91.07 375.78 90.72C375.84 90.38 375.82 90.45 375.95 89.91C376.11 89.31 376.48 87.41 376.80 86.73C377.13 86.06 377.64 84.85 378.13 85.40C378.62 85.94 379.78 89.63 380.07 90.38"/><path fill="none" stroke="#1eb511" stroke-width="1.5" stroke-linecap="round" stroke-linejoin="round" d="M383.55 79.26C383.92 80.21 385.90 84.80 386.01 85.57C386.12 86.34 384.59 84.62 384.26 84.40C383.95 84.20 384.00 84.21 383.79 84.11C383.59 84.01 383.11 83.61 382.90 83.73C382.70 83.85 382.43 84.51 382.41 84.91C382.40 85.31 382.56 86.08 382.79 86.39C383.02 86.69 383.52 86.86 383.94 86.92C384.35 86.98 384.77 87.11 385.55 86.76C386.34 86.41 388.58 84.99 389.18 84.59C389.50 84.38 389.42 84.52 389.56 84.16C389.76 83.64 390.50 81.75 390.52 81.13C390.53 80.52 389.90 79.92 389.65 80.06C389.39 80.21 388.92 81.61 388.82 82.11C388.72 82.61 388.82 83.10 388.97 83.41C389.13 83.72 389.63 84.06 389.87 84.18C390.10 84.31 390.12 84.39 390.55 84.23C391.10 84.04 392.83 83.51 393.53 82.89C394.23 82.27 394.81 81.44 395.22 80.09C395.63 78.73 396.13 75.64 396.26 73.85C396.40 72.06 396.11 67.84 396.13 68.16C396.15 68.48 396.31 74.70 396.38 75.99C396.41 76.53 396.50 76.48 396.61 76.77C396.71 77.06 397.32 77.81 397.07 77.92C396.81 78.02 395.42 77.22 394.91 77.46C394.40 77.70 393.73 78.92 393.69 79.53C393.64 80.14 394.09 81.15 394.60 81.53C395.11 81.92 396.62 82.02 397.09 82.08C397.51 82.14 397.56 82.02 397.72 81.96C397.88 81.90 398.07 81.73 398.14 81.69"/><path fill="none" stroke="#1eb511" stroke-width="1.5" stroke-linecap="round" stroke-linejoin="round" d="M366.87 106.01C366.68 106.17 366.16 106.13 365.62 107.09C364.95 108.26 363.06 112.73 362.43 113.83C362.04 114.50 361.77 114.38 361.42 114.41C361.06 114.44 360.31 114.14 360.09 114.03C359.86 113.91 359.90 113.92 359.91 113.63C359.92 113.30 359.89 112.27 360.16 111.81C360.43 111.35 360.46 110.30 361.72 110.58C362.99 110.86 367.57 113.19 368.61 113.65"/><path fill="none" stroke="#1eb511" stroke-width="1.5" stroke-linecap="round" stroke-linejoin="round" d="M397.79 93.85C397.84 93.79 398.19 93.34 398.12 93.45C398.06 93.56 397.50 94.00 397.35 94.61C397.19 95.22 396.97 96.63 397.07 97.53C397.17 98.43 397.80 100.12 398.01 100.62C398.15 100.95 398.18 101.01 398.49 100.85C398.94 100.61 400.24 100.02 400.98 99.06C401.72 98.10 403.06 95.68 403.43 94.44C403.80 93.19 403.70 91.40 403.42 90.74C403.13 90.08 401.86 90.10 401.51 90.02C401.22 89.95 401.22 89.92 401.09 90.20C400.89 90.65 400.14 92.16 400.17 93.08C400.21 94.00 400.78 95.77 401.33 96.33C401.89 96.89 403.15 96.95 403.87 96.84C404.58 96.73 405.79 95.78 406.13 95.59"/><path fill="none" stroke="#1eb511" stroke-width="1.5" stroke-linecap="round" stroke-linejoin="round" d="M408.21 88.64C407.77 88.37 405.68 86.48 405.30 86.81C404.92 87.14 405.00 89.60 405.69 90.84C406.38 92.08 409.25 94.39 409.90 95.08C410.08 95.28 410.22 95.29 410.02 95.47C409.77 95.70 408.48 96.46 408.21 96.63"/><path fill="none" stroke="#1eb511" stroke-width="1.5" stroke-linecap="round" stroke-linejoin="round" d="M388.41 94.20C388.52 94.75 388.67 96.64 389.13 97.87C389.59 99.10 390.94 101.56 391.49 102.41C392.03 103.26 392.50 103.60 392.77 103.52C393.05 103.44 393.20 102.21 393.30 101.89C393.39 101.57 393.28 101.68 393.40 101.40C393.52 101.12 393.91 99.96 394.10 100.03C394.30 100.11 394.65 101.93 394.69 101.90C394.73 101.87 394.45 100.27 394.37 99.83C394.29 99.39 394.31 99.53 394.15 98.95C393.93 98.18 393.01 95.39 392.93 94.73C392.87 94.26 393.52 94.57 393.62 94.55"/><path fill="none" stroke="#1eb511" stroke-width="1.5" stroke-linecap="round" stroke-linejoin="round" d="M376.25 100.80C376.14 100.70 375.39 99.47 375.50 100.13C375.73 101.43 377.23 108.48 377.73 109.46C378.23 110.45 378.63 107.20 378.85 106.71C379.01 106.34 378.82 106.39 379.18 106.20C379.91 105.81 383.05 104.63 383.77 104.11C384.49 103.58 384.15 102.99 383.98 102.70C383.82 102.41 382.90 102.21 382.66 102.17C382.43 102.13 382.44 102.20 382.42 102.45C382.39 102.91 382.11 104.58 382.43 105.27C382.76 105.95 383.90 107.00 384.59 107.01C385.28 107.03 386.46 105.97 387.03 105.35C387.60 104.73 388.20 103.25 388.41 102.88"/><path fill="none" stroke="#d1000d" stroke-width="1.5" stroke-linecap="round" stroke-linejoin="round" d="M52.11 176.54C52.01 176.43 50.84 176.15 51.42 175.84C52.74 175.13 58.16 173.18 60.91 171.77C63.67 170.36 68.47 167.23 69.80 166.42C69.81 166.42 69.81 166.42 69.82 166.42C69.88 166.48 70.12 166.75 70.18 166.81"/><path fill="none" stroke="#d1000d" stroke-width="1.5" stroke-linecap="round" stroke-linejoin="round" d="M84.07 154.65C83.08 155.45 78.36 158.86 77.44 160.03C76.52 161.19 77.26 161.61 77.92 162.40C78.58 163.19 80.68 164.98 81.84 165.28C82.99 165.59 84.66 165.09 85.60 164.43C86.54 163.77 87.65 162.13 88.10 160.87C88.55 159.60 88.70 157.23 88.59 156.00C88.48 154.77 87.72 153.36 87.39 152.67C87.05 151.98 86.74 151.76 86.38 151.39C86.02 151.01 85.67 150.44 84.98 150.15C84.28 149.87 82.72 149.35 81.75 149.47C80.78 149.59 79.33 150.23 78.54 150.94C77.75 151.65 76.91 152.81 76.49 154.17C76.06 155.53 75.63 158.68 75.68 160.01C75.73 161.33 76.25 162.34 76.81 162.98C77.38 163.62 78.34 164.17 79.47 164.27C80.60 164.37 83.25 164.02 84.35 163.64C85.44 163.27 86.27 162.22 86.76 161.77C87.25 161.31 87.30 161.42 87.63 160.61C87.96 159.79 88.85 157.43 88.97 156.36C89.09 155.29 88.81 154.29 88.43 153.49C88.04 152.68 87.37 151.55 86.41 151.01C85.45 150.48 83.12 149.87 82.05 149.94C80.98 150.00 80.12 150.49 79.26 151.44C78.40 152.39 76.81 155.00 76.33 156.29C75.85 157.58 75.92 159.01 76.06 160.03C76.21 161.04 76.98 162.46 77.32 163.05C77.65 163.64 77.75 163.73 78.31 163.99C78.86 164.24 80.02 164.93 81.04 164.76C82.05 164.59 84.13 163.75 85.06 162.86C86.00 161.96 86.92 159.85 87.29 158.77C87.65 157.69 87.66 156.58 87.49 155.63C87.33 154.68 87.03 153.39 86.16 152.42C85.30 151.45 82.78 149.60 81.71 149.18C80.64 148.76 79.70 149.17 79.03 149.61C78.35 150.05 77.55 151.48 77.20 152.09C76.85 152.71 76.80 152.87 76.68 153.71C76.56 154.54 76.30 156.55 76.39 157.67C76.49 158.79 76.86 160.32 77.31 161.15C77.75 161.99 78.69 162.86 79.36 163.23C80.03 163.60 81.02 163.94 81.79 163.63C82.57 163.32 83.90 162.18 84.51 161.15C85.11 160.13 85.75 158.05 85.82 156.79C85.90 155.53 85.41 153.56 85.01 152.74C84.62 151.91 83.60 151.50 83.18 151.28C82.76 151.06 82.66 151.05 82.23 151.25C81.79 151.45 80.75 151.96 80.26 152.62C79.78 153.27 79.25 154.45 78.99 155.60C78.74 156.75 78.48 159.31 78.55 160.27C78.63 161.22 79.02 161.68 79.49 161.98C79.97 162.27 81.17 162.34 81.75 162.22C82.33 162.10 82.95 161.60 83.37 161.18C83.78 160.76 84.29 160.21 84.50 159.41C84.71 158.62 84.79 156.55 84.78 155.88C84.76 155.21 84.85 155.32 84.41 154.93C83.96 154.53 82.44 153.38 81.81 153.26C81.18 153.13 80.61 153.50 80.21 154.09C79.81 154.67 79.27 156.39 79.16 157.15C79.04 157.92 79.24 158.71 79.45 159.19C79.66 159.67 80.04 160.16 80.53 160.32C81.02 160.48 82.14 160.73 82.72 160.26C83.31 159.78 84.15 157.73 84.43 157.17C84.64 156.75 84.63 156.80 84.59 156.49C84.55 156.18 84.54 155.20 84.18 155.10C83.82 154.99 82.69 155.30 82.18 155.76C81.66 156.23 80.98 157.55 80.73 158.21C80.48 158.87 80.24 160.24 80.51 160.17C80.78 160.11 82.19 158.22 82.51 157.77C82.74 157.45 82.72 157.53 82.67 157.20C82.62 156.87 82.46 155.76 82.18 155.57C81.89 155.38 81.03 155.52 80.76 155.93C80.48 156.33 80.15 157.94 80.34 158.27C80.54 158.61 81.76 158.23 82.08 158.16C82.40 158.10 82.29 158.13 82.48 157.85C82.68 157.55 83.36 156.56 83.40 156.18C83.45 155.79 83.23 155.30 82.78 155.31C82.32 155.33 80.96 155.85 80.37 156.28C79.78 156.71 79.04 157.91 78.84 158.18C78.75 158.30 78.92 158.18 79.05 158.09C79.36 157.88 80.66 156.94 80.95 156.73"/><path fill="none" stroke="#d1000d" stroke-width="1.5" stroke-linecap="round" stroke-linejoin="round" d="M28.84 184.87C27.86 184.59 23.60 183.12 22.34 182.98C21.08 182.83 20.93 183.47 20.44 183.88C19.96 184.29 19.42 185.04 19.08 185.72C18.75 186.39 18.33 187.30 18.20 188.37C18.06 189.44 18.07 191.80 18.20 192.85C18.33 193.90 18.55 194.69 19.06 195.39C19.58 196.08 21.07 197.14 21.61 197.51C22.16 197.88 21.93 197.82 22.68 197.86C23.46 197.89 25.63 198.14 26.87 197.76C28.11 197.37 30.31 195.66 30.92 195.30"/><path fill="none" stroke="#d1000d" stroke-width="1.5" stroke-linecap="round" stroke-linejoin="round" d="M40.65 182.79C40.50 183.93 40.15 189.09 39.69 190.39C39.23 191.69 38.11 191.49 37.60 191.44C37.09 191.39 36.52 190.41 36.28 190.08C36.05 189.76 36.08 189.84 36.02 189.27C35.96 188.55 35.71 186.05 35.84 185.32C35.97 184.60 36.07 184.04 36.91 184.43C38.03 184.95 41.83 188.05 43.32 188.80C44.82 189.54 46.36 189.30 46.90 189.39C46.90 189.39 46.90 189.39 46.90 189.39"/><path fill="none" stroke="#d1000d" stroke-width="1.5" stroke-linecap="round" stroke-linejoin="round" d="M100.75 162.29C101.01 162.94 101.82 165.53 102.46 166.63C103.09 167.73 104.66 169.22 105.00 169.63C105.18 169.85 104.93 169.48 104.68 169.32C104.22 169.01 102.48 167.41 101.93 167.56C101.38 167.72 101.02 169.58 101.05 170.34C101.08 171.09 101.59 172.32 102.15 172.58C102.72 172.85 104.32 172.27 104.83 172.10C105.34 171.93 105.15 171.97 105.56 171.48C106.11 170.81 107.93 168.55 108.49 167.63C109.06 166.71 109.20 166.00 109.33 165.33C109.47 164.67 109.65 163.67 109.39 163.21C109.14 162.74 107.96 162.37 107.63 162.25C107.33 162.14 107.39 162.18 107.19 162.42C106.96 162.69 106.30 163.53 106.11 164.07C105.92 164.60 105.79 165.34 105.92 165.99C106.04 166.64 106.30 167.98 106.94 168.38C107.59 168.78 109.42 168.79 110.21 168.66C111.00 168.53 111.91 167.68 112.21 167.50"/><path fill="none" stroke="#d1000d" stroke-width="1.5" stroke-linecap="round" stroke-linejoin="round" d="M89.98 172.37C89.52 172.61 87.48 173.58 86.92 174.01C86.35 174.45 86.25 174.94 86.23 175.29C86.21 175.65 85.99 176.14 86.76 176.37C87.84 176.70 92.35 177.27 93.42 177.46C93.74 177.52 93.78 177.44 93.87 177.66C93.97 177.87 94.39 178.47 94.07 178.88C93.75 179.28 92.07 180.13 91.72 180.36"/><path fill="none" stroke="#d1000d" stroke-width="1.5" stroke-linecap="round" stroke-linejoin="round" d="M96.58 170.63C96.36 170.42 95.24 169.40 95.13 169.24C95.03 169.09 95.77 169.54 95.89 169.59"/><path fill="none" stroke="#d1000d" stroke-width="1.5" stroke-linecap="round" stroke-linejoin="round" d="M96.93 172.71C97.08 172.75 97.56 172.61 97.92 172.98C98.29 173.34 99.15 174.82 99.36 175.15"/><path fill="none" stroke="#d1000d" stroke-width="1.5" stroke-linecap="round" stroke-linejoin="round" d="M116.04 153.61C115.79 153.61 114.85 153.42 114.39 153.65C113.93 153.87 113.25 153.95 112.98 155.11C112.72 156.27 112.50 160.18 112.59 161.38C112.68 162.58 113.18 162.76 113.58 163.10C113.98 163.45 114.75 163.72 115.27 163.66C115.79 163.60 116.55 163.26 117.03 162.71C117.52 162.16 118.21 160.61 118.50 159.99C118.80 159.36 118.86 159.35 119.01 158.55C119.16 157.75 119.43 155.23 119.51 154.65"/><path fill="none" stroke="#d1000d" stroke-width="1.5" stroke-linecap="round" stroke-linejoin="round" d="M136.53 140.06C136.84 141.22 138.01 148.00 138.56 147.80C139.10 147.61 139.85 140.14 140.16 138.75C140.23 138.44 140.30 138.44 140.59 138.56C141.46 138.91 145.12 140.72 145.91 141.10"/><path fill="none" stroke="#d1000d" stroke-width="1.5" stroke-linecap="round" stroke-linejoin="round" d="M134.80 144.57C134.77 145.20 134.49 147.93 134.63 148.74C134.77 149.55 135.56 149.92 135.74 149.98C135.92 150.03 135.82 149.22 135.84 149.09"/><path fill="none" stroke="#d1000d" stroke-width="1.5" stroke-linecap="round" stroke-linejoin="round" d="M131.32 138.67C131.27 138.56 131.03 138.08 130.98 137.97"/><path fill="none" stroke="#d1000d" stroke-width="1.5" stroke-linecap="round" stroke-linejoin="round" d="M117.43 148.39C117.22 148.40 116.18 148.12 116.05 148.44C115.91 148.76 115.98 149.21 116.53 150.53C117.21 152.17 119.98 158.24 120.63 159.43C120.96 160.03 120.84 158.72 120.91 158.45C120.98 158.17 120.90 158.14 121.12 157.60C121.53 156.62 122.89 152.40 123.62 151.90C124.34 151.40 125.47 153.90 125.95 154.26C126.41 154.60 126.68 154.29 126.81 154.30"/><path fill="none" stroke="#d1000d" stroke-width="1.5" stroke-linecap="round" stroke-linejoin="round" d="M127.50 149.78C127.50 149.58 127.65 148.81 127.50 148.39C127.35 147.98 126.68 146.17 126.51 147.01C126.34 147.86 126.22 152.83 126.35 154.02C126.46 154.96 127.05 155.02 127.41 154.95C127.78 154.88 128.52 153.90 128.78 153.56C129.03 153.22 128.99 153.30 129.11 152.68C129.28 151.77 129.56 147.88 129.93 147.48C130.30 147.07 130.93 149.70 131.55 149.99C132.18 150.29 133.72 149.52 134.10 149.44"/>
</svg>