<?xml version="1.0" encoding="UTF-8"?>
<!DOCTYPE svg PUBLIC "-//W3C//DTD SVG 1.1//EN" "http://www.w3.org/Graphics/SVG/1.1/DTD/svg11.dtd">
<svg  xmlns="http://www.w3.org/2000/svg" xmlns:xlink="http://www.w3.org/1999/xlink" viewport-fill="none" viewBox="0.0, 0.0, 867.9877126411689, 240.30080511320233" version="1.1" height="240.30080511320233" width="867.9877126411689">
<path fill="none" stroke="#ff9399" stroke-opacity="0.5" stroke-width="13.0" stroke-linecap="round" stroke-linejoin="round" d="M117.05 190.20C116.74 190.11 113.69 189.64 114.99 189.58C116.29 189.52 118.57 190.15 125.72 189.83C134.31 189.45 158.65 187.32 172.23 187.05C185.81 186.77 208.91 187.77 216.26 187.99C219.60 188.10 218.28 188.08 221.25 188.52C224.22 188.96 231.91 190.48 236.08 190.94C240.26 191.40 242.34 191.60 249.08 191.57C255.82 191.53 274.18 190.99 280.99 190.70C287.80 190.40 297.34 189.70 294.49 189.58C291.63 189.47 268.55 189.91 261.94 189.92C255.34 189.93 258.11 189.83 250.45 189.64C234.51 189.24 172.72 187.43 155.64 187.27C142.93 187.14 141.09 187.77 136.61 188.54C132.13 189.30 127.72 191.67 125.80 192.38C124.43 192.89 124.30 193.07 123.81 193.28C123.31 193.50 122.72 193.61 122.49 193.82C122.27 194.02 121.85 194.31 122.30 194.66C122.78 195.02 124.43 195.89 125.66 196.27C126.88 196.64 127.22 196.96 130.49 197.16C134.11 197.39 136.93 198.42 149.78 197.80C176.40 196.50 282.44 189.94 307.98 188.52C316.04 188.08 314.93 188.24 320.08 188.35C325.23 188.46 332.26 188.47 342.31 189.23C352.36 189.99 376.53 192.73 387.07 193.44C397.61 194.16 403.67 193.97 412.56 193.97C421.46 193.97 438.32 193.73 446.38 193.44C454.43 193.16 461.26 192.60 466.27 192.04C471.29 191.48 478.03 190.08 479.79 189.72C480.93 189.48 479.21 189.65 478.04 189.63C470.35 189.52 457.13 189.00 428.53 188.98C399.92 188.95 314.37 189.20 287.34 189.48C261.32 189.75 256.09 190.52 248.34 190.85C240.59 191.19 241.96 191.37 235.69 191.73C229.42 192.10 212.94 193.08 206.52 193.27C200.10 193.47 195.32 193.21 192.92 193.04C191.19 192.91 190.66 192.51 190.50 192.09C190.34 191.68 190.47 190.90 191.84 190.26C193.59 189.45 197.18 187.87 202.16 186.70C207.14 185.53 216.81 183.46 225.03 182.45C233.25 181.44 243.97 180.63 256.96 179.98C269.95 179.32 300.78 178.43 311.64 178.08C322.50 177.74 321.90 177.75 329.35 177.71C336.81 177.67 343.80 177.35 361.32 177.81C378.84 178.27 429.84 180.09 446.17 180.79C462.22 181.47 462.05 181.69 470.21 182.45C478.37 183.20 492.65 185.21 500.59 185.84C508.54 186.47 518.74 186.52 523.20 186.64C527.66 186.76 525.58 186.75 530.33 186.65C535.32 186.54 548.59 186.28 556.44 185.92C564.28 185.55 579.96 184.50 582.62 184.23C585.29 183.96 576.83 184.16 574.19 184.11C571.55 184.06 571.13 183.82 565.01 183.89C556.70 183.97 535.41 183.75 518.79 184.68C502.18 185.61 470.96 188.95 454.24 190.07C437.52 191.18 426.10 191.80 407.32 192.09C388.55 192.39 349.05 191.83 329.09 192.02C309.13 192.20 284.12 193.15 274.24 193.33C266.91 193.46 268.58 193.22 263.24 193.19C257.91 193.16 244.47 193.27 238.67 193.13C232.88 193.00 230.85 191.89 224.63 192.31C218.40 192.72 202.13 195.36 197.15 195.91C193.35 196.33 192.33 196.01 191.41 195.96C191.05 195.94 191.13 195.72 191.02 195.58C190.91 195.43 190.24 194.99 190.69 194.99C193.83 194.99 204.35 195.56 211.97 195.61C219.59 195.67 221.82 196.03 241.48 195.36C265.17 194.54 344.02 191.07 369.90 190.20C395.78 189.32 405.39 189.59 413.99 189.50C422.59 189.40 418.51 189.41 427.23 189.54C435.95 189.67 458.42 189.87 472.10 190.38C485.79 190.88 501.96 192.39 518.48 192.93C535.00 193.47 571.49 193.78 582.24 193.97C587.55 194.07 584.89 194.17 590.20 194.19C603.50 194.26 651.83 194.47 670.91 194.40C689.99 194.32 703.81 193.71 717.40 193.69C730.98 193.68 753.37 194.17 761.46 194.30C768.03 194.40 764.75 194.47 771.32 194.51C778.07 194.56 795.12 194.96 806.43 194.58C817.75 194.20 842.74 192.77 846.75 191.97C850.76 191.17 837.83 189.93 833.18 189.26C828.53 188.59 820.27 187.90 815.75 187.49C811.23 187.08 809.23 186.87 803.03 186.51C796.83 186.15 786.11 185.37 774.42 185.08C762.73 184.79 738.65 184.86 725.10 184.58C711.54 184.31 697.54 183.16 684.04 183.26C670.54 183.35 648.44 184.80 635.10 185.19C621.75 185.59 602.68 185.78 595.08 185.88C587.98 185.98 589.86 186.00 584.43 185.89C578.99 185.79 565.60 185.50 558.84 185.16C552.08 184.83 532.58 184.37 539.36 183.68C546.14 182.98 591.23 181.10 604.03 180.54C616.84 179.98 610.93 180.38 624.73 179.93C643.71 179.31 704.62 176.94 730.56 176.43C756.50 175.91 785.38 176.37 797.66 176.49C807.52 176.58 809.48 177.01 812.43 177.19C815.39 177.37 814.09 177.18 817.35 177.68C820.77 178.21 831.89 179.42 835.23 180.69C838.57 181.96 839.11 185.32 839.60 186.13C839.98 186.75 839.24 186.14 838.51 186.08C837.20 185.99 832.21 185.69 830.89 185.48C829.97 185.34 828.84 185.07 829.71 184.72C830.58 184.38 833.35 183.51 836.69 183.16C840.03 182.81 849.25 182.34 851.99 182.40C854.12 182.44 854.81 183.07 854.97 183.53C855.14 183.99 853.77 184.98 853.10 185.46C852.44 185.94 852.34 186.10 850.53 186.73C847.55 187.77 838.57 191.07 833.20 192.40C827.82 193.72 817.47 195.10 814.70 195.58"/><path fill="none" stroke="#ff9399" stroke-opacity="0.5" stroke-width="13.0" stroke-linecap="round" stroke-linejoin="round" d="M54.93 218.87C54.34 218.70 48.29 217.77 51.02 217.70C62.73 217.39 117.40 217.06 133.05 216.77C147.93 216.51 153.20 216.18 155.35 215.82C157.51 215.45 150.31 214.61 147.42 214.34C144.53 214.07 139.01 214.08 136.11 214.03C133.20 213.99 133.22 214.05 128.03 214.05C122.83 214.05 108.57 214.18 101.50 214.04C94.43 213.90 86.15 213.15 80.88 213.11C75.61 213.06 72.91 213.03 66.35 213.72C59.80 214.41 41.85 216.99 37.15 217.70C35.66 217.92 35.30 218.10 35.01 218.45C34.72 218.80 35.14 219.61 35.22 220.04C35.30 220.47 35.22 220.66 35.53 221.33C35.84 222.00 36.59 223.80 37.28 224.49C37.97 225.17 38.04 225.55 40.14 225.89C42.71 226.31 48.57 227.16 54.41 227.27C60.26 227.38 69.42 227.19 79.10 226.65C88.78 226.11 110.18 223.85 118.93 223.67C127.68 223.49 134.35 225.23 137.44 225.46C138.86 225.57 138.25 225.65 139.57 225.22C140.88 224.79 143.86 223.15 146.19 222.57C148.52 221.98 157.27 221.86 155.08 221.32C152.88 220.79 136.55 219.37 131.55 219.01C126.56 218.64 127.60 218.75 121.79 218.89C115.99 219.03 103.08 219.33 92.86 219.93C82.64 220.54 61.93 222.55 53.67 222.93C45.41 223.30 40.43 222.46 37.79 222.45C36.58 222.45 36.59 222.73 36.04 222.91C35.48 223.09 34.86 223.00 34.11 223.65C33.36 224.30 31.50 226.70 31.04 227.23"/><path fill="none" stroke="#79eb70" stroke-opacity="0.5" stroke-width="13.0" stroke-linecap="round" stroke-linejoin="round" d="M323.72 186.02C324.57 185.76 326.48 184.02 329.39 184.32C332.30 184.61 338.09 186.81 343.12 187.96C348.15 189.11 358.10 191.23 362.93 192.00C367.77 192.76 367.05 193.01 375.37 193.06C389.22 193.13 443.63 192.64 455.28 192.46C456.83 192.44 453.86 192.07 453.02 191.91C452.18 191.75 451.92 191.59 449.67 191.39C437.82 190.31 391.23 185.74 374.03 184.73C356.83 183.71 340.92 184.68 335.01 184.64C334.70 184.63 334.91 184.45 334.61 184.42C334.07 184.36 331.49 184.16 331.40 184.27C331.31 184.38 332.55 184.97 334.00 185.17C335.45 185.37 336.35 185.68 341.06 185.59C353.02 185.38 391.95 183.76 413.78 183.73C435.62 183.71 470.56 185.17 486.61 185.43C502.66 185.69 514.51 185.47 520.81 185.49C525.98 185.52 523.39 185.53 528.57 185.61C533.97 185.70 544.19 186.54 556.80 186.08C569.41 185.62 603.69 183.06 612.62 182.56C615.09 182.42 615.49 182.62 616.32 182.73C617.16 182.83 617.88 183.07 618.20 183.26C618.52 183.45 618.54 183.78 618.44 183.99C618.34 184.21 618.27 184.49 617.54 184.70C616.76 184.92 616.17 185.44 613.29 185.46C596.33 185.58 534.34 185.07 504.44 185.52C474.55 185.96 431.63 188.32 413.97 188.42C396.30 188.52 391.17 186.58 386.67 186.19C384.85 186.04 385.78 185.89 383.95 185.84C379.67 185.72 363.58 185.31 358.13 185.37C352.68 185.43 352.34 185.44 347.61 186.23C342.88 187.01 330.47 189.69 326.62 190.59C323.43 191.33 322.70 191.79 321.97 192.17C321.38 192.47 321.20 192.74 321.73 193.12C322.42 193.63 323.19 194.82 326.54 195.52C329.89 196.22 339.28 197.33 344.06 197.78C348.83 198.22 350.60 198.42 358.38 198.51C366.16 198.60 380.62 198.65 395.94 198.36C411.26 198.07 447.86 196.83 460.50 196.57C473.15 196.30 468.31 196.29 480.24 196.60C492.18 196.91 521.75 198.54 540.06 198.65C558.37 198.76 591.93 197.61 602.34 197.35C607.09 197.22 604.70 197.09 609.45 196.86C614.48 196.61 633.49 197.29 635.87 195.69C638.26 194.08 627.45 187.76 625.33 186.13C623.31 184.57 622.66 185.06 621.75 184.79C620.84 184.52 620.95 184.38 619.26 184.31C604.54 183.69 539.11 181.19 523.57 180.63C518.32 180.44 520.73 180.55 515.69 180.55C510.66 180.55 495.52 180.54 490.02 180.64C484.51 180.75 482.73 180.88 479.01 181.24C475.30 181.60 467.34 182.77 465.28 183.03"/>
</svg>