<?xml version="1.0" encoding="UTF-8"?>
<!DOCTYPE svg PUBLIC "-//W3C//DTD SVG 1.1//EN" "http://www.w3.org/Graphics/SVG/1.1/DTD/svg11.dtd">
<svg  xmlns="http://www.w3.org/2000/svg" xmlns:xlink="http://www.w3.org/1999/xlink" viewport-fill="none" viewBox="0.0, 0.0, 490.85812172509316, 60.97526863400654" version="1.1" height="60.97526863400654" width="490.85812172509316">
<path fill="none" stroke="#d1000d" stroke-width="1.5" stroke-linecap="round" stroke-linejoin="round" d="M297.39 17.39C298.02 17.28 298.76 16.59 301.63 16.64C305.20 16.69 317.99 17.58 321.24 17.75C322.63 17.82 321.94 17.74 323.33 17.77C328.13 17.88 348.56 18.37 353.27 18.49C354.27 18.51 353.77 18.56 354.77 18.57C360.20 18.65 384.02 18.92 389.49 18.99C390.68 19.01 390.08 19.03 391.27 19.08C393.12 19.16 396.29 19.61 401.85 19.51C407.42 19.42 424.05 18.59 428.35 18.43C429.81 18.37 429.08 18.41 430.54 18.41C436.21 18.42 460.59 18.46 466.16 18.46C467.18 18.46 466.67 18.52 467.69 18.45C469.78 18.29 478.26 17.55 480.13 17.39"/><path fill="none" stroke="#d1000d" stroke-width="1.5" stroke-linecap="round" stroke-linejoin="round" d="M27.45 49.36C27.24 49.41 25.10 49.65 26.06 49.70C28.69 49.86 39.11 50.38 45.02 50.39C50.94 50.41 60.75 49.68 65.48 49.81C70.22 49.95 74.66 51.02 76.60 51.29C77.80 51.46 77.18 51.52 78.39 51.62C81.00 51.85 88.12 52.61 93.99 52.79C99.85 52.97 113.67 52.82 117.50 52.83C118.84 52.83 118.17 52.82 119.51 52.83C124.57 52.88 146.21 53.13 151.25 53.19C152.47 53.20 151.86 53.18 153.09 53.21C157.86 53.31 178.36 53.80 183.05 53.91C183.95 53.94 183.50 53.97 184.39 53.98C188.80 54.03 208.00 54.18 212.45 54.22C213.52 54.23 212.99 54.25 214.06 54.22C218.90 54.11 239.89 53.61 244.72 53.48C245.75 53.46 245.23 53.45 246.26 53.42C247.75 53.37 253.40 53.21 254.65 53.18"/><path fill="none" stroke="#ffd873" stroke-opacity="0.5" stroke-width="13.0" stroke-linecap="round" stroke-linejoin="round" d="M299.47 10.45C299.21 10.50 296.92 10.46 297.73 10.79C298.55 11.12 302.36 12.23 304.88 12.65C307.41 13.06 308.08 13.64 314.56 13.57C321.56 13.50 345.50 12.36 351.58 12.15C353.90 12.07 352.74 12.12 355.06 12.15C357.64 12.18 359.63 12.54 368.78 12.39C378.30 12.23 410.61 11.30 418.52 11.10C420.50 11.05 419.51 11.08 421.49 11.03C428.85 10.85 460.45 10.05 467.57 9.86C468.48 9.84 468.02 9.77 468.94 9.79C470.45 9.82 476.52 9.97 477.62 10.07C478.54 10.15 476.50 10.39 476.31 10.45C476.31 10.45 476.31 10.45 476.31 10.45"/><path fill="none" stroke="#d1000d" stroke-width="1.5" stroke-linecap="round" stroke-linejoin="round" d="M28.84 35.81C33.84 35.70 56.95 35.22 62.18 35.11C63.19 35.09 62.69 35.08 63.70 35.11C68.80 35.27 91.06 36.00 96.23 36.15C97.52 36.19 96.88 36.19 98.17 36.15C103.74 36.00 127.84 35.27 133.34 35.11C134.33 35.08 133.83 35.10 134.82 35.11C138.44 35.16 153.91 35.41 157.50 35.46C158.34 35.47 157.92 35.46 158.77 35.46C162.33 35.46 177.72 35.46 181.29 35.46C182.15 35.46 181.72 35.49 182.58 35.46C187.45 35.30 208.83 34.57 213.78 34.42C214.96 34.38 214.37 34.43 215.55 34.42C220.79 34.39 243.42 34.25 248.69 34.21C250.01 34.20 249.35 34.14 250.67 34.12C258.11 33.99 290.72 33.46 298.29 33.33C300.15 33.30 299.22 33.28 301.09 33.27C307.58 33.22 335.27 33.06 341.56 33.03C342.54 33.02 342.05 33.02 343.04 33.03C347.17 33.08 364.94 33.32 369.10 33.38C370.17 33.39 369.63 33.37 370.71 33.38C375.63 33.38 396.94 33.40 401.88 33.42C403.06 33.42 402.47 33.48 403.66 33.49C409.32 33.53 434.00 33.69 439.63 33.72C440.69 33.73 440.16 33.71 441.22 33.72C445.41 33.78 463.40 34.02 467.56 34.07C468.51 34.08 468.04 34.07 468.99 34.07C470.01 34.07 473.53 33.96 474.37 34.06C474.85 34.12 474.54 34.66 474.57 34.77"/><path fill="none" stroke="#ffd873" stroke-opacity="0.5" stroke-width="13.0" stroke-linecap="round" stroke-linejoin="round" d="M20.84 25.73C23.19 25.73 29.53 25.94 36.48 25.73C43.43 25.53 58.67 24.13 67.16 24.37C75.65 24.62 86.81 26.78 93.08 27.36C99.35 27.93 106.06 28.05 108.97 28.20C111.28 28.31 110.13 28.26 112.45 28.32C122.04 28.57 163.33 29.66 172.91 29.90C175.21 29.96 174.06 29.89 176.36 29.90C186.29 29.95 229.25 30.20 239.16 30.25C241.34 30.26 240.25 30.26 242.43 30.25C246.87 30.23 257.54 30.50 268.75 30.15C279.97 29.79 309.29 28.24 317.22 27.88C320.17 27.74 318.69 27.71 321.64 27.72C331.21 27.77 371.76 28.12 381.01 28.19C382.54 28.20 381.77 28.18 383.30 28.17C390.99 28.12 424.49 27.87 432.23 27.82C434.02 27.80 433.12 27.86 434.91 27.82C439.95 27.70 461.01 27.15 465.84 27.05C466.68 27.04 466.25 27.16 467.09 27.19C468.22 27.24 472.19 27.61 473.36 27.38C474.54 27.15 474.76 26.10 474.93 25.66C475.10 25.22 474.67 24.64 474.50 24.42C474.34 24.19 474.30 24.26 473.84 24.15C472.56 23.86 467.97 22.74 465.97 22.42C463.96 22.10 464.14 22.03 460.47 22.00C451.07 21.92 412.71 21.89 403.31 21.88C399.65 21.87 401.48 21.87 397.82 21.88C384.52 21.88 333.01 21.72 314.69 21.89C296.37 22.06 282.37 22.85 275.69 23.02C272.00 23.12 273.84 23.18 270.16 23.02C264.38 22.78 246.94 21.67 237.15 21.40C227.35 21.13 210.26 21.24 204.86 21.23C202.38 21.22 203.62 21.21 201.14 21.32C198.06 21.44 195.09 21.13 184.31 22.08C173.53 23.04 137.85 26.83 129.28 27.69C127.85 27.83 128.56 27.67 127.12 27.79C122.62 28.18 105.77 29.96 99.24 30.26C92.70 30.56 86.25 29.87 83.55 29.77C82.01 29.72 82.78 29.67 81.24 29.64C77.73 29.55 64.81 29.13 60.14 29.21C55.46 29.29 51.77 29.99 50.05 30.16C49.14 30.25 49.60 30.22 48.69 30.34C45.77 30.72 33.28 32.33 30.55 32.70C30.48 32.71 30.54 32.74 30.52 32.81C30.26 33.63 29.08 37.35 28.83 38.18C28.80 38.28 28.74 38.26 28.81 38.34C28.97 38.52 29.21 39.11 29.88 39.43C30.55 39.75 31.05 40.06 33.27 40.47C35.49 40.88 37.29 41.79 44.66 42.19C52.02 42.58 75.96 42.97 82.35 43.10C85.62 43.17 83.99 43.12 87.26 43.10C101.17 43.05 161.35 42.81 175.08 42.76C177.56 42.75 176.32 42.80 178.80 42.76C181.90 42.71 194.01 42.84 195.75 42.43C197.49 42.01 192.05 40.56 190.40 40.01C188.75 39.46 186.17 39.02 184.73 38.76C183.29 38.50 183.44 38.43 180.81 38.27C177.70 38.09 175.22 37.54 163.99 37.53C148.42 37.52 90.61 38.11 77.04 38.20C74.69 38.21 75.86 38.25 73.52 38.13C70.40 37.97 58.78 37.14 56.22 37.16C55.48 37.16 56.15 37.92 56.42 38.25C56.68 38.59 57.18 38.96 58.00 39.37C58.83 39.78 60.85 40.61 61.89 40.98C62.94 41.36 63.26 41.45 64.99 41.87C66.72 42.28 70.32 43.28 73.44 43.76C76.56 44.24 81.60 44.81 85.80 45.07C90.00 45.32 91.93 45.57 101.43 45.46C110.93 45.34 138.09 44.27 149.13 44.30C160.16 44.33 170.60 45.42 175.00 45.66C177.31 45.79 176.15 45.76 178.46 45.92C183.60 46.26 200.89 47.78 209.21 47.95C217.53 48.13 229.89 47.23 233.91 47.08C235.34 47.03 234.63 47.09 236.05 46.96C237.55 46.81 240.59 46.69 243.90 46.11C247.22 45.53 256.00 43.55 258.15 43.10C258.17 43.10 258.21 43.11 258.18 43.10C256.95 42.75 253.49 41.54 249.94 40.72C246.40 39.89 240.13 38.43 234.57 37.60C229.01 36.78 217.00 35.60 212.88 35.22C209.05 34.86 210.95 34.85 207.11 35.06C199.12 35.49 168.57 37.38 159.60 38.07C151.36 38.69 149.15 39.39 147.30 39.63"/>
</svg>