<?xml version="1.0" encoding="UTF-8"?>
<!DOCTYPE svg PUBLIC "-//W3C//DTD SVG 1.1//EN" "http://www.w3.org/Graphics/SVG/1.1/DTD/svg11.dtd">
<svg  xmlns="http://www.w3.org/2000/svg" xmlns:xlink="http://www.w3.org/1999/xlink" viewport-fill="none" viewBox="0.0, 0.0, 504.399729958833, 102.51859169308528" version="1.1" height="102.51859169308528" width="504.399729958833">
<path fill="none" stroke="#ffd873" stroke-opacity="0.5" stroke-width="13.0" stroke-linecap="round" stroke-linejoin="round" d="M29.53 51.11C31.43 51.09 36.12 50.69 42.22 51.01C48.32 51.33 61.94 53.17 70.20 53.26C78.46 53.35 84.97 51.80 97.28 51.59C109.60 51.39 143.71 51.88 152.29 51.91C153.72 51.92 153.89 51.86 154.44 51.85C155.00 51.83 157.02 51.95 155.99 51.84C153.37 51.56 145.48 50.42 136.99 50.00C128.51 49.59 108.69 49.16 99.40 49.07C90.10 48.98 83.47 49.10 75.02 49.41C66.58 49.72 48.13 50.84 43.10 51.12C42.03 51.18 41.85 51.16 41.49 51.26C41.13 51.36 40.11 51.59 40.71 51.77C41.83 52.13 43.36 53.06 48.99 53.61C54.70 54.16 62.65 55.07 78.77 55.48C94.88 55.88 132.40 56.20 156.43 56.31C180.46 56.42 224.87 56.24 238.97 56.21C246.65 56.19 242.81 56.11 250.48 56.08C261.86 56.04 298.83 56.11 314.82 55.90C330.80 55.68 353.93 55.28 357.05 54.65C360.17 54.01 342.65 52.39 335.62 51.67C328.60 50.94 316.42 50.17 310.23 49.82C304.04 49.46 304.94 49.24 294.35 49.29C270.41 49.41 173.15 50.27 150.65 50.60C146.42 50.66 144.46 51.27 144.36 51.47C144.26 51.66 148.13 51.79 150.00 51.91C151.86 52.02 152.25 52.16 156.78 52.23C164.22 52.35 182.01 52.81 199.60 52.69C217.20 52.56 250.05 51.58 274.08 51.39C298.11 51.20 339.35 51.25 359.80 51.41C380.26 51.58 401.80 52.33 410.45 52.49C415.12 52.58 412.79 52.56 417.47 52.53C422.37 52.50 436.13 52.66 443.17 52.28C450.21 51.91 460.05 50.65 464.39 50.03C468.73 49.40 473.01 48.44 472.11 48.13C471.22 47.82 461.52 48.00 458.43 47.98C455.34 47.96 456.13 48.06 451.53 48.01C438.22 47.85 389.42 47.03 369.66 46.95C349.90 46.86 329.70 47.19 319.78 47.45C309.86 47.71 306.00 48.48 303.55 48.66C303.47 48.67 303.35 48.65 303.43 48.65C310.05 48.79 334.51 49.43 347.69 49.57C360.86 49.71 381.05 49.74 391.26 49.58C401.46 49.41 406.86 49.12 415.69 48.49C424.52 47.86 442.14 45.81 450.09 45.39C458.05 44.96 465.38 45.57 468.74 45.65C471.23 45.71 469.99 45.68 472.47 45.92C475.14 46.18 485.02 46.86 486.54 47.38C488.06 47.89 484.37 48.90 482.62 49.36C480.86 49.81 480.06 50.23 474.83 50.40C467.94 50.64 443.53 50.81 436.68 50.91C431.67 50.99 434.18 51.00 429.17 51.11C417.28 51.37 370.90 52.13 357.45 52.68C345.39 53.18 341.58 54.34 339.48 54.82C337.38 55.30 341.39 55.60 343.45 55.88C345.50 56.16 350.59 56.51 353.17 56.67C355.75 56.84 356.56 56.92 360.64 56.98C364.71 57.04 368.91 57.47 380.32 57.06C391.72 56.65 422.00 54.76 436.66 54.24C451.32 53.72 470.37 53.84 478.05 53.59C484.65 53.37 486.14 52.89 487.91 52.57C489.38 52.30 489.56 51.68 489.85 51.46C490.04 51.32 489.85 51.16 489.85 51.11"/><path fill="none" stroke="#ffd873" stroke-opacity="0.5" stroke-width="13.0" stroke-linecap="round" stroke-linejoin="round" d="M31.27 69.52C36.97 69.42 56.45 68.68 69.27 68.83C82.08 68.97 106.22 70.25 116.69 70.50C127.15 70.76 132.85 70.65 139.00 70.54C145.15 70.43 151.81 70.18 157.70 69.77C163.59 69.37 174.51 68.19 178.28 67.84C181.35 67.56 180.24 67.61 182.89 67.44C185.54 67.28 189.21 66.83 195.94 66.75C202.66 66.66 213.09 66.44 227.75 66.87C242.41 67.29 282.75 69.11 293.68 69.58C298.29 69.78 295.98 69.83 300.59 69.99C306.10 70.18 312.65 71.24 330.39 70.85C348.13 70.46 404.71 67.92 418.87 67.39C422.83 67.24 420.85 67.33 424.81 67.30C430.47 67.26 446.63 66.92 456.56 67.10C466.49 67.27 487.98 68.33 490.98 68.49C493.98 68.65 479.98 68.30 476.57 68.19C473.15 68.08 473.80 67.89 468.24 67.74C456.95 67.45 420.23 66.85 401.30 66.24C382.37 65.63 354.71 64.13 342.05 63.68C329.38 63.23 324.17 63.25 316.88 63.24C309.59 63.24 302.79 63.28 293.45 63.63C284.11 63.97 261.58 65.24 254.61 65.55C249.52 65.78 252.06 65.66 246.96 65.73C238.15 65.86 213.71 66.68 195.83 66.42C177.94 66.15 138.78 64.35 127.75 63.97C124.12 63.84 125.56 63.88 122.30 63.90C119.04 63.92 111.19 63.83 106.02 64.08C100.85 64.33 97.87 64.47 87.81 65.57C77.75 66.67 49.14 69.93 38.95 71.44C28.77 72.96 22.82 75.03 19.90 75.68C19.63 75.74 19.48 75.54 19.51 75.81C19.58 76.29 19.80 78.06 20.31 78.89C20.82 79.72 20.99 80.58 22.90 81.35C24.82 82.12 30.16 83.45 33.08 84.02C36.01 84.58 36.16 84.70 42.41 85.13C49.34 85.61 64.72 86.82 79.33 87.20C93.94 87.57 129.41 87.55 139.80 87.61C145.68 87.65 144.98 87.63 148.62 87.60C152.26 87.56 163.81 88.18 164.09 87.40C164.37 86.63 155.05 83.63 150.49 82.44C145.93 81.24 145.04 80.25 133.69 79.44C119.77 78.45 70.04 76.40 57.74 75.85C53.73 75.67 55.73 75.54 51.72 75.76C47.15 76.01 31.51 77.02 27.27 77.50C24.57 77.80 24.05 78.54 23.45 78.92C22.86 79.30 23.17 79.66 23.32 80.02C23.48 80.37 23.88 80.90 24.50 81.29C25.11 81.69 26.22 82.22 27.45 82.62C28.69 83.02 29.15 83.41 32.75 83.97C38.12 84.81 54.77 87.38 63.27 88.21C71.76 89.04 81.66 89.40 89.38 89.50C97.11 89.61 109.22 89.08 114.75 88.91C120.28 88.74 118.59 88.89 126.25 88.39C134.02 87.88 159.74 86.21 166.59 85.50C170.32 85.12 170.83 84.21 171.90 83.66C172.97 83.11 173.40 82.23 173.72 81.86C174.04 81.49 173.94 81.41 174.03 81.17C174.12 80.93 174.45 80.46 174.33 80.23C174.21 80.00 174.06 79.76 173.24 79.63C171.36 79.33 169.46 78.69 161.76 78.20C147.15 77.27 89.43 74.13 75.83 73.41C72.68 73.25 74.25 73.30 71.10 73.45C66.07 73.68 47.77 75.80 42.27 74.99C36.77 74.19 35.95 69.62 34.45 68.09C32.95 66.56 32.66 65.37 32.29 64.81C32.07 64.48 31.54 64.38 31.93 64.33C35.82 63.83 50.90 61.99 58.25 61.47C65.60 60.96 74.54 60.35 80.92 60.88C87.29 61.41 97.77 64.39 100.75 65.01"/>
</svg>