<?xml version="1.0" encoding="UTF-8"?>
<!DOCTYPE svg PUBLIC "-//W3C//DTD SVG 1.1//EN" "http://www.w3.org/Graphics/SVG/1.1/DTD/svg11.dtd">
<svg  xmlns="http://www.w3.org/2000/svg" xmlns:xlink="http://www.w3.org/1999/xlink" viewport-fill="none" viewBox="0.0, 0.0, 708.6024305555555, 111.59414478207376" version="1.1" height="111.59414478207376" width="708.6024305555555">
<path fill="none" stroke="#d1000d" stroke-width="1.5" stroke-linecap="round" stroke-linejoin="round" d="M238.00 104.50C240.54 104.30 247.99 103.38 254.94 103.19C261.89 103.00 277.11 103.14 284.32 103.21C291.54 103.29 295.41 103.25 303.05 103.70C310.68 104.14 325.14 105.61 335.23 106.18C345.31 106.74 364.17 107.19 370.29 107.45C374.14 107.61 372.21 107.61 376.05 107.89C381.44 108.28 388.09 109.80 406.19 110.04C424.30 110.29 482.25 109.58 496.73 109.50C500.74 109.48 498.74 109.61 502.74 109.54C518.20 109.26 579.18 107.93 599.76 107.62C620.33 107.31 632.63 107.52 639.90 107.50C645.47 107.49 642.69 107.50 648.25 107.50C658.08 107.49 696.65 107.46 705.46 107.46C706.49 107.46 706.77 107.42 707.00 107.50C707.23 107.58 707.00 107.93 707.00 108.00"/>
</svg>