<?xml version="1.0" encoding="UTF-8"?>
<!DOCTYPE svg PUBLIC "-//W3C//DTD SVG 1.1//EN" "http://www.w3.org/Graphics/SVG/1.1/DTD/svg11.dtd">
<svg  xmlns="http://www.w3.org/2000/svg" xmlns:xlink="http://www.w3.org/1999/xlink" viewport-fill="none" viewBox="0.0, 0.0, 714.0469970703125, 168.99717712402344" version="1.1" height="168.99717712402344" width="714.0469970703125">
<path fill="none" stroke="#79eb70" stroke-opacity="0.5" stroke-width="13.0" stroke-linecap="round" stroke-linejoin="round" d="M97.62 138.97C97.59 138.49 97.36 136.25 97.43 135.73C97.49 135.26 97.63 135.52 98.11 135.52C103.37 135.50 126.93 135.58 132.51 135.57C134.35 135.56 133.43 135.50 135.27 135.43C139.71 135.26 156.26 134.49 162.10 134.43C167.94 134.38 172.10 134.94 174.19 135.07C175.45 135.14 174.82 135.10 176.07 135.24C178.60 135.51 185.41 136.79 191.05 136.90C196.69 137.01 210.03 136.13 213.69 135.97C214.86 135.93 214.27 135.88 215.45 135.87C221.07 135.80 245.48 135.58 251.20 135.53C252.77 135.51 251.98 135.57 253.56 135.51C261.41 135.19 295.64 133.70 303.51 133.39C305.17 133.32 304.34 133.38 306.01 133.41C313.56 133.55 346.35 134.18 353.86 134.33C355.33 134.36 354.59 134.41 356.07 134.43C363.07 134.57 393.56 135.07 400.55 135.20C401.97 135.23 401.26 135.28 402.67 135.29C408.18 135.34 431.26 135.39 437.30 135.51C441.11 135.59 441.92 135.99 442.98 136.11C443.90 136.21 443.44 136.17 444.35 136.28C445.69 136.45 448.14 137.03 451.90 137.22C455.66 137.42 466.54 137.53 469.42 137.60C470.53 137.63 469.98 137.60 471.09 137.69C473.21 137.84 481.72 138.49 483.60 138.63"/><path fill="none" stroke="#1eb511" stroke-width="1.5" stroke-linecap="round" stroke-linejoin="round" d="M544.75 118.48C544.61 118.48 543.20 118.43 543.82 118.48C544.84 118.55 550.32 118.57 551.60 118.95C552.89 119.34 552.38 120.31 552.39 121.07C552.39 121.83 551.84 123.44 551.65 124.02C551.45 124.61 551.53 124.43 551.07 124.96C550.61 125.49 549.38 126.92 548.58 127.57C547.79 128.21 546.21 128.99 545.79 129.25"/><path fill="none" stroke="#79eb70" stroke-opacity="0.5" stroke-width="13.0" stroke-linecap="round" stroke-linejoin="round" d="M24.67 156.00C25.18 155.70 26.60 154.46 28.06 154.01C29.52 153.55 30.99 152.93 34.40 152.99C37.81 153.04 46.24 154.14 50.82 154.38C55.40 154.63 62.56 154.57 64.92 154.61C66.01 154.62 65.46 154.64 66.55 154.61C72.29 154.45 97.35 153.72 103.16 153.56C104.58 153.52 103.87 153.53 105.29 153.54C110.92 153.57 135.15 153.73 140.74 153.78C141.96 153.79 141.35 153.82 142.56 153.86C148.16 154.05 172.47 154.82 178.06 155.00C179.23 155.04 178.64 155.08 179.81 155.09C185.35 155.13 209.34 155.25 214.96 155.26C216.50 155.27 215.73 155.22 217.27 155.19C223.75 155.09 251.68 154.70 258.13 154.61C259.57 154.59 258.85 154.62 260.29 154.61C266.88 154.55 295.53 154.28 302.05 154.21C303.19 154.20 302.62 154.18 303.76 154.12C308.93 153.89 331.40 152.87 336.54 152.63C337.53 152.59 337.03 152.59 338.02 152.56C342.65 152.44 362.72 151.93 367.38 151.81C368.48 151.77 367.93 151.75 369.03 151.70C373.33 151.50 392.00 150.63 396.05 150.44C396.05 150.44 396.05 150.44 396.05 150.44"/><path fill="none" stroke="#1eb511" stroke-width="1.5" stroke-linecap="round" stroke-linejoin="round" d="M495.07 141.41C496.47 140.62 501.00 137.73 504.45 136.19C507.90 134.66 512.85 132.85 518.06 131.17C523.28 129.50 534.30 126.26 539.20 125.02C544.11 123.78 549.20 123.22 550.76 122.91C551.52 122.76 549.78 122.98 549.61 122.99C549.61 122.99 549.61 122.99 549.61 122.99"/><path fill="none" stroke="#1eb511" stroke-width="1.5" stroke-linecap="round" stroke-linejoin="round" d="M573.58 61.15C572.28 62.14 566.32 66.57 564.90 67.75C564.11 68.41 564.32 68.33 564.11 69.07C563.90 69.81 563.40 71.38 563.49 72.67C563.59 73.96 564.28 76.82 564.75 77.67C565.21 78.53 565.97 78.31 566.59 78.40C567.21 78.49 568.39 78.47 568.86 78.25C569.34 78.03 569.62 77.42 569.76 76.94C569.89 76.46 569.76 75.44 569.76 75.06C569.76 74.68 569.73 74.83 569.76 74.38C569.80 73.63 569.70 70.86 570.04 70.06C570.38 69.26 571.45 69.05 572.00 69.03C572.55 69.02 573.21 69.14 573.70 69.95C574.19 70.75 575.01 73.65 575.27 74.41C575.40 74.81 575.38 74.77 575.44 75.02C575.50 75.27 575.63 75.93 575.67 76.09"/><path fill="none" stroke="#1eb511" stroke-width="1.5" stroke-linecap="round" stroke-linejoin="round" d="M601.72 52.47C601.68 52.36 601.72 51.58 601.44 51.74C601.17 51.91 600.32 52.40 599.89 53.56C599.47 54.72 598.60 58.46 598.60 59.49C598.61 60.51 599.38 60.43 599.92 60.40C600.45 60.37 601.75 59.54 602.16 59.28C602.58 59.02 602.53 58.93 602.67 58.69C602.81 58.45 603.05 57.83 603.11 57.68"/><path fill="none" stroke="#1eb511" stroke-width="1.5" stroke-linecap="round" stroke-linejoin="round" d="M581.22 58.03C581.22 57.82 581.15 55.73 581.20 56.65C581.30 58.60 581.78 68.86 581.91 71.06C581.92 71.24 581.83 71.33 582.01 71.31C582.22 71.28 583.11 70.94 583.31 70.88"/><path fill="none" stroke="#1eb511" stroke-width="1.5" stroke-linecap="round" stroke-linejoin="round" d="M604.85 51.77C604.86 52.14 604.73 53.36 604.94 54.19C605.15 55.03 606.04 56.86 606.24 57.33"/><path fill="none" stroke="#1eb511" stroke-width="1.5" stroke-linecap="round" stroke-linejoin="round" d="M589.21 60.46C589.17 60.33 588.82 59.37 588.91 59.62C588.99 59.87 589.30 61.57 589.78 62.13C590.26 62.68 591.41 63.30 592.12 63.31C592.83 63.32 593.99 62.66 594.50 62.20C595.01 61.75 595.33 60.71 595.52 60.28C595.72 59.84 595.83 59.97 595.80 59.29C595.77 58.57 595.46 55.75 595.30 55.51C595.14 55.27 594.76 56.19 594.74 57.70C594.70 60.11 595.23 68.75 595.07 71.58C594.92 74.41 594.03 75.68 593.72 76.57C593.46 77.30 593.57 77.22 593.01 77.49C592.44 77.77 590.55 78.43 589.97 78.40C589.38 78.37 589.28 77.86 589.12 77.30C588.96 76.75 588.91 75.09 588.87 74.70"/><path fill="none" stroke="#1eb511" stroke-width="1.5" stroke-linecap="round" stroke-linejoin="round" d="M603.11 85.12C603.12 85.75 603.00 89.72 603.15 89.29C603.30 88.87 603.93 83.49 604.11 82.28C604.21 81.56 604.19 81.63 604.35 81.22C604.51 80.82 605.07 79.81 605.20 79.57"/><path fill="none" stroke="#1eb511" stroke-width="1.5" stroke-linecap="round" stroke-linejoin="round" d="M597.55 87.21C596.98 87.31 594.38 87.70 593.73 87.90C593.20 88.07 593.42 88.09 593.23 88.56C593.03 89.03 592.49 90.14 592.41 91.03C592.32 91.93 592.34 94.07 592.64 94.54C592.93 95.00 593.89 94.38 594.35 94.13C594.82 93.88 595.26 93.66 595.72 92.88C596.19 92.11 597.18 89.61 597.46 88.95C597.58 88.68 597.49 88.23 597.57 88.52C597.65 88.87 597.69 90.71 598.05 91.30C598.42 91.88 599.69 92.25 599.98 92.42"/><path fill="none" stroke="#1eb511" stroke-width="1.5" stroke-linecap="round" stroke-linejoin="round" d="M604.50 44.48C604.55 44.58 604.80 45.07 604.85 45.17"/><path fill="none" stroke="#1eb511" stroke-width="1.5" stroke-linecap="round" stroke-linejoin="round" d="M610.75 50.38C610.75 50.71 610.75 52.69 610.75 52.53C610.76 52.38 610.60 50.38 610.78 49.37C610.97 48.36 611.77 46.41 612.00 45.81C612.13 45.48 612.16 45.42 612.33 45.39C612.49 45.37 612.90 45.16 613.11 45.67C613.38 46.33 613.86 49.07 614.16 49.83C614.45 50.59 614.63 50.76 615.06 50.75C615.49 50.73 616.44 50.24 617.00 49.72C617.57 49.21 618.49 47.81 618.83 47.33C619.17 46.84 619.03 47.08 619.28 46.49C619.57 45.80 620.61 43.53 620.76 42.70C620.92 41.87 620.58 40.98 620.32 40.94C620.06 40.90 619.25 41.58 619.01 42.43C618.77 43.28 618.73 45.90 618.72 46.60C618.71 46.96 618.77 46.94 618.93 47.10C619.08 47.26 619.27 47.59 619.75 47.64C620.23 47.69 621.37 47.78 622.12 47.42C622.87 47.05 623.98 46.36 624.76 45.20C625.53 44.04 626.85 41.01 627.31 39.69C627.78 38.36 627.85 36.89 627.85 36.35C627.85 35.95 627.43 36.11 627.30 36.09C627.17 36.07 627.15 36.05 626.97 36.20C626.66 36.46 625.55 37.31 625.20 37.85C624.84 38.38 624.59 39.24 624.59 39.74C624.60 40.23 624.65 40.67 625.25 41.16C625.85 41.66 628.15 42.45 628.59 43.05C629.02 43.65 628.19 44.85 628.13 45.17C628.13 45.17 628.13 45.17 628.13 45.17"/><path fill="none" stroke="#1eb511" stroke-width="1.5" stroke-linecap="round" stroke-linejoin="round" d="M645.84 51.77C645.95 52.41 646.39 56.20 646.54 55.99C646.69 55.78 646.75 51.39 646.84 50.39C646.91 49.66 646.91 49.83 647.16 49.33C647.40 48.84 648.16 47.43 648.46 47.10C648.76 46.78 648.98 46.72 649.17 47.16C649.50 47.93 650.19 51.30 650.62 52.19C651.05 53.08 651.51 53.19 652.06 53.11C652.61 53.04 653.72 52.27 654.30 51.71C654.88 51.14 655.68 49.70 655.92 49.34C655.92 49.34 655.92 49.34 655.92 49.34"/><path fill="none" stroke="#1eb511" stroke-width="1.5" stroke-linecap="round" stroke-linejoin="round" d="M638.20 56.29C638.07 56.17 637.60 55.50 637.32 55.51C637.03 55.53 636.52 55.51 636.30 56.36C636.02 57.46 635.41 61.56 635.45 62.80C635.50 64.05 636.12 64.54 636.63 64.66C637.13 64.78 638.39 63.90 638.82 63.62C639.24 63.34 639.18 63.44 639.44 62.80C639.70 62.15 640.45 60.35 640.58 59.27C640.70 58.19 640.33 56.15 640.28 55.59"/><path fill="none" stroke="#1eb511" stroke-width="1.5" stroke-linecap="round" stroke-linejoin="round" d="M609.36 83.39C609.91 82.83 612.39 80.84 613.02 79.68C613.66 78.51 613.89 76.14 613.60 75.60C613.31 75.07 611.76 75.54 611.09 76.11C610.42 76.68 609.47 78.76 609.16 79.40C608.86 80.00 608.94 79.80 609.00 80.39C609.06 80.98 609.10 82.74 609.58 83.35C610.06 83.95 611.31 84.47 612.21 84.41C613.11 84.35 614.83 83.58 615.60 82.96C616.37 82.34 617.09 80.67 617.36 80.26"/><path fill="none" stroke="#1eb511" stroke-width="1.5" stroke-linecap="round" stroke-linejoin="round" d="M631.60 59.76C631.40 59.71 630.74 59.32 630.29 59.42C629.85 59.52 629.00 60.05 628.61 60.42C628.22 60.79 627.87 61.23 627.68 61.89C627.50 62.55 627.20 63.93 627.36 64.83C627.51 65.73 628.31 67.34 628.74 67.88C629.17 68.43 629.71 68.45 630.24 68.49C630.76 68.52 631.80 68.27 632.25 68.14C632.70 68.01 632.88 67.94 633.25 67.62C633.62 67.30 634.50 66.26 634.73 66.02"/><path fill="none" stroke="#1eb511" stroke-width="1.5" stroke-linecap="round" stroke-linejoin="round" d="M657.66 41.00C657.58 40.85 657.43 40.13 657.16 40.01C656.88 39.89 656.26 39.82 655.83 40.20C655.39 40.58 654.40 41.97 654.24 42.56C654.08 43.15 654.41 43.62 654.76 44.13C655.11 44.64 656.23 45.61 656.58 45.96C656.92 46.31 656.83 46.08 657.08 46.50C657.34 46.93 658.47 48.42 658.30 48.84C658.12 49.27 656.28 49.27 655.92 49.34"/><path fill="none" stroke="#1eb511" stroke-width="1.5" stroke-linecap="round" stroke-linejoin="round" d="M678.50 29.89C678.58 30.14 678.77 31.17 679.04 31.60C679.32 32.04 679.92 32.59 680.36 32.80C680.81 33.01 681.67 33.18 682.01 32.97C682.34 32.77 682.47 31.78 682.58 31.41C682.69 31.04 682.65 31.11 682.76 30.51C682.90 29.70 683.25 26.92 683.55 26.00C683.85 25.07 684.57 24.58 684.75 24.33"/><path fill="none" stroke="#1eb511" stroke-width="1.5" stroke-linecap="round" stroke-linejoin="round" d="M660.43 42.05C661.24 41.62 664.68 40.04 665.83 39.22C666.98 38.40 667.89 37.25 668.10 36.58C668.30 35.90 667.65 34.86 667.20 34.73C666.76 34.61 665.54 35.48 665.16 35.74C664.78 36.00 664.86 35.92 664.67 36.47C664.39 37.30 663.27 40.34 663.28 41.30C663.28 42.26 663.89 42.70 664.71 42.87C665.53 43.04 667.77 42.95 668.74 42.41C669.72 41.87 670.84 39.74 671.20 39.27"/><path fill="none" stroke="#1eb511" stroke-width="1.5" stroke-linecap="round" stroke-linejoin="round" d="M670.86 34.05C670.99 34.52 671.48 37.27 671.76 37.18C672.04 37.08 672.53 34.12 672.73 33.43C672.90 32.85 672.78 33.12 673.08 32.60C673.41 32.04 674.25 30.21 674.90 29.70C675.56 29.18 677.07 29.27 677.46 29.19"/><path fill="none" stroke="#1eb511" stroke-width="1.5" stroke-linecap="round" stroke-linejoin="round" d="M712.55 16.34C712.55 16.34 712.55 16.34 712.55 16.34"/><path fill="none" stroke="#1eb511" stroke-width="1.5" stroke-linecap="round" stroke-linejoin="round" d="M687.53 25.72C687.63 25.83 687.92 26.37 688.18 26.44C688.44 26.51 688.73 26.51 689.27 26.20C689.81 25.89 691.32 24.97 691.80 24.36C692.27 23.75 692.45 22.55 692.46 22.13C692.46 21.71 692.14 21.58 691.82 21.54C691.51 21.50 690.71 21.73 690.39 21.85C690.07 21.97 689.98 21.85 689.69 22.33C689.27 23.06 687.80 25.85 687.55 26.70C687.30 27.54 687.69 27.70 688.03 27.96C688.37 28.22 688.60 28.70 689.78 28.44C691.07 28.15 694.94 27.02 696.58 26.04C698.23 25.06 700.11 22.52 700.73 21.90"/><path fill="none" stroke="#1eb511" stroke-width="1.5" stroke-linecap="round" stroke-linejoin="round" d="M701.08 9.04C701.05 8.92 700.65 7.67 700.85 8.21C701.31 9.47 703.71 16.11 704.17 17.47C704.23 17.67 704.11 17.35 703.91 17.32C703.40 17.24 701.45 16.53 700.80 16.95C700.16 17.37 699.68 19.46 699.62 20.13C699.56 20.80 699.68 21.19 700.39 21.45C701.11 21.71 703.67 21.82 704.36 21.87C704.77 21.89 704.72 21.84 704.96 21.74C705.20 21.64 705.80 21.28 705.95 21.20"/><path fill="none" stroke="#d1000d" stroke-width="1.5" stroke-linecap="round" stroke-linejoin="round" d="M134.80 79.57C136.02 79.34 137.43 78.03 142.95 78.08C148.66 78.13 168.09 79.64 172.84 79.91C174.00 79.98 173.42 79.94 174.58 79.91C180.24 79.81 204.84 79.32 210.59 79.20C212.13 79.16 211.36 79.16 212.90 79.09C216.18 78.94 226.12 78.30 232.43 78.17C238.74 78.03 251.25 78.18 254.97 78.18C256.45 78.18 255.71 78.15 257.19 78.18C263.04 78.28 288.17 78.77 293.97 78.87C295.26 78.89 294.62 78.85 295.90 78.87C302.64 78.98 332.05 79.46 338.89 79.57C340.63 79.59 339.76 79.57 341.50 79.57C349.66 79.57 385.10 79.59 393.31 79.59C395.24 79.59 394.28 79.60 396.21 79.57C405.03 79.48 443.27 79.08 452.09 78.98C454.07 78.96 453.08 78.92 455.05 78.91C459.31 78.90 476.66 78.88 480.47 78.87"/><path fill="none" stroke="#ff9399" stroke-opacity="0.5" stroke-width="13.0" stroke-linecap="round" stroke-linejoin="round" d="M26.40 90.34C34.55 90.04 72.16 88.67 80.74 88.35C82.67 88.28 81.70 88.27 83.63 88.19C90.01 87.92 117.13 86.77 123.30 86.51C124.27 86.47 123.78 86.52 124.76 86.51C129.16 86.51 148.27 86.49 152.64 86.49C153.50 86.49 153.07 86.46 153.93 86.51C158.56 86.77 178.79 87.99 183.50 88.26C184.70 88.33 184.10 88.28 185.31 88.28C188.62 88.28 202.41 88.26 205.60 88.25C206.25 88.25 206.04 88.25 206.57 88.25C207.11 88.25 209.77 88.14 209.17 88.25C208.56 88.36 203.92 88.85 202.57 88.97C201.21 89.09 201.76 88.96 200.15 89.07C196.59 89.33 186.59 90.67 178.79 90.71C170.98 90.74 153.19 89.53 148.14 89.33C146.11 89.26 147.13 89.37 145.10 89.40C136.94 89.55 101.78 90.20 93.74 90.34C92.23 90.36 92.99 90.31 91.48 90.34C85.41 90.44 59.28 90.93 53.29 91.02C52.13 91.03 52.71 91.02 51.55 90.93C48.97 90.73 40.36 89.88 36.07 89.66C31.78 89.43 25.27 89.37 22.98 89.42C21.51 89.45 21.17 89.90 20.84 89.99"/><path fill="none" stroke="#d1000d" stroke-width="1.5" stroke-linecap="round" stroke-linejoin="round" d="M25.71 112.22C26.22 112.17 26.84 111.79 29.14 111.84C34.45 111.94 55.95 112.76 61.13 112.92C62.85 112.97 61.99 112.94 63.71 112.92C70.23 112.83 98.21 112.43 104.63 112.33C105.87 112.31 105.25 112.29 106.49 112.26C112.31 112.14 137.63 111.64 143.42 111.53C144.53 111.51 143.97 111.53 145.09 111.53C150.58 111.53 174.52 111.53 180.04 111.53C181.27 111.53 180.66 111.51 181.88 111.53C185.62 111.58 201.51 111.82 204.97 111.88C204.97 111.88 204.97 111.88 204.97 111.88"/><path fill="none" stroke="#d1000d" stroke-width="1.5" stroke-linecap="round" stroke-linejoin="round" d="M17.72 97.28C19.16 97.21 20.92 96.78 27.35 96.78C34.26 96.78 58.05 97.21 63.77 97.29C64.90 97.31 64.34 97.34 65.47 97.31C70.57 97.16 92.61 96.48 97.74 96.31C99.00 96.27 98.36 96.21 99.63 96.17C101.91 96.11 108.60 95.70 112.91 95.91C117.21 96.11 125.73 97.27 128.31 97.53C129.52 97.65 128.92 97.62 130.14 97.62C136.61 97.58 164.94 97.33 171.49 97.28C173.03 97.27 172.26 97.30 173.80 97.28C179.77 97.23 205.38 96.99 211.30 96.91C212.60 96.90 211.94 96.86 213.24 96.81C219.79 96.55 248.33 95.42 254.92 95.16C256.44 95.10 255.68 95.13 257.20 95.09C263.39 94.93 290.03 94.27 296.19 94.11C297.58 94.07 296.89 94.04 298.28 94.02C305.98 93.93 339.72 93.57 347.56 93.49C349.58 93.47 348.57 93.49 350.59 93.47C357.54 93.42 387.16 93.17 393.89 93.12C394.94 93.11 394.42 93.11 395.47 93.12C399.75 93.12 418.20 93.14 422.43 93.16C423.29 93.16 422.86 93.20 423.72 93.23C427.62 93.32 444.55 93.72 448.46 93.81C449.33 93.83 448.90 93.81 449.77 93.81C453.66 93.81 470.69 93.81 474.43 93.81C474.63 93.81 474.66 93.81 474.73 93.81C474.80 93.81 474.89 93.81 474.92 93.81"/><path fill="none" stroke="#ff9399" stroke-opacity="0.5" stroke-width="13.0" stroke-linecap="round" stroke-linejoin="round" d="M413.77 69.14C414.11 69.02 414.44 68.32 416.07 68.33C424.26 68.33 460.05 69.05 468.39 69.18C470.59 69.22 469.51 69.20 471.69 69.25C473.87 69.31 481.25 69.48 482.93 69.53C482.98 69.53 482.95 69.57 482.92 69.60C482.61 69.83 481.98 70.61 480.92 71.05C479.86 71.48 479.23 72.08 475.86 72.47C472.49 72.86 461.52 73.49 458.46 73.67C456.47 73.79 457.46 73.74 455.47 73.69C449.31 73.53 423.23 72.77 417.39 72.61C416.83 72.59 417.11 72.59 416.55 72.59C415.11 72.59 409.15 72.61 407.75 72.62C407.42 72.62 407.58 72.62 407.25 72.62C406.88 72.61 403.99 72.68 405.29 72.58C409.59 72.24 430.70 70.75 435.89 70.38C438.59 70.19 437.24 70.25 439.95 70.14C444.58 69.96 461.86 69.19 466.79 69.16C470.87 69.14 471.22 69.59 472.86 69.95C474.49 70.31 476.97 71.33 477.69 71.58"/>
</svg>