<?xml version="1.0" encoding="UTF-8"?>
<!DOCTYPE svg PUBLIC "-//W3C//DTD SVG 1.1//EN" "http://www.w3.org/Graphics/SVG/1.1/DTD/svg11.dtd">
<svg  xmlns="http://www.w3.org/2000/svg" xmlns:xlink="http://www.w3.org/1999/xlink" viewport-fill="none" viewBox="0.0, 0.0, 776.0, 667.1263427734375" version="1.1" height="667.1263427734375" width="776.0">
<path fill="none" stroke="#ffd873" stroke-opacity="0.5" stroke-width="13.0" stroke-linecap="round" stroke-linejoin="round" d="M30.45 68.94C32.35 68.93 37.04 68.52 43.14 68.84C49.24 69.16 62.86 71.00 71.12 71.09C79.38 71.18 85.89 69.63 98.21 69.43C110.52 69.23 144.64 69.71 153.21 69.75C154.65 69.75 154.81 69.69 155.36 69.68C155.92 69.67 157.94 69.78 156.91 69.67C154.29 69.40 146.40 68.25 137.92 67.84C129.43 67.42 109.62 66.99 100.32 66.90C91.03 66.81 84.39 66.94 75.95 67.24C67.50 67.55 49.05 68.68 44.02 68.95C42.95 69.01 42.77 69.00 42.41 69.09C42.05 69.19 41.03 69.42 41.63 69.61C42.75 69.96 44.28 70.89 49.92 71.44C55.63 72.00 63.57 72.91 79.69 73.31C95.80 73.72 133.32 74.03 157.35 74.14C181.38 74.25 225.79 74.08 239.90 74.04C247.57 74.03 243.73 73.95 251.41 73.92C262.78 73.87 299.75 73.95 315.74 73.73C331.72 73.52 354.85 73.12 357.97 72.48C361.10 71.85 343.57 70.23 336.55 69.50C329.52 68.78 317.34 68.01 311.15 67.65C304.96 67.30 305.86 67.07 295.27 67.13C271.33 67.24 174.07 68.11 151.57 68.43C147.34 68.49 145.38 69.10 145.28 69.30C145.18 69.50 149.06 69.62 150.92 69.74C152.78 69.85 153.17 69.99 157.70 70.06C165.14 70.18 182.93 70.64 200.53 70.52C218.12 70.39 250.97 69.42 275.00 69.23C299.03 69.04 340.27 69.08 360.72 69.25C381.18 69.41 402.72 70.16 411.37 70.33C416.05 70.42 413.71 70.40 418.39 70.37C423.30 70.34 437.05 70.49 444.09 70.12C451.13 69.74 460.97 68.48 465.32 67.86C469.66 67.24 473.93 66.27 473.04 65.96C472.14 65.66 462.44 65.83 459.35 65.82C456.26 65.80 457.05 65.90 452.45 65.84C439.14 65.69 390.35 64.86 370.58 64.78C350.82 64.70 330.62 65.03 320.70 65.29C310.79 65.54 306.92 66.32 304.47 66.50C304.39 66.50 304.27 66.48 304.35 66.48C310.97 66.62 335.44 67.27 348.61 67.41C361.78 67.54 381.98 67.57 392.18 67.41C402.38 67.25 407.79 66.95 416.61 66.32C425.44 65.69 443.06 63.65 451.01 63.22C458.97 62.80 466.31 63.41 469.66 63.49C472.15 63.55 470.91 63.52 473.39 63.76C476.06 64.01 485.94 64.69 487.46 65.21C488.99 65.73 485.29 66.74 483.54 67.19C481.78 67.65 480.98 68.06 475.75 68.24C468.86 68.47 444.45 68.64 437.60 68.75C432.59 68.82 435.10 68.83 430.09 68.94C418.20 69.21 371.82 69.96 358.37 70.52C346.31 71.02 342.50 72.18 340.40 72.66C338.30 73.13 342.31 73.44 344.37 73.72C346.42 73.99 351.51 74.34 354.09 74.51C356.67 74.67 357.49 74.76 361.56 74.82C365.63 74.87 369.84 75.30 381.24 74.89C392.64 74.48 422.92 72.59 437.58 72.07C452.24 71.55 471.29 71.67 478.97 71.42C485.57 71.21 487.06 70.72 488.83 70.40C490.30 70.14 490.48 69.51 490.78 69.29C490.96 69.15 490.78 69.00 490.78 68.94"/><path fill="none" stroke="#98c2ff" stroke-opacity="0.5" stroke-width="13.0" stroke-linecap="round" stroke-linejoin="round" d="M32.19 148.15C31.39 148.16 24.02 147.75 26.85 148.21C29.67 148.67 42.08 150.44 51.04 151.22C60.00 152.00 69.12 153.04 86.60 153.42C104.08 153.80 154.18 153.70 167.57 153.75C173.11 153.77 171.12 153.81 175.87 153.71C180.63 153.60 190.74 153.46 199.25 153.05C207.77 152.65 230.93 151.85 232.61 150.99C234.30 150.14 218.12 148.09 210.48 147.36C202.83 146.63 187.50 146.34 181.64 146.13C175.78 145.91 178.23 146.00 171.40 145.91C155.53 145.68 98.09 144.58 75.82 144.65C53.56 144.72 31.20 146.10 22.99 146.36C21.71 146.40 21.43 146.39 21.07 146.39C20.74 146.39 20.27 146.32 20.58 146.39C22.06 146.72 26.34 147.98 30.91 148.59C35.48 149.20 38.42 150.12 51.04 150.46C63.67 150.80 93.07 150.28 115.10 150.87C137.13 151.45 183.80 153.83 197.92 154.37C205.45 154.66 204.22 154.51 209.23 154.49C214.24 154.47 219.40 154.65 231.31 154.24C243.23 153.82 270.60 152.00 288.68 151.72C306.75 151.43 341.93 152.23 351.82 152.32C353.68 152.34 352.75 152.27 354.60 152.32C359.25 152.47 374.35 153.28 382.77 153.28C391.20 153.27 406.97 152.69 410.79 152.29C412.82 152.08 409.03 151.02 408.24 150.63C407.44 150.24 407.39 150.03 405.48 149.68C401.70 148.97 392.36 146.90 383.00 145.91C373.63 144.92 355.51 143.56 343.05 143.09C330.60 142.63 315.82 142.58 299.98 142.81C284.14 143.04 249.90 144.49 237.46 144.62C225.02 144.74 220.10 143.80 217.07 143.64C216.94 143.64 217.13 143.60 217.26 143.60C232.69 143.69 286.01 144.40 319.99 144.24C353.96 144.09 424.40 142.82 443.77 142.57C447.32 142.52 445.55 142.51 449.10 142.59C454.51 142.70 475.34 142.78 479.87 143.33C481.85 143.57 479.73 145.62 479.30 146.27C478.87 146.91 478.77 147.42 477.02 147.61C473.95 147.95 463.24 148.39 458.86 148.52C454.47 148.65 455.17 148.55 447.79 148.48C438.86 148.40 408.50 147.89 399.28 147.97C390.65 148.05 387.29 148.63 386.37 149.02C385.46 149.41 388.54 150.15 393.16 150.56C398.06 151.00 411.99 151.76 419.05 151.94C426.10 152.12 432.31 152.05 440.22 151.79C448.12 151.52 466.30 150.46 471.74 150.18C474.88 150.01 473.49 150.10 476.45 149.90C479.41 149.70 489.18 149.14 491.48 148.83C492.18 148.74 491.88 148.21 491.83 147.83C491.78 147.45 491.29 146.61 491.15 146.31C491.01 146.00 491.04 146.04 490.89 145.81C490.75 145.57 490.62 144.98 490.18 144.76C489.75 144.53 488.32 144.40 488.00 144.33"/><path fill="none" stroke="#98c2ff" stroke-opacity="0.5" stroke-width="13.0" stroke-linecap="round" stroke-linejoin="round" d="M26.98 136.69C27.30 136.59 27.63 136.16 29.12 136.05C31.28 135.89 37.31 135.58 41.39 135.64C45.46 135.71 51.67 136.47 56.27 136.49C60.87 136.52 66.89 135.85 72.05 135.82C77.21 135.79 87.08 136.18 90.65 136.29C94.14 136.39 92.39 136.35 95.88 136.51C102.42 136.82 119.79 138.09 134.30 138.34C148.80 138.60 183.02 138.19 192.56 138.19C196.11 138.19 194.34 138.36 197.89 138.34C202.43 138.32 211.58 138.42 222.82 138.05C234.05 137.69 263.40 136.40 272.80 135.90C281.28 135.45 283.40 134.92 285.49 134.71C286.31 134.64 286.35 134.69 286.72 134.56C287.09 134.44 288.15 134.25 287.93 133.89C287.72 133.53 287.34 132.70 285.32 132.18C283.16 131.63 281.51 130.47 273.57 130.21C258.87 129.73 201.47 129.21 187.30 128.97C181.81 128.88 184.55 128.91 179.07 128.64C170.59 128.24 151.36 126.56 130.76 126.26C110.16 125.97 55.82 126.59 41.74 126.68C38.50 126.70 40.11 126.65 36.88 126.86C32.88 127.12 9.64 128.19 15.07 128.41C20.50 128.62 56.84 127.90 73.08 128.28C89.32 128.67 114.01 130.42 123.35 130.98C131.35 131.45 127.33 131.49 135.34 131.97C144.11 132.50 153.37 133.84 181.83 134.52C210.30 135.19 302.96 136.17 325.08 136.49C327.90 136.53 326.49 136.68 329.32 136.62C334.12 136.50 346.85 136.21 357.12 135.71C367.39 135.21 388.68 133.63 397.78 133.27C406.89 132.91 412.37 133.12 417.81 133.29C423.24 133.47 430.87 134.20 434.01 134.43C437.15 134.66 435.58 134.71 438.74 134.83C443.66 135.02 459.28 135.76 466.82 135.68C474.36 135.60 487.65 135.11 489.00 134.29C490.36 133.46 478.84 130.98 475.86 130.18C472.88 129.38 471.41 129.27 469.12 128.93C466.83 128.59 466.31 128.27 460.61 127.92C454.11 127.52 436.86 126.55 425.79 126.27C414.73 126.00 404.12 125.52 386.83 126.10C369.55 126.68 325.67 129.42 310.55 130.16C295.44 130.90 292.36 130.93 286.07 131.04C279.78 131.15 271.49 130.93 268.63 130.89C267.55 130.88 267.43 130.85 267.01 130.82C266.59 130.80 265.05 130.67 265.83 130.72C269.95 130.97 286.25 132.20 294.47 132.48C302.69 132.76 304.35 132.86 320.64 132.58C336.93 132.30 385.93 131.17 403.07 130.61C420.20 130.04 428.92 129.16 434.89 128.81C440.22 128.51 438.06 128.50 442.88 128.32C447.69 128.14 460.11 127.54 467.00 127.59C473.89 127.65 484.84 128.36 488.81 128.70C492.00 128.98 492.57 129.37 493.47 129.87C494.38 130.36 494.60 131.67 494.83 132.02C494.93 132.18 495.15 132.15 494.99 132.24C494.58 132.46 493.58 133.32 492.10 133.53C490.62 133.74 489.77 134.00 485.14 133.65C479.73 133.24 460.40 131.21 456.03 130.78"/><path fill="none" stroke="#98c2ff" stroke-opacity="0.5" stroke-width="13.0" stroke-linecap="round" stroke-linejoin="round" d="M373.35 104.38C375.09 104.22 377.18 103.41 384.93 103.32C396.38 103.17 439.24 103.40 449.68 103.41C452.90 103.41 451.29 103.40 454.51 103.34C460.62 103.22 485.04 102.75 490.43 102.64"/><path fill="none" stroke="#98c2ff" stroke-opacity="0.5" stroke-width="13.0" stroke-linecap="round" stroke-linejoin="round" d="M33.93 119.32C33.30 119.26 28.51 119.09 29.75 118.91C30.98 118.73 35.77 118.03 42.18 118.11C48.59 118.18 63.87 119.37 72.50 119.40C81.13 119.42 94.95 118.44 99.71 118.28C102.71 118.17 101.21 118.23 104.22 118.28C114.44 118.45 157.77 119.27 167.82 119.44C170.08 119.48 168.95 119.41 171.22 119.39C180.68 119.30 221.45 118.97 230.86 118.86C232.95 118.84 231.90 118.67 233.99 118.67C244.95 118.63 293.02 118.63 303.96 118.62C305.97 118.62 304.97 118.65 306.97 118.62C315.52 118.51 352.36 117.98 360.96 117.86C363.17 117.83 362.06 117.84 364.28 117.82C368.77 117.78 382.15 117.50 390.90 117.57C399.66 117.64 417.31 118.17 422.64 118.28C425.16 118.33 423.90 118.27 426.42 118.28C434.59 118.31 469.06 118.45 477.11 118.50C479.08 118.52 478.09 118.58 480.06 118.62C483.10 118.69 494.57 119.02 497.38 118.97C498.41 118.95 498.56 118.38 498.77 118.28"/><path fill="none" stroke="#ffd873" stroke-opacity="0.5" stroke-width="13.0" stroke-linecap="round" stroke-linejoin="round" d="M32.19 87.36C37.89 87.25 57.37 86.51 70.19 86.66C83.00 86.81 107.15 88.08 117.61 88.34C128.07 88.59 133.77 88.49 139.92 88.38C146.08 88.27 152.73 88.01 158.62 87.61C164.51 87.20 175.43 86.03 179.21 85.68C182.27 85.39 181.16 85.44 183.81 85.28C186.46 85.11 190.13 84.67 196.86 84.58C203.59 84.50 214.01 84.28 228.67 84.70C243.33 85.13 283.67 86.95 294.60 87.42C299.21 87.61 296.90 87.66 301.51 87.82C307.02 88.01 313.57 89.07 331.31 88.68C349.05 88.29 405.63 85.75 419.79 85.22C423.75 85.07 421.77 85.17 425.74 85.14C431.39 85.09 447.56 84.75 457.48 84.93C467.41 85.11 488.90 86.16 491.90 86.32C494.90 86.49 480.90 86.13 477.49 86.02C474.08 85.91 474.72 85.72 469.16 85.58C457.87 85.29 421.15 84.68 402.22 84.07C383.29 83.46 355.63 81.96 342.97 81.51C330.31 81.06 325.09 81.09 317.80 81.08C310.51 81.07 303.71 81.11 294.37 81.46C285.03 81.81 262.50 83.07 255.53 83.39C250.44 83.62 252.98 83.49 247.89 83.57C239.07 83.70 214.63 84.52 196.75 84.25C178.87 83.99 139.70 82.18 128.67 81.80C125.04 81.68 126.48 81.72 123.22 81.74C119.97 81.75 112.12 81.67 106.94 81.92C101.77 82.17 98.79 82.30 88.73 83.40C78.67 84.51 50.06 87.76 39.88 89.28C29.69 90.79 23.74 92.86 20.82 93.52C20.56 93.58 20.40 93.38 20.44 93.65C20.50 94.13 20.72 95.89 21.23 96.72C21.74 97.55 21.91 98.41 23.83 99.18C25.74 99.95 31.08 101.28 34.01 101.85C36.93 102.42 37.08 102.54 43.33 102.97C50.27 103.44 65.64 104.66 80.25 105.03C94.86 105.40 130.33 105.39 140.73 105.45C146.60 105.48 145.90 105.46 149.54 105.43C153.18 105.40 164.73 106.01 165.01 105.24C165.29 104.46 155.97 101.46 151.41 100.27C146.85 99.08 145.96 98.08 134.61 97.27C120.70 96.29 70.96 94.23 58.66 93.68C54.65 93.50 56.65 93.38 52.64 93.59C48.07 93.84 32.43 94.86 28.19 95.33C25.49 95.63 24.97 96.37 24.38 96.75C23.78 97.13 24.09 97.49 24.24 97.85C24.40 98.21 24.80 98.74 25.42 99.13C26.04 99.52 27.14 100.05 28.38 100.45C29.61 100.86 30.07 101.24 33.67 101.80C39.04 102.64 55.69 105.21 64.19 106.04C72.69 106.87 82.58 107.23 90.31 107.34C98.03 107.44 110.14 106.91 115.67 106.74C121.20 106.58 119.51 106.72 127.17 106.22C134.95 105.71 160.66 104.05 167.51 103.34C171.24 102.95 171.75 102.04 172.82 101.49C173.89 100.95 174.33 100.07 174.65 99.69C174.96 99.32 174.86 99.25 174.95 99.00C175.04 98.76 175.37 98.29 175.25 98.06C175.13 97.83 174.98 97.60 174.17 97.47C172.28 97.16 170.38 96.52 162.68 96.03C148.07 95.10 90.35 91.96 76.75 91.25C73.60 91.08 75.17 91.13 72.03 91.28C66.99 91.52 48.69 93.63 43.19 92.83C37.70 92.02 36.87 87.45 35.37 85.92C33.88 84.40 33.59 83.20 33.21 82.64C32.99 82.31 32.46 82.22 32.85 82.17C36.75 81.67 51.83 79.83 59.17 79.31C66.52 78.79 75.46 78.18 81.84 78.71C88.21 79.24 98.70 82.22 101.67 82.84"/><path fill="none" stroke="#d1000d" stroke-width="1.5" stroke-linecap="round" stroke-linejoin="round" d="M180.19 129.74C179.87 129.09 178.71 126.19 178.10 125.39C177.49 124.60 177.48 124.74 176.13 124.42C174.78 124.09 173.85 123.44 169.10 123.22C163.22 122.95 143.00 122.46 136.92 122.60C131.23 122.74 129.97 123.89 128.53 124.18C127.72 124.35 128.13 124.28 127.34 124.53C126.50 124.80 123.83 125.57 122.98 125.96C122.14 126.35 122.11 126.49 121.69 127.12C121.27 127.76 120.46 129.29 120.16 130.17C119.87 131.04 119.71 132.15 119.70 132.96C119.70 133.77 119.87 134.90 120.12 135.57C120.37 136.24 120.34 136.59 121.37 137.44C122.40 138.28 125.78 140.51 126.98 141.20C128.17 141.88 127.68 141.82 129.33 142.03C131.69 142.33 137.35 143.20 142.70 143.21C148.05 143.22 159.19 142.66 165.00 142.09C170.80 141.52 177.92 140.15 181.43 139.40C184.93 138.65 187.21 137.59 188.37 137.11C189.11 136.81 189.05 137.03 189.19 136.24C189.32 135.46 189.54 133.06 189.28 131.89C189.03 130.71 188.38 129.35 187.48 128.40C186.58 127.46 184.44 126.16 183.29 125.58C182.14 125.01 182.21 124.79 179.81 124.58C176.99 124.34 171.67 123.56 164.49 123.96C157.30 124.36 137.21 126.72 131.90 127.26C130.03 127.45 130.38 127.47 129.10 127.55C127.82 127.64 124.57 127.48 123.36 127.83C122.14 128.18 121.36 128.83 121.01 129.89C120.66 130.95 120.65 133.55 121.01 134.89C121.37 136.23 122.71 138.00 123.38 138.84C124.06 139.67 124.14 139.93 125.50 140.48C126.86 141.03 128.17 142.11 132.45 142.50C136.72 142.89 149.96 142.99 154.00 143.06C157.58 143.12 157.01 143.09 159.38 142.98C161.74 142.88 166.37 142.78 169.75 142.37C173.13 141.95 179.59 140.85 181.91 140.24C184.24 139.63 184.69 138.78 185.27 138.29C185.85 137.79 185.78 137.49 185.80 136.94C185.82 136.38 185.46 134.95 185.40 134.60"/><path fill="none" stroke="#d1000d" stroke-width="1.5" stroke-linecap="round" stroke-linejoin="round" d="M30.45 128.35C34.63 128.19 47.70 127.39 58.32 127.25C68.94 127.10 92.56 127.23 101.23 127.38C109.89 127.53 113.19 128.11 116.08 128.25C118.98 128.40 117.57 128.32 120.53 128.33C128.32 128.34 153.72 128.53 168.02 128.34C182.32 128.15 207.86 127.27 215.87 127.06C219.55 126.97 217.71 126.99 221.40 126.98C237.34 126.90 306.37 126.64 322.18 126.59C325.27 126.58 323.73 126.57 326.81 126.61C342.51 126.77 411.13 127.52 426.82 127.72C429.90 127.76 428.36 127.88 431.44 127.94C440.46 128.14 478.63 128.88 486.95 129.05"/><path fill="none" stroke="#d1000d" stroke-width="1.5" stroke-linecap="round" stroke-linejoin="round" d="M30.80 142.60C39.78 142.62 76.25 142.59 90.64 142.74C105.03 142.89 120.65 143.46 126.74 143.60C129.76 143.66 128.25 143.63 131.27 143.65C144.25 143.70 200.29 143.94 213.24 143.99C216.13 144.00 214.68 143.92 217.58 143.96C225.04 144.06 248.75 144.84 263.00 144.63C277.25 144.43 305.12 142.90 312.55 142.60"/><path fill="none" stroke="#ffd873" stroke-opacity="0.5" stroke-width="13.0" stroke-linecap="round" stroke-linejoin="round" d="M128.77 133.56C129.67 133.93 130.48 135.62 134.79 136.01C139.60 136.44 155.59 136.68 160.85 136.47C166.12 136.25 168.29 135.04 169.88 134.58C171.13 134.22 171.15 133.75 171.43 133.40C171.71 133.04 172.05 132.75 171.73 132.20C171.42 131.65 171.24 130.50 169.34 129.75C167.44 129.00 162.79 127.64 159.07 127.20C155.35 126.77 148.04 126.71 144.56 126.84C141.08 126.97 137.63 127.75 135.87 128.05C134.11 128.35 133.88 128.43 132.83 128.82C131.78 129.21 129.38 130.06 128.85 130.66C128.31 131.25 128.97 132.25 129.25 132.80C129.54 133.36 130.04 133.91 130.73 134.36C131.42 134.80 132.65 135.43 133.84 135.79C135.03 136.15 136.99 136.55 138.67 136.75C140.35 136.96 141.86 137.24 145.03 137.14C148.20 137.03 155.08 136.68 159.80 136.04C164.51 135.40 173.32 133.65 176.48 132.87C179.59 132.10 180.15 131.28 180.84 130.82C181.41 130.45 181.45 130.26 181.08 129.82C180.71 129.39 179.19 128.34 178.37 127.91C177.55 127.49 177.26 127.35 175.63 127.01C174.00 126.68 170.38 125.86 167.50 125.67C164.61 125.48 160.67 125.35 156.39 125.74C152.11 126.12 142.63 127.61 138.98 128.26C135.33 128.90 133.45 129.54 132.06 130.03C130.68 130.52 129.83 130.95 129.75 131.51C129.68 132.06 130.89 133.18 131.56 133.74C132.23 134.30 132.47 134.62 134.23 135.24C135.99 135.87 141.04 137.42 143.30 137.92C145.56 138.42 146.50 138.51 149.31 138.55C152.12 138.59 159.26 138.31 162.01 138.16C164.76 138.01 165.06 137.99 167.64 137.54C170.21 137.09 177.31 135.77 179.16 135.17C180.34 134.78 179.88 134.32 179.97 133.49C180.07 132.67 180.92 130.55 179.79 129.68C178.66 128.82 176.91 128.15 172.44 127.74C167.96 127.32 154.18 127.02 149.97 126.90C146.22 126.79 147.53 126.77 144.35 126.90C141.16 127.03 131.64 127.45 128.73 127.76C126.08 128.05 125.78 128.56 124.92 128.98C124.07 129.40 123.04 129.87 123.03 130.56C123.02 131.24 124.28 132.88 124.87 133.54C125.46 134.20 125.42 134.36 126.95 134.94C128.47 135.52 131.91 136.81 135.05 137.40C138.18 137.98 144.04 138.61 147.86 138.85C151.68 139.09 157.85 139.04 160.50 139.01C163.16 138.99 162.59 139.06 165.55 138.69C168.52 138.33 177.61 137.27 180.28 136.61C182.77 135.99 182.81 135.11 183.35 134.28C183.89 133.45 184.33 132.04 183.88 131.06C183.43 130.08 181.83 128.47 180.34 127.75C178.85 127.03 177.69 126.47 173.94 126.26C170.20 126.05 159.15 126.27 155.36 126.35C151.58 126.43 153.04 126.43 148.69 126.80C144.35 127.17 130.25 128.32 126.40 128.80C124.02 129.10 123.27 129.55 123.00 130.01C122.74 130.46 124.36 131.55 124.60 131.83"/><path fill="none" stroke="#98c2ff" stroke-opacity="0.5" stroke-width="13.0" stroke-linecap="round" stroke-linejoin="round" d="M30.10 166.22C34.16 166.52 46.39 167.63 57.16 168.20C67.93 168.77 89.20 169.37 101.88 170.01C114.55 170.66 129.34 172.27 141.67 172.48C154.00 172.69 176.48 171.63 184.06 171.42C189.53 171.27 186.79 171.16 192.26 171.09C200.57 170.98 232.51 170.94 239.51 170.71C240.39 170.68 239.27 169.89 238.87 169.55C238.47 169.20 238.32 168.87 236.84 168.38C235.01 167.77 230.94 166.24 226.67 165.48C222.40 164.73 216.61 163.91 208.37 163.36C200.12 162.82 183.15 162.18 171.70 161.85C160.25 161.52 143.89 161.18 132.04 161.17C120.19 161.15 106.74 161.04 92.68 161.75C78.62 162.47 47.25 165.27 38.30 165.92C34.79 166.18 35.20 166.17 33.02 166.11C30.83 166.05 25.29 165.72 23.75 165.52C22.93 165.41 22.33 165.04 22.76 164.78C23.19 164.52 24.24 164.10 26.62 163.79C29.00 163.47 33.28 162.94 38.64 162.69C44.00 162.44 46.56 161.77 62.34 162.11C78.12 162.46 125.43 164.46 143.84 164.99C162.25 165.52 177.31 165.49 185.10 165.63C192.21 165.77 188.65 165.86 195.77 165.97C204.16 166.10 232.59 166.51 241.04 166.49C248.43 166.48 250.44 165.97 252.10 165.87C252.10 165.87 252.10 165.87 252.10 165.87C252.10 165.87 252.10 165.87 252.10 165.87"/><path fill="none" stroke="#d1000d" stroke-width="1.5" stroke-linecap="round" stroke-linejoin="round" d="M312.90 13.01C313.01 12.60 313.26 10.93 313.62 10.31C313.98 9.68 315.07 9.06 315.33 8.84"/><path fill="none" stroke="#d1000d" stroke-width="1.5" stroke-linecap="round" stroke-linejoin="round" d="M306.99 13.01C306.74 13.09 305.63 13.22 305.29 13.53C304.94 13.84 304.70 14.41 304.69 15.08C304.68 15.75 304.96 17.46 305.20 18.02C305.44 18.58 305.77 18.79 306.30 18.81C306.83 18.82 308.13 18.73 308.71 18.12C309.28 17.51 309.91 15.25 310.12 14.75"/><path fill="none" stroke="#d1000d" stroke-width="1.5" stroke-linecap="round" stroke-linejoin="round" d="M312.90 7.45C313.37 8.39 315.56 12.77 316.03 13.70"/><path fill="none" stroke="#d1000d" stroke-width="1.5" stroke-linecap="round" stroke-linejoin="round" d="M321.24 9.19C321.17 9.16 320.69 9.23 320.80 9.02C320.90 8.81 321.54 8.02 321.95 7.76C322.36 7.51 323.29 6.87 323.53 7.30C323.76 7.73 323.13 10.29 323.51 10.62C323.89 10.94 325.71 9.27 326.07 9.48C326.43 9.69 326.07 11.50 325.92 12.02C325.77 12.55 325.40 12.68 325.06 12.98C324.72 13.29 323.88 13.89 323.67 14.05"/><path fill="none" stroke="#d1000d" stroke-width="1.5" stroke-linecap="round" stroke-linejoin="round" d="M310.12 8.15C310.43 9.02 311.70 12.85 312.16 13.98C312.63 15.11 312.90 15.39 313.22 15.66C313.54 15.93 314.13 15.77 314.29 15.79"/><path fill="none" stroke="#d1000d" stroke-width="1.5" stroke-linecap="round" stroke-linejoin="round" d="M265.65 58.17C265.27 58.44 261.69 61.39 263.12 59.92C266.99 55.96 285.59 37.41 291.43 31.74C297.27 26.07 300.56 23.54 302.06 22.14C302.39 21.83 301.53 22.35 301.44 22.39"/><path fill="none" stroke="#ffd873" stroke-opacity="0.5" stroke-width="13.0" stroke-linecap="round" stroke-linejoin="round" d="M498.07 539.34C498.09 538.90 497.99 536.98 498.20 536.40C498.41 535.82 498.44 535.65 499.46 535.49C502.42 535.04 513.37 533.76 517.95 533.36C522.53 532.96 521.96 532.77 529.99 532.83C538.58 532.90 567.86 533.67 575.22 533.82C577.80 533.88 576.51 533.81 579.08 533.87C582.79 533.95 592.19 533.96 599.94 534.41C607.69 534.85 619.90 536.34 630.75 536.82C641.60 537.30 665.31 537.49 672.27 537.61C675.55 537.67 673.91 537.61 677.19 537.63C686.13 537.68 720.95 538.11 731.85 537.95C742.74 537.79 746.96 536.79 749.83 536.57C750.59 536.51 750.68 536.50 750.96 536.50C751.24 536.50 751.75 536.44 751.70 536.55C751.65 536.66 750.80 537.15 750.64 537.26"/><path fill="none" stroke="#ffd873" stroke-opacity="0.5" stroke-width="13.0" stroke-linecap="round" stroke-linejoin="round" d="M501.55 523.71C506.78 523.61 523.54 522.86 536.43 523.02C549.31 523.18 579.16 524.52 587.46 524.78C590.32 524.87 588.89 524.77 591.75 524.75C604.95 524.68 662.23 524.40 675.52 524.32C678.75 524.30 677.14 524.33 680.36 524.20C686.41 523.97 709.01 522.93 715.85 522.75C722.60 522.57 724.46 522.97 725.98 523.01"/><path fill="none" stroke="#ffd873" stroke-opacity="0.5" stroke-width="13.0" stroke-linecap="round" stroke-linejoin="round" d="M491.12 550.11C495.02 549.60 511.25 547.28 517.08 546.70C522.90 546.13 521.36 546.10 529.95 546.30C542.69 546.59 586.08 548.28 602.05 548.65C618.01 549.01 630.43 548.71 636.40 548.72C640.01 548.73 638.21 548.72 641.82 548.72C650.98 548.72 685.90 548.39 697.46 548.70C709.03 549.01 715.32 550.40 718.94 550.77C720.70 550.95 719.81 550.91 721.56 551.16C723.68 551.47 729.72 552.52 733.09 552.78C736.46 553.04 742.40 552.87 744.04 552.89"/><path fill="none" stroke="#79eb70" stroke-opacity="0.5" stroke-width="13.0" stroke-linecap="round" stroke-linejoin="round" d="M538.02 567.83C538.28 567.67 539.03 567.00 539.76 566.79C540.49 566.58 540.80 566.44 542.91 566.44C549.14 566.44 568.38 566.86 581.25 566.76C594.13 566.66 621.01 565.95 628.75 565.77C631.49 565.71 630.13 565.81 632.86 565.60C636.07 565.34 646.65 564.24 650.17 564.06C653.68 563.87 655.45 564.26 656.29 564.36C656.69 564.40 655.87 564.65 655.80 564.70"/><path fill="none" stroke="#ff9399" stroke-opacity="0.5" stroke-width="13.0" stroke-linecap="round" stroke-linejoin="round" d="M501.50 622.63C504.07 622.67 512.98 622.59 518.63 622.89C524.28 623.19 530.80 624.25 539.17 624.63C547.53 625.01 567.24 625.40 574.40 625.41C581.56 625.43 584.06 624.91 586.90 624.74C589.74 624.57 590.65 624.45 593.34 624.28C596.03 624.11 597.16 623.74 604.84 623.60C612.93 623.44 637.14 623.02 647.28 623.25C657.42 623.49 665.18 624.87 672.42 625.16C679.67 625.44 691.31 625.16 695.60 625.16C699.21 625.17 697.41 625.37 701.01 625.18C711.12 624.65 753.70 622.16 763.00 621.63"/><path fill="none" stroke="#d1000d" stroke-width="1.5" stroke-linecap="round" stroke-linejoin="round" d="M536.29 572.69C538.30 572.67 544.73 572.38 549.73 572.54C554.73 572.70 560.09 573.54 569.62 573.76C579.16 573.98 606.29 573.96 613.32 574.02C615.40 574.03 614.36 574.07 616.45 574.13C622.14 574.29 646.06 574.98 651.28 575.13"/><path fill="none" stroke="#ff9399" stroke-opacity="0.5" stroke-width="13.0" stroke-linecap="round" stroke-linejoin="round" d="M504.00 654.13C503.92 653.98 502.76 653.15 503.50 653.13C508.60 652.96 528.43 653.31 538.03 653.02C547.63 652.73 558.83 651.56 567.48 651.19C576.13 650.83 591.06 650.70 595.72 650.61C597.60 650.58 597.45 650.62 598.54 650.63C599.63 650.63 602.33 650.63 603.00 650.63"/><path fill="none" stroke="#ff9399" stroke-opacity="0.5" stroke-width="13.0" stroke-linecap="round" stroke-linejoin="round" d="M523.00 635.13C522.53 635.17 521.88 634.83 519.87 635.44C517.64 636.11 506.90 639.07 508.13 639.64C509.36 640.21 523.85 639.32 528.08 639.23C532.30 639.13 530.81 639.17 536.29 639.03C547.94 638.71 584.79 637.43 605.74 637.13C626.69 636.84 664.61 637.09 675.96 637.07C679.59 637.06 677.77 637.02 681.41 636.97C691.32 636.83 732.91 636.25 742.00 636.13"/>
</svg>