<?xml version="1.0" encoding="UTF-8"?>
<!DOCTYPE svg PUBLIC "-//W3C//DTD SVG 1.1//EN" "http://www.w3.org/Graphics/SVG/1.1/DTD/svg11.dtd">
<svg  xmlns="http://www.w3.org/2000/svg" xmlns:xlink="http://www.w3.org/1999/xlink" viewport-fill="none" viewBox="0.0, 0.0, 126.14998509121432, 126.17034808059043" version="1.1" height="126.17034808059043" width="126.14998509121432">
<path fill="none" stroke="#d1000d" stroke-width="2.5" stroke-linecap="round" stroke-linejoin="round" d="M40.26 90.61C40.15 90.72 39.72 90.67 39.55 91.32C39.36 92.03 38.73 92.89 38.99 95.33C39.25 97.78 40.99 108.44 41.30 107.64C41.62 106.84 41.09 93.35 41.10 89.99C41.11 86.81 41.18 86.27 41.37 85.23C41.57 84.20 42.02 83.25 42.41 83.11C42.80 82.96 43.33 83.45 43.96 84.26C44.60 85.07 45.31 85.98 46.63 88.51C47.94 91.04 51.03 98.55 52.74 101.10C54.44 103.65 57.21 104.85 58.00 105.52"/><path fill="none" stroke="#d1000d" stroke-width="2.5" stroke-linecap="round" stroke-linejoin="round" d="M40.97 103.39C40.93 103.19 40.60 102.49 40.71 102.07C40.82 101.65 41.16 101.09 41.71 100.60C42.27 100.12 43.25 99.46 44.41 98.82C45.58 98.17 47.87 96.88 49.48 96.29C51.10 95.70 54.31 95.08 55.16 94.87"/><path fill="none" stroke="#d1000d" stroke-width="2.5" stroke-linecap="round" stroke-linejoin="round" d="M68.65 91.32C68.65 91.21 69.04 90.87 68.65 90.61C68.13 90.26 66.10 89.29 65.18 89.02C64.26 88.74 63.36 88.66 62.52 88.77C61.68 88.88 60.35 89.26 59.57 89.74C58.79 90.21 57.81 91.10 57.31 91.93C56.81 92.76 56.29 94.22 56.21 95.27C56.13 96.32 56.31 98.01 56.78 98.92C57.25 99.83 58.41 100.87 59.33 101.35C60.25 101.83 61.81 102.21 62.90 102.10C63.98 102.00 65.60 101.34 66.56 100.67C67.52 99.99 68.72 98.57 69.28 97.60C69.84 96.63 70.21 95.15 70.30 94.20C70.39 93.25 70.12 91.85 69.88 91.25C69.64 90.66 69.02 90.16 68.71 90.22C68.40 90.28 67.91 90.80 67.81 91.64C67.71 92.48 67.48 93.13 68.03 95.82C68.58 98.51 70.77 106.51 71.46 109.57C72.15 112.63 72.54 114.51 72.63 116.22C72.71 117.92 72.52 119.87 72.04 120.94C71.56 122.00 70.43 122.93 69.45 123.33C68.48 123.74 66.71 123.69 65.53 123.63C64.35 123.58 62.41 123.32 61.60 122.95C60.79 122.57 60.24 121.72 60.13 121.13C60.02 120.54 60.73 119.32 60.84 119.00"/><path fill="none" stroke="#d1000d" stroke-width="2.5" stroke-linecap="round" stroke-linejoin="round" d="M76.45 94.16C76.90 93.97 78.36 93.76 79.42 92.90C80.48 92.04 82.77 89.50 83.50 88.43C84.23 87.36 84.26 86.47 84.27 85.77C84.28 85.07 83.98 84.15 83.57 83.74C83.17 83.33 82.25 82.99 81.57 83.05C80.88 83.11 79.72 83.56 79.00 84.15C78.28 84.74 77.29 85.98 76.77 86.99C76.25 88.00 75.71 89.70 75.52 90.89C75.34 92.08 75.33 93.91 75.54 94.93C75.75 95.94 76.37 97.04 76.93 97.63C77.49 98.23 78.40 98.92 79.26 98.90C80.13 98.88 81.30 98.64 82.69 97.50C84.08 96.36 87.64 92.25 88.52 91.32"/><path fill="none" stroke="#d1000d" stroke-width="2.5" stroke-linecap="round" stroke-linejoin="round" d="M92.07 79.96C91.99 79.96 91.62 79.73 91.51 79.91C91.41 80.09 91.41 80.32 91.39 81.16C91.35 82.91 91.09 91.90 91.25 91.59C91.41 91.27 91.96 81.62 92.47 79.08C92.99 76.55 94.14 75.28 94.69 74.69C95.25 74.09 95.76 74.69 96.16 75.10C96.56 75.52 96.86 75.77 97.36 77.45C97.91 79.35 99.39 86.22 99.88 87.77C100.02 88.22 100.48 87.77 100.59 87.77"/><path fill="none" stroke="#d1000d" stroke-width="2.5" stroke-linecap="round" stroke-linejoin="round" d="M102.72 61.51C102.69 61.39 102.39 60.17 102.56 60.70C103.16 62.53 105.83 70.83 106.69 73.75C107.54 76.67 107.98 78.59 108.24 80.16C108.49 81.73 108.37 83.61 108.39 84.22"/><path fill="none" stroke="#d1000d" stroke-width="2.5" stroke-linecap="round" stroke-linejoin="round" d="M102.01 76.41C102.05 75.78 100.59 73.28 102.29 72.21C104.00 71.15 111.70 69.75 113.36 69.32"/><path fill="none" stroke="#d1000d" stroke-width="2.5" stroke-linecap="round" stroke-linejoin="round" d="M120.46 67.90C120.22 67.55 119.32 65.96 118.84 65.60C118.35 65.23 117.71 65.34 117.23 65.46C116.75 65.57 115.97 65.94 115.62 66.35C115.27 66.77 114.96 67.54 114.88 68.23C114.81 68.93 114.21 69.38 115.12 70.98C116.39 73.19 122.31 80.76 123.35 83.00C124.25 84.95 122.93 85.02 122.07 85.95C121.21 86.88 118.61 88.60 117.62 89.19C116.63 89.78 115.81 89.79 115.49 89.90"/><path fill="none" stroke="#d1000d" stroke-width="2.5" stroke-linecap="round" stroke-linejoin="round" d="M19.67 109.77C19.76 110.20 19.62 111.78 20.28 112.64C20.93 113.51 23.24 115.09 24.01 115.55C24.79 116.02 25.13 115.85 25.43 115.74C25.74 115.64 26.21 115.47 26.04 114.87C25.87 114.27 24.83 112.39 24.30 111.73C23.77 111.07 23.10 110.72 22.53 110.49C21.96 110.26 21.12 110.14 20.50 110.19C19.88 110.24 19.37 110.03 18.39 110.82C17.40 111.62 14.56 114.70 13.93 115.47C13.70 115.75 13.81 115.98 14.17 115.96C15.41 115.89 20.47 115.16 22.17 114.99C23.88 114.83 24.68 114.94 25.52 114.86C26.36 114.78 27.34 114.67 27.79 114.45C28.24 114.22 28.72 114.14 28.52 113.36C28.31 112.58 27.21 110.33 26.42 109.24C25.64 108.14 23.91 106.44 23.28 106.06C22.65 105.68 22.31 105.87 22.22 106.69C21.98 108.77 21.88 117.98 21.73 119.96C21.70 120.31 21.31 120.22 21.20 119.88C20.64 118.05 18.30 109.23 17.95 107.70C17.63 106.28 18.55 109.04 18.91 109.67C19.28 110.30 19.74 111.36 20.38 111.90C21.03 112.45 22.80 113.11 23.22 113.32"/>
</svg>