<?xml version="1.0" encoding="UTF-8"?>
<!DOCTYPE svg PUBLIC "-//W3C//DTD SVG 1.1//EN" "http://www.w3.org/Graphics/SVG/1.1/DTD/svg11.dtd">
<svg  xmlns="http://www.w3.org/2000/svg" xmlns:xlink="http://www.w3.org/1999/xlink" viewport-fill="none" viewBox="0.0, 0.0, 1319.050727556653, 838.6806432600209" version="1.1" height="838.6806432600209" width="1319.050727556653">
<path fill="none" stroke="#823ede" stroke-width="2.5" stroke-linecap="round" stroke-linejoin="round" d="M601.17 530.91C600.75 531.01 598.68 530.12 598.37 531.63C598.07 533.14 598.66 541.09 599.13 540.98C599.60 540.87 600.91 532.48 601.49 530.87C601.85 529.85 602.17 529.84 602.99 530.25C603.80 530.66 605.98 532.86 606.91 533.60C607.84 534.34 608.47 534.90 609.19 535.16C609.91 535.41 610.95 535.57 611.70 535.30C612.45 535.04 613.50 534.15 614.19 533.39C614.89 532.63 615.80 531.27 616.32 530.24C616.84 529.22 617.48 527.61 617.68 526.58C617.88 525.56 617.84 524.17 617.63 523.42C617.42 522.66 616.83 521.88 616.28 521.53C615.73 521.19 614.71 520.99 613.97 521.13C613.24 521.27 612.06 521.86 611.39 522.48C610.73 523.10 609.87 524.32 609.54 525.25C609.21 526.17 609.07 527.72 609.19 528.66C609.30 529.59 609.78 530.89 610.32 531.48C610.87 532.06 611.98 532.53 612.80 532.54C613.63 532.55 615.00 532.10 615.81 531.52C616.62 530.95 617.67 529.83 618.21 528.70C618.76 527.58 618.45 522.69 619.46 524.03C620.48 525.38 623.57 533.86 624.99 537.65C626.41 541.45 627.93 545.69 628.92 549.34C629.91 552.99 631.29 558.32 631.58 561.97C631.87 565.62 631.51 571.10 630.87 573.67C630.23 576.24 628.51 578.43 627.33 579.09C626.15 579.75 624.25 579.32 623.01 578.07C621.78 576.81 619.77 573.60 619.12 570.72C618.47 567.84 618.28 562.83 618.67 558.88C619.07 554.93 620.76 547.74 621.76 544.39C622.75 541.05 624.77 537.75 625.30 536.58"/><path fill="none" stroke="#d1000d" stroke-width="2.5" stroke-linecap="round" stroke-linejoin="round" d="M1294.61 467.03C1294.51 466.43 1294.24 464.10 1293.90 463.03C1293.57 461.96 1292.96 460.53 1292.40 459.90C1291.83 459.27 1290.78 458.85 1290.14 458.82C1289.50 458.79 1288.66 459.04 1288.13 459.70C1287.60 460.36 1286.85 461.97 1286.62 463.21C1286.39 464.45 1286.37 466.53 1286.58 467.95C1286.80 469.37 1287.44 471.51 1288.06 472.67C1288.69 473.82 1289.87 475.15 1290.77 475.66C1291.67 476.17 1293.15 476.30 1294.03 476.07C1294.91 475.84 1296.01 474.96 1296.63 474.14C1297.25 473.32 1297.82 472.11 1298.18 470.59C1298.54 469.07 1298.68 464.93 1299.05 464.00C1299.41 463.07 1299.86 463.63 1300.60 464.40C1301.33 465.17 1302.72 467.04 1303.95 469.13C1305.18 471.21 1307.33 475.04 1308.77 478.30C1310.22 481.56 1312.42 487.04 1313.57 490.86C1314.71 494.69 1316.06 500.21 1316.40 503.81C1316.74 507.42 1316.47 512.14 1315.84 514.88C1315.21 517.63 1313.51 520.67 1312.19 522.10C1310.88 523.53 1308.42 524.64 1307.07 524.42C1305.71 524.20 1304.08 522.32 1303.18 520.61C1302.28 518.91 1301.01 516.08 1301.07 513.03C1301.12 509.97 1302.06 505.66 1303.54 500.25C1305.03 494.84 1309.83 480.46 1310.94 476.96"/><path fill="none" stroke="#d1000d" stroke-width="2.5" stroke-linecap="round" stroke-linejoin="round" d="M677.12 814.81C677.44 815.09 678.61 816.48 679.27 816.68C679.94 816.89 681.27 816.66 681.52 816.17C681.77 815.69 681.19 813.95 680.96 813.45C680.73 812.95 680.32 812.84 679.97 812.83C679.61 812.81 679.25 812.62 678.59 813.34C677.70 814.32 674.69 818.73 674.04 819.34C673.40 819.96 673.99 817.93 674.29 817.44C674.60 816.96 675.05 816.41 676.07 816.08C677.10 815.76 680.05 815.28 681.12 815.26C682.19 815.25 682.75 815.77 683.18 815.99C683.61 816.21 684.17 816.70 684.00 816.71C683.83 816.73 683.03 816.70 682.04 816.11C681.04 815.52 678.06 812.00 677.35 812.78C676.65 813.56 677.48 819.92 677.36 821.32C677.29 822.10 676.88 822.11 676.54 822.14C676.19 822.17 675.55 822.11 675.05 821.53C674.54 820.95 673.36 818.94 673.16 818.29C672.97 817.63 673.38 817.43 673.76 817.17C674.15 816.90 674.34 816.52 675.73 816.49C677.40 816.46 683.54 816.87 684.92 816.94"/><path fill="none" stroke="#d1000d" stroke-width="2.5" stroke-linecap="round" stroke-linejoin="round" d="M699.83 804.87C699.73 804.72 699.04 803.08 699.17 803.87C699.55 806.10 702.67 820.04 702.37 819.75C702.06 819.46 698.08 805.46 697.17 801.94C696.25 798.42 696.28 797.53 696.24 796.29C696.21 795.06 696.48 794.01 696.94 793.72C697.40 793.42 698.14 793.18 699.31 794.32C700.77 795.74 704.75 800.48 706.72 803.21C708.69 805.93 711.57 810.95 712.45 812.48C712.76 813.01 712.69 813.25 712.61 813.39C712.52 813.53 712.00 813.39 711.90 813.39"/><path fill="none" stroke="#d1000d" stroke-width="2.5" stroke-linecap="round" stroke-linejoin="round" d="M701.25 810.55C701.11 810.28 699.23 809.53 700.33 808.73C701.50 807.88 707.75 805.45 709.06 804.87"/><path fill="none" stroke="#d1000d" stroke-width="2.5" stroke-linecap="round" stroke-linejoin="round" d="M719.70 798.49C719.79 798.38 720.57 798.05 720.30 797.75C720.03 797.44 718.56 796.53 717.91 796.46C717.26 796.39 716.50 796.81 715.98 797.27C715.46 797.73 714.74 798.68 714.42 799.53C714.11 800.39 713.84 801.96 713.89 802.96C713.94 803.97 714.32 805.48 714.77 806.25C715.22 807.02 716.21 807.87 716.91 808.13C717.62 808.38 718.75 808.33 719.47 807.96C720.19 807.60 721.21 806.49 721.73 805.67C722.26 804.85 722.79 803.46 722.97 802.51C723.16 801.57 723.08 800.11 722.95 799.37C722.82 798.62 722.32 797.75 722.13 797.55C721.94 797.35 721.62 797.62 721.70 798.05C721.81 798.64 721.83 799.31 722.86 801.54C724.15 804.32 728.66 812.99 730.29 816.54C731.93 820.09 733.08 822.88 733.73 825.19C734.38 827.49 734.85 830.37 734.64 831.92C734.44 833.46 733.34 834.85 732.35 835.48C731.36 836.10 729.39 836.33 728.04 836.08C726.69 835.83 724.52 834.78 723.35 833.81C722.18 832.84 720.83 831.09 720.25 829.63C719.68 828.16 719.41 825.88 719.52 824.03C719.64 822.17 720.32 819.29 721.01 817.25C721.71 815.21 722.69 812.93 724.16 810.43C725.64 807.94 729.57 802.33 730.85 800.61C731.83 799.29 732.30 799.19 732.67 798.96C733.02 798.73 733.23 798.77 733.29 799.08C733.34 799.38 732.94 800.92 733.05 801.00C733.16 801.09 733.74 800.51 734.01 799.64C734.28 798.77 734.80 796.22 734.84 795.21C734.87 794.20 734.50 793.50 734.24 792.93C733.99 792.35 733.48 791.64 733.12 791.38C732.76 791.12 732.20 791.01 731.84 791.19C731.49 791.36 730.96 791.86 730.76 792.55C730.55 793.24 730.43 794.67 730.49 795.79C730.55 796.91 730.81 798.82 731.15 800.04C731.49 801.27 732.18 802.88 732.73 803.95C733.29 805.01 734.14 806.64 734.84 807.17C735.54 807.69 736.68 807.80 737.40 807.46C738.11 807.11 739.14 805.58 739.58 804.87C740.01 804.17 740.18 803.06 740.29 802.75"/><path fill="none" stroke="#d1000d" stroke-width="2.5" stroke-linecap="round" stroke-linejoin="round" d="M741.00 789.26C740.89 789.33 740.12 789.18 740.29 789.72C740.75 791.25 743.69 799.15 744.06 799.47C744.43 799.80 742.97 794.08 742.73 791.87C742.49 789.66 742.37 785.88 742.46 784.75C742.51 784.12 742.98 783.85 743.33 784.37C744.28 785.79 747.66 792.43 748.80 794.23C749.88 795.92 750.61 796.04 750.93 796.36"/><path fill="none" stroke="#d1000d" stroke-width="2.5" stroke-linecap="round" stroke-linejoin="round" d="M749.51 771.52C749.43 771.11 748.96 768.57 748.96 768.83C748.95 769.10 749.14 771.87 749.47 773.28C749.80 774.69 749.97 775.31 751.16 778.24C752.35 781.18 757.83 792.21 757.42 792.83C757.00 793.45 749.68 784.10 748.38 782.39C747.96 781.84 748.10 781.72 748.72 781.41C750.27 780.62 756.92 778.00 758.69 777.14C760.07 776.46 760.12 776.08 760.46 775.66C760.80 775.24 760.96 774.63 760.96 774.34C760.96 774.06 760.74 773.80 760.44 773.77C760.15 773.73 759.42 773.86 759.01 774.13C758.60 774.40 757.95 775.01 757.71 775.56C757.47 776.10 757.32 777.10 757.40 777.79C757.48 778.47 757.01 779.02 758.25 780.13C759.62 781.36 765.08 784.72 766.52 785.97C767.94 787.20 767.86 787.53 767.86 788.45C767.87 789.37 767.38 790.81 766.55 792.10C765.71 793.39 762.93 796.32 762.29 797.07"/>
</svg>