<?xml version="1.0" encoding="UTF-8"?>
<!DOCTYPE svg PUBLIC "-//W3C//DTD SVG 1.1//EN" "http://www.w3.org/Graphics/SVG/1.1/DTD/svg11.dtd">
<svg  xmlns="http://www.w3.org/2000/svg" xmlns:xlink="http://www.w3.org/1999/xlink" viewport-fill="none" viewBox="0.0, 0.0, 145.9862518310547, 98.3271405968491" version="1.1" height="98.3271405968491" width="145.9862518310547">
<path fill="none" stroke="#004dc0" stroke-width="2.5" stroke-linecap="round" stroke-linejoin="round" d="M63.28 86.28C63.22 85.92 62.12 83.31 62.86 83.90C63.60 84.49 67.22 89.05 68.23 90.20C69.08 91.16 69.32 91.36 69.63 91.53C69.93 91.70 70.30 91.79 70.27 91.34C70.22 90.65 69.65 87.91 69.27 86.90C68.90 85.89 68.21 85.07 67.76 84.63C67.30 84.20 66.68 83.85 66.27 84.00C65.86 84.14 65.34 84.29 65.04 85.60C64.63 87.34 63.88 94.12 63.57 95.61C63.50 95.96 63.18 95.85 63.03 95.52C62.87 95.14 62.60 93.96 62.46 93.07C62.31 92.17 62.09 90.55 62.05 89.58C62.00 88.61 61.96 87.28 62.17 86.61C62.38 85.93 62.94 85.31 63.44 85.06C63.94 84.81 64.15 84.63 65.50 84.91C66.86 85.20 71.03 86.67 72.51 86.99C73.99 87.30 74.92 86.99 75.35 86.99"/><path fill="none" stroke="#004dc0" stroke-width="2.5" stroke-linecap="round" stroke-linejoin="round" d="M85.29 70.66C85.32 70.47 84.80 68.89 85.49 69.40C86.97 70.47 92.90 75.71 95.11 77.82C97.31 79.92 99.43 82.59 100.19 83.44"/><path fill="none" stroke="#004dc0" stroke-width="2.5" stroke-linecap="round" stroke-linejoin="round" d="M95.22 66.40C95.16 65.96 95.20 62.73 94.80 63.45C94.40 64.17 93.25 67.66 92.57 71.19C91.89 74.72 90.60 84.62 90.25 86.99"/><path fill="none" stroke="#004dc0" stroke-width="2.5" stroke-linecap="round" stroke-linejoin="round" d="M106.58 66.40C106.57 66.29 106.39 65.15 106.53 65.64C107.18 67.92 110.97 82.38 110.92 81.57C110.86 80.76 106.96 64.39 106.15 60.22C105.33 56.05 105.42 55.19 105.46 53.80C105.49 52.40 105.88 51.22 106.37 50.90C106.87 50.59 107.90 51.01 108.74 51.70C109.59 52.39 110.23 52.67 112.02 55.50C114.03 58.68 120.56 70.19 122.16 72.93C122.49 73.49 122.85 73.62 122.75 73.71C122.65 73.79 121.67 73.53 121.48 73.50"/><path fill="none" stroke="#004dc0" stroke-width="2.5" stroke-linecap="round" stroke-linejoin="round" d="M108.71 69.95C108.68 69.63 108.48 68.31 108.55 67.82C108.62 67.33 108.46 67.17 109.17 66.69C110.57 65.73 116.62 62.22 117.93 61.43"/><path fill="none" stroke="#004dc0" stroke-width="2.5" stroke-linecap="round" stroke-linejoin="round" d="M127.16 47.95C127.11 47.79 126.68 46.43 126.85 46.89C127.01 47.36 127.16 48.99 128.27 51.06C129.39 53.14 133.36 59.06 134.26 60.72C134.71 61.56 134.26 61.93 134.26 62.14"/><path fill="none" stroke="#004dc0" stroke-width="2.5" stroke-linecap="round" stroke-linejoin="round" d="M130.00 67.82C130.31 67.75 130.88 68.02 132.03 67.35C133.18 66.68 136.27 64.46 137.66 63.36C139.06 62.26 140.48 61.05 141.36 60.01C142.23 58.98 143.17 57.00 143.49 56.47"/><path fill="none" stroke="#004dc0" stroke-width="2.5" stroke-linecap="round" stroke-linejoin="round" d="M121.48 48.66C121.45 48.88 120.47 50.69 121.25 50.11C123.28 48.62 132.91 40.43 134.97 38.72"/>
</svg>