<?xml version="1.0" encoding="UTF-8"?>
<!DOCTYPE svg PUBLIC "-//W3C//DTD SVG 1.1//EN" "http://www.w3.org/Graphics/SVG/1.1/DTD/svg11.dtd">
<svg  xmlns="http://www.w3.org/2000/svg" xmlns:xlink="http://www.w3.org/1999/xlink" viewport-fill="none" viewBox="0.0, 0.0, 214.70632934570312, 136.94162708537564" version="1.1" height="136.94162708537564" width="214.70632934570312">
<path fill="none" stroke="#823ede" stroke-width="2.5" stroke-linecap="round" stroke-linejoin="round" d="M67.41 101.18C67.71 101.08 68.76 100.56 69.39 100.52C70.01 100.48 70.55 100.41 71.59 100.90C72.62 101.39 75.90 104.31 76.30 103.78C76.70 103.25 74.72 98.58 74.26 97.36C73.80 96.14 73.60 95.91 73.25 95.64C72.91 95.37 72.42 94.84 71.95 95.57C70.88 97.24 66.74 105.28 66.10 106.78C65.58 108.00 67.04 106.01 67.67 105.58C68.30 105.15 68.96 104.79 70.30 103.92C71.65 103.04 75.69 100.38 76.64 99.76"/><path fill="none" stroke="#823ede" stroke-width="2.5" stroke-linecap="round" stroke-linejoin="round" d="M91.55 91.24C91.65 91.26 92.07 91.07 92.26 91.35C92.44 91.63 92.59 91.89 92.76 93.09C92.97 94.45 93.79 100.85 93.60 100.38C93.41 99.92 91.80 92.51 91.49 90.00C91.19 87.49 91.32 84.57 91.55 83.66C91.79 82.75 92.54 83.55 93.05 83.92C93.56 84.30 94.03 84.64 94.94 86.15C95.85 87.67 98.50 93.53 99.10 94.04C99.70 94.55 99.02 90.95 98.94 89.56C98.87 88.16 98.61 86.59 98.60 84.74C98.58 82.89 98.65 78.36 98.84 77.20C98.96 76.51 99.55 76.39 99.89 77.01C101.13 79.26 105.81 89.85 107.11 92.20C107.61 93.10 108.36 92.59 108.58 92.66"/><path fill="none" stroke="#823ede" stroke-width="2.5" stroke-linecap="round" stroke-linejoin="round" d="M110.00 83.44C109.98 83.22 109.40 81.26 109.89 81.99C110.37 82.71 112.48 87.15 113.23 88.27C113.99 89.38 114.42 89.32 114.90 89.44C115.39 89.56 115.96 89.93 116.47 89.07C116.97 88.20 117.98 85.59 118.27 83.67C118.57 81.75 118.26 76.50 118.44 76.26C118.62 76.01 119.15 80.78 119.47 82.03C119.79 83.29 120.19 84.04 120.58 84.62C120.98 85.20 121.63 85.81 122.10 85.92C122.57 86.02 123.27 85.82 123.70 85.31C124.14 84.79 124.72 83.57 125.00 82.49C125.28 81.41 125.55 79.53 125.57 78.11C125.59 76.69 125.36 74.50 125.14 73.03C124.91 71.55 124.59 69.70 124.06 68.25C123.53 66.80 121.91 63.57 121.62 63.37C121.33 63.17 121.39 64.64 122.14 66.91C123.05 69.68 126.57 79.07 127.72 81.84C128.76 84.38 129.23 84.75 129.77 85.41C130.31 86.08 130.85 86.36 131.29 86.28C131.73 86.19 132.50 85.07 132.71 84.86"/><path fill="none" stroke="#823ede" stroke-width="2.5" stroke-linecap="round" stroke-linejoin="round" d="M134.13 67.11C134.11 66.46 133.61 62.18 133.96 62.74C134.31 63.30 135.40 68.01 136.49 70.82C137.59 73.63 140.68 79.78 141.28 81.46C141.49 82.05 140.63 81.93 140.52 82.02"/><path fill="none" stroke="#823ede" stroke-width="2.5" stroke-linecap="round" stroke-linejoin="round" d="M132.71 75.63C132.73 75.35 131.70 74.34 132.80 73.79C134.29 73.04 141.17 71.13 142.65 70.66"/><path fill="none" stroke="#823ede" stroke-width="2.5" stroke-linecap="round" stroke-linejoin="round" d="M144.07 69.24C144.06 69.14 143.79 68.21 144.02 68.58C144.66 69.65 147.68 75.28 148.33 76.34C148.57 76.74 148.33 75.74 148.33 75.63"/><path fill="none" stroke="#823ede" stroke-width="2.5" stroke-linecap="round" stroke-linejoin="round" d="M143.36 64.98C143.04 64.40 141.23 61.41 141.23 61.09C141.23 60.77 143.04 62.59 143.36 62.85"/><path fill="none" stroke="#823ede" stroke-width="2.5" stroke-linecap="round" stroke-linejoin="round" d="M156.13 60.72C156.12 60.20 156.21 57.87 156.05 57.26C155.88 56.65 155.39 56.69 155.04 56.64C154.69 56.59 154.38 56.35 153.72 56.95C153.05 57.55 151.16 59.73 150.58 60.66C150.00 61.60 149.92 62.49 149.85 63.19C149.78 63.89 149.84 64.80 150.12 65.35C150.40 65.90 150.33 66.35 151.69 66.86C153.06 67.36 157.95 68.30 159.21 68.72C159.99 68.97 159.96 69.29 160.05 69.61C160.14 69.94 160.19 70.42 159.82 70.86C159.44 71.30 158.75 72.03 157.55 72.53C156.36 73.03 152.73 73.96 151.88 74.21"/><path fill="none" stroke="#823ede" stroke-width="2.5" stroke-linecap="round" stroke-linejoin="round" d="M167.49 53.63C167.25 53.67 166.54 53.28 165.89 53.94C165.23 54.61 163.65 56.91 163.12 58.05C162.59 59.18 162.33 60.57 162.34 61.52C162.35 62.47 162.80 63.62 163.19 64.40C163.59 65.17 164.19 66.35 164.97 66.68C165.75 67.01 167.07 67.28 168.41 66.59C169.74 65.91 173.06 62.81 173.88 62.14"/><path fill="none" stroke="#823ede" stroke-width="2.5" stroke-linecap="round" stroke-linejoin="round" d="M176.72 52.92C176.28 52.62 174.38 51.08 173.82 50.96C173.26 50.84 173.27 51.21 172.99 52.12C172.69 53.07 171.96 56.12 171.83 57.32C171.71 58.53 171.95 59.48 172.15 60.16C172.36 60.83 172.78 61.61 173.22 61.83C173.66 62.06 174.52 61.94 175.08 61.66C175.65 61.38 176.46 60.61 176.97 59.96C177.48 59.31 178.11 58.35 178.50 57.31C178.89 56.28 179.15 53.33 179.58 53.04C180.01 52.76 180.78 55.00 181.37 55.42C181.96 55.85 182.80 55.98 183.49 55.87C184.18 55.76 185.33 55.39 185.98 54.68C186.63 53.97 187.47 52.42 187.82 51.13C188.18 49.85 188.44 47.72 188.35 46.11C188.26 44.50 187.73 41.98 187.21 40.40C186.69 38.83 185.61 36.72 184.90 35.61C184.18 34.50 183.08 33.36 182.44 32.99C181.81 32.62 180.98 32.64 180.66 33.16C180.33 33.69 180.18 35.17 180.27 36.50C180.36 37.82 180.82 40.18 181.27 41.98C181.71 43.78 182.56 46.66 183.25 48.48C183.94 50.29 185.04 52.60 185.85 54.05C186.67 55.51 187.89 57.43 188.67 58.16C189.45 58.90 190.41 59.20 191.07 58.94C191.72 58.69 192.64 57.16 193.04 56.47C193.45 55.77 193.65 54.66 193.75 54.34"/><path fill="none" stroke="#823ede" stroke-width="2.5" stroke-linecap="round" stroke-linejoin="round" d="M195.88 48.66C195.87 48.35 195.44 47.93 195.80 46.62C196.17 45.21 198.02 40.71 198.41 39.30C198.78 37.97 198.49 37.65 198.37 37.23C198.26 36.82 197.95 36.41 197.64 36.54C197.33 36.67 196.66 37.30 196.31 38.09C195.96 38.88 195.39 40.59 195.32 41.80C195.24 43.01 195.48 44.83 195.79 46.14C196.10 47.46 196.51 49.69 197.40 50.58C198.28 51.46 200.08 52.23 201.66 52.05C203.25 51.87 206.37 50.30 207.95 49.37C209.53 48.43 211.57 46.35 212.21 45.82"/><path fill="none" stroke="#823ede" stroke-width="2.5" stroke-linecap="round" stroke-linejoin="round" d="M119.23 122.47C119.80 124.27 122.95 134.12 123.04 134.43C123.13 134.74 120.52 127.20 119.82 124.56C119.12 121.92 118.45 118.03 118.37 116.83C118.33 116.19 118.85 116.26 119.30 116.56C119.75 116.86 120.26 117.10 121.36 118.82C122.56 120.72 126.35 128.29 127.34 129.19C128.32 130.10 127.92 127.05 127.95 124.86C127.97 122.68 127.55 116.66 127.52 114.61C127.50 112.57 127.65 111.85 127.78 111.24C127.90 110.64 128.07 110.35 128.39 110.56C128.72 110.77 129.14 111.11 129.94 112.64C130.83 114.34 133.07 119.65 134.34 121.87C135.61 124.09 137.78 126.61 138.39 127.44"/><path fill="none" stroke="#823ede" stroke-width="2.5" stroke-linecap="round" stroke-linejoin="round" d="M144.78 117.51C144.49 117.02 143.51 114.72 142.88 114.24C142.25 113.77 141.15 113.70 140.60 114.34C140.05 114.97 139.41 117.44 139.20 118.49C138.99 119.53 139.09 120.53 139.23 121.29C139.36 122.06 139.75 123.03 140.10 123.58C140.45 124.13 141.07 124.75 141.55 124.96C142.03 125.17 142.76 125.11 143.29 124.97C143.83 124.82 144.68 124.38 145.11 123.98C145.55 123.57 146.04 122.92 146.20 122.27C146.36 121.62 146.20 120.03 146.20 119.63"/><path fill="none" stroke="#823ede" stroke-width="2.5" stroke-linecap="round" stroke-linejoin="round" d="M149.75 103.31C149.74 102.68 148.68 97.21 149.71 99.09C150.75 100.97 156.61 113.88 156.65 115.86C156.70 117.84 151.21 112.72 150.02 112.28C149.12 111.95 149.02 112.63 148.73 112.94C148.45 113.25 148.04 113.57 148.10 114.34C148.17 115.12 148.80 117.43 149.18 118.13C149.56 118.82 150.05 118.86 150.66 118.98C151.28 119.10 152.58 119.15 153.30 118.93C154.01 118.70 155.11 117.72 155.43 117.51"/><path fill="none" stroke="#823ede" stroke-width="2.5" stroke-linecap="round" stroke-linejoin="round" d="M161.10 111.12C161.75 110.42 164.64 107.54 165.40 106.48C166.17 105.42 166.13 104.73 166.21 104.04C166.28 103.36 166.17 102.44 165.90 101.91C165.63 101.38 164.95 100.78 164.42 100.53C163.90 100.28 163.00 100.03 162.43 100.22C161.86 100.41 161.06 101.12 160.64 101.79C160.23 102.47 159.76 103.70 159.66 104.69C159.55 105.69 159.65 107.39 159.93 108.44C160.21 109.50 160.89 111.06 161.53 111.73C162.18 112.40 163.33 112.79 164.23 112.90C165.14 113.02 166.52 113.09 167.55 112.50C168.58 111.91 170.04 110.53 171.09 108.94C172.15 107.35 174.06 102.95 174.59 101.89"/><path fill="none" stroke="#823ede" stroke-width="2.5" stroke-linecap="round" stroke-linejoin="round" d="M171.04 93.37C170.81 92.75 169.17 88.28 169.48 89.20C169.78 90.12 171.87 96.81 173.05 99.51C174.23 102.21 176.41 105.86 177.33 107.19C178.17 108.40 178.68 108.33 179.21 108.36C179.74 108.39 180.45 107.96 180.86 107.39C181.27 106.81 181.69 106.02 181.92 104.54C182.14 103.05 182.41 98.98 182.37 97.51C182.34 96.03 181.59 93.96 181.70 94.72C181.80 95.48 182.77 101.19 183.08 102.57C183.29 103.54 183.60 103.81 183.71 103.92C183.82 104.03 183.80 103.40 183.82 103.31"/><path fill="none" stroke="#823ede" stroke-width="2.5" stroke-linecap="round" stroke-linejoin="round" d="M178.14 90.53C178.15 90.15 177.83 88.09 178.25 87.98C178.68 87.88 180.57 89.55 180.98 89.82"/>
</svg>