<?xml version="1.0" encoding="UTF-8"?>
<!DOCTYPE svg PUBLIC "-//W3C//DTD SVG 1.1//EN" "http://www.w3.org/Graphics/SVG/1.1/DTD/svg11.dtd">
<svg  xmlns="http://www.w3.org/2000/svg" xmlns:xlink="http://www.w3.org/1999/xlink" viewport-fill="none" viewBox="0.0, 0.0, 197.04711948574462, 156.40944255003188" version="1.1" height="156.40944255003188" width="197.04711948574462">
<path fill="none" stroke="#823ede" stroke-width="2.5" stroke-linecap="round" stroke-linejoin="round" d="M36.89 104.73C36.83 104.23 35.46 100.79 36.44 101.39C37.43 101.99 42.06 107.36 43.47 108.74C44.87 110.12 45.27 110.33 45.81 110.61C46.35 110.90 47.00 111.37 47.08 110.65C47.15 109.94 46.62 106.88 46.33 105.84C46.04 104.79 45.52 104.04 45.16 103.67C44.81 103.30 44.37 102.64 43.96 103.36C43.22 104.64 41.06 110.61 40.24 112.21C39.47 113.71 39.01 113.77 38.48 114.02C37.94 114.27 37.13 114.20 36.66 113.86C36.19 113.52 35.54 112.52 35.34 111.74C35.15 110.96 35.13 109.54 35.35 108.66C35.57 107.78 36.16 106.67 36.80 105.91C37.44 105.14 38.66 104.04 39.65 103.57C40.63 103.10 41.99 102.79 43.39 102.76C44.78 102.72 48.12 103.23 48.96 103.31"/><path fill="none" stroke="#823ede" stroke-width="2.5" stroke-linecap="round" stroke-linejoin="round" d="M61.74 99.76C61.93 99.77 62.89 98.95 63.05 99.81C63.36 101.46 63.89 110.59 63.77 110.74C63.65 110.89 62.50 103.92 62.27 100.82C62.05 97.72 62.08 91.84 62.29 90.08C62.43 88.94 63.16 88.88 63.70 89.08C64.25 89.28 64.94 89.50 65.93 91.41C67.21 93.87 71.15 103.33 72.20 105.51C72.44 106.01 72.86 106.51 72.92 105.95C73.06 104.69 73.09 99.36 73.16 97.10C73.23 94.84 73.25 92.52 73.39 90.87C73.53 89.22 73.83 87.07 74.10 86.08C74.37 85.08 74.62 83.67 75.18 84.23C75.73 84.79 77.05 87.50 77.80 89.82C78.55 92.15 79.51 98.06 80.19 99.76C80.82 101.35 82.00 100.97 82.32 101.18"/><path fill="none" stroke="#823ede" stroke-width="2.5" stroke-linecap="round" stroke-linejoin="round" d="M88.00 92.66C87.90 92.21 87.55 90.09 87.34 89.67C87.13 89.25 86.73 89.37 86.61 89.86C86.38 90.76 85.91 94.27 85.84 95.69C85.78 97.12 85.96 98.40 86.19 99.36C86.42 100.33 86.95 101.62 87.37 102.12C87.79 102.61 88.48 102.84 89.00 102.66C89.51 102.48 90.27 101.75 90.79 100.92C91.31 100.08 92.06 99.26 92.47 97.09C92.88 94.92 93.45 87.45 93.52 86.45C93.60 85.45 92.97 89.21 92.94 90.44C92.92 91.66 93.08 93.46 93.35 94.61C93.63 95.76 94.23 97.38 94.76 98.09C95.29 98.79 96.20 99.39 96.89 99.32C97.57 99.25 98.65 98.56 99.33 97.62C100.02 96.68 100.95 95.56 101.44 93.04C101.93 90.53 102.64 83.79 102.58 80.86C102.52 77.93 101.30 74.15 101.04 73.53C100.77 72.91 100.38 74.64 100.83 76.73C101.28 78.81 102.78 84.48 104.03 87.43C105.28 90.38 108.08 94.90 109.15 96.41C110.03 97.65 110.82 97.61 111.16 97.48C111.50 97.34 111.38 95.80 111.42 95.50"/><path fill="none" stroke="#823ede" stroke-width="2.5" stroke-linecap="round" stroke-linejoin="round" d="M111.42 77.05C111.40 76.40 111.07 72.02 111.30 72.73C111.54 73.44 112.22 78.60 112.99 81.80C113.76 84.99 116.14 92.29 116.44 94.03C116.62 95.09 115.19 93.47 114.97 93.37"/><path fill="none" stroke="#823ede" stroke-width="2.5" stroke-linecap="round" stroke-linejoin="round" d="M110.00 87.70C109.89 87.70 109.50 87.88 109.29 87.70C109.08 87.51 108.65 86.79 108.58 86.48C108.51 86.18 108.30 85.88 108.84 85.65C110.44 84.98 117.67 82.56 119.23 82.02"/><path fill="none" stroke="#823ede" stroke-width="2.5" stroke-linecap="round" stroke-linejoin="round" d="M123.49 81.31C123.59 81.33 124.01 81.22 124.20 81.46C124.38 81.70 124.48 81.91 124.70 82.90C124.93 83.93 125.69 87.58 125.72 88.30C125.75 88.98 125.03 87.79 124.91 87.70"/><path fill="none" stroke="#823ede" stroke-width="2.5" stroke-linecap="round" stroke-linejoin="round" d="M122.07 75.63C122.07 75.20 121.80 73.22 122.12 72.79C122.44 72.36 123.88 72.79 124.20 72.79"/><path fill="none" stroke="#823ede" stroke-width="2.5" stroke-linecap="round" stroke-linejoin="round" d="M136.26 74.92C136.15 74.60 135.89 73.30 135.55 72.79C135.22 72.28 134.73 71.73 134.03 71.53C133.33 71.32 131.64 70.90 130.88 71.44C130.13 71.97 129.15 73.80 129.00 75.08C128.84 76.36 129.43 78.99 129.84 79.97C130.26 80.95 130.33 81.05 131.77 81.62C133.21 82.20 138.20 83.34 139.44 83.80C140.11 84.04 140.06 84.40 140.05 84.67C140.04 84.94 139.85 85.35 139.38 85.59C138.91 85.84 138.13 86.12 136.92 86.33C135.71 86.54 132.14 86.89 131.29 86.99"/><path fill="none" stroke="#823ede" stroke-width="2.5" stroke-linecap="round" stroke-linejoin="round" d="M145.49 74.21C145.59 73.48 146.38 69.85 146.20 69.33C146.02 68.80 144.79 70.09 144.28 70.71C143.78 71.32 143.28 71.94 142.82 73.44C142.37 74.94 141.40 79.20 141.25 80.71C141.10 82.22 141.40 82.98 141.80 83.49C142.20 84.01 143.04 84.26 143.91 84.15C144.79 84.03 146.42 83.58 147.62 82.73C148.81 81.88 151.24 79.11 151.88 78.47"/><path fill="none" stroke="#823ede" stroke-width="2.5" stroke-linecap="round" stroke-linejoin="round" d="M153.30 68.53C153.28 68.22 153.42 66.24 153.19 66.45C152.97 66.67 152.09 68.40 151.80 69.94C151.50 71.49 151.22 75.39 151.24 76.76C151.27 78.13 151.60 78.70 151.96 79.06C152.31 79.43 153.05 79.42 153.60 79.21C154.14 78.99 154.78 78.94 155.60 77.62C156.42 76.30 158.28 71.17 159.07 70.39C159.85 69.60 160.30 72.07 160.83 72.40C161.37 72.74 162.10 72.78 162.63 72.62C163.16 72.46 163.94 72.00 164.36 71.32C164.78 70.64 165.28 69.24 165.46 68.08C165.64 66.91 165.68 65.02 165.58 63.57C165.48 62.12 165.23 60.22 164.79 58.42C164.35 56.61 163.10 52.62 162.65 51.52C162.42 50.95 161.81 50.49 161.81 51.12C161.80 52.51 161.99 58.25 162.59 60.83C163.19 63.41 164.97 66.83 165.81 68.30C166.65 69.78 167.84 70.31 168.20 70.66"/><path fill="none" stroke="#823ede" stroke-width="2.5" stroke-linecap="round" stroke-linejoin="round" d="M173.88 62.14C174.40 61.79 176.45 60.70 177.36 59.82C178.27 58.93 179.58 57.05 179.97 56.23C180.35 55.40 180.10 54.77 179.92 54.34C179.75 53.91 179.28 53.46 178.79 53.35C178.30 53.24 177.35 53.27 176.65 53.61C175.96 53.95 174.76 54.80 174.14 55.63C173.52 56.46 172.72 58.09 172.49 59.16C172.26 60.23 172.37 61.69 172.63 62.76C172.88 63.83 173.35 65.64 174.20 66.28C175.05 66.92 176.85 67.20 178.29 67.01C179.73 66.81 182.77 65.50 183.82 64.98C184.86 64.47 185.02 63.78 185.24 63.56"/><path fill="none" stroke="#823ede" stroke-width="2.5" stroke-linecap="round" stroke-linejoin="round" d="M91.55 136.67C91.79 138.17 92.84 147.87 93.18 146.69C93.52 145.52 93.50 131.62 93.81 128.81C93.93 127.72 94.75 127.80 95.24 127.97C95.72 128.14 96.30 128.32 97.07 129.93C97.98 131.85 100.76 140.12 101.32 140.75C101.89 141.38 100.87 135.76 100.83 134.12C100.79 132.47 100.92 130.91 101.08 129.78C101.25 128.64 101.62 127.21 101.95 126.58C102.28 125.94 102.62 124.99 103.29 125.54C103.95 126.09 105.76 128.88 106.39 130.25C107.03 131.63 107.09 133.52 107.52 134.70C107.96 135.87 108.92 137.58 109.29 138.09C109.57 138.47 109.89 138.09 110.00 138.09"/><path fill="none" stroke="#823ede" stroke-width="2.5" stroke-linecap="round" stroke-linejoin="round" d="M119.94 128.15C119.81 127.75 119.49 125.95 119.07 125.47C118.65 124.99 117.72 124.64 117.13 124.97C116.53 125.30 115.60 126.74 115.12 127.66C114.65 128.57 114.14 129.92 113.95 131.06C113.75 132.19 113.66 134.25 113.83 135.23C114.00 136.22 114.64 137.15 115.08 137.62C115.53 138.08 116.23 138.48 116.80 138.34C117.38 138.19 118.44 137.32 118.91 136.64C119.38 135.96 119.78 135.00 119.94 133.83C120.09 132.66 119.94 129.61 119.94 128.86"/><path fill="none" stroke="#823ede" stroke-width="2.5" stroke-linecap="round" stroke-linejoin="round" d="M127.03 114.67C127.02 114.54 126.73 113.34 126.93 113.85C127.63 115.66 131.07 124.67 131.73 126.69C131.88 127.15 131.77 127.45 131.31 127.29C130.44 127.00 127.00 125.07 125.95 124.71C124.90 124.35 124.66 124.61 124.29 124.88C123.91 125.15 123.57 125.89 123.44 126.48C123.31 127.08 123.32 128.07 123.40 128.84C123.48 129.61 123.64 130.90 123.95 131.61C124.25 132.33 124.89 133.29 125.46 133.62C126.03 133.96 127.08 133.91 127.74 133.83C128.41 133.75 129.55 133.23 129.87 133.12"/><path fill="none" stroke="#823ede" stroke-width="2.5" stroke-linecap="round" stroke-linejoin="round" d="M137.68 128.15C137.69 127.98 137.28 127.62 137.73 126.99C138.45 125.98 141.72 122.53 142.48 121.41C143.19 120.38 142.86 120.04 142.80 119.56C142.75 119.08 142.43 118.48 142.10 118.23C141.78 117.97 141.15 117.75 140.64 117.85C140.12 117.96 139.24 118.36 138.67 118.94C138.11 119.52 137.28 120.72 136.87 121.72C136.46 122.72 136.03 124.46 135.97 125.61C135.90 126.75 136.01 128.53 136.43 129.35C136.85 130.18 137.90 130.82 138.75 131.11C139.60 131.40 140.87 131.79 142.08 131.29C143.30 130.79 145.49 129.43 146.86 127.79C148.22 126.15 150.52 121.46 151.17 120.34"/><path fill="none" stroke="#823ede" stroke-width="2.5" stroke-linecap="round" stroke-linejoin="round" d="M149.04 104.02C148.93 103.80 148.52 102.71 148.33 102.55C148.13 102.39 147.76 102.47 147.73 102.95C147.67 104.17 147.44 108.03 147.92 110.70C148.41 113.37 150.16 118.71 150.95 120.73C151.75 122.74 152.53 123.55 153.21 124.11C153.89 124.68 154.93 124.75 155.48 124.50C156.02 124.25 156.64 123.10 156.84 122.47C157.05 121.85 156.84 120.66 156.84 120.34"/><path fill="none" stroke="#823ede" stroke-width="2.5" stroke-linecap="round" stroke-linejoin="round" d="M158.26 113.96C158.34 113.88 158.67 112.97 158.80 113.45C159.01 114.19 159.55 118.10 159.68 118.93"/><path fill="none" stroke="#823ede" stroke-width="2.5" stroke-linecap="round" stroke-linejoin="round" d="M156.84 106.86C156.84 106.43 156.74 104.45 156.84 104.02C156.95 103.59 157.45 104.02 157.55 104.02"/><path fill="none" stroke="#823ede" stroke-width="2.5" stroke-linecap="round" stroke-linejoin="round" d="M165.36 110.41C165.55 111.43 166.46 117.21 166.61 117.24C166.77 117.28 166.35 112.14 166.40 110.66C166.45 109.18 166.70 108.15 166.95 107.37C167.21 106.60 167.72 105.84 168.12 105.49C168.52 105.15 168.89 104.30 169.65 105.05C170.51 105.89 173.24 110.21 173.88 111.12"/><path fill="none" stroke="#823ede" stroke-width="2.5" stroke-linecap="round" stroke-linejoin="round" d="M179.56 109.70C179.66 109.59 180.23 109.66 180.27 108.99C180.34 107.49 180.27 101.44 180.07 99.72C179.87 98.08 179.34 97.86 178.91 97.53C178.48 97.20 177.76 97.20 177.21 97.53C176.65 97.86 175.76 98.71 175.24 99.72C174.71 100.73 173.95 102.83 173.70 104.27C173.45 105.72 173.41 107.97 173.59 109.35C173.76 110.73 174.29 112.55 174.87 113.48C175.44 114.41 176.61 115.35 177.41 115.58C178.21 115.80 179.50 115.41 180.21 114.96C180.92 114.52 181.60 113.71 182.17 112.62C182.73 111.53 183.50 108.39 183.96 107.72C184.42 107.04 184.66 107.44 185.23 108.10C185.81 108.77 186.93 110.42 187.81 112.18C188.69 113.93 190.20 117.10 191.10 119.79C192.00 122.47 193.32 126.93 193.83 130.07C194.34 133.20 194.68 137.82 194.50 140.68C194.32 143.54 193.47 147.18 192.65 149.14C191.83 151.09 190.08 153.17 189.05 153.71C188.01 154.26 186.63 153.58 185.75 152.76C184.87 151.93 183.46 150.12 183.20 148.21C182.94 146.30 183.18 143.38 184.02 140.05C184.86 136.72 188.07 128.13 188.78 126.02"/>
</svg>