<?xml version="1.0" encoding="UTF-8"?>
<!DOCTYPE svg PUBLIC "-//W3C//DTD SVG 1.1//EN" "http://www.w3.org/Graphics/SVG/1.1/DTD/svg11.dtd">
<svg  xmlns="http://www.w3.org/2000/svg" xmlns:xlink="http://www.w3.org/1999/xlink" viewport-fill="none" viewBox="0.0, 0.0, 181.54887046038237, 103.95642441360278" version="1.1" height="103.95642441360278" width="181.54887046038237">
<path fill="none" stroke="#d1000d" stroke-width="2.5" stroke-linecap="round" stroke-linejoin="round" d="M39.66 90.53C39.99 90.92 41.03 92.44 41.84 93.11C42.66 93.79 43.78 94.46 45.09 95.05C46.40 95.65 49.62 96.93 50.57 97.09C51.43 97.24 51.72 96.94 51.44 96.12C50.97 94.75 48.33 87.95 47.48 87.96C46.62 87.97 46.37 94.20 45.73 96.18C45.09 98.16 43.79 100.50 43.19 101.18C42.59 101.86 42.14 101.13 41.76 100.72C41.37 100.31 40.77 99.56 40.64 98.44C40.50 97.31 40.65 94.23 40.85 93.21C41.05 92.19 41.42 91.88 41.97 91.64C42.52 91.41 44.02 91.41 44.49 91.63C44.95 91.85 45.10 93.51 45.07 93.11C45.05 92.71 44.25 90.24 44.29 88.98C44.33 87.71 45.39 83.46 45.35 84.66C45.30 85.86 43.97 95.03 43.97 96.97C43.97 97.99 45.13 97.53 45.34 97.63"/><path fill="none" stroke="#d1000d" stroke-width="2.5" stroke-linecap="round" stroke-linejoin="round" d="M60.24 79.18C60.35 79.21 60.75 78.95 60.95 79.41C61.35 80.31 62.54 83.47 62.92 85.20C63.30 86.92 63.51 90.06 63.50 90.92C63.49 91.36 63.05 91.31 62.84 90.92C62.55 90.39 61.94 88.89 61.55 87.41C61.16 85.93 60.50 83.18 60.23 81.07C59.96 78.96 59.72 75.59 59.76 73.36C59.79 71.13 60.05 67.93 60.46 66.19C60.88 64.46 61.74 62.57 62.51 61.78C63.27 61.00 64.71 60.71 65.55 60.97C66.40 61.24 67.56 62.46 68.16 63.54C68.75 64.61 69.36 66.71 69.52 68.12C69.68 69.53 69.54 71.64 69.22 72.96C68.90 74.28 67.98 75.93 67.38 76.91C66.77 77.90 65.73 78.91 65.16 79.51C64.59 80.12 63.87 80.59 63.58 80.92C63.29 81.25 63.12 81.54 63.22 81.72C63.33 81.89 63.54 82.11 64.31 82.09C65.25 82.07 68.29 81.83 69.50 81.59C70.71 81.34 71.62 80.91 72.36 80.44C73.10 79.97 74.13 78.76 74.44 78.47"/><path fill="none" stroke="#d1000d" stroke-width="2.5" stroke-linecap="round" stroke-linejoin="round" d="M75.86 77.76C76.75 76.76 80.72 72.81 81.82 71.07C82.92 69.34 83.13 67.16 83.18 66.21C83.23 65.25 82.56 64.93 82.15 64.71C81.74 64.49 80.96 64.48 80.45 64.73C79.94 64.99 79.20 65.68 78.75 66.39C78.29 67.11 77.55 67.92 77.40 69.50C77.25 71.07 77.41 75.44 77.74 76.88C78.06 78.31 78.78 78.73 79.56 79.07C80.35 79.42 82.13 79.38 82.96 79.18C83.78 78.98 84.77 77.97 85.09 77.76"/><path fill="none" stroke="#d1000d" stroke-width="2.5" stroke-linecap="round" stroke-linejoin="round" d="M94.31 62.14C94.31 62.04 94.62 61.75 94.31 61.43C94.01 61.11 92.83 60.08 92.27 60.01C91.70 59.95 90.98 60.40 90.54 61.01C90.11 61.62 89.61 63.02 89.37 64.08C89.13 65.14 88.87 66.80 88.93 68.06C88.99 69.33 89.40 71.54 89.75 72.53C90.10 73.51 90.75 74.37 91.25 74.64C91.76 74.91 92.59 74.74 93.12 74.34C93.65 73.93 94.34 73.47 94.79 71.93C95.25 70.40 95.65 64.66 96.18 64.10C96.70 63.55 97.38 67.45 98.27 68.22C99.17 68.99 101.54 69.09 102.12 69.24"/><path fill="none" stroke="#d1000d" stroke-width="2.5" stroke-linecap="round" stroke-linejoin="round" d="M108.51 55.76C108.31 55.23 107.55 52.72 107.17 52.26C106.80 51.81 106.50 52.06 106.00 52.71C105.49 53.35 104.13 55.58 103.82 56.57C103.51 57.57 103.74 58.56 103.92 59.34C104.10 60.12 104.51 61.13 105.03 61.78C105.55 62.42 106.14 62.92 107.39 63.63C108.64 64.35 112.53 66.00 113.37 66.53C113.80 66.81 113.42 67.01 112.93 67.17C111.99 67.47 107.96 68.33 107.09 68.53"/><path fill="none" stroke="#d1000d" stroke-width="2.5" stroke-linecap="round" stroke-linejoin="round" d="M119.86 52.92C119.52 52.48 118.13 50.32 117.56 49.99C116.99 49.67 116.61 49.82 116.05 50.74C115.49 51.66 114.12 54.74 113.82 56.11C113.52 57.48 113.76 58.86 114.02 59.89C114.29 60.91 114.98 62.28 115.56 62.93C116.15 63.58 117.14 64.09 117.93 64.22C118.73 64.36 120.09 64.34 120.88 63.84C121.67 63.35 122.83 62.46 123.21 60.93C123.59 59.40 123.38 54.72 123.41 53.63"/><path fill="none" stroke="#d1000d" stroke-width="2.5" stroke-linecap="round" stroke-linejoin="round" d="M127.67 48.66C127.95 49.86 129.15 56.76 129.51 56.69C129.87 56.62 129.85 49.86 130.05 48.21C130.24 46.57 130.53 46.22 130.81 45.74C131.09 45.25 131.59 44.97 131.94 44.97C132.29 44.97 132.64 44.94 133.16 45.76C133.84 46.85 135.81 51.19 136.48 52.21C136.91 52.87 137.12 53.09 137.61 52.55C138.10 52.02 139.42 49.24 139.74 48.66"/><path fill="none" stroke="#d1000d" stroke-width="2.5" stroke-linecap="round" stroke-linejoin="round" d="M140.45 40.85C140.45 40.74 140.27 40.35 140.45 40.14C140.62 39.94 141.21 38.70 141.61 39.49C142.01 40.28 142.87 44.08 143.11 45.44C143.34 46.80 143.37 48.28 143.18 48.55C143.00 48.83 142.06 47.44 141.87 47.24"/><path fill="none" stroke="#d1000d" stroke-width="2.5" stroke-linecap="round" stroke-linejoin="round" d="M137.61 35.17C137.82 34.85 138.81 33.36 139.03 33.04"/><path fill="none" stroke="#d1000d" stroke-width="2.5" stroke-linecap="round" stroke-linejoin="round" d="M144.71 37.30C145.19 38.13 147.11 43.29 147.92 42.84C148.73 42.39 149.57 35.96 150.12 34.31C150.66 32.66 151.10 32.32 151.53 31.86C151.97 31.41 152.23 30.61 153.01 31.31C153.96 32.15 156.84 36.43 157.84 37.48C158.80 38.47 159.17 38.34 159.74 38.30C160.30 38.25 161.11 37.80 161.60 37.19C162.10 36.57 162.74 35.20 163.05 34.19C163.36 33.17 163.64 31.59 163.69 30.42C163.75 29.25 163.65 27.47 163.43 26.38C163.22 25.29 162.72 23.84 162.28 23.13C161.84 22.43 161.03 21.84 160.51 21.68C159.98 21.53 159.23 21.66 158.78 22.12C158.32 22.58 157.69 23.77 157.47 24.75C157.26 25.73 157.14 27.51 157.36 28.65C157.58 29.80 158.30 31.45 158.93 32.37C159.57 33.30 160.70 34.44 161.58 34.81C162.46 35.17 163.91 35.11 164.80 34.80C165.68 34.49 166.79 33.91 167.51 32.72C168.23 31.53 169.18 27.80 169.59 26.87C169.80 26.40 169.96 26.10 170.28 26.51C170.66 27.00 171.39 28.31 172.15 30.15C172.90 31.98 174.39 35.53 175.31 38.75C176.22 41.97 177.69 47.53 178.25 51.63C178.80 55.73 179.20 61.98 178.99 66.09C178.79 70.21 177.90 75.90 176.88 79.06C175.85 82.22 173.71 85.64 172.14 87.16C170.56 88.68 167.67 89.66 166.38 89.17C165.09 88.69 163.72 86.40 163.56 83.94C163.40 81.48 164.07 76.80 165.29 72.79C166.51 68.78 170.72 59.52 171.68 57.18"/>
</svg>