<?xml version="1.0" encoding="UTF-8"?>
<!DOCTYPE svg PUBLIC "-//W3C//DTD SVG 1.1//EN" "http://www.w3.org/Graphics/SVG/1.1/DTD/svg11.dtd">
<svg  xmlns="http://www.w3.org/2000/svg" xmlns:xlink="http://www.w3.org/1999/xlink" viewport-fill="none" viewBox="0.0, 0.0, 175.59628295898438, 104.71684597970483" version="1.1" height="104.71684597970483" width="175.59628295898438">
<path fill="none" stroke="#d1000d" stroke-width="2.5" stroke-linecap="round" stroke-linejoin="round" d="M46.76 95.50C46.43 95.37 43.32 93.96 44.58 94.64C45.83 95.32 53.98 99.59 55.14 100.03C56.31 100.47 53.08 97.99 52.37 97.58C51.66 97.17 51.44 96.97 50.41 97.29C49.37 97.60 45.64 100.92 45.46 99.67C45.28 98.43 48.57 90.56 49.21 88.99C49.36 88.63 49.73 88.85 49.75 89.24C49.80 90.20 49.83 93.65 49.54 95.42C49.26 97.18 48.31 100.04 47.86 101.03C47.41 102.03 46.95 101.88 46.53 102.05C46.12 102.21 45.60 102.29 45.09 102.13C44.58 101.96 43.45 101.27 43.13 100.95C42.82 100.62 42.63 100.36 42.98 99.99C43.32 99.61 44.03 98.70 45.45 98.46C46.87 98.21 51.39 98.36 52.44 98.34"/><path fill="none" stroke="#d1000d" stroke-width="2.5" stroke-linecap="round" stroke-linejoin="round" d="M72.31 72.79C72.45 72.83 73.01 72.45 73.23 73.05C74.18 75.66 78.31 88.34 78.70 90.18C79.09 92.01 76.54 87.00 75.83 85.27C75.12 83.54 74.35 80.77 73.97 78.64C73.59 76.51 73.21 73.27 73.28 71.09C73.34 68.91 73.79 65.85 74.41 64.09C75.03 62.32 76.47 60.24 77.42 59.35C78.37 58.45 79.84 58.01 80.72 58.13C81.61 58.25 82.78 59.18 83.34 60.16C83.91 61.14 84.42 63.24 84.50 64.67C84.57 66.09 84.16 68.30 83.85 69.67C83.55 71.03 83.12 72.46 82.48 73.77C81.85 75.08 80.10 77.49 79.62 78.42C79.14 79.35 79.28 79.52 79.30 79.99C79.32 80.47 79.11 81.00 79.75 81.59C80.39 82.18 82.53 83.66 83.55 83.92C84.57 84.18 85.37 84.04 86.56 83.33C87.74 82.62 90.74 79.80 91.47 79.18"/><path fill="none" stroke="#d1000d" stroke-width="2.5" stroke-linecap="round" stroke-linejoin="round" d="M94.31 74.92C94.70 74.09 96.44 70.72 96.92 69.37C97.41 68.02 97.46 66.87 97.54 65.91C97.63 64.96 97.66 63.70 97.48 62.99C97.31 62.29 96.79 61.42 96.37 61.19C95.96 60.96 95.15 61.01 94.70 61.44C94.24 61.87 93.60 63.02 93.32 64.06C93.03 65.10 92.79 66.96 92.80 68.39C92.80 69.83 92.97 72.23 93.35 73.60C93.74 74.97 94.69 76.52 95.38 77.53C96.06 78.53 97.07 79.99 97.92 80.27C98.77 80.56 100.11 80.23 101.06 79.42C102.01 78.62 103.77 75.81 104.25 74.92C104.70 74.09 104.25 73.71 104.25 73.50"/><path fill="none" stroke="#d1000d" stroke-width="2.5" stroke-linecap="round" stroke-linejoin="round" d="M109.22 57.18C108.70 57.09 106.49 56.18 105.77 56.60C105.04 57.03 104.44 58.51 104.38 60.01C104.33 61.51 105.05 65.33 105.41 66.62C105.78 67.90 106.38 68.28 106.82 68.60C107.26 68.91 107.90 69.02 108.34 68.72C108.79 68.42 109.43 67.43 109.78 66.60C110.14 65.77 110.52 64.49 110.69 63.18C110.86 61.87 110.89 58.35 110.93 57.88C110.97 57.40 110.78 59.28 110.97 60.02C111.15 60.75 111.62 62.06 112.16 62.77C112.71 63.48 113.74 64.43 114.58 64.75C115.42 65.07 116.82 65.25 117.76 64.90C118.70 64.56 120.06 63.45 120.83 62.43C121.59 61.41 122.45 59.48 122.85 58.08C123.26 56.68 123.54 54.53 123.51 53.09C123.49 51.65 123.05 49.61 122.67 48.48C122.28 47.36 121.50 46.18 120.97 45.59C120.44 45.01 119.69 44.59 119.13 44.59C118.57 44.58 117.70 45.01 117.23 45.55C116.76 46.09 116.23 47.30 115.98 48.19C115.73 49.07 115.51 50.45 115.56 51.46C115.61 52.46 115.82 53.96 116.30 54.87C116.77 55.78 116.74 56.33 118.75 57.51C120.75 58.69 128.23 61.84 129.66 62.74C130.57 63.32 129.16 63.39 128.23 63.51C127.29 63.64 124.13 63.56 123.41 63.56"/><path fill="none" stroke="#d1000d" stroke-width="2.5" stroke-linecap="round" stroke-linejoin="round" d="M134.77 45.82C134.74 45.20 134.72 42.33 134.57 41.68C134.44 41.13 134.04 41.32 133.77 41.42C133.50 41.52 133.04 41.80 132.75 42.36C132.47 42.91 132.08 44.10 131.88 45.10C131.67 46.11 131.40 47.82 131.38 49.07C131.37 50.32 131.52 52.23 131.77 53.43C132.01 54.63 132.58 56.28 133.02 57.07C133.47 57.85 134.24 58.54 134.74 58.66C135.24 58.78 135.91 58.42 136.33 57.87C136.74 57.32 137.33 56.11 137.49 55.02C137.65 53.92 137.70 52.39 137.40 50.58C137.10 48.78 135.77 44.12 135.48 42.98"/><path fill="none" stroke="#d1000d" stroke-width="2.5" stroke-linecap="round" stroke-linejoin="round" d="M142.58 38.01C142.77 39.92 143.75 49.98 143.85 50.74C143.95 51.50 143.28 44.81 143.23 43.09C143.19 41.37 143.34 40.19 143.52 39.28C143.71 38.37 144.08 37.38 144.48 37.03C144.87 36.67 145.61 36.63 146.15 36.89C146.68 37.15 147.19 37.45 148.04 38.77C148.90 40.08 151.08 44.39 151.86 45.66C152.58 46.85 152.80 47.00 153.22 47.24C153.64 47.47 154.43 47.24 154.64 47.24"/><path fill="none" stroke="#d1000d" stroke-width="2.5" stroke-linecap="round" stroke-linejoin="round" d="M156.06 33.75C155.98 33.80 155.44 33.66 155.50 34.10C155.60 34.89 156.23 37.51 156.74 39.06C157.25 40.60 158.58 43.60 158.90 44.40"/><path fill="none" stroke="#d1000d" stroke-width="2.5" stroke-linecap="round" stroke-linejoin="round" d="M153.22 24.53C153.21 24.38 152.91 23.66 153.12 23.56C153.33 23.45 154.41 23.78 154.64 23.82"/><path fill="none" stroke="#d1000d" stroke-width="2.5" stroke-linecap="round" stroke-linejoin="round" d="M160.32 30.20C160.96 31.92 163.92 41.31 164.59 41.61C165.25 41.92 164.51 34.44 164.74 32.24C164.97 30.04 165.71 27.61 166.11 26.96C166.51 26.30 166.91 26.94 167.41 27.87C168.06 29.10 169.61 33.49 170.46 35.12C171.32 36.75 172.70 38.18 173.10 38.72"/>
</svg>