<?xml version="1.0" encoding="UTF-8"?>
<!DOCTYPE svg PUBLIC "-//W3C//DTD SVG 1.1//EN" "http://www.w3.org/Graphics/SVG/1.1/DTD/svg11.dtd">
<svg  xmlns="http://www.w3.org/2000/svg" xmlns:xlink="http://www.w3.org/1999/xlink" viewport-fill="none" viewBox="0.0, 0.0, 118.91425042460831, 219.84491644965277" version="1.1" height="219.84491644965277" width="118.91425042460831">
<path fill="none" stroke="#98c2ff" stroke-opacity="0.5" stroke-width="16.0" stroke-linecap="round" stroke-linejoin="round" d="M20.79 160.31C23.35 160.31 34.95 160.31 37.84 160.31C39.31 160.31 38.58 160.31 40.05 160.31C47.82 160.31 81.85 160.31 89.65 160.31C91.21 160.31 90.43 160.27 92.00 160.31C93.72 160.36 99.78 160.70 101.15 160.63C101.71 160.59 101.15 159.91 101.15 159.78"/><path fill="none" stroke="#79eb70" stroke-opacity="0.5" stroke-width="20.0" stroke-linecap="round" stroke-linejoin="round" d="M27.46 179.23C28.46 179.23 32.76 179.23 34.15 179.23C35.53 179.23 35.00 179.26 36.70 179.23C42.74 179.13 68.53 178.63 74.41 178.52C75.41 178.50 74.91 178.51 75.90 178.52C78.92 178.56 91.74 178.78 94.55 178.82C94.61 178.82 94.58 178.77 94.64 178.80C94.80 178.87 95.47 179.24 95.62 179.32"/><path fill="none" stroke="#ffd873" stroke-opacity="0.5" stroke-width="20.0" stroke-linecap="round" stroke-linejoin="round" d="M30.18 199.84C32.92 199.84 45.35 199.84 48.49 199.84C50.28 199.84 49.39 199.85 51.17 199.84C57.28 199.79 83.39 199.55 89.24 199.50C89.87 199.49 89.55 199.48 90.19 199.50C91.64 199.54 97.61 199.73 98.91 199.77C98.92 199.78 98.90 199.77 98.89 199.77C98.89 199.77 98.89 199.77 98.89 199.77"/><path fill="none" stroke="#ff9399" stroke-opacity="0.5" stroke-width="20.0" stroke-linecap="round" stroke-linejoin="round" d="M22.45 140.44C24.96 140.44 36.37 140.44 39.22 140.44C40.69 140.44 39.95 140.44 41.43 140.44C47.29 140.44 72.54 140.44 78.28 140.44C79.25 140.44 78.77 140.44 79.74 140.44C81.85 140.44 90.41 140.44 92.34 140.44C92.50 140.44 92.42 140.44 92.58 140.44C92.89 140.44 94.14 140.44 94.42 140.44"/>
</svg>