<?xml version="1.0" encoding="UTF-8"?>
<!DOCTYPE svg PUBLIC "-//W3C//DTD SVG 1.1//EN" "http://www.w3.org/Graphics/SVG/1.1/DTD/svg11.dtd">
<svg  xmlns="http://www.w3.org/2000/svg" xmlns:xlink="http://www.w3.org/1999/xlink" viewport-fill="none" viewBox="0.0, 0.0, 544.8608012491661, 482.8446379796886" version="1.1" height="482.8446379796886" width="544.8608012491661">
<path fill="none" stroke="#d1000d" stroke-width="5.0" stroke-linecap="round" stroke-linejoin="round" d="M99.69 269.41C99.51 269.25 98.49 267.26 98.51 268.33C98.58 272.83 99.86 294.82 100.19 299.41C100.22 299.88 100.61 298.98 100.69 298.91"/><path fill="none" stroke="#d1000d" stroke-width="5.0" stroke-linecap="round" stroke-linejoin="round" d="M91.19 286.91C91.03 286.83 89.52 286.84 90.15 286.41C90.85 285.93 93.22 284.72 95.85 283.75C98.48 282.77 105.91 280.48 107.69 279.91"/><path fill="none" stroke="#1eb511" stroke-width="2.0" stroke-linecap="round" stroke-linejoin="round" d="M108.19 340.91C108.02 341.72 107.43 343.24 107.03 346.32C106.64 349.40 105.73 357.74 105.58 361.45C105.42 365.16 105.73 369.55 105.98 371.06C106.12 371.94 106.64 372.20 107.22 371.53C107.92 370.74 109.91 367.28 110.58 365.76C111.25 364.24 111.52 362.06 111.69 361.41"/><path fill="none" stroke="#d1000d" stroke-width="5.0" stroke-linecap="round" stroke-linejoin="round" d="M146.69 277.91C146.67 277.77 146.31 277.31 146.54 277.02C146.78 276.72 146.95 276.28 148.26 275.94C151.58 275.10 165.63 272.09 168.69 271.41"/><path fill="none" stroke="#d1000d" stroke-width="5.0" stroke-linecap="round" stroke-linejoin="round" d="M140.19 276.41C140.18 276.05 140.37 274.59 140.15 274.02C139.93 273.45 139.30 272.80 138.72 272.59C138.15 272.39 136.97 272.48 136.30 272.65C135.63 272.83 134.76 273.28 134.28 273.76C133.80 274.25 133.24 275.16 133.11 275.86C132.98 276.56 133.00 277.66 133.40 278.43C133.81 279.20 133.82 279.75 135.80 280.99C137.83 282.25 145.11 285.74 146.90 286.86C147.90 287.49 147.75 287.99 147.71 288.45C147.66 288.90 147.42 289.52 146.60 289.89C145.78 290.26 144.01 290.68 142.23 290.91C140.44 291.14 135.82 291.33 134.69 291.41"/><path fill="none" stroke="#d1000d" stroke-width="5.0" stroke-linecap="round" stroke-linejoin="round" d="M150.19 264.41C150.36 264.18 150.97 261.71 151.30 262.91C152.05 265.61 154.61 279.48 155.19 282.41"/><path fill="none" stroke="#ffd873" stroke-opacity="0.5" stroke-width="20.0" stroke-linecap="round" stroke-linejoin="round" d="M111.19 261.91C108.65 261.84 98.06 261.05 94.27 261.43C90.47 261.81 86.61 263.79 85.89 264.44C85.17 265.09 87.31 265.58 89.47 265.75C91.62 265.93 96.10 265.92 100.28 265.60C104.46 265.29 108.21 265.07 117.31 263.65C126.42 262.23 154.91 256.97 160.98 256.15C163.49 255.81 160.07 257.12 157.77 258.18C152.79 260.48 134.72 268.18 127.76 271.45C120.79 274.72 115.41 277.62 111.34 280.01C107.27 282.39 102.33 285.62 100.62 287.33C98.90 289.03 98.57 290.77 99.91 291.38C101.24 292.00 105.41 291.97 109.54 291.44C113.66 290.91 121.39 289.32 127.39 287.87C133.39 286.42 143.29 283.62 149.54 281.75C155.78 279.88 164.31 277.05 169.03 275.39C173.75 273.74 179.18 271.63 180.99 270.70C181.88 270.23 182.05 269.06 181.06 269.19C179.02 269.44 176.34 269.64 167.39 272.37C158.32 275.15 130.80 284.10 120.59 287.68C110.37 291.26 104.22 294.05 99.31 296.23C94.39 298.41 89.55 300.94 87.79 302.22C86.41 303.22 85.87 304.54 87.54 304.77C89.20 304.99 94.31 304.60 98.89 303.73C103.46 302.86 111.95 300.68 118.01 298.95C124.07 297.22 133.14 294.41 139.29 292.21C145.43 290.01 154.07 286.68 158.98 284.28C163.89 281.88 169.78 278.35 172.01 276.24C174.25 274.13 174.88 271.70 173.86 270.23C172.83 268.75 169.16 267.05 165.21 266.39C161.26 265.72 153.73 265.45 147.50 265.79C141.26 266.13 130.70 267.49 123.64 268.65C116.58 269.81 106.78 271.91 100.44 273.54C94.10 275.17 86.00 277.90 81.38 279.52C76.76 281.15 71.22 283.50 69.65 284.39C68.69 284.93 69.78 285.56 70.88 285.49C72.53 285.37 74.25 285.37 80.65 283.63C90.30 280.99 123.48 271.02 135.19 267.91C146.90 264.80 155.16 263.66 158.69 262.91"/><path fill="none" stroke="#d1000d" stroke-width="5.0" stroke-linecap="round" stroke-linejoin="round" d="M116.19 286.41C115.98 286.48 113.93 287.41 114.76 286.91C115.60 286.41 120.44 283.93 121.77 283.06C123.10 282.19 123.32 281.68 123.63 281.11C123.94 280.55 124.05 279.74 123.85 279.31C123.64 278.87 122.93 278.38 122.24 278.22C121.55 278.06 120.13 278.01 119.23 278.23C118.34 278.45 117.04 279.01 116.25 279.69C115.47 280.37 114.41 281.68 114.00 282.74C113.59 283.80 113.39 285.50 113.52 286.75C113.66 288.00 114.26 289.88 114.91 291.06C115.56 292.25 116.71 293.87 117.85 294.67C118.99 295.46 121.11 296.22 122.51 296.34C123.91 296.45 125.81 296.00 127.19 295.41C128.57 294.82 131.01 292.86 131.69 292.41"/><path fill="none" stroke="#1eb511" stroke-width="2.0" stroke-linecap="round" stroke-linejoin="round" d="M146.19 353.41C146.21 353.01 146.40 351.35 146.34 350.77C146.27 350.19 146.09 349.87 145.74 349.54C145.40 349.22 144.89 348.60 144.01 348.62C143.14 348.65 140.80 349.30 139.92 349.71C139.03 350.11 138.50 350.72 138.11 351.32C137.73 351.91 137.42 353.00 137.38 353.67C137.34 354.34 137.49 355.15 137.85 355.78C138.21 356.41 138.30 356.78 139.77 357.86C141.24 358.94 146.44 361.99 147.66 362.97C148.40 363.57 148.60 363.95 147.90 364.38C147.20 364.81 144.33 365.64 142.99 365.85C141.66 366.06 140.10 365.98 139.01 365.76C137.91 365.55 136.19 364.61 135.69 364.41"/><path fill="none" stroke="#1eb511" stroke-width="2.0" stroke-linecap="round" stroke-linejoin="round" d="M151.19 354.91C151.19 354.61 149.92 353.31 151.19 352.91C154.49 351.86 169.89 348.66 173.19 347.91"/><path fill="none" stroke="#1eb511" stroke-width="2.0" stroke-linecap="round" stroke-linejoin="round" d="M117.69 361.41C117.91 361.41 118.25 361.74 119.19 361.41C120.60 360.91 125.38 358.91 127.10 358.05C128.81 357.19 129.98 356.34 130.62 355.68C131.25 355.02 131.26 354.26 131.32 353.67C131.39 353.07 131.43 352.12 131.03 351.70C130.63 351.29 129.40 350.97 128.68 350.90C127.95 350.82 126.99 350.89 126.20 351.22C125.41 351.54 124.11 352.30 123.39 353.06C122.67 353.82 121.87 355.16 121.40 356.29C120.94 357.41 120.43 359.31 120.30 360.56C120.17 361.80 120.25 363.49 120.56 364.60C120.87 365.71 121.61 367.32 122.39 367.97C123.17 368.62 124.74 368.88 125.76 368.94C126.78 369.01 128.15 368.86 129.19 368.41C130.23 367.95 132.16 366.28 132.69 365.91"/><path fill="none" stroke="#1eb511" stroke-width="2.0" stroke-linecap="round" stroke-linejoin="round" d="M156.69 339.41C156.54 339.48 155.86 339.21 155.69 339.91C155.52 340.61 155.41 341.29 155.58 344.05C155.81 347.73 157.10 361.43 157.19 364.41C157.21 365.15 156.34 363.98 156.19 363.91"/><path fill="none" stroke="#004dc0" stroke-width="2.5" stroke-linecap="round" stroke-linejoin="round" d="M532.69 407.41C530.57 407.94 518.55 411.19 518.53 410.96C518.52 410.72 529.11 406.92 532.59 405.82C536.08 404.73 540.31 403.86 541.76 403.67C542.43 403.58 542.45 403.90 542.25 404.54C541.98 405.43 540.47 407.75 539.97 409.56C539.46 411.37 539.04 415.07 538.88 416.60C538.73 418.12 538.83 418.78 538.95 419.73C539.07 420.67 539.58 422.43 539.69 422.91"/><path fill="none" stroke="#1eb511" stroke-width="2.0" stroke-linecap="round" stroke-linejoin="round" d="M98.19 356.41C101.34 355.73 116.04 352.58 119.19 351.91"/><path fill="none" stroke="#004dc0" stroke-width="2.5" stroke-linecap="round" stroke-linejoin="round" d="M244.19 195.41C244.86 195.06 247.17 193.49 248.64 193.06C250.11 192.64 252.62 192.50 253.99 192.56C255.36 192.62 256.45 192.95 257.78 193.46C259.11 193.96 261.35 194.93 262.87 195.91C264.39 196.89 266.48 198.53 267.93 200.00C269.38 201.46 271.27 203.72 272.54 205.68C273.82 207.63 275.26 209.36 276.43 213.03C277.61 216.70 279.64 226.01 280.38 230.14C281.12 234.28 281.06 233.60 281.37 240.59C281.91 252.99 283.50 299.60 284.01 312.79C284.41 323.31 284.24 319.41 284.72 328.56C285.20 337.72 286.29 362.86 287.22 373.84C288.15 384.83 289.93 395.64 290.92 401.82C291.91 408.00 292.37 409.66 293.83 415.03C295.30 420.39 299.00 432.66 300.70 437.58C302.39 442.51 303.73 444.97 305.11 447.84C306.49 450.70 308.31 454.13 309.90 456.67C311.49 459.21 313.81 462.56 315.71 464.77C317.61 466.98 320.38 469.68 322.55 471.40C324.72 473.12 327.72 475.08 330.18 476.24C332.64 477.39 336.22 478.50 338.95 479.08C341.69 479.66 345.45 479.99 348.39 480.11C351.33 480.23 351.99 480.68 358.52 479.88C365.05 479.09 385.10 475.96 391.92 474.81C398.73 473.67 398.20 473.67 403.96 472.23C409.71 470.79 424.19 466.94 430.29 465.19C436.38 463.43 438.12 462.92 444.58 460.54C451.03 458.17 467.16 451.93 473.32 449.33C479.48 446.72 480.65 446.06 485.65 443.20C490.65 440.34 498.92 435.70 506.65 430.26C514.38 424.81 532.68 410.34 537.19 406.91C537.57 406.62 536.76 407.33 536.69 407.41"/>
</svg>