<?xml version="1.0" encoding="UTF-8"?>
<!DOCTYPE svg PUBLIC "-//W3C//DTD SVG 1.1//EN" "http://www.w3.org/Graphics/SVG/1.1/DTD/svg11.dtd">
<svg  xmlns="http://www.w3.org/2000/svg" xmlns:xlink="http://www.w3.org/1999/xlink" viewport-fill="none" viewBox="0.0, 0.0, 538.115683139329, 443.2441406225133" version="1.1" height="443.2441406225133" width="538.115683139329">
<path fill="none" stroke="#d1000d" stroke-width="2.0" stroke-linecap="round" stroke-linejoin="round" d="M471.68 345.33C468.24 345.47 453.41 344.23 448.75 346.23C444.09 348.24 442.06 354.10 440.61 358.69C439.16 363.28 437.95 370.60 439.08 376.81C440.20 383.02 444.17 393.13 448.11 400.09C452.06 407.05 460.14 417.78 465.39 423.23C470.64 428.68 477.57 433.71 483.14 436.42C488.71 439.12 497.23 441.13 502.53 441.24C507.82 441.35 514.52 439.65 518.43 437.14C522.34 434.63 526.08 428.50 528.58 424.50C531.08 420.50 534.03 414.93 535.10 410.48C536.18 406.02 536.41 399.78 535.73 394.82C535.05 389.85 532.91 382.62 530.57 377.38C528.24 372.14 523.96 364.85 520.15 359.87C516.35 354.89 510.09 348.59 505.19 344.18C500.29 339.77 492.71 333.45 487.47 330.48C482.23 327.50 474.79 324.49 470.26 324.36C465.73 324.23 460.39 327.87 457.30 329.59C454.20 331.32 450.80 334.95 449.65 335.89"/><path fill="none" stroke="#d1000d" stroke-width="2.0" stroke-linecap="round" stroke-linejoin="round" d="M267.99 304.86C267.92 304.66 267.21 302.63 267.54 303.51C268.33 305.60 271.93 314.88 273.25 318.74C274.57 322.61 275.99 327.66 276.32 329.28C276.44 329.84 275.81 329.96 275.49 329.49C275.07 328.86 274.17 326.91 273.49 325.09C272.81 323.27 271.58 319.74 270.95 317.34C270.32 314.94 269.54 311.54 269.30 309.07C269.06 306.61 269.06 302.86 269.34 300.90C269.61 298.94 270.43 297.00 271.12 296.03C271.81 295.05 273.08 294.33 273.92 294.39C274.76 294.45 276.08 295.35 276.71 296.41C277.34 297.46 277.96 299.81 278.12 301.43C278.28 303.04 278.06 305.43 277.77 307.16C277.49 308.90 276.84 311.45 276.23 312.99C275.61 314.53 274.28 316.64 273.65 317.44C273.02 318.25 272.28 318.22 272.04 318.35C272.04 318.35 272.04 318.35 272.04 318.35"/><path fill="none" stroke="#d1000d" stroke-width="2.0" stroke-linecap="round" stroke-linejoin="round" d="M282.83 309.36C282.99 310.13 283.31 312.77 283.92 314.51C284.52 316.24 286.82 321.43 286.86 320.93C286.90 320.43 284.61 313.32 284.22 311.19C283.82 309.07 284.08 307.88 284.21 306.79C284.34 305.71 284.68 304.52 285.08 303.96C285.48 303.40 286.61 303.20 286.88 303.06"/><path fill="none" stroke="#d1000d" stroke-width="2.0" stroke-linecap="round" stroke-linejoin="round" d="M296.77 303.51C296.47 303.62 295.26 303.56 294.77 304.19C294.28 304.81 293.73 306.61 293.53 307.69C293.32 308.78 293.25 310.36 293.41 311.44C293.56 312.53 294.02 314.14 294.55 314.92C295.08 315.71 296.17 316.51 296.92 316.70C297.67 316.89 298.90 316.64 299.54 316.20C300.18 315.75 300.87 314.65 301.21 313.74C301.55 312.83 301.96 311.13 301.80 310.14C301.65 309.14 301.06 307.97 300.17 307.11C299.28 306.25 296.52 304.82 295.87 304.41"/><path fill="none" stroke="#d1000d" stroke-width="2.0" stroke-linecap="round" stroke-linejoin="round" d="M303.06 288.68C303.66 290.95 306.20 300.97 307.01 303.87C307.80 306.69 308.04 307.39 308.46 308.01C308.88 308.63 309.61 308.01 309.81 308.01"/><path fill="none" stroke="#d1000d" stroke-width="2.0" stroke-linecap="round" stroke-linejoin="round" d="M313.86 297.22C314.06 298.03 315.00 301.81 315.21 302.62"/><path fill="none" stroke="#d1000d" stroke-width="2.0" stroke-linecap="round" stroke-linejoin="round" d="M312.06 287.78C311.92 287.44 311.02 285.60 311.16 285.53C311.29 285.46 312.69 287.06 312.96 287.33"/><path fill="none" stroke="#d1000d" stroke-width="2.0" stroke-linecap="round" stroke-linejoin="round" d="M322.40 292.72C322.59 293.57 323.55 297.39 323.68 298.36C323.77 298.95 323.47 299.75 323.31 299.18C323.13 298.53 322.51 295.46 322.47 294.03C322.44 292.59 322.74 290.78 323.06 289.58C323.38 288.38 324.08 286.78 324.60 286.03C325.12 285.27 325.95 284.60 326.54 284.52C327.12 284.44 328.00 284.90 328.51 285.51C329.02 286.12 329.66 286.69 329.95 288.58C330.25 290.48 330.41 296.69 330.49 298.12"/><path fill="none" stroke="#d1000d" stroke-width="2.0" stroke-linecap="round" stroke-linejoin="round" d="M339.94 288.68C339.94 288.61 339.94 288.29 339.94 288.23"/><path fill="none" stroke="#d1000d" stroke-width="2.0" stroke-linecap="round" stroke-linejoin="round" d="M340.84 284.63C340.81 284.51 340.43 284.30 340.69 283.80C341.14 282.96 343.18 280.19 343.81 279.03C344.43 277.86 344.78 276.73 344.87 276.02C344.96 275.31 344.81 274.43 344.43 274.29C344.05 274.14 343.21 274.25 342.35 275.03C341.49 275.82 339.49 278.02 338.69 279.51C337.89 281.01 337.16 283.49 337.03 285.00C336.90 286.50 337.14 288.66 337.84 289.54C338.54 290.42 340.21 290.97 341.70 290.86C343.19 290.75 346.04 289.98 347.78 288.80C349.51 287.61 352.04 284.60 353.29 282.96C354.55 281.32 355.70 278.65 356.12 277.88"/><path fill="none" stroke="#d1000d" stroke-width="2.0" stroke-linecap="round" stroke-linejoin="round" d="M283.73 348.48C283.66 348.41 283.43 347.97 283.28 348.03C283.13 348.09 282.53 348.23 282.71 348.91C283.71 352.71 288.45 368.71 289.94 373.39C291.40 377.99 292.06 381.34 292.63 380.12C293.20 378.89 293.37 367.96 293.73 365.23C294.03 362.89 294.54 362.42 294.98 361.92C295.41 361.42 295.92 361.06 296.61 361.90C297.44 362.89 299.51 367.14 300.46 368.52C301.42 369.90 302.18 370.72 302.98 371.10C303.79 371.49 304.96 371.57 305.84 371.11C306.72 370.65 308.05 369.26 308.85 368.04C309.65 366.81 310.67 364.52 311.18 362.93C311.69 361.33 312.16 358.96 312.27 357.40C312.38 355.85 312.22 353.66 311.93 352.56C311.65 351.46 310.92 350.38 310.37 350.07C309.83 349.76 308.85 349.99 308.31 350.50C307.77 351.00 307.04 352.25 306.77 353.44C306.49 354.63 306.32 356.99 306.47 358.44C306.61 359.88 307.13 362.07 307.75 363.06C308.36 364.06 309.62 364.78 310.58 365.07C311.53 365.36 313.03 365.74 314.11 365.01C315.19 364.28 316.87 362.37 317.77 360.23C318.68 358.08 319.79 352.15 320.15 350.73"/><path fill="none" stroke="#d1000d" stroke-width="2.0" stroke-linecap="round" stroke-linejoin="round" d="M313.86 329.59C313.89 330.72 313.37 333.75 314.08 337.09C314.79 340.44 317.45 348.84 318.58 351.88C319.72 354.91 320.82 356.20 321.66 357.31C322.51 358.42 323.68 359.11 324.20 359.27C324.71 359.43 324.96 358.51 325.10 358.37"/><path fill="none" stroke="#d1000d" stroke-width="2.0" stroke-linecap="round" stroke-linejoin="round" d="M329.14 345.78C329.01 345.78 328.36 345.58 328.25 345.78C328.13 345.98 328.01 346.31 328.41 347.10C328.81 347.91 330.56 350.57 330.94 351.18"/><path fill="none" stroke="#d1000d" stroke-width="2.0" stroke-linecap="round" stroke-linejoin="round" d="M326.00 342.63C325.74 342.28 323.96 340.49 324.30 340.29C324.63 340.09 327.65 341.14 328.25 341.29"/><path fill="none" stroke="#d1000d" stroke-width="2.0" stroke-linecap="round" stroke-linejoin="round" d="M330.49 337.69C330.46 337.59 329.80 336.83 330.24 337.02C332.13 337.82 340.89 342.21 343.08 343.05C344.23 343.49 344.61 342.90 344.88 342.63C345.15 342.37 344.88 341.49 344.88 341.29"/><path fill="none" stroke="#d1000d" stroke-width="2.0" stroke-linecap="round" stroke-linejoin="round" d="M339.49 335.44C339.08 334.90 337.35 331.60 336.79 331.84C336.22 332.08 336.11 333.52 335.73 337.03C335.32 340.74 334.34 353.64 334.09 356.57"/><path fill="none" stroke="#d1000d" stroke-width="2.0" stroke-linecap="round" stroke-linejoin="round" d="M307.56 401.09C307.24 400.86 304.76 397.95 305.44 399.55C306.68 402.46 314.43 419.41 315.82 420.48C317.21 421.56 314.74 409.52 314.72 406.70C314.70 403.89 315.24 402.77 315.70 401.69C316.15 400.61 317.06 399.68 317.73 399.49C318.40 399.31 319.49 399.78 320.14 400.47C320.79 401.15 321.68 402.75 322.04 404.08C322.40 405.40 322.62 407.76 322.53 409.31C322.45 410.87 321.99 412.99 321.49 414.44C321.00 415.88 320.29 417.71 319.22 418.95C318.14 420.18 315.11 422.11 314.31 422.67C314.06 422.84 313.92 422.67 313.86 422.67"/><path fill="none" stroke="#d1000d" stroke-width="2.0" stroke-linecap="round" stroke-linejoin="round" d="M327.80 399.29C328.14 399.89 329.58 401.98 330.10 403.26C330.61 404.55 331.21 407.16 331.24 407.86C331.26 408.50 330.69 408.26 330.27 407.91C329.86 407.57 329.03 406.56 328.48 405.56C327.94 404.56 327.03 402.67 326.63 401.25C326.23 399.83 325.95 397.67 325.84 396.10C325.73 394.54 325.61 392.12 325.91 390.81C326.21 389.49 327.04 387.96 327.86 387.35C328.68 386.73 330.86 386.80 331.39 386.70"/><path fill="none" stroke="#d1000d" stroke-width="2.0" stroke-linecap="round" stroke-linejoin="round" d="M336.34 394.79C336.34 395.00 335.84 396.62 336.34 396.14C336.84 395.66 338.93 392.84 339.68 391.58C340.43 390.32 341.02 388.79 341.32 387.72C341.62 386.66 341.79 385.25 341.70 384.50C341.60 383.74 341.22 382.88 340.72 382.66C340.22 382.44 339.06 382.65 338.36 383.01C337.66 383.38 336.63 384.27 336.06 385.10C335.49 385.94 334.82 387.43 334.55 388.59C334.28 389.76 334.16 391.60 334.26 392.87C334.37 394.13 334.82 395.91 335.26 397.00C335.71 398.09 336.55 399.48 337.24 400.13C337.93 400.79 338.99 401.47 339.87 401.34C340.75 401.22 341.99 400.34 343.08 399.29C344.17 398.24 346.52 395.09 347.13 394.34"/><path fill="none" stroke="#d1000d" stroke-width="2.0" stroke-linecap="round" stroke-linejoin="round" d="M353.88 375.91C353.20 375.91 350.48 374.93 349.38 375.91C348.28 376.89 346.91 380.74 346.53 382.45C346.15 384.16 346.55 386.39 346.84 387.30C347.14 388.21 347.94 388.43 348.48 388.52C349.02 388.62 349.85 388.52 350.46 387.93C351.07 387.34 351.90 386.02 352.54 384.59C353.17 383.15 354.20 378.56 354.70 378.37C355.20 378.18 355.44 382.29 355.86 383.33C356.28 384.37 356.96 385.02 357.49 385.32C358.03 385.61 358.92 385.72 359.43 385.30C359.94 384.88 360.61 383.64 360.87 382.51C361.13 381.38 361.28 379.28 361.18 377.74C361.08 376.20 360.77 374.31 360.19 372.23C359.61 370.14 357.60 364.80 357.32 363.85C357.03 362.89 357.70 364.50 358.29 365.88C359.17 367.91 362.19 375.59 363.16 377.39C363.68 378.34 364.24 378.16 364.73 377.82C365.22 377.48 365.55 377.05 366.42 375.11C367.41 372.90 370.52 364.81 371.35 363.08C371.57 362.62 371.86 363.07 371.93 363.57C372.10 364.75 372.21 369.41 372.47 370.93C372.73 372.45 373.17 373.24 373.66 373.70C374.15 374.17 375.07 374.37 375.76 374.01C376.45 373.64 377.60 372.35 378.28 371.27C378.97 370.19 379.90 368.22 380.34 366.81C380.78 365.40 381.17 363.21 381.24 361.86C381.30 360.50 381.09 358.72 380.79 357.78C380.49 356.85 379.73 355.97 379.23 355.64C378.73 355.30 377.92 355.22 377.44 355.54C376.96 355.87 376.29 356.92 376.04 357.83C375.78 358.74 375.59 360.46 375.73 361.63C375.86 362.80 376.35 364.65 376.94 365.61C377.53 366.57 378.72 367.55 379.66 368.05C380.60 368.54 382.05 369.24 383.19 368.92C384.33 368.59 386.18 367.13 387.25 365.88C388.31 364.64 389.84 361.68 390.30 360.62C390.75 359.56 390.30 359.09 390.30 358.82"/><path fill="none" stroke="#d1000d" stroke-width="2.0" stroke-linecap="round" stroke-linejoin="round" d="M391.20 348.48C391.34 349.56 391.86 354.23 392.17 355.71C392.48 357.19 392.71 359.93 393.26 358.36C393.81 356.79 395.25 347.44 395.85 345.23C396.22 343.86 396.83 343.90 397.25 343.62C397.67 343.33 398.12 343.19 398.62 343.33C399.11 343.47 400.14 344.43 400.57 344.53C401.01 344.63 401.39 344.07 401.54 343.98"/>
</svg>