<?xml version="1.0" encoding="UTF-8"?>
<!DOCTYPE svg PUBLIC "-//W3C//DTD SVG 1.1//EN" "http://www.w3.org/Graphics/SVG/1.1/DTD/svg11.dtd">
<svg  xmlns="http://www.w3.org/2000/svg" xmlns:xlink="http://www.w3.org/1999/xlink" viewport-fill="none" viewBox="0.0, 0.0, 263.915119350226, 412.79376523047705" version="1.1" height="412.79376523047705" width="263.915119350226">
<path fill="none" stroke="#004dc0" stroke-width="2.5" stroke-linecap="round" stroke-linejoin="round" d="M216.73 339.49C216.60 339.28 216.75 338.71 215.83 338.14C214.53 337.32 210.68 334.77 208.03 334.07C205.38 333.36 201.55 333.10 198.15 333.43C194.75 333.77 189.01 335.09 185.38 336.31C181.74 337.54 177.16 339.35 173.90 341.58C170.63 343.81 166.15 347.94 163.60 351.20C161.06 354.46 158.23 359.47 156.95 363.31C155.66 367.15 155.31 372.92 155.03 376.83C154.75 380.73 154.54 385.97 155.08 389.34C155.62 392.72 157.05 396.79 158.62 399.32C160.19 401.84 162.96 404.65 165.53 406.18C168.11 407.72 171.89 408.96 175.77 409.55C179.65 410.15 186.27 410.50 191.40 410.17C196.54 409.84 204.48 408.76 210.03 407.35C215.57 405.94 223.15 403.37 228.38 400.77C233.61 398.16 240.77 393.77 244.91 390.02C249.04 386.26 253.51 380.18 255.93 375.72C258.36 371.27 260.41 364.70 261.07 360.31C261.73 355.93 261.42 350.18 260.35 346.48C259.28 342.78 256.88 337.92 253.91 335.65C250.95 333.37 245.66 331.63 240.55 331.33C235.45 331.03 226.15 332.08 219.88 333.64C213.61 335.20 201.92 340.52 198.75 341.73"/>
</svg>