<?xml version="1.0" encoding="UTF-8"?>
<!DOCTYPE svg PUBLIC "-//W3C//DTD SVG 1.1//EN" "http://www.w3.org/Graphics/SVG/1.1/DTD/svg11.dtd">
<svg  xmlns="http://www.w3.org/2000/svg" xmlns:xlink="http://www.w3.org/1999/xlink" viewport-fill="none" viewBox="0.0, 0.0, 1216.5660400390625, 1385.741943359375" version="1.1" height="1385.741943359375" width="1216.5660400390625">
<path fill="none" stroke="#d1000d" stroke-width="2.0" stroke-linecap="round" stroke-linejoin="round" d="M911.00 596.00C910.83 595.67 909.31 593.08 909.86 593.80C910.41 594.53 914.88 599.56 914.68 600.85C914.48 602.14 909.63 601.98 908.51 602.40C907.39 602.83 907.39 603.22 907.22 603.68C907.04 604.13 907.20 604.90 907.36 605.42C907.53 605.95 907.82 606.76 908.30 607.16C908.79 607.55 909.79 607.98 910.57 608.04C911.35 608.09 912.84 607.81 913.50 607.50C914.16 607.19 914.78 606.22 915.00 606.00"/><path fill="none" stroke="#d1000d" stroke-width="2.0" stroke-linecap="round" stroke-linejoin="round" d="M921.50 592.00C921.07 591.93 919.27 591.03 918.62 591.56C917.97 592.09 917.33 594.57 917.19 595.54C917.05 596.50 917.40 597.37 917.70 598.01C917.99 598.65 918.66 599.46 919.13 599.82C919.61 600.18 920.38 600.46 920.86 600.40C921.35 600.34 921.99 599.88 922.37 599.44C922.75 599.00 923.38 598.58 923.40 597.46C923.42 596.34 922.63 592.82 922.50 592.00"/><path fill="none" stroke="#d1000d" stroke-width="2.0" stroke-linecap="round" stroke-linejoin="round" d="M925.00 591.00C925.40 590.40 927.37 587.90 927.69 586.99C928.00 586.08 927.53 584.98 927.11 584.93C926.69 584.88 925.19 585.73 924.86 586.67C924.52 587.61 924.65 590.31 924.90 591.20C925.16 592.08 925.88 592.38 926.57 592.57C927.26 592.77 928.76 592.74 929.50 592.50C930.24 592.26 931.20 591.22 931.50 591.00"/><path fill="none" stroke="#d1000d" stroke-width="2.0" stroke-linecap="round" stroke-linejoin="round" d="M935.00 581.00C934.92 580.70 934.84 579.54 934.50 579.00C934.16 578.46 933.30 577.39 932.72 577.42C932.13 577.44 930.91 578.67 930.58 579.17C930.25 579.66 930.39 580.24 930.52 580.71C930.64 581.18 930.41 581.62 931.42 582.30C932.52 583.03 936.62 584.85 937.83 585.60C939.04 586.35 939.40 586.92 939.51 587.28C939.63 587.64 939.03 587.89 938.57 588.00C938.12 588.11 936.81 588.00 936.50 588.00"/><path fill="none" stroke="#d1000d" stroke-width="2.0" stroke-linecap="round" stroke-linejoin="round" d="M939.00 576.50C939.55 577.18 941.94 581.40 942.64 581.05C943.35 580.69 943.44 575.17 943.71 574.14C943.84 573.64 944.15 573.77 944.48 574.16C944.97 574.74 946.62 577.42 947.00 578.00"/><path fill="none" stroke="#d1000d" stroke-width="2.0" stroke-linecap="round" stroke-linejoin="round" d="M941.50 559.00C941.44 558.76 941.18 556.60 941.11 557.43C941.03 558.25 941.02 563.44 941.00 564.50"/><path fill="none" stroke="#d1000d" stroke-width="2.0" stroke-linecap="round" stroke-linejoin="round" d="M950.00 557.50C949.92 557.45 949.23 556.75 949.44 557.14C950.34 558.87 955.02 567.22 956.00 569.00"/><path fill="none" stroke="#d1000d" stroke-width="2.0" stroke-linecap="round" stroke-linejoin="round" d="M949.50 566.50C949.40 566.28 948.82 565.38 948.82 565.04C948.82 564.69 948.91 564.61 949.51 564.22C950.66 563.46 955.45 560.63 956.50 560.00"/><path fill="none" stroke="#d1000d" stroke-width="2.0" stroke-linecap="round" stroke-linejoin="round" d="M945.00 599.50C945.46 600.34 947.95 605.24 948.08 605.09C948.20 604.95 946.17 600.20 945.85 598.54C945.54 596.87 945.98 594.68 946.00 594.00"/><path fill="none" stroke="#d1000d" stroke-width="2.0" stroke-linecap="round" stroke-linejoin="round" d="M951.00 598.00C951.24 598.14 951.98 599.06 952.58 598.94C953.18 598.82 954.47 598.06 955.00 597.19C955.53 596.31 956.03 593.99 956.12 593.10C956.21 592.22 955.86 591.67 955.62 591.31C955.37 590.94 954.86 590.69 954.49 590.70C954.13 590.71 953.53 590.96 953.19 591.36C952.85 591.75 952.39 592.68 952.23 593.35C952.07 594.02 951.99 595.17 952.10 595.83C952.21 596.48 952.56 597.34 952.95 597.73C953.34 598.12 954.11 598.47 954.70 598.44C955.29 598.42 955.95 598.48 956.89 597.58C957.83 596.69 960.19 594.01 960.97 592.48C961.75 590.95 962.03 588.34 962.08 587.38C962.12 586.43 961.58 586.37 961.27 586.10C960.96 585.83 960.41 585.61 960.01 585.60C959.62 585.60 958.97 585.84 958.63 586.06C958.29 586.28 957.85 586.74 957.74 587.08C957.62 587.42 957.66 587.94 957.86 588.33C958.05 588.73 958.03 589.04 959.04 589.73C960.14 590.49 964.16 592.67 965.20 593.40C965.96 593.93 965.99 594.18 965.96 594.57C965.93 594.96 965.14 595.79 965.00 596.00"/><path fill="none" stroke="#d1000d" stroke-width="2.0" stroke-linecap="round" stroke-linejoin="round" d="M967.00 585.50C966.99 585.12 966.84 582.63 966.96 582.97C967.08 583.30 967.42 586.72 967.79 587.75C968.16 588.77 969.08 589.55 969.44 589.80C969.79 590.06 970.07 589.70 970.16 589.44C970.25 589.18 970.36 588.74 970.04 588.07C969.71 587.41 968.31 585.46 968.00 585.00"/><path fill="none" stroke="#d1000d" stroke-width="2.0" stroke-linecap="round" stroke-linejoin="round" d="M970.00 574.50C969.93 574.47 969.40 574.01 969.54 574.32C969.90 575.13 971.47 578.34 972.44 579.94C973.41 581.54 975.32 584.17 976.00 585.00C976.47 585.58 976.85 585.42 977.00 585.50"/><path fill="none" stroke="#d1000d" stroke-width="2.0" stroke-linecap="round" stroke-linejoin="round" d="M976.00 577.50C975.98 577.41 975.56 576.65 975.89 576.89C976.35 577.22 978.21 579.16 979.09 579.71C979.97 580.26 981.17 581.72 981.76 580.56C982.35 579.40 982.81 573.28 983.00 572.00"/><path fill="none" stroke="#d1000d" stroke-width="2.0" stroke-linecap="round" stroke-linejoin="round" d="M984.50 573.50C984.95 573.17 986.90 572.02 987.48 571.27C988.05 570.52 988.30 568.98 988.31 568.47C988.33 567.96 987.88 567.85 987.57 567.86C987.26 567.88 986.60 568.17 986.27 568.55C985.93 568.93 985.47 569.77 985.33 570.40C985.20 571.03 985.16 572.13 985.38 572.77C985.59 573.42 986.19 574.24 986.76 574.71C987.33 575.19 988.31 575.90 989.16 575.95C990.02 576.01 991.51 575.84 992.46 575.10C993.41 574.36 995.04 571.61 995.50 571.00"/><path fill="none" stroke="#d1000d" stroke-width="2.0" stroke-linecap="round" stroke-linejoin="round" d="M1000.00 547.50C999.83 547.43 998.54 546.31 998.89 547.04C999.87 549.06 1005.36 558.91 1006.50 561.00"/><path fill="none" stroke="#d1000d" stroke-width="2.0" stroke-linecap="round" stroke-linejoin="round" d="M1004.00 545.50C1003.92 545.28 1002.87 543.15 1003.50 544.00C1004.55 545.42 1009.88 553.35 1011.00 555.00"/><path fill="none" stroke="#d1000d" stroke-width="2.0" stroke-linecap="round" stroke-linejoin="round" d="M1004.00 555.50C1003.90 555.36 1003.31 554.84 1003.32 554.57C1003.33 554.30 1003.47 554.18 1004.07 553.70C1004.99 552.94 1008.68 550.13 1009.50 549.50"/><path fill="none" stroke="#d1000d" stroke-width="2.0" stroke-linecap="round" stroke-linejoin="round" d="M968.50 620.00C968.58 619.83 968.64 618.13 969.04 618.86C969.56 619.84 971.56 625.35 972.00 626.50"/><path fill="none" stroke="#d1000d" stroke-width="2.0" stroke-linecap="round" stroke-linejoin="round" d="M966.00 617.50C966.01 617.29 965.92 616.33 966.07 616.11C966.22 615.88 966.86 616.02 967.00 616.00"/><path fill="none" stroke="#d1000d" stroke-width="2.0" stroke-linecap="round" stroke-linejoin="round" d="M971.50 619.00C972.05 619.92 974.71 625.09 975.18 625.13C975.65 625.17 974.67 620.51 974.64 619.26C974.61 618.00 974.76 617.35 974.96 616.76C975.16 616.17 975.29 615.42 975.97 615.34C976.64 615.26 978.67 615.78 979.46 616.22C980.25 616.66 980.61 617.79 981.22 618.28C981.82 618.77 983.16 619.32 983.50 619.50"/><path fill="none" stroke="#d1000d" stroke-width="2.0" stroke-linecap="round" stroke-linejoin="round" d="M988.50 603.50C988.58 603.40 988.58 602.87 989.04 602.85C989.49 602.83 989.93 602.81 991.53 603.36C993.32 603.99 999.58 606.45 1001.00 607.00"/><path fill="none" stroke="#d1000d" stroke-width="2.0" stroke-linecap="round" stroke-linejoin="round" d="M996.00 599.00C995.71 598.71 994.42 596.80 994.04 597.07C993.65 597.34 993.50 598.34 993.42 600.81C993.34 603.27 993.41 611.45 993.50 613.50C993.53 614.24 993.92 614.35 994.00 614.50"/><path fill="none" stroke="#d1000d" stroke-width="2.0" stroke-linecap="round" stroke-linejoin="round" d="M1002.50 599.00C1002.88 599.66 1004.99 603.63 1005.01 603.38C1005.03 603.13 1002.95 598.65 1002.65 597.32C1002.34 595.99 1002.72 595.15 1003.00 594.50C1003.28 593.85 1004.28 593.22 1004.50 593.00"/><path fill="none" stroke="#d1000d" stroke-width="2.0" stroke-linecap="round" stroke-linejoin="round" d="M1010.00 592.50C1009.81 593.26 1008.83 596.57 1008.76 597.57C1008.68 598.56 1009.16 599.73 1009.51 599.12C1009.85 598.50 1010.33 594.12 1011.07 593.46C1011.80 592.80 1013.60 594.97 1014.43 594.71C1015.25 594.46 1016.23 592.53 1016.59 591.76C1016.95 591.00 1016.82 590.18 1016.82 589.60C1016.82 589.03 1016.68 588.25 1016.57 587.93C1016.46 587.61 1016.09 587.19 1016.09 587.47C1016.09 587.76 1016.26 589.23 1016.58 589.82C1016.91 590.40 1017.65 591.02 1018.25 591.36C1018.85 591.69 1019.90 592.03 1020.59 592.05C1021.28 592.07 1022.32 591.85 1022.87 591.48C1023.42 591.11 1024.04 590.27 1024.26 589.58C1024.47 588.89 1024.47 587.70 1024.32 586.87C1024.16 586.04 1023.65 584.75 1023.21 584.05C1022.77 583.35 1021.87 582.45 1021.40 582.20C1020.93 581.95 1020.29 581.89 1020.10 582.38C1019.91 582.87 1019.84 584.06 1020.14 585.46C1020.44 586.85 1020.69 588.11 1022.09 591.67C1023.50 595.23 1028.01 605.36 1029.51 609.16C1031.01 612.96 1031.66 615.03 1032.10 617.00C1032.54 618.98 1032.70 621.21 1032.44 622.35C1032.19 623.49 1031.18 624.34 1030.39 624.61C1029.61 624.89 1028.22 624.69 1027.23 624.18C1026.24 623.68 1024.52 622.45 1023.80 621.24C1023.09 620.03 1022.58 618.02 1022.46 616.11C1022.34 614.20 1022.62 611.14 1023.00 608.50C1023.38 605.86 1024.70 600.00 1025.00 598.50"/><path fill="none" stroke="#d1000d" stroke-width="2.0" stroke-linecap="round" stroke-linejoin="round" d="M1032.50 573.00C1032.43 572.85 1032.32 572.19 1032.00 572.00C1031.68 571.81 1030.72 571.52 1030.34 571.72C1029.96 571.92 1029.62 572.33 1029.47 573.33C1029.33 574.32 1029.24 577.31 1029.38 578.38C1029.52 579.44 1030.03 579.94 1030.42 580.44C1030.82 580.93 1031.48 581.57 1032.02 581.66C1032.56 581.74 1033.51 581.69 1034.04 580.99C1034.56 580.29 1035.28 577.60 1035.50 577.00"/><path fill="none" stroke="#d1000d" stroke-width="2.0" stroke-linecap="round" stroke-linejoin="round" d="M1035.50 571.00C1035.60 570.92 1035.94 570.45 1036.18 570.46C1036.42 570.48 1036.71 570.46 1037.08 571.09C1037.49 571.80 1038.69 575.59 1038.93 575.19C1039.16 574.80 1038.41 569.92 1038.65 568.46C1038.88 567.01 1040.22 565.94 1040.50 565.50"/><path fill="none" stroke="#d1000d" stroke-width="2.0" stroke-linecap="round" stroke-linejoin="round" d="M1043.00 566.00C1043.08 566.28 1043.27 567.41 1043.54 567.85C1043.82 568.28 1044.37 568.66 1044.82 568.91C1045.26 569.16 1046.00 569.51 1046.53 569.53C1047.05 569.56 1047.82 569.37 1048.29 569.08C1048.76 568.79 1049.39 568.18 1049.66 567.61C1049.93 567.04 1050.20 566.24 1050.08 565.26C1049.96 564.29 1048.22 559.89 1048.87 561.11C1049.53 562.32 1053.34 570.69 1054.45 573.38C1055.56 576.07 1055.97 577.53 1056.30 579.03C1056.63 580.53 1056.77 582.37 1056.63 583.38C1056.49 584.39 1055.89 585.37 1055.37 585.75C1054.85 586.13 1053.76 586.24 1053.16 585.91C1052.55 585.58 1051.78 584.50 1051.33 583.55C1050.87 582.60 1050.27 581.11 1050.14 579.60C1050.02 578.08 1049.92 576.37 1050.50 573.43C1051.08 570.49 1053.47 562.01 1054.00 560.00"/><path fill="none" stroke="#d1000d" stroke-width="2.0" stroke-linecap="round" stroke-linejoin="round" d="M1056.00 555.50C1055.58 555.46 1053.68 554.83 1053.22 555.24C1052.76 555.66 1052.02 556.71 1052.95 558.27C1053.88 559.82 1058.44 564.22 1059.43 565.61C1060.16 566.64 1059.71 566.99 1059.50 567.50C1059.29 568.01 1058.22 568.78 1058.00 569.00"/><path fill="none" stroke="#d1000d" stroke-width="2.0" stroke-linecap="round" stroke-linejoin="round" d="M922.88 1171.40C922.80 1171.31 922.47 1170.81 922.30 1170.81C922.13 1170.82 921.79 1170.87 921.76 1171.41C921.68 1172.88 921.48 1174.49 921.76 1180.64C922.38 1193.88 925.07 1239.77 925.86 1259.65C926.64 1279.53 926.80 1305.13 926.97 1313.15"/><path fill="none" stroke="#d1000d" stroke-width="2.0" stroke-linecap="round" stroke-linejoin="round" d="M918.80 1295.65C918.53 1295.12 916.44 1289.97 917.03 1292.08C917.61 1294.19 921.44 1306.05 922.70 1309.73C923.96 1313.42 924.60 1314.99 925.42 1316.63C926.24 1318.26 927.32 1320.15 928.15 1320.63C928.99 1321.11 930.15 1320.64 931.00 1319.83C931.84 1319.01 932.24 1318.45 933.81 1315.20C935.57 1311.58 941.38 1298.59 942.72 1295.65"/><path fill="none" stroke="#d1000d" stroke-width="2.0" stroke-linecap="round" stroke-linejoin="round" d="M921.72 1355.16C921.52 1354.79 921.12 1353.28 920.38 1352.74C919.64 1352.20 917.64 1351.66 916.79 1351.58C915.94 1351.50 915.26 1351.86 914.68 1352.22C914.11 1352.58 913.32 1353.37 912.94 1353.98C912.55 1354.60 912.14 1355.65 912.13 1356.32C912.12 1357.00 912.39 1357.92 912.88 1358.48C913.36 1359.05 913.47 1359.55 915.37 1360.09C917.60 1360.73 925.58 1361.99 927.74 1362.74C929.67 1363.42 929.47 1364.23 929.73 1365.08C930.00 1365.94 929.89 1367.40 929.49 1368.44C929.10 1369.48 928.09 1371.03 927.11 1372.00C926.12 1372.98 924.00 1374.41 922.93 1374.95C921.85 1375.48 920.59 1375.83 919.97 1375.57C919.35 1375.32 918.97 1373.59 918.80 1373.24"/><path fill="none" stroke="#d1000d" stroke-width="2.0" stroke-linecap="round" stroke-linejoin="round" d="M933.38 1349.32C933.11 1349.60 931.93 1350.35 931.55 1351.16C931.16 1351.97 930.77 1353.61 930.82 1354.72C930.87 1355.82 931.44 1357.50 931.86 1358.50C932.28 1359.50 933.00 1360.78 933.62 1361.37C934.25 1361.97 935.37 1362.44 936.04 1362.48C936.71 1362.51 937.55 1362.10 938.07 1361.61C938.60 1361.12 939.33 1360.08 939.54 1359.22C939.76 1358.36 939.73 1356.91 939.50 1355.87C939.28 1354.82 938.27 1352.78 938.05 1352.24"/><path fill="none" stroke="#d1000d" stroke-width="2.0" stroke-linecap="round" stroke-linejoin="round" d="M935.13 1332.99C935.40 1333.86 936.21 1337.08 936.91 1338.81C937.61 1340.53 938.41 1342.15 939.80 1344.51C941.20 1346.88 945.26 1353.06 946.22 1354.57"/><path fill="none" stroke="#d1000d" stroke-width="2.0" stroke-linecap="round" stroke-linejoin="round" d="M944.47 1342.32C944.29 1342.30 942.81 1341.48 943.26 1342.15C943.77 1342.92 946.85 1346.41 947.91 1347.46C948.97 1348.51 949.69 1348.88 950.33 1349.17C950.97 1349.45 951.76 1349.52 952.19 1349.37C952.63 1349.22 953.25 1349.23 953.24 1348.17C953.22 1346.42 952.23 1339.23 952.05 1337.66"/><path fill="none" stroke="#d1000d" stroke-width="2.0" stroke-linecap="round" stroke-linejoin="round" d="M956.72 1338.82C957.02 1338.62 958.15 1338.33 958.70 1337.49C959.26 1336.65 960.20 1334.18 960.39 1333.22C960.58 1332.25 960.24 1331.56 959.97 1331.06C959.71 1330.56 959.11 1330.01 958.62 1329.88C958.13 1329.74 957.24 1329.83 956.71 1330.19C956.19 1330.55 955.39 1331.46 955.13 1332.30C954.87 1333.13 954.79 1334.74 954.98 1335.74C955.16 1336.74 955.75 1338.07 956.36 1338.98C956.97 1339.88 958.13 1341.27 959.05 1341.78C959.98 1342.29 961.55 1342.97 962.51 1342.35C963.47 1341.74 965.03 1338.36 965.47 1337.66"/><path fill="none" stroke="#d1000d" stroke-width="2.0" stroke-linecap="round" stroke-linejoin="round" d="M964.30 1326.57C964.76 1327.68 966.60 1332.56 967.32 1333.96C968.05 1335.36 969.02 1337.15 969.13 1335.89C969.24 1334.62 968.20 1327.54 968.07 1325.53C967.93 1323.51 968.08 1323.11 968.24 1322.44C968.41 1321.77 968.71 1321.00 969.16 1321.05C969.60 1321.09 970.20 1321.48 971.22 1322.74C972.24 1324.01 975.26 1328.48 975.97 1329.49"/><path fill="none" stroke="#d1000d" stroke-width="2.0" stroke-linecap="round" stroke-linejoin="round" d="M972.47 1309.07C972.15 1308.72 969.36 1305.31 970.33 1306.71C971.29 1308.11 977.60 1316.65 978.89 1318.41"/><path fill="none" stroke="#d1000d" stroke-width="2.0" stroke-linecap="round" stroke-linejoin="round" d="M975.39 1322.49C975.56 1321.35 976.03 1316.83 976.55 1314.90C977.08 1312.98 978.54 1310.44 978.89 1309.65"/><path fill="none" stroke="#d1000d" stroke-width="2.0" stroke-linecap="round" stroke-linejoin="round" d="M977.14 1364.49C977.14 1364.32 977.31 1363.72 977.14 1363.32C976.96 1362.92 976.39 1362.11 975.97 1361.83C975.55 1361.55 974.88 1361.38 974.34 1361.46C973.79 1361.54 972.91 1361.86 972.35 1362.36C971.79 1362.87 971.01 1363.84 970.58 1364.83C970.15 1365.81 969.67 1367.54 969.49 1368.93C969.32 1370.32 969.27 1372.78 969.41 1374.09C969.56 1375.40 970.04 1376.99 970.47 1377.68C970.90 1378.37 971.74 1378.80 972.29 1378.67C972.83 1378.54 973.48 1378.44 974.11 1376.84C974.79 1375.15 976.11 1368.41 976.77 1367.41C977.43 1366.41 977.85 1369.63 978.52 1370.15C979.18 1370.68 980.38 1370.97 981.22 1370.91C982.06 1370.85 983.70 1369.92 984.14 1369.74"/><path fill="none" stroke="#d1000d" stroke-width="2.0" stroke-linecap="round" stroke-linejoin="round" d="M987.05 1355.16C986.79 1354.83 985.88 1353.41 985.30 1352.99C984.73 1352.58 983.81 1352.35 983.21 1352.41C982.61 1352.47 981.78 1352.92 981.31 1353.39C980.84 1353.87 980.29 1354.72 980.09 1355.56C979.89 1356.40 979.81 1357.92 979.98 1358.99C980.14 1360.07 980.67 1361.65 981.18 1362.71C981.69 1363.77 982.59 1365.29 983.39 1366.05C984.19 1366.82 985.61 1367.71 986.51 1367.82C987.41 1367.94 988.61 1367.41 989.39 1366.82C990.17 1366.24 991.37 1364.34 991.72 1363.91"/><path fill="none" stroke="#d1000d" stroke-width="2.0" stroke-linecap="round" stroke-linejoin="round" d="M992.89 1346.41C992.62 1346.31 991.56 1345.71 991.14 1345.74C990.71 1345.77 990.30 1346.06 990.04 1346.62C989.78 1347.18 989.27 1347.99 989.43 1349.47C989.58 1350.95 990.42 1354.95 991.05 1356.46C991.68 1357.97 992.54 1359.02 993.60 1359.53C994.66 1360.03 997.46 1359.78 998.14 1359.82"/><path fill="none" stroke="#d1000d" stroke-width="2.0" stroke-linecap="round" stroke-linejoin="round" d="M999.30 1351.66C999.71 1351.05 1001.37 1348.93 1001.99 1347.64C1002.61 1346.35 1003.23 1343.98 1003.41 1343.03C1003.59 1342.09 1003.56 1341.83 1003.18 1341.33C1002.80 1340.83 1001.67 1339.77 1000.90 1339.70C1000.13 1339.63 998.63 1340.38 998.04 1340.86C997.46 1341.35 997.18 1342.19 997.01 1342.94C996.84 1343.69 996.79 1344.93 996.90 1345.87C997.01 1346.80 997.35 1348.23 997.75 1349.15C998.15 1350.08 998.82 1351.42 999.56 1352.03C1000.30 1352.64 1001.75 1353.29 1002.68 1353.24C1003.60 1353.18 1004.91 1352.42 1005.72 1351.66C1006.53 1350.89 1007.70 1348.68 1008.05 1348.16"/><path fill="none" stroke="#d1000d" stroke-width="2.0" stroke-linecap="round" stroke-linejoin="round" d="M1014.47 1331.82C1014.37 1331.59 1014.10 1330.56 1013.76 1330.28C1013.42 1330.01 1012.96 1329.65 1012.19 1329.98C1011.41 1330.30 1009.27 1331.80 1008.61 1332.45C1007.95 1333.10 1007.83 1333.77 1007.78 1334.31C1007.73 1334.85 1007.89 1335.56 1008.26 1336.04C1008.64 1336.51 1008.77 1336.83 1010.30 1337.48C1011.96 1338.18 1017.84 1339.99 1019.32 1340.74C1020.46 1341.31 1020.29 1341.86 1020.18 1342.45C1020.06 1343.04 1019.15 1344.15 1018.56 1344.66C1017.96 1345.16 1016.57 1345.65 1016.22 1345.82"/><path fill="none" stroke="#d1000d" stroke-width="2.0" stroke-linecap="round" stroke-linejoin="round" d="M1019.14 1324.82C1018.97 1324.49 1018.31 1322.97 1018.01 1322.62C1017.72 1322.26 1017.54 1322.03 1017.15 1322.46C1016.75 1322.92 1015.59 1324.83 1015.32 1325.62C1015.06 1326.41 1015.20 1327.16 1015.38 1327.72C1015.55 1328.27 1016.01 1328.92 1016.49 1329.31C1016.96 1329.71 1017.12 1329.79 1018.55 1330.36C1019.99 1330.93 1024.83 1332.38 1026.04 1333.11C1027.26 1333.84 1026.84 1334.47 1026.68 1335.24C1026.52 1336.01 1025.23 1337.79 1024.97 1338.24"/><path fill="none" stroke="#d1000d" stroke-width="2.0" stroke-linecap="round" stroke-linejoin="round" d="M1024.97 1323.07C1025.06 1323.07 1025.31 1322.77 1025.56 1323.07C1026.26 1323.95 1029.03 1328.03 1029.64 1328.91"/><path fill="none" stroke="#d1000d" stroke-width="2.0" stroke-linecap="round" stroke-linejoin="round" d="M1019.14 1317.82C1018.79 1317.47 1016.98 1315.93 1016.81 1315.49C1016.63 1315.05 1017.80 1314.99 1017.97 1314.90"/><path fill="none" stroke="#d1000d" stroke-width="2.0" stroke-linecap="round" stroke-linejoin="round" d="M1023.22 1306.15C1023.19 1306.04 1022.76 1304.94 1023.01 1305.40C1024.34 1307.81 1030.55 1319.49 1032.12 1322.20C1032.74 1323.28 1032.94 1324.59 1033.48 1323.47C1034.09 1322.21 1035.52 1315.55 1036.19 1313.77C1036.86 1312.00 1037.42 1311.85 1037.96 1311.56C1038.49 1311.26 1039.33 1311.37 1039.76 1311.80C1040.18 1312.24 1040.62 1313.50 1040.79 1314.48C1040.97 1315.45 1041.15 1317.13 1040.93 1318.31C1040.71 1319.49 1040.07 1321.38 1039.34 1322.36C1038.61 1323.34 1036.90 1324.37 1036.06 1324.82C1035.21 1325.28 1034.07 1325.32 1033.72 1325.41"/><path fill="none" stroke="#d1000d" stroke-width="2.0" stroke-linecap="round" stroke-linejoin="round" d="M1035.47 1296.82C1035.86 1297.03 1036.95 1296.62 1038.04 1298.25C1039.53 1300.47 1043.92 1309.11 1045.42 1311.63C1046.89 1314.08 1046.99 1316.26 1048.06 1315.00C1049.14 1313.75 1052.07 1305.64 1052.57 1303.27C1053.08 1300.89 1051.90 1299.89 1051.44 1299.19C1050.98 1298.49 1050.06 1298.52 1049.49 1298.63C1048.93 1298.73 1048.00 1299.20 1047.66 1299.87C1047.32 1300.55 1047.06 1302.10 1047.23 1303.10C1047.39 1304.11 1048.07 1305.53 1048.76 1306.56C1049.44 1307.59 1050.63 1309.37 1051.79 1309.97C1052.95 1310.58 1055.16 1311.08 1056.47 1310.60C1057.79 1310.11 1059.95 1307.49 1060.56 1306.74C1061.05 1306.13 1060.56 1305.75 1060.56 1305.57"/><path fill="none" stroke="#d1000d" stroke-width="2.0" stroke-linecap="round" stroke-linejoin="round" d="M1026.72 1373.82C1026.68 1372.90 1026.90 1369.14 1026.46 1367.64C1026.02 1366.15 1024.42 1364.39 1023.78 1363.88C1023.13 1363.36 1022.62 1363.85 1022.15 1364.23C1021.68 1364.61 1020.90 1365.56 1020.66 1366.41C1020.41 1367.26 1020.33 1368.81 1020.52 1369.89C1020.70 1370.97 1021.27 1372.62 1021.89 1373.61C1022.51 1374.60 1022.87 1375.58 1024.64 1376.49C1026.41 1377.39 1032.33 1379.04 1033.71 1379.63C1034.19 1379.83 1034.09 1379.98 1033.81 1380.41C1033.53 1380.83 1032.91 1381.95 1031.85 1382.45C1030.78 1382.95 1027.49 1383.55 1026.72 1383.74"/><path fill="none" stroke="#d1000d" stroke-width="2.0" stroke-linecap="round" stroke-linejoin="round" d="M1033.72 1363.91C1033.81 1363.85 1034.06 1363.14 1034.33 1363.54C1035.08 1364.65 1037.77 1369.81 1038.70 1371.30C1039.64 1372.78 1040.09 1373.05 1040.58 1373.43C1041.07 1373.81 1041.64 1374.07 1041.95 1373.81C1042.27 1373.55 1042.60 1372.57 1042.70 1371.70C1042.80 1370.83 1042.86 1369.75 1042.62 1367.99C1042.37 1366.22 1040.60 1360.16 1041.08 1359.93C1041.56 1359.70 1044.72 1365.21 1045.81 1366.47C1046.90 1367.73 1047.62 1368.18 1048.35 1368.32C1049.07 1368.46 1050.30 1367.54 1050.64 1367.41"/><path fill="none" stroke="#d1000d" stroke-width="2.0" stroke-linecap="round" stroke-linejoin="round" d="M1047.14 1354.57C1047.94 1355.73 1052.04 1361.62 1052.45 1362.26C1052.85 1362.91 1050.46 1359.90 1049.83 1358.87C1049.20 1357.84 1048.58 1356.71 1048.26 1355.37C1047.95 1354.03 1047.80 1350.73 1047.72 1349.91"/><path fill="none" stroke="#d1000d" stroke-width="2.0" stroke-linecap="round" stroke-linejoin="round" d="M1052.97 1346.41C1053.76 1347.08 1056.85 1349.94 1058.21 1350.91C1059.56 1351.87 1061.42 1352.72 1062.01 1352.84C1062.60 1352.97 1062.42 1352.43 1062.15 1351.72C1061.54 1350.04 1058.57 1343.76 1057.90 1341.65C1057.22 1339.54 1057.68 1338.26 1057.64 1337.66"/><path fill="none" stroke="#d1000d" stroke-width="2.0" stroke-linecap="round" stroke-linejoin="round" d="M1062.89 1341.16C1063.27 1341.27 1064.86 1341.85 1065.39 1341.88C1065.92 1341.92 1066.01 1342.03 1066.45 1341.39C1066.94 1340.69 1068.46 1338.29 1068.62 1337.19C1068.78 1336.08 1068.06 1334.70 1067.52 1334.02C1066.97 1333.34 1065.75 1332.65 1065.00 1332.64C1064.24 1332.63 1062.91 1333.56 1062.48 1333.98C1062.05 1334.40 1062.08 1335.05 1062.14 1335.43C1062.20 1335.81 1062.67 1336.35 1062.87 1336.51C1063.07 1336.67 1063.21 1336.49 1063.47 1336.49C1063.74 1336.49 1064.47 1336.49 1064.64 1336.49"/><path fill="none" stroke="#d1000d" stroke-width="2.0" stroke-linecap="round" stroke-linejoin="round" d="M1064.64 1328.32C1064.14 1328.03 1061.98 1326.57 1061.28 1326.36C1060.58 1326.15 1060.22 1326.52 1059.96 1326.89C1059.70 1327.26 1059.50 1328.00 1059.54 1328.82C1059.58 1329.65 1059.82 1331.17 1060.23 1332.37C1060.65 1333.58 1060.95 1334.28 1062.33 1336.85C1063.71 1339.41 1068.42 1347.35 1069.44 1349.49C1069.92 1350.48 1069.55 1350.70 1069.18 1351.12C1068.81 1351.53 1067.57 1352.07 1066.97 1352.24C1066.38 1352.41 1065.49 1352.24 1065.22 1352.24"/><path fill="none" stroke="#d1000d" stroke-width="2.0" stroke-linecap="round" stroke-linejoin="round" d="M1062.89 1341.74C1063.50 1341.13 1066.36 1338.27 1066.97 1337.66"/><path fill="none" stroke="#d1000d" stroke-width="2.0" stroke-linecap="round" stroke-linejoin="round" d="M1074.56 1331.24C1074.47 1331.12 1074.14 1330.38 1073.95 1330.47C1073.76 1330.55 1073.43 1330.83 1073.31 1331.82C1073.18 1332.89 1073.01 1336.26 1073.09 1337.59C1073.16 1338.92 1073.52 1339.97 1073.81 1340.67C1074.09 1341.38 1074.63 1342.08 1074.98 1342.28C1075.33 1342.48 1075.81 1342.39 1076.12 1342.01C1076.42 1341.62 1076.77 1340.87 1077.01 1339.73C1077.26 1338.58 1077.34 1334.79 1077.76 1334.38C1078.19 1333.97 1079.19 1336.50 1079.85 1336.99C1080.51 1337.48 1081.54 1337.64 1082.14 1337.66C1082.75 1337.67 1083.63 1337.16 1083.89 1337.07"/><path fill="none" stroke="#d1000d" stroke-width="2.0" stroke-linecap="round" stroke-linejoin="round" d="M1090.31 1327.16C1090.38 1326.65 1090.81 1324.61 1090.77 1323.78C1090.72 1322.96 1090.38 1322.06 1090.03 1321.65C1089.68 1321.24 1088.92 1321.06 1088.44 1321.06C1087.96 1321.06 1087.28 1321.19 1086.82 1321.63C1086.35 1322.07 1085.60 1323.17 1085.34 1324.01C1085.07 1324.85 1084.96 1326.31 1085.05 1327.24C1085.15 1328.17 1085.46 1329.54 1085.97 1330.22C1086.47 1330.90 1087.54 1331.63 1088.41 1331.78C1089.28 1331.93 1090.77 1331.70 1091.78 1331.23C1092.80 1330.77 1094.19 1329.64 1095.16 1328.67C1096.13 1327.71 1097.49 1325.99 1098.23 1324.79C1098.97 1323.60 1099.72 1321.87 1100.10 1320.72C1100.48 1319.56 1100.70 1318.05 1100.74 1317.12C1100.78 1316.18 1100.64 1315.07 1100.39 1314.47C1100.14 1313.88 1099.52 1313.39 1099.08 1313.14C1098.64 1312.90 1097.95 1312.73 1097.44 1312.85C1096.93 1312.96 1096.16 1313.41 1095.70 1313.93C1095.24 1314.46 1094.65 1315.51 1094.38 1316.33C1094.10 1317.15 1093.91 1318.42 1093.87 1319.43C1093.84 1320.44 1093.89 1322.12 1094.15 1323.07C1094.41 1324.01 1095.02 1325.22 1095.61 1325.73C1096.19 1326.23 1097.19 1326.57 1098.04 1326.44C1098.88 1326.31 1100.24 1325.67 1101.26 1324.86C1102.27 1324.04 1103.29 1323.22 1104.82 1321.01C1106.35 1318.80 1110.57 1311.65 1111.45 1310.12C1111.79 1309.54 1110.84 1310.72 1110.73 1310.82"/><path fill="none" stroke="#823ede" stroke-width="2.0" stroke-linecap="round" stroke-linejoin="round" d="M934.55 1075.14C934.29 1074.82 931.39 1074.19 932.80 1073.00C944.24 1063.32 991.59 1025.47 1010.81 1010.61C1030.03 995.76 1050.58 981.33 1060.94 973.97C1071.30 966.61 1073.61 965.35 1079.89 961.56C1086.17 957.76 1099.75 950.61 1102.80 948.66C1104.24 947.74 1100.61 948.57 1100.23 948.55"/><path fill="none" stroke="#823ede" stroke-width="2.0" stroke-linecap="round" stroke-linejoin="round" d="M1093.81 948.55C1093.37 948.21 1090.02 946.16 1090.89 946.25C1091.75 946.33 1098.02 948.35 1099.60 949.13C1101.18 949.92 1101.30 950.42 1101.39 951.47C1101.49 952.52 1100.40 955.44 1100.23 956.14"/><path fill="none" stroke="#823ede" stroke-width="2.0" stroke-linecap="round" stroke-linejoin="round" d="M1120.06 921.72C1119.97 921.72 1119.36 921.35 1119.48 921.72C1120.14 923.80 1123.92 935.08 1124.50 935.62C1125.09 936.16 1123.44 927.43 1123.37 925.31C1123.29 923.18 1123.71 922.30 1124.02 921.44C1124.33 920.59 1124.91 919.79 1125.42 919.61C1125.93 919.43 1126.42 919.26 1127.42 920.24C1128.72 921.52 1132.80 926.95 1134.06 928.13C1134.91 928.93 1135.55 928.13 1135.81 928.13"/><path fill="none" stroke="#823ede" stroke-width="2.0" stroke-linecap="round" stroke-linejoin="round" d="M1135.81 915.88C1135.81 915.53 1135.01 912.19 1135.77 913.55C1136.56 914.95 1140.27 923.47 1141.06 925.22"/><path fill="none" stroke="#823ede" stroke-width="2.0" stroke-linecap="round" stroke-linejoin="round" d="M1129.98 911.80C1129.80 911.45 1128.99 909.82 1128.81 909.47"/><path fill="none" stroke="#823ede" stroke-width="2.0" stroke-linecap="round" stroke-linejoin="round" d="M1138.73 898.38C1138.91 899.04 1138.77 899.97 1139.95 902.77C1141.17 905.66 1145.72 914.88 1146.85 917.63C1147.75 919.83 1147.39 920.61 1147.48 921.13"/><path fill="none" stroke="#823ede" stroke-width="2.0" stroke-linecap="round" stroke-linejoin="round" d="M1139.90 912.97C1139.73 912.62 1138.88 911.22 1138.81 910.68C1138.74 910.13 1138.73 910.03 1139.43 909.32C1140.16 908.59 1142.30 906.59 1143.68 905.76C1145.07 904.93 1147.64 903.96 1148.66 903.78C1149.68 903.60 1149.96 904.09 1150.45 904.57C1150.94 905.05 1151.39 905.31 1151.92 907.00C1152.46 908.70 1153.76 914.49 1154.00 915.88C1154.07 916.29 1153.73 916.43 1153.51 916.27C1153.29 916.10 1152.85 915.48 1152.52 914.78C1152.19 914.08 1151.57 912.76 1151.31 911.61C1151.05 910.46 1150.77 908.50 1150.81 907.13C1150.85 905.76 1151.10 903.69 1151.56 902.47C1152.03 901.24 1153.55 899.49 1153.90 898.97"/><path fill="none" stroke="#823ede" stroke-width="2.0" stroke-linecap="round" stroke-linejoin="round" d="M1161.48 898.97C1161.41 898.90 1161.32 898.39 1161.03 898.52C1160.75 898.65 1160.03 898.90 1159.58 899.83C1159.13 900.77 1158.14 903.64 1158.03 904.73C1157.93 905.83 1158.43 906.63 1158.88 907.15C1159.33 907.67 1160.31 908.18 1161.03 908.20C1161.75 908.23 1162.89 907.81 1163.68 907.31C1164.47 906.80 1165.78 905.76 1166.31 904.82C1166.83 903.89 1167.21 902.14 1167.19 901.09C1167.16 900.03 1166.48 898.38 1166.15 897.80C1165.82 897.22 1165.16 897.30 1164.98 897.22"/><path fill="none" stroke="#823ede" stroke-width="2.0" stroke-linecap="round" stroke-linejoin="round" d="M1171.40 894.88C1170.88 894.64 1168.68 893.34 1167.94 893.30C1167.21 893.25 1166.83 894.13 1166.52 894.59C1166.20 895.05 1165.90 895.81 1165.87 896.38C1165.84 896.95 1165.96 897.89 1166.29 898.38C1166.62 898.86 1167.42 899.45 1168.09 899.62C1168.76 899.79 1169.99 899.77 1170.73 899.52C1171.48 899.27 1172.54 898.59 1173.08 897.96C1173.62 897.32 1174.21 896.11 1174.33 895.31C1174.46 894.51 1174.18 893.22 1173.92 892.62C1173.67 892.02 1172.86 891.30 1172.62 891.28C1172.38 891.26 1172.11 891.69 1172.32 892.49C1172.55 893.40 1172.54 894.29 1174.19 897.33C1175.97 900.62 1182.04 910.53 1184.18 914.44C1186.32 918.36 1187.64 921.07 1188.46 923.45C1189.28 925.82 1189.82 928.62 1189.63 930.28C1189.44 931.94 1188.31 933.82 1187.21 934.49C1186.12 935.15 1183.96 934.95 1182.34 934.70C1180.72 934.45 1177.98 933.87 1176.44 932.83C1174.90 931.80 1173.00 930.24 1172.07 927.78C1171.13 925.33 1170.51 918.16 1170.23 916.47"/><path fill="none" stroke="#823ede" stroke-width="2.0" stroke-linecap="round" stroke-linejoin="round" d="M1176.65 896.63C1177.62 895.35 1182.18 889.94 1183.12 888.12C1184.06 886.29 1183.14 885.08 1182.93 884.45C1182.72 883.83 1182.12 883.91 1181.70 883.96C1181.29 884.02 1180.57 884.31 1180.18 884.82C1179.79 885.33 1179.30 886.46 1179.10 887.35C1178.91 888.23 1178.74 889.75 1178.87 890.72C1179.00 891.68 1179.45 893.11 1179.98 893.77C1180.50 894.42 1181.55 894.93 1182.38 895.09C1183.20 895.24 1184.51 895.29 1185.49 894.78C1186.47 894.27 1188.04 892.88 1188.90 891.67C1189.76 890.46 1190.88 887.72 1191.23 886.71C1191.58 885.71 1191.23 885.23 1191.23 884.96"/><path fill="none" stroke="#823ede" stroke-width="2.0" stroke-linecap="round" stroke-linejoin="round" d="M1191.23 875.05C1191.53 876.14 1192.58 880.62 1193.22 882.32C1193.86 884.03 1195.04 885.93 1195.49 886.41C1195.94 886.90 1196.08 886.29 1196.22 885.55C1196.61 883.59 1197.67 875.16 1198.07 873.30C1198.18 872.76 1198.46 872.78 1198.87 873.14C1199.63 873.79 1202.11 876.87 1203.09 877.61C1204.06 878.35 1204.34 878.26 1205.36 878.05C1206.38 877.84 1209.22 876.49 1209.90 876.21"/><path fill="none" stroke="#823ede" stroke-width="2.0" stroke-linecap="round" stroke-linejoin="round" d="M1214.57 868.05C1214.39 867.78 1213.57 866.56 1213.40 866.30"/><path fill="none" stroke="#004dc0" stroke-width="2.5" stroke-linecap="round" stroke-linejoin="round" d="M716.01 1178.70C710.49 1191.55 685.90 1248.48 679.22 1264.35C673.62 1277.63 672.85 1280.67 671.42 1284.51C670.10 1288.05 669.96 1288.61 669.67 1289.90C669.38 1291.18 669.51 1292.70 669.48 1293.08C669.45 1293.46 669.48 1292.53 669.48 1292.44"/><path fill="none" stroke="#004dc0" stroke-width="2.5" stroke-linecap="round" stroke-linejoin="round" d="M668.19 1260.12C668.19 1260.03 668.47 1259.71 668.19 1259.48C667.91 1259.25 666.73 1257.40 666.30 1258.60C665.87 1259.81 665.45 1265.00 665.31 1267.49C665.18 1269.99 665.29 1272.85 665.40 1275.22C665.51 1277.60 665.69 1281.22 666.02 1283.33C666.36 1285.43 667.00 1287.97 667.64 1289.26C668.28 1290.56 669.33 1291.67 670.29 1291.98C671.25 1292.29 671.85 1292.61 674.06 1291.33C676.94 1289.65 687.20 1282.38 689.51 1280.80"/><path fill="none" stroke="#004dc0" stroke-width="2.5" stroke-linecap="round" stroke-linejoin="round" d="M621.66 1358.35C621.13 1357.97 617.21 1354.10 618.10 1355.80C618.99 1357.50 626.56 1369.00 627.60 1369.66C628.64 1370.33 625.43 1362.28 625.01 1360.24C624.59 1358.19 624.67 1356.97 624.80 1356.02C624.93 1355.08 625.35 1354.19 625.88 1353.94C626.41 1353.69 627.51 1353.90 628.34 1354.35C629.17 1354.80 630.41 1355.84 631.40 1356.95C632.39 1358.05 634.66 1362.51 634.94 1361.72C635.21 1360.93 633.36 1353.39 633.24 1351.71C633.17 1350.71 633.15 1350.28 634.13 1350.50C635.10 1350.72 638.91 1352.78 639.76 1353.18"/><path fill="none" stroke="#004dc0" stroke-width="2.5" stroke-linecap="round" stroke-linejoin="round" d="M648.80 1342.84C648.12 1342.74 645.20 1341.95 644.28 1342.15C643.36 1342.34 642.89 1343.30 642.68 1344.14C642.47 1344.98 642.65 1346.69 642.85 1347.75C643.05 1348.81 643.50 1350.31 644.00 1351.21C644.49 1352.11 645.47 1353.23 646.13 1353.76C646.79 1354.28 647.75 1354.70 648.40 1354.69C649.06 1354.67 650.03 1354.27 650.48 1353.67C650.93 1353.07 651.25 1352.41 651.39 1350.69C651.52 1348.97 651.39 1343.47 651.39 1342.19"/><path fill="none" stroke="#004dc0" stroke-width="2.5" stroke-linecap="round" stroke-linejoin="round" d="M646.22 1328.62C646.02 1328.42 644.28 1326.17 644.88 1327.28C645.51 1328.47 648.20 1333.52 650.43 1336.53C652.67 1339.55 658.39 1345.74 659.79 1347.36"/><path fill="none" stroke="#004dc0" stroke-width="2.5" stroke-linecap="round" stroke-linejoin="round" d="M662.37 1338.96C662.65 1338.03 663.94 1334.12 664.22 1332.78C664.50 1331.43 664.36 1330.67 664.23 1330.00C664.09 1329.33 663.72 1328.57 663.32 1328.31C662.92 1328.05 662.07 1327.98 661.56 1328.26C661.05 1328.55 660.25 1329.36 659.91 1330.21C659.57 1331.07 659.22 1332.82 659.29 1333.95C659.37 1335.07 659.84 1336.61 660.39 1337.69C660.94 1338.78 662.05 1340.49 662.97 1341.18C663.89 1341.88 665.26 1342.66 666.53 1342.32C667.80 1341.99 670.69 1339.47 671.42 1338.96"/><path fill="none" stroke="#004dc0" stroke-width="2.5" stroke-linecap="round" stroke-linejoin="round" d="M675.30 1320.22C675.01 1320.10 673.83 1319.43 673.36 1319.39C672.89 1319.34 672.36 1319.06 672.14 1319.92C671.91 1320.85 671.65 1324.32 671.81 1325.59C671.97 1326.86 672.67 1327.59 673.19 1328.37C673.72 1329.14 674.57 1330.39 675.30 1330.76C676.02 1331.13 677.15 1331.25 678.02 1330.83C678.90 1330.41 680.65 1328.41 681.11 1327.98"/><path fill="none" stroke="#004dc0" stroke-width="2.5" stroke-linecap="round" stroke-linejoin="round" d="M678.53 1317.64C678.74 1318.14 679.44 1320.14 679.94 1320.96C680.45 1321.78 681.26 1322.65 681.88 1323.11C682.50 1323.58 683.44 1324.01 684.05 1324.06C684.67 1324.11 685.49 1323.91 685.96 1323.43C686.42 1322.95 686.94 1321.83 687.15 1320.85C687.35 1319.88 687.44 1318.22 687.34 1316.91C687.24 1315.60 686.42 1312.44 686.47 1312.13C686.52 1311.82 687.21 1314.12 687.68 1314.85C688.15 1315.58 688.95 1316.60 689.60 1317.00C690.25 1317.40 691.39 1317.72 692.03 1317.51C692.68 1317.29 693.57 1316.54 693.91 1315.54C694.24 1314.54 694.40 1312.43 694.25 1310.82C694.11 1309.22 693.59 1306.56 692.94 1304.84C692.30 1303.12 690.88 1300.73 689.95 1299.34C689.02 1297.95 687.54 1296.29 686.74 1295.58C685.93 1294.86 684.95 1294.47 684.57 1294.59C684.19 1294.71 684.01 1295.58 684.20 1296.37C684.40 1297.16 685.13 1298.58 685.85 1299.83C686.57 1301.08 687.68 1303.01 689.01 1304.71C690.33 1306.42 693.83 1310.21 694.68 1311.18"/><path fill="none" stroke="#004dc0" stroke-width="2.5" stroke-linecap="round" stroke-linejoin="round" d="M705.67 1293.73C705.15 1293.71 702.97 1293.45 702.22 1293.63C701.46 1293.82 700.98 1293.70 700.66 1294.98C700.33 1296.25 699.95 1300.56 700.07 1302.12C700.18 1303.68 700.96 1304.68 701.44 1305.39C701.92 1306.10 702.67 1306.78 703.25 1306.82C703.83 1306.87 704.75 1306.35 705.33 1305.67C705.91 1304.99 706.60 1304.43 707.12 1302.27C707.64 1300.11 708.04 1291.82 708.80 1291.27C709.56 1290.72 711.20 1296.76 712.18 1298.58C713.17 1300.41 714.98 1302.99 715.36 1303.42C715.74 1303.86 714.81 1301.77 714.72 1301.48"/><path fill="none" stroke="#004dc0" stroke-width="2.5" stroke-linecap="round" stroke-linejoin="round" d="M710.84 1285.97C711.34 1286.61 713.55 1289.58 714.17 1290.22C714.56 1290.62 714.95 1290.79 715.01 1290.23C715.19 1288.52 715.31 1280.57 715.36 1278.86"/><path fill="none" stroke="#004dc0" stroke-width="2.5" stroke-linecap="round" stroke-linejoin="round" d="M704.38 1349.95C703.59 1349.08 700.15 1344.83 699.10 1344.13C698.06 1343.43 697.87 1344.72 697.42 1345.29C696.97 1345.86 696.35 1346.99 696.08 1347.93C695.81 1348.87 695.56 1350.47 695.61 1351.54C695.67 1352.61 695.99 1354.13 696.45 1355.05C696.92 1355.96 697.85 1357.12 698.70 1357.64C699.55 1358.15 700.53 1358.42 702.12 1358.47C703.71 1358.52 708.78 1357.31 709.31 1357.97C709.84 1358.63 706.51 1361.94 705.67 1362.87C704.83 1363.80 704.02 1363.97 703.73 1364.17"/><path fill="none" stroke="#004dc0" stroke-width="2.5" stroke-linecap="round" stroke-linejoin="round" d="M706.32 1346.72C706.29 1346.59 705.72 1345.49 706.13 1345.88C706.90 1346.63 710.31 1350.62 711.48 1351.72C712.64 1352.81 713.28 1353.05 713.91 1353.20C714.55 1353.34 715.33 1353.16 715.70 1352.69C716.06 1352.22 716.31 1351.17 716.34 1350.07C716.36 1348.96 716.18 1346.88 715.86 1345.32C715.55 1343.76 714.42 1340.19 714.25 1339.69C714.09 1339.18 714.02 1340.81 714.76 1341.96C715.51 1343.11 718.57 1346.55 719.24 1347.36"/><path fill="none" stroke="#004dc0" stroke-width="2.5" stroke-linecap="round" stroke-linejoin="round" d="M719.24 1333.79C719.91 1334.32 722.79 1336.26 723.73 1337.31C724.68 1338.37 725.41 1340.29 725.54 1340.84C725.66 1341.39 725.05 1341.45 724.55 1341.01C723.76 1340.32 721.13 1337.62 720.25 1336.22C719.37 1334.82 718.94 1333.19 718.69 1331.67C718.44 1330.14 718.61 1326.88 718.59 1326.04"/><path fill="none" stroke="#004dc0" stroke-width="2.5" stroke-linecap="round" stroke-linejoin="round" d="M722.47 1308.59C721.70 1308.36 718.36 1307.22 717.35 1307.06C716.35 1306.91 716.09 1307.25 715.79 1307.57C715.50 1307.89 715.31 1308.53 715.39 1309.19C715.48 1309.86 715.82 1311.04 716.37 1312.01C716.92 1312.98 717.11 1313.35 719.07 1315.66C721.09 1318.06 728.16 1325.70 729.86 1328.00C731.07 1329.65 730.73 1330.25 730.40 1331.02C730.07 1331.79 728.06 1332.83 727.64 1333.15"/><path fill="none" stroke="#004dc0" stroke-width="2.5" stroke-linecap="round" stroke-linejoin="round" d="M720.53 1327.98C720.53 1327.57 720.40 1326.03 720.53 1325.25C720.66 1324.47 720.35 1324.17 721.41 1322.78C722.97 1320.77 729.45 1313.47 730.87 1311.82"/><path fill="none" stroke="#004dc0" stroke-width="2.5" stroke-linecap="round" stroke-linejoin="round" d="M737.33 1307.30C737.06 1307.30 735.94 1307.19 735.54 1307.30C735.13 1307.41 734.84 1307.51 734.64 1308.05C734.44 1308.58 734.04 1309.23 734.20 1310.86C734.37 1312.49 735.26 1317.20 735.75 1318.93C736.25 1320.65 736.92 1321.72 737.47 1322.36C738.03 1323.01 738.93 1323.39 739.44 1323.22C739.95 1323.05 740.54 1322.22 740.87 1321.22C741.20 1320.23 741.60 1318.87 741.64 1316.59C741.68 1314.30 741.00 1306.70 741.13 1305.99C741.26 1305.27 742.01 1310.75 742.50 1311.82C743.00 1312.89 744.15 1312.92 744.44 1313.11"/><path fill="none" stroke="#004dc0" stroke-width="2.5" stroke-linecap="round" stroke-linejoin="round" d="M754.14 1295.67C753.85 1295.11 752.66 1292.47 752.20 1291.93C751.73 1291.39 751.33 1291.67 751.04 1292.05C750.74 1292.43 750.22 1292.97 750.26 1294.44C750.29 1295.91 750.83 1300.20 751.27 1301.84C751.72 1303.49 752.40 1304.59 753.22 1305.41C754.04 1306.23 756.00 1307.01 756.72 1307.30C757.44 1307.58 757.82 1307.30 758.01 1307.30"/><path fill="none" stroke="#004dc0" stroke-width="2.5" stroke-linecap="round" stroke-linejoin="round" d="M767.06 1284.68C766.67 1284.69 765.28 1284.88 764.43 1284.73C763.58 1284.57 761.80 1283.12 761.38 1283.65C760.96 1284.17 761.39 1286.95 761.65 1288.25C761.91 1289.55 762.58 1291.06 763.13 1292.32C763.67 1293.57 764.48 1295.48 765.28 1296.62C766.08 1297.76 767.50 1299.47 768.45 1299.91C769.39 1300.35 770.92 1299.99 771.58 1299.54C772.25 1299.10 772.68 1297.35 772.88 1296.96"/>
</svg>