<?xml version="1.0" encoding="UTF-8"?>
<!DOCTYPE svg PUBLIC "-//W3C//DTD SVG 1.1//EN" "http://www.w3.org/Graphics/SVG/1.1/DTD/svg11.dtd">
<svg  xmlns="http://www.w3.org/2000/svg" xmlns:xlink="http://www.w3.org/1999/xlink" viewport-fill="none" viewBox="0.0, 0.0, 609.92822265625, 460.1944274902344" version="1.1" height="460.1944274902344" width="609.92822265625">
<path fill="none" stroke="#d1000d" stroke-width="2.0" stroke-linecap="round" stroke-linejoin="round" d="M193.80 332.29C192.04 331.56 184.71 327.81 182.07 327.40C179.43 326.99 177.81 328.42 176.17 329.56C174.53 330.70 172.37 333.02 171.15 334.99C169.94 336.96 168.51 340.16 168.07 342.69C167.63 345.22 167.79 349.20 168.22 351.88C168.64 354.55 169.63 358.25 170.91 360.53C172.20 362.82 174.73 365.63 176.78 367.11C178.83 368.59 182.14 369.90 184.57 370.42C187.01 370.94 190.59 371.05 193.03 370.59C195.47 370.14 198.89 368.76 200.87 367.38C202.84 366.00 204.96 363.54 206.18 361.40C207.40 359.27 208.77 355.87 208.99 353.13C209.21 350.40 208.77 345.99 207.67 343.16C206.56 340.34 203.73 336.70 201.64 334.28C199.54 331.87 196.71 328.42 193.70 327.07C190.69 325.73 185.11 324.53 181.55 325.31C177.99 326.10 172.31 330.23 169.97 332.29C167.62 334.35 166.53 338.03 165.92 339.04"/><path fill="none" stroke="#d1000d" stroke-width="2.0" stroke-linecap="round" stroke-linejoin="round" d="M389.40 352.53C389.47 352.46 389.46 351.91 389.85 352.08C392.17 353.05 399.38 353.47 404.85 359.02C410.33 364.57 422.66 383.56 426.36 389.09C429.14 393.23 428.30 393.61 429.54 395.86C430.79 398.10 433.69 402.51 434.68 404.04C435.58 405.43 435.67 405.60 436.16 406.03C436.65 406.47 437.69 406.80 437.96 406.93"/><path fill="none" stroke="#d1000d" stroke-width="2.0" stroke-linecap="round" stroke-linejoin="round" d="M428.07 408.73C427.74 408.31 425.00 405.50 425.85 405.90C426.70 406.30 432.05 410.39 433.74 411.40C435.44 412.41 436.22 412.46 437.18 412.65C438.13 412.83 439.41 413.09 440.14 412.63C440.86 412.17 441.59 410.93 442.01 409.60C442.42 408.27 442.77 405.60 442.91 403.79C443.04 401.97 442.91 398.44 442.91 397.49"/><path fill="none" stroke="#d1000d" stroke-width="2.0" stroke-linecap="round" stroke-linejoin="round" d="M431.67 440.21C432.79 442.27 438.52 453.45 439.17 453.97C439.82 454.50 436.48 445.86 435.98 443.72C435.49 441.59 435.71 440.72 435.85 439.72C436.00 438.73 436.50 437.46 436.96 437.07C437.43 436.69 438.36 436.71 438.95 437.14C439.54 437.56 440.44 438.86 440.90 439.91C441.36 440.97 441.87 442.83 442.02 444.19C442.16 445.54 442.04 447.74 441.86 448.94C441.68 450.15 441.13 451.59 440.82 452.23C440.52 452.87 440.02 453.20 439.84 453.22C439.67 453.24 439.51 452.81 439.67 452.37C439.83 451.93 440.40 450.89 440.90 450.28C441.41 449.67 442.36 448.72 443.04 448.30C443.73 447.87 444.85 447.53 445.49 447.47C446.13 447.41 446.97 447.57 447.30 447.90C447.63 448.23 447.70 449.03 447.66 449.67C447.62 450.31 447.95 450.89 447.04 452.17C446.12 453.45 442.38 457.29 441.56 458.19"/><path fill="none" stroke="#d1000d" stroke-width="2.0" stroke-linecap="round" stroke-linejoin="round" d="M452.80 437.06C452.60 436.93 451.86 436.28 451.45 436.16C451.04 436.05 450.48 436.01 450.07 436.29C449.66 436.58 448.97 436.82 448.72 438.05C448.46 439.29 448.26 443.14 448.35 444.53C448.44 445.92 448.96 446.70 449.32 447.31C449.67 447.92 450.30 448.48 450.72 448.59C451.14 448.70 451.69 448.93 452.12 448.04C452.54 447.14 453.40 444.06 453.57 442.64C453.75 441.23 453.24 438.50 453.29 438.60C453.33 438.70 453.50 442.37 453.89 443.29C454.29 444.21 455.23 444.56 455.95 444.70C456.66 444.85 458.24 444.32 458.64 444.26"/><path fill="none" stroke="#d1000d" stroke-width="2.0" stroke-linecap="round" stroke-linejoin="round" d="M461.79 428.07C461.18 428.07 458.44 427.72 457.74 428.07C457.05 428.41 457.21 429.52 457.17 430.36C457.13 431.20 456.91 432.50 457.48 433.68C458.04 434.85 459.97 437.60 460.92 438.19C461.87 438.78 463.00 438.21 463.81 437.63C464.62 437.06 465.78 435.39 466.29 434.36C466.79 433.33 467.05 431.31 467.19 430.77"/><path fill="none" stroke="#d1000d" stroke-width="2.0" stroke-linecap="round" stroke-linejoin="round" d="M462.69 416.83C462.49 416.62 461.05 414.24 461.34 415.48C461.66 416.85 463.66 423.18 464.81 425.96C465.95 428.74 468.22 432.73 468.99 434.01C469.39 434.66 470.04 435.30 470.00 434.55C469.87 432.59 468.10 421.95 468.16 420.94C468.23 419.93 469.88 426.53 470.43 427.81C470.97 429.10 471.29 429.27 471.82 429.52C472.34 429.76 473.34 429.77 473.93 429.42C474.52 429.06 475.46 427.51 475.73 427.17"/><path fill="none" stroke="#d1000d" stroke-width="2.0" stroke-linecap="round" stroke-linejoin="round" d="M473.93 405.59C474.72 407.94 478.37 420.18 479.21 421.30C480.05 422.43 479.28 414.73 479.51 413.09C479.73 411.45 480.28 410.91 480.72 410.38C481.17 409.85 481.97 409.50 482.47 409.56C482.96 409.61 483.70 410.12 484.02 410.72C484.34 411.32 484.63 412.62 484.60 413.53C484.57 414.43 484.20 415.82 483.80 416.78C483.40 417.74 482.64 419.18 481.92 419.90C481.19 420.63 479.70 421.40 478.98 421.61C478.25 421.82 477.36 421.37 477.08 421.32"/><path fill="none" stroke="#d1000d" stroke-width="2.0" stroke-linecap="round" stroke-linejoin="round" d="M490.12 403.79C489.73 403.70 488.08 403.00 487.50 403.21C486.91 403.43 486.38 404.39 486.20 405.23C486.02 406.07 486.14 407.80 486.31 408.81C486.48 409.82 486.86 411.18 487.33 411.97C487.79 412.75 488.81 413.71 489.42 414.04C490.03 414.37 490.94 414.44 491.41 414.17C491.88 413.90 492.33 413.03 492.55 412.25C492.78 411.47 493.39 410.58 492.89 408.97C492.38 407.36 489.77 402.65 489.22 401.54"/><path fill="none" stroke="#d1000d" stroke-width="2.0" stroke-linecap="round" stroke-linejoin="round" d="M495.07 399.29C495.39 400.28 497.06 405.91 497.22 405.89C497.39 405.88 496.23 400.88 496.15 399.19C496.07 397.50 496.44 395.31 496.69 394.62C496.94 393.93 497.32 394.03 497.84 394.59C498.69 395.52 501.44 399.79 502.36 400.82C503.13 401.67 503.49 401.56 503.97 401.43C504.45 401.29 505.15 400.65 505.55 399.92C505.95 399.20 506.43 397.69 506.63 396.60C506.83 395.51 506.96 393.77 506.89 392.67C506.83 391.56 506.52 390.00 506.20 389.23C505.87 388.47 505.18 387.71 504.73 387.56C504.27 387.41 503.55 387.73 503.17 388.23C502.79 388.72 502.32 389.91 502.22 390.88C502.11 391.85 502.14 393.70 502.46 394.70C502.79 395.71 503.68 396.85 504.38 397.57C505.09 398.29 506.14 399.38 507.18 399.50C508.22 399.61 510.10 399.19 511.32 398.35C512.54 397.51 514.57 394.90 515.30 393.89C516.03 392.89 516.06 391.98 516.20 391.65"/><path fill="none" stroke="#d1000d" stroke-width="2.0" stroke-linecap="round" stroke-linejoin="round" d="M529.24 359.72C530.32 362.18 535.57 375.03 536.46 376.10C537.35 377.17 535.37 368.67 535.18 366.85C534.99 365.04 535.08 364.56 535.18 364.01C535.28 363.46 535.30 362.76 535.84 363.20C536.97 364.10 541.70 369.03 542.73 370.06"/><path fill="none" stroke="#d1000d" stroke-width="2.0" stroke-linecap="round" stroke-linejoin="round" d="M542.73 361.97C542.66 361.83 542.15 360.85 542.28 361.07C542.41 361.29 543.05 362.86 543.60 363.41C544.14 363.95 545.16 364.54 545.89 364.72C546.63 364.89 547.82 364.76 548.51 364.55C549.21 364.34 550.09 363.89 550.53 363.31C550.96 362.73 551.32 361.53 551.40 360.67C551.47 359.80 551.31 358.41 551.03 357.54C550.74 356.66 549.97 355.44 549.50 354.84C549.03 354.25 548.19 353.64 547.89 353.56C547.58 353.49 547.31 353.78 547.48 354.32C547.67 354.92 547.78 355.56 549.15 357.56C550.76 359.92 556.20 367.05 558.22 370.04C560.24 373.04 561.64 375.37 562.64 377.54C563.64 379.71 564.70 382.67 564.89 384.51C565.09 386.36 564.59 388.57 563.93 389.86C563.28 391.15 561.77 392.51 560.51 393.09C559.26 393.66 557.09 393.91 555.57 393.70C554.05 393.48 551.49 392.56 550.37 391.65C549.26 390.73 548.46 388.21 548.12 387.60"/><path fill="none" stroke="#d1000d" stroke-width="2.0" stroke-linecap="round" stroke-linejoin="round" d="M554.42 338.14C555.46 340.19 560.94 350.07 561.37 351.79C561.80 353.50 558.40 350.01 557.27 349.58C556.14 349.15 554.46 348.86 553.84 348.91C553.22 348.97 553.07 349.18 553.14 349.94C553.21 350.71 553.60 352.96 554.33 354.01C555.07 355.06 557.20 356.53 558.04 356.95C558.87 357.37 559.31 357.25 559.91 356.79C560.52 356.33 561.74 354.31 562.06 353.88"/><path fill="none" stroke="#d1000d" stroke-width="2.0" stroke-linecap="round" stroke-linejoin="round" d="M563.41 343.53C563.63 344.40 564.95 348.76 564.87 349.32C564.80 349.88 563.35 348.02 562.93 347.26C562.51 346.51 562.13 345.13 562.06 344.30C562.00 343.47 562.24 342.39 562.51 341.73C562.78 341.08 563.66 340.21 563.86 339.94"/><path fill="none" stroke="#d1000d" stroke-width="2.0" stroke-linecap="round" stroke-linejoin="round" d="M572.86 336.34C572.86 336.20 573.10 335.42 572.86 335.44C572.62 335.45 571.63 335.89 571.25 336.44C570.88 336.98 570.47 338.22 570.38 339.06C570.28 339.89 570.46 341.17 570.61 341.98C570.76 342.78 571.03 343.87 571.35 344.44C571.67 345.02 572.37 345.61 572.76 345.80C573.15 345.99 573.61 345.92 573.92 345.71C574.24 345.51 574.73 344.97 574.83 344.43C574.93 343.90 574.95 343.03 574.59 342.15C574.22 341.27 572.73 339.12 572.41 338.59"/><path fill="none" stroke="#d1000d" stroke-width="2.0" stroke-linecap="round" stroke-linejoin="round" d="M580.95 331.84C580.72 331.60 579.86 330.49 579.45 330.24C579.03 329.99 578.74 329.53 578.18 330.15C577.62 330.77 576.07 333.28 575.70 334.38C575.33 335.47 575.57 336.63 575.71 337.45C575.85 338.26 576.21 339.30 576.64 339.82C577.06 340.35 577.96 340.88 578.56 340.96C579.16 341.03 580.10 340.71 580.66 340.32C581.23 339.92 581.95 338.99 582.31 338.32C582.67 337.65 583.02 336.63 583.06 335.85C583.11 335.07 581.83 331.45 582.62 333.11C583.61 335.18 588.43 346.37 589.65 349.64C590.88 352.90 590.71 353.55 590.77 354.88C590.84 356.21 590.54 357.68 590.10 358.50C589.65 359.32 588.65 360.05 587.80 360.35C586.96 360.65 585.37 360.65 584.48 360.49C583.59 360.33 582.38 359.79 581.85 359.27C581.32 358.75 581.08 357.36 580.95 357.02"/><path fill="none" stroke="#d1000d" stroke-width="2.0" stroke-linecap="round" stroke-linejoin="round" d="M588.59 332.29C589.09 331.19 591.64 326.54 591.92 324.93C592.21 323.32 590.90 321.98 590.51 321.56C590.11 321.13 589.70 321.62 589.31 322.13C588.91 322.63 588.16 323.96 587.90 324.92C587.64 325.89 587.32 327.04 587.56 328.55C587.80 330.06 588.83 333.97 589.48 335.00C590.13 336.04 591.06 335.80 591.87 335.46C592.68 335.12 594.30 333.49 594.89 332.74C595.48 332.00 595.65 330.83 595.79 330.49"/><path fill="none" stroke="#d1000d" stroke-width="2.0" stroke-linecap="round" stroke-linejoin="round" d="M596.69 316.55C596.87 317.70 597.57 323.91 597.94 324.21C598.31 324.51 598.59 320.32 599.13 318.55C599.68 316.79 600.94 313.41 601.57 312.43C602.21 311.46 602.47 311.25 603.36 312.08C604.31 312.96 607.24 317.41 607.93 318.35"/><path fill="none" stroke="#d1000d" stroke-width="2.0" stroke-linecap="round" stroke-linejoin="round" d="M489.67 437.96C489.76 438.44 489.47 439.15 490.28 441.17C491.34 443.79 495.93 454.69 496.69 455.41C497.45 456.14 495.47 447.94 495.36 446.02C495.25 444.10 495.67 443.40 495.99 442.61C496.30 441.82 496.90 441.03 497.43 440.75C497.97 440.48 498.95 440.49 499.53 440.80C500.11 441.11 500.94 442.06 501.31 442.85C501.69 443.64 502.01 445.03 502.05 446.06C502.10 447.09 501.91 448.63 501.61 449.69C501.31 450.76 500.62 452.25 500.07 453.16C499.51 454.07 498.38 455.33 497.89 455.75C497.41 456.17 497.02 455.92 496.86 455.95"/><path fill="none" stroke="#d1000d" stroke-width="2.0" stroke-linecap="round" stroke-linejoin="round" d="M510.35 437.06C510.27 436.84 510.17 435.71 509.76 435.58C509.36 435.45 508.17 435.73 507.66 436.17C507.16 436.60 506.68 437.72 506.39 438.46C506.10 439.21 505.80 440.35 505.74 441.13C505.69 441.91 505.80 443.09 506.05 443.69C506.29 444.30 506.94 444.90 507.38 445.15C507.82 445.39 508.40 445.89 508.98 445.34C509.56 444.79 510.91 442.43 511.22 441.47C511.53 440.51 511.39 439.91 511.06 438.92C510.72 437.92 509.31 435.43 509.00 434.81"/><path fill="none" stroke="#d1000d" stroke-width="2.0" stroke-linecap="round" stroke-linejoin="round" d="M515.30 430.32C515.30 430.70 515.08 431.73 515.33 432.91C515.58 434.09 516.88 438.61 516.95 438.18C517.03 437.75 515.92 431.77 515.81 430.03C515.69 428.29 515.98 427.40 516.18 426.58C516.38 425.77 516.75 424.87 517.13 424.58C517.52 424.28 518.23 424.38 518.76 424.65C519.28 424.92 519.81 425.26 520.64 426.38C521.47 427.50 523.75 431.25 524.29 432.11"/><path fill="none" stroke="#d1000d" stroke-width="2.0" stroke-linecap="round" stroke-linejoin="round" d="M526.54 406.03C527.23 407.07 530.36 411.60 531.16 412.95C531.90 414.21 531.80 414.58 531.86 415.03C531.91 415.49 532.15 415.75 531.52 415.98C530.65 416.29 527.07 416.63 526.11 417.08C525.14 417.52 525.11 417.95 525.07 418.95C525.03 419.95 525.53 422.77 525.84 423.77C526.16 424.76 526.67 425.27 527.17 425.56C527.68 425.86 528.56 425.99 529.21 425.75C529.85 425.52 530.88 424.69 531.49 424.02C532.10 423.36 533.02 421.73 533.29 421.32"/><path fill="none" stroke="#d1000d" stroke-width="2.0" stroke-linecap="round" stroke-linejoin="round" d="M537.33 408.73C537.81 409.74 540.01 414.47 540.48 415.48"/><path fill="none" stroke="#d1000d" stroke-width="2.0" stroke-linecap="round" stroke-linejoin="round" d="M535.08 403.79C535.08 403.52 534.81 402.12 535.08 401.99C535.35 401.85 536.61 402.75 536.88 402.89"/><path fill="none" stroke="#d1000d" stroke-width="2.0" stroke-linecap="round" stroke-linejoin="round" d="M542.73 406.48C543.00 407.09 544.42 410.81 544.53 410.53C544.63 410.25 543.56 405.80 543.44 404.63C543.32 403.46 543.51 403.04 543.73 402.75C543.94 402.45 544.32 402.12 544.87 402.66C545.94 403.69 549.93 408.59 550.82 409.63"/><path fill="none" stroke="#d1000d" stroke-width="2.0" stroke-linecap="round" stroke-linejoin="round" d="M554.87 405.59C554.80 404.84 554.82 401.36 554.42 400.64C554.02 399.91 552.94 400.13 552.18 400.76C551.42 401.38 549.47 403.62 549.35 404.80C549.24 405.98 550.80 408.12 551.44 408.62C552.07 409.12 552.94 408.56 553.61 408.12C554.28 407.67 555.50 406.41 555.92 405.63C556.35 404.85 556.45 403.67 556.44 402.93C556.43 402.19 556.07 401.12 555.84 400.71C555.60 400.30 555.08 400.05 554.89 400.17C554.70 400.30 554.32 400.72 554.57 401.54C554.82 402.36 554.97 403.06 556.58 405.66C559.26 410.00 569.62 425.44 572.47 430.49C575.32 435.55 575.16 436.87 575.60 439.36C576.03 441.85 575.97 445.18 575.37 447.11C574.77 449.04 573.12 451.31 571.57 452.25C570.03 453.20 567.05 453.74 565.05 453.42C563.05 453.10 560.04 451.92 558.25 450.12C556.47 448.32 554.23 444.57 553.15 441.41C552.06 438.26 551.25 433.11 551.01 429.08C550.77 425.05 550.81 418.71 551.53 414.57C552.26 410.43 554.41 405.05 555.86 401.48C557.30 397.91 560.37 392.36 561.16 390.75"/>
</svg>