<?xml version="1.0" encoding="UTF-8"?>
<!DOCTYPE svg PUBLIC "-//W3C//DTD SVG 1.1//EN" "http://www.w3.org/Graphics/SVG/1.1/DTD/svg11.dtd">
<svg  xmlns="http://www.w3.org/2000/svg" xmlns:xlink="http://www.w3.org/1999/xlink" viewport-fill="none" viewBox="0.0, 0.0, 809.4636916571161, 281.9626134687274" version="1.1" height="281.9626134687274" width="809.4636916571161">
<path fill="none" stroke="#823ede" stroke-width="2.0" stroke-linecap="round" stroke-linejoin="round" d="M611.50 101.50C611.34 103.22 610.17 113.22 610.40 112.94C610.64 112.65 612.44 102.18 613.08 99.61C613.72 97.05 614.21 96.64 614.66 95.84C615.11 95.04 615.70 94.41 616.08 94.27C616.47 94.12 616.94 94.39 617.21 94.89C617.49 95.39 617.64 95.75 617.94 97.60C618.27 99.68 619.10 106.73 619.42 108.74C619.67 110.29 619.91 110.59 620.07 111.00C620.23 111.41 620.44 111.50 620.50 111.50C620.56 111.50 620.50 111.07 620.50 111.00"/><path fill="none" stroke="#823ede" stroke-width="2.0" stroke-linecap="round" stroke-linejoin="round" d="M613.00 106.00C612.93 106.01 612.19 106.14 612.51 106.07C613.26 105.92 617.18 105.16 618.00 105.00"/><path fill="none" stroke="#823ede" stroke-width="2.0" stroke-linecap="round" stroke-linejoin="round" d="M631.00 101.00C630.45 100.95 628.06 100.62 627.32 100.67C626.57 100.72 626.48 100.85 626.02 101.34C625.55 101.82 624.34 103.16 624.23 103.90C624.12 104.64 624.27 105.57 625.28 106.28C626.29 106.98 629.85 108.00 630.96 108.62C632.07 109.25 632.75 109.97 632.68 110.43C632.62 110.90 631.45 111.49 630.52 111.72C629.59 111.96 627.18 112.03 626.50 112.00C626.03 111.98 626.08 111.57 626.00 111.50"/><path fill="none" stroke="#823ede" stroke-width="2.0" stroke-linecap="round" stroke-linejoin="round" d="M638.50 103.00C638.48 102.70 638.64 101.42 638.40 100.98C638.16 100.54 637.28 100.18 636.90 100.09C636.51 100.00 636.22 100.01 635.81 100.37C635.40 100.73 634.25 101.81 634.16 102.50C634.06 103.19 634.35 104.15 635.16 104.98C635.98 105.81 638.80 107.32 639.59 108.02C640.38 108.72 640.71 109.27 640.43 109.64C640.16 110.02 638.72 110.37 637.76 110.50C636.79 110.63 634.56 110.50 634.00 110.50C634.00 110.50 634.00 110.50 634.00 110.50"/><path fill="none" stroke="#823ede" stroke-width="2.0" stroke-linecap="round" stroke-linejoin="round" d="M644.00 103.00C644.13 103.13 644.69 103.08 644.86 103.88C645.08 104.93 645.40 109.08 645.50 110.00"/><path fill="none" stroke="#823ede" stroke-width="2.0" stroke-linecap="round" stroke-linejoin="round" d="M644.50 99.50C644.50 99.28 644.28 98.22 644.50 98.00C644.72 97.78 645.78 98.00 646.00 98.00"/><path fill="none" stroke="#823ede" stroke-width="2.0" stroke-linecap="round" stroke-linejoin="round" d="M655.50 103.50C655.41 103.24 655.31 101.89 654.93 101.74C654.55 101.58 653.51 101.77 652.97 102.50C652.43 103.22 651.54 105.62 651.33 106.57C651.12 107.52 651.35 108.31 651.56 108.84C651.77 109.36 652.31 109.88 652.73 110.05C653.15 110.21 653.85 110.20 654.35 109.94C654.85 109.69 655.64 108.93 656.08 108.34C656.52 107.75 657.01 106.96 657.29 106.02C657.56 105.08 657.85 101.69 657.92 102.11C658.00 102.53 657.74 106.94 657.76 108.80C657.78 110.65 658.12 112.08 658.07 114.47C658.03 116.87 657.77 122.81 657.44 124.76C657.12 126.71 656.49 126.98 655.91 127.46C655.33 127.94 654.31 128.04 653.57 127.97C652.82 127.91 651.70 127.44 650.96 127.04C650.22 126.64 649.16 126.04 648.65 125.28C648.13 124.53 647.67 122.49 647.50 122.00"/><path fill="none" stroke="#823ede" stroke-width="2.0" stroke-linecap="round" stroke-linejoin="round" d="M661.50 102.50C661.49 103.45 661.38 108.59 661.42 108.84C661.47 109.09 661.49 105.32 661.82 104.16C662.15 103.00 663.18 101.55 663.63 101.09C664.08 100.64 664.49 100.92 664.83 101.12C665.17 101.32 665.49 101.39 665.87 102.45C666.28 103.56 667.18 107.59 667.50 108.50C667.61 108.81 667.92 108.50 668.00 108.50"/><path fill="none" stroke="#823ede" stroke-width="2.0" stroke-linecap="round" stroke-linejoin="round" d="M670.50 102.50C670.51 103.10 670.32 106.60 670.56 106.53C670.79 106.46 671.59 103.08 672.08 102.02C672.57 100.97 673.39 99.56 673.81 99.50C674.23 99.44 674.70 100.61 674.89 101.61C675.07 102.61 674.92 105.79 675.07 106.18C675.21 106.57 675.62 104.82 675.86 104.21C676.09 103.60 676.14 102.91 676.63 102.11C677.13 101.30 678.81 98.17 679.17 98.83C679.52 99.48 678.95 105.35 679.00 106.50C679.01 106.83 679.42 106.50 679.50 106.50"/><path fill="none" stroke="#823ede" stroke-width="2.0" stroke-linecap="round" stroke-linejoin="round" d="M683.50 104.00C684.28 103.46 687.80 101.13 688.71 100.40C689.53 99.75 689.54 99.62 689.62 99.13C689.70 98.63 689.70 97.36 689.24 97.09C688.78 96.81 687.17 97.07 686.55 97.31C685.93 97.56 685.48 98.20 685.10 98.72C684.72 99.25 684.18 100.14 684.02 100.81C683.85 101.47 683.92 102.44 683.99 103.16C684.07 103.87 684.17 104.99 684.51 105.57C684.84 106.16 685.47 106.86 686.22 107.07C686.97 107.29 688.78 107.16 689.50 107.00C690.22 106.84 690.78 106.15 691.00 106.00"/><path fill="none" stroke="#823ede" stroke-width="2.0" stroke-linecap="round" stroke-linejoin="round" d="M695.00 99.00C695.01 98.91 695.08 97.99 695.04 98.39C694.94 99.34 693.96 105.46 694.34 105.35C694.72 105.24 696.95 98.95 697.58 97.66C697.96 96.87 698.30 96.78 698.51 96.73C698.73 96.69 698.98 96.82 699.01 97.35C699.08 98.66 698.93 104.28 699.00 105.50C699.02 105.83 699.42 105.50 699.50 105.50"/><path fill="none" stroke="#823ede" stroke-width="2.0" stroke-linecap="round" stroke-linejoin="round" d="M704.00 92.50C704.08 92.10 704.39 88.21 704.54 89.86C704.69 91.51 704.93 101.45 705.00 103.50"/><path fill="none" stroke="#823ede" stroke-width="2.0" stroke-linecap="round" stroke-linejoin="round" d="M701.00 99.00C701.01 98.83 700.90 98.13 701.08 97.88C701.26 97.63 701.42 97.58 702.22 97.32C703.56 96.89 708.83 95.35 710.00 95.00"/><path fill="none" stroke="#823ede" stroke-width="2.0" stroke-linecap="round" stroke-linejoin="round" d="M715.50 95.00C715.50 94.93 715.81 94.63 715.50 94.50C715.10 94.33 713.41 93.85 712.80 93.88C712.20 93.91 711.72 94.26 711.45 94.69C711.18 95.13 710.83 96.06 710.99 96.77C711.15 97.48 711.60 98.37 712.53 99.44C713.47 100.51 716.58 103.17 717.26 103.93C717.52 104.22 717.44 104.39 717.05 104.48C716.34 104.64 713.56 104.92 712.50 105.00C711.44 105.08 710.38 105.00 710.00 105.00"/><path fill="none" stroke="#823ede" stroke-width="2.0" stroke-linecap="round" stroke-linejoin="round" d="M751.00 86.00C751.80 86.00 756.60 85.76 756.33 86.02C756.07 86.28 750.28 87.04 749.24 87.74C748.21 88.44 749.18 90.06 749.44 90.69C749.69 91.32 750.41 91.77 750.93 91.94C751.45 92.11 752.42 91.88 752.90 91.84C753.39 91.80 753.54 91.60 754.16 91.67C754.78 91.75 756.37 92.03 757.04 92.31C757.71 92.59 758.27 93.13 758.62 93.56C758.98 93.99 759.33 94.68 759.42 95.16C759.51 95.64 759.47 96.34 759.24 96.78C759.00 97.21 758.43 97.76 757.85 98.07C757.28 98.38 756.95 98.77 755.40 98.84C753.85 98.90 748.68 98.55 747.50 98.50"/><path fill="none" stroke="#823ede" stroke-width="2.0" stroke-linecap="round" stroke-linejoin="round" d="M764.50 85.00C765.21 84.85 769.07 83.88 769.23 83.97C769.40 84.06 766.42 85.06 765.59 85.61C764.77 86.17 764.00 87.02 763.72 87.66C763.43 88.29 763.58 89.42 763.69 89.84C763.80 90.26 763.79 90.40 764.42 90.48C765.06 90.55 767.25 90.36 767.95 90.34C768.66 90.33 768.65 90.08 769.13 90.38C769.61 90.69 770.87 91.60 771.16 92.40C771.44 93.20 771.49 94.89 771.03 95.71C770.56 96.54 769.02 97.58 768.04 97.92C767.06 98.26 765.11 98.14 764.50 98.00C763.89 97.86 764.08 97.15 764.00 97.00"/><path fill="none" stroke="#823ede" stroke-width="2.0" stroke-linecap="round" stroke-linejoin="round" d="M782.00 87.50C781.99 87.21 782.17 85.92 781.96 85.58C781.75 85.24 781.10 85.00 780.62 85.21C780.15 85.43 779.04 86.42 778.79 87.02C778.54 87.62 778.54 88.84 778.95 89.19C779.35 89.54 780.86 89.61 781.46 89.35C782.07 89.10 782.77 87.78 783.00 87.50"/><path fill="none" stroke="#823ede" stroke-width="2.0" stroke-linecap="round" stroke-linejoin="round" d="M790.00 79.00C789.24 82.25 785.71 97.65 784.96 100.65C784.70 101.71 784.99 99.25 785.00 99.00"/><path fill="none" stroke="#823ede" stroke-width="2.0" stroke-linecap="round" stroke-linejoin="round" d="M790.00 93.50C790.08 93.41 790.31 92.59 790.50 92.93C790.69 93.27 790.84 95.33 791.27 95.79C791.70 96.26 792.84 96.33 793.39 96.05C793.93 95.77 794.91 94.46 794.93 93.93C794.94 93.39 793.71 92.71 793.50 92.50"/><path fill="none" stroke="#823ede" stroke-width="2.0" stroke-linecap="round" stroke-linejoin="round" d="M613.00 143.50C612.92 144.46 612.68 148.43 612.45 149.88C612.22 151.34 611.70 152.71 611.47 153.19C611.30 153.53 611.01 153.35 610.91 153.05C610.81 152.76 610.76 151.90 610.82 151.22C610.88 150.54 611.02 149.43 611.31 148.52C611.59 147.60 612.13 146.11 612.72 145.14C613.30 144.16 614.38 142.75 615.18 142.00C615.99 141.25 617.23 140.48 618.06 140.14C618.89 139.80 620.08 139.62 620.73 139.75C621.38 139.89 622.18 140.52 622.42 141.06C622.66 141.60 622.55 142.63 622.31 143.35C622.07 144.08 621.39 145.19 620.82 145.87C620.24 146.55 619.50 147.24 618.48 147.87C617.46 148.50 614.83 149.66 614.04 150.06C613.45 150.36 612.69 150.10 613.17 150.55C613.70 151.05 616.29 152.84 617.54 153.36C618.79 153.88 620.91 153.90 621.50 154.00"/><path fill="none" stroke="#823ede" stroke-width="2.0" stroke-linecap="round" stroke-linejoin="round" d="M625.50 150.00C625.98 149.89 627.58 149.75 628.71 149.30C629.84 148.84 632.21 147.68 633.03 146.95C633.85 146.22 634.37 145.05 634.19 144.44C634.02 143.83 632.71 142.93 631.89 142.87C631.07 142.82 629.40 143.57 628.71 144.06C628.02 144.56 627.64 145.42 627.28 146.14C626.92 146.86 626.43 148.07 626.31 148.88C626.18 149.69 626.28 150.77 626.45 151.51C626.61 152.25 626.89 153.35 627.42 153.80C627.96 154.25 628.83 154.62 630.04 154.50C631.25 154.38 634.68 153.23 635.50 153.00"/><path fill="none" stroke="#823ede" stroke-width="2.0" stroke-linecap="round" stroke-linejoin="round" d="M641.00 144.50C640.88 144.35 640.58 143.47 640.18 143.52C639.78 143.57 638.73 144.38 638.32 144.83C637.91 145.28 637.62 145.60 637.48 146.52C637.34 147.43 637.18 150.06 637.38 150.94C637.59 151.82 638.28 152.16 638.82 152.39C639.36 152.62 640.30 152.63 641.00 152.50C641.70 152.37 643.12 151.65 643.50 151.50"/><path fill="none" stroke="#823ede" stroke-width="2.0" stroke-linecap="round" stroke-linejoin="round" d="M646.50 144.50C646.58 145.55 646.92 150.45 647.00 151.50"/><path fill="none" stroke="#823ede" stroke-width="2.0" stroke-linecap="round" stroke-linejoin="round" d="M646.00 140.50C645.91 140.33 645.43 139.58 645.43 139.35C645.43 139.13 645.91 139.05 646.00 139.00"/><path fill="none" stroke="#823ede" stroke-width="2.0" stroke-linecap="round" stroke-linejoin="round" d="M654.50 138.00C654.42 137.86 653.95 136.32 653.98 137.05C654.05 139.15 654.85 149.76 655.00 152.00"/><path fill="none" stroke="#823ede" stroke-width="2.0" stroke-linecap="round" stroke-linejoin="round" d="M651.00 145.50C651.00 145.35 650.86 144.78 651.00 144.50C651.14 144.22 651.21 143.80 651.96 143.65C652.71 143.50 655.39 143.52 656.00 143.50"/><path fill="none" stroke="#823ede" stroke-width="2.0" stroke-linecap="round" stroke-linejoin="round" d="M663.50 144.00C663.20 143.76 662.11 142.44 661.49 142.41C660.87 142.37 659.88 142.94 659.38 143.77C658.88 144.60 658.27 146.99 658.14 147.93C658.02 148.86 658.30 149.53 658.54 149.99C658.78 150.46 659.06 151.09 659.74 151.05C660.42 151.01 662.31 150.46 663.08 149.70C663.86 148.95 664.67 146.86 664.88 146.04C665.10 145.23 664.66 144.24 664.51 144.27C664.36 144.30 663.91 145.69 663.88 146.22C663.85 146.76 664.07 147.40 664.31 147.82C664.54 148.24 664.99 148.79 665.44 149.03C665.88 149.28 666.66 149.54 667.29 149.44C667.91 149.35 668.93 148.92 669.58 148.40C670.23 147.88 671.09 146.83 671.62 145.96C672.15 145.09 672.86 144.16 673.10 142.60C673.34 141.04 673.32 136.88 673.23 135.57C673.16 134.35 672.75 134.12 672.54 133.87C672.34 133.61 671.92 133.42 671.86 133.87C671.71 135.12 671.42 140.02 671.51 142.16C671.61 144.30 672.23 147.04 672.52 148.14C672.80 149.20 673.24 149.60 673.46 149.50C673.69 149.40 673.92 147.80 674.00 147.50"/><path fill="none" stroke="#823ede" stroke-width="2.0" stroke-linecap="round" stroke-linejoin="round" d="M669.00 143.00C668.91 142.98 667.99 142.92 668.40 142.86C668.92 142.78 671.88 142.55 672.50 142.50"/><path fill="none" stroke="#823ede" stroke-width="2.0" stroke-linecap="round" stroke-linejoin="round" d="M677.00 143.00C676.85 143.98 676.15 148.52 676.00 149.50"/><path fill="none" stroke="#823ede" stroke-width="2.0" stroke-linecap="round" stroke-linejoin="round" d="M677.00 138.00C677.00 138.00 677.00 138.00 677.00 138.00"/><path fill="none" stroke="#823ede" stroke-width="2.0" stroke-linecap="round" stroke-linejoin="round" d="M685.00 141.50C684.78 141.28 684.10 140.12 683.56 140.02C683.02 139.92 681.94 140.19 681.42 140.82C680.90 141.45 680.26 143.39 680.10 144.20C679.93 145.00 680.15 145.66 680.32 146.17C680.49 146.69 680.90 147.33 681.24 147.64C681.58 147.95 682.14 148.18 682.57 148.22C682.99 148.26 683.65 148.10 684.08 147.90C684.51 147.71 685.06 147.50 685.42 146.92C685.78 146.33 686.34 144.44 686.50 144.00"/><path fill="none" stroke="#823ede" stroke-width="2.0" stroke-linecap="round" stroke-linejoin="round" d="M690.50 140.50C690.43 141.58 689.34 147.82 690.05 147.73C690.76 147.64 694.20 141.27 695.22 139.89C696.06 138.76 696.46 138.73 696.85 138.54C697.25 138.35 697.62 138.41 697.84 138.64C698.06 138.87 698.28 139.08 698.30 140.10C698.33 141.13 698.05 144.61 698.00 145.50C697.98 145.83 698.00 145.93 698.00 146.00"/><path fill="none" stroke="#823ede" stroke-width="2.0" stroke-linecap="round" stroke-linejoin="round" d="M754.50 130.00C754.43 129.77 754.20 127.40 754.02 128.46C753.80 129.81 753.15 137.42 753.00 139.00"/><path fill="none" stroke="#823ede" stroke-width="2.0" stroke-linecap="round" stroke-linejoin="round" d="M765.50 129.50C765.61 129.21 766.23 127.93 766.22 127.54C766.20 127.14 765.99 126.72 765.39 126.84C764.80 126.97 762.93 127.85 762.24 128.39C761.54 128.93 761.09 129.77 760.74 130.42C760.38 131.07 759.96 132.01 759.85 132.74C759.73 133.46 759.79 134.60 759.94 135.24C760.09 135.89 760.43 136.66 760.85 137.03C761.27 137.40 762.14 137.67 762.74 137.69C763.34 137.71 764.25 137.52 764.84 137.15C765.44 136.79 766.25 136.31 766.70 135.24C767.16 134.18 767.91 131.30 767.88 130.06C767.85 128.82 766.71 127.46 766.50 127.00"/><path fill="none" stroke="#823ede" stroke-width="2.0" stroke-linecap="round" stroke-linejoin="round" d="M773.50 124.50C773.48 124.30 773.57 123.13 773.33 123.19C773.10 123.25 772.18 124.42 771.94 124.90C771.71 125.39 771.45 126.27 771.76 126.44C772.07 126.60 773.66 126.07 774.00 126.00"/><path fill="none" stroke="#823ede" stroke-width="2.0" stroke-linecap="round" stroke-linejoin="round" d="M784.00 121.00C783.94 120.90 783.79 119.83 783.58 120.32C782.79 122.18 779.84 130.87 778.70 133.44C777.57 136.01 776.59 136.85 776.04 137.46C775.57 137.97 775.16 137.49 775.00 137.50"/><path fill="none" stroke="#823ede" stroke-width="2.0" stroke-linecap="round" stroke-linejoin="round" d="M783.50 132.50C783.30 132.79 782.35 133.90 782.17 134.44C782.00 134.98 782.06 135.89 782.33 136.11C782.60 136.33 783.64 136.06 783.96 135.89C784.29 135.72 784.42 135.13 784.50 135.00"/><path fill="none" stroke="#823ede" stroke-width="2.0" stroke-linecap="round" stroke-linejoin="round" d="M616.00 180.00C616.09 179.77 616.77 178.58 616.58 178.50C616.40 178.42 615.49 178.35 614.76 179.46C614.03 180.57 612.29 184.31 611.72 185.91C611.16 187.51 611.06 188.97 611.01 190.10C610.97 191.24 611.12 192.70 611.42 193.48C611.72 194.25 612.38 195.01 613.02 195.28C613.66 195.55 614.89 195.58 615.70 195.30C616.51 195.02 617.71 194.14 618.42 193.42C619.14 192.71 620.01 191.53 620.47 190.52C620.94 189.51 621.46 187.80 621.55 186.70C621.63 185.60 621.34 184.16 621.05 183.20C620.76 182.24 620.09 181.03 619.59 180.33C619.10 179.63 618.31 178.86 617.73 178.54C617.14 178.22 616.27 178.15 615.70 178.21C615.13 178.26 614.36 178.47 613.94 178.88C613.51 179.30 613.07 180.18 612.87 180.95C612.67 181.72 612.52 182.98 612.58 184.01C612.64 185.04 612.89 186.63 613.27 187.80C613.65 188.98 614.03 190.42 615.10 191.85C616.16 193.28 619.25 196.43 620.38 197.34C621.51 198.25 622.07 197.90 622.61 197.93C623.15 197.95 623.79 197.56 624.00 197.50"/><path fill="none" stroke="#823ede" stroke-width="2.0" stroke-linecap="round" stroke-linejoin="round" d="M626.50 185.50C626.50 185.40 626.48 184.40 626.50 184.84C626.52 185.35 626.36 187.88 626.62 188.90C626.88 189.92 627.82 191.21 628.25 191.62C628.68 192.03 629.10 191.79 629.47 191.61C629.84 191.43 630.27 191.48 630.72 190.44C631.17 189.39 632.14 184.78 632.48 184.67C632.82 184.56 632.85 188.74 633.01 189.72C633.18 190.71 633.21 190.97 633.58 191.24C633.95 191.50 635.06 191.61 635.50 191.50C635.94 191.39 636.35 190.65 636.50 190.50"/><path fill="none" stroke="#823ede" stroke-width="2.0" stroke-linecap="round" stroke-linejoin="round" d="M638.50 184.00C638.65 184.98 639.35 189.52 639.50 190.50"/><path fill="none" stroke="#823ede" stroke-width="2.0" stroke-linecap="round" stroke-linejoin="round" d="M637.00 181.50C637.00 181.43 637.00 181.07 637.00 181.00"/><path fill="none" stroke="#823ede" stroke-width="2.0" stroke-linecap="round" stroke-linejoin="round" d="M643.50 183.50C643.40 183.51 642.53 183.61 642.86 183.54C643.19 183.47 645.08 182.98 645.70 183.06C646.33 183.14 646.91 183.50 647.01 184.07C647.10 184.64 646.81 185.84 646.33 186.83C645.84 187.82 643.29 190.20 643.77 190.67C644.24 191.15 648.64 190.10 649.50 190.00"/><path fill="none" stroke="#823ede" stroke-width="2.0" stroke-linecap="round" stroke-linejoin="round" d="M653.00 187.00C652.91 187.00 652.14 187.29 652.42 187.02C652.98 186.50 655.99 184.22 656.73 183.50C657.42 182.84 657.37 182.76 657.39 182.24C657.41 181.72 657.32 180.31 656.90 180.05C656.47 179.78 655.21 179.87 654.57 180.48C653.93 181.10 652.93 183.27 652.64 184.15C652.35 185.02 652.52 185.68 652.63 186.29C652.73 186.90 653.01 187.79 653.36 188.22C653.70 188.64 654.24 188.99 654.94 189.11C655.63 189.23 657.17 189.17 658.00 189.00C658.83 188.83 660.12 188.15 660.50 188.00"/><path fill="none" stroke="#823ede" stroke-width="2.0" stroke-linecap="round" stroke-linejoin="round" d="M665.00 184.00C665.15 183.43 665.95 181.03 666.02 180.22C666.09 179.41 665.68 178.84 665.47 178.59C665.27 178.34 665.05 178.20 664.65 178.57C664.19 179.00 662.63 180.66 662.43 181.44C662.23 182.22 661.95 182.85 663.34 183.76C664.91 184.79 671.38 187.48 672.93 188.30C673.63 188.67 674.41 188.96 673.67 189.22C672.93 189.47 668.85 189.88 668.00 190.00"/><path fill="none" stroke="#823ede" stroke-width="2.0" stroke-linecap="round" stroke-linejoin="round" d="M755.50 170.50C755.45 170.27 755.21 167.97 755.14 168.94C755.08 169.91 754.94 175.30 755.07 176.96C755.20 178.62 755.86 179.54 756.00 180.00"/><path fill="none" stroke="#823ede" stroke-width="2.0" stroke-linecap="round" stroke-linejoin="round" d="M768.50 170.50C768.49 170.29 768.60 169.44 768.42 169.08C768.24 168.73 767.78 168.04 767.32 168.13C766.86 168.22 765.77 169.12 765.33 169.67C764.89 170.22 764.56 170.73 764.39 171.78C764.22 172.83 764.07 175.70 764.20 176.68C764.33 177.66 764.85 178.05 765.26 178.32C765.67 178.58 766.18 178.94 766.94 178.46C767.70 177.98 769.73 176.12 770.32 175.12C770.91 174.11 770.94 172.67 770.89 171.76C770.84 170.84 770.36 169.64 770.00 169.00C769.64 168.36 768.72 167.73 768.50 167.50"/><path fill="none" stroke="#823ede" stroke-width="2.0" stroke-linecap="round" stroke-linejoin="round" d="M781.50 162.50C781.14 162.57 779.51 162.62 779.08 163.00C778.65 163.38 778.28 164.64 778.64 165.01C779.00 165.39 780.92 165.58 781.50 165.50C782.08 165.42 782.35 164.65 782.50 164.50"/><path fill="none" stroke="#823ede" stroke-width="2.0" stroke-linecap="round" stroke-linejoin="round" d="M787.00 159.50C787.00 159.30 787.21 157.27 787.00 158.15C786.53 160.06 784.71 169.33 783.89 172.23C783.06 175.14 781.86 176.71 781.50 177.50"/><path fill="none" stroke="#823ede" stroke-width="2.0" stroke-linecap="round" stroke-linejoin="round" d="M790.50 174.00C790.41 173.92 790.14 173.30 789.92 173.50C789.69 173.69 789.16 174.82 789.00 175.32C788.85 175.82 788.73 176.30 788.88 176.84C789.02 177.38 789.65 178.65 789.96 178.94C790.27 179.23 790.73 179.04 790.96 178.74C791.19 178.45 791.42 177.26 791.50 177.00"/><path fill="none" stroke="#823ede" stroke-width="2.0" stroke-linecap="round" stroke-linejoin="round" d="M623.00 222.00C623.05 221.74 623.13 220.07 623.36 220.28C623.59 220.49 624.31 222.46 624.52 223.40C624.73 224.33 624.96 225.06 624.76 226.52C624.55 227.97 623.69 231.89 623.16 233.10C622.63 234.30 621.98 234.40 621.21 234.54C620.43 234.67 618.48 234.08 618.00 234.00"/><path fill="none" stroke="#823ede" stroke-width="2.0" stroke-linecap="round" stroke-linejoin="round" d="M616.50 219.50C618.45 218.90 627.55 216.10 629.50 215.50"/><path fill="none" stroke="#823ede" stroke-width="2.0" stroke-linecap="round" stroke-linejoin="round" d="M635.00 223.00C635.02 222.81 635.24 222.01 635.10 221.72C634.96 221.43 634.52 220.78 634.08 221.07C633.63 221.35 632.52 222.86 632.14 223.61C631.77 224.37 631.62 225.38 631.57 226.12C631.52 226.85 631.61 227.94 631.83 228.54C632.04 229.14 632.56 229.86 632.99 230.14C633.43 230.43 634.19 230.58 634.70 230.44C635.20 230.29 635.97 229.69 636.38 229.17C636.79 228.65 637.19 227.71 637.41 226.98C637.63 226.24 638.00 225.23 637.86 224.26C637.72 223.29 636.70 221.06 636.50 220.50"/><path fill="none" stroke="#823ede" stroke-width="2.0" stroke-linecap="round" stroke-linejoin="round" d="M639.50 222.00C639.71 221.96 640.54 220.93 640.88 221.76C641.22 222.59 641.48 226.58 641.76 227.54C641.97 228.28 642.40 228.14 642.72 228.18C643.05 228.23 643.46 228.41 643.94 227.82C644.42 227.22 645.56 225.42 645.94 224.21C646.32 223.00 646.49 220.18 646.49 219.74C646.50 219.31 645.98 220.49 645.97 221.32C645.95 222.15 646.18 224.41 646.42 225.28C646.67 226.16 647.11 226.76 647.57 227.17C648.03 227.58 649.14 227.88 649.50 228.00C649.82 228.11 649.92 228.00 650.00 228.00"/><path fill="none" stroke="#823ede" stroke-width="2.0" stroke-linecap="round" stroke-linejoin="round" d="M651.50 220.00C651.67 221.07 652.45 226.97 652.65 227.12C652.84 227.26 652.58 222.32 652.80 220.99C653.02 219.65 653.55 218.88 654.11 218.21C654.66 217.54 656.14 216.76 656.50 216.50"/><path fill="none" stroke="#823ede" stroke-width="2.0" stroke-linecap="round" stroke-linejoin="round" d="M659.50 219.50C659.50 219.92 658.99 222.89 659.50 222.31C660.01 221.73 662.26 216.71 662.91 215.61C663.29 214.98 663.67 214.28 663.84 215.00C664.15 216.34 664.83 223.08 665.00 224.50"/><path fill="none" stroke="#823ede" stroke-width="2.0" stroke-linecap="round" stroke-linejoin="round" d="M672.50 218.00C672.50 217.77 672.71 216.84 672.50 216.50C672.29 216.16 671.56 215.66 671.11 215.76C670.66 215.85 670.10 216.24 669.52 217.14C668.94 218.05 667.56 220.81 667.22 221.79C666.89 222.78 667.16 223.31 667.31 223.72C667.47 224.12 667.63 224.67 668.25 224.48C668.86 224.29 670.57 223.24 671.39 222.46C672.22 221.68 673.17 219.50 673.72 219.31C674.27 219.11 674.63 220.79 675.06 221.15C675.48 221.52 675.98 221.74 676.54 221.73C677.09 221.71 678.08 221.54 678.73 221.04C679.39 220.54 680.34 219.37 680.91 218.42C681.48 217.46 682.17 215.90 682.53 214.68C682.88 213.47 683.23 211.53 683.28 210.31C683.33 209.10 683.07 207.43 682.86 206.60C682.66 205.76 682.21 205.01 681.90 204.74C681.59 204.47 681.09 204.41 680.81 204.79C680.53 205.16 680.09 205.53 680.02 207.24C679.94 208.95 679.94 213.47 680.30 216.18C680.66 218.90 681.91 223.73 682.39 225.35C682.77 226.62 683.18 226.75 683.50 227.00C683.82 227.25 684.35 227.00 684.50 227.00"/><path fill="none" stroke="#823ede" stroke-width="2.0" stroke-linecap="round" stroke-linejoin="round" d="M708.50 212.50C708.68 212.11 709.68 210.41 709.67 209.90C709.67 209.39 709.37 209.12 708.47 209.12C707.58 209.13 704.82 209.54 703.72 209.94C702.62 210.34 701.80 211.13 701.12 211.78C700.45 212.43 699.65 213.46 699.24 214.27C698.83 215.08 698.45 216.36 698.40 217.16C698.35 217.96 698.60 218.94 698.89 219.61C699.18 220.28 699.73 221.25 700.34 221.64C700.96 222.03 701.83 222.30 702.97 222.21C704.12 222.11 707.25 221.18 708.00 221.00"/><path fill="none" stroke="#823ede" stroke-width="2.0" stroke-linecap="round" stroke-linejoin="round" d="M714.50 209.00C714.41 210.37 713.93 216.23 713.93 218.11C713.93 219.98 714.41 220.99 714.50 221.50"/><path fill="none" stroke="#823ede" stroke-width="2.0" stroke-linecap="round" stroke-linejoin="round" d="M719.00 214.50C719.00 214.34 719.00 212.94 719.00 213.43C719.00 213.91 718.82 216.61 719.00 217.72C719.18 218.84 719.84 220.38 720.20 220.84C720.56 221.30 720.86 221.25 721.39 220.78C721.92 220.31 723.31 218.80 723.72 217.71C724.13 216.63 724.17 213.87 724.14 213.54C724.10 213.21 723.15 214.61 723.50 215.50C723.85 216.39 726.05 218.90 726.50 219.50"/><path fill="none" stroke="#823ede" stroke-width="2.0" stroke-linecap="round" stroke-linejoin="round" d="M727.50 208.50C727.72 208.50 728.79 207.52 729.00 208.50C729.30 209.91 729.27 216.58 729.52 217.92C729.67 218.73 730.14 218.05 730.67 217.43C731.19 216.81 732.46 214.37 733.00 213.76C733.54 213.16 734.01 213.33 734.28 213.40C734.54 213.48 734.69 213.90 734.76 214.28C734.84 214.65 734.98 215.35 734.80 215.90C734.61 216.45 734.33 217.27 733.54 217.96C732.74 218.65 730.11 220.12 729.50 220.50"/><path fill="none" stroke="#823ede" stroke-width="2.0" stroke-linecap="round" stroke-linejoin="round" d="M764.50 206.00C764.50 205.87 764.50 204.52 764.50 205.11C764.50 206.31 764.50 212.67 764.50 214.00"/><path fill="none" stroke="#823ede" stroke-width="2.0" stroke-linecap="round" stroke-linejoin="round" d="M775.50 207.00C775.52 206.57 775.67 204.73 775.61 204.15C775.55 203.56 775.35 203.24 775.10 203.12C774.84 203.00 774.42 202.79 773.90 203.33C773.37 203.87 771.99 205.81 771.56 206.72C771.14 207.62 771.05 208.62 771.04 209.37C771.03 210.11 771.21 211.16 771.51 211.70C771.80 212.25 772.43 212.78 772.98 213.01C773.53 213.23 774.30 213.68 775.15 213.20C776.01 212.71 778.13 210.64 778.66 209.76C779.18 208.88 779.11 208.36 778.64 207.34C778.16 206.33 775.97 203.65 775.50 203.00"/><path fill="none" stroke="#823ede" stroke-width="2.0" stroke-linecap="round" stroke-linejoin="round" d="M787.00 195.50C786.91 195.52 786.28 195.38 786.42 195.61C786.56 195.83 787.48 196.69 787.93 196.98C788.37 197.27 789.14 197.52 789.38 197.52C789.61 197.52 789.48 197.08 789.50 197.00"/><path fill="none" stroke="#823ede" stroke-width="2.0" stroke-linecap="round" stroke-linejoin="round" d="M795.00 194.00C795.02 193.89 795.32 192.82 795.15 193.28C794.35 195.41 790.87 205.28 789.72 208.16C788.58 211.05 787.83 211.85 787.50 212.50"/><path fill="none" stroke="#823ede" stroke-width="2.0" stroke-linecap="round" stroke-linejoin="round" d="M796.00 206.50C796.00 206.35 796.14 205.34 796.02 205.52C795.90 205.70 795.22 207.14 795.17 207.72C795.13 208.30 795.42 209.24 795.72 209.39C796.03 209.54 796.95 209.23 797.22 208.72C797.48 208.21 797.46 206.41 797.50 206.00"/><path fill="none" stroke="#823ede" stroke-width="2.0" stroke-linecap="round" stroke-linejoin="round" d="M617.50 262.50C617.50 262.40 617.48 261.42 617.50 261.85C617.58 263.42 617.89 272.65 618.00 272.91C618.11 273.17 618.01 265.78 618.22 263.61C618.43 261.44 618.93 259.88 619.40 258.45C619.86 257.02 620.70 255.06 621.32 254.10C621.94 253.14 622.92 252.28 623.54 252.05C624.16 251.81 625.01 252.09 625.46 252.56C625.90 253.03 626.37 254.27 626.50 255.18C626.64 256.08 626.54 257.57 626.35 258.58C626.17 259.60 625.72 261.11 625.28 261.92C624.84 262.73 624.07 263.50 623.43 263.96C622.79 264.43 621.59 264.77 621.00 265.00C620.41 265.23 619.72 265.42 619.50 265.50"/><path fill="none" stroke="#823ede" stroke-width="2.0" stroke-linecap="round" stroke-linejoin="round" d="M630.50 264.00C630.58 264.84 631.06 268.40 631.04 269.60C631.02 270.80 630.61 271.97 630.35 271.99C630.10 272.01 629.41 270.97 629.31 269.74C629.22 268.51 629.47 265.02 629.72 263.76C629.98 262.51 630.51 261.99 631.00 261.35C631.49 260.71 632.40 259.85 633.00 259.50C633.60 259.15 634.70 259.08 635.00 259.00"/><path fill="none" stroke="#823ede" stroke-width="2.0" stroke-linecap="round" stroke-linejoin="round" d="M641.00 262.00C640.97 261.81 641.02 260.89 640.78 260.72C640.55 260.55 640.03 260.26 639.44 260.84C638.85 261.42 637.27 263.64 636.83 264.59C636.39 265.53 636.46 266.48 636.53 267.14C636.59 267.81 636.88 268.60 637.24 269.02C637.60 269.44 638.35 269.86 638.92 269.95C639.50 270.04 640.49 269.90 641.08 269.62C641.68 269.34 642.46 268.60 642.87 268.07C643.27 267.53 643.65 266.74 643.80 266.04C643.94 265.35 643.97 264.16 643.84 263.45C643.71 262.73 643.35 261.87 642.93 261.28C642.50 260.69 641.29 259.77 641.00 259.50"/><path fill="none" stroke="#823ede" stroke-width="2.0" stroke-linecap="round" stroke-linejoin="round" d="M646.50 262.00C647.08 263.66 649.73 270.96 650.36 273.08C650.95 275.07 650.79 275.37 650.72 276.18C650.65 276.99 650.30 277.96 649.89 278.48C649.49 279.01 648.81 279.47 648.01 279.68C647.22 279.90 645.66 280.03 644.61 279.93C643.56 279.82 641.84 279.51 641.00 279.00C640.16 278.49 639.30 276.88 639.00 276.50"/><path fill="none" stroke="#823ede" stroke-width="2.0" stroke-linecap="round" stroke-linejoin="round" d="M647.00 258.00C647.22 257.79 648.16 256.45 648.46 256.60C648.76 256.75 648.92 258.64 649.00 259.00"/><path fill="none" stroke="#823ede" stroke-width="2.0" stroke-linecap="round" stroke-linejoin="round" d="M654.00 265.00C654.74 264.13 658.17 260.28 658.95 259.21C659.49 258.47 659.25 258.19 659.20 257.87C659.14 257.54 659.09 257.03 658.59 257.04C658.09 257.05 656.44 257.48 655.85 257.92C655.25 258.36 654.82 258.83 654.63 259.97C654.45 261.11 654.24 264.28 654.59 265.51C654.93 266.74 656.14 267.72 656.95 268.17C657.77 268.62 658.87 268.90 660.00 268.50C661.13 268.10 663.83 265.95 664.50 265.50"/><path fill="none" stroke="#823ede" stroke-width="2.0" stroke-linecap="round" stroke-linejoin="round" d="M669.50 259.00C669.50 258.77 669.71 257.96 669.50 257.50C669.29 257.04 668.76 255.82 668.12 255.94C667.47 256.06 665.76 257.56 665.18 258.28C664.59 259.00 664.30 259.59 664.23 260.74C664.16 261.88 664.37 264.88 664.69 265.90C665.01 266.93 665.78 267.24 666.36 267.58C666.95 267.91 667.96 268.17 668.60 268.16C669.23 268.15 669.66 268.26 670.62 267.49C671.58 266.72 674.34 263.67 675.00 263.00"/><path fill="none" stroke="#823ede" stroke-width="2.0" stroke-linecap="round" stroke-linejoin="round" d="M676.50 253.00C676.42 252.84 675.98 251.19 675.96 251.96C675.94 253.16 676.14 258.71 676.38 260.96C676.61 263.22 677.33 266.09 677.50 267.00"/><path fill="none" stroke="#823ede" stroke-width="2.0" stroke-linecap="round" stroke-linejoin="round" d="M672.00 261.00C671.92 260.92 671.12 260.78 671.50 260.50C672.10 260.05 674.95 258.45 676.00 258.00C677.05 257.55 678.12 257.58 678.50 257.50"/><path fill="none" stroke="#823ede" stroke-width="2.0" stroke-linecap="round" stroke-linejoin="round" d="M767.50 246.00C767.49 245.82 767.27 244.01 767.42 244.80C767.79 246.75 769.61 256.87 770.00 259.00"/><path fill="none" stroke="#823ede" stroke-width="2.0" stroke-linecap="round" stroke-linejoin="round" d="M772.50 245.50C773.41 245.21 778.29 243.57 778.55 243.58C778.81 243.60 775.07 244.97 774.25 245.60C773.44 246.24 773.06 247.30 773.11 247.79C773.16 248.28 773.44 248.63 774.59 248.88C775.73 249.14 779.48 249.20 780.73 249.48C781.97 249.76 782.29 250.03 782.88 250.73C783.48 251.43 784.50 253.38 784.70 254.17C784.89 254.95 784.81 255.45 784.19 255.96C783.58 256.46 781.49 257.32 780.63 257.55C779.76 257.77 779.21 257.69 778.44 257.46C777.67 257.23 775.94 256.44 775.50 256.00C775.06 255.56 775.50 254.73 775.50 254.50"/><path fill="none" stroke="#823ede" stroke-width="2.0" stroke-linecap="round" stroke-linejoin="round" d="M792.00 244.50C792.04 244.16 792.52 242.43 792.30 242.24C792.08 242.04 791.00 242.56 790.52 243.19C790.04 243.82 789.17 245.86 789.11 246.43C789.05 247.00 789.75 247.14 790.11 247.00C790.47 246.86 791.29 245.73 791.50 245.50"/><path fill="none" stroke="#823ede" stroke-width="2.0" stroke-linecap="round" stroke-linejoin="round" d="M800.50 239.00C800.37 239.89 800.37 241.99 799.62 244.91C798.87 247.84 796.12 256.46 795.50 258.50"/><path fill="none" stroke="#823ede" stroke-width="2.0" stroke-linecap="round" stroke-linejoin="round" d="M805.00 250.50C804.85 250.57 804.24 250.65 804.02 250.96C803.80 251.27 803.41 252.08 803.53 252.54C803.66 253.00 804.45 253.80 804.82 254.04C805.19 254.28 805.67 254.18 806.01 254.13C806.34 254.08 806.82 253.96 807.04 253.72C807.26 253.47 807.47 252.98 807.46 252.50C807.46 252.02 807.07 250.80 807.00 250.50"/>
</svg>