<?xml version="1.0" encoding="UTF-8"?>
<!DOCTYPE svg PUBLIC "-//W3C//DTD SVG 1.1//EN" "http://www.w3.org/Graphics/SVG/1.1/DTD/svg11.dtd">
<svg  xmlns="http://www.w3.org/2000/svg" xmlns:xlink="http://www.w3.org/1999/xlink" viewport-fill="none" viewBox="0.0, 0.0, 574.56194154257, 709.3010864257812" version="1.1" height="709.3010864257812" width="574.56194154257">
<path fill="none" stroke="#d1000d" stroke-width="2.0" stroke-linecap="round" stroke-linejoin="round" d="M348.93 680.77C348.74 680.36 346.94 676.15 347.69 678.02C348.97 681.19 356.01 698.32 357.47 701.91"/><path fill="none" stroke="#d1000d" stroke-width="2.0" stroke-linecap="round" stroke-linejoin="round" d="M354.33 676.72C354.33 676.54 353.95 674.81 354.36 675.51C355.24 677.01 358.93 683.83 360.20 686.72C361.48 689.60 362.47 693.51 362.87 694.71"/><path fill="none" stroke="#d1000d" stroke-width="2.0" stroke-linecap="round" stroke-linejoin="round" d="M352.98 692.01C353.01 691.64 353.00 690.15 353.23 689.55C353.46 688.94 353.38 688.71 354.49 688.00C355.60 687.29 359.70 685.30 360.62 684.82"/><path fill="none" stroke="#d1000d" stroke-width="2.0" stroke-linecap="round" stroke-linejoin="round" d="M367.36 684.82C367.77 685.70 369.66 689.79 370.06 690.66"/><path fill="none" stroke="#d1000d" stroke-width="2.0" stroke-linecap="round" stroke-linejoin="round" d="M365.12 680.77C365.32 680.50 366.26 679.24 366.47 678.97"/><path fill="none" stroke="#d1000d" stroke-width="2.0" stroke-linecap="round" stroke-linejoin="round" d="M375.46 678.07C375.49 677.72 375.86 676.13 375.68 675.70C375.50 675.27 374.73 675.20 374.25 675.21C373.77 675.23 372.95 675.49 372.47 675.80C371.98 676.10 371.34 676.70 371.00 677.25C370.65 677.80 370.25 678.81 370.15 679.46C370.04 680.12 370.08 681.02 370.31 681.61C370.54 682.19 371.12 682.96 371.65 683.35C372.19 683.74 372.80 684.02 373.88 684.19C374.96 684.36 377.89 684.35 378.84 684.46C379.78 684.57 379.94 684.70 380.20 684.91C380.45 685.13 380.93 685.31 380.55 685.86C380.04 686.59 377.64 689.04 376.81 689.76C375.98 690.48 375.28 690.53 375.01 690.66"/><path fill="none" stroke="#d1000d" stroke-width="2.0" stroke-linecap="round" stroke-linejoin="round" d="M379.96 665.93C380.77 667.10 384.34 671.85 385.42 673.74C386.50 675.63 386.89 677.81 387.15 678.52"/><path fill="none" stroke="#d1000d" stroke-width="2.0" stroke-linecap="round" stroke-linejoin="round" d="M379.51 677.62C379.69 677.29 379.79 676.35 380.73 675.41C381.68 674.46 385.04 671.94 385.80 671.33"/><path fill="none" stroke="#d1000d" stroke-width="2.0" stroke-linecap="round" stroke-linejoin="round" d="M392.55 662.79C392.34 662.64 390.70 660.75 391.16 661.79C391.91 663.45 397.60 672.33 397.50 673.85C397.39 675.37 391.71 672.14 390.47 671.92C389.61 671.76 389.45 672.08 389.23 672.36C389.01 672.64 388.91 673.26 389.01 673.78C389.12 674.31 389.12 675.11 389.92 675.83C390.72 676.54 393.22 678.26 394.35 678.55C395.47 678.85 396.55 678.29 397.43 677.81C398.30 677.33 399.71 675.88 400.19 675.38C400.65 674.89 400.57 674.61 400.64 674.48"/><path fill="none" stroke="#d1000d" stroke-width="2.0" stroke-linecap="round" stroke-linejoin="round" d="M401.54 666.38C401.68 667.00 402.02 669.47 402.49 670.48C402.96 671.50 404.36 672.73 404.69 673.13"/><path fill="none" stroke="#d1000d" stroke-width="2.0" stroke-linecap="round" stroke-linejoin="round" d="M399.74 661.44C399.73 661.31 399.54 660.74 399.67 660.60C399.81 660.47 400.49 660.55 400.64 660.54"/><path fill="none" stroke="#d1000d" stroke-width="2.0" stroke-linecap="round" stroke-linejoin="round" d="M410.53 666.83C410.86 667.25 412.60 670.15 412.74 669.60C412.89 669.06 411.66 664.48 411.49 663.20C411.33 661.93 411.51 661.53 411.64 661.09C411.78 660.66 411.77 659.90 412.38 660.29C413.17 660.80 415.96 663.74 416.91 664.49C417.87 665.24 418.21 665.28 418.73 665.32C419.26 665.35 420.01 665.14 420.42 664.74C420.84 664.33 421.32 663.34 421.52 662.61C421.73 661.88 421.83 660.64 421.81 659.86C421.79 659.07 421.60 657.96 421.37 657.38C421.14 656.80 420.59 656.20 420.27 656.01C419.95 655.83 419.49 655.92 419.24 656.16C419.00 656.40 418.48 656.71 418.62 657.63C418.75 658.54 419.55 661.36 420.12 662.28C420.69 663.20 421.56 663.51 422.42 663.78C423.27 664.06 424.90 664.35 425.82 664.13C426.73 663.92 428.11 662.61 428.52 662.34"/><path fill="none" stroke="#d1000d" stroke-width="2.0" stroke-linecap="round" stroke-linejoin="round" d="M408.73 701.46C408.61 701.49 407.93 701.39 407.90 701.68C407.87 701.98 408.01 702.56 408.54 703.40C409.07 704.24 411.00 706.72 411.43 707.30"/><path fill="none" stroke="#d1000d" stroke-width="2.0" stroke-linecap="round" stroke-linejoin="round" d="M403.79 699.66C403.58 699.35 402.34 697.98 402.40 697.64C402.47 697.30 403.96 697.44 404.24 697.41"/><path fill="none" stroke="#d1000d" stroke-width="2.0" stroke-linecap="round" stroke-linejoin="round" d="M415.03 696.96C415.23 696.87 416.39 696.48 416.36 696.36C416.32 696.24 415.39 695.96 414.80 696.15C414.22 696.34 412.87 697.21 412.45 697.62C412.03 698.03 411.98 698.51 412.02 698.90C412.06 699.29 412.33 699.88 412.71 700.22C413.09 700.57 413.19 700.91 414.56 701.21C415.98 701.51 422.14 701.50 422.21 702.28C422.28 703.06 416.11 705.78 415.03 706.40"/><path fill="none" stroke="#d1000d" stroke-width="2.0" stroke-linecap="round" stroke-linejoin="round" d="M435.26 684.37C435.13 684.00 434.62 682.25 434.40 681.90C434.19 681.56 433.87 681.67 433.82 682.07C433.70 683.09 433.41 687.12 433.63 688.65C433.84 690.18 434.87 691.79 435.24 692.27C435.61 692.75 435.89 692.45 436.08 691.86C436.36 690.98 436.91 687.27 437.15 686.42C437.25 686.05 437.34 685.95 437.66 686.16C438.13 686.46 439.49 688.08 440.27 688.42C441.06 688.75 442.11 688.75 442.91 688.42C443.71 688.08 445.20 686.50 445.60 686.17"/><path fill="none" stroke="#d1000d" stroke-width="2.0" stroke-linecap="round" stroke-linejoin="round" d="M457.74 669.08C457.50 668.87 456.61 667.91 456.14 667.70C455.68 667.49 455.19 667.22 454.63 667.70C454.07 668.18 452.71 670.12 452.41 670.90C452.11 671.68 452.41 672.35 452.63 672.90C452.84 673.44 453.32 674.19 453.85 674.54C454.39 674.89 454.81 675.04 456.18 675.21C457.56 675.38 462.03 675.28 463.04 675.66C464.06 676.04 463.21 677.21 462.94 677.76C462.66 678.30 460.88 680.59 461.23 679.31C461.59 678.04 464.58 671.28 465.30 669.25C466.02 667.23 465.92 666.64 466.03 665.80C466.13 664.96 466.15 664.04 466.02 663.64C465.90 663.23 465.48 663.02 465.21 663.10C464.93 663.18 464.42 663.68 464.21 664.20C464.00 664.72 463.80 665.78 463.80 666.56C463.80 667.35 463.92 668.70 464.22 669.45C464.52 670.21 465.22 671.09 465.79 671.61C466.37 672.12 467.31 672.80 468.05 672.89C468.79 672.98 470.00 673.03 470.75 672.19C471.50 671.35 472.69 668.02 473.03 667.28"/><path fill="none" stroke="#d1000d" stroke-width="2.0" stroke-linecap="round" stroke-linejoin="round" d="M470.78 660.54C470.72 660.46 470.20 659.61 470.37 660.02C470.81 661.11 473.26 667.64 473.74 667.77C474.21 667.91 473.52 662.32 473.53 660.90C473.53 659.49 473.63 658.87 473.79 658.34C473.96 657.82 473.94 656.92 474.61 657.40C475.47 658.03 478.49 661.66 479.53 662.54C480.58 663.43 480.98 663.34 481.59 663.32C482.20 663.31 483.10 662.95 483.59 662.44C484.07 661.92 484.62 660.74 484.85 659.87C485.08 659.01 485.21 657.63 485.13 656.68C485.06 655.74 484.72 654.37 484.34 653.58C483.97 652.79 483.18 651.85 482.66 651.40C482.13 650.95 481.33 650.66 480.86 650.59C480.38 650.52 479.75 650.68 479.48 650.94C479.22 651.19 479.02 651.84 479.09 652.30C479.15 652.77 478.91 653.24 479.92 654.04C481.28 655.10 486.86 658.43 488.12 659.41C488.74 659.89 488.43 660.20 488.32 660.57C488.22 660.94 487.76 661.62 487.42 661.89C487.08 662.15 486.28 662.27 486.07 662.34"/><path fill="none" stroke="#d1000d" stroke-width="2.0" stroke-linecap="round" stroke-linejoin="round" d="M490.57 650.20C490.64 649.71 491.08 647.57 491.05 646.98C491.02 646.40 490.73 646.04 490.35 646.29C489.97 646.55 488.85 647.95 488.54 648.69C488.24 649.43 488.24 650.48 488.31 651.24C488.37 652.00 488.67 653.10 488.97 653.75C489.27 654.40 489.87 655.25 490.31 655.58C490.75 655.90 491.37 656.43 491.92 655.92C492.46 655.42 493.68 653.21 493.93 652.19C494.18 651.17 493.79 649.95 493.55 649.11C493.32 648.27 492.55 646.97 492.37 646.60"/><path fill="none" stroke="#d1000d" stroke-width="2.0" stroke-linecap="round" stroke-linejoin="round" d="M495.52 644.35C495.84 644.62 497.14 645.44 497.69 646.15C498.24 646.86 499.05 648.76 499.17 649.09C499.29 649.41 498.66 648.99 498.48 648.33C498.25 647.46 497.65 644.57 497.61 643.29C497.56 642.00 497.69 640.81 498.19 639.76C498.69 638.70 500.50 636.78 500.91 636.26"/><path fill="none" stroke="#d1000d" stroke-width="2.0" stroke-linecap="round" stroke-linejoin="round" d="M514.40 627.26C514.71 627.84 515.80 629.37 516.49 631.13C517.17 632.90 518.59 638.06 518.95 639.03C519.28 639.92 518.91 637.82 518.90 637.61"/><path fill="none" stroke="#d1000d" stroke-width="2.0" stroke-linecap="round" stroke-linejoin="round" d="M518.00 616.92C517.86 616.79 517.54 616.04 517.07 616.02C516.59 616.01 515.28 616.44 514.84 616.81C514.39 617.19 514.22 617.81 514.11 618.51C513.99 619.21 513.60 619.57 514.10 621.49C514.99 624.91 519.46 637.94 520.05 641.30C520.43 643.48 518.31 643.51 518.00 643.90"/><path fill="none" stroke="#d1000d" stroke-width="2.0" stroke-linecap="round" stroke-linejoin="round" d="M513.95 639.40C513.95 638.97 513.74 637.23 513.91 636.49C514.09 635.74 514.24 635.35 515.10 634.44C515.96 633.54 518.10 631.54 519.64 630.45C521.19 629.36 524.58 627.74 525.41 627.18C525.70 626.99 525.45 626.61 525.21 626.71C524.96 626.81 524.03 627.14 523.79 627.85C523.55 628.57 523.35 630.35 523.62 631.49C523.88 632.62 525.09 634.77 525.58 635.45C526.06 636.13 526.52 636.05 526.83 636.03C527.14 636.01 527.46 635.71 527.63 635.31C527.81 634.91 528.28 634.65 528.01 633.35C527.71 631.87 526.00 626.65 525.64 625.46"/><path fill="none" stroke="#d1000d" stroke-width="2.0" stroke-linecap="round" stroke-linejoin="round" d="M531.94 625.01C532.31 625.87 534.38 630.49 534.42 630.73C534.46 630.98 532.63 628.25 532.19 626.65C531.75 625.05 531.59 621.06 531.49 620.07"/><path fill="none" stroke="#d1000d" stroke-width="2.0" stroke-linecap="round" stroke-linejoin="round" d="M549.92 602.53C550.64 604.27 554.11 612.38 554.73 614.13C554.88 614.57 554.37 614.53 554.03 614.21C553.65 613.86 552.98 613.41 552.23 611.79C551.49 610.17 549.56 605.27 549.07 603.39C548.58 601.52 548.80 600.27 548.97 599.28C549.13 598.29 549.72 597.26 550.17 596.80C550.63 596.34 551.47 596.03 552.02 596.21C552.56 596.38 553.34 597.24 553.81 597.96C554.28 598.68 554.94 599.95 555.14 601.01C555.33 602.06 555.36 603.74 555.12 604.98C554.88 606.22 553.76 608.63 553.52 609.28"/><path fill="none" stroke="#d1000d" stroke-width="2.0" stroke-linecap="round" stroke-linejoin="round" d="M555.32 586.34C555.25 586.20 554.61 584.66 554.87 585.35C555.65 587.42 559.35 597.41 560.50 600.19C561.57 602.78 562.21 603.60 562.51 603.88C562.82 604.17 562.51 602.35 562.51 602.08"/><path fill="none" stroke="#d1000d" stroke-width="2.0" stroke-linecap="round" stroke-linejoin="round" d="M559.37 587.24C559.11 586.37 557.46 581.94 557.64 581.42C557.82 580.90 559.37 582.33 560.60 583.78C561.82 585.24 564.73 589.39 565.82 591.13C566.91 592.88 567.46 594.17 567.84 595.40C568.22 596.64 568.28 598.79 568.36 599.38"/><path fill="none" stroke="#d1000d" stroke-width="2.0" stroke-linecap="round" stroke-linejoin="round" d="M559.37 596.24C559.44 595.92 558.82 595.15 559.84 594.15C561.79 592.24 570.67 584.94 572.35 583.50C573.19 582.78 571.25 584.39 571.06 584.55"/>
</svg>