<?xml version="1.0" encoding="UTF-8"?>
<!DOCTYPE svg PUBLIC "-//W3C//DTD SVG 1.1//EN" "http://www.w3.org/Graphics/SVG/1.1/DTD/svg11.dtd">
<svg  xmlns="http://www.w3.org/2000/svg" xmlns:xlink="http://www.w3.org/1999/xlink" viewport-fill="none" viewBox="0.0, 0.0, 88.0, 42.56105239145836" version="1.1" height="42.56105239145836" width="88.0">
<path fill="none" stroke="#d1000d" stroke-width="2.0" stroke-linecap="round" stroke-linejoin="round" d="M40.00 15.00C39.43 14.92 37.20 14.27 36.23 14.46C35.26 14.65 34.38 15.42 33.55 16.24C32.72 17.06 31.44 18.58 30.69 19.94C29.93 21.30 28.94 23.57 28.51 25.29C28.09 27.01 27.81 29.70 27.84 31.40C27.88 33.10 28.21 35.34 28.74 36.65C29.27 37.96 30.35 39.58 31.38 40.12C32.42 40.66 34.17 40.71 35.61 40.24C37.05 39.78 39.59 38.09 41.00 37.00C42.41 35.91 44.40 33.60 45.00 33.00"/><path fill="none" stroke="#d1000d" stroke-width="2.0" stroke-linecap="round" stroke-linejoin="round" d="M45.00 4.00C44.39 3.96 41.55 3.64 40.93 3.74C40.32 3.84 40.61 4.09 40.84 4.67C41.80 7.04 45.73 16.40 47.27 19.57C48.82 22.73 50.41 24.98 51.14 25.76C51.78 26.44 51.84 25.66 52.13 24.78C52.68 23.14 53.79 15.52 54.80 14.86C55.82 14.21 57.60 19.47 58.90 20.39C60.21 21.31 62.81 20.91 63.50 21.00"/><path fill="none" stroke="#d1000d" stroke-width="2.0" stroke-linecap="round" stroke-linejoin="round" d="M73.00 3.00C72.85 2.85 72.46 2.20 72.00 2.00C71.54 1.80 70.63 1.34 69.96 1.65C69.30 1.96 68.14 3.07 67.56 4.07C66.98 5.06 66.37 7.04 66.12 8.30C65.87 9.55 65.78 11.32 65.90 12.42C66.01 13.53 66.44 15.01 66.92 15.67C67.39 16.34 68.34 16.85 69.04 16.85C69.74 16.85 70.88 16.28 71.58 15.67C72.28 15.06 73.03 14.12 73.69 12.79C74.35 11.45 75.55 6.93 75.98 6.77C76.41 6.61 76.24 10.94 76.53 11.74C76.81 12.53 77.37 12.18 77.89 12.07C78.41 11.96 79.46 11.54 80.00 11.00C80.54 10.46 81.28 8.88 81.50 8.50"/><path fill="none" stroke="#d1000d" stroke-width="2.0" stroke-linecap="round" stroke-linejoin="round" d="M84.50 1.50C84.53 2.08 84.46 4.57 84.68 5.40C84.91 6.22 85.80 6.76 86.00 7.00"/>
</svg>