<?xml version="1.0" encoding="UTF-8"?>
<!DOCTYPE svg PUBLIC "-//W3C//DTD SVG 1.1//EN" "http://www.w3.org/Graphics/SVG/1.1/DTD/svg11.dtd">
<svg  xmlns="http://www.w3.org/2000/svg" xmlns:xlink="http://www.w3.org/1999/xlink" viewport-fill="none" viewBox="0.0, 0.0, 470.21245235667163, 130.5" version="1.1" height="130.5" width="470.21245235667163">
<path fill="none" stroke="#d1000d" stroke-width="2.0" stroke-linecap="round" stroke-linejoin="round" d="M466.50 104.00C466.71 103.62 467.63 102.25 467.88 101.46C468.13 100.67 468.28 100.51 468.18 98.73C468.08 96.96 467.57 91.45 467.20 89.62C466.83 87.79 466.25 87.32 465.70 86.52C465.14 85.72 464.25 84.79 463.50 84.26C462.75 83.74 461.61 83.22 460.72 83.02C459.84 82.82 459.07 82.62 457.62 82.92C456.17 83.23 454.59 83.32 451.04 85.05C447.50 86.79 436.63 92.86 434.00 94.50C433.11 95.06 433.58 95.78 433.50 96.00"/><path fill="none" stroke="#d1000d" stroke-width="2.0" stroke-linecap="round" stroke-linejoin="round" d="M435.50 89.00C435.52 88.78 436.07 86.64 435.62 87.52C434.89 88.96 431.30 96.81 430.65 98.61C430.40 99.29 430.54 99.44 431.26 99.51C432.66 99.65 438.69 99.50 440.00 99.50"/><path fill="none" stroke="#e5b300" stroke-width="2.5" stroke-linecap="round" stroke-linejoin="round" d="M73.00 105.00C72.75 105.65 71.67 107.50 71.36 109.36C71.05 111.21 70.78 115.56 70.96 117.34C71.13 119.11 71.79 120.15 72.51 121.19C73.23 122.23 74.49 123.56 75.74 124.27C76.99 124.97 79.09 125.62 80.83 125.90C82.57 126.17 85.28 126.20 87.33 126.11C89.38 126.03 90.48 126.24 94.49 125.32C98.49 124.40 111.00 120.69 114.00 119.96C114.48 119.85 114.43 120.42 114.50 120.50"/><path fill="none" stroke="#e5b300" stroke-width="2.5" stroke-linecap="round" stroke-linejoin="round" d="M111.00 116.50C110.83 116.34 109.09 115.10 109.90 115.42C110.71 115.73 115.12 117.79 116.41 118.61C117.70 119.42 118.28 120.31 118.48 120.84C118.69 121.36 118.56 121.54 117.78 122.10C116.50 123.03 111.24 126.12 110.00 127.00C109.39 127.43 109.57 127.85 109.50 128.00"/>
</svg>