<?xml version="1.0" encoding="UTF-8"?>
<!DOCTYPE svg PUBLIC "-//W3C//DTD SVG 1.1//EN" "http://www.w3.org/Graphics/SVG/1.1/DTD/svg11.dtd">
<svg  xmlns="http://www.w3.org/2000/svg" xmlns:xlink="http://www.w3.org/1999/xlink" viewport-fill="none" viewBox="0.0, 0.0, 285.96202780281436, 160.5" version="1.1" height="160.5" width="285.96202780281436">
<path fill="none" stroke="#ff9399" stroke-opacity="0.5" stroke-width="13.0" stroke-linecap="round" stroke-linejoin="round" d="M68.00 144.00C67.98 143.72 67.35 142.48 67.87 142.10C68.40 141.73 69.05 141.46 71.51 141.47C81.03 141.51 119.00 142.31 131.34 142.40C143.69 142.48 149.53 142.09 153.79 142.05C157.76 142.01 155.77 142.07 159.74 142.12C172.37 142.29 223.45 142.86 237.97 143.20C250.39 143.49 253.09 144.40 256.57 144.39C259.75 144.38 260.66 143.37 261.17 143.13C261.68 142.88 260.78 142.95 259.97 142.75C258.20 142.33 252.04 140.80 249.41 140.30C246.78 139.81 247.11 139.67 242.41 139.45C236.12 139.17 219.49 138.47 207.46 138.40C195.43 138.32 174.26 138.46 162.23 138.97C150.20 139.48 135.82 141.32 127.29 141.78C118.76 142.24 109.75 142.00 105.35 142.04C100.94 142.07 102.63 142.00 97.90 142.00C93.18 142.00 78.16 142.20 73.85 142.03C70.62 141.91 70.10 142.24 69.15 140.88C68.20 139.52 67.13 134.31 67.53 132.97C67.93 131.62 69.30 132.18 71.83 131.91C74.35 131.64 81.10 131.29 84.39 131.17C87.68 131.04 87.52 131.15 93.79 131.08C111.26 130.91 176.53 129.87 200.86 130.02C225.19 130.17 247.12 131.75 255.99 132.07C258.66 132.17 257.47 131.93 260.00 132.15C262.53 132.36 271.83 131.87 272.84 133.53C273.85 135.19 268.30 141.63 266.74 143.24C265.18 144.86 265.40 144.16 262.46 144.30C257.47 144.55 240.16 144.74 233.50 144.87C226.84 145.01 228.35 144.92 218.06 145.20C206.47 145.53 174.56 146.84 156.22 147.04C137.88 147.25 106.31 146.49 95.78 146.56C89.23 146.60 87.47 147.36 86.00 147.50"/><path fill="none" stroke="#d1000d" stroke-width="2.0" stroke-linecap="round" stroke-linejoin="round" d="M255.00 134.50C254.83 134.25 254.54 133.30 253.86 132.86C253.17 132.42 252.82 132.06 250.44 131.56C247.68 130.98 241.10 129.45 235.48 129.01C229.86 128.57 216.56 128.61 212.97 128.61C211.95 128.61 212.31 128.60 211.50 129.01C210.70 129.43 208.53 130.56 207.59 131.41C206.65 132.26 205.77 133.01 205.21 134.69C204.66 136.36 204.01 141.03 203.87 142.59C203.73 144.15 203.81 144.40 204.28 145.09C204.75 145.78 206.21 146.75 207.01 147.21C207.82 147.67 207.84 147.68 209.64 148.16C212.03 148.79 220.08 150.78 222.96 151.41C225.84 152.03 224.88 152.07 228.84 152.33C234.03 152.67 252.16 153.63 257.55 153.69C262.38 153.73 263.27 153.05 264.72 152.69C266.18 152.32 266.59 151.79 267.24 151.26C267.90 150.72 268.73 149.84 269.11 149.12C269.50 148.40 269.75 147.29 269.81 146.44C269.88 145.58 269.79 144.32 269.54 143.43C269.28 142.53 268.69 141.33 268.10 140.48C267.51 139.62 266.87 138.73 265.58 137.75C264.28 136.77 260.90 134.68 259.46 133.96C258.03 133.25 257.04 133.14 256.00 133.00C254.96 132.86 253.02 133.00 252.50 133.00"/>
</svg>