<?xml version="1.0" encoding="UTF-8"?>
<!DOCTYPE svg PUBLIC "-//W3C//DTD SVG 1.1//EN" "http://www.w3.org/Graphics/SVG/1.1/DTD/svg11.dtd">
<svg  xmlns="http://www.w3.org/2000/svg" xmlns:xlink="http://www.w3.org/1999/xlink" viewport-fill="none" viewBox="0.0, 0.0, 567.5, 1157.2931603285442" version="1.1" height="1157.2931603285442" width="567.5">
<path fill="none" stroke="#000000" stroke-width="2.0" stroke-linecap="round" stroke-linejoin="round" d="M346.00 1010.50C346.07 1009.77 346.32 1006.28 346.46 1005.61C346.56 1005.18 346.93 1005.58 346.98 1006.01C347.13 1007.30 347.44 1011.27 347.49 1014.20C347.55 1017.14 346.63 1025.26 347.33 1025.57C348.03 1025.88 350.99 1018.31 352.17 1016.26C353.34 1014.22 354.27 1012.92 355.15 1011.91C356.03 1010.90 357.26 1009.85 358.04 1009.53C358.81 1009.21 359.73 1009.37 360.33 1009.79C360.92 1010.20 361.44 1010.89 362.01 1012.30C362.57 1013.71 363.58 1017.80 364.10 1019.18C364.63 1020.56 365.29 1021.30 365.50 1021.50C365.71 1021.70 365.50 1020.65 365.50 1020.50"/><path fill="none" stroke="#000000" stroke-width="2.0" stroke-linecap="round" stroke-linejoin="round" d="M368.00 1013.50C368.01 1013.41 368.08 1012.49 368.04 1012.89C367.99 1013.32 367.62 1015.49 367.70 1016.33C367.79 1017.17 368.18 1017.94 368.60 1018.47C369.03 1019.01 369.83 1019.71 370.52 1019.88C371.20 1020.06 372.31 1020.04 373.17 1019.64C374.02 1019.24 375.39 1018.18 376.19 1017.20C376.99 1016.23 378.01 1014.43 378.51 1013.15C379.02 1011.88 379.42 1009.88 379.55 1008.71C379.68 1007.54 379.60 1006.04 379.38 1005.35C379.17 1004.67 378.47 1004.07 378.11 1004.16C377.75 1004.25 377.19 1004.92 376.97 1005.96C376.75 1006.99 376.32 1007.67 376.65 1011.08C377.16 1016.41 379.88 1035.28 380.41 1041.50C380.93 1047.72 380.53 1049.53 380.12 1052.56C379.72 1055.59 378.70 1059.45 377.70 1061.70C376.71 1063.94 374.88 1066.40 373.49 1067.55C372.11 1068.69 369.82 1069.53 368.47 1069.32C367.12 1069.10 365.50 1067.52 364.50 1066.09C363.50 1064.67 362.24 1062.33 361.80 1059.81C361.37 1057.28 361.18 1052.69 361.58 1049.27C361.99 1045.85 363.84 1039.29 364.50 1037.00C365.12 1034.85 365.77 1034.45 366.00 1034.00"/><path fill="none" stroke="#000000" stroke-width="2.0" stroke-linecap="round" stroke-linejoin="round" d="M391.50 996.00C391.44 995.68 391.15 992.42 391.11 993.86C391.01 997.06 391.49 1014.58 390.87 1017.28C390.25 1019.98 387.86 1012.90 386.97 1011.85C386.07 1010.79 385.50 1010.55 384.90 1010.25C384.31 1009.96 383.47 1009.75 383.01 1009.87C382.54 1009.99 381.99 1010.52 381.79 1011.06C381.59 1011.60 381.54 1012.67 381.68 1013.47C381.83 1014.28 382.24 1015.58 382.74 1016.45C383.25 1017.31 384.18 1018.62 385.04 1019.24C385.90 1019.85 387.34 1020.50 388.46 1020.54C389.58 1020.58 391.22 1020.18 392.50 1019.50C393.78 1018.82 396.33 1016.53 397.00 1016.00"/><path fill="none" stroke="#000000" stroke-width="2.0" stroke-linecap="round" stroke-linejoin="round" d="M400.50 1006.00C400.42 1006.38 399.96 1006.93 399.98 1008.53C400.00 1010.13 400.39 1016.82 400.62 1016.66C400.84 1016.51 401.07 1009.47 401.50 1007.50C401.93 1005.53 403.20 1004.10 403.50 1003.50"/><path fill="none" stroke="#000000" stroke-width="2.0" stroke-linecap="round" stroke-linejoin="round" d="M416.50 1002.00C415.89 1002.26 413.31 1003.03 412.44 1003.72C411.57 1004.41 411.06 1005.70 410.70 1006.61C410.34 1007.51 410.01 1008.82 410.02 1009.75C410.02 1010.67 410.34 1012.05 410.76 1012.78C411.19 1013.51 412.10 1014.29 412.85 1014.61C413.60 1014.93 414.91 1015.11 415.76 1014.91C416.61 1014.71 417.86 1013.95 418.51 1013.27C419.15 1012.58 419.77 1011.29 420.08 1010.33C420.39 1009.38 420.70 1007.90 420.60 1006.90C420.49 1005.90 420.08 1004.42 419.39 1003.68C418.70 1002.95 416.51 1002.25 416.00 1002.00"/><path fill="none" stroke="#000000" stroke-width="2.0" stroke-linecap="round" stroke-linejoin="round" d="M431.50 1003.00C431.29 1002.70 430.47 1001.36 430.07 1001.00C429.68 1000.64 429.26 1000.49 428.86 1000.62C428.46 1000.76 427.75 1001.35 427.40 1001.89C427.04 1002.43 426.60 1003.44 426.46 1004.22C426.32 1005.01 426.25 1006.31 426.46 1007.15C426.66 1007.99 427.21 1009.22 427.82 1009.85C428.42 1010.48 429.59 1011.16 430.48 1011.37C431.37 1011.58 432.81 1011.52 433.73 1011.26C434.65 1011.00 435.92 1010.21 436.62 1009.62C437.31 1009.03 438.01 1008.01 438.34 1007.34C438.67 1006.66 438.80 1005.62 438.81 1005.13C438.81 1004.64 438.52 1003.43 438.38 1004.06C438.23 1004.70 437.76 1005.85 437.83 1009.34C437.91 1012.84 438.74 1021.36 438.88 1027.35C439.02 1033.35 438.98 1044.83 438.79 1049.31C438.60 1053.79 438.11 1055.34 437.60 1057.21C437.08 1059.08 436.14 1060.99 435.35 1061.79C434.56 1062.59 433.26 1062.81 432.33 1062.56C431.40 1062.30 430.15 1061.36 429.16 1060.07C428.16 1058.79 426.49 1056.37 425.72 1053.96C424.95 1051.55 424.11 1047.29 424.00 1044.00C423.89 1040.71 424.85 1033.80 425.00 1032.00"/><path fill="none" stroke="#000000" stroke-width="2.0" stroke-linecap="round" stroke-linejoin="round" d="M445.50 1006.50C446.00 1006.35 448.11 1005.82 448.84 1005.48C449.56 1005.14 449.96 1004.65 450.33 1004.23C450.69 1003.81 451.13 1003.20 451.26 1002.71C451.39 1002.22 451.35 1001.44 451.19 1000.97C451.03 1000.49 450.60 999.80 450.21 999.53C449.81 999.26 449.12 999.03 448.58 999.16C448.05 999.30 447.19 999.78 446.65 1000.42C446.10 1001.07 445.34 1002.39 444.94 1003.47C444.53 1004.55 444.07 1006.41 443.96 1007.61C443.84 1008.81 443.96 1010.41 444.17 1011.45C444.37 1012.50 444.76 1014.06 445.34 1014.55C445.93 1015.05 446.85 1015.39 448.07 1014.78C449.30 1014.17 452.69 1011.14 453.50 1010.50"/><path fill="none" stroke="#000000" stroke-width="2.0" stroke-linecap="round" stroke-linejoin="round" d="M461.00 1000.00C460.84 1000.15 460.18 1000.51 459.96 1001.00C459.75 1001.49 459.65 1002.23 459.58 1003.24C459.51 1004.25 459.42 1006.99 459.49 1007.74C459.54 1008.25 459.75 1008.65 460.08 1008.25C461.27 1006.77 466.26 999.35 467.44 997.92C467.84 997.44 467.94 998.05 468.00 998.66C468.08 999.50 468.00 1002.77 468.00 1003.50"/><path fill="none" stroke="#000000" stroke-width="2.0" stroke-linecap="round" stroke-linejoin="round" d="M490.50 978.50C490.49 978.20 490.31 975.19 490.46 976.51C490.78 979.21 492.21 993.45 492.62 996.52C492.68 997.01 492.95 997.42 493.17 996.99C493.81 995.76 496.04 989.89 496.85 988.34C497.61 986.90 498.11 986.85 498.61 986.65C499.11 986.45 499.80 986.57 500.16 987.01C500.52 987.45 500.93 988.65 501.00 989.59C501.08 990.53 500.92 992.17 500.66 993.29C500.41 994.41 499.86 996.04 499.30 997.06C498.74 998.07 497.72 999.32 496.94 1000.03C496.16 1000.75 494.94 1001.53 494.12 1001.82C493.31 1002.11 492.12 1002.09 491.50 1001.96C490.88 1001.84 490.23 1001.29 490.00 1001.00C489.77 1000.71 490.00 1000.15 490.00 1000.00"/><path fill="none" stroke="#000000" stroke-width="2.0" stroke-linecap="round" stroke-linejoin="round" d="M509.50 989.50C509.57 989.10 510.20 987.08 509.96 986.86C509.71 986.64 508.48 987.07 507.86 988.05C507.25 989.03 506.15 992.14 505.84 993.39C505.53 994.64 505.67 995.62 505.79 996.39C505.91 997.16 506.29 998.12 506.64 998.53C506.98 998.93 507.60 999.19 508.08 999.09C508.55 998.99 509.29 998.42 509.80 997.86C510.30 997.30 510.94 996.93 511.42 995.38C511.90 993.82 512.76 988.68 513.00 987.50"/><path fill="none" stroke="#000000" stroke-width="2.0" stroke-linecap="round" stroke-linejoin="round" d="M520.50 986.50C520.47 987.95 519.58 996.32 520.33 996.14C521.07 995.97 524.45 985.43 525.45 985.33C526.44 985.22 526.51 993.71 526.96 995.46C527.33 996.87 528.27 996.77 528.50 997.00"/><path fill="none" stroke="#000000" stroke-width="2.0" stroke-linecap="round" stroke-linejoin="round" d="M541.50 973.50C541.36 975.78 541.43 987.02 540.56 988.67C539.69 990.32 536.74 985.13 535.71 984.48C534.68 983.83 534.25 984.16 533.67 984.31C533.09 984.46 532.33 984.95 531.84 985.45C531.35 985.96 530.72 986.94 530.43 987.68C530.14 988.42 529.85 989.64 529.90 990.37C529.95 991.10 530.35 991.97 530.74 992.55C531.13 993.12 531.73 993.93 532.51 994.20C533.28 994.46 534.70 994.50 535.90 994.32C537.10 994.14 539.66 993.27 540.50 993.00C541.21 992.77 541.35 992.58 541.50 992.50"/><path fill="none" stroke="#000000" stroke-width="2.0" stroke-linecap="round" stroke-linejoin="round" d="M549.00 985.50C549.00 984.91 549.11 982.38 549.00 981.54C548.89 980.70 548.75 980.21 548.24 979.90C547.73 979.59 546.12 979.33 545.60 979.48C545.08 979.63 544.88 980.36 544.78 980.90C544.67 981.45 544.70 982.36 544.89 983.13C545.09 983.89 545.27 984.72 546.09 986.00C546.90 987.28 549.54 990.25 550.33 991.67C551.11 993.10 552.28 994.63 551.33 995.50C550.38 996.37 545.10 997.20 544.00 997.50"/><path fill="none" stroke="#000000" stroke-width="2.0" stroke-linecap="round" stroke-linejoin="round" d="M489.00 1059.50C488.90 1059.10 488.76 1057.42 488.33 1056.83C487.89 1056.23 486.96 1055.71 486.11 1055.54C485.26 1055.37 483.64 1055.47 482.64 1055.72C481.64 1055.97 480.31 1056.55 479.43 1057.22C478.56 1057.89 477.40 1059.18 476.82 1060.17C476.24 1061.16 475.67 1062.70 475.59 1063.83C475.52 1064.96 475.85 1066.72 476.30 1067.73C476.75 1068.74 477.76 1069.92 478.58 1070.55C479.39 1071.19 480.80 1071.79 481.73 1071.95C482.66 1072.12 484.00 1072.03 484.77 1071.66C485.54 1071.30 486.41 1070.30 486.88 1069.52C487.34 1068.73 487.94 1068.30 487.88 1066.42C487.82 1064.54 486.71 1058.41 486.50 1057.00"/><path fill="none" stroke="#000000" stroke-width="2.0" stroke-linecap="round" stroke-linejoin="round" d="M495.50 1055.00C495.60 1057.10 495.86 1067.85 496.14 1069.00C496.42 1070.15 496.96 1064.18 497.39 1062.68C497.82 1061.18 498.31 1060.08 499.00 1059.00C499.69 1057.92 501.55 1056.03 502.00 1055.50"/><path fill="none" stroke="#000000" stroke-width="2.0" stroke-linecap="round" stroke-linejoin="round" d="M402.50 1123.50C402.83 1122.64 404.44 1118.80 404.71 1117.78C404.91 1117.02 404.58 1116.89 404.28 1116.69C403.97 1116.50 403.26 1116.41 402.68 1116.46C402.10 1116.52 401.15 1116.69 400.41 1117.08C399.66 1117.46 398.41 1118.29 397.70 1119.01C396.99 1119.73 396.07 1120.93 395.66 1121.87C395.25 1122.81 394.94 1124.25 394.97 1125.27C395.00 1126.30 395.35 1127.74 395.84 1128.72C396.34 1129.70 397.04 1130.60 398.27 1131.81C399.50 1133.01 402.98 1135.68 404.06 1136.77C405.13 1137.85 405.33 1138.38 405.43 1139.04C405.53 1139.71 405.22 1140.55 404.72 1141.21C404.22 1141.86 403.67 1142.62 402.09 1143.41C400.51 1144.20 395.77 1145.92 394.18 1146.46C392.59 1147.00 391.98 1147.07 391.50 1147.00C391.02 1146.93 391.08 1146.15 391.00 1146.00"/><path fill="none" stroke="#000000" stroke-width="2.0" stroke-linecap="round" stroke-linejoin="round" d="M418.00 1129.00C418.13 1128.79 419.16 1127.71 418.88 1127.58C418.60 1127.46 417.31 1127.35 416.15 1128.17C414.99 1128.99 412.18 1131.78 411.17 1133.06C410.15 1134.34 409.68 1135.66 409.37 1136.71C409.05 1137.77 408.93 1139.27 409.07 1140.08C409.20 1140.90 409.68 1141.81 410.26 1142.14C410.84 1142.47 412.06 1142.54 412.92 1142.28C413.78 1142.01 415.14 1141.13 416.02 1140.35C416.90 1139.57 418.09 1138.11 418.78 1137.08C419.48 1136.04 420.35 1134.60 420.65 1133.43C420.95 1132.26 420.91 1129.81 420.76 1129.27C420.62 1128.72 420.03 1129.39 419.71 1129.78C419.39 1130.17 418.88 1131.15 418.63 1131.89C418.38 1132.63 418.09 1133.90 418.04 1134.72C417.99 1135.53 418.02 1136.69 418.29 1137.31C418.55 1137.92 419.18 1138.63 419.80 1138.83C420.42 1139.04 421.53 1138.96 422.42 1138.66C423.30 1138.36 424.65 1137.71 425.70 1136.86C426.76 1136.01 428.44 1134.40 429.46 1133.00C430.48 1131.60 431.89 1129.30 432.50 1127.50C433.11 1125.70 433.35 1121.97 433.50 1121.00"/><path fill="none" stroke="#000000" stroke-width="2.0" stroke-linecap="round" stroke-linejoin="round" d="M433.00 1113.50C432.87 1113.12 432.27 1109.25 432.16 1111.00C432.04 1112.91 432.00 1122.42 432.20 1126.25C432.40 1130.07 433.31 1135.04 433.50 1136.50C433.54 1136.83 433.50 1136.07 433.50 1136.00"/><path fill="none" stroke="#000000" stroke-width="2.0" stroke-linecap="round" stroke-linejoin="round" d="M441.00 1117.00C440.94 1116.64 440.64 1113.96 440.61 1114.57C440.58 1115.18 440.54 1118.44 440.82 1121.06C441.11 1123.67 442.25 1130.36 442.50 1132.00"/><path fill="none" stroke="#000000" stroke-width="2.0" stroke-linecap="round" stroke-linejoin="round" d="M436.50 1128.50C436.37 1128.19 435.42 1126.96 435.61 1126.43C435.80 1125.89 436.17 1125.63 437.79 1124.92C439.65 1124.10 446.47 1121.59 448.00 1121.00"/><path fill="none" stroke="#000000" stroke-width="2.0" stroke-linecap="round" stroke-linejoin="round" d="M478.50 1108.50C478.30 1107.95 477.43 1102.45 477.18 1104.83C476.94 1107.20 476.33 1122.67 476.88 1124.33C477.43 1126.00 479.89 1117.48 480.83 1115.93C481.77 1114.38 482.48 1114.34 483.16 1114.00C483.85 1113.65 484.80 1113.46 485.39 1113.61C485.98 1113.76 486.74 1114.37 487.12 1114.99C487.50 1115.61 487.87 1116.85 487.90 1117.72C487.93 1118.59 487.69 1119.89 487.33 1120.80C486.97 1121.70 486.18 1122.99 485.50 1123.77C484.83 1124.55 483.71 1125.49 482.85 1125.99C482.00 1126.49 480.59 1126.95 479.78 1127.10C478.98 1127.25 477.92 1127.24 477.50 1127.00C477.08 1126.76 476.92 1126.25 477.00 1125.50C477.08 1124.75 477.85 1122.53 478.00 1122.00"/><path fill="none" stroke="#000000" stroke-width="2.0" stroke-linecap="round" stroke-linejoin="round" d="M488.00 1115.00C488.43 1115.30 490.26 1116.18 490.84 1116.98C491.42 1117.78 491.77 1119.68 491.88 1120.36C491.98 1121.05 491.56 1121.85 491.53 1121.55C491.51 1121.25 491.39 1119.66 491.73 1118.38C492.06 1117.10 493.21 1114.12 493.76 1113.02C494.32 1111.92 494.87 1111.49 495.43 1111.04C495.99 1110.58 497.19 1110.16 497.50 1110.00"/><path fill="none" stroke="#000000" stroke-width="2.0" stroke-linecap="round" stroke-linejoin="round" d="M500.50 1113.50C500.48 1114.86 500.47 1121.34 500.39 1122.54C500.34 1123.27 500.06 1121.66 500.00 1121.50"/><path fill="none" stroke="#000000" stroke-width="2.0" stroke-linecap="round" stroke-linejoin="round" d="M500.00 1105.00C499.91 1104.86 499.43 1104.22 499.43 1104.07C499.43 1103.92 499.91 1104.01 500.00 1104.00"/><path fill="none" stroke="#000000" stroke-width="2.0" stroke-linecap="round" stroke-linejoin="round" d="M513.50 1100.00C513.64 1099.93 514.22 1099.36 514.46 1099.54C514.71 1099.71 514.82 1100.04 515.12 1101.17C515.52 1102.64 516.70 1107.14 517.10 1109.35C517.50 1111.57 517.77 1114.83 517.78 1115.90C517.79 1116.48 517.67 1116.87 517.20 1116.54C516.29 1115.92 512.97 1112.69 511.76 1111.80C510.55 1110.91 509.92 1110.81 509.13 1110.62C508.34 1110.43 507.23 1110.38 506.49 1110.55C505.75 1110.71 504.74 1111.24 504.18 1111.72C503.62 1112.20 503.01 1113.07 502.79 1113.75C502.57 1114.42 502.50 1115.51 502.72 1116.20C502.94 1116.89 503.62 1117.79 504.28 1118.34C504.93 1118.88 506.07 1119.60 507.10 1119.86C508.13 1120.11 509.81 1120.17 511.15 1120.04C512.48 1119.91 514.67 1119.46 516.00 1119.00C517.33 1118.54 519.40 1117.30 520.00 1117.00"/><path fill="none" stroke="#000000" stroke-width="2.0" stroke-linecap="round" stroke-linejoin="round" d="M531.00 1109.50C531.04 1109.04 531.45 1106.96 531.24 1106.43C531.04 1105.89 530.13 1105.88 529.60 1105.94C529.07 1106.00 528.28 1106.41 527.73 1106.82C527.18 1107.23 526.40 1107.97 525.92 1108.68C525.44 1109.38 524.79 1110.63 524.55 1111.54C524.31 1112.46 524.23 1113.89 524.32 1114.78C524.42 1115.66 524.74 1116.80 525.17 1117.43C525.60 1118.06 526.48 1118.78 527.17 1118.99C527.87 1119.19 529.02 1119.11 529.78 1118.78C530.54 1118.45 531.60 1117.53 532.24 1116.79C532.88 1116.05 533.73 1115.15 534.05 1113.83C534.37 1112.52 534.44 1109.00 534.37 1108.03C534.32 1107.34 533.78 1107.22 533.56 1107.38C533.34 1107.54 532.86 1107.88 532.93 1109.11C533.08 1112.02 534.29 1122.98 534.59 1126.78C534.90 1130.59 535.03 1132.20 534.97 1134.47C534.90 1136.74 534.58 1139.83 534.14 1141.91C533.69 1144.00 532.82 1146.71 531.99 1148.36C531.17 1150.00 529.67 1151.92 528.65 1152.88C527.62 1153.84 526.07 1154.71 525.17 1154.75C524.28 1154.79 523.19 1154.12 522.68 1153.15C522.16 1152.19 521.71 1150.10 521.75 1148.32C521.78 1146.54 522.27 1143.49 522.89 1141.27C523.51 1139.06 524.84 1135.69 525.85 1133.54C526.86 1131.39 528.45 1128.65 529.61 1126.92C530.77 1125.20 532.49 1123.21 533.60 1122.03C534.70 1120.86 535.38 1120.05 536.97 1119.08C538.56 1118.10 542.68 1116.71 544.19 1115.55C545.70 1114.39 546.44 1112.48 547.05 1111.34C547.66 1110.20 548.02 1108.90 548.25 1107.95C548.48 1106.99 548.62 1105.66 548.56 1104.96C548.50 1104.25 548.22 1103.50 547.84 1103.25C547.45 1103.01 546.89 1102.54 545.98 1103.32C545.06 1104.10 542.51 1107.17 541.72 1108.45C540.94 1109.74 540.86 1110.91 540.72 1111.88C540.59 1112.85 540.56 1114.15 540.82 1114.90C541.09 1115.65 541.80 1116.54 542.50 1116.85C543.20 1117.17 544.60 1117.13 545.50 1117.00C546.40 1116.87 548.05 1116.15 548.50 1116.00"/><path fill="none" stroke="#000000" stroke-width="2.0" stroke-linecap="round" stroke-linejoin="round" d="M557.00 1103.50C556.92 1103.35 557.09 1102.85 556.50 1102.50C555.91 1102.15 553.72 1100.98 553.08 1101.18C552.44 1101.38 552.09 1102.83 552.26 1103.83C552.43 1104.84 553.20 1106.45 554.22 1107.90C555.23 1109.36 558.25 1112.45 559.02 1113.52C559.63 1114.39 559.51 1114.63 559.34 1115.08C559.17 1115.53 558.54 1116.14 557.89 1116.50C557.24 1116.86 555.88 1117.35 555.00 1117.50C554.12 1117.65 552.45 1117.50 552.00 1117.50"/><path fill="none" stroke="#000000" stroke-width="2.0" stroke-linecap="round" stroke-linejoin="round" d="M565.50 1109.00C565.50 1109.00 565.50 1109.00 565.50 1109.00"/><path fill="none" stroke="#000000" stroke-width="2.0" stroke-linecap="round" stroke-linejoin="round" d="M303.50 1008.50C303.55 1008.10 303.08 1005.11 303.82 1005.86C304.55 1006.62 307.47 1012.08 308.41 1013.51C309.33 1014.92 309.62 1015.10 310.08 1015.40C310.55 1015.70 311.18 1016.08 311.53 1015.50C311.87 1014.93 312.32 1012.46 312.38 1011.57C312.44 1010.67 312.16 1009.98 311.91 1009.53C311.67 1009.09 311.17 1008.68 310.76 1008.61C310.36 1008.53 310.04 1008.34 309.20 1009.01C308.01 1009.97 303.76 1014.40 302.84 1015.00C301.91 1015.60 302.79 1013.56 303.01 1013.00C303.23 1012.44 303.87 1011.74 304.29 1011.27C304.71 1010.80 305.37 1010.17 305.83 1009.87C306.30 1009.57 307.01 1009.30 307.39 1009.27C307.77 1009.24 308.14 1009.02 308.35 1009.69C308.61 1010.47 308.83 1013.52 309.07 1014.46C309.32 1015.41 309.56 1015.69 310.00 1016.00C310.44 1016.31 311.70 1016.42 312.00 1016.50"/><path fill="none" stroke="#000000" stroke-width="2.0" stroke-linecap="round" stroke-linejoin="round" d="M316.00 1006.50C315.44 1005.49 313.34 1000.95 312.30 999.74C311.25 998.52 310.10 998.56 309.03 998.40C307.96 998.24 306.40 998.29 305.16 998.67C303.92 999.05 301.99 999.95 300.78 1000.94C299.57 1001.94 297.89 1003.81 297.10 1005.32C296.32 1006.84 295.67 1009.30 295.54 1011.04C295.42 1012.79 295.64 1015.38 296.26 1016.98C296.88 1018.59 298.42 1020.67 299.69 1021.75C300.97 1022.82 303.17 1023.77 304.75 1024.14C306.33 1024.52 308.70 1024.55 310.23 1024.25C311.77 1023.94 313.84 1023.01 314.98 1022.13C316.12 1021.25 317.30 1019.69 317.82 1018.37C318.35 1017.05 318.60 1014.98 318.45 1013.32C318.30 1011.66 317.55 1009.11 316.83 1007.31C316.11 1005.50 314.71 1002.93 313.63 1001.30C312.55 999.67 310.84 997.51 309.63 996.45C308.42 995.40 306.70 994.43 305.58 994.26C304.45 994.09 303.02 994.55 302.13 995.34C301.24 996.13 300.17 997.95 299.63 999.53C299.09 1001.11 298.58 1003.92 298.53 1005.88C298.47 1007.85 298.73 1010.82 299.25 1012.66C299.76 1014.50 300.89 1016.87 301.94 1018.15C302.98 1019.43 304.81 1020.62 306.21 1021.20C307.61 1021.77 309.77 1022.28 311.28 1021.97C312.79 1021.67 315.20 1020.04 316.28 1019.15C317.36 1018.25 318.17 1016.62 318.50 1016.00C318.81 1015.41 318.50 1015.15 318.50 1015.00"/><path fill="none" stroke="#000000" stroke-width="2.0" stroke-linecap="round" stroke-linejoin="round" d="M323.50 1137.50C323.61 1137.49 323.93 1137.04 324.24 1137.43C324.77 1138.08 326.31 1140.95 326.98 1141.85C327.66 1142.75 328.65 1143.68 328.73 1143.42C328.82 1143.17 327.96 1140.88 327.57 1140.17C327.17 1139.46 326.55 1138.91 326.10 1138.68C325.65 1138.44 325.01 1138.40 324.57 1138.62C324.13 1138.84 323.79 1138.91 323.17 1140.14C322.54 1141.40 320.64 1146.31 320.34 1147.04C320.05 1147.77 320.47 1145.54 321.22 1145.00C321.96 1144.46 324.35 1143.78 325.33 1143.45C326.30 1143.12 327.08 1143.05 327.71 1142.80C328.35 1142.55 329.18 1142.15 329.58 1141.77C329.98 1141.39 330.27 1140.75 330.37 1140.27C330.46 1139.79 330.56 1139.26 330.21 1138.59C329.86 1137.93 328.77 1136.31 328.04 1135.86C327.32 1135.40 326.02 1135.32 325.38 1135.56C324.74 1135.81 324.00 1136.89 323.76 1137.51C323.53 1138.12 322.80 1138.64 323.81 1139.66C324.92 1140.78 329.99 1144.54 331.14 1144.99C332.29 1145.44 331.48 1143.38 331.49 1142.65C331.51 1141.93 331.52 1141.54 331.22 1140.16C330.91 1138.78 330.06 1134.96 329.46 1133.46C328.85 1131.97 328.06 1130.99 327.18 1130.20C326.31 1129.41 324.85 1128.47 323.63 1128.18C322.41 1127.88 320.46 1127.80 319.06 1128.26C317.66 1128.71 315.47 1129.95 314.29 1131.20C313.11 1132.45 311.71 1134.77 311.19 1136.58C310.66 1138.39 310.47 1141.29 310.80 1143.25C311.13 1145.21 312.21 1148.05 313.37 1149.65C314.52 1151.26 316.85 1153.07 318.50 1153.92C320.14 1154.77 322.65 1155.30 324.34 1155.29C326.03 1155.29 328.31 1154.69 329.75 1153.87C331.19 1153.05 332.99 1151.32 333.93 1149.82C334.88 1148.32 335.70 1145.83 336.04 1143.87C336.38 1141.92 336.55 1138.85 336.20 1136.78C335.85 1134.71 334.82 1131.77 333.69 1130.07C332.57 1128.37 330.42 1126.34 328.71 1125.47C327.01 1124.61 324.30 1124.05 322.33 1124.32C320.36 1124.58 317.45 1125.93 315.60 1127.25C313.74 1128.57 311.17 1131.24 309.97 1133.14C308.76 1135.03 307.79 1138.19 307.57 1139.89C307.35 1141.60 307.91 1143.51 308.50 1144.50C309.09 1145.49 311.05 1146.20 311.50 1146.50"/><path fill="none" stroke="#d1000d" stroke-width="2.0" stroke-linecap="round" stroke-linejoin="round" d="M199.50 63.50C199.50 63.35 199.50 62.65 199.50 62.50"/><path fill="none" stroke="#d1000d" stroke-width="2.0" stroke-linecap="round" stroke-linejoin="round" d="M214.50 67.00C214.83 67.83 216.44 72.85 216.73 72.50C217.02 72.16 216.31 66.20 216.42 64.70C216.53 63.21 217.07 62.95 217.45 62.55C217.84 62.15 218.44 61.92 218.97 62.02C219.50 62.13 220.06 62.22 220.99 63.24C221.93 64.26 224.17 67.80 225.22 68.82C226.27 69.83 227.58 69.82 228.00 70.00"/><path fill="none" stroke="#d1000d" stroke-width="2.0" stroke-linecap="round" stroke-linejoin="round" d="M254.50 44.00C254.31 44.16 253.43 44.46 253.26 45.04C253.08 45.61 252.83 46.04 253.34 47.84C253.91 49.83 257.04 59.58 257.02 58.25C257.00 56.93 253.86 42.48 253.22 39.03C252.76 36.55 252.74 35.95 252.76 35.28C252.78 34.64 252.99 34.02 253.36 34.54C254.42 36.04 258.34 42.53 259.86 45.30C261.38 48.07 262.95 51.85 263.50 53.00"/><path fill="none" stroke="#d1000d" stroke-width="2.0" stroke-linecap="round" stroke-linejoin="round" d="M254.00 52.00C253.94 51.86 253.44 51.43 253.57 51.04C253.71 50.65 254.01 50.07 254.90 49.39C255.79 48.71 258.81 46.93 259.50 46.50"/><path fill="none" stroke="#004dc0" stroke-width="2.5" stroke-linecap="round" stroke-linejoin="round" d="M283.00 186.50C282.50 186.92 280.50 188.08 279.66 189.27C278.81 190.46 275.21 197.53 277.39 194.45C281.96 188.01 302.15 157.58 310.12 146.34C318.10 135.10 324.44 127.20 330.57 119.52C336.71 111.85 345.16 101.79 351.02 95.18C356.88 88.56 362.25 82.58 369.61 75.42C376.98 68.26 394.61 52.71 400.11 47.45C404.62 43.12 405.33 41.40 406.23 40.35C406.28 40.29 406.22 40.44 406.14 40.42C405.72 40.30 404.59 39.57 403.45 39.59C402.30 39.61 398.37 40.65 398.51 40.56C398.65 40.47 402.76 39.28 404.39 39.00C406.02 38.72 408.70 38.31 409.39 38.68C410.08 39.06 409.51 40.25 409.00 41.50C408.49 42.75 406.45 46.17 406.00 47.00"/><path fill="none" stroke="#004dc0" stroke-width="2.5" stroke-linecap="round" stroke-linejoin="round" d="M428.00 29.50C427.85 29.27 427.35 28.24 427.00 28.00C426.65 27.76 426.35 27.35 425.68 27.93C425.00 28.52 423.05 30.81 422.44 31.95C421.82 33.08 421.68 34.41 421.59 35.51C421.50 36.61 421.60 38.23 421.86 39.29C422.11 40.35 422.58 41.88 423.28 42.60C423.99 43.31 425.45 43.98 426.54 44.04C427.62 44.10 429.46 43.61 430.50 43.00C431.54 42.39 433.05 40.45 433.50 40.00"/><path fill="none" stroke="#004dc0" stroke-width="2.5" stroke-linecap="round" stroke-linejoin="round" d="M435.50 23.00C435.34 23.28 434.56 24.12 434.46 24.89C434.37 25.67 434.39 26.45 434.86 28.17C435.34 29.89 436.96 34.81 437.62 36.35C438.29 37.88 438.79 38.09 439.29 38.41C439.79 38.72 440.29 39.30 440.97 38.42C441.80 37.32 444.08 32.36 444.84 31.12C445.38 30.26 445.20 29.61 446.04 30.18C446.89 30.76 449.83 34.28 450.50 35.00"/><path fill="none" stroke="#004dc0" stroke-width="2.5" stroke-linecap="round" stroke-linejoin="round" d="M460.50 26.00C460.42 25.69 460.25 24.30 460.00 23.96C459.75 23.63 459.42 23.33 458.86 23.78C458.30 24.24 456.75 25.92 456.26 26.98C455.78 28.04 455.58 30.16 455.62 30.84C455.66 31.51 456.14 31.49 456.52 31.50C456.91 31.51 457.25 31.62 458.21 30.93C459.22 30.21 462.32 27.15 463.25 26.69C464.18 26.22 463.86 27.62 464.43 27.82C464.99 28.01 466.61 27.97 467.00 28.00"/><path fill="none" stroke="#004dc0" stroke-width="2.5" stroke-linecap="round" stroke-linejoin="round" d="M471.00 22.50C471.14 22.96 471.89 25.24 471.96 25.54C472.04 25.84 471.57 24.66 471.50 24.50"/><path fill="none" stroke="#004dc0" stroke-width="2.5" stroke-linecap="round" stroke-linejoin="round" d="M469.50 16.00C469.50 15.62 469.50 13.88 469.50 13.50"/><path fill="none" stroke="#004dc0" stroke-width="2.5" stroke-linecap="round" stroke-linejoin="round" d="M478.50 18.00C478.85 18.86 480.33 23.05 480.86 23.72C481.40 24.40 481.66 23.22 482.05 22.50C482.43 21.77 482.91 19.66 483.43 18.88C483.95 18.11 484.51 17.16 485.50 17.32C486.49 17.49 489.33 19.60 490.00 20.00"/><path fill="none" stroke="#004dc0" stroke-width="2.5" stroke-linecap="round" stroke-linejoin="round" d="M509.50 19.50C509.66 19.74 510.61 21.99 510.54 21.13C510.48 20.26 509.19 15.56 509.09 13.76C508.99 11.97 509.53 10.00 509.90 9.14C510.28 8.29 510.81 8.24 511.57 8.07C512.34 7.90 514.49 8.01 515.00 8.00"/><path fill="none" stroke="#004dc0" stroke-width="2.5" stroke-linecap="round" stroke-linejoin="round" d="M515.00 15.50C514.85 15.50 514.22 15.62 514.00 15.50C513.78 15.38 513.19 15.05 513.50 14.68C513.81 14.32 515.17 13.40 516.07 13.07C516.97 12.75 518.99 12.59 519.50 12.50"/><path fill="none" stroke="#004dc0" stroke-width="2.5" stroke-linecap="round" stroke-linejoin="round" d="M512.50 20.50C512.38 20.71 510.63 22.05 511.68 21.90C512.73 21.75 518.33 19.86 519.50 19.50"/>
</svg>