<?xml version="1.0" encoding="UTF-8"?>
<!DOCTYPE svg PUBLIC "-//W3C//DTD SVG 1.1//EN" "http://www.w3.org/Graphics/SVG/1.1/DTD/svg11.dtd">
<svg  xmlns="http://www.w3.org/2000/svg" xmlns:xlink="http://www.w3.org/1999/xlink" viewport-fill="none" viewBox="0.0, 0.0, 1094.8231190054523, 713.6051048267235" version="1.1" height="713.6051048267235" width="1094.8231190054523">
<path fill="none" stroke="#d1000d" stroke-width="2.0" stroke-linecap="round" stroke-linejoin="round" d="M775.50 711.00C775.42 711.08 774.85 711.89 775.00 711.50C775.15 711.11 775.33 709.69 776.50 708.40C777.67 707.11 780.00 704.92 782.83 702.91C785.66 700.91 791.14 697.41 795.34 695.03C799.53 692.65 805.78 689.32 810.77 687.05C815.77 684.79 823.18 681.86 828.63 679.93C834.09 678.01 841.70 675.70 847.11 674.22C852.52 672.74 857.66 671.27 864.70 670.05C871.74 668.83 887.98 666.72 894.03 666.08C900.09 665.44 902.11 665.72 905.07 665.78C908.02 665.83 909.89 665.81 913.73 666.44C917.57 667.07 927.33 669.57 930.67 669.96C934.01 670.34 935.05 669.29 936.00 669.00C936.90 668.72 936.85 668.15 937.00 668.00"/><path fill="none" stroke="#d1000d" stroke-width="2.0" stroke-linecap="round" stroke-linejoin="round" d="M936.00 662.50C935.68 662.26 933.39 660.45 933.90 660.88C934.41 661.31 938.34 664.38 939.38 665.35C940.42 666.31 940.69 666.65 940.82 667.31C940.95 667.96 940.63 668.96 940.23 669.72C939.82 670.47 939.92 671.00 938.11 672.34C935.53 674.26 925.27 680.98 923.00 682.50"/><path fill="none" stroke="#d1000d" stroke-width="2.0" stroke-linecap="round" stroke-linejoin="round" d="M961.50 655.00C961.35 655.00 960.70 654.60 960.50 655.00C960.30 655.40 960.09 655.88 960.15 657.68C960.25 661.13 960.63 675.97 961.17 677.98C961.72 680.00 963.17 672.56 963.81 671.12C964.44 669.67 964.94 668.93 965.41 668.37C965.89 667.81 966.51 667.37 966.95 667.39C967.40 667.41 967.97 667.91 968.38 668.50C968.79 669.08 969.26 669.77 969.68 671.26C970.11 672.74 970.72 677.15 971.22 678.39C971.72 679.63 972.73 679.33 973.00 679.50"/><path fill="none" stroke="#d1000d" stroke-width="2.0" stroke-linecap="round" stroke-linejoin="round" d="M974.50 670.50C974.44 670.37 974.13 669.02 974.11 669.65C974.09 670.35 974.16 674.10 974.34 675.20C974.51 676.30 974.95 676.64 975.27 677.00C975.59 677.36 976.08 677.62 976.45 677.60C976.82 677.59 977.38 677.29 977.74 676.89C978.09 676.49 978.45 675.88 978.80 674.93C979.15 673.98 979.62 670.57 980.05 670.56C980.48 670.55 981.22 674.05 981.66 674.88C982.10 675.71 982.57 675.90 983.00 676.07C983.43 676.24 984.12 676.31 984.50 676.00C984.88 675.69 985.35 674.30 985.50 674.00"/><path fill="none" stroke="#d1000d" stroke-width="2.0" stroke-linecap="round" stroke-linejoin="round" d="M986.00 667.00C986.07 668.06 986.10 674.27 986.45 674.06C986.80 673.85 987.87 666.97 988.34 665.59C988.65 664.68 989.22 664.84 989.58 664.86C989.95 664.87 990.32 664.83 990.80 665.68C991.32 666.63 992.11 671.47 993.07 671.14C994.03 670.82 996.42 664.79 997.20 663.52C997.66 662.76 997.73 661.95 998.23 662.68C998.79 663.49 1000.23 667.72 1000.88 668.94C1001.54 670.15 1001.84 670.55 1002.61 670.78C1003.38 671.02 1005.49 670.54 1006.00 670.50"/><path fill="none" stroke="#d1000d" stroke-width="2.0" stroke-linecap="round" stroke-linejoin="round" d="M1010.00 663.00C1009.98 662.51 1010.05 660.33 1009.89 659.72C1009.73 659.11 1009.28 658.95 1008.92 658.94C1008.55 658.93 1008.09 658.88 1007.45 659.65C1006.82 660.41 1005.13 662.69 1004.68 664.03C1004.24 665.37 1004.31 667.83 1004.47 668.58C1004.63 669.33 1005.30 669.13 1005.76 669.04C1006.22 668.95 1007.00 668.46 1007.55 667.99C1008.09 667.51 1008.78 666.92 1009.39 665.87C1010.00 664.81 1011.06 661.21 1011.62 660.94C1012.17 660.67 1012.69 663.50 1013.07 664.06C1013.44 664.61 1013.78 664.60 1014.10 664.63C1014.42 664.65 1014.92 664.48 1015.19 664.21C1015.46 663.94 1015.72 663.71 1015.93 662.82C1016.13 661.93 1016.43 658.07 1016.55 658.28C1016.68 658.50 1016.15 664.50 1016.76 664.24C1017.37 663.97 1019.65 656.92 1020.62 656.49C1021.59 656.07 1022.55 660.46 1023.22 661.39C1023.89 662.32 1024.46 662.46 1025.08 662.68C1025.70 662.90 1026.64 663.05 1027.36 662.86C1028.08 662.67 1029.34 662.04 1029.89 661.39C1030.44 660.74 1030.83 659.38 1031.00 658.50C1031.17 657.62 1031.00 655.95 1031.00 655.50"/><path fill="none" stroke="#d1000d" stroke-width="2.0" stroke-linecap="round" stroke-linejoin="round" d="M1031.00 643.00C1030.99 642.66 1030.56 639.26 1030.96 640.71C1031.37 642.15 1032.80 649.43 1033.72 652.63C1034.63 655.83 1036.73 661.01 1037.07 662.04C1037.42 663.07 1036.16 659.88 1036.00 659.50"/><path fill="none" stroke="#d1000d" stroke-width="2.0" stroke-linecap="round" stroke-linejoin="round" d="M1031.50 650.50C1031.50 650.41 1031.17 650.12 1031.50 649.89C1032.14 649.45 1034.54 648.56 1035.74 647.53C1036.95 646.51 1038.73 642.74 1039.52 643.05C1040.32 643.36 1040.63 648.11 1041.04 649.59C1041.46 651.07 1041.84 652.07 1042.29 652.91C1042.75 653.75 1043.51 654.77 1044.09 655.19C1044.66 655.61 1045.52 655.75 1046.14 655.71C1046.75 655.66 1047.47 655.49 1048.18 654.91C1048.89 654.33 1050.38 652.59 1050.88 651.85C1051.39 651.10 1051.42 650.26 1051.53 649.93C1051.59 649.77 1051.51 649.52 1051.60 649.68C1051.91 650.19 1053.21 652.82 1053.65 653.39C1053.99 653.85 1054.37 653.48 1054.50 653.50"/><path fill="none" stroke="#d1000d" stroke-width="2.0" stroke-linecap="round" stroke-linejoin="round" d="M1053.00 643.00C1053.01 642.59 1052.62 640.73 1053.07 640.28C1053.52 639.83 1055.56 640.04 1056.00 640.00"/><path fill="none" stroke="#d1000d" stroke-width="2.0" stroke-linecap="round" stroke-linejoin="round" d="M1060.00 641.00C1060.65 642.75 1063.82 651.67 1064.35 652.70C1064.87 653.73 1063.41 648.85 1063.47 647.86C1063.53 646.86 1063.81 646.39 1064.73 646.06C1065.64 645.73 1068.67 645.66 1069.57 645.66C1070.37 645.66 1070.22 645.62 1070.70 646.04C1071.19 646.46 1072.30 648.10 1072.80 648.44C1073.31 648.78 1073.59 648.53 1074.07 648.32C1074.55 648.10 1075.56 647.42 1076.00 647.00C1076.44 646.58 1076.85 645.72 1077.00 645.50"/><path fill="none" stroke="#d1000d" stroke-width="2.0" stroke-linecap="round" stroke-linejoin="round" d="M1081.00 638.50C1080.89 637.84 1080.63 634.83 1080.28 634.07C1079.93 633.31 1079.13 633.29 1078.66 633.42C1078.19 633.56 1077.52 634.34 1077.14 634.94C1076.77 635.54 1076.34 636.55 1076.16 637.44C1075.97 638.33 1075.83 639.87 1075.93 640.86C1076.03 641.85 1076.45 643.29 1076.84 644.04C1077.23 644.79 1077.96 645.57 1078.50 645.86C1079.04 646.14 1079.91 646.19 1080.45 645.96C1080.99 645.72 1081.71 645.40 1082.10 644.28C1082.49 643.16 1081.83 636.69 1083.05 638.49C1084.27 640.29 1088.82 652.22 1090.24 656.29C1091.67 660.36 1092.20 663.04 1092.54 665.62C1092.89 668.21 1092.94 671.53 1092.55 673.51C1092.15 675.50 1090.97 677.78 1089.91 678.84C1088.84 679.89 1086.79 680.67 1085.46 680.53C1084.14 680.39 1082.12 679.37 1081.06 677.90C1080.01 676.44 1078.59 673.88 1078.43 670.74C1078.27 667.61 1078.56 662.29 1080.00 657.00C1081.44 651.71 1086.80 638.72 1088.00 635.50"/>
</svg>