<?xml version="1.0" encoding="UTF-8"?>
<!DOCTYPE svg PUBLIC "-//W3C//DTD SVG 1.1//EN" "http://www.w3.org/Graphics/SVG/1.1/DTD/svg11.dtd">
<svg  xmlns="http://www.w3.org/2000/svg" xmlns:xlink="http://www.w3.org/1999/xlink" viewport-fill="none" viewBox="0.0, 0.0, 326.32890422356, 373.9303370099294" version="1.1" height="373.9303370099294" width="326.32890422356">
<path fill="none" stroke="#d1000d" stroke-width="2.0" stroke-linecap="round" stroke-linejoin="round" d="M243.77 311.59C243.32 311.68 241.99 311.57 240.73 312.24C239.47 312.91 236.83 314.81 235.37 316.05C233.91 317.29 232.18 318.98 231.00 320.52C229.82 322.05 228.33 324.41 227.53 326.29C226.73 328.16 226.06 330.53 225.66 333.03C225.26 335.53 224.95 340.47 224.86 342.95C224.76 345.44 224.76 347.58 225.04 349.59C225.32 351.59 226.21 354.86 226.72 356.33C227.22 357.80 227.43 358.20 228.41 359.39C229.39 360.58 231.59 363.03 233.24 364.24C234.88 365.45 236.79 366.44 239.40 367.44C242.00 368.44 247.74 370.23 250.62 370.90C253.49 371.58 256.06 371.94 258.56 371.93C261.07 371.92 264.46 371.40 267.31 370.81C270.15 370.21 272.85 369.60 277.54 367.97C282.23 366.34 294.10 361.89 298.56 359.97C303.01 358.05 305.37 356.37 307.25 355.17C309.14 353.98 309.19 354.06 311.11 351.99C313.04 349.92 318.23 343.81 320.08 341.36C321.92 338.90 322.80 336.91 323.42 335.64C324.05 334.38 324.17 334.19 324.24 332.94C324.31 331.69 324.53 329.04 323.87 327.31C323.22 325.58 321.00 322.75 319.90 321.40C318.79 320.05 317.66 319.17 316.52 318.31C315.37 317.45 314.55 316.68 312.25 315.68C309.95 314.68 305.97 312.96 301.18 311.65C296.39 310.34 285.96 307.84 280.31 306.92C274.66 306.00 267.36 305.61 263.50 305.50C259.65 305.39 258.14 305.66 254.61 306.17C251.07 306.68 242.79 307.97 239.92 308.89C237.04 309.80 236.26 311.51 235.43 312.28C234.60 313.05 234.54 313.76 234.39 314.02"/><path fill="none" stroke="#d1000d" stroke-width="2.0" stroke-linecap="round" stroke-linejoin="round" d="M150.23 276.81C150.08 276.66 148.43 275.30 149.24 275.79C154.16 278.81 171.98 290.59 183.03 296.90C194.08 303.21 216.93 314.70 222.91 317.85"/><path fill="none" stroke="#d1000d" stroke-width="2.0" stroke-linecap="round" stroke-linejoin="round" d="M146.06 275.07C146.48 275.38 147.26 275.44 148.86 277.09C150.49 278.76 157.37 286.87 156.88 286.22C156.38 285.57 146.95 274.61 145.57 272.75C144.64 271.50 147.03 273.53 147.66 273.82C148.29 274.11 148.66 274.36 149.78 274.67C150.90 274.99 153.75 275.76 155.14 275.92C156.54 276.09 158.42 275.90 159.10 275.77C159.72 275.65 159.75 275.46 159.72 275.05C159.69 274.63 159.04 273.29 158.92 272.99"/><path fill="none" stroke="#d1000d" stroke-width="2.0" stroke-linecap="round" stroke-linejoin="round" d="M93.20 264.29C93.04 264.40 91.55 264.41 92.15 264.99C94.10 266.83 104.64 275.62 106.16 276.57C107.68 277.53 103.10 272.76 102.28 271.33C101.46 269.90 100.83 267.76 100.70 267.05C100.60 266.47 101.04 266.53 101.43 266.57C101.82 266.60 102.10 266.70 103.29 267.29C104.49 267.89 108.36 270.10 109.40 270.54C109.94 270.76 110.09 270.48 110.21 270.22C110.34 269.96 110.23 269.08 110.24 268.81C110.24 268.58 110.24 268.52 110.24 268.46"/><path fill="none" stroke="#d1000d" stroke-width="2.0" stroke-linecap="round" stroke-linejoin="round" d="M106.76 262.55C107.21 262.98 109.00 264.89 109.78 265.42C110.57 265.95 111.73 266.36 112.00 266.07C112.27 265.77 111.94 264.34 111.56 263.47C111.17 262.61 109.00 260.33 109.45 260.31C109.91 260.28 113.70 262.93 114.59 263.30C115.17 263.54 115.33 263.17 115.35 262.75C115.38 262.32 114.85 260.81 114.76 260.47"/><path fill="none" stroke="#d1000d" stroke-width="2.0" stroke-linecap="round" stroke-linejoin="round" d="M109.89 255.95C110.95 256.63 116.66 260.87 116.95 260.52C117.24 260.17 112.60 254.76 111.82 253.62C111.55 253.22 111.63 252.96 111.78 252.90C111.94 252.85 112.20 252.88 112.85 253.25C113.52 253.63 116.26 256.07 116.25 255.42C116.25 254.76 113.29 250.02 112.81 248.88C112.53 248.22 112.86 248.03 113.08 247.84C113.31 247.64 113.54 247.36 114.31 247.59C115.08 247.81 117.49 249.13 118.24 249.34C118.94 249.54 119.12 249.04 119.28 248.99"/><path fill="none" stroke="#d1000d" stroke-width="2.0" stroke-linecap="round" stroke-linejoin="round" d="M117.89 240.99C117.51 241.05 115.75 241.11 115.37 241.40C114.99 241.68 115.11 242.02 115.37 242.87C115.63 243.73 116.44 246.11 117.12 247.10C117.79 248.10 119.35 249.25 119.88 249.50C120.41 249.74 120.55 249.16 120.65 248.71C120.76 248.26 120.88 247.70 120.58 246.51C120.27 245.32 118.77 241.45 118.64 240.77C118.51 240.09 119.15 241.62 119.73 241.96C120.30 242.31 121.90 243.07 122.49 243.07C123.08 243.08 123.45 242.51 123.65 241.98C123.84 241.46 123.88 240.27 123.80 239.60C123.72 238.93 123.21 237.83 123.10 237.51"/><path fill="none" stroke="#d1000d" stroke-width="2.0" stroke-linecap="round" stroke-linejoin="round" d="M119.28 234.73C119.18 234.68 118.28 234.05 118.63 234.39C119.30 235.02 123.28 239.13 123.73 238.95C124.18 238.78 121.94 234.27 121.64 233.19C121.39 232.26 121.57 232.05 121.78 231.75C122.00 231.45 122.13 231.23 123.07 231.17C124.26 231.10 128.61 231.45 129.71 231.26C130.73 231.07 130.30 230.07 130.41 229.86"/><path fill="none" stroke="#d1000d" stroke-width="2.0" stroke-linecap="round" stroke-linejoin="round" d="M140.14 242.73C139.82 242.62 137.50 241.54 138.01 241.98C138.52 242.43 142.20 244.58 143.55 245.69C144.89 246.80 147.59 249.72 146.99 249.39C146.38 249.07 141.17 245.16 139.53 243.54C137.88 241.93 136.43 239.49 136.03 238.65C135.71 237.98 136.36 237.98 136.84 237.91C137.33 237.84 137.69 237.75 139.24 238.18C141.24 238.75 148.58 241.16 150.23 241.69C150.23 241.69 150.23 241.69 150.23 241.69"/><path fill="none" stroke="#d1000d" stroke-width="2.0" stroke-linecap="round" stroke-linejoin="round" d="M144.32 244.82C144.32 243.88 144.32 239.50 144.32 238.56"/><path fill="none" stroke="#d1000d" stroke-width="2.0" stroke-linecap="round" stroke-linejoin="round" d="M144.32 227.43C143.99 227.49 142.43 227.35 142.16 227.83C141.89 228.32 141.89 229.60 142.49 230.68C143.09 231.75 145.26 234.18 146.15 235.01C147.04 235.84 147.74 235.95 148.44 236.21C149.13 236.47 150.19 236.85 150.77 236.77C151.35 236.70 151.93 236.42 152.32 235.70C152.70 234.98 153.20 232.51 153.36 231.95"/><path fill="none" stroke="#d1000d" stroke-width="2.0" stroke-linecap="round" stroke-linejoin="round" d="M148.14 222.56C148.29 222.78 148.31 223.36 149.13 224.02C149.95 224.68 154.42 227.35 153.62 226.96C152.81 226.57 145.32 222.51 143.74 221.44C142.79 220.79 143.15 220.30 143.12 219.83C143.09 219.35 142.89 219.08 143.54 218.29C144.19 217.50 146.86 215.12 147.45 214.56"/><path fill="none" stroke="#d1000d" stroke-width="2.0" stroke-linecap="round" stroke-linejoin="round" d="M149.53 223.26C149.53 223.52 149.14 226.07 149.51 225.02C149.87 223.98 151.60 217.61 151.97 216.30"/><path fill="none" stroke="#d1000d" stroke-width="2.0" stroke-linecap="round" stroke-linejoin="round" d="M153.36 223.95C153.52 224.47 153.93 228.03 154.40 227.40C154.87 226.78 156.18 220.92 156.49 219.78"/><path fill="none" stroke="#d1000d" stroke-width="2.0" stroke-linecap="round" stroke-linejoin="round" d="M153.36 211.78C153.04 211.76 151.69 211.82 151.24 211.67C150.80 211.52 150.61 211.35 150.39 210.76C150.17 210.17 149.75 208.39 149.78 207.73C149.81 207.08 150.22 206.62 150.59 206.39C150.95 206.15 151.65 206.03 152.21 206.17C152.77 206.31 153.66 206.80 154.32 207.33C154.97 207.86 155.86 208.47 156.60 209.72C157.33 210.98 158.73 215.42 159.20 215.68C159.68 215.95 159.29 213.08 159.77 211.50C160.25 209.93 162.01 206.12 162.40 205.17"/><path fill="none" stroke="#d1000d" stroke-width="2.0" stroke-linecap="round" stroke-linejoin="round" d="M172.83 189.53C172.94 189.89 173.42 191.59 173.53 191.96"/>
</svg>