<?xml version="1.0" encoding="UTF-8"?>
<!DOCTYPE svg PUBLIC "-//W3C//DTD SVG 1.1//EN" "http://www.w3.org/Graphics/SVG/1.1/DTD/svg11.dtd">
<svg  xmlns="http://www.w3.org/2000/svg" xmlns:xlink="http://www.w3.org/1999/xlink" viewport-fill="none" viewBox="0.0, 0.0, 361.29983944666685, 121.0" version="1.1" height="121.0" width="361.29983944666685">
<path fill="none" stroke="#d1000d" stroke-width="2.0" stroke-linecap="round" stroke-linejoin="round" d="M307.00 119.00C306.80 118.87 305.82 118.47 305.65 118.15C305.48 117.82 305.51 117.22 305.86 116.82C306.22 116.42 306.41 116.03 307.99 115.49C313.27 113.67 333.42 107.57 341.09 104.74C348.75 101.91 356.57 97.92 359.11 96.61C359.86 96.22 358.17 96.09 358.00 96.00"/><path fill="none" stroke="#d1000d" stroke-width="2.0" stroke-linecap="round" stroke-linejoin="round" d="M352.00 95.00C351.77 95.00 350.10 95.02 350.48 94.98C350.85 94.94 353.53 94.58 354.50 94.74C355.47 94.90 356.36 95.40 356.96 96.04C357.56 96.68 358.27 97.96 358.50 99.00C358.73 100.04 358.50 102.40 358.50 103.00"/>
</svg>