<?xml version="1.0" encoding="UTF-8"?>
<!DOCTYPE svg PUBLIC "-//W3C//DTD SVG 1.1//EN" "http://www.w3.org/Graphics/SVG/1.1/DTD/svg11.dtd">
<svg  xmlns="http://www.w3.org/2000/svg" xmlns:xlink="http://www.w3.org/1999/xlink" viewport-fill="none" viewBox="0.0, 0.0, 984.6458129882812, 150.14855364231718" version="1.1" height="150.14855364231718" width="984.6458129882812">
<path fill="none" stroke="#79eb70" stroke-opacity="0.5" stroke-width="16.0" stroke-linecap="round" stroke-linejoin="round" d="M36.00 126.50C35.51 126.60 33.73 126.78 32.70 127.18C31.67 127.58 28.40 128.87 29.13 129.16C29.86 129.44 31.95 129.47 37.55 129.07C48.13 128.32 85.38 125.03 99.69 124.17C114.00 123.32 126.53 123.55 132.94 123.38C139.27 123.22 136.11 123.25 142.44 123.09C149.73 122.90 170.11 121.93 181.59 122.15C193.06 122.36 209.15 124.07 218.96 124.52C228.76 124.97 239.29 124.85 246.93 125.15C254.56 125.44 265.74 126.22 269.85 126.51C272.85 126.72 271.35 126.64 274.33 127.08C277.37 127.54 288.18 129.35 290.13 129.56C292.08 129.78 288.93 128.80 287.32 128.50C285.71 128.20 282.96 127.70 279.41 127.55C275.87 127.40 272.98 126.86 263.67 127.47C254.35 128.09 226.01 130.87 217.30 131.65C209.53 132.35 213.44 132.39 205.64 132.71C196.58 133.08 169.92 134.25 156.92 134.14C143.92 134.03 131.75 132.26 118.95 131.99C106.15 131.73 79.69 132.33 71.61 132.39C67.27 132.43 69.44 132.52 65.10 132.40C57.47 132.18 28.60 131.06 20.78 130.93C15.58 130.84 14.17 131.41 13.00 131.50"/><path fill="none" stroke="#ffd873" stroke-opacity="0.5" stroke-width="20.0" stroke-linecap="round" stroke-linejoin="round" d="M28.17 110.55C27.92 110.49 25.34 110.07 26.49 110.14C32.51 110.53 54.78 112.66 68.31 113.15C81.83 113.65 108.34 113.37 116.64 113.46C121.33 113.51 118.98 113.57 123.66 113.74C136.06 114.17 183.59 115.92 199.31 116.34C215.03 116.76 221.25 116.60 228.46 116.53C235.68 116.46 243.57 116.05 247.40 115.88C251.23 115.71 249.60 115.70 253.99 115.39C259.60 115.01 275.33 114.30 284.77 113.30C294.20 112.30 307.91 109.71 316.90 108.72C325.89 107.73 339.99 107.00 344.68 106.71C347.02 106.57 345.86 106.73 348.20 106.80C351.27 106.90 357.30 107.35 365.17 107.36C373.05 107.37 393.89 106.72 400.70 106.85C407.32 106.98 408.65 108.02 410.53 108.27C412.32 108.50 411.42 108.47 413.23 108.51C417.73 108.63 423.76 108.27 440.53 109.05C457.29 109.83 511.01 113.00 524.98 113.73C530.74 114.03 527.86 113.88 533.63 113.93C542.33 114.00 568.92 114.61 582.95 114.20C596.97 113.80 614.54 111.96 627.13 111.24C639.71 110.53 659.65 109.78 666.87 109.45C672.50 109.20 669.69 109.38 675.31 109.07C682.32 108.68 703.91 107.27 713.60 106.85C723.28 106.43 723.14 106.01 739.89 106.25C756.64 106.49 811.57 108.07 825.25 108.44C829.14 108.54 827.19 108.49 831.08 108.66C841.17 109.08 878.56 110.55 892.50 111.26C906.45 111.96 917.82 113.05 924.04 113.35C930.26 113.65 931.82 113.42 933.95 113.24C936.08 113.06 937.61 112.33 938.26 112.16"/><path fill="none" stroke="#d1000d" stroke-width="2.0" stroke-linecap="round" stroke-linejoin="round" d="M603.50 101.00C601.88 100.83 594.83 99.97 592.68 99.89C590.52 99.82 590.51 99.95 589.13 100.52C587.75 101.09 584.85 102.39 583.46 103.67C582.07 104.95 580.55 107.78 579.87 109.03C579.18 110.28 579.05 111.14 578.90 112.01C578.75 112.88 578.72 114.05 578.84 114.83C578.96 115.61 579.22 116.57 579.68 117.19C580.14 117.81 581.04 118.50 581.89 118.96C582.74 119.43 583.17 119.92 585.34 120.29C587.51 120.67 593.68 121.34 596.36 121.45C599.03 121.56 600.29 121.59 603.17 121.03C606.05 120.48 613.11 118.58 615.57 117.74C618.02 116.90 618.66 116.16 619.51 115.42C620.36 114.68 620.99 113.64 621.24 112.81C621.49 111.98 621.37 110.86 621.17 109.90C620.96 108.94 620.99 108.06 619.86 106.39C618.72 104.73 615.22 100.36 613.62 98.80C612.01 97.24 610.73 96.50 609.14 96.00C607.54 95.50 604.52 95.35 603.00 95.50C601.48 95.65 599.60 96.78 599.00 97.00"/><path fill="none" stroke="#ffd873" stroke-opacity="0.5" stroke-width="20.0" stroke-linecap="round" stroke-linejoin="round" d="M223.11 98.16C224.74 98.11 226.74 98.34 233.95 97.80C248.78 96.68 307.53 91.84 321.98 90.69C327.49 90.26 326.86 90.21 330.26 90.15C333.66 90.09 337.06 89.83 344.67 90.28C352.28 90.74 367.36 92.75 381.00 93.20C394.64 93.66 426.46 93.30 435.61 93.32C439.88 93.32 437.75 93.30 442.02 93.32C460.39 93.40 539.87 93.77 558.09 93.85C561.66 93.87 559.87 93.86 563.44 93.85C570.44 93.85 595.51 93.99 604.77 93.83C614.03 93.67 619.35 92.96 625.18 92.80C631.00 92.63 640.26 92.74 643.59 92.74C646.08 92.73 644.83 92.69 647.33 92.76C656.27 93.02 691.24 94.20 703.20 94.45C715.16 94.69 722.97 94.40 727.07 94.39C729.37 94.39 728.22 94.38 730.52 94.39C741.44 94.48 788.62 94.87 799.88 94.95C803.68 94.97 801.79 95.11 805.58 94.91C811.66 94.59 824.70 93.44 840.43 92.80C856.16 92.16 898.78 90.98 910.44 90.62C915.56 90.47 913.00 90.49 918.12 90.44C926.25 90.36 957.67 90.14 964.65 90.08"/><path fill="none" stroke="#004dc0" stroke-width="2.5" stroke-linecap="round" stroke-linejoin="round" d="M408.50 103.00C408.06 102.81 406.28 101.93 405.57 101.75C404.87 101.56 404.44 101.59 403.80 101.76C403.16 101.94 402.71 102.02 401.32 102.92C399.94 103.81 395.96 106.33 394.55 107.72C393.14 109.10 392.34 111.02 391.95 112.16C391.55 113.29 391.70 114.42 391.93 115.30C392.16 116.17 392.42 117.06 393.49 117.99C394.56 118.93 397.47 120.79 399.06 121.52C400.66 122.26 402.92 122.64 404.11 122.87C405.31 123.09 405.08 122.90 407.01 123.01C411.50 123.26 426.34 124.36 434.05 124.55C441.76 124.75 454.35 124.32 458.41 124.30C460.20 124.30 459.30 124.43 461.10 124.44C463.30 124.45 469.88 124.58 473.12 124.38C476.36 124.18 480.55 123.62 482.69 123.11C484.83 122.60 486.57 121.82 487.39 120.96C488.21 120.10 488.06 118.18 488.17 117.37C488.27 116.55 488.16 116.38 488.10 115.51C488.04 114.63 488.16 112.85 487.77 111.51C487.38 110.16 486.32 107.67 485.49 106.56C484.67 105.44 483.54 104.72 482.29 104.06C481.04 103.39 479.63 102.62 477.19 102.11C474.75 101.61 473.52 101.10 466.02 100.68C458.45 100.26 433.76 99.54 426.75 99.30C421.79 99.14 423.99 99.15 419.30 99.12C414.61 99.09 400.53 98.94 395.46 99.07C390.39 99.20 386.99 99.86 385.50 100.00"/><path fill="none" stroke="#004dc0" stroke-width="2.5" stroke-linecap="round" stroke-linejoin="round" d="M733.00 103.50C732.46 103.15 730.60 101.59 729.38 101.16C728.17 100.73 726.29 100.61 724.90 100.65C723.51 100.69 721.66 100.99 720.11 101.43C718.56 101.87 715.76 102.93 714.56 103.56C713.37 104.18 712.70 104.83 712.12 105.60C711.55 106.37 710.96 107.48 710.72 108.70C710.48 109.93 710.34 112.60 710.54 113.80C710.75 114.99 711.66 116.05 712.08 116.69C712.51 117.32 712.69 117.47 713.37 118.03C714.04 118.59 715.50 119.90 716.58 120.42C717.65 120.93 719.18 121.41 720.56 121.47C721.94 121.53 723.84 121.25 725.78 120.83C727.73 120.40 732.15 119.07 733.53 118.63C734.56 118.30 734.61 118.35 734.97 117.87C735.32 117.38 735.87 116.45 735.88 115.42C735.88 114.39 735.36 111.96 735.00 111.00C734.64 110.04 733.72 109.30 733.50 109.00"/><path fill="none" stroke="#d1000d" stroke-width="2.0" stroke-linecap="round" stroke-linejoin="round" d="M846.00 102.50C845.87 102.35 845.95 101.83 845.13 101.51C844.30 101.19 842.71 100.51 840.46 100.35C838.20 100.20 833.45 100.09 830.12 100.47C826.80 100.84 820.71 102.23 818.28 102.85C815.84 103.48 815.23 103.84 813.89 104.64C812.55 105.44 810.19 107.23 809.35 108.20C808.50 109.16 808.37 110.21 808.26 111.07C808.16 111.93 807.96 112.98 808.65 113.95C809.34 114.91 811.54 116.68 812.86 117.48C814.17 118.28 815.76 118.82 817.40 119.28C819.05 119.74 821.68 120.27 823.82 120.53C825.95 120.80 829.18 121.07 831.66 121.04C834.13 121.02 836.68 121.10 840.30 120.38C843.91 119.66 852.70 117.25 855.76 116.23C858.82 115.20 859.61 114.38 860.69 113.55C861.76 112.73 862.67 111.60 862.94 110.73C863.21 109.85 862.94 108.65 862.49 107.73C862.04 106.80 860.93 105.65 859.94 104.57C858.95 103.50 857.31 101.71 855.89 100.57C854.47 99.44 852.13 97.76 850.50 97.00C848.87 96.24 845.83 95.72 845.00 95.50"/>
</svg>