<?xml version="1.0" encoding="UTF-8"?>
<!DOCTYPE svg PUBLIC "-//W3C//DTD SVG 1.1//EN" "http://www.w3.org/Graphics/SVG/1.1/DTD/svg11.dtd">
<svg  xmlns="http://www.w3.org/2000/svg" xmlns:xlink="http://www.w3.org/1999/xlink" viewport-fill="none" viewBox="0.0, 0.0, 635.8680991255534, 566.5987485553329" version="1.1" height="566.5987485553329" width="635.8680991255534">
<path fill="none" stroke="#d1000d" stroke-width="2.0" stroke-linecap="round" stroke-linejoin="round" d="M121.86 526.54C121.65 526.34 121.72 525.56 120.51 525.19C117.27 524.20 104.60 520.21 100.30 519.94C96.00 519.67 93.86 521.97 91.83 523.39C89.80 524.82 87.89 527.37 86.76 529.42C85.63 531.47 84.22 534.51 84.29 537.04C84.36 539.58 86.11 543.72 87.23 546.33C88.35 548.95 90.08 552.27 91.74 554.50C93.40 556.72 96.05 559.68 98.29 561.17C100.54 562.65 104.04 564.00 106.71 564.40C109.39 564.81 113.41 564.57 116.15 563.86C118.90 563.14 122.57 561.30 125.03 559.64C127.49 557.99 130.86 555.06 132.54 552.82C134.21 550.58 135.68 547.25 136.20 544.72C136.73 542.19 136.77 538.54 136.03 535.95C135.29 533.36 133.18 529.82 131.28 527.45C129.37 525.08 125.90 522.06 123.34 520.14C120.78 518.22 117.20 515.39 114.22 514.66C111.23 513.94 105.85 514.26 103.42 515.30C100.99 516.34 98.83 520.65 98.02 521.60"/><path fill="none" stroke="#d1000d" stroke-width="2.0" stroke-linecap="round" stroke-linejoin="round" d="M309.36 291.82C309.87 291.43 310.19 290.44 312.78 289.20C315.84 287.73 324.92 283.25 329.82 282.04C334.71 280.82 340.50 281.20 345.40 281.13C350.29 281.05 357.30 281.17 362.44 281.55C367.59 281.92 374.78 282.82 379.70 283.63C384.61 284.43 390.43 286.17 395.20 286.91C399.96 287.65 406.65 288.30 411.45 288.56C416.25 288.83 422.61 288.84 427.18 288.67C431.76 288.50 437.78 287.91 441.93 287.41C446.09 286.91 451.25 286.17 454.90 285.33C458.55 284.49 462.22 283.73 466.29 281.80C470.36 279.87 479.67 273.89 482.03 272.49"/><path fill="none" stroke="#d1000d" stroke-width="2.0" stroke-linecap="round" stroke-linejoin="round" d="M474.38 270.69C473.94 270.57 471.83 270.12 471.41 269.92C471.05 269.75 471.16 269.43 471.54 269.34C473.24 268.96 480.69 267.66 482.69 267.39C484.14 267.20 484.43 267.40 484.88 267.56C485.33 267.72 485.98 267.70 485.69 268.45C484.93 270.48 480.66 279.15 479.78 281.03"/><path fill="none" stroke="#d1000d" stroke-width="2.0" stroke-linecap="round" stroke-linejoin="round" d="M499.11 243.26C500.13 244.85 505.39 253.72 505.87 253.83C506.34 253.95 502.91 246.07 502.26 244.02C501.61 241.97 501.57 241.11 501.51 240.16C501.45 239.20 501.50 238.10 501.85 237.67C502.20 237.24 503.12 237.09 503.84 237.26C504.57 237.43 505.36 237.60 506.70 238.78C508.04 239.97 512.16 245.89 512.79 245.15C513.43 244.40 511.14 235.84 510.93 233.81C510.78 232.33 511.16 231.99 511.43 231.63C511.69 231.27 512.23 231.19 512.69 231.40C513.15 231.62 513.92 232.37 514.51 233.05C515.10 233.72 516.00 235.06 516.65 235.90C517.30 236.75 518.26 238.07 518.86 238.70C519.47 239.33 520.22 239.90 520.70 240.11C521.17 240.33 521.84 240.11 522.04 240.11"/><path fill="none" stroke="#d1000d" stroke-width="2.0" stroke-linecap="round" stroke-linejoin="round" d="M526.54 225.72C525.66 225.79 521.08 225.04 520.70 226.17C520.31 227.31 523.09 232.19 523.96 233.27C524.82 234.35 525.78 233.55 526.44 233.38C527.10 233.21 528.12 232.87 528.38 232.14C528.63 231.41 528.69 229.79 528.14 228.49C527.60 227.19 525.25 224.23 524.74 223.48"/><path fill="none" stroke="#d1000d" stroke-width="2.0" stroke-linecap="round" stroke-linejoin="round" d="M529.69 218.53C530.30 218.94 533.54 221.93 533.74 221.23C533.93 220.53 531.31 215.30 530.97 213.88C530.64 212.48 531.41 212.10 531.49 211.79"/><path fill="none" stroke="#d1000d" stroke-width="2.0" stroke-linecap="round" stroke-linejoin="round" d="M538.23 213.58C538.91 213.04 542.20 210.69 542.73 209.99C543.26 209.28 542.38 208.62 541.78 208.90C541.17 209.18 539.23 210.81 538.70 211.83C538.18 212.84 538.21 214.76 538.26 215.67C538.32 216.58 538.49 217.40 539.04 217.88C539.60 218.36 540.85 219.22 541.98 218.86C543.11 218.51 545.25 216.84 546.58 215.51C547.91 214.18 549.92 211.42 550.82 209.99C551.73 208.55 552.35 206.55 552.62 205.94"/><path fill="none" stroke="#d1000d" stroke-width="2.0" stroke-linecap="round" stroke-linejoin="round" d="M581.85 180.31C581.85 180.11 582.35 179.40 581.85 178.96C581.34 178.52 579.20 177.38 578.49 177.40C577.78 177.42 577.29 178.57 577.10 179.11C576.91 179.64 577.03 180.45 577.22 180.97C577.41 181.48 577.78 182.10 578.38 182.52C578.98 182.93 579.89 183.41 581.24 183.72C582.59 184.03 586.24 184.30 587.38 184.58C588.51 184.86 588.59 185.23 588.81 185.59C589.04 185.94 589.57 186.34 588.89 186.95C587.98 187.78 583.94 190.48 582.75 191.10C581.69 191.66 581.22 191.10 580.95 191.10"/><path fill="none" stroke="#d1000d" stroke-width="2.0" stroke-linecap="round" stroke-linejoin="round" d="M585.00 161.87C584.93 161.81 584.36 161.04 584.55 161.42C585.41 163.22 589.71 171.19 590.76 173.83C591.81 176.48 591.66 178.22 591.56 179.05C591.47 179.88 591.01 179.82 590.13 179.38C589.05 178.84 584.94 176.54 584.36 175.45C583.77 174.37 584.86 173.54 586.24 172.17C587.62 170.81 592.44 167.24 593.54 166.37"/><path fill="none" stroke="#d1000d" stroke-width="2.0" stroke-linecap="round" stroke-linejoin="round" d="M598.04 163.67C597.56 164.41 595.16 167.63 594.89 168.62C594.62 169.60 595.48 170.05 596.23 170.24C596.98 170.42 599.12 170.65 599.88 169.85C600.64 169.04 601.14 165.81 601.30 164.86C601.45 163.94 601.09 163.71 600.93 163.51C600.77 163.31 600.03 163.14 600.24 163.55C600.54 164.11 602.10 166.56 602.90 167.27C603.70 167.98 604.80 168.27 605.57 168.29C606.35 168.31 607.49 167.99 608.06 167.39C608.63 166.78 609.22 165.43 609.38 164.22C609.54 163.02 609.41 160.93 609.11 159.37C608.81 157.82 608.37 156.09 607.36 153.84C606.35 151.59 602.69 145.15 602.36 144.37C602.03 143.60 604.37 147.41 605.15 148.65C605.94 149.90 606.44 150.80 607.60 152.65C608.76 154.50 612.15 159.79 612.87 160.98C613.10 161.34 612.49 160.59 612.42 160.53"/><path fill="none" stroke="#d1000d" stroke-width="2.0" stroke-linecap="round" stroke-linejoin="round" d="M605.68 157.38C606.35 156.23 609.03 151.35 610.18 149.73C611.32 148.12 612.85 147.06 613.32 146.59"/><path fill="none" stroke="#d1000d" stroke-width="2.0" stroke-linecap="round" stroke-linejoin="round" d="M617.37 151.53C617.03 151.33 615.40 149.93 615.12 150.18C614.85 150.44 615.22 152.59 615.54 153.22C615.86 153.86 616.63 154.25 617.24 154.44C617.86 154.63 618.69 155.07 619.66 154.50C620.62 153.93 623.06 151.21 623.67 150.63"/><path fill="none" stroke="#d1000d" stroke-width="2.0" stroke-linecap="round" stroke-linejoin="round" d="M625.91 136.24C625.31 136.18 622.36 135.56 621.87 135.79C621.37 136.03 621.49 136.91 622.60 137.81C624.37 139.25 632.68 143.34 633.72 145.40C634.75 147.46 630.14 150.61 629.51 151.53"/>
</svg>