<?xml version="1.0" encoding="UTF-8"?>
<!DOCTYPE svg PUBLIC "-//W3C//DTD SVG 1.1//EN" "http://www.w3.org/Graphics/SVG/1.1/DTD/svg11.dtd">
<svg  xmlns="http://www.w3.org/2000/svg" xmlns:xlink="http://www.w3.org/1999/xlink" viewport-fill="none" viewBox="0.0, 0.0, 935.0762939453125, 558.3798865793898" version="1.1" height="558.3798865793898" width="935.0762939453125">
<path fill="none" stroke="#ffd873" stroke-opacity="0.5" stroke-width="20.0" stroke-linecap="round" stroke-linejoin="round" d="M447.85 299.02C447.37 300.41 445.14 307.57 444.62 308.30C444.11 309.02 444.31 305.14 444.41 303.85C444.50 302.55 444.85 301.01 445.23 299.67C445.62 298.32 446.40 295.94 446.97 294.88C447.53 293.81 448.32 292.88 448.99 292.55C449.65 292.23 450.70 292.31 451.38 292.71C452.07 293.11 452.56 293.25 453.56 295.23C454.67 297.46 458.92 305.85 458.83 307.60C458.74 309.34 454.51 306.88 452.98 306.86C451.44 306.85 450.00 307.26 448.62 307.50C447.25 307.74 444.93 308.18 443.81 308.46C442.68 308.74 441.51 309.23 441.11 309.36"/><path fill="none" stroke="#d1000d" stroke-width="2.0" stroke-linecap="round" stroke-linejoin="round" d="M448.30 296.77C447.91 298.78 445.98 309.58 445.66 310.19C445.34 310.80 445.92 302.95 446.17 300.84C446.41 298.74 447.02 296.90 447.29 296.15C447.45 295.70 447.74 295.47 447.97 295.90C448.74 297.37 451.37 304.02 452.41 305.93C453.45 307.85 454.79 308.22 454.89 308.67C454.99 309.12 453.63 308.86 453.08 308.95C452.54 309.03 452.42 309.15 451.23 309.21C450.04 309.28 446.07 309.34 445.15 309.36"/><path fill="none" stroke="#d1000d" stroke-width="2.0" stroke-linecap="round" stroke-linejoin="round" d="M456.85 298.12C456.87 298.47 456.66 299.39 456.98 300.46C457.29 301.52 459.02 305.69 458.94 305.21C458.87 304.73 456.92 299.14 456.48 297.28C456.04 295.42 455.87 293.62 456.01 292.82C456.15 292.01 456.30 292.08 457.39 291.90C459.07 291.62 465.72 291.07 467.19 290.92"/><path fill="none" stroke="#d1000d" stroke-width="2.0" stroke-linecap="round" stroke-linejoin="round" d="M458.64 300.82C459.66 300.34 464.38 298.14 465.39 297.67"/><path fill="none" stroke="#d1000d" stroke-width="2.0" stroke-linecap="round" stroke-linejoin="round" d="M480.23 299.47C481.24 299.20 485.96 297.94 486.97 297.67"/><path fill="none" stroke="#d1000d" stroke-width="2.0" stroke-linecap="round" stroke-linejoin="round" d="M481.13 303.51C482.41 303.11 488.39 301.22 489.67 300.82"/><path fill="none" stroke="#d1000d" stroke-width="2.0" stroke-linecap="round" stroke-linejoin="round" d="M522.94 281.48C522.75 283.44 521.62 294.98 521.63 294.51C521.64 294.04 522.67 281.27 523.01 278.32C523.27 275.96 523.08 274.24 523.87 274.86C524.66 275.48 526.74 280.33 528.27 282.45C529.80 284.57 533.15 287.86 534.07 288.99C534.53 289.55 534.54 289.74 534.46 290.00C534.37 290.26 533.99 290.51 533.49 290.73C533.00 290.96 532.76 291.15 531.16 291.50C528.57 292.06 518.44 294.07 516.20 294.52"/><path fill="none" stroke="#d1000d" stroke-width="2.0" stroke-linecap="round" stroke-linejoin="round" d="M535.08 275.19C535.44 276.48 536.77 282.06 537.43 283.80C538.10 285.53 538.81 286.27 539.53 286.75C540.24 287.23 541.42 287.23 542.19 287.02C542.96 286.82 544.04 286.14 544.64 285.37C545.25 284.60 545.94 283.01 546.22 281.87C546.51 280.73 546.62 278.92 546.52 277.78C546.42 276.64 545.99 275.18 545.56 274.27C545.13 273.36 544.16 272.19 543.67 271.72C543.18 271.25 542.49 271.23 542.28 271.14"/><path fill="none" stroke="#d1000d" stroke-width="2.0" stroke-linecap="round" stroke-linejoin="round" d="M559.37 275.64C561.12 274.76 569.30 270.67 571.06 269.79"/><path fill="none" stroke="#d1000d" stroke-width="2.0" stroke-linecap="round" stroke-linejoin="round" d="M585.00 258.55C585.06 258.48 585.24 257.73 585.45 258.10C586.39 259.79 590.41 268.04 591.29 269.79"/><path fill="none" stroke="#d1000d" stroke-width="2.0" stroke-linecap="round" stroke-linejoin="round" d="M577.80 260.35C577.82 259.96 576.48 258.69 577.93 257.76C579.82 256.54 588.52 253.08 590.39 252.25"/><path fill="none" stroke="#d1000d" stroke-width="2.0" stroke-linecap="round" stroke-linejoin="round" d="M600.73 250.91C600.97 252.62 602.45 262.18 602.33 262.32C602.21 262.46 600.34 253.89 599.93 251.82C599.53 249.75 599.58 249.21 599.63 248.51C599.69 247.80 599.94 247.23 600.30 247.12C600.67 247.00 601.19 246.84 602.08 247.72C603.89 249.50 610.44 257.01 612.37 258.96C613.80 260.43 615.09 260.50 614.88 260.74C614.67 260.97 612.02 260.49 610.98 260.53C609.95 260.57 608.82 260.84 607.96 261.02C607.10 261.19 605.64 261.60 605.23 261.70"/><path fill="none" stroke="#d1000d" stroke-width="2.0" stroke-linecap="round" stroke-linejoin="round" d="M619.17 243.71C619.30 243.04 620.26 239.86 620.07 239.21C619.88 238.57 618.60 239.18 617.92 239.40C617.24 239.62 616.48 239.70 615.56 240.67C614.64 241.63 612.42 244.69 611.79 245.83C611.16 246.97 611.28 247.60 611.35 248.25C611.42 248.89 611.78 249.68 612.26 250.13C612.73 250.58 612.86 250.97 614.53 251.24C616.35 251.55 622.63 251.92 624.38 252.16C625.67 252.33 625.92 252.55 626.22 252.82C626.52 253.09 626.53 253.56 626.36 253.96C626.19 254.36 626.22 254.82 625.06 255.49C623.18 256.59 615.47 260.38 613.77 261.25"/><path fill="none" stroke="#79eb70" stroke-opacity="0.5" stroke-width="16.0" stroke-linecap="round" stroke-linejoin="round" d="M425.82 297.67C433.61 294.28 466.90 279.67 477.76 275.05C488.61 270.44 484.48 272.12 498.17 266.89C515.99 260.09 578.46 236.19 596.58 229.67C611.18 224.42 615.34 224.34 618.99 223.42C620.27 223.10 619.82 222.89 620.97 223.53C622.71 224.50 628.59 228.68 630.60 229.86C632.61 231.04 633.32 230.92 634.37 231.38C635.41 231.83 636.78 232.38 637.55 232.90C638.32 233.41 639.09 234.16 639.48 234.81C639.87 235.47 640.20 236.02 640.15 237.27C640.11 238.52 639.59 241.84 639.16 243.13C638.73 244.41 638.11 245.04 637.32 245.84C636.53 246.64 636.44 247.20 633.89 248.46C631.33 249.72 629.53 250.85 620.28 254.24C607.56 258.91 564.67 273.68 549.08 279.55C533.48 285.43 527.73 288.38 516.32 293.41C504.92 298.43 480.97 309.53 473.04 313.02C466.81 315.76 466.89 315.63 463.49 316.65C460.09 317.66 453.88 319.17 450.36 319.77C446.85 320.38 442.11 320.62 440.03 320.67C437.95 320.71 437.32 320.39 436.48 320.09C435.65 319.80 434.95 319.42 434.46 318.71C433.98 317.99 433.16 316.21 433.24 315.32C433.32 314.43 433.90 313.70 435.00 312.76C436.09 311.82 438.09 310.37 440.55 309.07C443.00 307.77 447.27 305.76 451.36 304.08C455.45 302.39 456.71 301.61 467.82 297.85C483.40 292.57 535.41 275.88 555.16 268.94C574.91 262.01 591.55 254.76 599.50 251.61C605.34 249.30 606.03 248.93 608.18 247.97C610.33 247.01 612.59 245.92 613.84 245.22C615.10 244.51 616.14 243.69 616.55 243.24C616.96 242.79 617.23 242.29 616.55 242.21C615.25 242.07 611.79 241.74 607.84 242.25C603.89 242.77 598.82 243.21 590.21 245.63C581.59 248.05 562.56 254.03 550.39 258.36C538.23 262.70 522.59 268.67 509.12 274.55C495.65 280.43 468.75 293.76 460.62 297.59C456.86 299.37 458.01 298.80 454.92 300.11C451.82 301.43 443.59 305.05 439.97 306.39C436.36 307.72 432.87 308.59 430.82 309.01C428.76 309.43 427.01 309.52 426.28 309.19C425.55 308.85 426.20 307.26 425.94 306.78C425.69 306.29 424.75 305.87 424.57 305.93C424.40 306.00 424.41 306.43 424.78 307.21C425.61 308.96 428.82 315.43 430.14 317.58C431.45 319.73 432.39 320.51 433.56 321.54C434.73 322.57 436.46 323.89 437.96 324.43C439.47 324.97 441.57 325.27 443.59 325.14C445.60 325.01 448.61 324.41 451.39 323.54C454.16 322.67 455.07 322.45 462.07 319.36C470.97 315.42 489.15 306.49 510.75 297.33C532.35 288.17 591.17 264.47 606.07 258.30C608.85 257.15 607.48 257.75 610.07 256.20C612.83 254.54 621.94 249.05 624.49 247.26C626.67 245.72 626.73 244.88 627.07 244.20C627.41 243.52 627.07 243.14 626.74 242.72C626.41 242.30 626.28 241.99 624.87 241.40C623.21 240.70 617.42 238.63 615.67 238.07C614.08 237.55 614.01 237.60 613.20 237.61C612.38 237.62 612.01 237.19 610.26 238.12C604.74 241.04 583.67 253.03 576.41 257.09C569.15 261.16 570.87 260.39 561.88 265.23C552.88 270.06 526.97 283.86 516.43 289.31C505.89 294.77 498.96 298.11 491.61 301.60C484.26 305.09 468.95 311.36 467.41 312.59C465.87 313.83 475.06 311.49 481.31 309.83C487.56 308.18 492.75 307.08 509.05 301.57C525.36 296.06 576.19 277.99 590.02 273.08C597.58 270.39 597.19 270.49 601.28 268.83C605.37 267.17 612.27 264.38 617.27 262.00C622.27 259.62 631.43 254.75 634.60 252.97C637.39 251.40 637.72 250.77 638.45 250.11C639.17 249.45 639.48 249.62 639.45 248.56C639.42 247.50 639.73 244.12 638.25 243.02C636.77 241.93 632.53 241.27 629.59 241.26C626.65 241.25 622.87 241.84 618.68 242.95C614.48 244.06 604.86 247.46 601.63 248.66C598.49 249.82 597.81 250.57 597.14 250.91"/><path fill="none" stroke="#d1000d" stroke-width="2.0" stroke-linecap="round" stroke-linejoin="round" d="M542.28 549.02C542.29 548.92 542.04 548.00 542.34 548.32C542.64 548.64 543.67 550.62 544.28 551.16C544.89 551.70 545.58 551.80 546.44 551.92C547.29 552.03 547.64 552.24 549.98 551.92C553.49 551.44 564.71 549.38 569.87 548.74C575.04 548.09 580.98 547.51 584.42 547.60C587.86 547.70 591.28 548.92 592.82 549.39C594.29 549.83 594.34 550.32 594.70 550.71C595.07 551.11 595.18 551.67 595.27 552.02C595.35 552.36 595.45 552.71 595.26 553.00C595.07 553.29 594.23 553.82 593.97 553.94C593.71 554.07 593.46 554.04 593.53 553.84C593.59 553.64 593.98 552.93 594.40 552.61C594.82 552.30 595.51 551.99 596.31 551.76C597.11 551.54 597.42 551.35 599.73 551.12C604.26 550.67 620.88 549.53 626.50 548.75C632.13 547.97 635.90 546.23 637.23 545.93C638.56 545.63 635.64 546.65 635.36 546.78"/><path fill="none" stroke="#ffd873" stroke-opacity="0.5" stroke-width="20.0" stroke-linecap="round" stroke-linejoin="round" d="M549.47 522.04C555.45 518.75 587.95 500.39 589.30 500.07C590.65 499.76 564.47 516.03 558.46 519.95C552.46 523.87 551.04 524.86 549.25 526.19C547.46 527.52 546.22 528.65 546.50 528.83C546.78 529.01 548.60 528.46 551.11 527.39C553.63 526.32 555.27 525.70 563.27 521.68C571.87 517.36 600.98 502.19 608.43 498.56C611.22 497.20 612.94 496.95 612.96 497.48C612.99 498.00 611.91 499.45 608.60 502.08C603.91 505.80 587.71 517.79 581.71 522.27C575.71 526.74 571.60 529.63 568.61 531.94C565.63 534.25 562.68 536.72 561.82 537.67C561.28 538.26 562.16 538.58 562.88 538.24C564.36 537.54 566.00 536.78 571.69 533.00C579.61 527.74 607.99 508.24 615.70 503.14C620.43 500.02 622.10 499.33 623.13 499.01C624.16 498.68 623.49 499.96 622.58 500.98C618.66 505.35 601.41 523.11 597.02 528.13C593.79 531.82 593.40 533.38 593.28 534.46C593.16 535.53 594.54 535.81 596.23 535.31C597.91 534.81 599.30 534.46 604.51 531.11C610.07 527.54 628.75 514.45 633.30 511.49C634.19 510.92 635.16 510.74 634.89 511.38C634.62 512.02 632.92 514.03 631.52 515.77C630.12 517.50 627.20 520.81 625.55 522.95C623.90 525.09 621.51 528.33 620.52 530.06C619.53 531.79 618.77 533.72 618.96 534.48C619.15 535.24 620.44 535.41 621.77 535.11C623.11 534.81 625.14 533.99 627.84 532.47C630.54 530.95 637.88 526.20 639.76 524.96C640.30 524.61 640.95 523.93 640.38 524.23C638.73 525.09 628.69 530.91 628.74 530.72C628.80 530.53 638.95 524.11 640.75 522.94"/><path fill="none" stroke="#98c2ff" stroke-opacity="0.5" stroke-width="20.0" stroke-linecap="round" stroke-linejoin="round" d="M664.58 522.04C664.45 522.04 663.28 522.49 663.68 522.04C665.05 520.55 670.23 515.16 673.70 512.10C677.16 509.04 689.95 498.98 686.77 501.63C683.58 504.29 657.43 525.57 652.49 529.80C651.81 530.38 653.05 530.27 653.83 529.84C659.17 526.82 681.45 513.51 688.12 509.69C694.77 505.88 696.17 505.28 698.30 504.35C700.43 503.42 702.21 503.01 702.34 503.49C702.46 503.97 701.67 505.21 699.16 507.54C694.42 511.95 675.61 528.34 670.73 532.85C667.67 535.67 666.87 536.84 666.62 537.56C666.37 538.28 667.58 538.34 669.05 537.66C670.81 536.84 672.29 536.05 678.32 532.13C687.53 526.16 727.80 498.87 730.47 497.85C733.13 496.83 702.25 520.16 696.07 525.35C691.05 529.56 690.25 531.00 689.25 532.43C688.30 533.77 688.15 535.01 689.34 534.89C690.54 534.77 693.97 533.30 697.20 531.62C700.43 529.95 703.09 528.58 710.87 523.71C718.64 518.85 744.61 502.02 749.05 499.17C753.49 496.32 743.55 502.57 740.44 504.72C737.33 506.87 731.81 510.91 728.31 513.51C724.81 516.11 719.72 519.88 717.11 522.06C714.49 524.24 711.58 527.03 710.88 528.05C710.22 529.02 711.34 529.26 712.44 528.85C714.04 528.26 715.67 527.62 721.56 524.12C729.51 519.41 762.57 498.41 765.44 497.42C768.32 496.44 745.72 513.22 740.75 517.55C735.79 521.87 734.03 524.15 732.34 526.28C730.66 528.42 729.34 530.92 729.54 531.78C729.73 532.65 731.51 532.77 733.65 532.03C735.79 531.29 740.26 528.94 743.79 526.84C747.33 524.75 751.38 522.11 757.21 518.09C763.05 514.08 779.43 502.27 782.68 500.06C785.46 498.16 781.38 501.12 778.85 503.33C775.70 506.10 765.11 515.28 761.67 518.50C758.23 521.72 756.80 523.51 755.93 524.81C755.06 526.09 754.93 527.19 755.84 527.14C756.76 527.08 759.54 525.84 762.04 524.45C764.53 523.07 767.34 521.49 772.47 517.90C777.61 514.30 795.89 500.17 796.26 500.49C796.64 500.80 779.29 515.75 774.96 519.98C770.63 524.21 768.67 526.86 767.39 528.69C766.11 530.52 765.78 531.95 766.41 532.18C767.03 532.42 768.47 532.24 771.54 530.25C775.56 527.64 790.15 516.81 793.22 514.80C794.54 513.94 792.95 515.66 792.05 516.84C791.14 518.02 788.78 520.77 787.21 522.67C785.64 524.57 782.63 527.94 781.57 529.50C780.52 531.06 780.02 532.53 780.15 533.06C780.27 533.59 781.12 533.79 782.41 533.01C783.77 532.19 787.08 529.45 789.24 527.60C791.39 525.76 794.77 522.81 796.78 520.70C798.79 518.58 801.75 514.58 802.63 513.50"/><path fill="none" stroke="#004dc0" stroke-width="2.5" stroke-linecap="round" stroke-linejoin="round" d="M704.60 501.81C704.54 501.88 703.97 502.64 704.15 502.26C705.55 499.32 710.89 487.74 713.91 482.23C716.92 476.72 720.53 471.12 724.27 465.52C728.01 459.93 735.87 448.93 738.86 444.90C741.84 440.87 744.64 438.94 744.15 438.68C743.66 438.42 736.22 443.03 735.59 443.17C734.96 443.30 739.01 440.23 739.97 439.59C740.94 438.96 741.46 438.97 742.01 438.93C742.57 438.90 743.30 439.05 743.69 439.34C744.08 439.64 744.46 439.82 744.60 440.89C744.74 441.97 744.62 445.66 744.62 446.50"/><path fill="none" stroke="#004dc0" stroke-width="2.5" stroke-linecap="round" stroke-linejoin="round" d="M749.57 419.52C750.35 420.74 753.75 426.23 754.75 427.64C755.51 428.72 755.86 428.78 756.23 428.95C756.60 429.12 757.03 429.43 757.21 428.79C757.40 428.11 757.91 426.43 757.49 424.46C757.08 422.50 754.80 417.01 754.43 415.68C754.33 415.32 754.90 415.64 754.99 415.62C755.04 415.60 754.92 415.54 754.98 415.53C755.18 415.51 756.11 415.49 756.31 415.48"/><path fill="none" stroke="#004dc0" stroke-width="2.5" stroke-linecap="round" stroke-linejoin="round" d="M750.47 418.18C750.37 418.16 749.84 418.23 749.80 418.08C749.75 417.93 749.75 417.68 750.16 417.19C750.64 416.61 752.38 414.77 752.96 414.24C753.55 413.70 753.78 413.56 754.08 413.61C754.38 413.66 754.83 414.43 754.96 414.58"/><path fill="none" stroke="#004dc0" stroke-width="2.5" stroke-linecap="round" stroke-linejoin="round" d="M754.96 414.13C755.06 414.38 754.81 415.08 755.61 415.83C756.41 416.57 758.88 418.47 760.27 419.09C761.66 419.71 763.97 419.98 764.86 419.97C765.75 419.97 766.00 419.21 766.21 419.07"/><path fill="none" stroke="#004dc0" stroke-width="2.5" stroke-linecap="round" stroke-linejoin="round" d="M760.81 405.59C760.61 405.65 759.20 405.48 759.46 406.03C759.72 406.59 761.77 408.53 762.54 409.29C763.30 410.05 763.78 410.67 764.58 411.12C765.38 411.58 767.33 412.61 767.84 412.31C768.36 412.02 768.46 410.78 768.01 409.16C767.56 407.54 765.33 402.95 764.86 401.54C764.48 400.40 764.86 400.01 764.86 399.74"/><path fill="none" stroke="#004dc0" stroke-width="2.5" stroke-linecap="round" stroke-linejoin="round" d="M771.60 397.04C771.33 396.97 770.01 396.26 769.80 396.59C769.60 396.93 769.71 398.38 770.23 399.26C770.74 400.14 772.48 402.16 773.24 402.45C773.99 402.75 774.81 401.66 775.28 401.23C775.76 400.80 776.27 400.23 776.41 399.59C776.55 398.95 776.44 397.78 776.24 396.96C776.03 396.14 775.34 394.65 775.03 394.13C774.73 393.61 773.74 392.92 774.17 393.50C775.63 395.45 782.73 404.19 784.75 407.18C786.77 410.16 787.17 411.47 787.65 413.38C788.13 415.30 788.17 418.00 787.93 419.92C787.70 421.84 787.05 424.46 786.06 426.18C785.06 427.90 783.26 429.81 781.30 431.38C779.33 432.94 774.20 435.83 772.95 436.61"/><path fill="none" stroke="#004dc0" stroke-width="2.5" stroke-linecap="round" stroke-linejoin="round" d="M799.03 374.56C799.10 374.22 798.98 373.46 799.48 372.31C799.98 371.16 802.00 368.26 802.34 366.90C802.68 365.53 802.04 363.74 801.75 363.22C801.45 362.70 800.82 363.11 800.38 363.44C799.93 363.77 799.21 364.62 798.78 365.43C798.36 366.23 797.78 367.72 797.53 368.80C797.29 369.89 797.11 371.59 797.14 372.66C797.17 373.74 797.39 375.22 797.74 375.99C798.08 376.75 798.82 377.51 799.41 377.75C800.01 377.99 800.98 377.87 801.70 377.58C802.43 377.30 803.57 376.55 804.24 375.85C804.92 375.16 805.79 374.09 806.22 372.95C806.66 371.81 806.99 368.97 807.12 368.26"/><path fill="none" stroke="#004dc0" stroke-width="2.5" stroke-linecap="round" stroke-linejoin="round" d="M806.22 360.17C806.70 361.52 808.73 369.49 809.37 369.16C810.02 368.84 810.19 360.15 810.53 357.99C810.87 355.82 811.18 355.05 811.64 354.71C812.10 354.37 813.10 355.09 813.60 355.73C814.10 356.37 814.54 358.27 814.97 358.98C815.41 359.68 816.04 360.28 816.51 360.44C816.98 360.61 817.65 360.47 818.11 360.11C818.58 359.74 819.26 359.36 819.64 357.98C820.01 356.61 820.59 352.43 820.62 350.95C820.65 349.48 820.19 348.76 819.85 348.15C819.50 347.55 818.80 347.01 818.34 346.92C817.87 346.84 817.15 347.17 816.72 347.62C816.28 348.06 815.66 349.11 815.41 349.91C815.17 350.71 814.97 352.09 815.06 352.96C815.14 353.84 815.55 355.08 815.98 355.73C816.41 356.38 817.23 357.01 817.93 357.29C818.62 357.56 819.76 357.80 820.61 357.58C821.47 357.35 822.75 356.87 823.63 355.77C824.51 354.68 826.03 351.10 826.46 350.28"/><path fill="none" stroke="#004dc0" stroke-width="2.5" stroke-linecap="round" stroke-linejoin="round" d="M824.66 340.84C825.23 342.11 828.26 348.98 828.45 349.32C828.65 349.67 826.26 344.82 825.94 343.12C825.62 341.42 826.05 339.04 826.32 338.00C826.59 336.96 826.62 336.90 827.75 336.19C828.87 335.48 832.81 333.79 833.83 333.27C834.37 333.00 834.52 332.84 834.56 332.72C834.59 332.60 834.41 332.34 834.08 332.47C833.52 332.70 831.52 333.63 830.82 334.24C830.12 334.84 829.70 335.73 829.41 336.51C829.12 337.29 828.86 338.61 828.91 339.46C828.95 340.30 829.28 341.53 829.70 342.16C830.12 342.79 831.03 343.45 831.71 343.67C832.40 343.89 833.52 343.92 834.25 343.62C834.99 343.32 836.09 342.42 836.64 341.69C837.19 340.95 837.73 339.64 837.91 338.71C838.10 337.79 838.06 336.39 837.89 335.52C837.72 334.66 837.15 333.48 836.76 332.95C836.37 332.41 835.59 331.96 835.32 331.94C835.04 331.92 834.75 332.20 834.91 332.83C835.07 333.47 835.02 334.18 836.39 336.22C838.54 339.38 846.93 350.51 849.20 353.96C851.31 357.13 851.24 357.77 851.56 359.16C851.88 360.55 851.76 362.25 851.36 363.20C850.95 364.15 849.97 364.91 848.86 365.48C847.75 366.06 845.15 366.89 843.95 367.04C842.75 367.19 841.45 366.96 840.85 366.47C840.25 365.98 840.08 364.17 839.95 363.77"/><path fill="none" stroke="#004dc0" stroke-width="2.5" stroke-linecap="round" stroke-linejoin="round" d="M839.50 326.90C839.63 326.83 839.83 326.15 840.40 326.45C840.96 326.74 842.60 328.51 843.26 328.85C843.92 329.19 844.38 328.91 844.79 328.72C845.19 328.53 845.71 328.57 845.97 327.58C846.22 326.58 846.55 323.58 846.50 322.09C846.44 320.59 844.32 316.91 845.60 317.61C846.88 318.31 853.02 324.53 855.03 326.74C857.04 328.96 857.94 330.59 859.02 332.37C860.09 334.14 861.69 336.71 862.19 338.57C862.69 340.43 862.84 342.76 862.33 344.78C861.83 346.81 859.36 350.98 858.83 352.08"/><path fill="none" stroke="#004dc0" stroke-width="2.5" stroke-linecap="round" stroke-linejoin="round" d="M735.18 332.74C734.79 332.45 733.12 331.06 732.56 330.82C731.99 330.58 731.64 330.39 731.42 331.14C731.20 331.91 730.61 334.19 731.08 335.90C731.55 337.62 733.69 341.31 734.55 342.56C735.42 343.80 736.17 343.96 736.84 344.21C737.51 344.46 738.46 344.53 739.01 344.25C739.56 343.97 740.20 343.10 740.50 342.34C740.80 341.59 741.01 340.23 741.03 339.20C741.05 338.17 740.90 336.58 740.65 335.47C740.40 334.36 740.14 332.94 739.35 331.81C738.56 330.67 736.22 328.36 735.38 327.91C734.54 327.46 734.13 328.07 733.77 328.79C733.40 329.52 733.06 332.15 732.93 332.74"/><path fill="none" stroke="#004dc0" stroke-width="2.5" stroke-linecap="round" stroke-linejoin="round" d="M740.13 324.65C740.76 325.36 743.91 330.35 744.34 329.40C744.77 328.45 743.10 320.20 742.98 318.31C742.90 317.25 743.23 316.93 743.49 316.80C743.76 316.66 744.20 316.63 744.75 317.38C745.63 318.59 748.52 323.64 749.36 324.84C749.81 325.48 750.00 325.91 750.38 325.41C750.75 324.91 751.43 323.24 751.84 321.54C752.26 319.84 752.89 315.73 753.14 314.08C753.40 312.43 753.62 311.76 753.57 310.52C753.52 309.28 753.10 306.65 752.81 305.83C752.51 305.01 751.98 305.11 751.60 305.04C751.22 304.98 750.61 305.12 750.27 305.41C749.92 305.70 749.50 306.34 749.30 306.95C749.10 307.57 748.68 308.16 748.94 309.50C749.21 310.84 750.43 314.64 751.09 315.89C751.75 317.14 752.60 317.53 753.33 317.83C754.06 318.13 755.16 318.11 755.94 317.89C756.73 317.68 757.83 317.11 758.54 316.39C759.26 315.67 760.24 314.21 760.71 313.09C761.19 311.97 761.56 309.54 761.71 308.91"/><path fill="none" stroke="#004dc0" stroke-width="2.5" stroke-linecap="round" stroke-linejoin="round" d="M773.40 296.77C774.25 297.94 778.81 304.04 779.06 304.59C779.32 305.14 776.30 302.24 775.08 300.44C773.86 298.63 771.69 294.37 770.92 292.55C770.16 290.74 770.07 289.49 769.97 288.32C769.87 287.14 770.02 285.58 770.27 284.75C770.52 283.92 771.17 283.12 771.66 282.80C772.15 282.47 773.00 282.39 773.56 282.58C774.13 282.77 774.96 283.39 775.43 284.04C775.89 284.69 776.48 285.52 776.66 286.91C776.84 288.30 776.88 291.87 776.60 293.29C776.33 294.72 775.09 296.07 774.81 296.39C774.54 296.70 774.69 295.97 774.75 295.42C774.81 294.87 775.13 293.13 775.20 292.72"/><path fill="none" stroke="#004dc0" stroke-width="2.5" stroke-linecap="round" stroke-linejoin="round" d="M782.39 276.99C781.99 276.58 780.10 273.02 779.69 274.29C779.29 275.56 779.53 283.29 779.69 285.44C779.86 287.60 780.43 288.21 780.83 288.66C781.22 289.11 781.86 288.66 782.31 288.42C782.76 288.18 783.46 288.36 783.83 287.05C784.22 285.64 784.83 280.88 784.91 279.07C784.98 277.27 784.35 275.28 784.36 275.02C784.37 274.76 784.44 276.24 784.96 277.35C785.48 278.46 787.16 281.52 787.85 282.41C788.55 283.30 788.99 283.35 789.59 283.28C790.18 283.21 791.50 282.13 791.84 281.93"/><path fill="none" stroke="#004dc0" stroke-width="2.5" stroke-linecap="round" stroke-linejoin="round" d="M790.04 268.44C790.10 268.85 790.00 269.86 790.49 271.14C790.98 272.42 793.12 276.44 793.31 276.99C793.49 277.53 792.21 275.90 791.70 274.80C791.19 273.70 790.19 270.77 789.91 269.63C789.63 268.49 789.47 268.07 789.82 267.22C790.18 266.37 791.92 264.44 792.29 263.95"/><path fill="none" stroke="#004dc0" stroke-width="2.5" stroke-linecap="round" stroke-linejoin="round" d="M794.98 254.50C794.98 254.37 794.64 253.11 794.98 253.60C796.33 255.56 802.63 265.45 803.98 267.54"/><path fill="none" stroke="#004dc0" stroke-width="2.5" stroke-linecap="round" stroke-linejoin="round" d="M797.23 265.29C797.48 264.89 797.85 263.82 798.87 262.61C799.88 261.39 803.21 258.01 803.98 257.20"/><path fill="none" stroke="#004dc0" stroke-width="2.5" stroke-linecap="round" stroke-linejoin="round" d="M805.77 254.50C806.38 255.45 809.21 259.85 809.82 260.80"/><path fill="none" stroke="#004dc0" stroke-width="2.5" stroke-linecap="round" stroke-linejoin="round" d="M803.53 250.01C803.59 250.07 803.91 250.39 803.98 250.46"/><path fill="none" stroke="#004dc0" stroke-width="2.5" stroke-linecap="round" stroke-linejoin="round" d="M814.77 245.96C814.23 246.97 810.16 251.69 811.17 252.70C812.18 253.72 819.89 253.11 821.51 252.70C823.13 252.30 821.89 250.41 821.96 250.01"/><path fill="none" stroke="#004dc0" stroke-width="2.5" stroke-linecap="round" stroke-linejoin="round" d="M816.57 232.02C816.50 231.89 815.77 230.54 816.12 231.12C817.09 232.74 821.47 240.49 823.02 242.85C824.57 245.21 825.94 246.26 826.46 246.86"/><path fill="none" stroke="#004dc0" stroke-width="2.5" stroke-linecap="round" stroke-linejoin="round" d="M828.26 242.36C828.46 241.42 829.61 237.57 829.61 236.07C829.60 234.56 828.54 231.77 828.20 232.32C827.86 232.88 827.30 238.29 827.36 239.74C827.41 241.20 828.08 241.60 828.56 242.01C829.03 242.42 829.41 242.93 830.53 242.47C831.65 242.02 834.80 239.97 836.01 238.98C837.21 237.99 837.94 237.05 838.53 235.87C839.13 234.69 839.74 231.83 839.95 231.12"/><path fill="none" stroke="#004dc0" stroke-width="2.5" stroke-linecap="round" stroke-linejoin="round" d="M759.46 345.33C759.39 345.26 759.16 344.48 759.01 344.88C758.55 346.16 756.69 351.96 756.36 353.84C756.04 355.72 756.67 356.78 756.85 357.44C757.04 358.11 757.41 358.20 757.62 358.29C757.83 358.39 758.06 358.48 758.26 358.08C758.48 357.61 759.09 356.95 759.09 355.22C759.09 353.48 757.53 347.23 758.26 346.51C758.99 345.79 762.83 349.78 763.96 350.41C765.02 351.01 765.35 350.88 765.76 350.73C766.16 350.57 766.52 349.58 766.66 349.38"/><path fill="none" stroke="#004dc0" stroke-width="2.5" stroke-linecap="round" stroke-linejoin="round" d="M763.96 339.94C764.71 340.23 768.01 341.77 768.97 341.91C769.94 342.06 770.19 341.56 770.41 340.91C770.63 340.26 770.71 338.70 770.41 337.60C770.12 336.51 768.75 334.47 768.45 333.61C768.16 332.74 768.45 332.11 768.45 331.84"/><path fill="none" stroke="#004dc0" stroke-width="2.5" stroke-linecap="round" stroke-linejoin="round" d="M778.35 325.10C778.01 325.10 776.66 324.56 776.10 325.10C775.54 325.64 774.65 327.34 774.62 328.69C774.59 330.05 775.49 333.05 775.91 334.12C776.34 335.20 776.95 335.56 777.45 335.86C777.94 336.16 778.68 336.29 779.20 336.15C779.73 336.02 780.48 335.51 780.93 334.96C781.37 334.40 781.94 333.71 782.17 332.45C782.41 331.18 782.64 327.87 782.50 326.53C782.37 325.18 780.19 322.47 781.27 323.48C782.36 324.49 788.19 331.28 789.75 333.27C791.32 335.26 791.29 335.67 791.71 336.75C792.13 337.83 792.48 339.34 792.57 340.46C792.66 341.57 792.86 342.65 792.28 344.18C791.71 345.71 789.63 349.39 788.74 350.66C787.85 351.92 787.02 352.24 786.34 352.59C785.66 352.94 784.65 353.19 784.19 352.98C783.73 352.76 783.43 351.45 783.29 351.18"/><path fill="none" stroke="#004dc0" stroke-width="2.5" stroke-linecap="round" stroke-linejoin="round" d="M801.28 304.86C801.28 304.73 801.66 304.06 801.28 303.96C800.89 303.87 799.24 303.91 798.72 304.23C798.21 304.55 797.90 305.09 797.84 306.10C797.78 307.12 798.03 310.03 798.32 311.00C798.61 311.97 799.30 312.32 799.78 312.57C800.26 312.83 801.05 312.86 801.53 312.71C802.01 312.55 802.65 312.07 802.98 311.56C803.30 311.04 803.58 310.03 803.71 309.27C803.83 308.51 804.32 307.62 803.83 306.49C803.33 305.35 800.90 302.43 800.38 301.72"/><path fill="none" stroke="#004dc0" stroke-width="2.5" stroke-linecap="round" stroke-linejoin="round" d="M804.43 295.42C805.41 296.02 809.92 298.88 810.97 299.43C811.30 299.60 811.49 299.44 811.40 299.08C811.10 297.91 809.16 293.29 808.99 291.66C808.82 290.03 810.08 288.74 810.27 288.23"/><path fill="none" stroke="#004dc0" stroke-width="2.5" stroke-linecap="round" stroke-linejoin="round" d="M816.57 288.23C816.88 287.67 818.34 285.25 818.66 284.51C818.98 283.76 818.87 283.62 818.71 283.29C818.55 282.95 817.95 282.19 817.59 282.29C817.23 282.39 816.52 283.40 816.28 283.95C816.05 284.49 815.93 284.95 816.02 285.94C816.11 286.92 816.56 289.64 816.88 290.52C817.19 291.39 817.71 291.52 818.12 291.75C818.54 291.97 819.17 292.20 819.66 292.04C820.15 291.87 820.83 291.48 821.38 290.64C821.93 289.80 823.02 287.06 823.31 286.43"/><path fill="none" stroke="#004dc0" stroke-width="2.5" stroke-linecap="round" stroke-linejoin="round" d="M823.31 277.88C823.51 278.39 824.46 281.89 824.62 281.23C824.77 280.58 824.06 275.52 824.34 273.53C824.61 271.55 826.14 268.82 826.46 267.99"/><path fill="none" stroke="#004dc0" stroke-width="2.5" stroke-linecap="round" stroke-linejoin="round" d="M853.44 257.20C853.04 257.11 851.34 256.40 850.78 256.63C850.22 256.86 849.75 257.64 849.72 258.75C849.69 259.86 850.20 262.99 850.57 264.02C850.94 265.04 851.69 265.35 852.19 265.59C852.70 265.84 853.44 265.84 853.94 265.64C854.43 265.43 855.14 265.13 855.49 264.23C855.84 263.33 856.52 260.81 856.28 259.63C856.04 258.44 854.65 256.80 853.89 256.30C853.12 255.80 851.59 256.30 851.19 256.30"/><path fill="none" stroke="#004dc0" stroke-width="2.5" stroke-linecap="round" stroke-linejoin="round" d="M850.74 262.15C851.06 263.05 852.23 266.94 852.86 268.16C853.49 269.38 854.33 269.94 854.93 270.29C855.53 270.64 856.30 270.58 856.86 270.49C857.43 270.40 857.97 270.43 858.68 269.72C859.38 269.01 861.10 266.34 861.53 265.74"/><path fill="none" stroke="#004dc0" stroke-width="2.5" stroke-linecap="round" stroke-linejoin="round" d="M858.83 252.25C859.68 253.40 864.02 259.67 864.47 259.86C864.91 260.06 862.21 255.32 861.79 253.54C861.37 251.76 861.55 248.97 861.68 247.98C861.81 247.02 862.28 247.03 862.65 246.90C863.03 246.78 863.39 246.49 864.17 247.15C865.01 247.87 867.51 250.96 868.31 251.68C868.93 252.24 868.93 252.41 869.53 251.98C870.13 251.55 871.68 250.09 872.29 248.79C872.91 247.49 873.50 244.43 873.63 243.31C873.76 242.19 873.41 241.78 873.17 241.31C872.93 240.85 872.61 240.45 872.06 240.23C871.51 240.01 870.04 239.84 869.50 239.83C868.95 239.82 868.77 239.81 868.44 240.16C868.11 240.51 867.32 241.42 867.30 242.16C867.28 242.89 867.93 244.48 868.31 245.09C868.69 245.70 868.65 245.74 869.81 246.21C871.04 246.72 875.61 247.82 876.51 248.44C877.41 249.07 876.38 249.89 875.82 250.39C875.26 250.89 873.23 251.59 872.77 251.80"/><path fill="none" stroke="#004dc0" stroke-width="2.5" stroke-linecap="round" stroke-linejoin="round" d="M879.97 240.56C880.36 239.41 882.27 234.27 882.58 232.89C882.82 231.84 882.28 231.56 882.07 231.36C881.86 231.16 881.47 231.02 881.17 231.56C880.79 232.24 879.78 234.83 879.54 235.91C879.30 236.99 879.30 237.71 879.57 238.77C879.84 239.83 880.86 242.33 881.34 242.99C881.81 243.66 882.30 243.31 882.76 243.20C883.22 243.09 883.73 243.12 884.39 242.25C885.05 241.39 886.75 238.14 887.16 237.42"/><path fill="none" stroke="#004dc0" stroke-width="2.5" stroke-linecap="round" stroke-linejoin="round" d="M889.41 229.77C889.68 230.31 891.00 233.33 891.21 233.37C891.42 233.41 890.78 231.22 890.83 230.04C890.88 228.87 891.27 226.29 891.55 225.56C891.82 224.83 892.28 225.07 892.64 225.15C893.00 225.22 893.48 225.27 893.95 226.07C894.42 226.88 895.42 230.52 895.78 230.49C896.14 230.46 896.15 226.75 896.36 225.86C896.57 224.97 896.91 224.81 897.19 224.58C897.47 224.36 897.78 223.97 898.23 224.35C898.67 224.73 899.79 226.33 900.16 227.13C900.54 227.93 900.58 229.01 900.72 229.67C900.86 230.34 901.04 231.15 901.10 231.57C901.16 231.99 901.10 232.33 901.10 232.47"/><path fill="none" stroke="#004dc0" stroke-width="2.5" stroke-linecap="round" stroke-linejoin="round" d="M899.75 214.48C899.68 214.08 898.25 210.75 899.30 211.79C900.35 212.82 905.33 219.26 906.74 221.38C908.15 223.50 908.53 225.19 908.69 225.91C908.83 226.49 908.08 226.47 907.83 226.17C907.57 225.88 906.99 224.87 907.00 223.94C907.00 223.01 907.29 221.01 907.87 220.00C908.46 218.98 910.19 217.62 910.89 217.20C911.59 216.77 912.11 217.00 912.53 217.17C912.95 217.34 913.51 217.47 913.70 218.33C913.88 219.19 914.16 221.46 913.76 222.91C913.36 224.37 911.71 227.00 911.03 228.03C910.34 229.06 909.67 229.38 909.19 229.77C908.72 230.17 908.12 230.60 907.85 230.67C907.58 230.74 907.46 230.29 907.40 230.22"/><path fill="none" stroke="#004dc0" stroke-width="2.5" stroke-linecap="round" stroke-linejoin="round" d="M910.99 209.54C911.34 209.88 912.33 209.88 913.30 211.82C914.38 213.98 917.45 222.11 918.19 223.93"/><path fill="none" stroke="#004dc0" stroke-width="2.5" stroke-linecap="round" stroke-linejoin="round" d="M921.78 220.78C921.99 220.31 922.98 218.42 923.13 217.63C923.29 216.85 923.07 216.24 922.81 215.55C922.55 214.87 921.76 213.40 921.39 213.08C921.03 212.75 920.74 212.82 920.37 213.37C920.01 213.92 919.11 215.82 918.94 216.74C918.77 217.67 919.04 218.82 919.24 219.52C919.44 220.22 919.82 221.02 920.25 221.41C920.68 221.80 921.04 222.37 922.13 222.13C923.22 221.89 925.95 221.04 927.52 219.82C929.09 218.61 931.82 214.90 932.58 214.03"/>
</svg>