<?xml version="1.0" encoding="UTF-8"?>
<!DOCTYPE svg PUBLIC "-//W3C//DTD SVG 1.1//EN" "http://www.w3.org/Graphics/SVG/1.1/DTD/svg11.dtd">
<svg  xmlns="http://www.w3.org/2000/svg" xmlns:xlink="http://www.w3.org/1999/xlink" viewport-fill="none" viewBox="0.0, 0.0, 1004.7721557617188, 706.2039184570312" version="1.1" height="706.2039184570312" width="1004.7721557617188">
<path fill="none" stroke="#004dc0" stroke-width="2.5" stroke-linecap="round" stroke-linejoin="round" d="M736.08 511.25C736.08 516.31 735.67 538.37 736.08 544.98C736.48 551.59 738.37 553.77 738.78 555.32"/><path fill="none" stroke="#004dc0" stroke-width="2.5" stroke-linecap="round" stroke-linejoin="round" d="M821.51 420.42C821.06 424.31 818.94 438.98 818.46 446.32C817.98 453.67 817.84 459.25 818.32 469.41C818.79 479.58 820.58 502.60 821.66 514.11C822.74 525.63 824.87 539.45 825.53 546.17C826.18 552.89 825.94 557.00 826.01 558.92"/><path fill="none" stroke="#004dc0" stroke-width="2.5" stroke-linecap="round" stroke-linejoin="round" d="M746.42 563.86C746.45 563.99 746.05 564.76 746.62 564.70C748.27 564.52 753.79 563.08 757.46 562.70C761.13 562.31 768.42 562.02 771.07 562.14C773.73 562.27 774.33 562.97 775.15 563.52C775.97 564.06 776.36 565.02 776.52 565.78C776.67 566.53 774.80 568.81 776.18 568.55C777.56 568.30 783.39 564.96 785.71 564.09C788.02 563.21 788.60 563.17 791.61 562.73C794.63 562.30 802.81 561.82 805.79 561.18C808.76 560.54 810.09 559.08 811.43 558.47C812.78 557.86 814.20 557.39 814.77 557.12C815.15 556.94 815.15 556.74 815.22 556.67"/><path fill="none" stroke="#004dc0" stroke-width="2.5" stroke-linecap="round" stroke-linejoin="round" d="M757.21 589.94C756.97 589.54 754.78 585.37 755.60 587.28C756.54 589.48 762.19 602.04 763.49 604.59C763.74 605.08 764.07 604.78 764.25 604.28C764.42 603.78 764.58 603.29 764.66 601.27C764.75 598.85 764.83 590.11 764.86 588.14"/><path fill="none" stroke="#004dc0" stroke-width="2.5" stroke-linecap="round" stroke-linejoin="round" d="M772.95 595.79C772.50 595.67 770.58 594.94 769.97 595.00C769.35 595.05 769.15 595.69 768.87 596.17C768.58 596.65 768.08 597.16 768.09 598.19C768.10 599.22 768.63 602.16 768.94 603.02C769.26 603.88 769.81 603.89 770.19 603.92C770.57 603.96 770.94 603.89 771.50 603.25C772.07 602.60 773.07 599.68 773.96 599.65C774.85 599.61 776.38 602.41 777.45 602.98C778.51 603.55 780.50 603.36 781.04 603.43"/><path fill="none" stroke="#004dc0" stroke-width="2.5" stroke-linecap="round" stroke-linejoin="round" d="M844.44 567.46C852.57 567.22 880.73 566.74 898.60 565.87C916.47 565.00 952.69 562.21 963.58 561.64C968.69 561.37 970.10 562.00 971.25 562.06"/><path fill="none" stroke="#004dc0" stroke-width="2.5" stroke-linecap="round" stroke-linejoin="round" d="M902.90 584.10C902.72 583.77 900.95 580.42 901.68 581.91C902.67 583.95 908.17 595.41 909.49 597.65C909.91 598.36 910.34 597.67 910.44 596.85C910.77 594.26 911.25 582.90 911.67 580.38C911.85 579.32 912.87 579.90 913.24 580.05C913.61 580.20 914.01 581.20 914.14 581.40"/><path fill="none" stroke="#004dc0" stroke-width="2.5" stroke-linecap="round" stroke-linejoin="round" d="M919.54 589.49C919.41 589.36 918.38 587.84 918.70 588.59C919.09 589.51 921.05 594.93 922.13 595.63C923.21 596.32 924.90 593.56 925.90 593.23C926.89 592.90 928.31 593.04 928.79 593.42C929.26 593.80 929.23 595.18 929.05 595.75C928.86 596.32 928.35 596.72 927.53 597.20C926.71 597.68 924.18 598.68 923.58 598.94"/><path fill="none" stroke="#000000" stroke-width="2.0" stroke-linecap="round" stroke-linejoin="round" d="M480.68 349.83C480.86 349.66 480.85 349.03 481.93 348.68C483.14 348.27 487.74 347.36 488.77 347.13"/><path fill="none" stroke="#000000" stroke-width="2.0" stroke-linecap="round" stroke-linejoin="round" d="M481.58 422.22C481.59 422.44 480.83 423.69 481.64 423.69C482.45 423.69 486.17 422.44 486.97 422.22"/><path fill="none" stroke="#ffd873" stroke-opacity="0.5" stroke-width="20.0" stroke-linecap="round" stroke-linejoin="round" d="M758.11 596.69C757.84 597.16 755.94 598.15 756.31 599.83C756.69 601.52 758.94 606.62 760.63 607.90C762.32 609.18 765.41 608.90 767.57 608.36C769.73 607.82 773.15 605.83 775.02 604.30C776.89 602.77 779.06 600.34 780.02 598.16C780.98 595.98 781.66 592.07 781.44 589.76C781.21 587.45 780.13 584.38 778.52 582.75C776.90 581.12 773.33 579.40 770.65 578.88C767.97 578.36 763.66 578.48 760.66 579.27C757.66 580.07 753.20 582.26 750.66 584.20C748.11 586.14 745.05 589.64 743.72 592.20C742.40 594.76 741.59 598.79 741.83 601.27C742.06 603.74 743.67 607.02 745.29 608.70C746.91 610.39 750.16 611.96 752.62 612.50C755.09 613.03 759.07 612.94 761.70 612.28C764.32 611.62 768.00 609.79 770.12 608.11C772.24 606.42 774.62 603.34 775.85 601.04C777.07 598.75 778.13 595.09 778.27 592.81C778.41 590.54 777.70 587.49 776.78 585.90C775.87 584.30 773.76 582.66 772.15 582.19C770.54 581.72 767.80 581.98 766.04 582.78C764.27 583.58 761.58 585.89 760.37 587.54C759.16 589.19 758.33 591.80 757.97 593.78C757.62 595.77 757.27 599.27 758.02 600.78C758.77 602.29 761.07 603.64 762.97 603.84C764.87 604.04 769.20 602.55 770.70 602.08C772.20 601.62 772.61 600.94 772.95 600.73"/><path fill="none" stroke="#ffd873" stroke-opacity="0.5" stroke-width="20.0" stroke-linecap="round" stroke-linejoin="round" d="M241.91 336.79C242.02 336.25 242.81 333.69 242.62 333.17C242.42 332.64 241.43 332.83 240.59 333.29C239.76 333.74 238.02 335.07 237.03 336.21C236.04 337.35 234.72 339.29 233.98 340.89C233.23 342.48 232.25 345.17 232.07 346.84C231.88 348.50 232.10 350.85 232.76 351.99C233.42 353.14 235.02 354.29 236.45 354.48C237.88 354.66 240.43 354.04 242.29 353.19C244.15 352.35 247.09 350.47 248.84 348.86C250.59 347.24 252.87 344.38 253.94 342.43C255.00 340.47 255.88 337.56 255.92 335.85C255.96 334.14 255.21 332.12 254.20 331.04C253.19 329.96 250.94 328.90 249.20 328.64C247.45 328.38 244.50 328.70 242.58 329.30C240.66 329.90 237.91 331.42 236.40 332.64C234.89 333.87 233.13 335.99 232.50 337.49C231.87 338.99 231.73 341.35 232.19 342.62C232.66 343.90 234.18 345.44 235.58 346.00C236.98 346.56 239.60 346.69 241.51 346.36C243.41 346.03 246.30 344.89 248.28 343.79C250.25 342.70 253.21 340.70 254.67 339.07C256.14 337.45 257.55 334.50 258.07 332.94C258.58 331.38 258.30 329.60 258.10 328.69C257.90 327.79 256.95 327.17 256.75 326.90"/><path fill="none" stroke="#98c2ff" stroke-opacity="0.5" stroke-width="20.0" stroke-linecap="round" stroke-linejoin="round" d="M252.25 408.73C252.12 408.73 251.56 408.17 251.35 408.73C250.80 410.25 248.70 416.32 248.54 418.85C248.39 421.38 249.50 424.13 250.30 425.61C251.10 427.10 252.82 428.14 253.87 428.73C254.93 429.32 256.31 429.91 257.35 429.53C258.40 429.16 260.05 427.50 260.85 426.25C261.65 425.00 262.46 422.87 262.71 421.21C262.96 419.56 262.93 416.91 262.51 415.22C262.08 413.54 261.01 411.25 259.88 410.00C258.76 408.76 256.72 407.46 255.04 406.90C253.36 406.34 250.52 406.06 248.68 406.26C246.84 406.47 244.38 407.39 242.77 408.26C241.17 409.14 238.83 410.94 237.98 412.09C237.13 413.23 236.72 414.86 237.11 415.90C237.49 416.95 239.64 418.40 240.56 419.07C241.49 419.75 242.86 420.22 243.26 420.42"/><path fill="none" stroke="#98c2ff" stroke-opacity="0.5" stroke-width="20.0" stroke-linecap="round" stroke-linejoin="round" d="M916.39 580.05C914.66 579.88 907.33 578.58 904.86 578.91C902.38 579.23 901.09 580.95 899.88 582.20C898.67 583.44 897.41 585.73 896.77 587.21C896.12 588.68 895.45 590.65 895.59 592.04C895.73 593.42 896.79 595.32 897.70 596.44C898.62 597.57 900.22 598.81 901.69 599.52C903.17 600.23 905.66 600.90 907.54 601.17C909.42 601.44 912.25 601.47 914.20 601.31C916.16 601.15 918.88 600.68 920.60 600.10C922.31 599.53 924.44 598.40 925.65 597.50C926.87 596.59 928.09 595.18 928.69 594.06C929.28 592.95 929.67 591.24 929.60 590.06C929.52 588.88 928.92 587.26 928.19 586.17C927.45 585.08 925.98 583.63 924.69 582.79C923.41 581.95 921.27 580.91 919.61 580.55C917.94 580.20 915.32 580.09 913.60 580.40C911.88 580.72 909.50 581.63 908.15 582.65C906.80 583.66 905.26 585.68 904.61 587.17C903.96 588.67 903.61 591.06 903.83 592.65C904.04 594.23 905.05 596.52 906.05 597.76C907.05 598.99 909.03 600.31 910.51 600.89C912.00 601.46 914.34 601.75 915.94 601.61C917.54 601.47 919.80 600.78 921.19 599.96C922.59 599.14 924.32 597.37 925.21 596.13C926.10 594.88 926.81 593.03 927.12 591.65C927.42 590.28 927.59 588.15 927.25 586.98C926.91 585.81 925.82 584.34 924.87 583.84C923.91 583.34 921.95 583.41 920.89 583.65C919.82 583.89 918.21 585.18 917.74 585.45"/><path fill="none" stroke="#1eb511" stroke-width="2.0" stroke-linecap="round" stroke-linejoin="round" d="M574.65 282.83C574.35 283.08 572.72 284.26 572.61 284.47C572.50 284.67 573.19 284.73 573.90 284.22C576.14 282.60 582.62 277.73 587.57 273.66C592.52 269.59 602.45 261.07 606.91 257.07C611.37 253.07 617.14 248.51 617.30 246.99C617.45 245.47 609.22 247.20 607.95 246.96C606.79 246.75 608.42 245.71 608.80 245.42C609.18 245.12 609.90 245.01 610.49 245.00C611.08 244.98 612.03 245.07 612.72 245.32C613.41 245.57 614.44 246.03 615.07 246.66C615.69 247.30 616.48 248.11 616.89 249.56C617.30 251.00 617.68 255.29 617.82 256.30"/><path fill="none" stroke="#1eb511" stroke-width="2.0" stroke-linecap="round" stroke-linejoin="round" d="M625.91 236.07C626.22 235.53 627.62 233.39 627.96 232.51C628.30 231.62 628.19 230.82 628.17 230.17C628.15 229.52 628.05 228.59 627.84 228.17C627.63 227.74 627.17 227.37 626.80 227.32C626.44 227.27 625.79 227.48 625.41 227.86C625.02 228.25 624.47 229.13 624.24 229.88C624.02 230.63 623.83 232.01 623.91 232.86C623.99 233.71 624.32 234.92 624.75 235.55C625.18 236.19 626.09 236.82 626.80 237.08C627.52 237.35 628.66 237.59 629.53 237.32C630.40 237.05 631.85 236.03 632.59 235.30C633.33 234.57 634.18 233.16 634.46 232.47C634.74 231.78 634.46 230.94 634.46 230.67"/><path fill="none" stroke="#1eb511" stroke-width="2.0" stroke-linecap="round" stroke-linejoin="round" d="M631.31 220.78C632.34 221.53 637.05 225.15 638.15 225.82C638.56 226.07 638.59 225.61 638.59 225.25C638.58 224.88 638.51 224.60 638.10 223.38C637.63 221.97 635.73 217.17 635.46 215.83C635.24 214.81 636.14 214.69 636.26 214.48"/><path fill="none" stroke="#1eb511" stroke-width="2.0" stroke-linecap="round" stroke-linejoin="round" d="M640.30 217.18C640.44 217.32 640.88 218.33 641.20 218.08C641.52 217.84 642.22 216.25 642.42 215.55C642.63 214.84 642.73 213.98 642.59 213.37C642.45 212.76 641.84 211.22 641.47 211.48C641.11 211.73 640.29 214.13 640.18 215.05C640.08 215.97 640.45 216.95 640.77 217.59C641.09 218.23 641.76 219.06 642.32 219.32C642.88 219.57 643.86 219.58 644.51 219.29C645.15 219.00 646.12 218.17 646.63 217.41C647.14 216.66 647.69 215.24 647.94 214.25C648.18 213.26 648.32 211.74 648.26 210.82C648.20 209.89 647.84 208.72 647.56 208.07C647.27 207.42 646.68 206.72 646.36 206.46C646.05 206.20 645.55 205.95 645.45 206.32C645.35 206.70 645.47 208.23 645.69 208.95C645.91 209.68 646.36 210.44 646.92 211.17C647.47 211.89 648.93 213.49 649.40 213.79C649.86 214.09 649.99 213.74 650.02 213.16C650.07 211.91 649.77 206.85 649.78 205.46C649.80 204.39 649.93 204.20 650.12 203.89C650.31 203.58 650.41 203.12 651.04 203.41C651.73 203.71 653.87 205.49 654.69 205.94C655.51 206.39 656.22 206.32 656.49 206.39"/><path fill="none" stroke="#1eb511" stroke-width="2.0" stroke-linecap="round" stroke-linejoin="round" d="M659.64 183.91C659.50 183.77 658.33 182.26 658.74 183.01C659.95 185.23 666.38 196.39 667.73 198.75"/><path fill="none" stroke="#1eb511" stroke-width="2.0" stroke-linecap="round" stroke-linejoin="round" d="M660.09 195.15C660.06 194.78 659.49 194.28 659.90 192.68C660.55 190.12 663.04 178.82 664.42 178.09C665.80 177.36 668.09 185.91 669.07 187.81C670.05 189.71 670.46 190.21 670.95 190.77C671.44 191.33 671.98 192.01 672.33 191.57C672.68 191.13 673.19 189.10 673.28 187.86C673.38 186.62 672.80 183.69 672.98 183.31C673.16 182.93 673.98 184.94 674.47 185.31C674.96 185.67 675.63 185.76 676.23 185.74C676.84 185.71 677.88 185.52 678.53 185.15C679.17 184.77 680.06 183.89 680.52 183.25C680.97 182.61 681.44 181.60 681.57 180.88C681.70 180.16 681.61 179.11 681.37 178.46C681.12 177.81 680.43 176.98 679.93 176.55C679.43 176.12 678.61 175.74 678.04 175.60C677.47 175.45 676.61 175.43 676.12 175.59C675.64 175.76 675.07 176.26 674.83 176.69C674.58 177.11 674.45 177.86 674.48 178.43C674.52 178.99 674.76 179.91 675.07 180.46C675.39 181.01 676.08 181.77 676.58 182.10C677.07 182.42 677.80 182.61 678.38 182.64C678.96 182.66 679.96 182.58 680.44 182.29C680.93 181.99 681.45 181.40 681.64 180.69C681.82 179.99 681.67 178.07 681.67 177.61"/><path fill="none" stroke="#1eb511" stroke-width="2.0" stroke-linecap="round" stroke-linejoin="round" d="M683.02 169.52C682.89 169.52 682.27 169.03 682.19 169.55C682.10 170.07 682.09 171.98 682.47 172.99C682.84 174.00 684.15 175.77 684.66 176.27C685.18 176.77 685.52 176.84 685.92 176.35C686.33 175.85 687.22 173.99 687.39 172.97C687.56 171.95 686.86 169.88 687.08 169.56C687.30 169.25 688.31 170.69 688.86 170.88C689.41 171.06 690.16 170.98 690.72 170.82C691.28 170.66 692.13 170.29 692.61 169.81C693.10 169.33 693.70 168.36 693.95 167.65C694.21 166.93 694.35 165.80 694.30 165.05C694.24 164.30 693.91 163.21 693.57 162.65C693.24 162.09 692.56 161.49 692.06 161.31C691.57 161.14 690.77 161.24 690.29 161.48C689.81 161.72 689.14 162.35 688.86 162.93C688.57 163.52 688.33 164.69 688.38 165.40C688.42 166.11 688.76 167.14 689.16 167.67C689.56 168.20 690.40 168.77 691.04 168.94C691.69 169.11 692.81 169.07 693.46 168.81C694.11 168.54 694.95 167.77 695.38 167.18C695.81 166.59 696.22 165.56 696.32 164.87C696.42 164.17 696.29 163.18 696.05 162.55C695.81 161.92 694.17 159.24 694.71 160.68C695.35 162.43 699.45 171.51 700.35 174.18C701.25 176.84 700.78 177.37 700.71 178.47C700.64 179.57 700.38 180.96 699.89 181.53C699.39 182.10 698.19 182.32 697.41 182.27C696.63 182.22 695.32 181.91 694.71 181.21C694.10 180.51 693.56 178.15 693.36 177.61"/><path fill="none" stroke="#1eb511" stroke-width="2.0" stroke-linecap="round" stroke-linejoin="round" d="M694.71 155.13C694.74 154.91 694.66 153.99 694.87 153.67C695.09 153.36 695.58 152.25 696.17 153.02C697.26 154.44 701.19 161.63 702.17 163.15C702.36 163.44 702.56 163.49 702.69 163.17C703.01 162.39 703.59 158.91 704.28 157.97C704.97 157.04 706.85 157.08 707.30 156.93"/><path fill="none" stroke="#1eb511" stroke-width="2.0" stroke-linecap="round" stroke-linejoin="round" d="M653.79 240.11C653.79 239.98 653.47 238.71 653.79 239.21C654.39 240.15 656.96 245.08 657.78 246.32C658.48 247.38 658.91 247.41 659.27 247.51C659.63 247.60 660.08 247.67 660.18 246.97C660.33 245.96 659.78 241.39 660.24 240.79C660.71 240.18 662.58 242.51 663.29 242.90C664.00 243.30 664.59 243.41 664.98 243.40C665.36 243.40 665.70 243.18 665.85 242.85C666.01 242.53 666.38 242.24 666.00 241.23C665.54 240.01 663.27 235.69 662.79 234.72"/><path fill="none" stroke="#1eb511" stroke-width="2.0" stroke-linecap="round" stroke-linejoin="round" d="M668.18 233.82C668.46 233.10 669.84 230.07 670.01 229.02C670.19 227.97 669.65 226.70 669.32 226.84C669.00 226.98 667.84 228.80 667.86 229.95C667.87 231.10 668.84 233.72 669.44 234.48C670.05 235.24 671.05 235.10 671.88 235.00C672.70 234.90 674.27 234.20 674.93 233.82C675.59 233.44 676.07 232.67 676.28 232.47"/><path fill="none" stroke="#1eb511" stroke-width="2.0" stroke-linecap="round" stroke-linejoin="round" d="M689.32 212.68C689.03 212.55 687.88 211.86 687.42 211.75C686.95 211.65 686.69 211.37 686.20 211.99C685.72 212.60 684.48 214.85 684.17 215.87C683.86 216.88 684.03 217.94 684.16 218.74C684.29 219.55 684.64 220.66 685.02 221.21C685.39 221.77 686.11 222.31 686.66 222.43C687.21 222.56 688.17 222.39 688.70 222.03C689.22 221.68 689.88 221.11 690.16 220.07C690.43 219.03 690.79 216.25 690.52 215.11C690.25 213.97 688.55 212.70 688.36 212.47C688.18 212.25 689.07 213.40 689.26 213.62C689.46 213.85 689.52 213.91 689.67 213.97C689.81 214.03 690.13 214.02 690.21 214.03"/><path fill="none" stroke="#1eb511" stroke-width="2.0" stroke-linecap="round" stroke-linejoin="round" d="M690.21 212.24C690.05 212.18 688.75 211.27 689.15 211.89C689.72 212.78 692.96 216.70 694.00 218.16C695.04 219.63 695.63 220.62 696.10 221.66C696.57 222.70 696.97 224.12 697.13 225.07C697.28 226.03 697.46 227.27 697.13 228.01C696.80 228.75 695.88 229.63 694.91 230.02C693.94 230.42 691.30 230.57 690.66 230.67"/><path fill="none" stroke="#1eb511" stroke-width="2.0" stroke-linecap="round" stroke-linejoin="round" d="M699.21 203.24C698.94 203.15 697.89 202.63 697.44 202.63C696.99 202.62 696.52 202.87 696.19 203.21C695.86 203.55 695.41 204.13 695.25 204.89C695.10 205.64 695.02 207.58 695.15 208.25C695.28 208.92 695.80 209.17 696.13 209.36C696.45 209.55 696.85 209.76 697.30 209.50C697.75 209.24 698.90 208.42 699.12 207.61C699.33 206.81 698.81 204.66 698.76 204.14"/><path fill="none" stroke="#1eb511" stroke-width="2.0" stroke-linecap="round" stroke-linejoin="round" d="M711.80 188.85C711.72 188.60 711.55 187.03 711.31 187.16C711.07 187.29 710.37 189.00 710.20 189.72C710.04 190.43 710.12 191.31 710.21 191.93C710.30 192.56 710.55 193.44 710.82 193.90C711.09 194.35 711.61 194.83 712.00 194.96C712.39 195.08 712.99 194.95 713.41 194.72C713.82 194.48 714.46 193.92 714.74 193.39C715.03 192.85 715.37 191.98 715.33 191.17C715.29 190.35 714.62 188.44 714.50 187.95"/><path fill="none" stroke="#1eb511" stroke-width="2.0" stroke-linecap="round" stroke-linejoin="round" d="M719.44 181.66C719.38 181.82 718.98 182.19 719.03 182.74C719.08 183.29 719.28 184.71 719.76 185.34C720.24 185.96 721.64 186.74 722.23 186.91C722.81 187.08 723.21 187.05 723.65 186.47C724.09 185.89 725.00 184.09 725.15 183.04C725.29 181.99 724.57 179.80 724.62 179.47C724.67 179.15 725.16 180.60 725.47 180.86C725.77 181.13 726.31 181.27 726.63 181.24C726.96 181.21 727.42 181.09 727.63 180.67C727.84 180.25 728.06 179.29 728.05 178.44C728.03 177.60 727.82 176.16 727.51 175.04C727.21 173.93 726.67 172.39 726.02 171.00C725.36 169.61 722.52 164.46 723.15 165.79C723.78 167.12 729.31 177.82 730.23 179.86C730.51 180.47 729.47 179.48 729.33 179.41"/><path fill="none" stroke="#1eb511" stroke-width="2.0" stroke-linecap="round" stroke-linejoin="round" d="M724.84 177.16C724.90 176.76 724.75 175.21 725.29 174.46C725.83 173.72 727.96 172.55 728.43 172.22"/><path fill="none" stroke="#1eb511" stroke-width="2.0" stroke-linecap="round" stroke-linejoin="round" d="M718.99 219.43C718.78 219.13 718.02 217.28 717.55 217.45C717.09 217.63 716.05 219.50 715.88 220.57C715.70 221.65 716.12 223.92 716.39 224.61C716.65 225.30 717.08 225.44 717.67 225.16C718.26 224.89 719.88 223.42 720.32 222.76C720.77 222.10 720.83 221.31 720.63 220.75C720.43 220.18 719.24 219.24 718.99 218.98"/><path fill="none" stroke="#1eb511" stroke-width="2.0" stroke-linecap="round" stroke-linejoin="round" d="M723.94 206.84C723.39 206.35 720.89 203.69 720.29 203.56C719.70 203.43 719.48 204.43 719.98 205.98C720.65 208.04 723.98 215.12 724.77 217.35C725.55 219.52 725.21 220.26 725.29 220.78"/><path fill="none" stroke="#1eb511" stroke-width="2.0" stroke-linecap="round" stroke-linejoin="round" d="M721.24 218.08C721.16 217.83 719.98 217.33 720.70 216.41C721.44 215.47 725.36 212.48 726.19 211.79"/><path fill="none" stroke="#1eb511" stroke-width="2.0" stroke-linecap="round" stroke-linejoin="round" d="M733.38 191.10C733.56 191.15 734.13 190.71 734.60 191.40C735.53 192.76 738.54 199.64 739.59 200.19C740.63 200.75 741.10 195.92 741.55 195.09C741.90 194.44 742.22 194.63 742.57 194.66C742.92 194.70 743.54 195.01 743.90 195.34C744.26 195.66 744.79 196.05 744.95 196.83C745.11 197.61 745.20 199.76 744.96 200.53C744.72 201.29 744.06 201.59 743.34 201.93C742.61 202.27 740.61 202.66 740.13 202.79"/><path fill="none" stroke="#1eb511" stroke-width="2.0" stroke-linecap="round" stroke-linejoin="round" d="M749.12 187.05C749.10 186.92 749.07 185.59 748.97 186.17C748.87 186.78 748.45 190.06 748.46 191.07C748.46 192.08 748.76 192.49 749.01 192.91C749.26 193.32 749.79 193.73 750.13 193.83C750.46 193.92 750.91 194.05 751.23 193.53C751.56 193.00 752.46 191.37 752.28 190.33C752.10 189.29 750.36 187.16 750.02 186.61"/><path fill="none" stroke="#1eb511" stroke-width="2.0" stroke-linecap="round" stroke-linejoin="round" d="M752.72 181.21C752.98 181.93 754.07 185.06 754.50 186.01C754.93 186.96 755.23 187.25 755.59 187.55C755.94 187.85 756.44 188.37 756.86 187.99C757.28 187.60 758.15 185.82 758.41 184.99C758.68 184.15 758.70 183.28 758.62 182.42C758.53 181.57 757.98 179.57 757.86 179.32C757.75 179.06 757.61 180.09 757.87 180.72C758.13 181.35 759.18 183.00 759.60 183.50C760.03 184.00 760.42 184.05 760.72 184.07C761.02 184.09 761.46 183.94 761.61 183.65C761.76 183.35 761.69 182.61 761.71 182.11C761.72 181.61 761.71 180.58 761.71 180.31"/><path fill="none" stroke="#1eb511" stroke-width="2.0" stroke-linecap="round" stroke-linejoin="round" d="M759.91 176.26C760.44 177.02 762.95 181.92 763.41 181.28C763.87 180.63 762.97 173.69 762.97 171.94C762.96 170.39 763.19 170.07 763.40 169.65C763.62 169.23 763.91 168.57 764.40 169.14C765.24 170.11 768.26 175.23 769.00 176.16C769.36 176.62 769.30 175.48 769.35 175.36"/><path fill="none" stroke="#1eb511" stroke-width="2.0" stroke-linecap="round" stroke-linejoin="round" d="M767.55 154.68C767.43 154.48 766.16 152.47 766.75 153.33C767.75 154.79 773.79 162.83 774.20 164.42C774.61 166.00 770.45 163.89 769.50 163.91C768.55 163.92 768.21 163.98 767.87 164.53C767.52 165.09 767.15 166.93 767.20 167.60C767.25 168.27 767.45 168.73 768.19 168.98C768.94 169.24 770.94 169.59 772.19 169.29C773.45 168.98 775.76 167.39 776.55 166.95C777.17 166.61 777.31 166.53 777.45 166.37C777.58 166.22 777.45 165.99 777.45 165.92"/><path fill="none" stroke="#1eb511" stroke-width="2.0" stroke-linecap="round" stroke-linejoin="round" d="M779.69 154.23C779.34 153.90 777.96 152.04 777.36 152.00C776.76 151.96 775.98 153.02 775.71 153.95C775.43 154.88 775.39 157.31 775.52 158.21C775.65 159.11 776.14 159.55 776.58 159.95C777.02 160.36 777.19 160.71 778.46 160.90C779.72 161.09 784.16 160.93 785.00 161.23C785.85 161.52 784.81 162.18 784.08 162.88C783.35 163.59 780.74 165.47 780.14 165.92"/><path fill="none" stroke="#1eb511" stroke-width="2.0" stroke-linecap="round" stroke-linejoin="round" d="M713.15 256.30C713.05 255.93 711.49 252.64 712.48 253.81C713.47 254.98 718.41 262.27 719.75 264.10C720.75 265.47 720.98 265.72 721.40 266.03C721.83 266.34 722.41 266.17 722.59 266.19"/><path fill="none" stroke="#1eb511" stroke-width="2.0" stroke-linecap="round" stroke-linejoin="round" d="M714.50 262.60C714.44 262.52 713.94 262.48 714.10 262.07C714.34 261.46 715.53 260.13 716.10 258.49C716.67 256.86 716.62 250.49 717.90 251.18C719.19 251.87 723.53 261.31 724.65 263.08C724.92 263.51 725.17 263.44 725.40 263.00C725.88 262.06 727.34 257.91 727.90 256.79C728.41 255.75 728.68 256.17 729.10 255.53C729.52 254.90 730.48 253.23 730.70 252.54C730.93 251.86 730.76 251.35 730.60 250.96C730.45 250.57 729.96 250.10 729.67 249.95C729.37 249.80 728.89 249.81 728.62 249.96C728.35 250.12 727.96 250.56 727.87 250.97C727.77 251.37 727.80 252.14 727.99 252.65C728.19 253.17 728.66 253.98 729.17 254.38C729.68 254.77 730.60 255.28 731.36 255.30C732.13 255.32 733.44 254.96 734.28 254.50C735.12 254.05 736.57 252.59 736.98 252.25"/><path fill="none" stroke="#1eb511" stroke-width="2.0" stroke-linecap="round" stroke-linejoin="round" d="M746.42 245.51C746.55 246.03 746.96 248.17 747.29 248.98C747.61 249.78 749.16 251.87 748.59 250.90C748.03 249.93 744.50 244.35 743.51 242.49C742.51 240.64 742.27 239.66 741.96 238.53C741.65 237.41 741.45 235.83 741.46 234.99C741.47 234.15 741.72 233.29 742.03 232.91C742.34 232.53 742.88 231.92 743.52 232.47C744.15 233.03 745.89 234.92 746.26 236.61C746.62 238.29 746.01 242.65 745.97 243.71"/><path fill="none" stroke="#1eb511" stroke-width="2.0" stroke-linecap="round" stroke-linejoin="round" d="M752.27 232.47C752.54 233.24 754.12 237.14 754.06 237.58C754.01 238.02 752.52 236.53 751.90 235.41C751.28 234.29 750.21 231.32 749.91 230.13C749.60 228.94 749.71 228.19 749.86 227.46C750.01 226.73 750.62 225.67 750.92 225.28C751.21 224.88 751.68 224.89 751.82 224.83"/><path fill="none" stroke="#1eb511" stroke-width="2.0" stroke-linecap="round" stroke-linejoin="round" d="M758.56 224.38C758.40 224.29 757.86 223.69 757.50 223.80C757.14 223.92 756.44 224.59 756.15 225.17C755.86 225.74 755.64 226.86 755.56 227.62C755.48 228.37 755.45 229.51 755.62 230.20C755.79 230.89 756.30 231.83 756.72 232.21C757.15 232.58 757.98 232.76 758.47 232.72C758.96 232.67 759.64 232.36 759.98 231.90C760.31 231.43 760.62 230.38 760.70 229.61C760.78 228.84 760.78 227.56 760.52 226.77C760.26 225.98 759.64 225.01 758.95 224.31C758.25 223.61 756.33 222.46 755.86 222.13"/><path fill="none" stroke="#1eb511" stroke-width="2.0" stroke-linecap="round" stroke-linejoin="round" d="M759.91 214.48C759.78 214.69 758.62 214.82 759.01 215.83C759.69 217.60 763.60 225.77 764.43 226.28C765.27 226.79 764.47 220.48 764.57 219.23C764.65 218.31 764.94 218.13 765.15 217.96C765.36 217.79 765.74 217.86 765.98 218.07C766.22 218.28 766.57 218.49 766.73 219.38C766.89 220.27 767.22 222.97 767.07 223.99C766.93 225.01 765.95 225.85 765.76 226.17"/><path fill="none" stroke="#1eb511" stroke-width="2.0" stroke-linecap="round" stroke-linejoin="round" d="M769.80 213.13C769.48 213.02 768.13 212.00 767.66 212.34C767.20 212.69 766.66 214.31 766.69 215.46C766.72 216.61 767.49 219.22 767.84 220.01C768.19 220.81 768.64 220.76 769.01 220.77C769.38 220.78 769.98 220.50 770.32 220.09C770.65 219.68 771.07 218.98 771.22 218.05C771.37 217.12 771.12 214.15 771.30 213.90C771.47 213.65 772.00 215.86 772.36 216.40C772.72 216.94 773.27 217.34 773.70 217.49C774.13 217.65 774.89 217.68 775.24 217.45C775.59 217.21 775.98 216.65 776.03 215.91C776.09 215.17 775.92 213.71 775.63 212.51C775.33 211.30 774.97 210.26 774.05 207.90C773.13 205.53 769.36 196.28 769.50 196.71C769.63 197.15 773.97 209.57 774.92 210.79C775.88 212.00 775.59 205.93 775.86 204.81C776.13 203.68 776.42 203.55 776.72 203.29C777.02 203.03 777.52 202.98 777.84 203.09C778.15 203.20 778.54 203.26 778.79 204.01C779.03 204.76 779.61 207.00 779.48 208.10C779.34 209.20 778.20 210.85 777.90 211.34C777.74 211.59 777.51 211.34 777.45 211.34"/><path fill="none" stroke="#1eb511" stroke-width="2.0" stroke-linecap="round" stroke-linejoin="round" d="M780.14 200.99C780.46 201.31 781.76 202.34 782.23 203.08C782.70 203.82 783.13 205.51 783.29 205.94"/><path fill="none" stroke="#1eb511" stroke-width="2.0" stroke-linecap="round" stroke-linejoin="round" d="M778.35 199.65C778.35 199.58 778.35 199.26 778.35 199.20"/><path fill="none" stroke="#1eb511" stroke-width="2.0" stroke-linecap="round" stroke-linejoin="round" d="M779.25 191.55C779.48 191.65 780.20 191.27 780.78 192.23C781.82 193.95 785.17 201.33 786.15 203.05C786.60 203.83 787.16 203.73 787.34 203.69C787.52 203.65 787.34 202.93 787.34 202.79"/><path fill="none" stroke="#1eb511" stroke-width="2.0" stroke-linecap="round" stroke-linejoin="round" d="M786.44 195.15C786.44 195.01 786.30 193.84 786.44 194.25C786.57 194.65 787.20 197.31 787.34 197.85"/><path fill="none" stroke="#1eb511" stroke-width="2.0" stroke-linecap="round" stroke-linejoin="round" d="M785.54 192.00C785.47 191.87 785.16 191.24 785.09 191.10"/><path fill="none" stroke="#1eb511" stroke-width="2.0" stroke-linecap="round" stroke-linejoin="round" d="M785.99 183.46C786.21 183.56 786.82 183.27 787.44 184.14C788.14 185.12 790.03 188.40 790.68 189.99C791.33 191.58 791.70 193.93 791.79 194.74C791.85 195.27 791.50 195.32 791.30 195.37C791.10 195.42 790.75 195.41 790.47 195.06C790.20 194.71 789.57 193.52 789.45 193.05C789.33 192.57 789.36 192.61 789.67 191.88C790.31 190.38 792.80 183.46 793.71 183.00C794.63 182.53 795.20 187.80 795.78 188.79C796.35 189.78 797.00 189.67 797.52 189.62C798.05 189.58 798.90 189.03 799.28 188.48C799.67 187.93 800.03 186.83 800.12 185.96C800.20 185.09 800.11 183.65 799.87 182.71C799.63 181.78 799.05 180.54 798.52 179.72C797.98 178.91 795.64 176.00 796.31 177.28C796.98 178.55 801.21 184.67 802.99 188.22C804.77 191.77 807.43 198.33 808.18 200.93C808.93 203.53 808.35 204.47 807.99 205.56C807.63 206.64 806.58 207.59 805.77 208.19C804.97 208.79 803.10 209.34 802.63 209.54"/><path fill="none" stroke="#1eb511" stroke-width="2.0" stroke-linecap="round" stroke-linejoin="round" d="M764.86 245.51C765.48 247.77 768.55 259.05 769.04 260.60C769.53 262.14 768.16 257.14 768.11 255.81C768.06 254.49 768.48 252.37 768.72 251.77C768.94 251.18 769.35 251.51 769.66 251.76C769.98 252.00 770.49 252.35 770.81 253.41C771.13 254.48 771.73 257.73 771.78 258.84C771.82 259.94 771.48 260.37 771.12 260.80C770.76 261.23 769.62 261.56 769.35 261.70"/><path fill="none" stroke="#1eb511" stroke-width="2.0" stroke-linecap="round" stroke-linejoin="round" d="M773.40 254.05C773.67 253.09 775.02 249.21 775.19 247.63C775.37 246.05 774.81 244.14 774.58 243.50C774.38 242.93 773.95 242.84 773.68 243.39C773.36 244.05 772.41 246.38 772.44 247.90C772.47 249.42 773.40 252.46 773.89 253.53C774.37 254.60 775.08 254.84 775.68 255.05C776.28 255.26 777.23 255.37 777.90 254.95C778.57 254.53 779.81 252.66 780.14 252.25"/><path fill="none" stroke="#1eb511" stroke-width="2.0" stroke-linecap="round" stroke-linejoin="round" d="M783.29 237.87C783.07 237.90 782.16 237.71 781.82 238.09C781.48 238.48 781.09 239.19 781.04 240.44C781.00 241.70 781.29 245.26 781.55 246.46C781.80 247.67 782.35 248.08 782.76 248.46C783.17 248.84 783.81 249.14 784.28 248.98C784.75 248.82 785.23 248.67 785.89 247.41C786.55 246.14 788.27 241.59 788.69 240.56"/><path fill="none" stroke="#1eb511" stroke-width="2.0" stroke-linecap="round" stroke-linejoin="round" d="M789.59 236.07C789.32 235.59 788.31 233.00 787.79 232.92C787.27 232.84 786.45 234.67 786.12 235.51C785.79 236.35 785.47 237.37 785.61 238.55C785.76 239.72 786.65 242.62 787.11 243.36C787.56 244.11 788.22 243.70 788.63 243.51C789.03 243.32 789.53 242.70 789.81 242.10C790.09 241.50 790.37 240.38 790.50 239.51C790.62 238.63 790.92 237.51 790.64 236.25C790.37 234.99 788.98 231.89 788.69 231.12"/><path fill="none" stroke="#1eb511" stroke-width="2.0" stroke-linecap="round" stroke-linejoin="round" d="M793.63 229.77C794.04 230.88 796.25 237.09 796.36 237.15C796.46 237.22 794.61 231.89 794.34 230.21C794.07 228.53 794.35 226.57 794.57 225.96C794.79 225.35 795.39 225.87 795.81 226.15C796.24 226.44 796.74 226.88 797.42 227.85C798.10 228.83 799.97 232.86 800.35 232.66C800.73 232.46 799.99 227.79 799.94 226.54C799.89 225.30 799.94 224.83 800.03 224.35C800.11 223.86 800.30 223.46 800.51 223.31C800.71 223.16 800.89 223.03 801.39 223.34C801.91 223.66 803.37 225.06 803.98 225.45C804.58 225.83 805.00 225.92 805.40 225.90C805.80 225.88 806.30 226.05 806.65 225.30C807.00 224.55 807.74 222.26 807.74 220.91C807.73 219.55 806.92 217.04 806.61 216.27C806.35 215.60 805.92 215.67 805.67 215.75C805.42 215.82 805.05 215.95 804.96 216.78C804.85 217.72 804.82 220.88 804.99 222.03C805.16 223.19 805.65 223.96 806.08 224.50C806.51 225.04 807.28 225.56 807.88 225.64C808.48 225.73 809.41 225.51 810.06 225.06C810.71 224.62 811.67 223.55 812.21 222.67C812.75 221.79 813.39 220.24 813.66 219.18C813.93 218.11 814.05 216.58 814.01 215.57C813.97 214.57 813.67 213.21 813.40 212.47C813.13 211.74 812.72 210.98 812.21 210.67C811.70 210.35 810.31 210.08 809.99 210.35C809.67 210.62 809.85 211.99 810.08 212.48C810.30 212.97 810.43 213.04 811.49 213.64C812.87 214.42 818.20 216.90 819.30 217.70C820.04 218.24 819.22 218.59 818.81 218.98C818.40 219.37 816.90 220.13 816.57 220.33"/><path fill="none" stroke="#1eb511" stroke-width="2.0" stroke-linecap="round" stroke-linejoin="round" d="M827.36 191.55C827.13 191.31 826.22 190.20 825.82 189.95C825.42 189.70 825.11 189.49 824.70 189.88C824.28 190.27 823.22 191.93 823.06 192.58C822.89 193.22 823.30 193.80 823.60 194.18C823.90 194.56 824.00 194.73 825.05 195.13C826.10 195.52 829.87 196.19 830.61 196.80C831.34 197.41 830.52 198.65 829.96 199.21C829.41 199.78 827.37 200.34 826.91 200.54"/><path fill="none" stroke="#1eb511" stroke-width="2.0" stroke-linecap="round" stroke-linejoin="round" d="M830.51 185.26C830.83 186.09 832.03 189.55 832.69 190.81C833.35 192.07 834.45 193.35 834.91 193.65C835.37 193.96 835.58 193.30 835.77 192.83C835.97 192.35 836.28 191.86 836.20 190.48C836.12 189.10 835.16 184.13 835.27 183.63C835.37 183.12 836.37 186.32 836.89 187.12C837.41 187.93 838.14 188.59 838.73 188.98C839.32 189.38 840.39 189.70 840.85 189.75C841.30 189.80 841.61 189.37 841.75 189.30"/><path fill="none" stroke="#1eb511" stroke-width="2.0" stroke-linecap="round" stroke-linejoin="round" d="M842.65 183.91C843.06 185.42 845.70 193.98 845.40 194.02C845.10 194.06 841.53 186.26 840.65 184.16C839.77 182.05 839.68 181.09 839.52 179.99C839.36 178.90 839.40 177.58 839.58 176.85C839.75 176.11 840.27 175.36 840.72 175.09C841.16 174.82 842.02 174.84 842.56 175.05C843.10 175.25 843.91 175.92 844.33 176.48C844.75 177.04 845.16 178.01 845.36 178.76C845.56 179.51 845.75 180.70 845.68 181.48C845.62 182.25 845.25 183.37 844.93 183.94C844.61 184.51 843.75 185.06 843.55 185.26"/><path fill="none" stroke="#1eb511" stroke-width="2.0" stroke-linecap="round" stroke-linejoin="round" d="M848.49 176.71C848.79 175.88 850.32 172.32 850.46 171.15C850.60 169.98 849.89 168.77 849.41 168.92C848.93 169.07 847.63 171.27 847.25 172.15C846.87 173.02 846.86 174.01 846.88 174.76C846.91 175.50 847.17 176.54 847.44 177.12C847.71 177.69 848.23 178.30 848.67 178.57C849.11 178.83 849.82 179.02 850.36 178.89C850.91 178.76 851.71 178.58 852.31 177.71C852.91 176.84 854.03 173.80 854.34 173.12"/><path fill="none" stroke="#1eb511" stroke-width="2.0" stroke-linecap="round" stroke-linejoin="round" d="M854.34 164.57C854.80 166.06 857.06 173.88 857.44 174.50C857.82 175.11 856.71 170.23 856.86 168.70C857.01 167.16 857.99 165.07 858.42 164.25C858.85 163.43 859.54 163.38 859.73 163.22"/><path fill="none" stroke="#1eb511" stroke-width="2.0" stroke-linecap="round" stroke-linejoin="round" d="M827.36 242.36C826.71 242.02 823.91 239.99 823.02 240.11C822.12 240.24 821.48 242.21 821.38 243.18C821.28 244.15 821.38 245.79 822.38 246.57C823.37 247.36 826.89 247.89 828.00 248.41C829.12 248.94 829.90 249.48 829.80 250.06C829.70 250.64 827.86 251.93 827.36 252.25C826.86 252.58 826.59 252.25 826.46 252.25"/><path fill="none" stroke="#1eb511" stroke-width="2.0" stroke-linecap="round" stroke-linejoin="round" d="M830.06 238.32C830.30 238.86 831.11 241.00 831.69 241.97C832.27 242.94 833.83 245.24 833.93 244.80C834.04 244.35 832.61 240.43 832.39 239.01C832.17 237.58 832.13 235.70 832.46 235.29C832.79 234.89 833.83 235.64 834.59 236.31C835.36 236.99 837.16 240.46 837.58 239.78C838.00 239.10 837.32 233.12 837.39 231.77C837.43 230.97 837.28 230.45 838.02 230.75C838.95 231.13 842.72 233.74 843.55 234.27"/><path fill="none" stroke="#1eb511" stroke-width="2.0" stroke-linecap="round" stroke-linejoin="round" d="M848.04 224.38C847.74 224.19 846.49 223.20 846.02 223.13C845.56 223.05 845.25 223.06 844.93 223.90C844.61 224.74 843.88 227.46 843.91 228.74C843.93 230.02 844.74 231.89 845.08 232.41C845.42 232.93 845.86 232.49 846.18 232.21C846.50 231.93 846.82 231.64 847.19 230.54C847.56 229.45 847.98 225.61 848.63 224.91C849.27 224.20 850.81 225.76 851.50 225.84C852.18 225.93 852.77 225.82 853.22 225.47C853.68 225.13 854.28 224.31 854.53 223.53C854.78 222.75 854.97 221.40 854.90 220.30C854.83 219.20 854.45 217.40 854.07 216.20C853.68 214.99 852.89 213.23 852.34 212.25C851.79 211.26 850.91 210.15 850.38 209.63C849.86 209.10 849.17 208.71 848.87 208.75C848.57 208.80 848.38 209.35 848.36 209.95C848.34 210.55 848.50 211.82 848.74 212.77C848.97 213.72 849.20 214.94 849.91 216.27C850.61 217.60 852.59 220.77 853.41 221.63C854.23 222.49 854.84 222.19 855.37 222.02C855.90 221.86 856.59 221.26 856.95 220.54C857.31 219.83 857.64 218.37 857.76 217.25C857.88 216.13 857.90 214.39 857.75 213.09C857.61 211.79 857.31 210.12 856.79 208.59C856.26 207.06 854.71 203.75 854.27 202.90C854.13 202.63 853.71 202.63 853.82 202.91C854.11 203.71 855.17 206.46 856.22 208.19C857.28 209.92 859.86 213.32 860.86 214.45C861.87 215.57 862.41 215.56 862.91 215.70C863.42 215.84 863.90 215.63 864.23 215.38C864.56 215.13 864.99 214.24 865.13 214.03"/><path fill="none" stroke="#a4a4a4" stroke-width="2.0" stroke-linecap="round" stroke-linejoin="round" d="M230.22 519.35C230.04 519.29 228.56 519.31 229.00 518.96C229.44 518.61 232.28 517.30 233.15 517.01C234.01 516.72 234.44 516.91 234.78 517.02C235.12 517.12 235.37 517.34 235.41 517.71C235.45 518.08 235.61 518.43 235.02 519.48C234.19 520.96 230.58 526.35 229.86 527.61C229.71 527.88 229.92 527.94 230.22 527.89C231.62 527.66 237.86 526.36 239.21 526.09"/><path fill="none" stroke="#a4a4a4" stroke-width="2.0" stroke-linecap="round" stroke-linejoin="round" d="M236.52 511.25C236.42 511.20 235.35 510.96 235.85 510.90C236.39 510.83 239.47 510.82 240.11 510.80"/><path fill="none" stroke="#a4a4a4" stroke-width="2.0" stroke-linecap="round" stroke-linejoin="round" d="M247.76 499.56C247.96 500.98 248.90 507.59 249.11 509.00"/><path fill="none" stroke="#a4a4a4" stroke-width="2.0" stroke-linecap="round" stroke-linejoin="round" d="M228.87 589.94C228.46 590.05 225.40 590.97 226.10 590.69C226.79 590.40 231.84 588.52 233.51 588.03C235.19 587.55 236.87 587.32 237.25 587.47C237.63 587.62 236.24 588.81 236.07 589.04"/><path fill="none" stroke="#a4a4a4" stroke-width="2.0" stroke-linecap="round" stroke-linejoin="round" d="M228.42 600.73C229.70 600.13 235.68 597.29 236.97 596.69"/><path fill="none" stroke="#a4a4a4" stroke-width="2.0" stroke-linecap="round" stroke-linejoin="round" d="M237.87 588.59C237.66 588.59 236.93 588.39 236.52 588.59C236.10 588.80 235.84 588.87 235.10 589.94C234.09 591.43 230.57 597.20 229.77 598.49"/><path fill="none" stroke="#a4a4a4" stroke-width="2.0" stroke-linecap="round" stroke-linejoin="round" d="M236.52 581.40C236.85 581.20 238.43 580.25 238.76 580.05"/><path fill="none" stroke="#a4a4a4" stroke-width="2.0" stroke-linecap="round" stroke-linejoin="round" d="M244.61 572.86C244.61 573.46 244.61 576.30 244.61 576.90"/><path fill="none" stroke="#a4a4a4" stroke-width="2.0" stroke-linecap="round" stroke-linejoin="round" d="M225.72 529.24C228.10 526.82 236.57 517.74 241.56 513.08C246.56 508.43 256.38 500.44 259.00 498.21"/><path fill="none" stroke="#a4a4a4" stroke-width="2.0" stroke-linecap="round" stroke-linejoin="round" d="M225.28 594.89C225.47 594.88 225.92 595.39 226.56 594.82C227.45 594.03 228.27 593.21 231.24 589.60C235.57 584.35 251.78 564.28 255.40 559.82"/><path fill="none" stroke="#79eb70" stroke-opacity="0.5" stroke-width="16.0" stroke-linecap="round" stroke-linejoin="round" d="M512.60 491.02C512.41 493.89 511.57 503.89 511.34 510.13C511.10 516.37 511.01 519.97 511.03 532.61C511.05 545.25 511.24 581.77 511.49 594.39C511.74 607.00 512.48 613.20 512.70 616.74C512.76 617.59 512.78 617.67 513.02 617.99C513.26 618.31 513.26 618.77 514.29 618.86C517.71 619.18 525.41 619.93 535.84 620.11C546.28 620.28 571.46 619.41 583.84 620.03C596.22 620.65 611.27 623.50 618.37 624.24C625.48 624.98 628.58 624.87 631.19 624.97C633.81 625.06 633.51 624.90 635.81 624.86C638.11 624.81 644.40 625.13 646.51 624.68C648.63 624.22 649.03 622.98 649.93 621.82C650.82 620.67 652.00 620.12 652.50 616.98C653.00 613.84 653.43 609.96 653.24 600.89C653.05 591.82 651.59 564.73 651.21 556.53C650.88 549.69 651.08 551.73 650.66 546.27C650.24 540.81 649.44 527.96 648.41 520.15C647.38 512.33 644.63 498.21 643.77 494.16C643.57 493.19 643.70 493.12 642.72 493.12C640.51 493.12 631.86 494.08 629.06 494.17C626.26 494.26 627.40 493.90 624.04 493.72C620.14 493.50 611.40 492.77 603.06 492.72C594.72 492.68 575.89 493.12 568.44 493.41C560.98 493.70 558.02 494.11 553.36 494.68C548.71 495.24 541.29 496.77 537.39 497.15C533.49 497.53 528.97 497.20 527.37 497.21C526.93 497.21 527.15 497.25 526.70 497.22C525.03 497.10 518.44 496.42 516.22 496.39C514.01 496.36 512.32 496.81 511.94 497.01C511.57 497.20 512.72 497.59 513.73 497.68C514.74 497.77 515.39 497.91 518.69 497.61C522.20 497.28 533.90 495.83 537.15 495.51C539.28 495.30 539.59 495.45 540.36 495.48C541.13 495.51 541.96 495.55 542.26 495.73C542.55 495.90 542.69 496.16 542.31 496.65C540.39 499.15 533.05 507.10 529.44 512.38C525.84 517.66 518.02 531.88 518.27 531.87C518.53 531.87 528.85 515.77 531.12 512.35C532.60 510.13 533.00 509.54 533.42 509.07C533.65 508.81 534.05 508.90 533.91 509.22C533.17 510.97 529.96 517.70 528.46 520.80C526.97 523.90 525.23 527.21 523.95 529.87C522.66 532.54 520.76 536.46 519.90 538.59C519.03 540.73 518.23 543.26 518.20 544.12C518.17 544.98 518.94 545.03 519.67 544.36C520.56 543.53 522.55 541.01 524.15 538.63C525.75 536.25 528.52 531.73 530.31 528.50C532.10 525.28 534.65 520.25 536.10 517.13C537.54 514.02 539.20 509.90 539.94 507.73C540.67 505.55 541.09 503.50 541.01 502.62C540.94 501.75 540.19 501.58 539.44 501.91C538.68 502.24 538.00 502.59 535.97 504.84C533.61 507.45 525.95 516.73 523.72 519.32C522.08 521.23 521.72 521.65 521.14 522.09C520.55 522.52 519.90 523.14 519.80 522.25C519.58 520.18 519.71 510.71 519.64 508.28C519.60 506.78 519.50 506.35 519.36 506.04C519.22 505.73 518.89 505.81 518.71 506.22C518.46 506.77 517.99 507.30 517.69 509.68C517.29 512.77 516.26 521.17 516.09 526.83C515.91 532.49 516.19 543.64 516.52 547.43C516.80 550.74 517.49 551.69 518.26 552.09C519.04 552.49 520.38 551.68 521.70 550.13C523.02 548.58 524.26 546.75 527.05 541.77C529.84 536.79 537.06 522.71 540.30 516.94C543.55 511.17 547.40 505.06 548.67 503.30C549.41 502.27 549.10 503.97 548.77 505.19C548.36 506.73 547.94 508.02 545.90 513.54C542.29 523.34 527.78 561.82 524.70 570.52C524.43 571.28 525.02 572.21 525.40 571.50C531.59 560.10 565.25 495.21 565.96 494.49C566.67 493.77 536.70 553.17 530.12 566.69C524.40 578.46 523.74 580.72 522.12 584.62C520.50 588.52 519.26 592.18 519.35 592.69C519.44 593.20 520.79 591.33 522.73 588.00C527.96 579.07 548.11 543.37 554.19 533.15C559.67 523.96 561.15 522.77 563.27 519.92C565.40 517.07 567.69 514.50 568.35 514.17C569.02 513.83 568.70 515.52 567.70 517.69C566.58 520.14 563.37 525.78 560.87 530.51C558.37 535.25 554.23 542.98 551.02 549.27C547.82 555.57 542.25 566.42 539.49 572.46C536.73 578.51 533.58 586.20 532.65 589.59C531.72 592.98 531.98 595.60 533.28 595.05C534.57 594.50 537.68 590.88 541.30 585.94C544.91 581.01 550.85 572.66 557.37 562.15C563.88 551.64 580.08 523.99 584.72 515.88C587.56 510.90 588.75 508.24 588.29 508.06C587.82 507.87 585.41 509.67 581.62 514.62C576.40 521.46 559.62 544.82 553.48 553.67C547.34 562.51 544.49 566.82 540.67 573.61C536.86 580.41 529.80 595.20 528.03 598.98C527.78 599.52 528.61 599.30 528.91 598.79C529.68 597.47 530.53 596.02 533.18 590.19C537.37 580.95 552.52 547.13 556.86 537.21C560.63 528.57 560.88 527.42 562.05 524.05C563.22 520.69 564.58 516.27 564.64 514.78C564.69 513.30 563.70 513.29 562.44 514.14C561.08 515.05 557.86 517.92 555.60 520.87C553.34 523.82 550.23 528.62 547.37 533.79C544.52 538.96 539.54 548.77 536.57 555.35C533.60 561.94 529.99 570.93 527.58 577.69C525.17 584.44 522.28 594.39 520.51 600.38C518.74 606.37 516.46 614.14 515.77 617.61C515.07 621.08 515.36 623.17 515.88 623.51C516.41 623.84 517.59 622.72 519.24 619.86C525.81 608.45 548.92 566.04 559.68 547.40C570.45 528.77 586.27 503.58 590.99 495.63C591.41 494.92 591.66 493.76 591.14 494.40C589.79 496.05 584.46 502.93 582.01 506.62C579.57 510.31 576.92 515.18 574.86 519.01C572.79 522.83 571.25 525.32 568.24 532.13C565.24 538.93 557.56 556.26 554.81 564.36C552.07 572.45 549.80 583.39 549.94 586.10C550.07 588.81 552.83 585.39 555.70 582.42C558.56 579.44 564.86 571.86 569.06 566.24C573.26 560.61 579.57 551.27 583.71 544.90C587.85 538.52 594.59 527.52 596.67 523.75C598.00 521.36 598.87 518.72 597.59 519.75C596.30 520.79 593.73 522.84 588.10 530.66C581.91 539.26 562.64 567.45 556.32 577.07C549.99 586.69 547.95 591.00 545.92 594.81C543.88 598.61 542.89 601.51 542.76 602.45C542.63 603.39 543.87 602.40 545.05 601.05C546.38 599.53 547.62 598.41 551.60 592.32C556.01 585.57 569.00 564.72 574.40 556.11C579.80 547.50 584.29 540.45 587.62 534.92C590.95 529.39 594.62 523.03 596.60 519.27C598.59 515.50 600.21 511.97 600.85 509.80C601.50 507.62 601.60 505.52 600.89 504.77C600.19 504.01 597.77 504.61 596.16 504.77C594.55 504.92 593.72 504.86 590.14 505.80C586.56 506.74 575.39 510.24 572.29 511.01C570.47 511.47 570.24 510.80 569.47 510.94C568.71 511.08 568.01 511.17 567.18 511.96C566.34 512.76 565.66 513.12 563.92 516.26C561.93 519.84 556.95 529.12 553.94 535.82C550.93 542.51 545.70 555.66 543.85 560.92C542.01 566.19 541.90 568.54 541.62 570.91C541.34 573.28 541.24 575.91 541.98 576.71C542.72 577.51 544.47 577.36 546.54 576.22C548.60 575.08 552.69 571.99 555.77 569.11C558.84 566.22 561.47 563.55 567.05 556.97C572.63 550.40 587.02 532.92 592.96 525.29C598.91 517.66 605.79 507.88 606.69 506.10C607.60 504.32 603.44 507.92 598.98 513.44C593.72 519.93 577.97 540.74 571.65 549.38C565.33 558.02 561.09 564.52 556.84 571.01C552.58 577.51 546.43 587.42 543.29 592.69C540.15 597.96 537.44 603.12 535.90 606.14C534.37 609.17 532.99 612.10 533.04 612.86C533.10 613.62 534.47 612.82 536.26 611.20C538.17 609.48 539.65 608.03 545.76 601.39C551.87 594.75 569.94 574.82 576.99 566.93C584.05 559.04 588.31 554.17 592.80 548.79C597.28 543.40 603.44 535.59 606.91 531.02C610.39 526.45 613.99 521.35 615.97 518.31C617.94 515.27 619.10 512.72 620.07 510.75C621.05 508.78 622.07 506.50 622.46 505.15C622.85 503.80 622.79 502.30 622.67 501.77C622.56 501.24 622.15 501.38 621.70 501.61C621.24 501.84 620.80 501.95 619.64 503.30C617.66 505.59 613.66 509.92 608.52 516.90C603.38 523.88 590.71 542.00 585.38 549.82C580.05 557.64 576.34 563.48 573.00 569.04C569.67 574.60 565.31 582.51 563.16 586.89C561.01 591.27 559.27 595.69 558.65 598.23C558.02 600.78 558.18 603.30 559.01 603.86C559.84 604.42 562.22 603.35 564.17 601.96C566.11 600.56 569.23 597.52 571.98 594.54C574.72 591.56 575.85 590.70 582.47 582.11C589.60 572.88 612.73 542.00 619.46 533.00C624.84 525.80 625.50 524.79 627.37 522.07C629.24 519.35 631.08 516.38 631.91 514.89C632.74 513.39 633.92 512.19 632.88 512.10C631.85 512.01 626.76 513.49 624.99 514.28C623.23 515.07 622.81 515.69 621.12 517.34C619.43 519.00 618.26 519.73 613.73 525.32C609.20 530.92 596.45 547.24 590.89 554.64C585.34 562.04 581.58 567.38 576.68 574.64C571.78 581.90 556.00 605.47 558.23 603.04C560.46 600.62 582.89 569.77 591.55 558.46C600.22 547.15 611.05 533.78 616.00 527.63C620.94 521.49 622.13 520.52 624.53 517.51C626.93 514.49 630.76 509.51 631.98 507.53C633.14 505.64 632.72 505.09 632.67 504.28C632.62 503.48 632.26 502.68 631.65 502.15C631.04 501.63 629.72 501.09 628.60 500.78C627.48 500.46 626.61 499.94 624.15 500.04C621.68 500.15 619.88 499.54 612.17 501.46C604.46 503.39 579.14 511.07 572.74 512.86C570.64 513.44 570.27 513.39 569.51 513.39C568.74 513.40 568.07 513.17 567.63 512.89C567.20 512.62 566.82 512.05 566.62 511.54C566.42 511.03 565.90 510.80 566.32 509.48C566.78 508.02 569.01 502.75 569.68 501.80C570.35 500.86 570.69 502.05 570.77 503.21C570.85 504.36 570.80 506.59 570.20 509.48C569.59 512.37 569.45 513.93 566.75 522.46C563.14 533.85 549.77 573.99 546.19 585.38C543.50 593.93 543.52 595.56 542.86 598.40C542.20 601.25 541.65 603.16 541.79 604.36C541.93 605.56 542.78 606.52 543.80 606.40C544.81 606.29 546.45 605.17 548.56 603.60C550.67 602.02 551.92 601.33 557.85 595.89C563.94 590.32 581.80 573.51 589.16 566.43C596.52 559.34 600.93 555.01 606.91 548.67C612.88 542.32 624.78 528.97 629.00 524.12C633.22 519.26 633.24 518.95 635.05 516.28C636.85 513.61 642.47 504.95 641.05 506.31C639.64 507.66 631.37 517.67 625.61 525.30C619.85 532.93 607.61 550.13 602.67 557.16C597.73 564.20 596.20 566.61 592.69 572.19C589.18 577.77 581.97 589.27 579.29 594.36C576.62 599.46 575.57 603.91 574.88 606.15C574.27 608.14 574.55 608.64 574.73 609.27C574.91 609.90 575.03 610.81 576.10 610.36C577.25 609.87 579.61 608.77 582.44 606.01C585.27 603.24 591.87 595.52 594.95 591.93C598.04 588.35 598.71 587.69 602.99 582.10C607.27 576.51 617.88 562.44 623.49 554.66C629.10 546.89 639.33 531.56 640.40 530.28C641.46 529.00 637.66 535.90 630.61 546.11C622.45 557.94 592.35 599.97 585.99 609.11C584.84 610.75 586.66 608.36 588.16 607.03C595.31 600.64 628.67 569.21 633.68 566.56C638.69 563.91 624.84 583.63 621.54 589.36C618.24 595.10 613.54 602.20 611.70 604.80C610.50 606.49 609.56 606.86 609.24 606.70C608.93 606.54 608.98 605.60 609.62 603.74C610.25 601.88 610.92 600.07 613.47 594.30C616.03 588.53 623.81 571.77 626.65 565.25C629.48 558.73 631.09 553.96 632.36 550.83C633.63 547.70 635.71 539.79 635.11 544.41C634.48 549.21 629.61 575.61 628.18 582.85C626.87 589.52 626.90 589.04 625.59 592.72C624.27 596.39 621.36 604.08 619.41 607.33C617.46 610.58 614.22 613.20 612.58 614.38C610.93 615.57 610.39 615.30 608.43 615.26C606.46 615.21 601.46 614.41 599.49 614.06C597.53 613.71 596.19 613.29 595.33 612.92C594.47 612.55 593.90 612.05 593.77 611.60C593.63 611.15 593.87 610.45 594.44 609.91C595.01 609.37 595.30 608.64 597.58 608.01C599.86 607.38 606.68 606.19 609.64 605.69C612.59 605.19 614.99 605.11 617.29 604.65C619.58 604.19 622.73 603.55 624.96 602.62C627.20 601.70 630.44 600.08 632.19 598.48C633.94 596.88 635.61 594.31 636.61 591.93C637.62 589.55 638.53 585.42 638.90 582.62C639.27 579.83 639.36 576.74 639.05 573.31C638.74 569.89 637.17 560.71 636.83 559.81C636.49 558.91 636.32 562.33 636.81 567.30C637.34 572.76 639.84 590.94 640.39 596.21C640.82 600.30 640.59 600.87 640.49 602.37C640.39 603.88 640.32 604.71 639.74 606.25C639.15 607.80 637.31 611.50 636.62 612.68C635.92 613.85 635.89 614.19 635.12 614.08C634.35 613.96 632.55 612.55 631.50 611.94C630.46 611.33 629.43 610.49 628.16 610.00C626.88 609.51 624.89 608.91 623.01 608.65C621.14 608.40 619.20 608.26 615.65 608.29C612.10 608.32 607.22 608.81 599.37 608.84C591.52 608.87 571.31 608.39 563.32 608.50C555.33 608.62 548.92 609.27 546.12 609.58C544.95 609.71 544.25 610.14 544.66 610.56C545.06 610.98 545.81 611.99 548.82 612.41C553.82 613.10 571.05 614.72 577.98 615.18C584.90 615.63 589.93 615.60 594.98 615.47C600.03 615.33 607.40 614.81 611.64 614.29C615.88 613.77 620.50 612.80 623.25 611.97C625.99 611.15 628.26 609.95 629.94 608.78C631.61 607.61 633.37 605.81 634.41 604.16C635.46 602.50 635.86 601.79 636.93 597.76C638.00 593.73 640.65 582.11 641.55 577.31C642.45 572.51 642.67 569.22 642.90 565.74C643.14 562.27 643.16 557.17 643.10 554.15C643.04 551.14 643.15 548.94 642.51 545.64C641.87 542.34 639.63 533.87 638.83 532.15C638.08 530.56 637.61 533.34 637.16 534.19C636.70 535.03 636.01 537.24 635.81 537.78"/><path fill="none" stroke="#004dc0" stroke-width="2.5" stroke-linecap="round" stroke-linejoin="round" d="M722.59 687.07C722.54 686.86 722.05 684.78 722.27 685.69C722.88 688.19 725.98 701.00 726.64 703.70"/><path fill="none" stroke="#004dc0" stroke-width="2.5" stroke-linecap="round" stroke-linejoin="round" d="M724.84 696.51C725.49 695.05 728.97 687.55 729.19 686.77C729.42 685.98 726.80 689.87 726.34 691.28C725.88 692.68 725.71 695.00 726.13 696.12C726.56 697.25 728.10 698.18 729.19 698.78C730.28 699.37 732.75 699.91 733.38 700.11"/><path fill="none" stroke="#004dc0" stroke-width="2.5" stroke-linecap="round" stroke-linejoin="round" d="M740.13 692.91C740.04 692.71 739.84 691.78 739.58 691.56C739.31 691.35 738.95 691.09 738.36 691.49C737.78 691.89 736.16 693.12 735.69 694.25C735.21 695.37 735.10 698.04 735.18 698.98C735.27 699.92 735.84 700.25 736.24 700.52C736.63 700.78 737.32 700.87 737.80 700.75C738.27 700.63 738.85 700.54 739.41 699.69C739.97 698.84 741.11 695.47 741.56 695.07C742.00 694.68 741.85 696.64 742.37 697.06C742.90 697.48 744.67 697.74 745.07 697.86"/><path fill="none" stroke="#004dc0" stroke-width="2.5" stroke-linecap="round" stroke-linejoin="round" d="M761.71 682.57C761.91 682.97 762.86 684.86 763.06 685.27"/><path fill="none" stroke="#004dc0" stroke-width="2.5" stroke-linecap="round" stroke-linejoin="round" d="M758.56 676.28C758.49 675.87 757.98 673.85 758.11 673.58C758.25 673.31 759.26 674.34 759.46 674.48"/><path fill="none" stroke="#004dc0" stroke-width="2.5" stroke-linecap="round" stroke-linejoin="round" d="M772.05 678.52C772.06 678.23 772.27 676.93 772.12 676.54C771.97 676.14 771.54 675.43 771.06 675.90C770.58 676.37 769.12 678.77 768.93 679.67C768.73 680.57 768.88 681.63 769.76 681.89C770.64 682.15 773.83 681.47 774.76 681.42C775.56 681.37 775.78 681.40 775.96 681.53C776.14 681.66 776.08 682.00 775.97 682.29C775.85 682.58 775.95 682.92 775.19 683.47C774.20 684.19 770.23 686.53 769.35 687.07"/><path fill="none" stroke="#004dc0" stroke-width="2.5" stroke-linecap="round" stroke-linejoin="round" d="M786.44 663.24C786.93 664.97 789.11 673.98 789.72 674.82C790.34 675.66 790.25 669.98 790.54 668.84C790.83 667.70 791.26 667.51 791.66 667.22C792.07 666.92 792.78 666.73 793.23 666.86C793.68 666.99 794.39 667.16 794.65 668.09C794.90 669.02 795.11 671.96 794.90 673.05C794.70 674.15 793.98 674.83 793.25 675.38C792.52 675.93 790.52 676.52 790.04 676.72"/><path fill="none" stroke="#004dc0" stroke-width="2.5" stroke-linecap="round" stroke-linejoin="round" d="M799.93 665.03C800.06 665.24 800.63 665.71 800.83 666.38C801.03 667.06 801.21 669.06 801.28 669.53"/><path fill="none" stroke="#004dc0" stroke-width="2.5" stroke-linecap="round" stroke-linejoin="round" d="M797.68 660.54C797.61 660.34 797.16 659.32 797.23 659.19C797.30 659.05 798.00 659.57 798.13 659.64"/><path fill="none" stroke="#004dc0" stroke-width="2.5" stroke-linecap="round" stroke-linejoin="round" d="M806.67 660.54C806.34 661.20 804.68 663.95 804.45 664.96C804.23 665.96 804.87 666.74 805.15 667.24C805.42 667.73 805.89 668.19 806.28 668.26C806.68 668.33 807.34 668.14 807.77 667.71C808.21 667.29 808.92 666.16 809.19 665.40C809.47 664.65 809.69 663.61 809.61 662.69C809.53 661.78 807.72 657.19 808.68 659.31C809.64 661.43 814.83 673.50 816.00 676.84C817.06 679.83 816.54 680.32 816.51 681.57C816.48 682.81 816.33 684.37 815.81 685.12C815.29 685.87 813.87 686.39 813.03 686.55C812.20 686.71 810.82 686.43 810.27 686.17C809.72 685.91 809.51 685.02 809.37 684.82"/><path fill="none" stroke="#004dc0" stroke-width="2.5" stroke-linecap="round" stroke-linejoin="round" d="M816.12 658.29C816.05 657.97 815.83 655.98 815.65 656.17C815.47 656.36 814.98 658.66 814.92 659.55C814.87 660.44 815.08 661.44 815.30 662.09C815.52 662.75 816.02 663.58 816.40 663.94C816.79 664.30 817.43 664.55 817.86 664.49C818.30 664.43 818.95 664.02 819.30 663.54C819.65 663.07 820.07 662.23 820.19 661.31C820.32 660.38 819.79 656.83 820.12 657.37C820.46 657.90 821.71 662.08 822.43 664.87C823.15 667.66 824.53 673.62 824.94 675.95C825.34 678.28 825.35 679.49 825.12 680.43C824.89 681.37 824.02 681.96 823.41 682.22C822.80 682.47 821.62 682.34 821.06 682.12C820.51 681.90 819.92 680.97 819.71 680.77"/><path fill="none" stroke="#004dc0" stroke-width="2.5" stroke-linecap="round" stroke-linejoin="round" d="M826.01 658.74C826.62 657.97 829.47 654.84 830.11 653.60C830.74 652.36 830.38 650.94 830.23 650.47C830.09 650.00 829.49 650.29 829.11 650.47C828.73 650.65 828.05 651.15 827.69 651.66C827.32 652.18 826.89 653.14 826.70 653.90C826.51 654.66 826.36 655.99 826.41 656.76C826.45 657.52 826.70 658.42 826.98 659.00C827.27 659.58 827.82 660.44 828.31 660.62C828.80 660.80 829.59 660.76 830.25 660.21C830.92 659.66 832.38 657.43 832.75 656.94"/><path fill="none" stroke="#004dc0" stroke-width="2.5" stroke-linecap="round" stroke-linejoin="round" d="M833.65 650.20C833.79 650.87 834.25 655.38 834.59 654.70C834.92 654.03 835.70 647.05 835.90 645.70"/><path fill="none" stroke="#004dc0" stroke-width="2.5" stroke-linecap="round" stroke-linejoin="round" d="M861.08 655.59C861.11 655.00 861.47 652.41 861.30 651.62C861.14 650.83 860.48 650.46 859.98 650.32C859.48 650.19 858.55 650.45 857.98 650.72C857.40 650.98 856.65 651.49 856.15 652.10C855.65 652.71 854.89 654.00 854.62 654.77C854.34 655.53 854.22 656.58 854.32 657.20C854.42 657.82 854.85 658.54 855.29 658.88C855.73 659.22 855.95 659.47 857.22 659.47C858.50 659.48 862.73 658.85 863.79 658.89C864.46 658.91 864.29 659.41 864.31 659.75C864.33 660.09 864.19 660.76 863.90 661.16C863.61 661.57 863.06 662.16 862.37 662.47C861.67 662.78 859.75 663.12 859.28 663.24"/><path fill="none" stroke="#004dc0" stroke-width="2.5" stroke-linecap="round" stroke-linejoin="round" d="M868.28 656.04C868.61 657.58 870.70 666.79 870.47 666.28C870.25 665.77 867.29 655.18 866.76 652.65C866.31 650.55 866.70 650.15 866.88 649.43C867.06 648.70 867.49 648.03 867.94 647.83C868.38 647.62 869.07 647.35 869.84 648.06C870.61 648.78 872.60 651.44 873.08 652.59C873.55 653.74 873.24 654.80 872.99 655.72C872.75 656.64 871.86 658.15 871.42 658.74C870.99 659.33 870.28 659.50 870.07 659.64"/><path fill="none" stroke="#004dc0" stroke-width="2.5" stroke-linecap="round" stroke-linejoin="round" d="M876.37 648.40C876.80 649.23 878.96 653.89 879.22 653.92C879.48 653.95 878.22 649.66 878.10 648.60C877.97 647.53 878.05 647.39 878.40 646.82C878.75 646.25 880.11 645.10 880.42 644.80"/><path fill="none" stroke="#004dc0" stroke-width="2.5" stroke-linecap="round" stroke-linejoin="round" d="M884.91 649.30C885.12 649.97 886.06 653.12 886.26 653.79"/><path fill="none" stroke="#004dc0" stroke-width="2.5" stroke-linecap="round" stroke-linejoin="round" d="M882.66 641.65C882.60 641.52 882.01 640.82 882.22 640.75C882.42 640.69 883.74 641.13 884.01 641.20"/><path fill="none" stroke="#004dc0" stroke-width="2.5" stroke-linecap="round" stroke-linejoin="round" d="M894.36 647.05C894.40 647.56 894.68 650.90 894.64 650.45C894.61 649.99 894.02 645.22 894.13 644.01C894.23 642.80 894.79 642.05 895.36 642.37C895.94 642.70 897.56 645.58 897.95 646.15"/><path fill="none" stroke="#004dc0" stroke-width="2.5" stroke-linecap="round" stroke-linejoin="round" d="M907.40 640.30C907.46 639.90 908.20 638.08 907.85 637.61C907.49 637.13 905.69 636.85 905.03 637.16C904.37 637.48 903.64 638.56 903.45 639.69C903.25 640.82 903.36 643.81 903.69 644.68C904.03 645.56 904.99 645.55 905.65 645.52C906.31 645.49 907.42 645.00 908.08 644.49C908.75 643.98 909.60 642.88 910.06 642.09C910.51 641.31 910.99 640.02 911.12 639.25C911.25 638.48 911.09 637.46 910.92 636.98C910.75 636.51 910.22 636.03 909.99 636.06C909.76 636.08 909.37 636.47 909.39 637.14C909.40 637.80 909.13 638.42 910.12 640.48C912.33 645.08 921.65 662.23 924.15 667.86C926.65 673.48 926.46 676.23 926.81 677.98C927.02 679.01 926.67 679.41 926.52 679.53C926.37 679.65 925.98 679.31 925.81 678.77C925.65 678.24 925.41 677.85 925.41 675.95C925.42 673.41 925.77 664.00 925.83 661.89"/><path fill="none" stroke="#004dc0" stroke-width="2.5" stroke-linecap="round" stroke-linejoin="round" d="M929.88 630.86C929.92 630.40 930.35 628.02 930.13 627.76C929.91 627.51 928.89 628.11 928.39 629.16C927.89 630.22 926.97 633.57 926.80 634.80C926.64 636.02 926.99 636.71 927.30 637.35C927.62 637.99 928.18 638.88 928.89 639.04C929.60 639.20 930.53 639.30 932.03 638.41C933.53 637.52 937.84 633.90 938.87 633.11"/><path fill="none" stroke="#004dc0" stroke-width="2.5" stroke-linecap="round" stroke-linejoin="round" d="M938.87 627.71C938.40 627.58 936.30 626.17 935.72 626.81C935.15 627.46 934.91 630.85 935.02 631.99C935.14 633.14 935.98 634.00 936.50 634.47C937.01 634.94 937.88 635.08 938.44 635.13C939.01 635.18 939.82 635.19 940.29 634.80C940.75 634.41 941.28 633.25 941.54 632.51C941.79 631.78 942.03 630.96 941.96 629.91C941.90 628.85 941.25 626.13 941.12 625.46"/><path fill="none" stroke="#004dc0" stroke-width="2.5" stroke-linecap="round" stroke-linejoin="round" d="M944.72 622.77C944.84 623.85 945.23 629.94 945.51 630.01C945.79 630.08 946.29 624.56 946.58 623.23C946.88 621.89 947.17 621.52 947.46 621.10C947.76 620.68 947.98 619.81 948.55 620.44C949.17 621.12 950.97 624.71 951.59 625.66C952.17 626.53 952.32 626.67 952.70 626.78C953.07 626.88 953.51 627.14 954.09 626.37C954.67 625.59 956.14 622.78 956.58 621.63C957.03 620.47 957.04 619.44 957.04 618.67C957.04 617.90 956.84 616.97 956.56 616.50C956.29 616.03 955.67 615.64 955.21 615.54C954.75 615.44 953.93 615.58 953.50 615.83C953.06 616.08 952.48 616.73 952.28 617.19C952.08 617.66 951.97 618.39 952.15 618.92C952.34 619.45 952.38 619.78 953.50 620.71C954.61 621.65 958.62 624.28 959.58 625.12C960.20 625.66 960.52 625.92 959.91 626.31C959.30 626.70 956.17 627.50 955.51 627.71"/><path fill="none" stroke="#004dc0" stroke-width="2.5" stroke-linecap="round" stroke-linejoin="round" d="M961.35 606.58C961.54 606.67 962.20 606.63 962.60 607.19C963.01 607.76 963.49 608.66 964.03 610.36C964.57 612.05 965.86 616.83 966.20 618.49C966.54 620.15 966.29 620.98 966.30 621.42"/><path fill="none" stroke="#004dc0" stroke-width="2.5" stroke-linecap="round" stroke-linejoin="round" d="M961.80 616.02C961.74 615.82 960.60 615.24 961.35 614.67C962.16 614.07 966.32 612.38 967.20 611.98"/><path fill="none" stroke="#004dc0" stroke-width="2.5" stroke-linecap="round" stroke-linejoin="round" d="M975.29 608.38C975.02 608.38 973.94 608.15 973.49 608.38C973.04 608.61 972.71 609.00 972.29 609.92C971.87 610.83 970.89 613.49 970.72 614.47C970.54 615.46 970.91 616.03 971.12 616.46C971.34 616.89 971.78 617.33 972.14 617.36C972.50 617.38 973.07 617.13 973.54 616.63C974.01 616.14 974.83 615.22 975.27 614.07C975.71 612.92 976.16 609.12 976.47 608.98C976.78 608.83 977.02 612.31 977.31 613.10C977.61 613.89 978.09 614.07 978.45 614.24C978.80 614.41 979.32 614.41 979.67 614.22C980.02 614.02 980.46 614.03 980.79 612.96C981.14 611.79 981.84 607.47 982.05 606.40C982.13 605.99 982.10 605.38 982.18 605.79C982.37 606.79 983.14 612.82 983.33 613.04C983.53 613.26 983.32 608.62 983.47 607.26C983.61 605.89 983.57 603.57 984.30 603.94C985.03 604.31 987.73 608.86 988.33 609.73"/><path fill="none" stroke="#004dc0" stroke-width="2.5" stroke-linecap="round" stroke-linejoin="round" d="M990.58 591.29C990.58 591.16 990.40 589.82 990.58 590.39C991.30 592.61 994.69 603.55 995.40 606.06C995.59 606.72 995.58 607.02 995.33 607.09C995.08 607.17 993.97 606.66 993.73 606.58"/><path fill="none" stroke="#004dc0" stroke-width="2.5" stroke-linecap="round" stroke-linejoin="round" d="M989.23 603.43C989.30 603.16 988.94 602.31 989.68 601.63C990.42 600.96 993.50 599.34 994.18 598.94"/><path fill="none" stroke="#004dc0" stroke-width="2.5" stroke-linecap="round" stroke-linejoin="round" d="M1002.27 594.89C1002.14 594.89 1001.51 594.89 1001.37 594.89"/>
</svg>