<?xml version="1.0" encoding="UTF-8"?>
<!DOCTYPE svg PUBLIC "-//W3C//DTD SVG 1.1//EN" "http://www.w3.org/Graphics/SVG/1.1/DTD/svg11.dtd">
<svg  xmlns="http://www.w3.org/2000/svg" xmlns:xlink="http://www.w3.org/1999/xlink" viewport-fill="none" viewBox="0.0, 0.0, 765.321040785618, 651.8157817864553" version="1.1" height="651.8157817864553" width="765.321040785618">
<path fill="none" stroke="#d1000d" stroke-width="2.0" stroke-linecap="round" stroke-linejoin="round" d="M560.71 542.28C560.39 541.42 558.98 532.48 558.52 536.55C557.52 545.39 555.49 585.69 554.06 601.21C552.62 616.74 549.72 634.12 548.97 640.03C548.92 640.42 548.71 640.49 549.09 640.61C549.72 640.80 552.07 641.08 553.17 641.35C554.28 641.63 554.23 641.82 556.43 642.44C559.61 643.33 568.88 646.22 574.35 647.28C579.83 648.33 586.88 649.11 592.94 649.46C599.00 649.80 604.49 650.00 614.73 649.58C624.97 649.17 652.40 647.15 661.18 646.70C669.24 646.29 665.22 646.27 673.29 646.57C682.58 646.91 714.05 648.79 723.15 648.99C730.39 649.15 731.64 648.22 733.97 647.93C736.29 647.65 735.56 647.77 738.66 647.09C741.81 646.39 751.74 644.41 754.97 643.32C758.20 642.22 759.19 640.67 760.20 639.77C761.22 638.87 761.29 639.08 761.71 637.33C762.14 635.58 762.83 632.02 763.05 628.10C763.27 624.18 763.46 620.00 763.18 611.19C762.90 602.38 761.21 578.48 761.17 569.36C761.14 560.24 762.64 553.81 762.94 550.38C763.17 547.78 763.27 548.09 763.18 546.48C763.09 544.87 762.69 540.84 762.36 539.64C762.04 538.47 762.19 538.56 760.98 538.46C754.02 537.86 726.95 536.01 715.98 535.64C705.01 535.26 693.53 535.86 687.85 535.95C682.18 536.04 684.62 536.13 678.14 536.24C671.10 536.36 652.09 536.26 640.89 536.77C629.68 537.28 613.49 539.30 603.46 539.63C593.43 539.96 580.21 538.83 574.00 538.95C567.79 539.08 563.85 540.25 562.06 540.48"/><path fill="none" stroke="#d1000d" stroke-width="2.0" stroke-linecap="round" stroke-linejoin="round" d="M605.23 515.75C605.04 515.57 602.79 514.68 603.95 514.55C606.58 514.25 617.35 513.76 622.76 513.78C628.16 513.80 636.37 514.36 639.99 514.70C643.61 515.03 645.14 515.53 646.91 515.99C648.67 516.45 650.64 517.14 651.74 517.75C652.84 518.36 653.76 519.31 654.23 520.04C654.70 520.77 654.85 521.81 654.86 522.59C654.86 523.36 654.83 524.22 654.26 525.20C653.70 526.17 651.53 528.79 651.08 529.09C650.64 529.39 651.07 527.69 651.28 527.18C651.49 526.67 651.90 526.15 652.47 525.69C653.04 525.23 654.01 524.56 655.07 524.13C656.13 523.71 656.45 523.12 659.54 522.85C664.34 522.44 682.06 521.81 687.07 521.36C691.10 520.99 691.37 520.44 692.95 519.84C694.53 519.25 696.44 518.17 697.63 517.39C698.82 516.62 700.06 515.47 700.89 514.68C701.72 513.89 702.74 512.85 703.16 512.13C703.58 511.42 703.62 510.24 703.70 509.90"/>
</svg>