<?xml version="1.0" encoding="UTF-8"?>
<!DOCTYPE svg PUBLIC "-//W3C//DTD SVG 1.1//EN" "http://www.w3.org/Graphics/SVG/1.1/DTD/svg11.dtd">
<svg  xmlns="http://www.w3.org/2000/svg" xmlns:xlink="http://www.w3.org/1999/xlink" viewport-fill="none" viewBox="0.0, 0.0, 443.3809343227499, 496.6415881370164" version="1.1" height="496.6415881370164" width="443.3809343227499">
<path fill="none" stroke="#d1000d" stroke-width="2.5" stroke-linecap="round" stroke-linejoin="round" d="M99.82 457.74C98.35 458.04 92.24 458.73 90.00 459.74C87.77 460.75 85.83 462.53 84.92 464.45C84.01 466.37 83.77 469.99 83.93 472.55C84.08 475.10 84.71 478.92 85.98 481.46C87.25 484.01 90.15 487.66 92.40 489.51C94.65 491.36 98.33 493.24 100.99 493.81C103.65 494.38 107.64 494.21 110.13 493.31C112.62 492.40 115.89 490.01 117.61 487.79C119.33 485.57 121.01 481.48 121.57 478.52C122.12 475.57 121.93 471.09 121.32 468.08C120.70 465.07 119.12 461.08 117.46 458.46C115.81 455.83 112.60 452.25 110.29 450.59C107.98 448.93 103.98 447.48 102.07 447.40C100.16 447.33 98.25 449.70 97.57 450.10"/><path fill="none" stroke="#d1000d" stroke-width="2.5" stroke-linecap="round" stroke-linejoin="round" d="M293.17 458.64C292.75 458.68 290.42 459.42 290.37 458.90C290.33 458.37 291.85 456.21 292.87 455.14C293.90 454.08 294.04 453.59 297.22 451.79C301.07 449.61 315.07 442.59 318.52 440.64C319.99 439.81 321.27 439.12 320.25 438.80C319.23 438.47 312.84 438.48 311.70 438.47C311.04 438.46 312.03 438.53 312.67 438.70C313.94 439.03 319.03 440.19 320.22 440.69C321.06 441.04 320.81 441.40 320.60 442.01C320.39 442.61 319.07 444.30 318.80 444.70"/><path fill="none" stroke="#d1000d" stroke-width="2.5" stroke-linecap="round" stroke-linejoin="round" d="M330.94 424.92C330.81 424.92 329.78 424.42 330.08 424.92C330.93 426.35 336.14 433.65 336.62 434.46C337.10 435.26 334.13 431.62 333.28 430.28C332.43 428.94 331.52 427.06 330.95 425.54C330.39 424.01 329.72 421.61 329.51 420.13C329.29 418.65 329.32 416.68 329.54 415.69C329.75 414.70 330.43 413.82 330.94 413.54C331.45 413.26 332.40 413.41 332.96 413.83C333.52 414.26 334.27 415.47 334.68 416.39C335.09 417.31 335.61 418.90 335.71 419.97C335.80 421.05 335.62 422.49 335.31 423.57C335.00 424.65 333.89 426.63 333.64 427.17"/><path fill="none" stroke="#d1000d" stroke-width="2.5" stroke-linecap="round" stroke-linejoin="round" d="M338.59 414.13C338.82 414.95 340.14 419.04 340.11 419.58C340.07 420.13 338.89 418.78 338.33 417.77C337.77 416.76 336.67 413.94 336.38 412.85C336.08 411.77 336.21 411.15 336.34 410.53C336.47 409.91 336.83 409.20 337.24 408.73C337.64 408.26 338.77 407.59 339.04 407.38"/><path fill="none" stroke="#d1000d" stroke-width="2.5" stroke-linecap="round" stroke-linejoin="round" d="M345.33 406.48C345.25 406.38 344.98 405.71 344.75 405.80C344.53 405.90 344.06 406.29 343.82 407.12C343.58 407.95 343.15 410.43 343.17 411.35C343.19 412.27 343.63 412.88 343.96 413.27C344.28 413.65 344.90 413.96 345.34 413.92C345.78 413.89 346.42 413.93 346.88 413.06C347.34 412.19 348.28 409.23 348.42 408.11C348.57 406.99 348.20 406.23 347.87 405.59C347.54 404.94 346.48 404.06 346.23 403.79"/><path fill="none" stroke="#d1000d" stroke-width="2.5" stroke-linecap="round" stroke-linejoin="round" d="M358.37 406.93C358.57 407.54 359.19 410.00 359.72 410.98C360.25 411.96 362.16 413.75 361.90 413.48C361.63 413.21 359.26 411.11 357.95 409.18C356.64 407.25 354.00 402.58 353.17 400.62C352.34 398.66 352.42 397.32 352.41 396.13C352.41 394.95 352.74 393.42 353.12 392.71C353.50 392.00 354.40 391.51 354.97 391.40C355.54 391.29 356.43 391.52 356.92 391.95C357.40 392.39 357.95 393.48 358.22 394.30C358.49 395.12 358.73 396.47 358.69 397.42C358.65 398.37 358.21 399.89 357.95 400.64C357.70 401.39 357.23 402.24 357.02 402.44C356.82 402.64 356.64 402.06 356.57 401.99"/><path fill="none" stroke="#d1000d" stroke-width="2.5" stroke-linecap="round" stroke-linejoin="round" d="M364.67 384.00C364.40 383.87 363.31 382.53 362.87 383.10C362.43 383.68 361.75 386.68 361.72 387.85C361.69 389.01 362.29 390.13 362.67 390.87C363.05 391.61 363.77 392.43 364.23 392.78C364.68 393.13 365.32 393.38 365.69 393.19C366.06 393.01 366.50 392.19 366.69 391.56C366.89 390.93 367.32 390.27 367.02 389.00C366.71 387.73 365.02 383.99 364.67 383.10"/><path fill="none" stroke="#d1000d" stroke-width="2.5" stroke-linecap="round" stroke-linejoin="round" d="M370.06 376.81C370.58 378.06 373.00 383.71 373.51 385.19C373.83 386.09 374.10 387.21 373.45 386.62C372.80 386.04 369.91 382.47 369.20 381.27C368.49 380.07 368.72 379.48 368.71 378.61C368.71 377.73 369.10 375.93 369.16 375.46"/><path fill="none" stroke="#d1000d" stroke-width="2.5" stroke-linecap="round" stroke-linejoin="round" d="M371.86 364.67C371.86 364.57 371.50 363.82 371.83 364.05C372.24 364.35 373.54 365.28 374.62 366.63C375.69 367.98 378.19 371.62 378.99 373.08C379.79 374.54 379.88 375.53 379.96 376.36C380.03 377.19 379.57 378.27 379.51 378.61"/><path fill="none" stroke="#d1000d" stroke-width="2.5" stroke-linecap="round" stroke-linejoin="round" d="M373.66 375.91C373.52 375.71 372.52 375.53 372.70 374.56C372.87 373.59 374.12 370.70 374.81 369.43C375.51 368.16 376.42 367.03 377.32 366.11C378.23 365.20 380.32 363.74 380.85 363.32"/><path fill="none" stroke="#d1000d" stroke-width="2.5" stroke-linecap="round" stroke-linejoin="round" d="M384.90 367.81C384.86 368.03 385.14 370.01 384.62 369.22C383.81 368.00 380.24 361.21 379.54 359.72C379.36 359.35 379.89 359.34 379.96 359.27"/><path fill="none" stroke="#d1000d" stroke-width="2.5" stroke-linecap="round" stroke-linejoin="round" d="M391.65 355.22C391.51 355.17 390.98 354.82 390.77 354.87C390.55 354.93 390.28 354.99 390.21 355.57C390.13 356.15 390.10 358.01 390.26 358.75C390.43 359.50 390.74 360.13 391.30 360.54C391.86 360.96 393.52 361.86 394.01 361.52C394.50 361.18 394.80 359.48 394.58 358.26C394.36 357.05 392.85 354.15 392.55 353.43"/><path fill="none" stroke="#d1000d" stroke-width="2.5" stroke-linecap="round" stroke-linejoin="round" d="M398.84 350.28C399.37 350.80 401.78 353.02 402.38 353.78C402.98 354.55 403.07 355.54 402.84 355.39C402.61 355.25 401.25 353.58 400.84 352.81C400.42 352.05 400.19 351.06 400.09 350.29C399.98 349.52 399.98 348.35 400.15 347.66C400.32 346.97 400.81 346.08 401.22 345.69C401.63 345.30 402.31 345.12 402.87 345.06C403.44 345.01 404.18 344.74 404.99 345.32C405.80 345.90 407.59 348.39 408.28 348.93C408.98 349.47 409.43 348.93 409.63 348.93"/><path fill="none" stroke="#d1000d" stroke-width="2.5" stroke-linecap="round" stroke-linejoin="round" d="M414.58 339.04C414.55 338.48 414.59 335.90 414.38 335.34C414.17 334.79 413.62 334.67 413.19 335.34C412.72 336.06 411.56 339.03 411.26 340.19C410.96 341.35 411.09 342.38 411.19 343.08C411.28 343.79 411.58 344.64 411.88 344.90C412.19 345.16 412.80 345.09 413.20 344.82C413.60 344.55 414.06 344.20 414.56 343.10C415.06 342.00 415.89 338.26 416.52 337.47C417.15 336.68 418.07 337.91 418.75 337.83C419.43 337.76 420.40 337.55 421.06 336.99C421.72 336.43 422.75 335.26 423.14 334.09C423.54 332.93 423.82 330.82 423.70 329.21C423.57 327.60 423.02 325.08 422.31 323.37C421.60 321.67 420.00 319.25 418.95 317.84C417.90 316.43 416.22 314.73 415.32 313.98C414.42 313.24 413.38 312.83 412.98 312.89C412.58 312.95 412.39 313.56 412.65 314.38C412.92 315.20 413.33 316.29 414.75 318.38C416.17 320.46 420.43 326.38 422.14 328.27C423.84 330.17 425.00 330.62 426.13 330.99C427.26 331.37 428.73 331.17 429.69 330.76C430.66 330.34 431.83 329.13 432.56 328.23C433.28 327.33 434.05 325.95 434.52 324.74C434.99 323.52 435.63 320.78 435.68 320.16C435.72 319.54 434.94 320.54 434.81 320.60"/><path fill="none" stroke="#d1000d" stroke-width="2.0" stroke-linecap="round" stroke-linejoin="round" d="M390.75 401.54C390.57 401.27 389.97 399.98 389.59 399.75C389.22 399.52 388.73 399.26 388.25 399.99C387.77 400.73 386.59 403.41 386.39 404.67C386.19 405.93 386.60 407.41 386.93 408.40C387.25 409.38 387.96 410.62 388.57 411.24C389.19 411.85 390.25 412.46 391.01 412.49C391.77 412.51 392.91 412.04 393.64 411.40C394.37 410.76 395.42 409.24 395.90 408.22C396.38 407.20 396.70 405.70 396.83 404.59C396.97 403.47 397.00 401.55 396.79 400.77C396.57 399.99 396.24 399.41 395.40 399.39C394.56 399.37 391.83 400.45 391.20 400.64"/><path fill="none" stroke="#d1000d" stroke-width="2.0" stroke-linecap="round" stroke-linejoin="round" d="M398.84 390.75C398.77 390.88 398.09 391.04 398.39 391.65C399.16 393.20 403.44 400.37 403.96 401.14C404.49 401.90 402.32 398.09 401.89 396.75C401.46 395.40 401.03 392.95 401.07 392.18C401.11 391.41 401.74 391.60 402.16 391.61C402.58 391.63 403.03 391.73 403.88 392.28C404.73 392.82 407.24 394.80 407.83 395.24"/><path fill="none" stroke="#d1000d" stroke-width="2.0" stroke-linecap="round" stroke-linejoin="round" d="M401.99 375.91C403.54 378.54 410.78 390.81 412.33 393.44"/><path fill="none" stroke="#d1000d" stroke-width="2.0" stroke-linecap="round" stroke-linejoin="round" d="M416.83 375.01C417.04 375.85 417.63 379.34 418.24 380.61C418.86 381.87 420.10 383.13 420.93 383.44C421.75 383.74 423.00 383.12 423.75 382.64C424.50 382.15 425.43 381.25 425.94 380.19C426.45 379.14 426.97 376.96 427.14 375.62C427.32 374.28 427.28 372.42 427.10 371.24C426.92 370.06 426.35 368.55 425.95 367.77C425.56 366.99 424.88 366.34 424.47 366.06C424.05 365.78 423.43 365.72 423.20 365.90C422.96 366.08 422.76 366.59 422.92 367.24C423.08 367.89 423.07 368.41 424.27 370.25C426.27 373.30 433.90 383.91 436.23 387.56C438.56 391.20 439.02 392.51 439.78 394.56C440.54 396.61 441.14 399.42 441.31 401.25C441.47 403.08 441.38 405.27 440.89 406.78C440.40 408.28 439.04 410.23 438.06 411.27C437.08 412.30 435.46 413.38 434.36 413.68C433.27 413.97 431.31 413.30 430.77 413.23"/>
</svg>