<?xml version="1.0" encoding="UTF-8"?>
<!DOCTYPE svg PUBLIC "-//W3C//DTD SVG 1.1//EN" "http://www.w3.org/Graphics/SVG/1.1/DTD/svg11.dtd">
<svg  xmlns="http://www.w3.org/2000/svg" xmlns:xlink="http://www.w3.org/1999/xlink" viewport-fill="none" viewBox="0.0, 0.0, 932.3783569335938, 780.8308429411032" version="1.1" height="780.8308429411032" width="932.3783569335938">
<path fill="none" stroke="#a4a4a4" stroke-width="2.0" stroke-linecap="round" stroke-linejoin="round" d="M428.07 727.09C428.21 726.87 429.51 724.55 429.03 725.61C427.27 729.54 418.32 748.38 416.29 753.25C415.02 756.28 415.60 757.38 415.48 758.11"/><path fill="none" stroke="#a4a4a4" stroke-width="2.0" stroke-linecap="round" stroke-linejoin="round" d="M411.43 748.22C411.37 747.91 411.05 744.75 411.00 746.15C410.92 748.38 410.84 760.18 410.93 763.07C410.99 764.72 411.35 764.99 411.66 765.43C411.97 765.86 412.26 766.60 413.00 765.98C414.65 764.61 421.22 757.76 422.67 756.31"/><path fill="none" stroke="#a4a4a4" stroke-width="2.0" stroke-linecap="round" stroke-linejoin="round" d="M512.60 512.15C512.53 511.36 512.55 508.13 512.15 506.86C511.76 505.60 511.00 504.39 509.97 503.74C508.95 503.08 506.89 502.61 505.33 502.51C503.77 502.42 501.35 502.52 499.56 503.11C497.77 503.71 495.10 505.13 493.40 506.48C491.70 507.83 489.46 510.15 488.22 512.10C486.98 514.06 485.64 517.17 485.14 519.51C484.63 521.85 484.48 525.29 484.85 527.68C485.23 530.07 486.42 533.47 487.67 535.46C488.92 537.44 491.20 539.77 493.18 540.90C495.16 542.04 498.38 542.95 500.85 543.04C503.33 543.12 507.18 542.48 509.65 541.46C512.12 540.44 515.40 538.14 517.31 536.22C519.23 534.30 521.60 531.07 522.43 528.66C523.27 526.25 523.31 522.66 522.90 520.17C522.49 517.68 521.29 514.29 519.72 512.06C518.14 509.84 514.81 506.75 512.40 505.35C509.98 503.95 505.26 502.97 503.61 502.71C502.01 502.46 501.70 503.47 501.36 503.61"/><path fill="none" stroke="#a4a4a4" stroke-width="2.0" stroke-linecap="round" stroke-linejoin="round" d="M485.17 531.49C484.83 531.07 483.86 529.04 482.89 528.69C481.92 528.34 481.34 528.19 478.69 529.14C471.28 531.78 440.25 543.75 433.46 546.33"/><path fill="none" stroke="#a4a4a4" stroke-width="2.0" stroke-linecap="round" stroke-linejoin="round" d="M444.70 534.64C444.49 534.44 443.72 533.47 443.26 533.32C442.79 533.17 442.47 533.11 441.61 533.65C440.75 534.19 438.80 535.51 437.51 536.89C436.22 538.27 434.00 541.11 433.03 542.83C432.05 544.56 431.13 547.37 431.02 548.40C430.91 549.43 431.72 549.43 432.30 549.69C432.87 549.95 433.13 550.28 434.85 550.14C436.85 549.97 443.99 548.81 445.60 548.57"/><path fill="none" stroke="#a4a4a4" stroke-width="2.0" stroke-linecap="round" stroke-linejoin="round" d="M325.55 567.46C325.68 568.00 326.31 570.52 326.45 571.06"/><path fill="none" stroke="#a4a4a4" stroke-width="2.0" stroke-linecap="round" stroke-linejoin="round" d="M321.50 562.96C321.37 562.69 320.74 561.43 320.60 561.16"/><path fill="none" stroke="#a4a4a4" stroke-width="2.0" stroke-linecap="round" stroke-linejoin="round" d="M329.59 565.21C329.69 565.48 330.04 567.33 330.26 566.98C330.48 566.64 330.82 563.60 331.05 562.90C331.26 562.28 331.57 562.41 331.84 562.33C332.11 562.25 332.29 562.01 332.85 562.37C333.53 562.81 335.82 564.79 336.34 565.21"/><path fill="none" stroke="#a4a4a4" stroke-width="2.0" stroke-linecap="round" stroke-linejoin="round" d="M336.79 552.17C336.79 552.02 336.59 550.54 336.79 551.17C337.01 551.89 337.54 554.93 338.28 556.97C339.03 559.01 341.22 563.59 341.73 564.76"/><path fill="none" stroke="#a4a4a4" stroke-width="2.0" stroke-linecap="round" stroke-linejoin="round" d="M336.34 562.51C336.46 561.99 336.78 559.80 337.12 559.04C337.45 558.29 337.76 557.96 338.59 557.47C339.41 556.98 342.03 556.02 342.63 555.77"/><path fill="none" stroke="#a4a4a4" stroke-width="2.0" stroke-linecap="round" stroke-linejoin="round" d="M346.23 561.16C346.64 560.17 348.60 555.82 348.99 554.53C349.37 553.26 349.00 552.95 348.82 552.55C348.64 552.14 348.16 551.84 347.78 551.83C347.40 551.83 346.70 552.07 346.26 552.52C345.81 552.97 345.12 554.01 344.80 554.85C344.48 555.69 344.14 557.15 344.11 558.13C344.08 559.10 344.21 560.58 344.60 561.34C344.99 562.10 345.86 562.94 346.68 563.19C347.50 563.44 348.94 563.34 350.06 563.01C351.18 562.69 352.58 562.24 354.12 561.01C355.66 559.77 359.27 556.07 360.30 554.80C361.30 553.56 361.06 553.06 360.99 552.52C360.91 551.97 360.33 551.43 359.83 551.15C359.33 550.87 358.34 550.72 357.66 550.66C356.99 550.60 355.99 550.60 355.31 550.75C354.64 550.90 353.67 551.24 353.19 551.64C352.70 552.04 352.26 552.79 352.08 553.42C351.90 554.05 351.84 555.18 352.00 555.86C352.16 556.54 352.64 557.49 353.14 557.96C353.64 558.44 354.67 558.90 355.35 559.00C356.03 559.11 357.05 558.98 357.68 558.64C358.32 558.30 359.19 557.41 359.60 556.75C360.00 556.10 360.36 554.99 360.39 554.29C360.42 553.58 360.08 552.56 359.82 552.06C359.56 551.56 358.92 550.97 358.64 550.94C358.36 550.90 357.90 551.22 357.94 551.83C357.97 552.45 357.90 553.03 358.87 555.02C360.42 558.23 366.70 569.73 368.28 573.25C369.73 576.50 369.37 577.18 369.36 578.48C369.35 579.78 368.84 581.20 368.22 581.95C367.60 582.69 366.16 583.22 365.23 583.47C364.29 583.72 362.83 583.79 362.00 583.61C361.18 583.44 360.20 583.04 359.72 582.30C359.24 581.56 358.96 579.24 358.82 578.70"/><path fill="none" stroke="#a4a4a4" stroke-width="2.0" stroke-linecap="round" stroke-linejoin="round" d="M362.87 548.12C363.26 548.77 365.02 551.41 365.49 552.46C365.96 553.51 366.21 554.99 365.99 555.12C365.77 555.25 364.48 553.92 364.03 553.33C363.58 552.73 363.16 551.82 362.98 551.15C362.80 550.49 362.72 549.48 362.84 548.89C362.95 548.30 363.29 547.61 363.77 547.23C364.24 546.84 365.68 546.46 366.02 546.33"/><path fill="none" stroke="#a4a4a4" stroke-width="2.0" stroke-linecap="round" stroke-linejoin="round" d="M372.31 546.78C372.28 546.56 372.24 545.57 372.09 545.32C371.94 545.07 371.68 544.82 371.32 545.12C370.95 545.41 369.95 546.35 369.68 547.28C369.40 548.21 369.39 550.57 369.50 551.33C369.62 552.10 369.87 552.49 370.42 552.40C370.98 552.30 372.54 551.35 373.21 550.70C373.87 550.06 374.22 548.41 374.83 548.11C375.43 547.80 376.68 548.69 377.23 548.67C377.78 548.65 378.19 548.37 378.50 547.95C378.81 547.53 379.18 546.63 379.29 545.87C379.40 545.11 379.39 543.86 379.22 542.90C379.06 541.94 378.74 540.60 378.20 539.47C377.66 538.34 375.99 535.55 375.63 535.38C375.28 535.21 375.32 536.81 375.84 538.34C376.35 539.87 378.32 544.09 379.07 545.60C379.83 547.11 380.42 547.96 380.89 548.41C381.36 548.86 382.01 548.55 382.20 548.57"/><path fill="none" stroke="#a4a4a4" stroke-width="2.0" stroke-linecap="round" stroke-linejoin="round" d="M377.26 544.98C377.21 544.85 376.84 544.51 376.94 544.10C377.04 543.69 377.32 542.77 377.90 542.22C378.49 541.68 380.41 540.74 380.85 540.48"/><path fill="none" stroke="#a4a4a4" stroke-width="2.0" stroke-linecap="round" stroke-linejoin="round" d="M386.25 540.48C386.56 540.09 388.05 538.64 388.32 537.85C388.60 537.06 388.26 535.59 388.07 535.21C387.88 534.84 387.37 534.79 387.05 535.36C386.74 535.92 385.89 538.08 385.97 538.97C386.05 539.86 386.55 540.78 387.60 541.28C388.65 541.78 392.19 542.13 393.00 542.28"/><path fill="none" stroke="#a4a4a4" stroke-width="2.0" stroke-linecap="round" stroke-linejoin="round" d="M342.18 597.59C341.89 597.54 340.60 597.01 340.20 597.27C339.80 597.53 339.51 598.60 339.50 599.34C339.50 600.08 339.84 601.45 340.17 602.20C340.50 602.94 341.12 603.87 341.70 604.30C342.29 604.73 343.39 605.10 344.07 605.06C344.75 605.03 345.75 604.55 346.25 604.06C346.74 603.56 347.23 602.52 347.37 601.74C347.51 600.96 347.42 599.69 347.18 598.88C346.94 598.07 346.34 596.92 345.76 596.33C345.19 595.74 343.88 595.17 343.35 594.95C342.81 594.74 342.43 594.76 342.18 594.89C341.94 595.01 341.80 595.65 341.73 595.79"/><path fill="none" stroke="#a4a4a4" stroke-width="2.0" stroke-linecap="round" stroke-linejoin="round" d="M349.83 595.79C349.93 595.77 350.16 595.38 350.50 595.68C351.33 596.43 354.68 601.26 355.39 600.75C356.11 600.25 355.15 593.84 355.26 592.29C355.35 590.90 355.99 590.68 356.12 590.39"/><path fill="none" stroke="#a4a4a4" stroke-width="2.0" stroke-linecap="round" stroke-linejoin="round" d="M359.27 597.14C359.51 597.18 360.28 597.82 360.87 597.42C361.47 597.03 362.78 595.40 363.23 594.50C363.67 593.61 363.89 592.00 363.86 591.48C363.83 590.97 363.56 590.74 363.03 591.06C362.49 591.39 360.79 592.94 360.26 593.67C359.73 594.39 359.54 595.26 359.48 595.89C359.42 596.52 359.62 597.36 359.84 597.86C360.07 598.36 360.47 599.01 361.00 599.20C361.53 599.39 362.56 599.50 363.38 599.12C364.20 598.75 366.00 597.05 366.47 596.69"/><path fill="none" stroke="#a4a4a4" stroke-width="2.0" stroke-linecap="round" stroke-linejoin="round" d="M368.71 589.94C369.10 590.43 370.87 593.41 371.29 593.19C371.72 592.96 371.36 589.73 371.58 588.43C371.80 587.13 372.58 585.13 372.76 584.55"/><path fill="none" stroke="#a4a4a4" stroke-width="2.0" stroke-linecap="round" stroke-linejoin="round" d="M385.80 580.95C385.67 580.87 384.68 579.75 384.90 580.40C385.12 581.05 386.67 584.43 387.25 585.30C387.83 586.18 388.34 586.12 388.76 586.25C389.19 586.38 389.74 586.39 390.10 586.15C390.46 585.92 390.93 585.86 391.16 584.67C391.39 583.49 391.57 579.21 391.65 578.25"/><path fill="none" stroke="#a4a4a4" stroke-width="2.0" stroke-linecap="round" stroke-linejoin="round" d="M397.49 576.45C397.62 576.25 398.50 575.21 398.32 575.12C398.13 575.03 396.83 575.24 396.25 575.86C395.67 576.48 394.72 578.46 394.47 579.27C394.23 580.09 394.44 580.78 394.62 581.31C394.81 581.84 395.29 582.49 395.70 582.79C396.10 583.09 396.81 583.33 397.32 583.31C397.84 583.30 398.64 583.09 399.13 582.69C399.61 582.30 400.18 581.90 400.54 580.70C400.90 579.49 401.39 575.56 401.54 574.65"/><path fill="none" stroke="#a4a4a4" stroke-width="2.0" stroke-linecap="round" stroke-linejoin="round" d="M402.44 564.76C402.49 565.35 402.38 567.02 402.78 568.68C403.19 570.35 404.49 574.26 405.12 575.83C405.74 577.40 406.39 578.52 406.93 579.15C407.48 579.78 408.46 579.91 408.73 580.05"/><path fill="none" stroke="#a4a4a4" stroke-width="2.0" stroke-linecap="round" stroke-linejoin="round" d="M409.63 571.96C409.76 572.37 410.09 574.14 410.49 574.69C410.90 575.24 411.85 575.94 412.32 575.62C412.80 575.30 413.39 573.59 413.67 572.55C413.95 571.51 413.85 568.68 414.19 568.68C414.52 568.67 415.49 571.81 415.89 572.51C416.29 573.21 416.52 573.32 416.86 573.37C417.20 573.42 417.98 572.93 418.18 572.86"/><path fill="none" stroke="#a4a4a4" stroke-width="2.0" stroke-linecap="round" stroke-linejoin="round" d="M419.97 567.01C420.16 567.85 421.08 572.26 421.23 572.64C421.37 573.02 420.89 570.49 420.94 569.54C420.99 568.60 421.35 566.81 421.57 566.33C421.80 565.85 422.01 565.97 422.43 566.35C423.06 566.93 425.13 569.58 425.78 570.16C426.25 570.59 426.35 570.63 426.73 570.23C427.12 569.83 427.86 568.08 428.34 567.50C428.82 566.92 429.54 566.41 429.95 566.37C430.35 566.34 430.42 566.90 431.04 567.25C431.66 567.60 433.41 568.60 434.09 568.72C434.76 568.83 435.21 568.41 435.55 568.01C435.89 567.62 436.25 566.72 436.34 566.09C436.43 565.47 436.34 564.40 436.17 563.86C436.00 563.32 435.54 562.68 435.22 562.48C434.89 562.29 434.23 562.32 433.98 562.58C433.74 562.83 433.55 563.61 433.59 564.20C433.63 564.79 433.76 565.88 434.26 566.54C434.76 567.20 435.71 568.34 436.94 568.61C438.17 568.88 440.82 568.80 442.46 568.36C444.09 567.92 447.04 566.07 447.85 565.66"/><path fill="none" stroke="#a4a4a4" stroke-width="2.0" stroke-linecap="round" stroke-linejoin="round" d="M294.07 470.33C294.00 469.93 294.31 469.32 293.62 467.64C292.94 465.96 290.40 460.59 289.49 459.13C288.70 457.85 288.09 457.66 287.58 457.91C287.08 458.17 286.44 459.45 286.13 460.81C285.83 462.16 285.17 462.86 285.56 466.96C286.10 472.52 289.13 491.94 289.73 497.89C290.32 503.69 289.95 504.36 289.57 506.64C289.19 508.91 288.21 511.55 287.23 513.08C286.25 514.60 284.48 515.95 283.03 516.83C281.59 517.71 278.84 518.78 277.60 518.95C276.35 519.13 275.17 518.55 274.74 518.00C274.31 517.45 274.74 515.70 274.74 515.30"/><path fill="none" stroke="#d1000d" stroke-width="2.0" stroke-linecap="round" stroke-linejoin="round" d="M486.97 489.67C487.03 489.46 486.43 488.43 487.39 488.26C489.69 487.88 492.35 487.67 502.33 487.10C525.15 485.80 617.56 480.81 639.52 479.62C645.66 479.29 642.59 479.42 648.73 479.21C660.69 478.78 704.35 477.16 719.21 476.79C734.07 476.42 742.55 476.52 747.81 476.76C752.28 476.97 752.96 477.09 754.31 478.39C755.67 479.69 756.34 483.71 756.83 485.43C757.33 487.15 757.19 486.88 757.62 489.84C758.05 492.81 759.38 501.53 759.70 505.23C760.01 508.92 759.87 512.48 759.74 514.47C759.60 516.47 759.22 517.37 758.80 518.53C758.38 519.68 757.64 521.18 756.93 522.19C756.22 523.19 755.11 524.39 754.06 525.23C753.01 526.07 752.30 526.84 749.95 527.78C747.60 528.72 742.49 530.53 738.39 531.48C734.29 532.43 727.97 533.43 722.62 534.12C717.28 534.80 712.06 535.42 702.78 536.04C693.50 536.65 668.53 537.77 660.73 538.19C654.10 538.55 657.42 538.49 650.78 538.85C642.76 539.28 620.87 540.01 607.26 541.10C593.64 542.20 573.50 545.21 560.04 546.14C546.58 547.07 524.73 547.06 517.53 547.30C513.85 547.42 514.44 547.51 512.02 547.72C509.60 547.92 505.78 548.07 501.41 548.65C497.04 549.22 487.68 559.51 482.88 551.56C478.08 543.61 471.42 504.26 469.40 495.65C469.18 494.69 469.43 494.39 469.44 494.17C469.44 494.17 469.44 494.17 469.44 494.17"/><path fill="none" stroke="#d1000d" stroke-width="2.0" stroke-linecap="round" stroke-linejoin="round" d="M766.21 488.32C768.36 487.00 775.57 481.89 780.55 479.52C785.53 477.14 797.49 473.72 799.39 472.49C801.29 471.26 794.47 471.73 793.20 471.34C791.94 470.94 790.58 469.93 790.96 469.87C791.33 469.82 794.39 470.40 795.73 470.98C797.07 471.55 799.11 473.11 799.87 473.71C800.64 474.32 800.69 474.66 800.83 475.03C800.97 475.40 800.96 475.94 800.83 476.18C800.69 476.42 800.06 476.56 799.93 476.63"/><path fill="none" stroke="#d1000d" stroke-width="2.0" stroke-linecap="round" stroke-linejoin="round" d="M821.06 456.40C820.94 456.15 820.49 454.95 820.23 454.73C819.96 454.51 819.63 454.40 819.30 454.94C818.88 455.64 817.78 458.22 817.42 459.39C817.07 460.57 817.02 461.76 816.96 462.78C816.90 463.81 816.87 465.36 817.02 466.22C817.16 467.09 817.44 468.12 817.92 468.54C818.39 468.95 819.83 468.92 820.16 468.99"/><path fill="none" stroke="#d1000d" stroke-width="2.0" stroke-linecap="round" stroke-linejoin="round" d="M826.91 455.05C826.64 454.95 825.53 454.45 825.11 454.43C824.69 454.42 824.38 454.59 824.14 454.96C823.89 455.33 823.50 455.94 823.49 456.92C823.47 457.89 823.77 460.56 824.05 461.48C824.32 462.40 824.89 462.81 825.32 463.07C825.75 463.32 826.28 463.70 826.90 463.17C827.52 462.63 829.04 460.49 829.44 459.49C829.85 458.49 829.72 457.50 829.61 456.49C829.50 455.49 828.84 453.35 828.71 452.80"/><path fill="none" stroke="#d1000d" stroke-width="2.0" stroke-linecap="round" stroke-linejoin="round" d="M831.85 451.45C831.95 452.22 831.84 457.05 832.48 456.58C833.13 456.11 835.48 449.52 836.15 448.33C836.43 447.84 836.64 448.17 836.94 448.65C837.32 449.26 838.21 451.66 838.72 452.39C839.22 453.12 839.78 453.43 840.31 453.52C840.84 453.62 841.67 453.40 842.25 453.01C842.82 452.62 843.67 451.68 844.16 450.93C844.65 450.18 845.26 448.88 845.51 447.99C845.76 447.11 845.86 445.76 845.81 445.05C845.76 444.34 845.44 443.60 845.16 443.26C844.88 442.91 844.33 442.70 843.95 442.75C843.57 442.80 842.94 443.19 842.63 443.58C842.33 443.97 841.85 444.54 841.92 445.35C841.98 446.15 842.41 447.95 843.06 448.96C843.72 449.98 846.14 451.42 846.28 452.13C846.42 452.84 844.34 453.46 843.99 453.70"/><path fill="none" stroke="#d1000d" stroke-width="2.0" stroke-linecap="round" stroke-linejoin="round" d="M851.64 434.36C851.72 434.40 852.08 434.23 852.20 434.62C852.46 435.45 853.12 437.77 853.37 439.89C853.63 442.01 853.81 447.42 853.89 448.75"/><path fill="none" stroke="#d1000d" stroke-width="2.0" stroke-linecap="round" stroke-linejoin="round" d="M848.94 445.15C848.88 444.83 848.23 443.70 848.52 443.00C848.82 442.30 849.12 441.79 850.93 440.49C852.75 439.19 858.84 435.35 860.63 434.36C861.97 433.63 862.54 433.98 862.88 433.91"/><path fill="none" stroke="#a4a4a4" stroke-width="2.0" stroke-linecap="round" stroke-linejoin="round" d="M467.64 442.91C466.73 442.90 462.69 442.54 461.62 442.87C460.56 443.21 460.50 443.46 460.53 445.14C460.62 450.28 462.01 470.35 462.23 477.15C462.45 483.95 462.36 486.70 462.01 490.49C461.65 494.28 460.66 499.31 459.86 502.42C459.06 505.54 458.82 507.94 456.68 511.29C454.54 514.64 447.53 522.52 445.60 524.74C444.62 525.87 444.08 525.89 443.81 526.09"/><path fill="none" stroke="#004dc0" stroke-width="2.5" stroke-linecap="round" stroke-linejoin="round" d="M716.74 699.66C716.74 699.44 716.79 697.25 716.74 698.21C716.57 702.07 716.09 718.07 715.55 725.37C715.01 732.67 713.51 743.64 713.15 746.87"/><path fill="none" stroke="#004dc0" stroke-width="2.5" stroke-linecap="round" stroke-linejoin="round" d="M714.50 700.56C714.11 701.63 711.98 707.57 711.90 707.75C711.82 707.93 713.25 703.32 713.96 701.77C714.67 700.21 716.06 698.03 716.66 697.35C717.24 696.70 717.41 696.63 717.97 697.25C718.52 697.87 719.78 700.69 720.34 701.46C720.90 702.22 721.49 702.22 721.69 702.35"/><path fill="none" stroke="#004dc0" stroke-width="2.5" stroke-linecap="round" stroke-linejoin="round" d="M701.01 764.86C700.93 764.72 700.27 763.25 700.49 763.92C701.15 765.94 704.58 777.37 705.43 778.26C706.28 779.15 705.92 771.12 706.15 769.84C706.24 769.32 706.61 769.34 706.94 769.75C707.59 770.56 709.92 774.38 710.45 775.20"/><path fill="none" stroke="#004dc0" stroke-width="2.5" stroke-linecap="round" stroke-linejoin="round" d="M715.39 767.55C715.03 767.28 713.44 765.66 712.95 765.74C712.47 765.82 712.10 766.96 712.16 768.10C712.22 769.24 712.99 772.30 713.34 773.35C713.70 774.40 714.17 774.79 714.54 775.08C714.90 775.37 715.41 775.47 715.76 775.28C716.11 775.08 716.58 774.86 716.85 773.79C717.13 772.72 717.39 768.66 717.59 768.15C717.78 767.64 717.91 769.81 718.17 770.36C718.42 770.92 718.90 771.53 719.29 771.83C719.68 772.13 720.31 772.43 720.76 772.35C721.21 772.27 721.90 771.85 722.30 771.31C722.69 770.77 723.16 769.61 723.37 768.75C723.58 767.89 723.73 766.50 723.71 765.56C723.70 764.61 723.50 763.22 723.26 762.42C723.02 761.63 722.48 760.67 722.10 760.23C721.73 759.79 721.13 759.51 720.75 759.48C720.37 759.45 719.83 759.71 719.55 760.01C719.28 760.31 718.98 761.00 718.93 761.48C718.88 761.96 719.01 762.73 719.22 763.20C719.44 763.67 719.26 764.12 720.37 764.62C721.70 765.22 726.90 766.68 728.11 767.20C728.65 767.43 728.77 767.57 728.40 768.04C727.98 768.56 725.75 770.30 725.29 770.70"/><path fill="none" stroke="#004dc0" stroke-width="2.5" stroke-linecap="round" stroke-linejoin="round" d="M744.17 741.92C744.85 743.81 747.99 752.63 748.67 754.51"/><path fill="none" stroke="#004dc0" stroke-width="2.5" stroke-linecap="round" stroke-linejoin="round" d="M747.32 749.12C747.25 749.05 746.75 749.06 746.87 748.64C747.28 747.17 749.68 739.96 750.04 739.34C750.40 738.73 749.15 743.08 749.25 744.53C749.34 745.99 750.22 748.25 750.67 749.06C751.12 749.88 751.72 749.88 752.23 749.95C752.74 750.03 753.59 749.83 754.06 749.57C754.54 749.31 755.21 748.42 755.41 748.22"/><path fill="none" stroke="#004dc0" stroke-width="2.5" stroke-linecap="round" stroke-linejoin="round" d="M755.41 741.92C755.45 742.26 755.33 743.34 755.67 744.15C756.01 744.96 757.36 746.85 757.66 747.32"/><path fill="none" stroke="#004dc0" stroke-width="2.5" stroke-linecap="round" stroke-linejoin="round" d="M753.17 736.08C753.17 735.94 753.17 735.31 753.17 735.18"/><path fill="none" stroke="#004dc0" stroke-width="2.5" stroke-linecap="round" stroke-linejoin="round" d="M760.36 737.88C760.63 738.77 761.88 743.73 762.15 743.83C762.42 743.93 762.03 739.79 762.15 738.56C762.27 737.32 762.22 735.40 762.95 735.62C763.68 735.84 766.21 739.43 767.02 740.03C767.72 740.57 767.80 740.41 768.30 739.67C768.82 738.88 770.21 736.31 770.51 734.81C770.81 733.30 770.48 730.48 770.29 729.62C770.13 728.87 769.60 728.97 769.28 729.07C768.95 729.18 768.39 729.76 768.13 730.30C767.88 730.84 767.63 731.90 767.57 732.68C767.50 733.46 767.48 734.80 767.72 735.50C767.96 736.20 768.65 736.90 769.16 737.33C769.67 737.76 770.40 738.35 771.12 738.36C771.84 738.37 773.00 738.17 773.95 737.42C774.90 736.67 776.92 733.99 777.45 733.38"/><path fill="none" stroke="#004dc0" stroke-width="2.5" stroke-linecap="round" stroke-linejoin="round" d="M777.45 715.39C778.26 717.76 782.03 728.77 782.84 731.13"/><path fill="none" stroke="#004dc0" stroke-width="2.5" stroke-linecap="round" stroke-linejoin="round" d="M775.65 727.99C775.56 727.89 775.01 727.60 775.06 727.34C775.11 727.07 775.21 726.80 775.99 726.22C776.96 725.51 780.67 723.13 781.49 722.59"/><path fill="none" stroke="#004dc0" stroke-width="2.5" stroke-linecap="round" stroke-linejoin="round" d="M785.54 722.59C785.88 723.47 787.59 727.69 787.79 728.43C787.99 729.18 787.02 727.67 786.89 727.54"/><path fill="none" stroke="#004dc0" stroke-width="2.5" stroke-linecap="round" stroke-linejoin="round" d="M784.19 716.74C784.33 716.61 784.96 715.98 785.09 715.84"/><path fill="none" stroke="#004dc0" stroke-width="2.5" stroke-linecap="round" stroke-linejoin="round" d="M797.68 713.15C797.14 713.17 794.85 713.07 794.05 713.27C793.24 713.48 792.75 714.03 792.33 714.54C791.90 715.04 791.38 715.93 791.24 716.64C791.09 717.36 791.19 718.48 791.39 719.30C791.58 720.12 791.96 721.36 792.52 722.10C793.08 722.85 794.21 723.91 795.11 724.26C796.02 724.60 797.72 724.64 798.58 724.39C799.44 724.14 800.49 722.86 800.83 722.59"/><path fill="none" stroke="#004dc0" stroke-width="2.5" stroke-linecap="round" stroke-linejoin="round" d="M770.70 768.90C771.16 768.27 773.27 765.90 773.77 764.69C774.27 763.48 774.15 761.54 774.04 760.85C773.92 760.16 773.39 760.08 773.00 760.10C772.61 760.12 771.85 760.51 771.44 760.99C771.02 761.47 770.49 762.47 770.22 763.31C769.95 764.16 769.68 765.59 769.66 766.61C769.64 767.63 769.80 769.16 770.07 770.11C770.33 771.06 770.94 772.31 771.44 772.93C771.93 773.55 772.80 774.16 773.37 774.23C773.93 774.30 774.59 774.00 775.20 773.40C775.81 772.80 777.11 770.72 777.45 770.25"/><path fill="none" stroke="#004dc0" stroke-width="2.5" stroke-linecap="round" stroke-linejoin="round" d="M778.80 759.91C778.79 760.19 778.22 760.66 778.76 761.81C779.33 763.01 782.02 768.06 782.57 767.91C783.11 767.76 782.31 762.51 782.39 760.78C782.48 759.05 782.86 757.00 783.12 756.38C783.39 755.75 783.78 756.02 784.17 756.63C784.95 757.81 787.39 763.48 788.30 764.26C789.20 765.04 789.78 762.62 790.21 761.84C790.64 761.06 790.93 759.95 791.17 759.08C791.41 758.20 791.71 756.90 791.81 756.02C791.92 755.13 791.97 753.91 791.87 753.21C791.76 752.51 791.40 751.71 791.11 751.33C790.81 750.95 790.29 750.66 789.92 750.69C789.56 750.73 788.98 751.12 788.67 751.57C788.37 752.01 788.00 752.95 787.89 753.67C787.77 754.40 787.48 755.39 787.91 756.40C788.34 757.41 789.94 759.81 790.74 760.43C791.54 761.05 792.34 761.03 793.25 760.55C794.16 760.07 796.25 757.71 796.78 757.21"/><path fill="none" stroke="#004dc0" stroke-width="2.5" stroke-linecap="round" stroke-linejoin="round" d="M794.08 748.22C794.70 749.04 797.75 753.48 798.22 753.71C798.70 753.95 797.40 751.08 797.25 749.79C797.10 748.49 796.96 745.98 797.23 745.07C797.50 744.16 798.76 743.93 799.03 743.72"/><path fill="none" stroke="#004dc0" stroke-width="2.5" stroke-linecap="round" stroke-linejoin="round" d="M803.98 743.72C803.88 743.70 803.69 743.31 803.36 743.58C802.94 743.94 801.53 745.46 801.13 746.09C800.73 746.72 800.70 747.31 800.71 747.78C800.73 748.25 800.96 748.94 801.22 749.22C801.49 749.51 802.04 749.71 802.48 749.67C802.91 749.64 803.71 749.35 804.13 748.99C804.55 748.64 805.04 747.90 805.28 747.32C805.51 746.74 805.77 745.95 805.71 745.13C805.66 744.31 803.57 740.68 804.88 741.85C806.19 743.02 812.41 750.40 814.44 752.91C816.46 755.43 817.45 756.99 818.38 758.63C819.32 760.27 820.35 762.48 820.69 763.87C821.04 765.25 821.04 766.89 820.69 767.87C820.33 768.85 819.22 769.84 818.34 770.38C817.46 770.91 815.89 771.39 814.80 771.45C813.70 771.51 812.09 771.23 811.04 770.77C809.99 770.31 808.47 769.49 807.79 768.38C807.12 767.28 806.71 765.29 806.54 763.41C806.38 761.53 806.38 758.41 806.67 755.86C806.96 753.32 808.20 747.84 808.47 746.42"/><path fill="none" stroke="#004dc0" stroke-width="2.5" stroke-linecap="round" stroke-linejoin="round" d="M811.62 736.08C811.53 735.90 811.08 734.74 810.99 734.88C810.90 735.01 810.66 736.36 811.00 736.96C811.33 737.56 812.64 738.64 813.23 738.87C813.82 739.09 814.49 738.77 814.93 738.46C815.37 738.15 815.92 737.39 816.16 736.81C816.40 736.23 816.58 735.28 816.55 734.61C816.51 733.94 816.18 732.86 815.91 732.36C815.64 731.85 814.97 731.32 814.74 731.24C814.52 731.17 814.30 731.40 814.39 731.86C814.50 732.35 814.44 732.89 815.44 734.48C817.12 737.16 823.83 746.69 825.62 749.76C827.41 752.83 827.09 753.51 827.35 754.95C827.60 756.39 827.73 758.18 827.32 759.35C826.90 760.52 825.94 761.74 824.59 762.77C823.25 763.80 819.30 765.69 818.36 766.21"/><path fill="none" stroke="#004dc0" stroke-width="2.5" stroke-linecap="round" stroke-linejoin="round" d="M838.15 713.15C838.57 713.72 840.15 715.31 840.97 717.00C841.79 718.68 844.06 724.69 843.60 724.36C843.15 724.03 838.94 716.74 837.94 714.79C836.94 712.83 837.06 712.25 836.92 711.33C836.77 710.41 836.79 709.25 836.98 708.63C837.16 708.00 837.73 707.41 838.16 707.17C838.60 706.93 839.23 706.52 839.85 707.03C840.48 707.54 841.98 709.58 842.32 710.58C842.66 711.57 842.39 712.74 842.10 713.66C841.81 714.59 840.65 716.28 840.40 716.74"/><path fill="none" stroke="#004dc0" stroke-width="2.5" stroke-linecap="round" stroke-linejoin="round" d="M841.75 692.91C841.68 692.83 841.11 691.98 841.30 692.40C842.31 694.62 847.41 705.45 848.49 707.75"/><path fill="none" stroke="#004dc0" stroke-width="2.5" stroke-linecap="round" stroke-linejoin="round" d="M848.94 698.76C848.94 698.47 848.67 696.51 848.91 696.83C849.15 697.14 849.96 699.93 850.55 700.86C851.13 701.78 852.30 702.82 852.78 703.00C853.27 703.18 853.54 702.55 853.78 702.07C854.02 701.58 854.28 700.95 854.38 699.76C854.48 698.56 854.22 694.46 854.43 694.10C854.65 693.73 855.37 696.57 855.82 697.31C856.27 698.04 856.89 698.62 857.42 698.99C857.95 699.35 858.78 699.75 859.36 699.72C859.95 699.69 860.82 699.32 861.32 698.79C861.82 698.26 862.43 697.04 862.70 696.18C862.96 695.31 863.17 694.02 863.12 693.04C863.06 692.06 862.69 690.49 862.31 689.66C861.94 688.82 861.16 687.87 860.62 687.48C860.07 687.09 859.19 686.92 858.68 687.03C858.16 687.15 857.46 687.67 857.18 688.25C856.89 688.84 856.70 690.12 856.76 690.93C856.82 691.74 857.15 692.97 857.56 693.65C857.96 694.33 858.80 695.16 859.46 695.47C860.12 695.79 861.20 695.92 861.95 695.75C862.70 695.59 863.82 694.95 864.46 694.35C865.10 693.76 865.86 692.60 866.19 691.79C866.53 690.97 866.72 689.72 866.72 688.92C866.71 688.11 866.40 686.98 866.15 686.42C865.90 685.86 865.29 685.31 865.04 685.16C864.80 685.02 864.53 685.11 864.52 685.43C864.52 685.75 864.51 686.11 865.00 687.30C865.63 688.84 867.97 693.67 868.74 695.72C869.51 697.77 869.88 699.45 870.16 700.97C870.44 702.48 870.66 704.56 870.60 705.82C870.54 707.07 870.14 708.55 869.78 709.34C869.42 710.14 868.68 710.93 868.19 711.13C867.70 711.34 866.83 711.65 866.51 710.73C866.19 709.82 866.10 705.91 866.03 705.05"/><path fill="none" stroke="#004dc0" stroke-width="2.5" stroke-linecap="round" stroke-linejoin="round" d="M870.97 685.27C871.10 684.98 871.70 684.23 871.81 683.38C871.91 682.53 871.96 680.45 871.67 679.61C871.37 678.77 870.29 677.95 869.84 677.78C869.40 677.61 869.01 678.03 868.69 678.47C868.37 678.91 867.81 679.60 867.71 680.72C867.62 681.84 867.81 684.95 868.07 685.93C868.34 686.90 869.00 687.06 869.50 687.21C870.00 687.36 870.56 687.71 871.42 686.92C872.29 686.13 874.41 681.03 875.29 681.95C876.16 682.86 876.91 690.75 877.26 693.01C877.61 695.27 877.54 695.99 877.61 697.02C877.67 698.05 877.88 699.34 877.70 699.87C877.51 700.41 876.87 700.55 876.40 700.59C875.93 700.62 874.91 700.31 874.57 700.11C874.23 699.90 874.19 699.34 874.12 699.21"/><path fill="none" stroke="#004dc0" stroke-width="2.5" stroke-linecap="round" stroke-linejoin="round" d="M876.82 681.67C877.43 680.81 880.22 677.10 880.86 675.90C881.51 674.70 881.36 673.78 881.10 673.66C880.85 673.54 879.64 674.14 879.15 675.10C878.66 676.05 877.94 678.94 877.84 680.02C877.74 681.10 878.13 681.91 878.49 682.31C878.86 682.71 879.63 682.77 880.27 682.69C880.90 682.60 881.90 682.44 882.74 681.75C883.57 681.06 885.05 679.53 885.85 678.10C886.64 676.67 887.73 673.38 888.06 672.23C888.39 671.08 888.06 670.70 888.06 670.43"/><path fill="none" stroke="#004dc0" stroke-width="2.5" stroke-linecap="round" stroke-linejoin="round" d="M886.71 658.29C886.64 658.02 885.77 655.35 886.26 656.49C886.90 657.97 890.25 666.29 890.93 668.12C891.07 668.50 891.19 668.68 890.79 668.70C890.08 668.74 887.14 668.26 886.21 668.37C885.27 668.48 884.92 669.00 884.54 669.43C884.16 669.86 883.79 670.74 883.68 671.25C883.57 671.76 883.61 672.42 883.80 672.82C883.99 673.22 884.43 673.84 884.95 673.92C885.47 673.99 886.25 673.91 887.26 673.32C888.27 672.72 891.00 670.48 891.66 669.98"/><path fill="none" stroke="#004dc0" stroke-width="2.5" stroke-linecap="round" stroke-linejoin="round" d="M911.89 650.20C912.06 650.25 912.62 649.86 913.03 650.54C913.64 651.55 915.50 655.98 915.94 656.94"/><path fill="none" stroke="#004dc0" stroke-width="2.5" stroke-linecap="round" stroke-linejoin="round" d="M909.64 646.60C909.54 646.19 908.81 644.08 908.94 643.88C909.08 643.67 910.30 645.04 910.54 645.25"/><path fill="none" stroke="#004dc0" stroke-width="2.5" stroke-linecap="round" stroke-linejoin="round" d="M916.39 647.05C916.96 648.03 919.82 653.75 920.22 653.61C920.62 653.48 919.17 647.63 919.08 646.16C918.99 644.69 919.38 644.32 919.62 643.81C919.87 643.31 920.30 642.93 920.69 642.80C921.08 642.66 921.44 642.54 922.24 642.90C923.05 643.26 924.92 644.93 926.06 645.22C927.21 645.50 929.31 644.86 929.88 644.80"/>
</svg>