<?xml version="1.0" encoding="UTF-8"?>
<!DOCTYPE svg PUBLIC "-//W3C//DTD SVG 1.1//EN" "http://www.w3.org/Graphics/SVG/1.1/DTD/svg11.dtd">
<svg  xmlns="http://www.w3.org/2000/svg" xmlns:xlink="http://www.w3.org/1999/xlink" viewport-fill="none" viewBox="0.0, 0.0, 1056.88134765625, 736.2801513671875" version="1.1" height="736.2801513671875" width="1056.88134765625">
<path fill="none" stroke="#d1000d" stroke-width="2.5" stroke-linecap="round" stroke-linejoin="round" d="M185.71 434.81C185.69 434.62 185.31 432.68 185.61 433.50C185.94 434.38 187.09 438.87 187.90 440.69C188.71 442.51 190.39 444.99 191.02 445.63C191.61 446.23 191.85 445.50 192.07 444.93C192.28 444.36 192.51 443.66 192.46 441.84C192.40 440.02 191.96 434.67 191.69 432.82C191.43 430.97 190.64 429.09 190.67 429.52C190.71 429.94 191.47 434.13 191.94 435.66C192.42 437.19 193.23 438.76 193.84 439.71C194.45 440.66 195.33 441.54 195.99 441.99C196.66 442.44 197.69 442.96 198.30 442.72C198.91 442.48 199.66 441.29 200.06 440.37C200.47 439.46 200.85 437.18 200.99 436.61"/><path fill="none" stroke="#d1000d" stroke-width="2.5" stroke-linecap="round" stroke-linejoin="round" d="M199.20 421.32C198.94 421.41 197.72 421.42 197.51 421.92C197.30 422.41 197.58 423.67 197.79 424.62C198.01 425.56 198.42 427.09 198.93 428.20C199.45 429.30 200.46 430.88 201.23 432.01C202.00 433.13 203.20 434.88 204.05 435.67C204.90 436.46 206.18 437.17 206.87 437.25C207.56 437.32 208.37 436.46 208.64 436.16C208.90 435.86 208.64 435.40 208.64 435.26"/><path fill="none" stroke="#d1000d" stroke-width="2.5" stroke-linecap="round" stroke-linejoin="round" d="M205.94 425.37C206.95 425.57 211.67 426.52 212.68 426.72"/><path fill="none" stroke="#d1000d" stroke-width="2.5" stroke-linecap="round" stroke-linejoin="round" d="M209.54 420.42C209.47 421.84 209.16 428.45 209.09 429.87"/><path fill="none" stroke="#d1000d" stroke-width="2.5" stroke-linecap="round" stroke-linejoin="round" d="M206.39 413.23C206.30 413.00 205.77 412.21 205.81 411.72C205.85 411.23 206.02 410.25 206.65 409.97C207.28 409.69 208.89 409.60 210.01 409.86C211.12 410.13 212.75 410.92 214.09 411.75C215.43 412.59 217.57 413.92 218.93 415.41C220.28 416.90 222.16 419.40 223.12 421.71C224.07 424.01 224.95 429.41 225.28 430.77"/><path fill="none" stroke="#a4a4a4" stroke-width="2.0" stroke-linecap="round" stroke-linejoin="round" d="M91.28 699.66C91.37 700.06 91.00 700.89 91.92 702.37C92.83 703.84 97.49 709.56 97.40 709.48C97.31 709.39 92.86 704.00 91.32 701.81C89.79 699.62 87.83 696.28 87.18 694.86C86.53 693.45 86.81 693.00 86.99 692.36C87.16 691.71 87.04 691.11 88.36 690.58C89.68 690.06 94.66 689.12 95.78 688.87"/><path fill="none" stroke="#a4a4a4" stroke-width="2.0" stroke-linecap="round" stroke-linejoin="round" d="M93.53 703.25C93.47 703.33 92.94 704.15 93.14 703.77C93.53 703.03 94.99 699.77 96.13 698.34C97.26 696.91 100.03 694.87 100.72 694.26"/><path fill="none" stroke="#a4a4a4" stroke-width="2.0" stroke-linecap="round" stroke-linejoin="round" d="M98.02 705.05C98.70 704.72 101.85 703.14 102.52 702.80"/><path fill="none" stroke="#a4a4a4" stroke-width="2.0" stroke-linecap="round" stroke-linejoin="round" d="M112.86 690.66C112.78 690.79 111.90 691.97 112.34 691.49C113.08 690.68 116.99 686.20 117.81 685.27"/><path fill="none" stroke="#a4a4a4" stroke-width="2.0" stroke-linecap="round" stroke-linejoin="round" d="M112.86 695.16C112.99 695.18 113.40 695.44 113.69 695.32C113.98 695.19 114.13 695.06 114.79 694.33C115.48 693.56 117.74 690.83 118.26 690.21"/><path fill="none" stroke="#a4a4a4" stroke-width="2.0" stroke-linecap="round" stroke-linejoin="round" d="M120.96 672.23C120.83 672.12 120.08 671.21 120.13 671.53C120.18 671.85 120.19 672.65 121.31 674.35C122.45 676.07 126.74 681.72 127.70 683.02"/><path fill="none" stroke="#a4a4a4" stroke-width="2.0" stroke-linecap="round" stroke-linejoin="round" d="M127.25 676.28C127.14 676.09 126.29 675.96 126.52 675.02C126.83 673.73 129.11 668.04 129.35 667.66C129.59 667.29 128.33 671.41 128.12 672.53C127.92 673.65 127.87 674.43 127.96 675.13C128.05 675.83 128.39 676.71 128.71 677.20C129.03 677.70 129.54 678.22 130.09 678.41C130.65 678.61 131.61 678.64 132.39 678.52C133.18 678.40 134.90 677.76 135.34 677.62"/><path fill="none" stroke="#a4a4a4" stroke-width="2.0" stroke-linecap="round" stroke-linejoin="round" d="M137.59 670.88C137.76 671.12 139.14 673.05 138.69 672.50C138.24 671.95 135.41 668.49 134.57 667.24C133.73 665.99 133.37 665.07 133.10 664.17C132.82 663.27 132.69 662.04 132.73 661.27C132.77 660.49 132.95 659.48 133.35 659.01C133.75 658.54 134.71 658.23 135.41 658.13C136.11 658.02 137.45 658.06 138.04 658.29C138.64 658.52 139.19 659.44 139.39 659.64"/><path fill="none" stroke="#a4a4a4" stroke-width="2.0" stroke-linecap="round" stroke-linejoin="round" d="M137.59 667.73C137.89 667.32 138.91 665.58 139.59 664.97C140.26 664.36 141.71 663.88 142.09 663.68"/><path fill="none" stroke="#a4a4a4" stroke-width="2.0" stroke-linecap="round" stroke-linejoin="round" d="M140.29 674.48C141.03 673.80 144.50 670.65 145.24 669.98"/><path fill="none" stroke="#a4a4a4" stroke-width="2.0" stroke-linecap="round" stroke-linejoin="round" d="M154.23 656.49C153.90 656.63 151.40 657.93 152.00 657.39C152.61 656.85 157.34 653.57 158.28 652.89"/><path fill="none" stroke="#a4a4a4" stroke-width="2.0" stroke-linecap="round" stroke-linejoin="round" d="M152.43 651.09C152.22 651.03 150.38 649.92 151.01 650.68C152.02 651.90 157.95 657.91 159.18 659.19"/><path fill="none" stroke="#a4a4a4" stroke-width="2.0" stroke-linecap="round" stroke-linejoin="round" d="M161.87 643.90C161.87 643.72 161.43 642.22 161.84 642.68C162.25 643.14 163.81 645.97 164.60 646.96C165.40 647.95 166.31 648.77 167.15 649.26C168.00 649.75 169.36 650.23 170.22 650.21C171.07 650.20 172.25 649.79 172.86 649.15C173.47 648.51 174.08 647.09 174.27 645.97C174.45 644.85 174.37 642.99 174.09 641.70C173.81 640.41 173.16 638.42 172.41 637.37C171.66 636.33 170.11 635.12 169.07 634.75C168.03 634.38 166.35 634.68 165.47 634.91C164.59 635.13 163.56 636.05 163.22 636.26"/><path fill="none" stroke="#a4a4a4" stroke-width="2.0" stroke-linecap="round" stroke-linejoin="round" d="M131.30 732.48C131.49 731.88 132.04 729.41 132.58 728.47C133.12 727.52 134.55 726.53 134.90 726.19"/><path fill="none" stroke="#a4a4a4" stroke-width="2.0" stroke-linecap="round" stroke-linejoin="round" d="M134.90 734.28C135.30 733.61 137.19 730.46 137.59 729.78"/><path fill="none" stroke="#a4a4a4" stroke-width="2.0" stroke-linecap="round" stroke-linejoin="round" d="M143.89 705.50C144.70 706.51 148.47 711.24 149.28 712.25"/><path fill="none" stroke="#a4a4a4" stroke-width="2.0" stroke-linecap="round" stroke-linejoin="round" d="M151.08 722.14C151.21 721.73 151.34 720.45 151.95 719.44C152.56 718.43 154.65 716.00 155.13 715.39"/><path fill="none" stroke="#a4a4a4" stroke-width="2.0" stroke-linecap="round" stroke-linejoin="round" d="M156.93 725.29C156.81 725.33 156.32 725.68 156.13 725.57C155.93 725.47 155.55 725.28 155.62 724.58C155.68 723.88 156.20 721.63 156.57 720.91C156.94 720.19 157.62 719.92 158.10 719.77C158.57 719.62 159.32 719.62 159.74 719.93C160.16 720.24 160.66 721.10 160.91 721.83C161.16 722.57 161.54 723.43 161.39 724.83C161.25 726.23 159.67 731.37 159.94 731.16C160.22 730.96 162.73 724.64 163.22 723.49"/><path fill="none" stroke="#a4a4a4" stroke-width="2.0" stroke-linecap="round" stroke-linejoin="round" d="M160.08 703.25C159.97 703.11 158.74 701.74 159.34 702.29C159.99 702.89 164.18 707.51 164.43 707.25C164.67 706.98 161.52 701.79 160.96 700.50C160.46 699.36 160.60 699.01 160.67 698.66C160.75 698.30 160.86 697.86 161.45 698.11C162.32 698.46 165.94 701.30 166.43 701.03C166.91 700.75 164.95 697.16 164.72 696.29C164.53 695.55 164.75 695.40 164.90 695.16C165.05 694.93 165.09 694.66 165.71 694.71C166.54 694.78 169.71 695.48 170.42 695.61"/><path fill="none" stroke="#a4a4a4" stroke-width="2.0" stroke-linecap="round" stroke-linejoin="round" d="M168.62 692.46C168.60 692.33 167.91 691.40 168.49 691.56C169.25 691.78 172.84 693.63 173.72 693.91C174.23 694.07 174.45 693.95 174.36 693.42C174.26 692.79 173.74 690.99 173.02 689.70C172.29 688.41 170.04 685.55 169.52 684.82"/><path fill="none" stroke="#a4a4a4" stroke-width="2.0" stroke-linecap="round" stroke-linejoin="round" d="M169.07 674.48C168.99 674.27 168.53 673.48 168.55 673.13C168.58 672.77 168.86 671.40 169.24 672.12C169.82 673.23 171.63 679.65 172.48 680.54C173.33 681.44 174.55 678.44 174.91 678.07"/><path fill="none" stroke="#a4a4a4" stroke-width="2.0" stroke-linecap="round" stroke-linejoin="round" d="M185.26 678.97C185.22 678.83 184.93 678.36 185.01 678.02C185.08 677.68 185.13 677.43 185.77 676.69C186.42 675.96 188.77 673.66 189.30 673.13"/><path fill="none" stroke="#a4a4a4" stroke-width="2.0" stroke-linecap="round" stroke-linejoin="round" d="M185.26 674.03C185.17 674.02 184.50 673.65 184.68 673.99C184.85 674.35 185.72 675.63 186.42 676.37C187.11 677.12 188.87 678.58 189.30 678.97"/><path fill="none" stroke="#a4a4a4" stroke-width="2.0" stroke-linecap="round" stroke-linejoin="round" d="M192.45 663.24C192.31 663.03 191.07 661.21 191.52 661.89C191.97 662.56 194.43 666.49 195.45 667.72C196.46 668.95 197.41 669.62 198.30 670.08C199.18 670.53 200.55 670.88 201.35 670.75C202.16 670.62 203.16 669.98 203.65 669.24C204.14 668.50 204.57 666.96 204.60 665.81C204.64 664.66 204.29 662.82 203.87 661.57C203.45 660.32 202.64 658.47 201.80 657.46C200.97 656.46 199.23 655.37 198.30 654.89C197.37 654.41 196.07 654.27 195.60 654.24C195.18 654.22 195.22 654.62 195.15 654.69"/><path fill="none" stroke="#a4a4a4" stroke-width="2.0" stroke-linecap="round" stroke-linejoin="round" d="M258.55 308.01C258.84 308.26 259.72 309.31 260.46 309.65C261.20 309.98 263.04 310.17 263.50 310.26"/><path fill="none" stroke="#a4a4a4" stroke-width="2.0" stroke-linecap="round" stroke-linejoin="round" d="M260.80 306.66C260.75 307.38 260.81 310.30 260.45 311.42C260.10 312.53 258.64 314.06 258.41 314.08C258.19 314.11 258.31 312.58 258.94 311.60C259.57 310.62 262.05 308.17 262.60 307.56"/><path fill="none" stroke="#a4a4a4" stroke-width="2.0" stroke-linecap="round" stroke-linejoin="round" d="M255.85 471.68C255.92 464.26 256.23 429.64 256.30 422.22"/><path fill="none" stroke="#a4a4a4" stroke-width="2.0" stroke-linecap="round" stroke-linejoin="round" d="M259.00 355.67C259.50 349.94 261.80 324.71 262.33 317.46C262.82 310.73 262.55 309.29 262.54 307.34C262.52 305.41 262.42 305.10 262.23 304.45C262.04 303.81 261.39 303.27 261.25 303.06"/><path fill="none" stroke="#a4a4a4" stroke-width="2.0" stroke-linecap="round" stroke-linejoin="round" d="M261.25 348.48C261.04 351.01 260.30 354.44 259.83 365.37C259.36 376.30 258.16 409.28 258.10 421.32C258.04 433.35 259.25 441.96 259.45 445.60"/><path fill="none" stroke="#d1000d" stroke-width="2.5" stroke-linecap="round" stroke-linejoin="round" d="M504.06 207.29C503.92 207.48 503.03 209.60 503.16 208.57C503.29 207.54 503.97 203.48 504.94 200.42C505.91 197.36 507.88 192.43 509.62 188.17C511.37 183.92 514.21 177.00 516.55 172.09C518.89 167.17 522.69 160.01 525.22 155.42C527.76 150.82 531.20 145.04 533.47 141.46C535.74 137.88 537.87 134.83 540.36 131.55C542.85 128.28 548.63 121.10 550.07 119.64C551.11 118.59 549.95 121.52 549.92 121.86"/><path fill="none" stroke="#d1000d" stroke-width="2.5" stroke-linecap="round" stroke-linejoin="round" d="M540.03 118.71C540.02 118.78 539.69 119.15 539.97 119.16C540.26 119.16 540.64 119.12 541.90 118.74C543.45 118.28 548.83 116.43 550.26 116.09C551.06 115.89 551.21 116.15 551.44 116.43C551.67 116.70 552.05 116.92 551.79 117.90C551.49 118.98 549.82 122.52 549.47 123.65C549.13 124.79 549.47 125.18 549.47 125.45"/><path fill="none" stroke="#000000" stroke-width="2.0" stroke-linecap="round" stroke-linejoin="round" d="M520.70 69.70C520.22 69.90 518.17 70.57 517.55 71.04C516.93 71.52 516.70 72.16 516.55 72.88C516.40 73.60 516.38 74.95 516.54 75.85C516.70 76.75 516.77 78.00 517.61 78.89C518.44 79.79 521.02 81.53 522.12 81.81C523.21 82.09 524.04 81.44 524.91 80.77C525.77 80.10 527.44 77.85 527.89 77.34"/><path fill="none" stroke="#000000" stroke-width="2.0" stroke-linecap="round" stroke-linejoin="round" d="M527.44 68.35C527.04 68.31 525.18 67.50 524.76 68.10C524.34 68.69 524.48 71.33 524.63 72.31C524.78 73.30 525.33 74.07 525.79 74.65C526.25 75.22 527.10 75.91 527.69 76.14C528.29 76.36 529.26 76.39 529.77 76.15C530.27 75.91 530.84 75.15 531.06 74.55C531.28 73.95 531.34 72.92 531.22 72.15C531.10 71.38 530.74 70.10 530.26 69.41C529.78 68.72 528.71 67.91 528.02 67.55C527.33 67.18 526.00 67.08 525.64 67.00"/><path fill="none" stroke="#000000" stroke-width="2.0" stroke-linecap="round" stroke-linejoin="round" d="M531.49 64.75C532.00 65.35 534.74 69.07 534.93 68.72C535.12 68.37 533.07 63.67 532.76 62.43C532.45 61.20 532.70 60.86 532.86 60.49C533.03 60.12 533.18 59.67 533.83 59.99C534.85 60.51 538.51 63.34 539.65 63.91C540.69 64.44 540.95 64.07 541.39 63.81C541.84 63.56 542.38 62.82 542.61 62.18C542.84 61.54 542.96 60.36 542.92 59.56C542.89 58.75 542.65 57.53 542.37 56.82C542.09 56.11 541.53 55.25 541.08 54.82C540.63 54.39 539.81 54.07 539.36 53.95C538.90 53.84 538.31 53.88 538.05 54.03C537.79 54.17 537.55 54.62 537.60 54.94C537.65 55.26 537.59 55.60 538.38 56.14C539.63 57.00 544.91 59.78 545.98 60.67C546.76 61.33 545.97 61.64 545.48 62.12C545.00 62.59 543.14 63.59 542.73 63.85"/><path fill="none" stroke="#000000" stroke-width="2.0" stroke-linecap="round" stroke-linejoin="round" d="M542.73 47.66C542.66 47.47 541.87 46.02 542.28 46.38C542.68 46.74 544.48 48.70 545.43 50.04C546.37 51.38 548.10 54.52 548.57 55.31"/><path fill="none" stroke="#000000" stroke-width="2.0" stroke-linecap="round" stroke-linejoin="round" d="M543.18 54.86C543.19 54.58 543.06 53.59 543.28 53.03C543.49 52.46 543.63 52.24 544.63 51.10C545.62 49.95 549.13 46.27 549.92 45.41"/><path fill="none" stroke="#000000" stroke-width="2.0" stroke-linecap="round" stroke-linejoin="round" d="M560.27 83.19C560.13 83.12 559.20 83.41 559.33 82.74C559.63 81.18 561.82 74.56 562.25 72.83C562.51 71.76 562.30 71.45 562.18 71.18C562.05 70.90 561.67 70.53 561.41 70.99C561.05 71.63 560.03 74.21 559.75 75.43C559.48 76.65 559.29 77.71 559.57 79.12C559.85 80.53 561.06 83.93 561.61 84.82C562.17 85.71 562.68 85.45 563.29 85.07C563.90 84.69 565.17 83.24 565.66 82.29C566.15 81.33 566.43 79.23 566.56 78.69"/><path fill="none" stroke="#000000" stroke-width="2.0" stroke-linecap="round" stroke-linejoin="round" d="M566.11 68.80C566.73 69.76 569.75 75.66 570.26 75.24C570.78 74.82 569.54 67.43 569.54 66.01C569.54 65.51 569.90 65.46 570.26 65.80C570.92 66.44 573.18 69.52 573.92 70.22C574.53 70.80 574.82 70.62 575.17 70.44C575.51 70.26 575.86 70.05 576.24 69.02C576.63 68.00 577.51 64.85 577.74 63.61C577.97 62.38 577.82 61.46 577.76 60.78C577.69 60.09 577.51 59.40 577.30 59.07C577.09 58.74 576.77 58.16 576.35 58.58C575.92 59.00 574.74 60.98 574.46 61.84C574.19 62.71 574.33 63.68 574.49 64.32C574.66 64.97 575.14 65.74 575.54 66.15C575.95 66.55 576.59 67.10 577.18 67.05C577.76 66.99 578.87 66.45 579.44 65.77C580.00 65.09 580.72 63.26 580.95 62.50C581.18 61.74 580.95 60.97 580.95 60.70"/><path fill="none" stroke="#000000" stroke-width="2.0" stroke-linecap="round" stroke-linejoin="round" d="M578.25 54.86C578.80 55.65 581.54 60.11 581.90 60.15C582.26 60.19 580.74 56.24 580.66 55.11C580.59 53.98 581.09 53.12 581.40 52.61C581.71 52.10 582.55 51.84 582.75 51.71"/><path fill="none" stroke="#000000" stroke-width="2.0" stroke-linecap="round" stroke-linejoin="round" d="M588.14 46.31C587.86 46.24 586.83 45.45 586.27 45.83C585.71 46.20 584.68 47.98 584.41 48.80C584.15 49.63 584.33 50.64 584.50 51.34C584.68 52.04 585.11 53.00 585.56 53.46C586.00 53.92 586.85 54.35 587.45 54.38C588.05 54.41 589.02 54.09 589.56 53.64C590.10 53.19 590.73 52.14 591.04 51.38C591.35 50.62 591.71 49.55 591.65 48.55C591.60 47.55 589.59 43.51 590.65 44.74C591.71 45.96 597.39 54.42 598.75 56.73C599.94 58.76 599.66 59.32 599.68 60.13C599.71 60.95 599.33 61.71 598.90 62.17C598.47 62.62 597.55 63.14 596.83 63.18C596.12 63.22 594.82 63.20 594.12 62.43C593.42 61.65 592.48 58.67 592.19 58.00"/><path fill="none" stroke="#000000" stroke-width="2.0" stroke-linecap="round" stroke-linejoin="round" d="M594.89 37.77C594.81 37.63 594.07 36.55 594.38 36.82C594.70 37.08 596.37 39.13 596.99 39.54C597.61 39.95 598.12 39.67 598.53 39.53C598.94 39.39 599.51 39.01 599.75 38.58C599.99 38.16 600.28 37.53 600.11 36.71C599.94 35.89 598.91 33.70 598.61 33.14C598.44 32.84 598.11 32.81 598.12 33.00C598.12 33.19 598.18 33.53 598.67 34.42C599.73 36.35 604.18 43.61 605.23 45.86C606.25 48.05 605.61 48.92 605.68 49.46"/><path fill="none" stroke="#000000" stroke-width="2.0" stroke-linecap="round" stroke-linejoin="round" d="M579.15 101.17C578.85 101.02 577.61 100.24 577.13 100.17C576.65 100.11 576.20 99.97 575.93 100.75C575.66 101.52 575.28 104.20 575.36 105.33C575.44 106.46 575.98 107.54 576.49 108.27C576.99 108.99 578.03 109.88 578.70 110.16C579.37 110.45 580.61 110.16 580.95 110.16"/><path fill="none" stroke="#000000" stroke-width="2.0" stroke-linecap="round" stroke-linejoin="round" d="M586.34 95.78C586.09 95.72 585.04 95.37 584.64 95.39C584.25 95.41 583.97 95.49 583.74 95.90C583.51 96.31 583.14 96.98 583.11 98.14C583.09 99.29 583.34 102.52 583.57 103.58C583.81 104.65 584.31 104.98 584.67 105.24C585.03 105.50 585.61 105.55 585.98 105.32C586.35 105.10 586.85 104.40 587.14 103.74C587.43 103.08 587.80 102.00 587.92 100.93C588.03 99.86 587.70 96.83 587.89 96.62C588.08 96.40 588.82 98.88 589.21 99.48C589.60 100.07 590.08 100.45 590.50 100.59C590.92 100.72 591.63 100.70 592.03 100.39C592.42 100.09 592.93 99.25 593.14 98.55C593.36 97.86 593.45 96.64 593.46 95.76C593.48 94.88 593.41 93.52 593.24 92.71C593.07 91.89 592.62 90.84 592.34 90.32C592.07 89.79 591.67 89.35 591.40 89.21C591.12 89.07 590.73 89.16 590.50 89.38C590.27 89.59 589.87 89.93 589.85 90.62C589.84 91.31 589.83 93.21 590.39 93.97C590.95 94.72 592.54 95.40 593.57 95.68C594.61 95.96 597.07 95.42 597.27 95.84C597.46 96.26 595.25 98.08 594.89 98.47"/><path fill="none" stroke="#000000" stroke-width="2.0" stroke-linecap="round" stroke-linejoin="round" d="M597.59 93.53C597.84 93.09 598.84 91.76 599.29 90.61C599.74 89.46 600.42 86.85 600.59 85.85C600.76 84.86 600.55 84.36 600.40 83.98C600.25 83.61 599.87 83.39 599.58 83.34C599.29 83.30 598.79 83.40 598.48 83.68C598.16 83.95 597.54 84.33 597.46 85.17C597.38 86.02 597.62 88.48 597.95 89.32C598.28 90.15 598.92 90.57 599.68 90.73C600.43 90.89 602.49 90.43 602.98 90.38"/><path fill="none" stroke="#000000" stroke-width="2.0" stroke-linecap="round" stroke-linejoin="round" d="M590.39 130.40C590.40 130.29 590.17 129.27 590.46 129.66C590.75 130.05 592.13 133.43 592.33 133.00C592.53 132.58 591.81 128.00 591.79 126.85C591.77 125.79 591.97 125.57 592.19 125.32C592.40 125.06 592.72 124.69 593.20 125.17C593.92 125.89 596.63 129.98 597.00 130.16C597.37 130.33 595.86 127.55 595.68 126.32C595.49 125.09 595.60 122.68 595.77 121.96C595.93 121.23 596.40 121.44 596.78 121.50C597.16 121.55 597.51 121.48 598.29 122.32C599.08 123.19 601.51 126.51 602.08 127.25"/><path fill="none" stroke="#000000" stroke-width="2.0" stroke-linecap="round" stroke-linejoin="round" d="M606.13 118.71C606.11 118.25 606.15 116.16 606.02 115.65C605.89 115.14 605.63 114.99 605.27 115.32C604.90 115.64 603.89 117.06 603.60 117.83C603.31 118.61 603.32 119.74 603.35 120.50C603.38 121.25 603.55 122.31 603.80 122.87C604.04 123.42 604.59 124.07 604.95 124.20C605.32 124.33 605.86 124.09 606.22 123.75C606.59 123.40 607.16 122.65 607.39 121.89C607.61 121.14 607.85 119.79 607.73 118.71C607.61 117.62 606.75 115.27 606.58 114.66"/><path fill="none" stroke="#000000" stroke-width="2.0" stroke-linecap="round" stroke-linejoin="round" d="M607.93 112.86C608.36 113.63 610.29 117.43 610.81 117.96C611.33 118.49 611.36 117.37 611.42 116.40C611.49 115.43 610.94 111.74 611.25 111.48C611.57 111.23 613.00 114.83 613.51 114.69C614.03 114.54 614.35 111.28 614.68 110.50C615.02 109.72 614.98 110.03 615.75 109.49C616.52 108.95 619.17 107.68 619.82 106.89C620.46 106.09 620.34 104.68 620.08 104.19C619.81 103.70 618.51 103.28 618.04 103.62C617.57 103.96 616.79 105.50 616.92 106.46C617.06 107.42 618.33 109.42 618.96 110.02C619.58 110.62 620.36 110.66 621.07 110.48C621.77 110.30 623.07 109.54 623.67 108.82C624.26 108.09 624.81 106.14 625.01 105.67"/><path fill="none" stroke="#000000" stroke-width="2.0" stroke-linecap="round" stroke-linejoin="round" d="M623.22 97.12C623.66 98.09 625.80 103.57 626.17 103.54C626.53 103.51 625.65 98.15 625.66 96.94C625.66 95.87 625.95 95.72 626.20 95.43C626.44 95.13 626.58 94.66 627.28 94.99C627.98 95.31 630.32 97.19 630.86 97.57"/><path fill="none" stroke="#000000" stroke-width="2.0" stroke-linecap="round" stroke-linejoin="round" d="M629.06 81.39C628.98 81.23 628.04 79.68 628.51 80.32C629.26 81.35 632.88 86.22 634.04 88.20C635.20 90.18 635.92 92.73 636.26 93.53"/><path fill="none" stroke="#000000" stroke-width="2.0" stroke-linecap="round" stroke-linejoin="round" d="M629.51 93.98C629.57 93.55 628.90 92.74 629.93 91.12C631.07 89.32 635.90 82.73 637.10 82.02C638.31 81.31 637.67 85.51 637.96 86.38C638.24 87.25 638.66 87.55 638.98 87.82C639.31 88.10 639.79 88.27 640.12 88.21C640.44 88.16 640.89 87.84 641.15 87.46C641.41 87.08 641.76 86.58 641.86 85.67C641.96 84.77 641.81 82.01 641.81 81.43C641.81 81.20 641.68 81.65 641.88 81.76C642.28 81.99 643.79 83.16 644.50 82.97C645.20 82.78 646.28 80.86 646.60 80.49"/><path fill="none" stroke="#000000" stroke-width="2.0" stroke-linecap="round" stroke-linejoin="round" d="M644.35 75.99C644.78 76.75 646.71 81.32 647.23 81.08C647.75 80.85 647.59 75.52 647.79 74.44C647.91 73.81 648.10 73.57 648.57 73.87C649.03 74.16 650.58 77.14 650.90 76.42C651.22 75.70 650.67 70.45 650.71 69.09C650.74 67.87 650.47 67.22 651.13 67.31C651.80 67.40 654.54 69.34 655.14 69.70"/><path fill="none" stroke="#000000" stroke-width="2.0" stroke-linecap="round" stroke-linejoin="round" d="M661.44 42.27C661.29 42.08 660.19 40.12 660.47 41.02C660.76 41.91 662.63 46.77 663.34 48.23C664.04 49.69 664.75 51.76 665.17 50.74C665.59 49.73 665.83 42.79 666.13 41.46C666.31 40.70 666.71 41.30 667.22 41.88C667.79 42.54 669.57 45.27 669.98 45.86"/><path fill="none" stroke="#000000" stroke-width="2.0" stroke-linecap="round" stroke-linejoin="round" d="M674.03 38.22C673.69 37.95 672.26 36.66 671.78 36.39C671.30 36.11 671.11 36.22 670.84 36.37C670.57 36.51 670.16 36.51 669.99 37.36C669.81 38.21 669.64 41.00 669.71 42.02C669.78 43.04 670.15 43.71 670.45 44.17C670.75 44.62 671.34 44.98 671.71 45.03C672.08 45.09 672.59 44.84 672.93 44.51C673.27 44.17 673.75 43.78 673.97 42.80C674.19 41.83 674.12 38.60 674.40 38.01C674.68 37.42 675.18 38.95 675.84 38.85C676.49 38.76 678.17 37.93 678.77 37.38C679.37 36.84 679.75 36.34 679.83 35.23C679.92 34.12 679.59 31.06 679.34 29.99C679.10 28.92 678.69 28.45 678.21 28.10C677.73 27.74 676.35 27.21 676.13 27.60C675.91 28.00 676.38 29.99 676.74 30.71C677.09 31.44 677.15 31.62 678.51 32.44C679.88 33.26 684.60 35.37 685.82 36.17C686.81 36.83 686.63 37.13 686.62 37.77C686.60 38.42 685.85 40.06 685.72 40.47"/><path fill="none" stroke="#000000" stroke-width="2.0" stroke-linecap="round" stroke-linejoin="round" d="M625.46 125.45C625.40 125.38 624.80 124.65 625.05 124.98C626.06 126.33 631.14 133.03 632.21 134.45"/><path fill="none" stroke="#000000" stroke-width="2.0" stroke-linecap="round" stroke-linejoin="round" d="M631.31 126.80C631.30 126.71 630.96 125.92 631.21 126.22C631.89 127.03 635.12 131.30 635.81 132.20"/><path fill="none" stroke="#000000" stroke-width="2.0" stroke-linecap="round" stroke-linejoin="round" d="M630.86 125.45C630.79 125.18 630.48 123.92 630.41 123.65"/><path fill="none" stroke="#000000" stroke-width="2.0" stroke-linecap="round" stroke-linejoin="round" d="M636.71 122.75C637.28 123.39 640.31 127.23 640.51 126.96C640.71 126.69 638.37 121.99 638.05 120.94C637.84 120.27 638.16 120.10 638.35 119.94C638.54 119.78 638.71 119.65 639.32 119.87C639.92 120.10 641.86 121.96 642.37 121.44C642.88 120.91 642.56 117.20 642.71 116.38C642.81 115.86 643.13 115.96 643.37 115.95C643.62 115.94 643.83 115.86 644.35 116.32C644.97 116.87 647.03 119.11 647.50 119.61"/><path fill="none" stroke="#000000" stroke-width="2.0" stroke-linecap="round" stroke-linejoin="round" d="M647.95 115.11C648.01 115.25 648.33 115.88 648.40 116.01"/><path fill="none" stroke="#000000" stroke-width="2.0" stroke-linecap="round" stroke-linejoin="round" d="M646.60 113.76C646.18 113.17 644.10 110.49 643.83 109.81C643.57 109.14 644.65 109.35 644.80 109.27"/><path fill="none" stroke="#000000" stroke-width="2.0" stroke-linecap="round" stroke-linejoin="round" d="M648.40 103.42C648.31 103.33 647.48 102.40 647.82 102.84C648.90 104.26 654.42 111.36 655.59 112.86"/><path fill="none" stroke="#000000" stroke-width="2.0" stroke-linecap="round" stroke-linejoin="round" d="M649.75 111.06C649.91 110.60 650.17 108.93 650.84 107.98C651.52 107.04 653.73 105.25 654.24 104.77"/><path fill="none" stroke="#000000" stroke-width="2.0" stroke-linecap="round" stroke-linejoin="round" d="M657.84 104.77C658.12 104.72 659.14 104.95 659.73 104.46C660.32 103.97 661.50 102.35 661.76 101.52C662.03 100.68 661.69 99.27 661.49 98.89C661.30 98.51 660.78 98.78 660.47 98.98C660.16 99.17 659.64 99.70 659.42 100.20C659.20 100.70 658.96 101.71 659.00 102.29C659.04 102.88 659.36 103.64 659.71 104.10C660.06 104.56 660.66 105.24 661.33 105.34C662.00 105.44 663.27 105.39 664.17 104.76C665.06 104.13 666.61 102.18 667.28 101.17C667.95 100.16 668.43 98.50 668.63 98.02"/><path fill="none" stroke="#000000" stroke-width="2.0" stroke-linecap="round" stroke-linejoin="round" d="M665.93 85.88C665.78 85.40 664.34 82.58 664.94 82.67C665.53 82.76 668.55 85.13 669.91 86.49C671.27 87.85 674.07 90.83 674.00 91.72C673.93 92.60 670.36 92.09 669.43 92.36C668.50 92.63 668.17 93.10 667.80 93.52C667.43 93.93 667.05 94.66 666.97 95.13C666.89 95.59 667.05 96.24 667.26 96.61C667.47 96.99 667.87 97.56 668.35 97.62C668.82 97.69 669.58 97.71 670.43 97.03C671.28 96.34 673.49 93.67 674.03 93.08"/><path fill="none" stroke="#000000" stroke-width="2.0" stroke-linecap="round" stroke-linejoin="round" d="M682.57 63.85C682.57 63.70 682.21 62.24 682.57 62.82C683.37 64.11 687.86 71.15 687.89 72.46C687.92 73.77 683.71 71.53 682.78 71.53C681.85 71.53 681.84 71.79 681.71 72.46C681.58 73.12 681.68 75.23 681.93 75.95C682.18 76.68 682.87 77.07 683.37 77.27C683.87 77.48 684.71 77.53 685.27 77.34C685.82 77.15 686.80 76.19 687.07 75.99"/><path fill="none" stroke="#000000" stroke-width="2.0" stroke-linecap="round" stroke-linejoin="round" d="M688.42 66.55C688.82 67.16 690.71 69.99 691.11 70.60"/><path fill="none" stroke="#000000" stroke-width="2.0" stroke-linecap="round" stroke-linejoin="round" d="M687.07 62.95C686.99 62.67 686.38 61.42 686.58 61.09C686.79 60.75 688.14 60.76 688.42 60.70"/><path fill="none" stroke="#000000" stroke-width="2.0" stroke-linecap="round" stroke-linejoin="round" d="M693.36 61.60C693.48 61.23 694.16 59.67 694.15 59.14C694.14 58.62 693.59 58.05 693.29 58.10C692.98 58.16 692.27 59.11 692.12 59.52C691.98 59.92 691.68 60.20 692.31 60.83C693.29 61.82 698.13 65.14 698.69 66.13C699.26 67.12 696.45 67.25 696.06 67.45"/><path fill="none" stroke="#000000" stroke-width="2.0" stroke-linecap="round" stroke-linejoin="round" d="M694.71 50.36C694.76 49.93 694.85 47.92 695.03 47.50C695.21 47.08 695.49 47.13 695.88 47.54C696.58 48.28 698.57 50.62 699.67 52.39C700.78 54.16 702.72 58.31 703.25 59.35"/><path fill="none" stroke="#000000" stroke-width="2.0" stroke-linecap="round" stroke-linejoin="round" d="M696.96 58.90C696.89 58.09 696.31 54.52 696.51 53.51C696.71 52.50 698.04 52.36 698.31 52.16"/><path fill="none" stroke="#000000" stroke-width="2.0" stroke-linecap="round" stroke-linejoin="round" d="M705.50 48.56C705.95 49.28 708.25 53.05 708.45 53.31C708.66 53.57 707.12 51.08 706.88 50.30C706.64 49.52 706.86 48.44 706.85 48.11"/><path fill="none" stroke="#000000" stroke-width="2.0" stroke-linecap="round" stroke-linejoin="round" d="M704.15 42.72C703.95 42.38 703.01 40.81 702.80 40.47"/><path fill="none" stroke="#000000" stroke-width="2.0" stroke-linecap="round" stroke-linejoin="round" d="M708.65 33.27C708.64 33.21 708.46 32.55 708.58 32.82C709.36 34.49 712.84 43.54 713.81 44.39C714.78 45.23 714.72 39.45 715.05 38.46C715.29 37.72 715.70 37.83 716.01 37.78C716.32 37.73 716.85 37.86 717.14 38.13C717.43 38.40 717.81 38.68 717.94 39.58C718.06 40.48 718.31 43.02 717.99 44.10C717.68 45.18 716.17 46.36 715.84 46.76"/><path fill="none" stroke="#000000" stroke-width="2.0" stroke-linecap="round" stroke-linejoin="round" d="M721.24 32.82C721.48 33.38 722.41 35.84 722.81 36.51C723.22 37.18 723.62 37.23 723.95 37.29C724.28 37.35 724.76 37.22 725.04 36.91C725.33 36.59 725.67 36.27 725.85 35.19C726.03 34.12 725.76 30.48 726.24 29.75C726.72 29.02 728.39 30.44 729.05 30.32C729.71 30.21 730.22 29.61 730.62 28.95C731.02 28.30 731.59 27.75 731.74 25.97C731.89 24.20 731.79 19.02 731.62 17.15C731.45 15.28 730.87 14.35 730.58 13.52C730.30 12.69 729.86 11.42 729.71 11.64C729.57 11.87 729.46 13.85 729.61 15.02C729.76 16.18 730.08 17.41 730.72 19.41C731.36 21.42 733.18 26.80 733.87 28.39C734.44 29.71 734.95 29.97 735.28 30.03C735.61 30.09 736.09 29.10 736.08 28.78C736.06 28.46 735.31 28.01 735.18 27.88"/><path fill="none" stroke="#000000" stroke-width="2.0" stroke-linecap="round" stroke-linejoin="round" d="M731.13 25.63C730.98 25.47 730.18 24.81 730.11 24.53C730.04 24.25 730.11 24.07 730.67 23.74C732.05 22.92 737.70 19.73 739.31 19.05C740.62 18.50 741.05 18.75 741.43 19.21C741.80 19.67 742.08 21.90 741.82 22.12C741.55 22.35 740.00 20.90 739.68 20.68"/><path fill="none" stroke="#000000" stroke-width="2.0" stroke-linecap="round" stroke-linejoin="round" d="M738.33 14.84C738.32 14.71 737.99 14.14 738.26 14.00C738.53 13.87 739.85 13.95 740.13 13.94"/><path fill="none" stroke="#000000" stroke-width="2.0" stroke-linecap="round" stroke-linejoin="round" d="M748.22 13.04C748.00 13.18 747.18 13.37 746.75 13.96C746.32 14.54 745.42 16.17 745.36 16.95C745.30 17.74 746.01 18.88 746.32 19.20C746.64 19.53 747.02 19.57 747.45 19.10C747.89 18.62 748.96 17.24 749.21 16.06C749.46 14.88 749.13 11.96 749.12 11.24"/><path fill="none" stroke="#000000" stroke-width="2.0" stroke-linecap="round" stroke-linejoin="round" d="M752.72 8.99C753.20 9.33 754.96 11.29 755.92 11.21C756.87 11.13 758.21 8.85 759.08 8.45C759.95 8.04 761.31 8.53 761.71 8.54"/><path fill="none" stroke="#d1000d" stroke-width="2.5" stroke-linecap="round" stroke-linejoin="round" d="M30.13 460.89C31.28 461.73 37.87 466.47 37.83 466.49C37.79 466.52 32.13 463.08 29.88 461.06C27.62 459.04 24.14 454.87 22.80 453.01C21.46 451.15 21.26 449.85 20.94 448.65C20.61 447.46 20.47 445.91 20.61 445.06C20.75 444.21 21.36 443.31 21.87 442.99C22.37 442.67 23.34 442.66 23.98 442.91C24.63 443.17 25.54 443.96 26.15 444.71C26.77 445.46 27.47 446.15 28.08 447.92C28.69 449.70 29.82 455.15 30.23 456.53C30.38 457.06 30.26 457.19 30.80 457.12C31.81 456.98 35.36 455.87 36.94 455.62C38.53 455.38 40.70 455.52 41.37 455.50"/><path fill="none" stroke="#d1000d" stroke-width="2.5" stroke-linecap="round" stroke-linejoin="round" d="M41.37 448.30C41.20 447.06 40.73 441.71 40.28 440.04C39.83 438.38 38.75 437.48 38.35 437.18C37.95 436.89 37.57 437.31 37.63 438.06C37.72 439.13 38.47 442.93 38.94 444.34C39.42 445.74 40.20 446.76 40.79 447.44C41.38 448.12 42.30 448.74 42.89 448.86C43.49 448.99 44.35 448.85 44.75 448.26C45.14 447.67 45.41 446.23 45.51 444.96C45.61 443.68 45.56 441.08 45.41 439.76C45.27 438.44 44.65 436.70 44.52 436.16"/><path fill="none" stroke="#d1000d" stroke-width="2.5" stroke-linecap="round" stroke-linejoin="round" d="M33.27 415.48C33.24 415.40 32.70 414.74 33.04 414.93C35.07 416.00 45.39 421.47 46.76 422.63C48.14 423.80 43.15 422.53 42.18 422.71C41.21 422.89 40.70 423.35 40.27 423.82C39.85 424.30 39.43 425.09 39.34 425.86C39.25 426.63 39.38 428.01 39.66 428.96C39.94 429.90 40.63 431.36 41.19 432.18C41.75 433.00 42.69 433.92 43.38 434.44C44.07 434.97 45.17 435.70 45.81 435.69C46.45 435.68 47.22 435.00 47.63 434.40C48.04 433.79 48.42 432.41 48.56 431.67C48.70 430.92 48.56 429.75 48.56 429.42"/><path fill="none" stroke="#d1000d" stroke-width="2.5" stroke-linecap="round" stroke-linejoin="round" d="M54.86 393.00C55.69 394.09 61.02 401.41 60.38 400.28C59.74 399.15 52.23 388.20 50.59 385.45C49.33 383.34 49.53 382.68 49.47 381.94C49.41 381.19 49.78 380.63 50.19 380.47C50.60 380.32 51.27 380.04 52.20 380.93C53.12 381.83 55.56 385.12 56.34 386.45C57.12 387.78 57.24 388.86 57.41 389.81C57.58 390.76 57.64 392.15 57.46 392.77C57.28 393.38 56.39 393.73 56.21 393.89"/><path fill="none" stroke="#d1000d" stroke-width="2.5" stroke-linecap="round" stroke-linejoin="round" d="M58.00 370.96C57.63 371.05 55.81 370.85 55.51 371.56C55.21 372.26 55.71 374.74 56.01 375.68C56.31 376.61 57.00 377.32 57.50 377.79C57.99 378.27 58.80 378.71 59.30 378.84C59.80 378.96 60.49 378.92 60.85 378.62C61.22 378.32 61.58 377.53 61.72 376.86C61.86 376.19 62.29 375.46 61.80 374.17C61.31 372.88 58.96 369.15 58.45 368.26"/><path fill="none" stroke="#d1000d" stroke-width="2.5" stroke-linecap="round" stroke-linejoin="round" d="M53.96 353.88C54.57 354.54 56.33 356.73 58.02 358.28C59.70 359.83 64.12 363.33 65.20 364.22"/><path fill="none" stroke="#d1000d" stroke-width="2.5" stroke-linecap="round" stroke-linejoin="round" d="M57.56 364.22C57.42 364.03 56.71 363.44 56.62 362.97C56.54 362.49 56.47 362.24 56.98 361.05C57.66 359.48 60.53 353.80 61.15 352.53"/><path fill="none" stroke="#d1000d" stroke-width="2.5" stroke-linecap="round" stroke-linejoin="round" d="M65.65 354.33C65.66 354.42 65.68 355.35 65.75 354.94C65.84 354.34 66.27 351.33 66.28 350.35C66.28 349.38 66.02 348.87 65.78 348.43C65.54 347.98 65.01 347.48 64.70 347.38C64.39 347.28 63.91 347.39 63.70 347.75C63.48 348.11 63.24 349.01 63.27 349.79C63.30 350.56 63.51 351.99 63.87 352.92C64.23 353.85 65.04 355.23 65.69 355.98C66.35 356.74 67.49 357.64 68.24 357.93C68.99 358.23 70.09 358.30 70.72 357.95C71.35 357.60 72.10 356.54 72.41 355.63C72.72 354.72 72.89 353.08 72.82 351.89C72.75 350.69 72.33 348.83 71.95 347.64C71.56 346.45 70.84 344.89 70.25 343.94C69.66 342.99 68.26 341.54 68.02 341.31C67.77 341.08 68.06 341.77 68.59 342.39C69.61 343.59 74.35 349.34 74.80 349.31C75.25 349.28 72.15 343.75 71.59 342.19C71.04 340.62 71.11 339.69 71.10 338.88C71.10 338.08 71.24 337.16 71.56 336.81C71.88 336.47 72.22 336.10 73.23 336.58C74.31 337.10 77.91 339.80 78.78 340.26C79.17 340.47 79.24 340.01 79.01 339.63C77.60 337.23 70.68 326.61 69.39 324.29C69.05 323.69 69.80 323.89 70.41 324.21C71.46 324.76 74.64 326.51 76.35 327.92C78.06 329.34 81.01 332.78 81.84 333.64"/><path fill="none" stroke="#d1000d" stroke-width="2.5" stroke-linecap="round" stroke-linejoin="round" d="M75.99 333.19C75.81 333.26 74.92 333.93 74.81 333.67C74.69 333.42 74.79 332.35 75.21 331.50C75.62 330.65 76.87 328.83 77.57 328.01C78.27 327.19 78.63 325.72 79.87 326.02C81.12 326.33 84.98 329.44 85.88 330.04"/><path fill="none" stroke="#d1000d" stroke-width="2.5" stroke-linecap="round" stroke-linejoin="round" d="M78.24 323.30C78.11 322.95 77.20 321.29 77.41 320.95C77.61 320.62 79.26 321.04 79.59 321.05"/><path fill="none" stroke="#d1000d" stroke-width="2.5" stroke-linecap="round" stroke-linejoin="round" d="M88.13 316.10C87.74 315.98 86.03 314.85 85.52 315.30C85.02 315.74 84.79 318.15 84.79 319.07C84.80 320.00 85.21 320.86 85.57 321.48C85.92 322.10 86.68 322.88 87.15 323.22C87.62 323.56 88.28 323.79 88.70 323.75C89.12 323.70 89.68 323.31 89.96 322.91C90.24 322.52 90.54 321.89 90.58 321.09C90.62 320.29 90.05 318.10 90.23 317.58C90.41 317.06 91.37 317.76 91.80 317.63C92.24 317.49 92.85 317.18 93.13 316.69C93.42 316.20 93.74 315.24 93.72 314.38C93.71 313.53 93.46 312.09 93.03 310.99C92.59 309.90 91.60 308.17 90.81 307.08C90.01 305.98 88.57 304.50 87.73 303.70C86.89 302.91 85.73 302.07 85.20 301.81C84.67 301.54 84.19 301.58 84.20 301.95C84.22 302.32 84.18 302.96 85.27 304.26C86.48 305.70 90.60 310.05 92.27 311.55C93.94 313.05 95.19 313.76 96.39 314.24C97.59 314.72 99.69 314.68 100.27 314.76"/><path fill="none" stroke="#d1000d" stroke-width="2.5" stroke-linecap="round" stroke-linejoin="round" d="M68.80 460.44C68.75 459.22 68.65 453.97 68.46 452.31C68.26 450.65 67.86 450.10 67.49 449.36C67.13 448.62 66.50 447.75 66.01 447.38C65.52 447.01 64.68 446.77 64.23 446.88C63.77 446.99 63.22 447.47 62.98 448.10C62.75 448.72 62.55 450.06 62.64 451.04C62.73 452.03 63.15 453.65 63.57 454.67C64.00 455.70 64.84 457.10 65.47 457.88C66.10 458.65 67.14 459.59 67.79 459.83C68.44 460.06 69.24 459.96 69.79 459.45C70.35 458.93 71.10 457.60 71.49 456.40C71.88 455.20 72.26 452.19 72.39 451.45"/><path fill="none" stroke="#d1000d" stroke-width="2.5" stroke-linecap="round" stroke-linejoin="round" d="M67.90 440.66C68.78 441.37 73.30 445.22 73.76 445.40C74.23 445.57 71.72 443.12 71.00 441.84C70.28 440.57 69.16 437.78 68.96 436.88C68.78 436.07 68.84 435.78 69.67 435.85C70.81 435.96 75.23 437.41 76.54 437.57C77.85 437.72 78.00 437.34 78.40 436.89C78.79 436.43 79.11 435.43 79.17 434.53C79.23 433.63 79.09 432.01 78.82 430.89C78.56 429.77 77.93 428.09 77.41 427.07C76.89 426.06 75.97 424.74 75.34 424.12C74.71 423.50 73.74 423.00 73.20 422.93C72.67 422.85 72.03 423.20 71.78 423.61C71.53 424.03 71.41 424.98 71.56 425.70C71.71 426.42 72.25 427.64 72.79 428.39C73.34 429.14 74.42 430.23 75.20 430.68C75.97 431.13 77.14 431.34 77.98 431.37C78.82 431.41 80.09 431.39 80.79 430.92C81.49 430.45 82.28 429.42 82.64 428.26C83.00 427.09 83.10 423.89 83.19 423.12"/><path fill="none" stroke="#d1000d" stroke-width="2.5" stroke-linecap="round" stroke-linejoin="round" d="M77.79 416.83C78.40 417.07 80.88 417.86 81.86 418.45C82.84 419.03 84.02 420.33 84.31 420.74C84.57 421.10 84.12 421.21 83.79 421.15C83.45 421.09 82.66 420.75 82.08 420.34C81.50 419.94 80.47 419.23 79.90 418.46C79.33 417.69 78.59 416.74 78.27 415.22C77.96 413.69 77.86 409.32 77.79 408.28"/><path fill="none" stroke="#d1000d" stroke-width="2.5" stroke-linecap="round" stroke-linejoin="round" d="M82.74 404.69C82.64 404.34 82.44 402.32 82.12 402.36C81.81 402.41 80.82 404.16 80.65 404.95C80.48 405.75 80.76 406.92 81.01 407.64C81.25 408.37 81.76 409.34 82.31 409.78C82.85 410.23 83.93 410.65 84.65 410.63C85.36 410.61 86.49 410.22 87.07 409.67C87.66 409.12 88.32 407.83 88.56 406.95C88.80 406.08 88.89 404.72 88.67 403.85C88.46 402.98 87.71 401.77 87.15 401.14C86.59 400.51 85.53 399.86 84.97 399.65C84.41 399.44 83.61 399.53 83.41 399.74C83.21 399.94 83.00 400.44 83.66 401.00C85.73 402.77 94.43 409.12 97.23 411.54C100.04 413.96 101.14 415.46 102.37 417.12C103.60 418.77 104.83 420.98 105.44 422.57C106.04 424.17 106.52 426.53 106.40 427.75C106.29 428.98 105.32 430.42 104.67 430.73C104.02 431.05 102.66 430.40 102.07 429.87C101.48 429.33 100.92 427.57 100.72 427.17"/><path fill="none" stroke="#d1000d" stroke-width="2.5" stroke-linecap="round" stroke-linejoin="round" d="M90.83 393.89C90.37 393.53 87.86 391.48 87.79 391.43C87.73 391.39 89.70 393.25 90.40 393.61C91.10 393.97 91.90 393.97 92.48 393.83C93.05 393.69 93.86 393.26 94.24 392.68C94.61 392.10 94.95 390.89 94.97 389.97C94.99 389.05 94.73 387.56 94.38 386.58C94.02 385.59 93.25 384.18 92.60 383.40C91.96 382.63 88.77 379.69 90.06 381.41C91.46 383.26 99.70 392.92 101.91 395.75C104.11 398.57 104.14 398.95 104.77 400.29C105.40 401.63 105.92 404.03 106.12 404.69"/><path fill="none" stroke="#d1000d" stroke-width="2.5" stroke-linecap="round" stroke-linejoin="round" d="M101.62 382.20C101.42 382.20 100.47 382.20 100.27 382.20"/><path fill="none" stroke="#d1000d" stroke-width="2.5" stroke-linecap="round" stroke-linejoin="round" d="M864.23 308.01C864.22 308.31 864.09 309.94 864.20 309.97C864.31 310.01 864.95 308.54 864.96 308.25C864.96 307.95 864.34 308.05 864.23 308.01"/><path fill="none" stroke="#d1000d" stroke-width="2.5" stroke-linecap="round" stroke-linejoin="round" d="M869.63 305.76C869.57 305.70 869.16 305.61 869.24 305.35C869.32 305.08 869.43 304.81 870.15 304.00C870.96 303.10 871.51 302.15 874.63 299.32C877.74 296.49 886.83 288.42 890.89 285.13C894.94 281.84 898.33 279.60 901.66 277.38C904.98 275.15 908.03 272.96 913.06 270.29C918.08 267.61 929.36 262.16 935.13 259.54C940.90 256.92 948.19 254.05 951.51 252.82C954.83 251.59 956.62 251.35 957.29 251.34C957.96 251.32 956.16 252.50 955.96 252.70"/><path fill="none" stroke="#d1000d" stroke-width="2.5" stroke-linecap="round" stroke-linejoin="round" d="M954.16 246.86C954.08 246.73 953.01 245.74 953.60 246.00C954.20 246.25 956.99 247.75 958.13 248.57C959.26 249.40 960.70 250.85 961.17 251.48C961.65 252.11 961.73 252.11 961.29 252.77C960.84 253.42 958.67 255.39 958.21 255.85"/><path fill="none" stroke="#d1000d" stroke-width="2.5" stroke-linecap="round" stroke-linejoin="round" d="M982.04 239.66C982.59 238.89 985.03 235.68 985.75 234.52C986.47 233.35 986.62 232.62 986.83 231.89C987.04 231.15 987.21 230.18 987.15 229.60C987.09 229.02 986.78 228.31 986.45 228.00C986.12 227.68 985.42 227.45 984.95 227.48C984.47 227.51 983.80 227.80 983.29 228.20C982.78 228.60 982.00 229.39 981.55 230.16C981.10 230.93 980.46 231.75 980.30 233.33C980.13 234.91 980.14 239.17 980.42 240.68C980.70 242.18 981.55 242.82 982.17 243.38C982.80 243.94 983.81 244.30 984.60 244.40C985.40 244.51 986.66 244.40 987.47 244.09C988.28 243.77 989.36 242.96 990.03 242.30C990.70 241.63 991.44 240.40 991.93 239.66C992.42 238.93 993.08 237.75 993.28 237.42"/><path fill="none" stroke="#d1000d" stroke-width="2.5" stroke-linecap="round" stroke-linejoin="round" d="M987.43 213.13C986.92 213.15 983.14 213.89 984.02 213.21C984.89 212.54 991.89 209.32 993.28 208.64"/><path fill="none" stroke="#d1000d" stroke-width="2.5" stroke-linecap="round" stroke-linejoin="round" d="M1000.47 189.75C1000.28 189.61 998.93 187.77 999.16 188.82C999.42 190.02 1002.08 198.18 1002.20 197.78C1002.31 197.37 1000.08 188.25 999.93 186.12C999.79 184.24 1000.53 184.17 1001.16 183.57C1001.79 182.97 1003.43 182.38 1004.11 182.15C1004.79 181.91 1005.37 181.89 1005.71 182.02C1006.04 182.15 1006.23 182.86 1006.32 183.01"/><path fill="none" stroke="#d1000d" stroke-width="2.5" stroke-linecap="round" stroke-linejoin="round" d="M1001.37 191.10C1001.52 190.89 1001.55 190.20 1002.36 189.66C1003.17 189.12 1006.11 187.83 1006.77 187.50"/><path fill="none" stroke="#d1000d" stroke-width="2.5" stroke-linecap="round" stroke-linejoin="round" d="M1003.17 195.15C1003.47 194.95 1004.34 194.16 1005.15 193.82C1005.96 193.48 1008.05 193.04 1008.57 192.90"/><path fill="none" stroke="#d1000d" stroke-width="2.5" stroke-linecap="round" stroke-linejoin="round" d="M1002.72 207.74C1002.37 207.74 999.04 208.47 1000.40 207.73C1003.37 206.11 1019.19 198.56 1022.51 196.95"/><path fill="none" stroke="#d1000d" stroke-width="2.5" stroke-linecap="round" stroke-linejoin="round" d="M1007.22 216.28C1007.14 216.20 1006.61 215.29 1006.70 215.77C1007.04 217.59 1009.05 226.52 1009.47 228.42"/><path fill="none" stroke="#d1000d" stroke-width="2.5" stroke-linecap="round" stroke-linejoin="round" d="M1008.12 220.78C1008.24 220.78 1008.61 221.17 1008.93 220.80C1009.24 220.42 1009.41 219.14 1010.24 218.26C1011.06 217.38 1013.79 215.43 1014.41 214.93"/><path fill="none" stroke="#d1000d" stroke-width="2.5" stroke-linecap="round" stroke-linejoin="round" d="M1009.02 220.78C1009.39 220.88 1010.47 220.81 1011.48 221.48C1012.50 222.16 1015.12 224.71 1015.76 225.28"/><path fill="none" stroke="#d1000d" stroke-width="2.5" stroke-linecap="round" stroke-linejoin="round" d="M1021.61 223.03C1021.83 223.89 1022.98 229.31 1023.07 228.76C1023.17 228.20 1022.23 221.10 1022.24 219.32C1022.25 217.61 1022.73 216.98 1023.16 216.93C1023.59 216.88 1024.80 218.17 1025.11 219.01C1025.41 219.86 1025.19 222.04 1025.20 222.58"/><path fill="none" stroke="#d1000d" stroke-width="2.5" stroke-linecap="round" stroke-linejoin="round" d="M1023.41 224.38C1024.00 224.09 1026.59 222.57 1027.40 222.47C1028.20 222.36 1028.70 223.08 1028.76 223.67C1028.82 224.26 1028.44 225.71 1027.77 226.42C1027.11 227.14 1024.83 228.12 1024.31 228.42"/><path fill="none" stroke="#d1000d" stroke-width="2.5" stroke-linecap="round" stroke-linejoin="round" d="M1032.40 205.94C1032.46 205.88 1032.69 205.46 1032.82 205.52C1032.95 205.58 1033.12 205.74 1033.26 206.34C1033.60 207.75 1034.82 213.64 1035.10 214.93"/><path fill="none" stroke="#d1000d" stroke-width="2.5" stroke-linecap="round" stroke-linejoin="round" d="M1027.45 208.19C1027.45 207.92 1027.23 206.87 1027.45 206.39C1027.68 205.91 1027.71 205.56 1028.97 204.98C1030.99 204.03 1039.15 200.83 1040.94 200.09"/><path fill="none" stroke="#a4a4a4" stroke-width="2.0" stroke-linecap="round" stroke-linejoin="round" d="M754.96 231.12C754.85 230.83 755.03 229.92 754.20 229.20C753.36 228.48 751.10 226.48 749.39 226.30C747.67 226.12 744.42 227.14 742.75 228.01C741.08 228.88 739.60 230.50 738.26 232.08C736.92 233.66 735.04 236.35 733.85 238.52C732.65 240.69 731.11 243.90 730.28 246.55C729.46 249.21 728.54 253.51 728.32 256.22C728.11 258.93 728.35 262.31 728.85 264.59C729.36 266.88 730.52 269.69 731.69 271.44C732.85 273.18 734.93 275.21 736.65 276.23C738.37 277.24 741.09 277.87 743.15 278.20C745.22 278.53 748.23 278.64 750.41 278.41C752.59 278.18 755.64 277.52 757.69 276.68C759.74 275.83 762.42 274.30 764.09 272.79C765.77 271.27 767.73 268.69 768.86 266.59C769.98 264.50 771.17 261.33 771.59 258.83C772.02 256.33 772.08 252.60 771.69 249.95C771.30 247.30 770.11 243.54 768.98 241.17C767.86 238.81 765.87 236.08 764.19 234.19C762.50 232.30 759.79 229.82 757.73 228.56C755.68 227.29 752.97 226.18 750.47 225.76C747.96 225.33 742.44 225.73 741.02 225.72"/><path fill="none" stroke="#a4a4a4" stroke-width="2.0" stroke-linecap="round" stroke-linejoin="round" d="M748.22 327.35C747.41 327.28 744.30 326.82 742.82 326.90C741.35 326.97 739.80 327.13 738.38 327.86C736.96 328.59 734.66 330.09 733.36 331.74C732.07 333.39 730.47 336.57 729.74 338.85C729.00 341.14 728.44 344.49 728.44 346.99C728.44 349.49 728.87 353.20 729.71 355.52C730.55 357.85 732.42 360.86 734.05 362.48C735.68 364.09 738.43 365.65 740.57 366.28C742.71 366.91 745.98 367.07 748.33 366.66C750.68 366.25 754.05 364.93 756.23 363.54C758.41 362.15 761.21 359.57 762.87 357.41C764.54 355.25 766.45 351.73 767.31 349.12C768.17 346.51 768.75 342.57 768.62 340.00C768.49 337.44 767.45 334.20 766.45 332.02C765.45 329.83 763.60 326.69 761.98 325.40C760.35 324.12 757.56 323.27 755.63 323.43C753.71 323.59 750.10 325.99 749.12 326.45"/><path fill="none" stroke="#a4a4a4" stroke-width="2.0" stroke-linecap="round" stroke-linejoin="round" d="M726.19 244.16C725.27 243.88 722.52 242.05 720.07 242.32C717.62 242.59 713.46 244.34 709.84 245.98C706.22 247.62 699.89 251.03 695.94 253.28C691.99 255.53 686.86 258.59 683.51 260.98C680.17 263.37 676.08 266.68 673.64 269.22C671.21 271.75 668.24 276.58 667.28 277.88"/><path fill="none" stroke="#a4a4a4" stroke-width="2.0" stroke-linecap="round" stroke-linejoin="round" d="M714.95 353.43C708.21 352.86 678.43 350.49 670.05 349.63C662.67 348.87 660.52 348.19 659.10 347.68C657.81 347.23 660.19 346.45 660.54 346.23C660.89 346.01 661.30 346.23 661.44 346.23"/><path fill="none" stroke="#a4a4a4" stroke-width="2.0" stroke-linecap="round" stroke-linejoin="round" d="M633.56 309.36C633.60 310.45 633.67 315.04 633.85 316.62C634.03 318.20 634.12 320.25 634.75 319.90C635.38 319.55 637.44 315.15 638.07 314.30C638.40 313.84 638.51 313.80 638.90 314.19C639.37 314.67 640.72 316.96 641.20 317.45C641.62 317.88 641.97 317.45 642.10 317.45"/><path fill="none" stroke="#a4a4a4" stroke-width="2.0" stroke-linecap="round" stroke-linejoin="round" d="M643.45 310.26C643.52 310.93 643.83 314.08 643.90 314.76"/><path fill="none" stroke="#a4a4a4" stroke-width="2.0" stroke-linecap="round" stroke-linejoin="round" d="M643.00 309.36C642.92 309.02 642.49 307.52 642.49 307.11C642.49 306.71 642.92 306.73 643.00 306.66"/><path fill="none" stroke="#a4a4a4" stroke-width="2.0" stroke-linecap="round" stroke-linejoin="round" d="M653.79 306.21C653.49 306.04 652.32 305.16 651.78 305.04C651.23 304.92 650.75 304.84 650.14 305.41C649.53 305.97 648.10 307.97 647.71 308.80C647.33 309.63 647.47 310.39 647.58 310.96C647.68 311.53 648.04 312.30 648.40 312.58C648.75 312.86 649.45 312.95 649.97 312.84C650.48 312.74 651.32 312.31 651.81 311.90C652.30 311.49 652.95 310.88 653.25 310.10C653.56 309.32 653.85 307.26 653.84 306.70C653.82 306.18 653.30 306.26 653.14 306.35C652.98 306.44 652.70 306.62 652.76 307.29C652.91 308.86 653.95 314.83 654.12 316.81C654.29 318.79 654.06 319.51 653.89 320.49C653.71 321.48 653.49 322.69 652.98 323.37C652.47 324.05 651.18 324.77 650.49 325.03C649.80 325.29 648.91 325.36 648.40 325.10C647.88 324.84 647.25 323.57 647.05 323.30"/><path fill="none" stroke="#a4a4a4" stroke-width="2.0" stroke-linecap="round" stroke-linejoin="round" d="M656.49 297.22C656.58 298.03 656.66 300.54 657.07 302.65C657.47 304.76 658.81 310.98 659.19 311.28C659.58 311.58 659.46 305.73 659.62 304.64C659.71 304.04 659.69 303.91 660.29 304.02C661.06 304.15 663.80 305.33 664.71 305.51C665.62 305.69 665.94 305.46 666.35 305.23C666.76 304.99 667.35 304.73 667.45 303.95C667.56 303.17 667.29 300.79 667.06 300.05C666.83 299.31 666.27 299.16 665.89 299.02C665.51 298.89 664.85 298.93 664.53 299.15C664.22 299.37 663.71 299.74 663.77 300.50C663.84 301.26 664.49 303.53 664.97 304.23C665.44 304.93 666.11 305.15 666.93 305.18C667.75 305.21 669.90 304.53 670.43 304.41"/><path fill="none" stroke="#a4a4a4" stroke-width="2.0" stroke-linecap="round" stroke-linejoin="round" d="M670.43 296.77C670.66 297.58 671.44 302.31 671.94 302.16C672.43 302.00 673.09 297.36 673.74 295.74C674.39 294.12 675.90 292.03 676.28 291.37"/><path fill="none" stroke="#a4a4a4" stroke-width="2.0" stroke-linecap="round" stroke-linejoin="round" d="M609.73 347.13C610.36 348.19 613.51 353.78 613.94 354.17C614.36 354.56 612.78 351.17 612.55 349.75C612.32 348.32 612.27 345.48 612.40 344.65C612.52 343.92 613.05 344.11 613.42 344.23C613.79 344.35 614.28 344.42 614.89 345.46C615.50 346.51 617.17 351.11 617.49 351.18C617.80 351.26 617.03 347.12 616.99 345.96C616.94 344.80 617.05 344.05 617.17 343.45C617.29 342.85 617.56 342.16 617.79 341.93C618.02 341.71 618.31 341.48 618.71 341.95C619.39 342.73 621.78 346.35 622.32 347.13"/><path fill="none" stroke="#a4a4a4" stroke-width="2.0" stroke-linecap="round" stroke-linejoin="round" d="M628.61 340.84C628.54 340.63 628.42 339.78 628.16 339.49C627.90 339.20 627.28 338.93 626.88 338.91C626.47 338.88 625.93 338.65 625.46 339.35C625.00 340.05 623.91 342.36 623.80 343.57C623.68 344.78 624.36 346.81 624.68 347.42C625.00 348.02 625.53 347.69 625.92 347.60C626.31 347.50 626.83 347.60 627.30 346.78C627.77 345.97 628.80 342.87 629.06 342.18"/><path fill="none" stroke="#a4a4a4" stroke-width="2.0" stroke-linecap="round" stroke-linejoin="round" d="M631.76 340.39C632.00 341.09 633.08 345.28 633.33 345.08C633.58 344.89 633.32 340.02 633.43 339.10C633.48 338.65 633.85 338.78 634.07 338.89C634.28 339.00 634.53 339.18 634.85 339.82C635.18 340.47 635.87 343.61 636.23 343.20C636.58 342.78 636.94 338.04 637.20 337.05C637.36 336.48 637.63 336.18 638.01 336.65C638.57 337.36 640.41 340.97 640.94 341.74C641.18 342.09 641.40 342.18 641.58 341.80C641.93 341.03 642.55 337.62 643.25 336.66C643.95 335.69 645.81 335.81 646.22 335.34C646.63 334.87 646.11 333.81 645.98 333.53C645.84 333.24 645.55 333.24 645.35 333.44C645.14 333.64 644.54 334.30 644.60 334.85C644.66 335.41 645.39 336.72 645.75 337.13C646.12 337.54 646.52 337.64 647.05 337.59C647.58 337.54 648.96 336.91 649.30 336.79"/><path fill="none" stroke="#a4a4a4" stroke-width="2.0" stroke-linecap="round" stroke-linejoin="round" d="M649.75 330.94C649.81 330.91 649.99 330.47 650.16 330.73C650.54 331.32 651.78 335.23 652.31 334.89C652.85 334.56 653.30 329.69 653.73 328.50C654.17 327.31 654.42 326.29 655.20 326.94C655.97 327.59 658.33 331.97 658.92 332.86C659.00 332.98 659.09 332.95 659.13 332.87C659.17 332.78 659.18 332.38 659.19 332.29"/><path fill="none" stroke="#a4a4a4" stroke-width="2.0" stroke-linecap="round" stroke-linejoin="round" d="M660.54 324.20C660.32 323.77 658.62 320.85 659.07 321.32C659.51 321.79 662.59 325.75 663.48 327.33C664.38 328.91 664.80 331.17 665.03 331.84"/><path fill="none" stroke="#a4a4a4" stroke-width="2.0" stroke-linecap="round" stroke-linejoin="round" d="M659.64 328.69C659.73 328.37 659.51 327.21 660.25 326.54C660.99 325.86 663.93 324.55 664.58 324.20"/><path fill="none" stroke="#a4a4a4" stroke-width="2.0" stroke-linecap="round" stroke-linejoin="round" d="M667.28 323.75C667.36 324.08 667.44 325.29 667.79 325.96C668.14 326.63 669.20 327.87 669.62 328.21C670.04 328.55 670.35 328.40 670.60 328.24C670.85 328.09 671.18 328.02 671.30 327.17C671.43 326.19 671.19 321.90 671.48 321.68C671.78 321.45 672.81 325.00 673.27 325.67C673.73 326.34 674.16 326.15 674.54 326.13C674.92 326.11 675.63 325.63 675.83 325.55"/><path fill="none" stroke="#a4a4a4" stroke-width="2.0" stroke-linecap="round" stroke-linejoin="round" d="M675.38 318.80C675.64 319.55 676.69 324.15 677.17 323.75C677.65 323.35 678.25 317.24 678.58 316.12C678.74 315.59 679.15 316.03 679.39 316.27C679.63 316.51 679.98 317.13 680.20 317.71C680.41 318.29 680.73 320.64 680.82 320.16C680.91 319.67 680.70 315.60 680.80 314.48C680.90 313.37 681.23 313.04 681.48 312.74C681.74 312.43 682.18 312.33 682.51 312.46C682.85 312.58 683.23 312.64 683.71 313.59C684.19 314.54 685.42 318.02 685.72 318.80"/><path fill="none" stroke="#a4a4a4" stroke-width="2.0" stroke-linecap="round" stroke-linejoin="round" d="M602.08 370.51C602.03 370.45 601.69 369.73 601.73 370.10C601.87 371.24 602.59 376.54 602.98 378.16C603.37 379.77 604.13 380.45 604.33 380.85"/><path fill="none" stroke="#a4a4a4" stroke-width="2.0" stroke-linecap="round" stroke-linejoin="round" d="M611.08 371.86C610.89 371.72 610.17 371.04 609.86 370.93C609.55 370.82 609.22 370.87 609.01 371.14C608.80 371.42 608.59 372.22 608.48 372.74C608.36 373.26 608.15 373.82 608.25 374.61C608.36 375.39 608.92 377.47 609.18 378.00C609.43 378.50 609.72 378.54 610.02 378.13C610.31 377.71 611.14 376.28 611.17 375.21C611.19 374.13 610.33 371.60 610.18 370.96"/><path fill="none" stroke="#a4a4a4" stroke-width="2.0" stroke-linecap="round" stroke-linejoin="round" d="M615.12 369.16C615.42 369.87 616.64 373.08 617.10 373.87C617.51 374.57 617.85 374.97 618.20 374.39C618.55 373.81 618.77 370.67 619.46 370.02C620.14 369.36 622.14 370.16 622.76 370.04C623.38 369.93 623.43 369.58 623.60 369.27C623.77 368.96 623.96 368.40 623.90 367.98C623.83 367.56 623.52 366.89 623.15 366.47C622.78 366.04 621.68 365.32 621.42 365.12"/><path fill="none" stroke="#a4a4a4" stroke-width="2.0" stroke-linecap="round" stroke-linejoin="round" d="M634.91 379.51C635.30 380.61 637.61 386.96 637.53 386.89C637.44 386.81 634.83 381.14 634.33 379.00C633.83 376.87 634.06 373.66 634.21 372.63C634.32 371.84 634.79 371.59 635.29 372.13C635.80 372.67 637.20 374.74 637.55 376.25C637.90 377.76 637.60 381.31 637.61 382.20"/><path fill="none" stroke="#a4a4a4" stroke-width="2.0" stroke-linecap="round" stroke-linejoin="round" d="M641.65 374.56C641.83 374.92 642.62 376.27 642.82 376.98C643.02 377.70 643.17 379.16 643.00 379.34C642.83 379.52 642.00 379.02 641.67 378.21C641.33 377.39 640.83 374.84 640.73 373.88C640.64 372.92 640.74 372.37 641.01 371.80C641.29 371.22 642.32 370.32 642.55 370.06"/><path fill="none" stroke="#a4a4a4" stroke-width="2.0" stroke-linecap="round" stroke-linejoin="round" d="M648.40 370.96C648.10 371.42 646.75 373.25 646.39 374.01C646.02 374.77 645.99 375.47 645.96 376.02C645.93 376.58 646.03 377.35 646.20 377.71C646.37 378.06 646.60 378.64 647.09 378.39C647.58 378.13 649.04 376.72 649.45 376.00C649.87 375.28 649.90 374.38 649.88 373.56C649.85 372.74 649.38 370.97 649.30 370.51"/><path fill="none" stroke="#a4a4a4" stroke-width="2.0" stroke-linecap="round" stroke-linejoin="round" d="M651.09 363.77C651.56 364.98 653.28 371.30 654.19 371.88C655.10 372.46 656.54 368.25 657.15 367.62C657.64 367.11 657.99 367.52 658.22 367.69C658.45 367.86 658.58 368.31 658.66 368.74C658.75 369.17 658.93 369.98 658.81 370.56C658.69 371.15 658.49 371.90 657.87 372.64C657.26 373.37 655.17 375.04 654.69 375.46"/><path fill="none" stroke="#a4a4a4" stroke-width="2.0" stroke-linecap="round" stroke-linejoin="round" d="M665.03 366.02C665.06 365.68 665.42 363.83 665.19 363.80C664.97 363.78 663.86 365.22 663.53 365.82C663.21 366.43 663.10 367.22 663.03 367.83C662.96 368.44 662.95 369.45 663.07 369.91C663.20 370.37 663.40 371.00 663.85 370.90C664.30 370.80 665.56 369.89 666.07 369.24C666.58 368.58 666.84 366.63 667.24 366.54C667.64 366.45 668.37 368.27 668.76 368.64C669.15 369.01 669.60 369.19 669.85 369.00C670.10 368.81 670.34 367.61 670.43 367.36"/><path fill="none" stroke="#a4a4a4" stroke-width="2.0" stroke-linecap="round" stroke-linejoin="round" d="M667.73 358.37C667.94 358.70 668.66 359.24 669.10 360.57C669.54 361.90 670.12 367.02 670.68 367.23C671.24 367.45 672.34 362.90 672.83 362.00C673.28 361.19 673.68 361.29 673.99 361.23C674.30 361.17 674.71 361.04 674.90 361.59C675.09 362.13 675.55 363.81 675.28 364.88C675.02 365.95 673.45 368.14 673.13 368.71"/><path fill="none" stroke="#a4a4a4" stroke-width="2.0" stroke-linecap="round" stroke-linejoin="round" d="M680.77 362.42C680.95 362.37 681.70 362.03 681.99 362.07C682.28 362.11 682.47 362.24 682.70 362.69C682.93 363.14 684.21 365.59 683.51 365.08C682.81 364.57 678.72 360.18 678.04 359.30C677.66 358.81 678.83 359.28 678.97 359.27"/><path fill="none" stroke="#a4a4a4" stroke-width="2.0" stroke-linecap="round" stroke-linejoin="round" d="M683.92 356.57C684.59 357.99 687.74 364.60 688.42 366.02"/><path fill="none" stroke="#a4a4a4" stroke-width="2.0" stroke-linecap="round" stroke-linejoin="round" d="M689.76 361.52C689.90 361.86 690.53 363.43 690.66 363.77"/><path fill="none" stroke="#a4a4a4" stroke-width="2.0" stroke-linecap="round" stroke-linejoin="round" d="M687.97 358.82C688.03 358.62 688.35 357.67 688.42 357.47"/><path fill="none" stroke="#a4a4a4" stroke-width="2.0" stroke-linecap="round" stroke-linejoin="round" d="M692.46 354.77C693.09 355.85 695.97 360.66 696.65 361.93C697.08 362.73 697.08 362.98 696.99 363.25C696.90 363.53 696.20 363.69 696.06 363.77"/><path fill="none" stroke="#a4a4a4" stroke-width="2.0" stroke-linecap="round" stroke-linejoin="round" d="M694.26 359.27C694.32 359.11 693.96 358.49 694.66 358.23C695.71 357.83 700.11 356.20 701.28 356.61C702.45 357.03 702.07 360.07 702.46 360.98C702.85 361.90 703.38 362.35 703.86 362.70C704.34 363.06 705.16 363.33 705.65 363.35C706.15 363.38 706.85 363.19 707.18 362.86C707.52 362.52 707.83 361.69 707.89 361.12C707.95 360.54 707.79 359.54 707.59 359.01C707.38 358.49 706.86 357.85 706.51 357.64C706.17 357.43 705.55 357.26 705.30 357.62C705.05 357.98 704.84 358.96 704.85 360.06C704.87 361.15 704.87 361.88 705.38 364.92C705.88 367.96 707.84 376.77 708.23 380.30C708.63 383.83 708.24 386.13 708.02 388.47C707.80 390.80 707.58 394.02 706.77 395.85C705.96 397.68 704.28 399.62 702.61 400.67C700.93 401.73 696.66 402.56 695.61 402.89"/><path fill="none" stroke="#a4a4a4" stroke-width="2.0" stroke-linecap="round" stroke-linejoin="round" d="M31.48 98.92C31.41 98.86 30.88 98.07 31.03 98.47C31.72 100.41 35.06 109.38 36.08 111.80C36.93 113.82 37.32 114.57 37.82 114.59C38.32 114.61 39.20 112.98 39.42 111.94C39.65 110.89 39.12 108.83 39.31 107.60C39.50 106.38 39.91 103.65 40.69 103.77C41.47 103.88 43.94 107.68 44.52 108.37"/><path fill="none" stroke="#a4a4a4" stroke-width="2.0" stroke-linecap="round" stroke-linejoin="round" d="M51.71 99.37C51.10 100.18 47.39 104.51 47.66 104.77C47.94 105.02 52.25 101.52 53.56 101.07C54.86 100.63 55.71 101.38 56.37 101.79C57.04 102.20 57.69 103.63 58.00 103.80C58.32 103.98 58.39 103.10 58.45 102.97"/><path fill="none" stroke="#a4a4a4" stroke-width="2.0" stroke-linecap="round" stroke-linejoin="round" d="M57.56 89.93C57.96 91.48 59.71 100.81 60.25 100.27C60.79 99.73 61.02 88.42 61.15 86.33"/><path fill="none" stroke="#a4a4a4" stroke-width="2.0" stroke-linecap="round" stroke-linejoin="round" d="M70.60 87.68C70.78 88.09 71.70 90.79 71.84 90.42C71.97 90.05 71.46 86.31 71.51 85.24C71.56 84.16 71.92 83.68 72.19 83.24C72.46 82.80 72.90 82.26 73.31 82.29C73.73 82.31 74.23 82.40 74.95 83.42C75.67 84.43 77.63 89.00 78.09 89.05C78.54 89.09 77.88 85.06 77.98 83.71C78.08 82.37 78.52 80.65 78.76 80.07C78.97 79.56 79.23 79.46 79.57 79.90C80.10 80.57 81.88 83.84 82.29 84.53"/><path fill="none" stroke="#a4a4a4" stroke-width="2.0" stroke-linecap="round" stroke-linejoin="round" d="M91.73 78.24C90.92 78.31 87.14 78.42 86.33 78.69C85.52 78.96 85.46 80.24 86.33 80.04C87.48 79.77 92.83 77.36 93.98 76.89"/><path fill="none" stroke="#a4a4a4" stroke-width="2.0" stroke-linecap="round" stroke-linejoin="round" d="M97.12 72.84C97.46 73.65 98.57 78.02 99.37 78.24C100.18 78.46 101.79 74.97 102.50 74.30C103.21 73.63 103.49 73.59 104.10 73.78C104.71 73.96 105.99 75.48 106.57 75.54C107.14 75.60 107.71 74.39 107.92 74.19"/><path fill="none" stroke="#a4a4a4" stroke-width="2.0" stroke-linecap="round" stroke-linejoin="round" d="M111.06 70.60C111.06 70.93 111.06 72.51 111.06 72.84"/><path fill="none" stroke="#a4a4a4" stroke-width="2.0" stroke-linecap="round" stroke-linejoin="round" d="M103.42 61.60C103.42 61.47 103.42 60.84 103.42 60.70"/><path fill="none" stroke="#a4a4a4" stroke-width="2.0" stroke-linecap="round" stroke-linejoin="round" d="M120.06 63.40C120.66 64.01 123.50 66.84 124.10 67.45"/><path fill="none" stroke="#a4a4a4" stroke-width="2.0" stroke-linecap="round" stroke-linejoin="round" d="M58.45 118.26C66.21 113.00 102.41 88.45 110.16 83.19"/><path fill="none" stroke="#a4a4a4" stroke-width="2.0" stroke-linecap="round" stroke-linejoin="round" d="M1054.88 276.54C1049.55 276.94 1024.69 278.83 1019.36 279.23"/><path fill="none" stroke="#a4a4a4" stroke-width="2.0" stroke-linecap="round" stroke-linejoin="round" d="M28.33 62.95C28.89 63.96 31.18 68.46 32.10 69.69C33.03 70.92 33.68 71.42 34.50 71.16C35.31 70.90 37.05 69.45 37.56 67.96C38.07 66.47 37.93 62.45 37.89 61.23C37.86 60.26 37.28 58.96 37.31 59.89C37.35 60.81 37.79 66.04 38.12 67.43C38.45 68.82 39.02 68.91 39.50 69.18C39.99 69.45 40.89 69.51 41.37 69.25C41.85 68.99 42.51 67.72 42.72 67.45"/><path fill="none" stroke="#a4a4a4" stroke-width="2.0" stroke-linecap="round" stroke-linejoin="round" d="M44.97 59.80C45.15 59.80 45.72 60.47 46.19 59.80C46.69 59.09 47.83 55.80 48.31 55.01C48.71 54.35 48.74 54.09 49.38 54.54C50.16 55.10 52.58 57.95 53.54 58.74C54.50 59.53 55.42 59.64 55.76 59.80"/><path fill="none" stroke="#a4a4a4" stroke-width="2.0" stroke-linecap="round" stroke-linejoin="round" d="M61.15 50.36C61.76 50.95 64.72 54.73 65.19 54.26C65.67 53.78 64.33 48.57 64.33 47.18C64.33 45.79 64.80 45.43 65.20 44.97C65.60 44.50 66.73 44.20 67.00 44.07"/><path fill="none" stroke="#a4a4a4" stroke-width="2.0" stroke-linecap="round" stroke-linejoin="round" d="M71.94 51.71C72.48 51.17 75.01 48.88 75.54 48.11C76.07 47.35 75.85 46.94 75.46 46.62C75.07 46.31 73.49 45.81 72.95 46.02C72.41 46.22 72.11 47.31 71.86 47.97C71.61 48.64 71.26 49.63 71.29 50.45C71.32 51.27 71.70 52.71 72.07 53.43C72.44 54.15 73.03 55.06 73.75 55.27C74.47 55.49 76.22 55.12 76.89 54.86C77.56 54.59 78.04 53.71 78.24 53.51"/><path fill="none" stroke="#a4a4a4" stroke-width="2.0" stroke-linecap="round" stroke-linejoin="round" d="M85.43 42.72C84.96 42.65 82.24 41.72 82.29 42.27C82.33 42.82 84.72 46.17 85.73 46.38C86.75 46.58 88.31 43.62 89.03 43.61C89.74 43.61 90.09 45.85 90.50 46.35C90.91 46.85 91.37 46.93 91.78 46.93C92.20 46.93 92.81 46.73 93.26 46.34C93.70 45.94 94.38 45.09 94.75 44.29C95.11 43.50 95.54 42.10 95.67 41.03C95.80 39.96 95.75 38.26 95.61 37.16C95.47 36.06 95.10 34.55 94.74 33.71C94.39 32.86 93.63 31.87 93.23 31.55C92.82 31.23 92.28 31.24 92.05 31.56C91.82 31.87 91.64 32.82 91.69 33.64C91.74 34.47 92.04 36.01 92.40 37.08C92.76 38.15 93.52 39.75 94.07 40.77C94.63 41.80 95.52 43.23 96.12 43.90C96.71 44.58 97.57 45.12 98.06 45.28C98.55 45.44 99.11 45.15 99.37 44.97C99.64 44.78 99.76 44.20 99.82 44.07"/><path fill="none" stroke="#a4a4a4" stroke-width="2.0" stroke-linecap="round" stroke-linejoin="round" d="M93.08 40.02C93.89 39.28 97.66 35.81 98.47 35.07"/><path fill="none" stroke="#a4a4a4" stroke-width="2.0" stroke-linecap="round" stroke-linejoin="round" d="M102.52 37.32C102.12 36.44 100.23 32.35 99.82 31.48"/><path fill="none" stroke="#a4a4a4" stroke-width="2.0" stroke-linecap="round" stroke-linejoin="round" d="M112.41 32.82C112.55 33.84 113.38 38.49 113.31 39.57C113.25 40.52 112.17 39.95 111.96 40.02"/><path fill="none" stroke="#a4a4a4" stroke-width="2.0" stroke-linecap="round" stroke-linejoin="round" d="M115.11 24.28C115.72 26.37 118.55 36.13 119.16 38.22"/><path fill="none" stroke="#a4a4a4" stroke-width="2.0" stroke-linecap="round" stroke-linejoin="round" d="M116.46 34.62C116.19 34.56 113.58 34.17 114.66 34.17C115.74 34.17 122.31 34.56 123.65 34.62"/><path fill="none" stroke="#a4a4a4" stroke-width="2.0" stroke-linecap="round" stroke-linejoin="round" d="M135.79 28.78C135.26 29.72 131.93 34.20 132.20 35.07C132.47 35.95 136.78 34.69 137.59 34.62"/>
</svg>