<?xml version="1.0" encoding="UTF-8"?>
<!DOCTYPE svg PUBLIC "-//W3C//DTD SVG 1.1//EN" "http://www.w3.org/Graphics/SVG/1.1/DTD/svg11.dtd">
<svg  xmlns="http://www.w3.org/2000/svg" xmlns:xlink="http://www.w3.org/1999/xlink" viewport-fill="none" viewBox="0.0, 0.0, 995.1195409693005, 503.59902279938956" version="1.1" height="503.59902279938956" width="995.1195409693005">
<path fill="none" stroke="#d1000d" stroke-width="2.0" stroke-linecap="round" stroke-linejoin="round" d="M524.74 304.86C524.68 304.73 524.89 304.27 524.29 303.96C523.30 303.45 519.78 301.69 518.11 301.41C516.45 301.12 514.79 301.52 513.18 302.06C511.57 302.60 509.09 303.76 507.41 304.99C505.72 306.21 503.27 308.32 501.94 310.22C500.61 312.12 499.21 315.26 498.53 317.65C497.85 320.04 497.28 323.58 497.42 326.14C497.55 328.69 498.38 332.27 499.46 334.66C500.54 337.06 502.76 340.08 504.62 342.12C506.48 344.15 509.53 346.72 511.84 348.21C514.15 349.71 517.57 351.30 520.01 352.10C522.45 352.91 525.77 353.52 528.10 353.58C530.42 353.65 533.43 353.50 535.50 352.53C537.57 351.55 540.21 349.29 541.90 347.10C543.59 344.92 545.60 341.06 546.77 337.98C547.93 334.90 549.24 330.07 549.65 326.57C550.06 323.07 549.95 317.97 549.52 314.63C549.09 311.29 548.17 306.53 546.79 304.30C545.40 302.07 542.65 300.48 540.28 299.75C537.92 299.03 533.71 299.31 531.04 299.47C528.37 299.63 523.78 300.61 522.49 300.82"/><path fill="none" stroke="#d1000d" stroke-width="2.0" stroke-linecap="round" stroke-linejoin="round" d="M508.56 346.23C508.56 346.10 508.70 345.58 508.56 345.33C508.41 345.08 508.09 344.61 507.56 344.56C507.03 344.52 506.69 344.59 505.03 345.03C495.49 347.54 458.01 357.29 443.97 361.33C429.93 365.37 429.37 365.56 411.41 371.93C393.44 378.31 337.94 398.77 324.19 403.85C321.17 404.97 321.05 405.24 319.78 405.83C318.51 406.42 316.40 407.35 315.71 407.78C315.11 408.17 315.28 408.59 315.21 408.73"/><path fill="none" stroke="#d1000d" stroke-width="2.0" stroke-linecap="round" stroke-linejoin="round" d="M317.00 404.24C317.00 403.76 317.51 400.75 316.95 401.08C316.38 401.41 313.90 405.32 313.24 406.44C312.59 407.56 312.60 407.99 312.58 408.54C312.55 409.09 312.79 409.75 313.08 410.12C313.37 410.48 313.40 410.98 314.52 410.98C316.26 410.98 323.13 410.22 324.65 410.08"/><path fill="none" stroke="#d1000d" stroke-width="2.0" stroke-linecap="round" stroke-linejoin="round" d="M522.94 287.33C522.70 287.56 521.44 289.58 521.34 288.89C521.24 288.20 521.59 285.24 522.26 282.73C522.92 280.22 524.33 275.96 525.76 272.18C527.19 268.39 529.68 262.04 531.80 257.49C533.91 252.95 537.49 246.13 539.88 241.86C542.28 237.59 543.87 234.46 547.77 229.04C551.66 223.61 563.67 208.85 565.84 205.67C567.43 203.34 562.91 207.46 562.22 207.84C561.59 208.18 561.77 208.13 561.21 208.20C560.64 208.28 558.13 208.45 558.43 208.32C558.73 208.20 562.20 207.48 563.21 207.40C564.23 207.32 564.78 207.55 565.21 207.80C565.65 208.06 565.98 208.90 566.11 209.09"/><path fill="none" stroke="#d1000d" stroke-width="2.0" stroke-linecap="round" stroke-linejoin="round" d="M571.06 191.10C570.98 190.74 569.80 187.94 570.53 188.71C571.27 189.48 575.67 195.20 575.93 196.23C576.20 197.27 573.02 195.63 572.29 195.59C571.55 195.56 571.33 195.79 571.03 196.00C570.72 196.21 570.25 196.47 570.26 197.00C570.27 197.53 570.75 199.07 571.09 199.54C571.44 200.00 572.04 200.08 572.57 200.09C573.10 200.11 574.14 199.91 574.65 199.65C575.17 199.38 575.80 198.50 576.00 198.30"/><path fill="none" stroke="#d1000d" stroke-width="2.0" stroke-linecap="round" stroke-linejoin="round" d="M581.40 184.36C581.02 184.50 579.31 184.66 578.88 185.33C578.46 185.99 578.49 188.03 578.58 188.79C578.67 189.54 578.93 190.03 579.51 190.38C580.08 190.73 581.87 191.43 582.43 191.14C582.98 190.85 583.58 189.34 583.23 188.46C582.87 187.58 580.53 185.74 580.05 185.26"/><path fill="none" stroke="#d1000d" stroke-width="2.0" stroke-linecap="round" stroke-linejoin="round" d="M587.69 182.56C587.83 182.03 588.52 179.95 588.61 179.04C588.71 178.13 588.47 176.86 588.30 176.48C588.13 176.09 587.75 176.28 587.49 176.49C587.24 176.70 586.80 177.32 586.58 177.87C586.37 178.42 586.12 179.43 586.04 180.15C585.96 180.87 585.88 181.99 586.04 182.67C586.21 183.35 586.70 184.35 587.15 184.68C587.60 185.00 588.35 185.12 589.04 184.81C589.73 184.49 591.34 182.90 591.74 182.56"/><path fill="none" stroke="#d1000d" stroke-width="2.0" stroke-linecap="round" stroke-linejoin="round" d="M593.09 170.42C592.71 170.41 591.00 170.11 590.57 170.36C590.15 170.61 589.79 171.64 590.25 172.09C590.71 172.53 592.16 173.00 593.62 173.31C595.08 173.61 598.97 173.90 599.97 174.14C600.52 174.27 600.61 174.60 600.32 174.91C600.03 175.23 598.38 176.06 598.04 176.26"/><path fill="none" stroke="#d1000d" stroke-width="2.0" stroke-linecap="round" stroke-linejoin="round" d="M598.94 166.37C599.44 167.02 601.93 170.62 602.29 170.67C602.66 170.71 601.41 167.73 601.35 166.67C601.28 165.61 601.60 164.05 601.85 163.58C602.11 163.11 602.47 163.03 603.05 163.52C603.62 164.00 605.29 166.33 605.68 166.82"/><path fill="none" stroke="#d1000d" stroke-width="2.0" stroke-linecap="round" stroke-linejoin="round" d="M600.73 150.18C600.73 150.79 600.73 153.62 600.73 154.23"/><path fill="none" stroke="#d1000d" stroke-width="2.0" stroke-linecap="round" stroke-linejoin="round" d="M610.18 147.94C610.78 149.55 613.62 157.11 614.22 158.73"/><path fill="none" stroke="#d1000d" stroke-width="2.0" stroke-linecap="round" stroke-linejoin="round" d="M609.28 157.38C609.68 156.78 610.80 154.77 611.95 153.42C613.10 152.07 616.18 149.14 616.92 148.38"/><path fill="none" stroke="#d1000d" stroke-width="2.0" stroke-linecap="round" stroke-linejoin="round" d="M613.77 183.91C613.58 183.58 612.01 181.07 612.50 181.70C612.99 182.32 617.10 187.24 617.04 188.08C616.97 188.93 612.93 187.37 612.07 187.33C611.47 187.30 611.38 187.60 611.31 187.80C611.23 188.00 611.12 188.32 611.57 188.68C612.01 189.03 613.55 189.94 614.29 190.17C615.02 190.40 616.14 190.20 616.47 190.20"/><path fill="none" stroke="#d1000d" stroke-width="2.0" stroke-linecap="round" stroke-linejoin="round" d="M619.62 185.71C620.03 185.07 622.01 182.64 622.37 181.45C622.72 180.27 622.19 178.45 621.99 177.82C621.78 177.19 621.32 177.23 621.00 177.25C620.68 177.26 620.12 177.49 619.85 177.91C619.59 178.34 619.16 178.87 619.24 180.08C619.32 181.29 619.91 184.80 620.38 185.96C620.84 187.11 621.65 187.59 622.35 187.76C623.05 187.92 624.35 187.50 625.01 187.05C625.68 186.61 626.54 185.14 626.81 184.81"/><path fill="none" stroke="#d1000d" stroke-width="2.0" stroke-linecap="round" stroke-linejoin="round" d="M626.81 179.41C627.41 180.66 630.77 187.87 630.82 187.75C630.87 187.62 627.84 180.52 627.14 178.56C626.44 176.61 626.33 175.71 626.15 174.72C625.98 173.73 625.90 172.54 625.95 171.97C626.00 171.41 626.27 171.05 626.50 170.98C626.74 170.91 627.21 171.10 627.51 171.54C627.81 171.98 628.35 172.80 628.51 173.92C628.68 175.03 628.60 178.20 628.61 178.96"/><path fill="none" stroke="#d1000d" stroke-width="2.0" stroke-linecap="round" stroke-linejoin="round" d="M631.76 173.57C632.22 172.94 634.28 170.53 634.82 169.41C635.36 168.29 635.41 166.69 635.36 166.11C635.30 165.53 634.93 165.42 634.44 165.55C633.94 165.67 632.51 166.48 632.05 166.94C631.60 167.40 631.45 167.83 631.42 168.61C631.40 169.40 631.50 171.48 631.89 172.15C632.28 172.83 633.69 172.97 634.01 173.12"/><path fill="none" stroke="#d1000d" stroke-width="2.0" stroke-linecap="round" stroke-linejoin="round" d="M637.16 161.87C637.42 162.68 638.59 167.50 638.95 167.23C639.31 166.97 639.27 161.64 639.55 160.12C639.83 158.60 640.43 157.46 640.81 157.07C641.19 156.69 641.47 156.92 642.07 157.57C642.67 158.23 644.39 160.85 644.80 161.42"/><path fill="none" stroke="#d1000d" stroke-width="2.0" stroke-linecap="round" stroke-linejoin="round" d="M642.10 148.83C642.01 148.68 641.10 147.19 641.52 147.84C641.97 148.52 644.19 151.63 645.09 153.40C645.98 155.16 647.14 158.69 647.50 159.63"/><path fill="none" stroke="#d1000d" stroke-width="2.0" stroke-linecap="round" stroke-linejoin="round" d="M643.45 159.18C643.37 159.02 642.83 158.71 642.94 158.11C643.04 157.52 643.35 156.33 644.17 155.21C644.99 154.09 647.76 151.32 648.40 150.63"/><path fill="none" stroke="#d1000d" stroke-width="2.0" stroke-linecap="round" stroke-linejoin="round" d="M662.79 138.94C662.54 138.87 661.63 138.00 661.13 138.44C660.63 138.88 659.57 140.55 659.44 141.89C659.31 143.23 659.89 146.29 660.26 147.36C660.62 148.42 661.41 148.76 661.88 148.99C662.36 149.22 663.01 149.59 663.43 148.90C663.85 148.21 664.85 146.02 664.69 144.39C664.52 142.76 662.69 138.99 662.34 138.04"/><path fill="none" stroke="#d1000d" stroke-width="2.0" stroke-linecap="round" stroke-linejoin="round" d="M665.48 137.14C665.98 138.08 668.17 142.66 668.79 143.38C669.40 144.10 669.48 143.03 669.59 141.94C669.72 140.52 668.97 134.62 669.70 133.90C670.44 133.18 673.76 136.66 674.48 137.14"/><path fill="none" stroke="#d1000d" stroke-width="2.0" stroke-linecap="round" stroke-linejoin="round" d="M663.24 169.97C664.65 170.37 671.26 172.26 672.68 172.67"/><path fill="none" stroke="#d1000d" stroke-width="2.0" stroke-linecap="round" stroke-linejoin="round" d="M668.18 163.22C668.18 165.31 668.18 175.07 668.18 177.16"/><path fill="none" stroke="#ffd873" stroke-opacity="0.5" stroke-width="20.0" stroke-linecap="round" stroke-linejoin="round" d="M692.46 397.49C691.91 403.59 689.91 428.96 688.80 438.16C687.69 447.36 686.21 453.64 685.09 458.81C683.96 463.99 681.94 470.00 681.29 472.67C680.65 475.25 680.73 475.60 680.71 476.61C680.69 477.62 680.79 478.79 681.16 479.43C681.53 480.07 682.36 480.53 683.19 480.89C684.03 481.25 685.38 481.60 686.72 481.81C688.05 482.01 688.51 482.17 692.12 482.26C697.37 482.40 715.09 482.59 721.70 482.71C728.30 482.83 726.51 482.97 736.15 483.06C746.36 483.15 767.24 484.03 789.78 483.34C812.31 482.65 866.97 479.60 886.37 478.46C905.78 477.32 910.14 476.10 919.15 475.76C928.16 475.41 941.81 476.13 946.43 476.17C948.79 476.19 948.53 476.30 949.96 476.03C951.40 475.75 954.71 474.88 955.98 474.34C957.25 473.80 957.78 473.21 958.42 472.42C959.07 471.64 959.61 471.55 960.28 469.11C961.23 465.65 962.90 456.15 964.73 449.38C966.56 442.60 971.05 428.89 972.46 423.95C973.86 419.01 973.69 419.46 974.09 416.42C974.49 413.38 975.06 407.32 975.11 403.70C975.17 400.08 974.73 394.29 974.46 392.30C974.27 390.88 973.85 390.87 973.35 390.45C972.85 390.04 972.00 389.68 971.13 389.53C970.26 389.38 968.81 389.40 967.54 389.43C966.27 389.46 965.90 389.49 962.65 389.75C946.14 391.06 884.93 395.72 857.48 398.21C830.03 400.71 795.86 404.84 779.65 406.36C763.43 407.89 754.64 408.08 749.37 408.38C746.15 408.57 746.42 408.44 744.53 408.39C742.65 408.34 741.18 408.61 736.81 408.04C732.43 407.47 722.46 405.00 715.38 404.59C708.29 404.17 690.57 405.46 689.57 405.26C688.58 405.05 701.52 403.73 708.76 403.23C716.00 402.73 730.87 402.13 737.83 401.93C744.79 401.73 744.21 401.69 755.14 401.88C766.07 402.07 796.46 403.04 810.71 403.17C824.97 403.31 841.24 402.97 850.16 402.78C859.08 402.59 857.57 402.83 870.15 401.90C882.74 400.98 922.66 397.49 934.07 396.64C942.15 396.03 951.82 395.80 946.21 396.22C940.60 396.63 912.78 398.09 896.67 399.41C880.55 400.73 852.36 403.55 838.78 405.02C825.21 406.49 825.72 406.36 806.16 409.23C786.61 412.09 725.41 421.40 708.42 424.12C697.96 425.80 695.63 426.67 692.87 427.38C690.81 427.90 690.59 428.37 690.03 428.83C689.47 429.30 689.06 430.06 689.16 430.49C689.27 430.93 689.73 431.43 690.73 431.73C691.73 432.03 693.53 432.41 695.83 432.50C698.13 432.59 699.25 432.62 706.07 432.35C728.08 431.46 822.26 427.48 842.56 426.56C843.36 426.52 842.22 426.19 841.42 426.17C837.91 426.10 825.71 425.87 819.17 426.08C812.62 426.29 804.80 426.86 797.78 427.55C790.76 428.24 780.06 429.51 772.38 430.68C764.71 431.85 753.66 433.86 746.64 435.35C739.63 436.84 730.74 439.08 725.64 440.61C720.54 442.14 715.00 444.31 712.63 445.57C710.26 446.83 708.99 448.29 709.84 448.99C710.68 449.70 714.24 450.17 718.28 450.27C722.32 450.37 730.01 450.11 736.78 449.64C743.55 449.17 754.62 448.10 763.41 447.14C772.20 446.19 785.65 444.60 795.39 443.27C805.14 441.94 818.87 439.93 828.38 438.26C837.88 436.58 850.48 434.02 858.76 432.10C867.04 430.18 877.27 427.47 883.60 425.46C889.93 423.44 897.12 420.63 900.96 418.69C904.80 416.75 908.31 414.13 909.20 412.51C910.09 410.89 909.19 409.01 906.87 407.90C904.55 406.79 899.18 405.59 893.71 405.10C888.24 404.61 878.58 404.38 870.41 404.62C862.24 404.86 849.37 405.62 839.24 406.70C829.11 407.79 813.92 409.89 802.85 411.86C791.79 413.83 776.18 417.21 765.46 419.85C754.74 422.48 740.64 426.52 731.39 429.43C722.14 432.35 710.61 436.59 703.78 439.29C696.95 441.99 689.66 445.33 685.86 447.43C682.07 449.52 679.23 451.83 678.51 453.27C677.78 454.72 678.91 456.18 681.04 457.03C683.17 457.89 688.18 458.59 692.70 458.97C697.23 459.35 704.88 459.57 711.19 459.53C717.50 459.49 727.14 459.18 734.77 458.70C742.40 458.23 749.31 457.80 762.05 456.36C774.78 454.91 803.29 451.36 819.67 449.05C836.06 446.74 860.60 442.75 871.27 440.95C881.95 439.14 885.86 438.17 890.81 437.03C895.77 435.89 901.46 434.41 904.31 433.33C907.17 432.26 908.89 430.81 909.83 429.88C910.77 428.96 911.64 427.90 910.57 427.14C909.51 426.38 906.42 425.39 902.72 424.81C899.02 424.24 891.91 423.54 885.90 423.33C879.88 423.13 871.16 423.10 862.61 423.44C854.06 423.78 839.20 424.52 828.90 425.61C818.59 426.70 804.16 428.85 793.89 430.72C783.62 432.59 769.67 435.67 760.42 438.08C751.17 440.48 738.92 444.16 732.22 446.76C725.52 449.36 719.55 452.95 715.77 455.39C712.00 457.83 707.48 461.18 707.07 463.04C706.66 464.89 709.43 466.83 713.02 467.75C716.61 468.68 723.70 469.33 731.00 469.22C738.31 469.11 750.80 468.26 761.72 467.04C772.65 465.83 791.80 462.98 803.82 461.11C815.85 459.24 830.90 456.58 841.90 454.57C852.90 452.55 868.71 449.44 877.14 447.66C885.56 445.88 893.52 443.88 898.05 442.70C902.57 441.52 906.56 440.54 907.27 439.77C907.98 439.00 906.09 437.99 902.77 437.57C899.02 437.09 889.66 436.79 882.29 436.57C874.93 436.36 863.95 436.04 853.67 436.14C843.39 436.23 825.27 436.59 813.75 437.19C802.22 437.79 787.24 438.94 776.83 440.13C766.43 441.33 753.03 443.44 744.39 445.16C735.76 446.88 724.40 449.64 719.27 451.61C714.14 453.57 711.50 456.37 710.19 458.25C708.88 460.14 707.88 462.94 710.54 464.17C713.19 465.41 720.14 466.30 727.90 466.49C735.65 466.68 751.18 466.22 762.24 465.44C773.30 464.66 789.09 462.98 801.63 461.28C814.17 459.58 834.09 456.23 845.85 454.10C857.62 451.97 871.26 449.18 880.07 447.08C888.88 444.97 898.19 442.37 904.58 440.07C910.98 437.77 917.22 435.66 922.69 431.75C928.17 427.83 938.10 417.95 941.07 413.98C944.04 410.00 943.51 407.16 942.51 405.26C941.52 403.37 938.02 401.92 934.46 401.36C930.90 400.80 925.16 400.61 918.79 401.51C912.42 402.41 900.03 404.98 891.99 407.34C883.96 409.70 872.86 413.83 865.23 417.23C857.59 420.62 847.34 425.96 841.11 429.99C834.89 434.01 827.15 440.02 823.72 444.04C820.30 448.06 818.69 453.24 818.31 456.77C817.94 460.30 819.10 465.19 821.23 467.57C823.36 469.94 828.11 471.72 832.50 472.62C836.89 473.51 844.64 473.85 850.51 473.53C856.38 473.21 862.51 472.71 871.63 470.45C880.76 468.20 903.08 461.38 911.35 458.50C919.62 455.61 922.70 453.44 926.78 451.23C930.86 449.02 935.49 445.96 938.54 443.77C941.60 441.57 945.33 438.77 947.15 436.61C948.97 434.45 950.15 431.30 950.68 429.34C951.21 427.38 951.78 424.84 950.66 423.55C949.53 422.26 946.57 421.03 943.18 420.72C939.79 420.41 933.02 420.63 928.06 421.48C923.11 422.34 916.05 424.33 910.14 426.43C904.24 428.53 894.15 432.60 888.71 435.47C883.27 438.35 877.39 442.49 873.88 445.59C870.38 448.69 866.43 453.40 865.35 456.15C864.28 458.90 864.75 462.32 866.70 463.92C868.66 465.52 874.34 466.45 878.40 466.81C882.46 467.17 888.50 467.08 893.78 466.34C899.06 465.60 908.13 463.42 913.60 461.86C919.08 460.30 925.71 457.84 930.27 455.95C934.83 454.06 940.55 451.34 944.00 449.27C947.44 447.20 951.20 444.23 953.25 442.13C955.31 440.02 956.57 437.34 957.67 435.22C958.77 433.10 960.04 430.01 960.60 427.98C961.16 425.95 961.47 423.94 961.40 421.68C961.33 419.42 960.90 415.12 960.15 412.92C959.40 410.72 957.24 407.92 956.39 407.01C955.53 406.11 955.21 406.71 954.46 406.87C953.70 407.03 953.28 406.95 951.37 408.07C948.01 410.06 937.00 417.01 932.02 420.08C927.04 423.14 922.48 425.80 918.17 428.50C913.86 431.19 906.53 435.71 903.31 438.05C900.08 440.39 897.30 442.77 896.65 444.11C896.00 445.45 897.03 446.78 898.98 446.99C900.93 447.21 905.42 446.64 909.66 445.55C913.91 444.46 922.45 441.73 927.28 439.72C932.11 437.70 938.00 434.72 941.87 432.13C945.74 429.53 950.73 425.08 953.05 422.42C955.37 419.76 957.09 416.51 957.34 414.38C957.60 412.26 956.18 409.54 954.76 408.27C953.34 407.00 950.41 406.19 947.87 405.95C945.33 405.71 941.72 405.93 937.83 406.69C933.94 407.45 927.44 409.31 921.93 411.03C916.43 412.75 907.80 415.69 901.13 418.16C894.47 420.62 884.86 424.27 877.51 427.46C870.16 430.65 858.33 436.11 852.14 439.44C845.94 442.78 839.47 446.79 836.21 449.70C832.95 452.61 830.25 456.80 830.40 458.86C830.55 460.92 833.63 462.70 837.20 463.42C840.76 464.15 848.32 463.92 854.15 463.69C859.99 463.46 866.39 463.09 876.09 461.90C885.79 460.72 908.72 457.06 918.83 455.76C928.95 454.46 939.41 453.58 943.53 453.25C945.35 453.10 947.66 452.74 946.26 453.52C944.86 454.31 937.02 457.03 934.19 458.50C931.35 459.97 928.10 462.48 927.36 463.34C926.63 464.19 929.36 464.01 929.28 464.19C929.20 464.36 928.48 464.45 926.83 464.51C912.10 465.08 848.41 467.20 831.07 467.96C817.83 468.54 817.75 468.87 811.26 469.58C804.77 470.29 792.17 472.00 787.82 472.69C784.03 473.28 778.42 474.34 782.25 474.14C791.19 473.70 831.81 470.61 847.43 469.70C863.05 468.80 871.82 468.51 886.39 468.11C900.97 467.70 935.57 467.35 944.57 467.00C946.04 466.94 946.08 466.12 946.39 465.75C946.70 465.39 947.22 465.16 946.66 464.57C946.01 463.87 945.63 462.45 942.00 461.08C938.27 459.68 927.99 456.57 921.84 455.20C915.68 453.83 908.54 452.89 900.95 451.93C893.36 450.97 880.86 449.39 871.24 448.77C861.61 448.16 847.89 447.74 836.76 447.84C825.63 447.93 807.89 448.75 797.02 449.41C786.14 450.08 773.28 451.20 764.26 452.28C755.25 453.35 743.57 455.49 736.93 456.61C730.29 457.73 724.36 458.74 720.00 459.72C715.64 460.71 711.06 462.42 707.86 463.15C704.66 463.88 701.80 463.69 698.68 464.59C695.55 465.49 688.20 468.49 687.00 469.15C685.80 469.81 689.51 469.01 690.66 468.99C691.82 468.96 694.10 468.99 694.71 468.99"/>
</svg>