<?xml version="1.0" encoding="UTF-8"?>
<!DOCTYPE svg PUBLIC "-//W3C//DTD SVG 1.1//EN" "http://www.w3.org/Graphics/SVG/1.1/DTD/svg11.dtd">
<svg  xmlns="http://www.w3.org/2000/svg" xmlns:xlink="http://www.w3.org/1999/xlink" viewport-fill="none" viewBox="0.0, 0.0, 565.0223612815188, 418.138133432296" version="1.1" height="418.138133432296" width="565.0223612815188">
<path fill="none" stroke="#004dc0" stroke-width="2.5" stroke-linecap="round" stroke-linejoin="round" d="M432.56 205.49C432.17 205.36 430.47 204.25 429.91 204.60C429.34 204.95 428.85 205.84 428.79 207.85C428.73 209.87 429.19 216.01 429.49 218.04C429.80 220.07 430.45 220.76 430.80 221.36C431.14 221.97 431.54 222.25 431.80 222.05C432.07 221.85 432.38 221.46 432.56 220.02C432.82 217.96 432.77 209.33 433.51 208.31C434.26 207.30 436.61 212.37 437.55 213.27C438.48 214.16 439.09 214.19 439.73 214.27C440.37 214.34 441.24 214.24 441.80 213.74C442.36 213.24 443.08 211.98 443.47 210.93C443.85 209.89 444.18 208.11 444.37 206.77C444.55 205.42 444.69 203.42 444.72 201.99C444.74 200.56 444.81 198.63 444.54 197.25C444.27 195.87 443.32 193.38 442.90 192.78C442.48 192.19 442.08 192.90 441.76 193.27C441.43 193.64 440.88 194.26 440.74 195.24C440.59 196.23 440.58 198.87 440.79 199.81C441.01 200.75 441.10 200.88 442.18 201.52C443.26 202.16 447.01 203.54 447.99 204.07C448.72 204.48 448.61 204.75 448.71 205.10C448.82 205.45 448.96 205.88 448.70 206.41C448.43 206.94 447.21 208.30 446.95 208.64"/><path fill="none" stroke="#004dc0" stroke-width="2.5" stroke-linecap="round" stroke-linejoin="round" d="M451.00 188.40C451.00 188.20 451.29 187.28 451.00 187.05C450.71 186.83 449.54 186.68 449.08 186.93C448.62 187.19 448.15 188.16 447.94 188.76C447.74 189.37 447.68 190.30 447.72 190.96C447.75 191.63 447.88 192.60 448.20 193.19C448.52 193.78 448.63 194.15 449.84 194.89C451.05 195.63 455.37 197.43 456.27 198.12C457.02 198.70 456.23 199.05 455.85 199.48C455.46 199.91 454.02 200.77 453.70 200.99"/><path fill="none" stroke="#004dc0" stroke-width="2.5" stroke-linecap="round" stroke-linejoin="round" d="M455.05 180.76C455.51 181.63 457.44 185.40 458.16 186.58C458.89 187.76 459.39 188.20 459.90 188.61C460.41 189.03 461.15 189.39 461.56 189.36C461.96 189.32 462.42 188.91 462.61 188.38C462.79 187.84 463.08 187.36 462.80 185.81C462.51 184.26 460.30 178.18 460.71 178.04C461.12 177.89 464.43 183.67 465.53 184.86C466.64 186.04 467.37 185.97 468.09 185.96C468.81 185.95 469.86 185.18 470.33 184.81C470.81 184.43 471.10 183.66 471.23 183.46"/><path fill="none" stroke="#004dc0" stroke-width="2.5" stroke-linecap="round" stroke-linejoin="round" d="M468.99 174.01C469.32 174.91 471.12 180.56 471.23 179.96C471.34 179.35 469.84 171.54 469.74 169.99C469.70 169.43 470.21 169.54 470.50 169.62C470.78 169.70 471.07 169.82 471.64 170.52C472.21 171.23 473.87 175.10 474.31 174.34C474.75 173.58 474.43 166.89 474.58 165.46C474.64 164.82 474.75 164.46 475.28 164.81C476.00 165.28 478.72 168.05 479.33 168.62"/><path fill="none" stroke="#004dc0" stroke-width="2.5" stroke-linecap="round" stroke-linejoin="round" d="M482.93 163.22C483.13 163.70 484.07 165.90 484.27 166.37"/><path fill="none" stroke="#004dc0" stroke-width="2.5" stroke-linecap="round" stroke-linejoin="round" d="M478.88 160.08C478.68 159.13 477.73 154.72 477.53 153.78"/><path fill="none" stroke="#004dc0" stroke-width="2.5" stroke-linecap="round" stroke-linejoin="round" d="M486.07 153.78C486.61 154.52 489.07 159.37 489.67 158.73C490.27 158.08 489.84 150.82 490.05 149.49C490.16 148.78 490.56 149.35 491.05 149.86C491.67 150.51 493.70 153.19 494.17 153.78"/><path fill="none" stroke="#004dc0" stroke-width="2.5" stroke-linecap="round" stroke-linejoin="round" d="M500.91 139.39C500.37 140.00 497.88 142.50 497.31 143.44C496.74 144.38 497.00 144.98 497.12 145.66C497.23 146.34 497.65 147.59 498.09 147.97C498.53 148.36 499.40 148.39 500.05 148.24C500.69 148.08 501.80 147.59 502.40 146.97C503.00 146.34 503.71 145.04 504.05 144.04C504.39 143.04 504.65 141.43 504.66 140.29C504.67 139.15 504.43 137.43 504.12 136.42C503.81 135.41 503.02 134.13 502.57 133.54C502.13 132.95 501.43 132.52 501.15 132.46C500.87 132.40 500.53 132.65 500.72 133.13C500.91 133.62 500.95 134.26 502.41 135.70C505.16 138.40 515.72 147.72 519.01 151.11C522.31 154.51 523.12 156.07 524.37 158.33C525.62 160.59 526.88 163.83 527.35 166.16C527.83 168.49 527.90 171.68 527.55 173.84C527.20 176.00 526.00 178.94 525.02 180.57C524.03 182.20 522.28 184.03 521.00 184.70C519.71 185.36 517.78 185.53 516.43 185.00C515.08 184.47 513.12 183.12 511.99 181.17C510.87 179.21 509.59 175.52 508.94 171.95C508.29 168.39 507.78 162.06 507.66 157.38C507.53 152.70 508.04 143.24 508.11 140.74"/><path fill="none" stroke="#004dc0" stroke-width="2.5" stroke-linecap="round" stroke-linejoin="round" d="M526.09 104.32C525.86 104.17 523.91 102.31 524.58 103.32C525.65 104.94 532.76 114.82 533.23 115.14C533.70 115.46 528.80 107.56 527.74 105.48C526.69 103.39 524.85 101.19 526.21 101.22C527.58 101.25 535.02 105.03 536.87 105.67C537.92 106.04 538.27 105.79 538.53 105.50C538.78 105.22 538.78 104.41 538.57 103.76C538.35 103.12 538.32 102.73 537.12 101.20C535.92 99.66 531.50 94.88 530.59 93.53C530.06 92.74 530.97 92.38 531.04 92.18"/><path fill="none" stroke="#004dc0" stroke-width="2.5" stroke-linecap="round" stroke-linejoin="round" d="M542.28 89.03C542.92 89.74 545.65 92.88 546.54 93.75C547.44 94.62 547.83 94.72 548.24 94.83C548.66 94.95 549.28 95.25 549.29 94.53C549.30 93.75 548.97 91.26 548.32 89.63C547.67 87.99 545.48 84.87 544.98 83.64C544.48 82.40 544.98 81.72 544.98 81.39"/><path fill="none" stroke="#004dc0" stroke-width="2.5" stroke-linecap="round" stroke-linejoin="round" d="M554.42 73.29C555.39 74.32 559.70 78.71 560.91 80.12C562.12 81.54 562.41 82.34 562.51 82.74C562.62 83.13 561.75 82.74 561.61 82.74"/><path fill="none" stroke="#004dc0" stroke-width="2.5" stroke-linecap="round" stroke-linejoin="round" d="M549.92 78.69C549.65 78.55 547.45 78.95 548.12 77.79C549.61 75.23 558.06 64.03 559.82 61.60"/><path fill="none" stroke="#d1000d" stroke-width="2.0" stroke-linecap="round" stroke-linejoin="round" d="M114.21 379.06C111.59 380.22 100.02 384.49 96.72 386.85C93.43 389.20 92.81 392.35 92.23 394.77C91.65 397.19 92.32 400.64 92.87 402.99C93.42 405.34 94.26 408.64 95.88 410.43C97.50 412.22 101.36 414.06 103.66 414.91C105.97 415.77 108.97 416.26 111.26 416.11C113.55 415.96 116.80 415.06 118.93 413.88C121.06 412.71 123.88 410.32 125.46 408.27C127.04 406.22 128.71 402.80 129.45 400.19C130.19 397.59 130.72 393.54 130.40 390.90C130.09 388.27 128.64 384.91 127.35 382.62C126.05 380.34 123.82 377.21 121.76 375.67C119.71 374.13 116.04 372.33 113.62 372.36C111.21 372.40 107.13 375.11 105.67 375.91C104.21 376.71 104.14 377.44 103.87 377.71"/>
</svg>