<?xml version="1.0" encoding="UTF-8"?>
<!DOCTYPE svg PUBLIC "-//W3C//DTD SVG 1.1//EN" "http://www.w3.org/Graphics/SVG/1.1/DTD/svg11.dtd">
<svg  xmlns="http://www.w3.org/2000/svg" xmlns:xlink="http://www.w3.org/1999/xlink" viewport-fill="none" viewBox="0.0, 0.0, 756.5648193359375, 742.323919987336" version="1.1" height="742.323919987336" width="756.5648193359375">
<path fill="none" stroke="#004dc0" stroke-width="2.5" stroke-linecap="round" stroke-linejoin="round" d="M486.97 472.58C488.46 472.45 495.38 471.82 496.86 471.68"/><path fill="none" stroke="#004dc0" stroke-width="2.5" stroke-linecap="round" stroke-linejoin="round" d="M490.57 475.73C490.30 476.00 487.08 477.40 488.77 477.53C490.52 477.66 500.24 476.77 502.26 476.63"/><path fill="none" stroke="#004dc0" stroke-width="2.5" stroke-linecap="round" stroke-linejoin="round" d="M514.85 471.68C514.66 471.62 513.12 471.47 513.61 471.27C514.10 471.06 516.19 470.51 518.13 470.30C520.07 470.09 525.28 469.95 526.54 469.89"/><path fill="none" stroke="#004dc0" stroke-width="2.5" stroke-linecap="round" stroke-linejoin="round" d="M541.83 457.74C542.10 459.90 543.36 469.98 543.63 472.13"/><path fill="none" stroke="#004dc0" stroke-width="2.5" stroke-linecap="round" stroke-linejoin="round" d="M543.63 466.29C544.28 465.27 547.54 460.36 547.95 459.50C548.37 458.63 546.74 460.13 546.39 460.53C546.05 460.93 545.83 461.58 545.64 462.14C545.45 462.71 545.11 463.65 545.11 464.28C545.12 464.90 545.12 465.48 545.66 466.31C546.20 467.15 547.95 469.15 548.72 469.87C549.49 470.58 550.17 470.87 550.82 471.07C551.48 471.28 552.73 471.21 553.07 471.23"/><path fill="none" stroke="#004dc0" stroke-width="2.5" stroke-linecap="round" stroke-linejoin="round" d="M557.12 472.13C557.24 472.55 557.97 474.77 557.92 474.89C557.87 475.01 557.10 473.93 556.79 472.95C556.47 471.97 555.93 469.41 555.83 468.37C555.73 467.32 555.93 466.61 556.12 465.98C556.31 465.35 556.73 464.58 557.09 464.19C557.46 463.80 558.11 463.46 558.54 463.37C558.96 463.29 559.61 463.07 559.93 463.63C560.25 464.19 560.91 465.86 560.67 467.09C560.43 468.33 558.10 471.35 558.30 471.87C558.51 472.40 561.27 470.76 562.02 470.59C562.76 470.43 562.95 470.42 563.28 470.78C563.60 471.13 564.14 472.44 564.19 472.98C564.23 473.51 564.17 473.85 563.57 474.36C562.98 474.88 561.31 476.09 560.21 476.43C559.11 476.77 556.82 476.60 556.22 476.63"/><path fill="none" stroke="#004dc0" stroke-width="2.5" stroke-linecap="round" stroke-linejoin="round" d="M618.72 451.00C617.98 451.07 616.93 450.45 613.77 451.45C609.35 452.85 592.95 458.85 589.26 460.34C588.60 460.60 588.50 461.21 589.13 461.39C589.76 461.57 590.57 461.72 593.45 461.54C597.61 461.28 612.84 459.91 616.88 459.67C619.23 459.53 620.00 459.67 620.41 459.91C620.82 460.14 620.50 460.72 619.61 461.23C616.61 462.97 604.13 469.37 600.38 471.50C596.62 473.62 595.86 474.39 594.56 475.40C593.26 476.42 592.09 477.64 591.71 478.28C591.33 478.93 591.46 479.50 592.04 479.71C592.61 479.91 594.19 479.84 595.54 479.66C596.88 479.47 598.06 479.17 601.00 478.45C603.94 477.72 613.00 475.37 615.12 474.83"/><path fill="none" stroke="#004dc0" stroke-width="2.5" stroke-linecap="round" stroke-linejoin="round" d="M605.68 490.57C605.79 490.60 606.27 490.32 606.38 490.80C606.60 491.73 606.79 495.95 607.16 496.79C607.52 497.63 608.51 496.67 608.83 496.41C609.15 496.16 609.21 495.27 609.28 495.07"/><path fill="none" stroke="#004dc0" stroke-width="2.5" stroke-linecap="round" stroke-linejoin="round" d="M603.88 486.97C603.95 486.77 604.26 485.83 604.33 485.62"/><path fill="none" stroke="#004dc0" stroke-width="2.5" stroke-linecap="round" stroke-linejoin="round" d="M601.63 438.41C601.62 438.68 601.61 440.42 601.53 440.19C601.46 439.96 601.14 437.56 601.12 436.88C601.11 436.20 601.24 435.92 601.44 435.67C601.63 435.41 601.82 434.73 602.40 435.17C603.41 435.94 607.07 439.79 608.19 440.79C609.19 441.68 609.49 441.77 609.89 441.85C610.30 441.93 610.78 442.06 610.90 441.31C611.05 440.43 611.17 437.69 610.86 435.98C610.55 434.26 609.13 430.78 608.83 429.87"/><path fill="none" stroke="#004dc0" stroke-width="2.5" stroke-linecap="round" stroke-linejoin="round" d="M638.95 444.70C639.09 446.66 639.72 455.79 639.85 457.74"/><path fill="none" stroke="#004dc0" stroke-width="2.5" stroke-linecap="round" stroke-linejoin="round" d="M631.76 464.94C634.26 464.53 645.90 462.65 648.40 462.24"/><path fill="none" stroke="#004dc0" stroke-width="2.5" stroke-linecap="round" stroke-linejoin="round" d="M634.01 475.28C633.94 475.75 633.54 477.71 633.56 478.43C633.58 479.15 634.04 480.36 634.13 480.09C634.22 479.81 634.07 477.42 634.17 476.61C634.26 475.80 634.53 475.14 634.79 474.71C635.05 474.29 635.49 473.82 635.91 473.78C636.33 473.74 636.73 473.59 637.62 474.42C638.82 475.54 642.93 480.69 643.89 481.21C644.85 481.73 644.19 479.30 644.00 477.88C643.81 476.47 642.80 473.22 642.65 471.75C642.50 470.28 642.95 468.64 643.00 468.09"/><path fill="none" stroke="#004dc0" stroke-width="2.5" stroke-linecap="round" stroke-linejoin="round" d="M660.09 460.89C660.47 460.29 662.04 458.14 662.62 456.85C663.20 455.55 663.58 454.38 663.95 452.29C664.32 450.20 665.06 444.84 665.06 442.89C665.07 440.95 664.33 438.53 663.96 439.34C663.59 440.14 662.68 445.65 662.61 448.28C662.54 450.90 663.20 455.03 663.49 456.82C663.79 458.60 664.12 459.45 664.59 460.19C665.06 460.93 665.80 461.59 666.61 461.76C667.42 461.93 669.47 461.40 669.98 461.34"/><path fill="none" stroke="#004dc0" stroke-width="2.5" stroke-linecap="round" stroke-linejoin="round" d="M680.77 451.00C680.70 450.66 680.64 448.83 680.32 448.75C680.00 448.68 679.22 449.36 678.63 450.50C678.03 451.64 676.28 454.92 676.37 456.36C676.46 457.81 678.49 459.69 679.24 460.14C679.98 460.60 680.73 459.99 681.31 459.40C681.89 458.81 682.80 457.14 683.12 456.21C683.44 455.28 683.51 454.13 683.43 453.20C683.35 452.27 683.06 450.97 682.59 450.03C682.12 449.10 680.66 447.42 680.32 446.95"/><path fill="none" stroke="#004dc0" stroke-width="2.5" stroke-linecap="round" stroke-linejoin="round" d="M695.16 448.30C694.92 448.15 694.02 447.35 693.56 447.31C693.10 447.28 692.66 447.48 692.09 448.09C691.51 448.70 690.05 450.62 689.72 451.39C689.38 452.15 689.63 452.75 689.85 453.17C690.07 453.60 690.25 454.17 691.17 454.22C692.09 454.28 694.94 453.89 695.99 453.54C697.05 453.19 697.70 452.42 698.20 451.88C698.70 451.34 699.15 450.50 699.34 449.92C699.53 449.34 699.54 448.48 699.46 448.00C699.37 447.52 699.00 446.95 698.76 446.73C698.52 446.52 698.08 446.43 697.83 446.58C697.59 446.73 697.27 447.15 697.12 447.73C696.97 448.31 696.64 448.64 696.86 450.46C697.15 452.86 698.72 461.12 699.07 463.75C699.41 466.38 699.38 466.83 699.17 468.00C698.97 469.17 698.44 470.66 697.69 471.54C696.95 472.43 695.44 473.34 694.21 473.90C692.97 474.46 690.98 475.04 689.46 475.28C687.94 475.53 685.32 475.67 684.08 475.53C682.85 475.40 681.65 474.76 681.22 474.38C680.79 474.01 681.22 473.24 681.22 473.03"/><path fill="none" stroke="#004dc0" stroke-width="2.5" stroke-linecap="round" stroke-linejoin="round" d="M710.00 438.41C710.15 439.35 711.00 442.68 711.00 444.70C711.00 446.73 710.15 450.82 710.00 451.90"/><path fill="none" stroke="#004dc0" stroke-width="2.5" stroke-linecap="round" stroke-linejoin="round" d="M702.80 458.64C704.54 458.22 711.54 456.37 714.38 455.83C717.21 455.29 720.59 455.16 721.69 455.05"/><path fill="none" stroke="#004dc0" stroke-width="2.5" stroke-linecap="round" stroke-linejoin="round" d="M706.85 467.19C706.84 468.32 706.63 474.62 706.78 474.75C706.92 474.89 707.50 469.36 707.81 468.07C708.13 466.78 708.52 466.48 708.88 466.14C709.23 465.81 709.52 465.23 710.17 465.83C711.40 466.95 715.87 472.55 717.08 473.64C717.70 474.21 717.95 473.50 718.23 473.13C718.51 472.76 718.85 472.56 718.96 471.18C719.07 469.61 718.99 463.96 718.99 462.69"/><path fill="none" stroke="#004dc0" stroke-width="2.5" stroke-linecap="round" stroke-linejoin="round" d="M508.56 543.18C509.57 542.91 514.29 541.65 515.30 541.38"/><path fill="none" stroke="#004dc0" stroke-width="2.5" stroke-linecap="round" stroke-linejoin="round" d="M507.66 548.57C508.06 548.71 508.48 549.73 510.35 549.47C512.31 549.20 519.14 547.18 520.70 546.78"/><path fill="none" stroke="#004dc0" stroke-width="2.5" stroke-linecap="round" stroke-linejoin="round" d="M549.02 542.73C549.43 542.58 550.36 541.98 551.71 541.71C553.06 541.44 557.07 541.05 558.02 540.93"/><path fill="none" stroke="#004dc0" stroke-width="2.5" stroke-linecap="round" stroke-linejoin="round" d="M572.86 527.89C573.40 529.64 575.91 537.83 576.45 539.58"/><path fill="none" stroke="#004dc0" stroke-width="2.5" stroke-linecap="round" stroke-linejoin="round" d="M575.10 534.19C576.22 533.28 581.75 528.94 582.54 528.15C583.34 527.35 581.34 528.30 580.40 528.86C579.47 529.42 577.08 531.22 576.32 531.90C575.55 532.58 575.45 532.93 575.29 533.41C575.13 533.89 574.88 534.36 575.26 535.11C575.64 535.86 576.77 537.53 577.83 538.41C578.89 539.29 581.32 540.52 582.33 540.96C583.34 541.41 584.21 541.32 584.55 541.38"/><path fill="none" stroke="#004dc0" stroke-width="2.5" stroke-linecap="round" stroke-linejoin="round" d="M588.14 541.38C588.27 541.51 588.91 543.04 589.01 542.24C589.15 541.12 588.97 535.51 589.11 533.95C589.24 532.45 589.64 532.23 589.95 531.85C590.26 531.48 590.84 531.35 591.18 531.43C591.51 531.50 591.96 531.92 592.18 532.36C592.40 532.80 592.86 533.04 592.65 534.37C592.44 535.71 590.28 540.24 590.80 541.24C591.32 542.24 595.20 540.96 596.13 541.03C596.87 541.08 596.92 541.45 597.02 541.71C597.12 541.97 596.97 542.45 596.79 542.77C596.62 543.09 596.69 543.39 595.86 543.83C594.96 544.29 591.59 545.57 590.84 545.88"/><path fill="none" stroke="#004dc0" stroke-width="2.5" stroke-linecap="round" stroke-linejoin="round" d="M571.06 561.16C574.77 560.15 591.07 555.84 595.79 554.42C600.43 553.03 601.52 552.13 602.53 551.72"/><path fill="none" stroke="#004dc0" stroke-width="2.5" stroke-linecap="round" stroke-linejoin="round" d="M584.10 570.61C584.29 571.85 585.27 578.57 585.35 578.88C585.44 579.19 584.73 573.96 584.64 572.68C584.54 571.40 584.58 570.92 584.72 570.38C584.86 569.83 585.19 569.23 585.57 569.04C585.95 568.85 586.30 568.51 587.24 569.11C588.95 570.18 595.32 575.12 596.92 576.18C597.45 576.53 597.83 576.72 597.87 576.16C597.92 575.60 597.78 574.15 597.20 572.44C596.62 570.73 594.54 566.05 593.99 564.76C593.73 564.15 593.61 564.00 593.54 563.86"/><path fill="none" stroke="#004dc0" stroke-width="2.5" stroke-linecap="round" stroke-linejoin="round" d="M642.55 532.84C642.69 532.77 644.06 532.10 643.45 532.39C640.84 533.60 627.94 539.52 625.15 540.92C624.64 541.18 624.66 541.55 624.84 541.73C625.02 541.90 625.32 542.21 626.36 542.11C628.13 541.94 634.51 540.81 636.62 540.61C638.74 540.42 639.67 540.59 640.43 540.81C641.20 541.02 641.76 541.51 641.74 542.05C641.73 542.58 641.73 543.22 640.32 544.38C638.22 546.11 629.98 551.90 627.73 553.60C626.05 554.87 625.71 555.24 625.34 555.67C624.97 556.11 624.70 556.61 625.26 556.52C627.23 556.20 636.18 553.97 638.50 553.52C639.98 553.24 640.42 553.52 640.75 553.52"/><path fill="none" stroke="#004dc0" stroke-width="2.5" stroke-linecap="round" stroke-linejoin="round" d="M631.76 569.26C631.83 569.68 631.77 570.87 632.22 572.07C632.66 573.28 634.25 576.77 634.72 577.30C635.19 577.82 635.26 575.81 635.36 575.55"/><path fill="none" stroke="#004dc0" stroke-width="2.5" stroke-linecap="round" stroke-linejoin="round" d="M629.51 564.31C629.51 564.24 629.51 563.93 629.51 563.86"/><path fill="none" stroke="#004dc0" stroke-width="2.5" stroke-linecap="round" stroke-linejoin="round" d="M628.16 508.56C628.09 509.67 627.91 515.58 627.69 515.96C627.48 516.34 626.82 512.27 626.75 511.07C626.67 509.88 626.97 508.40 627.22 508.02C627.47 507.64 627.81 507.92 628.43 508.55C629.37 509.49 632.56 513.40 633.48 514.32C634.00 514.84 634.44 515.38 634.53 514.65C634.68 513.52 634.47 507.94 634.46 506.76"/><path fill="none" stroke="#004dc0" stroke-width="2.5" stroke-linecap="round" stroke-linejoin="round" d="M666.38 540.93C666.77 539.69 668.52 534.73 668.98 532.64C669.45 530.55 669.45 528.47 669.49 527.03C669.54 525.59 669.39 523.97 669.27 523.05C669.15 522.13 668.91 521.23 668.71 520.90C668.50 520.57 668.03 520.36 667.93 520.87C667.64 522.35 666.73 528.17 666.80 530.79C666.87 533.40 667.88 536.90 668.38 538.30C668.88 539.70 669.47 539.84 670.11 540.10C670.76 540.36 672.02 540.24 672.68 540.03C673.33 539.82 674.21 538.88 674.48 538.68"/><path fill="none" stroke="#004dc0" stroke-width="2.5" stroke-linecap="round" stroke-linejoin="round" d="M685.72 528.79C685.25 528.45 682.95 525.49 682.57 526.54C682.20 527.60 682.75 534.28 683.22 535.83C683.69 537.38 684.82 537.24 685.69 536.85C686.57 536.47 688.51 534.39 689.04 533.29C689.56 532.19 689.48 530.57 689.21 529.51C688.94 528.45 687.59 526.67 687.21 526.24C686.92 525.90 686.60 526.20 686.68 526.64C686.80 527.22 687.77 529.61 687.97 530.14"/><path fill="none" stroke="#004dc0" stroke-width="2.5" stroke-linecap="round" stroke-linejoin="round" d="M652.44 536.43C652.17 536.43 649.49 536.77 650.65 536.43C652.26 535.96 661.35 533.76 663.24 533.29"/><path fill="none" stroke="#004dc0" stroke-width="2.5" stroke-linecap="round" stroke-linejoin="round" d="M701.46 526.99C701.25 526.59 700.57 524.59 700.11 524.29C699.64 524.00 698.95 524.33 698.37 525.03C697.79 525.73 696.51 528.08 696.23 528.98C695.96 529.88 696.28 530.52 696.53 531.02C696.78 531.51 697.03 532.15 697.91 532.29C698.79 532.42 701.43 532.16 702.38 531.93C703.33 531.69 703.80 531.32 704.26 530.70C704.71 530.07 705.31 528.34 705.41 527.77C705.52 527.21 705.16 527.01 704.98 526.91C704.81 526.81 704.35 526.61 704.27 527.10C704.12 527.98 703.58 529.31 703.98 532.79C704.38 536.28 706.49 547.04 706.93 550.33C707.32 553.25 707.16 553.70 706.92 554.75C706.68 555.80 706.02 556.80 705.35 557.33C704.68 557.85 703.43 558.20 702.43 558.25C701.44 558.29 699.84 557.98 698.70 557.65C697.57 557.32 695.92 556.72 694.87 556.07C693.83 555.43 692.39 554.62 691.76 553.36C691.13 552.10 690.83 548.53 690.66 547.67"/><path fill="none" stroke="#004dc0" stroke-width="2.5" stroke-linecap="round" stroke-linejoin="round" d="M711.80 521.60C711.85 523.00 712.16 530.71 712.12 530.93C712.08 531.15 711.59 524.62 711.55 523.07C711.51 521.53 711.68 521.14 711.86 520.64C712.05 520.14 712.39 519.76 712.78 519.75C713.17 519.73 713.56 519.69 714.45 520.54C716.10 522.10 722.20 528.71 723.73 530.13C724.20 530.56 724.51 530.30 724.67 529.99C724.83 529.69 724.98 529.35 724.78 528.09C724.56 526.75 723.62 522.70 723.23 521.04C722.84 519.39 722.56 518.38 722.19 517.05C721.83 515.72 721.00 512.89 720.79 512.15"/><path fill="none" stroke="#004dc0" stroke-width="2.5" stroke-linecap="round" stroke-linejoin="round" d="M501.81 620.07C502.13 619.83 502.98 618.87 503.93 618.47C504.87 618.06 507.48 617.54 508.11 617.37"/><path fill="none" stroke="#004dc0" stroke-width="2.5" stroke-linecap="round" stroke-linejoin="round" d="M501.81 624.57C501.61 624.70 499.44 625.82 500.46 625.46C501.81 624.99 509.25 622.02 510.80 621.42"/><path fill="none" stroke="#004dc0" stroke-width="2.5" stroke-linecap="round" stroke-linejoin="round" d="M548.57 620.52C548.30 620.52 545.97 620.65 546.78 620.52C547.59 620.38 552.89 619.75 553.97 619.62"/><path fill="none" stroke="#004dc0" stroke-width="2.5" stroke-linecap="round" stroke-linejoin="round" d="M571.96 607.03C571.96 607.77 571.69 609.61 571.96 611.98C572.23 614.34 573.48 621.15 573.75 622.77"/><path fill="none" stroke="#004dc0" stroke-width="2.5" stroke-linecap="round" stroke-linejoin="round" d="M571.96 618.27C572.09 617.80 572.13 616.09 572.86 615.12C573.58 614.16 576.56 611.63 576.79 611.85C577.02 612.06 574.65 615.65 574.38 616.57C574.12 617.49 574.24 617.30 575.01 617.99C575.87 618.77 578.95 621.12 580.12 621.77C581.28 622.42 582.35 622.23 582.75 622.32"/><path fill="none" stroke="#004dc0" stroke-width="2.5" stroke-linecap="round" stroke-linejoin="round" d="M588.59 619.62C588.79 620.37 589.90 624.60 589.91 624.65C589.92 624.71 588.81 621.06 588.65 619.96C588.48 618.86 588.66 618.02 588.81 617.32C588.95 616.62 589.30 615.66 589.62 615.30C589.94 614.94 590.57 614.76 590.94 614.90C591.31 615.04 591.86 615.70 592.10 616.23C592.34 616.76 592.53 617.74 592.55 618.44C592.56 619.14 592.51 620.05 592.21 620.89C591.90 621.73 590.49 623.72 590.52 624.05C590.55 624.37 591.87 623.18 592.40 623.06C592.92 622.94 593.41 622.90 594.02 623.24C594.63 623.58 596.09 624.79 596.46 625.34C596.82 625.88 596.56 626.45 596.43 626.88C596.31 627.32 596.53 627.86 595.62 628.25C594.72 628.65 591.18 629.32 590.39 629.51"/><path fill="none" stroke="#004dc0" stroke-width="2.5" stroke-linecap="round" stroke-linejoin="round" d="M572.41 639.85C573.55 639.72 576.16 639.85 580.05 638.99C583.94 638.12 595.62 634.64 598.32 634.10C599.16 633.93 598.08 635.17 598.04 635.36"/><path fill="none" stroke="#004dc0" stroke-width="2.5" stroke-linecap="round" stroke-linejoin="round" d="M581.85 654.24C581.85 655.13 581.82 660.41 581.85 660.15C581.88 659.89 581.85 653.82 582.03 652.51C582.17 651.52 582.29 651.31 583.10 651.45C583.90 651.60 585.98 652.49 587.38 653.50C588.79 654.50 591.33 657.26 592.46 658.15C593.59 659.05 595.12 660.99 594.90 659.44C594.69 657.89 591.71 650.15 591.04 647.82C590.36 645.49 590.49 644.49 590.39 643.90"/><path fill="none" stroke="#004dc0" stroke-width="2.5" stroke-linecap="round" stroke-linejoin="round" d="M611.98 621.42C611.71 621.49 609.85 621.82 610.18 621.87C610.50 621.92 611.99 622.21 614.15 621.74C616.31 621.26 623.00 619.17 624.57 618.72"/><path fill="none" stroke="#004dc0" stroke-width="2.5" stroke-linecap="round" stroke-linejoin="round" d="M631.76 625.01C631.76 625.22 631.76 627.26 631.76 626.36C631.74 623.59 631.55 608.09 631.66 606.52C631.77 604.94 632.16 613.87 632.49 615.86C632.81 617.85 633.27 618.81 633.83 619.76C634.40 620.71 635.42 621.80 636.26 622.19C637.09 622.57 638.53 622.43 639.40 622.32C640.28 622.20 641.70 621.55 642.10 621.42"/><path fill="none" stroke="#004dc0" stroke-width="2.5" stroke-linecap="round" stroke-linejoin="round" d="M655.14 612.42C654.74 612.02 653.37 608.88 652.44 609.73C651.52 610.58 649.35 616.52 648.96 618.09C648.60 619.58 649.21 620.04 649.85 620.20C650.50 620.37 652.56 619.80 653.30 619.18C654.03 618.56 654.47 616.93 654.75 616.06C655.02 615.19 655.22 614.41 655.14 613.40C655.07 612.38 654.38 609.90 654.24 609.28"/><path fill="none" stroke="#004dc0" stroke-width="2.5" stroke-linecap="round" stroke-linejoin="round" d="M667.28 610.18C666.81 610.04 664.21 608.63 664.13 609.28C664.06 609.93 666.04 613.82 666.76 614.51C667.48 615.19 668.33 614.45 668.93 613.84C669.53 613.23 670.54 611.19 670.73 610.43C670.93 609.67 670.43 608.92 670.23 608.77C670.03 608.62 669.59 608.91 669.40 609.45C669.20 609.99 668.84 610.40 668.96 612.36C669.16 615.59 670.48 627.27 670.74 630.97C670.99 634.68 670.91 635.47 670.66 637.06C670.42 638.65 669.79 640.53 669.08 641.57C668.37 642.61 666.99 643.55 665.90 643.98C664.81 644.42 663.08 644.60 661.83 644.50C660.58 644.40 658.56 643.95 657.55 643.32C656.55 642.69 655.50 641.43 655.14 640.30C654.78 639.18 655.14 636.48 655.14 635.81"/><path fill="none" stroke="#004dc0" stroke-width="2.5" stroke-linecap="round" stroke-linejoin="round" d="M681.67 602.98C681.60 604.48 681.35 612.75 681.22 613.00C681.09 613.25 680.79 606.26 680.82 604.64C680.85 603.02 681.17 602.69 681.43 602.20C681.70 601.71 682.19 601.34 682.60 601.35C683.00 601.35 683.33 601.37 684.12 602.24C685.18 603.41 688.64 607.99 689.68 609.13C690.37 609.90 690.72 609.88 691.05 609.85C691.38 609.82 691.80 609.76 691.88 608.93C691.98 607.94 692.09 605.32 691.71 603.21C691.32 601.10 689.67 596.27 689.32 594.89C689.16 594.31 689.32 594.12 689.32 593.99"/><path fill="none" stroke="#004dc0" stroke-width="2.5" stroke-linecap="round" stroke-linejoin="round" d="M707.30 603.88C707.64 603.81 708.40 602.89 709.55 603.43C710.70 603.97 714.14 606.87 714.95 607.48"/><path fill="none" stroke="#004dc0" stroke-width="2.5" stroke-linecap="round" stroke-linejoin="round" d="M710.90 601.18C710.02 602.53 705.93 608.83 705.05 610.18"/><path fill="none" stroke="#004dc0" stroke-width="2.5" stroke-linecap="round" stroke-linejoin="round" d="M732.03 591.74C732.46 593.24 734.69 601.69 734.88 601.73C735.06 601.77 733.50 594.01 733.29 592.03C733.09 590.06 733.38 589.18 733.53 588.59C733.69 588.00 733.80 587.72 734.32 588.07C735.76 589.02 741.43 593.72 743.13 594.96C744.67 596.08 744.98 596.09 745.64 596.34C746.29 596.59 747.09 596.69 747.50 596.62C747.90 596.55 748.18 596.22 748.32 595.87C748.46 595.51 748.82 595.25 748.41 594.26C747.72 592.56 744.43 586.00 743.72 584.55"/><path fill="none" stroke="#004dc0" stroke-width="2.5" stroke-linecap="round" stroke-linejoin="round" d="M754.06 580.50C753.86 580.50 753.35 579.86 752.72 580.50C749.23 584.00 736.17 598.48 730.84 603.81C725.51 609.13 719.24 614.19 717.19 616.02"/><path fill="none" stroke="#004dc0" stroke-width="2.5" stroke-linecap="round" stroke-linejoin="round" d="M569.26 665.03C575.83 660.46 606.53 639.31 613.07 634.52C613.84 633.96 612.90 633.32 612.87 633.11"/><path fill="none" stroke="#004dc0" stroke-width="2.5" stroke-linecap="round" stroke-linejoin="round" d="M506.31 705.95C506.17 706.02 504.75 706.52 505.41 706.40C507.30 706.06 516.87 704.11 518.90 703.70"/><path fill="none" stroke="#004dc0" stroke-width="2.5" stroke-linecap="round" stroke-linejoin="round" d="M506.31 712.70C508.60 712.43 519.30 711.17 521.60 710.90"/><path fill="none" stroke="#004dc0" stroke-width="2.5" stroke-linecap="round" stroke-linejoin="round" d="M569.26 690.66C569.26 691.81 568.99 695.27 569.26 698.31C569.53 701.34 570.79 709.01 571.06 710.90"/><path fill="none" stroke="#004dc0" stroke-width="2.5" stroke-linecap="round" stroke-linejoin="round" d="M569.71 702.35C569.71 702.22 569.29 701.89 569.71 701.46C571.23 699.87 578.68 692.96 579.83 691.75C580.98 690.54 577.72 693.12 577.35 693.36"/><path fill="none" stroke="#004dc0" stroke-width="2.5" stroke-linecap="round" stroke-linejoin="round" d="M572.41 699.21C573.62 700.69 579.29 707.62 580.50 709.10"/><path fill="none" stroke="#004dc0" stroke-width="2.5" stroke-linecap="round" stroke-linejoin="round" d="M589.04 703.70C589.24 705.11 590.28 713.26 590.36 713.10C590.45 712.95 589.55 704.66 589.60 702.68C589.66 700.70 590.42 700.24 590.73 699.91C591.03 699.57 591.41 699.78 591.64 700.45C591.88 701.16 592.46 703.20 592.37 704.66C592.27 706.13 591.20 709.38 590.99 710.21C590.99 710.22 590.95 710.21 590.96 710.20C591.43 709.86 593.36 708.28 594.07 707.92C594.77 707.56 595.18 707.58 595.66 707.80C596.14 708.02 597.08 708.95 597.29 709.40C597.49 709.84 597.46 710.19 597.00 710.76C596.54 711.32 595.20 712.79 594.21 713.15C593.22 713.51 590.96 713.15 590.39 713.15"/><path fill="none" stroke="#004dc0" stroke-width="2.5" stroke-linecap="round" stroke-linejoin="round" d="M609.28 697.86C609.59 697.25 610.99 695.25 611.39 693.82C611.78 692.39 612.01 690.56 611.92 688.31C611.83 686.05 611.11 680.50 610.76 678.77C610.46 677.28 609.89 677.14 609.59 676.80C609.29 676.47 608.97 676.03 608.73 676.57C608.47 677.16 607.95 678.90 607.85 680.76C607.75 682.62 607.76 686.31 608.06 688.95C608.37 691.58 609.37 696.42 609.88 698.31C610.40 700.20 610.93 700.87 611.50 701.54C612.07 702.21 613.03 702.62 613.70 702.78C614.36 702.94 614.97 703.14 615.93 702.60C616.89 702.07 619.45 699.72 620.07 699.21"/><path fill="none" stroke="#004dc0" stroke-width="2.5" stroke-linecap="round" stroke-linejoin="round" d="M625.46 694.26C625.06 693.52 623.05 688.63 622.77 689.32C622.49 690.00 623.16 697.29 623.60 698.83C624.01 700.25 624.89 700.21 625.70 699.59C626.50 698.97 628.47 695.89 628.95 694.69C629.44 693.50 629.12 692.37 628.93 691.63C628.74 690.89 628.10 690.04 627.71 689.76C627.33 689.49 626.57 689.76 626.36 689.76"/><path fill="none" stroke="#004dc0" stroke-width="2.5" stroke-linecap="round" stroke-linejoin="round" d="M638.50 690.66C638.30 690.66 637.58 690.46 637.16 690.66C636.73 690.87 636.15 691.03 635.69 692.02C635.23 693.00 634.17 696.13 634.12 697.21C634.06 698.30 634.87 698.84 635.30 699.25C635.74 699.66 636.41 700.03 636.99 699.95C637.58 699.86 638.53 699.36 639.19 698.69C639.86 698.02 640.96 696.74 641.40 695.48C641.83 694.22 642.13 691.18 642.09 690.30C642.06 689.54 641.45 689.58 641.16 689.65C640.87 689.72 640.37 690.12 640.16 690.77C639.96 691.43 639.77 692.76 639.82 694.01C639.86 695.25 639.68 695.76 640.47 699.09C641.31 702.66 644.75 714.33 645.47 717.85C646.10 720.95 645.61 721.38 645.26 722.59C644.91 723.79 643.96 725.17 643.12 725.91C642.29 726.65 640.83 727.29 639.68 727.53C638.54 727.77 636.68 727.80 635.50 727.52C634.33 727.24 632.69 726.55 631.86 725.67C631.03 724.80 630.31 723.16 629.96 721.69C629.61 720.22 629.58 716.72 629.51 715.84"/><path fill="none" stroke="#004dc0" stroke-width="2.5" stroke-linecap="round" stroke-linejoin="round" d="M654.69 685.72C654.72 687.30 654.93 694.44 654.88 696.24C654.85 697.26 654.56 698.70 654.39 697.69C654.14 696.24 653.27 689.08 653.24 686.58C653.21 684.08 653.82 681.79 654.19 681.04C654.57 680.28 655.01 680.73 655.72 681.53C657.42 683.47 663.77 691.85 665.56 693.93C666.66 695.21 667.14 695.16 667.65 695.36C668.16 695.56 668.76 696.10 668.95 695.25C669.15 694.33 669.35 691.45 669.02 689.17C668.68 686.89 667.23 681.89 666.73 680.04C666.23 678.18 666.01 677.59 665.69 676.82C665.36 676.05 664.75 675.21 664.58 674.93"/><path fill="none" stroke="#004dc0" stroke-width="2.5" stroke-linecap="round" stroke-linejoin="round" d="M695.61 684.82C695.32 685.13 694.62 685.25 693.70 686.89C690.85 691.92 679.03 714.09 676.62 718.37C675.59 720.19 677.47 715.84 677.62 715.39"/><path fill="none" stroke="#004dc0" stroke-width="2.5" stroke-linecap="round" stroke-linejoin="round" d="M697.86 690.66C698.06 690.46 699.81 688.20 699.21 689.32C696.93 693.55 684.74 714.92 682.65 718.90C681.40 721.28 684.88 716.30 685.27 715.84"/><path fill="none" stroke="#ffd873" stroke-opacity="0.5" stroke-width="20.0" stroke-linecap="round" stroke-linejoin="round" d="M553.52 702.80C560.23 701.49 581.37 696.53 598.28 694.05C615.18 691.56 654.77 687.74 666.21 686.25C671.91 685.50 678.40 684.03 674.56 684.07C670.72 684.11 648.62 686.11 640.62 686.51C632.62 686.91 625.62 686.74 621.22 686.74C616.83 686.74 615.70 686.49 611.33 686.51C606.97 686.54 596.29 686.66 592.12 686.89C587.95 687.11 588.62 686.93 583.54 687.99C578.47 689.04 561.90 693.58 558.28 693.90C555.64 694.13 559.03 690.82 559.37 690.08C559.70 689.34 559.54 689.42 560.49 688.96C561.95 688.25 566.47 686.28 569.08 685.39C571.70 684.50 572.82 684.04 577.94 683.02C583.06 682.00 597.26 679.54 603.22 678.61C609.18 677.68 611.50 677.30 617.68 676.82C623.86 676.34 638.84 675.59 644.42 675.40C650.00 675.21 651.10 675.32 654.88 675.55C658.66 675.77 669.83 675.91 669.62 676.90C669.41 677.89 658.88 680.60 653.50 682.13C648.12 683.65 638.36 685.90 633.75 687.07C629.13 688.24 627.75 688.38 622.74 689.92C617.74 691.46 608.82 694.19 600.40 697.33C591.97 700.47 572.42 708.41 566.60 710.86C563.06 712.35 562.84 712.80 561.57 713.65C560.31 714.49 558.88 715.69 558.16 716.50C557.44 717.31 556.81 718.38 556.78 719.06C556.74 719.74 557.18 720.59 557.94 721.04C558.71 721.50 560.36 721.90 561.90 722.08C563.45 722.26 564.02 722.43 568.25 722.24C580.12 721.71 629.13 719.13 641.06 718.55C645.53 718.33 645.37 718.26 647.77 718.32C650.18 718.38 655.19 718.63 657.10 718.97C659.01 719.32 659.93 720.17 660.50 720.62C661.07 721.06 660.33 722.67 660.90 721.94C661.82 720.77 664.94 715.11 666.64 712.78C668.35 710.44 671.26 707.64 672.25 706.38C673.17 705.21 673.11 705.04 673.26 704.39C673.40 703.75 673.47 702.77 673.24 702.08C673.01 701.38 672.50 700.40 671.74 699.79C670.98 699.17 669.54 698.39 668.16 697.98C666.77 697.58 665.81 697.08 662.53 697.07C659.25 697.07 651.65 697.18 646.29 697.94C640.93 698.70 632.26 700.61 626.81 702.15C621.36 703.70 613.40 706.80 609.96 708.23C606.53 709.65 599.31 712.29 603.91 711.68C613.71 710.38 664.14 701.50 675.24 699.59C677.07 699.27 677.43 699.09 677.95 698.95C678.46 698.82 679.21 698.81 678.70 698.68C677.06 698.26 669.43 696.86 667.01 696.20C664.59 695.55 663.30 694.88 662.58 694.31C661.85 693.74 662.11 693.09 662.15 692.39C662.19 691.69 662.14 691.40 662.85 689.65C663.97 686.90 668.21 676.05 669.61 674.04C670.89 672.19 671.52 675.66 672.13 676.28C672.75 676.90 673.23 677.40 673.69 678.17C674.16 678.94 674.85 680.19 675.23 681.41C675.60 682.62 676.00 684.59 676.20 686.27C676.39 687.95 676.55 690.62 676.52 692.60C676.49 694.58 676.27 697.50 675.97 699.46C675.67 701.41 675.10 703.98 674.52 705.61C673.95 707.24 673.02 709.11 672.15 710.31C671.28 711.51 669.92 712.79 668.73 713.61C667.55 714.44 665.82 715.25 664.27 715.79C662.72 716.33 660.43 716.90 658.39 717.22C656.36 717.54 653.33 717.82 650.70 717.90C648.08 717.99 647.42 718.15 640.90 717.78C631.92 717.27 599.83 715.26 590.84 714.50C584.16 713.93 582.43 712.97 580.95 712.70"/><path fill="none" stroke="#d1000d" stroke-width="2.0" stroke-linecap="round" stroke-linejoin="round" d="M145.24 638.95C145.76 640.40 148.00 646.23 148.73 648.62C149.45 651.01 149.92 653.31 150.07 654.89C150.22 656.48 149.95 658.02 149.72 659.19C149.48 660.37 149.08 662.09 148.53 662.75C147.99 663.41 146.85 663.48 146.08 663.61C145.31 663.75 144.21 663.84 143.41 663.65C142.60 663.46 141.41 662.87 140.74 662.34C140.07 661.80 139.21 660.42 138.94 660.09"/><path fill="none" stroke="#d1000d" stroke-width="2.0" stroke-linecap="round" stroke-linejoin="round" d="M140.74 627.71C140.61 627.92 139.98 628.86 139.84 629.06"/><path fill="none" stroke="#d1000d" stroke-width="2.0" stroke-linecap="round" stroke-linejoin="round" d="M152.43 636.71C152.83 637.64 154.38 641.70 155.06 642.91C155.73 644.11 156.42 644.52 156.93 644.74C157.44 644.96 158.05 644.60 158.45 644.35C158.86 644.09 159.40 644.13 159.63 643.03C159.86 641.94 160.00 638.30 159.98 637.05C159.96 635.80 159.75 635.26 159.49 634.70C159.23 634.14 158.42 633.09 158.26 633.32C158.10 633.55 158.04 635.20 158.43 636.23C158.82 637.27 160.27 639.47 160.88 640.21C161.50 640.96 162.03 641.05 162.52 641.20C163.01 641.35 163.81 641.34 164.12 641.20C164.43 641.07 164.50 640.44 164.57 640.30"/><path fill="none" stroke="#d1000d" stroke-width="2.0" stroke-linecap="round" stroke-linejoin="round" d="M167.27 632.21C167.27 631.74 167.74 629.15 167.27 629.06C166.80 628.98 164.60 631.02 164.11 631.65C163.62 632.28 163.57 632.77 164.00 633.26C164.43 633.75 165.89 634.62 166.96 634.94C168.04 635.26 170.36 635.21 171.14 635.39C171.93 635.56 172.01 635.83 172.17 636.12C172.34 636.40 172.59 636.69 172.26 637.30C171.93 637.92 170.72 639.62 169.97 640.20C169.22 640.79 167.67 641.05 167.27 641.20"/><path fill="none" stroke="#d1000d" stroke-width="2.0" stroke-linecap="round" stroke-linejoin="round" d="M174.46 620.97C174.53 621.44 174.24 622.23 174.91 624.12C175.59 626.00 178.35 631.80 178.96 633.56C179.45 634.97 178.96 635.47 178.96 635.81"/><path fill="none" stroke="#d1000d" stroke-width="2.0" stroke-linecap="round" stroke-linejoin="round" d="M173.12 631.76C173.79 630.82 176.47 626.75 177.61 625.46C178.76 624.18 180.29 623.55 180.76 623.22"/><path fill="none" stroke="#d1000d" stroke-width="2.0" stroke-linecap="round" stroke-linejoin="round" d="M192.00 647.50C191.76 647.09 190.87 645.18 190.40 644.78C189.93 644.37 189.30 644.54 188.89 644.79C188.48 645.04 188.05 645.35 187.69 646.44C187.33 647.54 186.65 650.79 186.50 652.08C186.36 653.37 186.56 654.30 186.74 655.03C186.91 655.75 187.33 656.57 187.67 656.91C188.02 657.24 188.60 657.39 189.04 657.25C189.48 657.10 189.99 657.15 190.61 655.94C191.32 654.54 193.02 648.45 193.79 647.96C194.55 647.47 195.16 651.94 195.71 652.66C196.25 653.38 196.91 652.93 197.43 652.76C197.95 652.60 198.80 651.86 199.20 651.54C199.60 651.23 199.96 650.78 200.09 650.65"/><path fill="none" stroke="#d1000d" stroke-width="2.0" stroke-linecap="round" stroke-linejoin="round" d="M221.23 631.76C221.16 631.62 221.43 630.72 220.78 630.86C219.88 631.05 216.32 632.21 215.25 633.01C214.17 633.81 213.79 635.29 213.61 636.17C213.42 637.04 213.77 638.19 214.02 638.85C214.27 639.51 214.68 640.32 215.27 640.58C215.86 640.85 217.19 640.83 217.96 640.64C218.74 640.44 219.77 639.83 220.42 639.28C221.08 638.72 221.89 637.67 222.33 636.93C222.76 636.18 223.23 635.30 223.32 634.33C223.41 633.35 223.08 631.08 222.94 630.42C222.84 629.93 222.21 629.44 222.40 629.90C223.57 632.73 229.29 645.52 230.70 649.26C232.04 652.83 231.71 653.34 231.83 654.86C231.94 656.39 231.79 658.26 231.47 659.42C231.14 660.57 230.33 661.84 229.65 662.56C228.96 663.28 227.73 663.93 226.92 664.23C226.10 664.52 224.93 664.60 224.21 664.52C223.49 664.44 222.58 664.08 222.13 663.68C221.68 663.29 221.36 662.16 221.23 661.89"/><path fill="none" stroke="#d1000d" stroke-width="2.0" stroke-linecap="round" stroke-linejoin="round" d="M228.87 632.66C229.27 632.28 231.03 630.84 231.53 630.16C232.04 629.47 232.14 628.67 232.26 628.09C232.38 627.52 232.43 626.77 232.32 626.30C232.22 625.84 231.87 625.25 231.54 625.02C231.22 624.80 230.61 624.67 230.16 624.78C229.71 624.90 228.99 625.31 228.56 625.79C228.13 626.27 227.54 627.20 227.29 627.98C227.03 628.76 226.82 630.09 226.85 630.98C226.88 631.87 227.16 633.16 227.50 633.93C227.84 634.69 228.55 635.61 229.14 636.11C229.72 636.62 230.70 637.22 231.41 637.30C232.11 637.37 233.08 637.30 233.85 636.61C234.62 635.91 236.12 633.25 236.52 632.66"/><path fill="none" stroke="#d1000d" stroke-width="2.0" stroke-linecap="round" stroke-linejoin="round" d="M237.42 623.22C237.79 623.78 239.59 627.41 239.91 627.00C240.23 626.60 239.49 621.66 239.55 620.52C239.59 619.64 239.99 619.54 240.28 619.42C240.58 619.31 240.97 619.10 241.52 619.75C242.34 620.73 244.98 624.87 245.79 625.97C246.40 626.80 246.55 626.96 246.87 627.08C247.20 627.19 247.58 627.40 247.93 626.75C248.49 625.70 250.33 621.70 250.65 620.11C250.97 618.51 250.34 616.85 250.06 616.13C249.77 615.41 249.15 615.40 248.76 615.29C248.37 615.18 247.85 614.91 247.47 615.40C247.09 615.89 246.34 617.73 246.25 618.56C246.15 619.39 246.53 620.23 246.84 620.93C247.15 621.63 247.76 622.67 248.31 623.22C248.85 623.76 249.80 624.36 250.46 624.57C251.12 624.77 252.37 624.57 252.70 624.57"/><path fill="none" stroke="#d1000d" stroke-width="2.0" stroke-linecap="round" stroke-linejoin="round" d="M253.60 614.22C254.01 614.97 256.27 619.65 256.30 619.17C256.33 618.69 254.13 612.46 253.79 611.04C253.58 610.17 253.81 610.06 254.05 609.73C254.29 609.39 255.20 608.96 255.40 608.83"/><path fill="none" stroke="#d1000d" stroke-width="2.0" stroke-linecap="round" stroke-linejoin="round" d="M265.74 608.83C265.03 609.26 261.80 610.86 260.98 611.71C260.15 612.57 260.26 613.87 260.24 614.55C260.23 615.22 260.64 615.90 260.90 616.23C261.16 616.57 261.52 616.87 261.97 616.78C262.42 616.68 263.30 616.48 263.90 615.58C264.49 614.69 265.68 611.87 265.95 610.82C266.22 609.78 265.74 608.52 265.72 608.60C265.70 608.68 265.64 610.65 265.81 611.34C265.98 612.02 266.46 612.73 266.86 613.17C267.27 613.62 267.98 614.14 268.51 614.30C269.05 614.46 269.93 614.46 270.46 614.24C270.99 614.02 271.67 613.45 272.05 612.84C272.44 612.24 272.99 611.72 273.03 610.20C273.08 608.68 272.62 604.40 272.35 602.72C272.08 601.04 271.77 600.21 271.24 598.98C270.72 597.75 268.91 594.06 268.84 594.50C268.76 594.95 269.96 599.77 270.72 601.94C271.48 604.11 272.97 607.59 273.91 608.96C274.85 610.33 276.39 611.10 276.99 611.08C277.58 611.06 277.75 609.16 277.88 608.83"/><path fill="none" stroke="#d1000d" stroke-width="2.0" stroke-linecap="round" stroke-linejoin="round" d="M277.88 602.08C278.42 602.82 280.94 606.29 281.48 607.03"/><path fill="none" stroke="#d1000d" stroke-width="2.0" stroke-linecap="round" stroke-linejoin="round" d="M275.64 598.94C275.64 598.87 275.64 598.55 275.64 598.49"/><path fill="none" stroke="#d1000d" stroke-width="2.0" stroke-linecap="round" stroke-linejoin="round" d="M283.73 598.04C283.93 597.79 284.47 596.76 285.08 596.38C285.68 596.01 287.77 594.05 287.76 595.54C287.75 597.03 284.23 605.48 285.04 606.33C285.85 607.18 291.95 601.96 293.17 601.18"/><path fill="none" stroke="#d1000d" stroke-width="2.0" stroke-linecap="round" stroke-linejoin="round" d="M302.62 590.39C302.55 590.32 302.59 589.89 302.17 589.94C301.43 590.03 298.61 590.41 297.72 590.97C296.83 591.53 296.43 592.88 296.22 593.67C296.00 594.45 296.15 595.57 296.28 596.19C296.41 596.80 296.66 597.49 297.08 597.75C297.50 598.01 298.49 598.11 299.07 597.92C299.64 597.73 300.28 597.43 300.91 596.47C301.54 595.50 302.88 592.63 303.27 591.50C303.66 590.37 303.32 588.72 303.51 588.91C303.71 589.11 304.25 592.01 304.58 592.81C304.91 593.60 305.33 593.92 305.71 594.22C306.09 594.52 306.68 594.82 307.11 594.81C307.55 594.79 308.22 594.55 308.62 594.12C309.01 593.68 309.50 592.74 309.75 591.90C310.00 591.07 310.19 589.64 310.27 588.53C310.34 587.41 310.59 586.37 310.24 584.48C309.90 582.59 308.13 576.61 307.96 575.92C307.79 575.24 308.49 578.45 309.10 579.91C309.72 581.37 311.14 584.35 312.06 585.67C312.98 586.98 314.63 588.25 315.24 588.69C315.71 589.03 315.97 588.74 316.10 588.59C316.23 588.44 316.10 587.83 316.10 587.69"/><path fill="none" stroke="#d1000d" stroke-width="2.0" stroke-linecap="round" stroke-linejoin="round" d="M308.91 585.45C309.72 584.97 313.50 582.77 314.31 582.30"/><path fill="none" stroke="#d1000d" stroke-width="2.0" stroke-linecap="round" stroke-linejoin="round" d="M319.70 580.95C319.84 580.81 319.98 579.48 320.60 580.05C321.41 580.79 324.42 585.02 325.10 585.90"/><path fill="none" stroke="#d1000d" stroke-width="2.0" stroke-linecap="round" stroke-linejoin="round" d="M318.80 577.35C318.74 577.28 318.42 576.97 318.35 576.90"/><path fill="none" stroke="#d1000d" stroke-width="2.0" stroke-linecap="round" stroke-linejoin="round" d="M336.79 572.86C336.72 572.72 336.59 571.81 336.34 571.96C336.09 572.11 335.42 572.88 335.10 573.86C334.78 574.83 334.03 577.53 334.22 578.44C334.40 579.35 335.73 580.20 336.34 579.92C336.94 579.65 338.16 577.66 338.23 576.60C338.30 575.54 337.00 573.42 336.79 572.86"/><path fill="none" stroke="#d1000d" stroke-width="2.0" stroke-linecap="round" stroke-linejoin="round" d="M340.39 571.06C341.03 571.59 343.93 574.27 344.67 574.63C345.41 574.99 345.21 574.34 345.31 573.46C345.43 572.33 345.27 568.13 345.48 567.09C345.68 566.18 345.90 566.25 346.77 566.56C347.69 566.89 350.63 568.52 351.63 569.26C352.63 570.00 353.16 571.17 353.43 571.51"/>
</svg>