<?xml version="1.0" encoding="UTF-8"?>
<!DOCTYPE svg PUBLIC "-//W3C//DTD SVG 1.1//EN" "http://www.w3.org/Graphics/SVG/1.1/DTD/svg11.dtd">
<svg  xmlns="http://www.w3.org/2000/svg" xmlns:xlink="http://www.w3.org/1999/xlink" viewport-fill="none" viewBox="0.0, 0.0, 747.4845959002162, 597.7876586914062" version="1.1" height="597.7876586914062" width="747.4845959002162">
<path fill="none" stroke="#79eb70" stroke-opacity="0.5" stroke-width="16.0" stroke-linecap="round" stroke-linejoin="round" d="M397.04 462.24C398.83 461.89 405.24 460.41 408.96 459.87C412.68 459.33 414.50 458.98 421.85 458.64C429.19 458.31 442.10 457.84 457.95 457.66C473.81 457.47 513.38 457.59 527.54 457.41C541.70 457.23 535.82 457.49 552.33 456.47C573.31 455.17 644.22 450.08 667.34 448.73C690.47 447.37 700.78 447.58 706.51 447.43C707.19 447.41 706.20 447.61 705.53 447.69C704.68 447.79 703.97 448.04 700.80 448.10C697.03 448.17 694.00 448.47 680.39 448.13C662.29 447.69 601.78 445.58 580.10 445.16C558.43 444.75 548.80 445.12 535.89 445.39C522.97 445.67 507.87 446.28 494.00 446.98C480.13 447.68 457.24 448.93 443.45 450.03C429.66 451.14 408.87 453.61 402.07 454.32C399.43 454.59 400.27 454.44 398.11 454.73C395.95 455.02 390.80 455.60 387.67 456.26C384.55 456.92 379.81 458.31 377.28 459.14C374.75 459.96 371.91 461.13 370.80 461.75C369.80 462.31 369.74 462.44 369.93 463.24C370.12 464.05 371.16 466.05 372.07 467.11C372.98 468.16 374.30 469.33 376.01 470.30C377.72 471.28 380.49 472.74 383.46 473.61C386.44 474.48 391.25 475.53 395.82 476.09C400.39 476.64 403.64 477.26 413.92 477.31C424.20 477.36 452.30 476.71 464.36 476.43C476.41 476.14 480.44 475.79 494.27 475.40C508.11 475.02 533.34 474.17 556.57 473.86C579.80 473.54 633.95 473.47 649.11 473.31C654.84 473.26 656.28 473.10 657.68 472.83C658.70 472.63 659.21 471.97 658.48 471.49C657.74 471.00 655.32 470.20 652.81 469.57C650.29 468.94 647.89 468.25 641.71 467.28C635.54 466.30 618.64 463.93 611.63 463.05C604.62 462.18 600.47 461.80 594.95 461.45C589.44 461.10 581.59 460.78 574.86 460.70C568.13 460.63 558.82 460.68 550.08 460.95C541.34 461.22 527.04 461.82 516.60 462.51C506.16 463.21 491.00 464.54 480.49 465.59C469.98 466.64 455.68 468.32 446.52 469.50C437.37 470.67 426.02 472.34 419.45 473.43C412.88 474.52 406.37 475.92 402.70 476.78C399.03 477.65 396.12 478.59 395.00 479.18C394.10 479.65 394.26 480.38 395.23 480.68C396.37 481.04 397.65 481.56 402.61 481.55C409.48 481.53 416.90 481.79 441.04 480.60C465.19 479.41 542.02 474.94 563.56 473.60C577.63 472.72 579.90 472.30 584.63 471.68C589.35 471.05 593.45 470.11 595.05 469.43C596.48 468.81 596.34 467.83 595.28 467.09C594.22 466.36 591.45 465.21 587.95 464.50C584.46 463.80 577.57 462.83 571.96 462.39C566.35 461.94 557.82 461.54 550.54 461.52C543.25 461.49 532.40 461.69 523.38 462.23C514.37 462.78 500.24 464.01 490.43 465.17C480.62 466.33 467.28 468.46 457.99 469.99C448.70 471.52 436.13 473.78 428.50 475.37C420.87 476.97 411.83 479.17 407.14 480.61C402.45 482.04 398.69 483.86 397.25 484.97C395.80 486.07 396.10 487.17 397.49 487.97C398.89 488.76 402.54 489.70 406.52 490.28C410.49 490.86 412.85 491.38 423.99 491.85C435.12 492.33 461.10 493.22 480.74 493.44C500.37 493.67 532.75 493.63 554.87 493.33C576.99 493.03 608.96 492.35 628.23 491.46C647.50 490.56 672.62 488.34 683.36 487.37C694.10 486.40 696.21 485.70 699.84 485.00C703.48 484.29 706.68 483.30 707.59 482.67C708.49 482.04 707.52 481.25 705.90 480.81C703.99 480.30 699.63 479.62 694.83 479.24C690.03 478.85 687.04 478.34 673.89 478.27C660.74 478.21 623.44 478.49 607.18 478.80C590.92 479.11 584.21 479.38 565.49 480.35C546.76 481.33 500.23 484.10 482.36 485.30C464.50 486.49 459.42 487.07 446.39 488.31C433.35 489.56 407.01 492.16 395.46 493.59C383.92 495.03 372.59 497.26 369.41 497.89C366.23 498.52 373.33 498.02 374.28 497.77C375.24 497.52 375.38 497.60 375.78 496.25C376.19 494.90 376.77 491.01 376.96 488.77C377.15 486.54 377.11 482.93 377.04 481.33C376.97 479.73 376.79 479.09 376.50 478.10C376.21 477.11 375.51 475.11 375.10 474.75C374.70 474.40 374.36 474.80 373.80 475.73C372.95 477.11 370.44 481.80 369.45 483.97C368.45 486.14 367.68 488.32 367.14 490.19C366.59 492.07 365.91 494.71 365.82 496.45C365.73 498.18 365.71 500.40 366.52 501.74C367.33 503.08 368.98 504.61 371.22 505.37C373.46 506.13 377.49 506.63 381.46 506.81C385.43 507.00 388.01 507.14 397.69 506.59C407.36 506.04 434.51 503.82 445.95 503.15C457.39 502.47 465.47 502.28 473.94 502.11C482.42 501.93 486.73 501.63 502.44 501.95C518.15 502.27 564.12 503.94 578.67 504.23C592.55 504.52 593.70 504.14 599.48 503.93C605.27 503.72 609.00 503.64 617.24 502.85C625.49 502.06 644.26 500.06 654.45 498.67C664.64 497.28 678.14 494.90 685.17 493.57C692.19 492.23 698.58 490.59 701.31 489.77C702.97 489.27 703.04 488.70 703.34 488.13C703.63 487.57 703.57 486.73 703.28 486.00C702.99 485.26 702.75 485.01 701.42 483.23C699.58 480.75 693.31 471.91 690.98 469.45C688.65 466.99 688.04 467.50 685.89 466.83C683.73 466.16 680.40 465.41 676.63 464.97C672.86 464.54 666.06 464.07 660.74 463.94C655.42 463.81 649.72 463.69 641.15 464.11C632.58 464.53 611.62 465.96 603.61 466.74C595.60 467.51 577.09 470.48 587.73 469.25C600.06 467.83 668.43 459.49 685.79 457.23C697.62 455.69 699.26 455.10 703.44 454.21C707.61 453.33 712.08 451.87 713.62 451.36C713.97 451.24 714.02 450.99 713.70 450.82C713.30 450.60 711.43 450.13 710.97 449.92C710.60 449.74 710.86 449.61 710.68 449.37C710.50 449.14 710.53 448.61 709.76 448.35C708.98 448.08 705.55 447.78 705.51 447.59C705.47 447.40 708.28 447.09 709.47 447.08C710.66 447.08 712.23 447.25 713.44 447.56C714.65 447.86 717.04 448.42 717.54 449.11C718.04 449.81 717.70 451.05 716.79 452.16C715.88 453.28 715.32 454.48 711.47 456.54C707.63 458.59 691.03 464.91 691.17 465.86C691.31 466.81 707.92 463.44 712.41 462.89C716.90 462.34 719.28 462.18 721.10 462.20C722.93 462.22 724.11 462.57 724.57 463.02C725.04 463.47 725.12 464.04 724.21 465.19C723.22 466.43 719.10 470.07 718.02 471.27C717.06 472.35 717.11 472.88 717.05 473.21C716.98 473.53 717.28 473.63 717.60 473.43C717.92 473.24 718.76 473.02 719.18 471.88C719.60 470.75 720.58 466.91 720.39 465.88C720.20 464.84 719.18 464.77 717.92 464.99C716.66 465.21 715.65 465.17 711.99 467.33C707.85 469.76 695.88 478.00 690.35 481.23C684.82 484.46 680.03 486.81 675.13 488.87C670.23 490.93 663.44 493.37 657.69 494.96C651.94 496.56 646.07 498.09 636.79 499.51C627.51 500.93 604.23 503.32 595.81 504.43C587.38 505.54 583.90 506.27 580.61 506.90C577.33 507.54 574.30 508.22 573.93 508.65C573.57 509.08 575.26 509.53 578.19 509.77C581.15 510.02 583.34 510.45 593.65 510.30C614.14 510.02 696.22 508.42 714.80 507.89C716.76 507.83 717.22 507.10 717.52 506.76C717.82 506.43 716.86 506.12 716.77 505.67C716.68 505.22 716.70 505.02 716.92 503.76C717.16 502.38 717.38 499.64 718.39 496.46C719.40 493.29 721.83 486.93 723.66 482.60C725.49 478.27 729.43 470.59 730.59 467.56C731.75 464.54 731.48 463.77 731.40 462.44C731.32 461.12 731.11 459.59 730.07 458.73C729.02 457.87 726.42 456.98 724.42 456.72C722.42 456.46 721.86 456.69 716.75 457.01C709.32 457.48 694.96 458.93 674.86 459.83C654.76 460.73 601.38 462.26 582.72 463.03C564.06 463.79 558.76 464.33 550.47 464.95C542.19 465.56 535.22 466.07 527.49 467.13C519.76 468.19 507.40 470.04 498.93 472.00C490.46 473.97 477.74 477.79 471.04 480.22C464.34 482.65 457.64 486.32 454.28 488.21C450.93 490.10 450.09 491.47 448.66 492.82C447.22 494.17 445.70 495.74 444.73 497.19C443.76 498.64 442.52 500.91 442.18 502.50C441.83 504.08 442.14 506.22 442.44 507.75C442.73 509.27 442.37 511.31 444.14 512.67C445.91 514.02 450.46 515.91 454.22 516.79C457.98 517.66 463.39 518.27 469.20 518.50C475.02 518.73 477.14 519.13 492.96 518.30C522.02 516.79 632.96 510.45 662.99 508.43C683.18 507.07 687.28 505.73 693.12 504.81C698.97 503.89 700.24 502.91 701.94 502.31C703.63 501.72 703.26 501.25 704.40 500.82C705.54 500.39 708.98 499.99 709.52 499.44C710.06 498.89 709.29 497.92 707.98 497.14C706.67 496.37 704.79 494.96 700.81 494.25C696.83 493.53 690.07 492.85 681.46 492.39C672.85 491.92 654.95 491.24 643.39 491.13C631.83 491.02 622.56 491.12 604.39 491.63C586.22 492.13 544.08 493.53 522.26 494.49C500.44 495.46 474.61 496.75 458.89 498.07C443.18 499.38 428.05 501.67 417.49 503.29C406.94 504.90 393.57 507.79 388.53 508.80C385.38 509.44 385.65 509.58 383.88 510.04C382.10 510.50 378.46 511.28 376.68 511.89C374.91 512.51 372.58 513.40 372.06 514.14C371.53 514.89 372.40 515.94 373.19 516.84C373.97 517.75 374.85 519.32 377.27 520.19C379.69 521.07 384.36 522.07 389.30 522.66C394.24 523.25 403.57 524.05 410.19 524.11C416.81 524.17 417.97 524.31 433.43 523.05C451.14 521.61 504.84 516.39 528.23 514.49C551.62 512.60 575.82 511.55 589.37 510.39C602.93 509.24 610.90 507.88 618.61 506.81C626.32 505.74 634.85 504.48 640.78 503.26C646.71 502.04 652.91 500.19 658.16 498.69C663.42 497.19 671.52 494.84 675.82 493.27C680.12 491.71 683.66 489.96 686.82 488.23C689.98 486.51 694.58 483.57 696.87 481.76C699.16 479.95 701.03 477.80 702.08 476.18C703.14 474.56 703.22 474.55 703.89 470.97C704.56 467.39 706.21 455.66 706.56 452.29C706.83 449.76 706.56 449.61 706.22 448.49C705.88 447.37 705.21 445.72 704.28 444.82C703.35 443.91 701.50 442.96 700.01 442.44C698.52 441.91 697.06 441.50 694.35 441.32C691.64 441.14 686.73 441.03 681.96 441.23C677.18 441.43 674.12 441.52 662.51 442.64C650.90 443.75 621.92 446.66 604.56 448.67C587.20 450.68 564.13 453.58 546.76 456.04C529.40 458.49 499.61 463.28 488.80 465.06C479.35 466.62 478.56 467.06 474.72 467.92C470.88 468.78 468.25 469.09 463.22 470.78C458.18 472.47 447.73 476.38 441.14 479.18C434.54 481.99 423.78 487.25 419.27 489.51C414.75 491.77 413.06 492.91 411.04 494.24C409.03 495.56 407.04 497.12 405.81 498.36C404.59 499.59 403.30 501.32 402.88 502.47C402.45 503.62 402.55 505.05 402.99 506.04C403.43 507.03 404.13 508.46 405.80 509.08C407.47 509.70 411.04 510.19 414.12 510.17C417.20 510.15 421.34 509.90 426.31 508.95C431.28 508.00 444.67 504.58 447.26 503.85C449.63 503.18 445.82 503.65 443.58 504.07C441.33 504.48 436.36 505.60 432.29 506.62C428.21 507.64 419.57 509.92 416.43 510.88C413.30 511.85 411.01 512.70 411.40 513.04C411.79 513.39 415.01 513.49 419.06 513.19C423.11 512.90 431.53 511.94 438.42 511.08C445.30 510.23 450.21 509.07 464.98 507.49C479.74 505.91 512.86 502.55 536.87 500.55C560.87 498.55 610.24 495.12 625.01 494.17C631.90 493.72 633.81 494.17 635.36 494.17"/><path fill="none" stroke="#a4a4a4" stroke-width="2.0" stroke-linecap="round" stroke-linejoin="round" d="M276.99 567.91C277.05 567.67 277.10 566.44 277.43 566.34C277.76 566.24 278.58 566.06 279.18 567.22C280.02 568.81 282.38 574.41 283.03 576.94C283.67 579.47 283.70 582.15 283.47 584.10C283.24 586.05 282.18 588.66 281.48 589.94C280.78 591.22 279.19 592.24 278.78 592.64"/><path fill="none" stroke="#a4a4a4" stroke-width="2.0" stroke-linecap="round" stroke-linejoin="round" d="M240.56 571.51C240.46 571.30 240.29 570.42 239.88 570.15C239.47 569.88 238.43 569.51 237.83 569.71C237.23 569.92 236.37 570.67 235.89 571.50C235.41 572.32 234.89 573.90 234.65 575.20C234.41 576.50 234.15 578.45 234.27 580.16C234.39 581.88 234.82 584.76 235.43 586.63C236.04 588.50 237.41 591.27 238.32 592.64C239.22 594.01 240.99 595.32 241.46 595.79"/>
</svg>