<?xml version="1.0" encoding="UTF-8"?>
<!DOCTYPE svg PUBLIC "-//W3C//DTD SVG 1.1//EN" "http://www.w3.org/Graphics/SVG/1.1/DTD/svg11.dtd">
<svg  xmlns="http://www.w3.org/2000/svg" xmlns:xlink="http://www.w3.org/1999/xlink" viewport-fill="none" viewBox="0.0, 0.0, 786.9431762695312, 550.8763427734375" version="1.1" height="550.8763427734375" width="786.9431762695312">
<path fill="none" stroke="#823ede" stroke-width="5.0" stroke-linecap="round" stroke-linejoin="round" d="M575.55 514.85C575.42 514.85 574.91 514.70 574.65 514.85C574.40 515.00 573.39 515.10 573.83 515.85C575.29 518.34 583.41 530.34 584.39 531.46C585.37 532.58 581.37 525.83 580.36 523.32C579.35 520.80 577.88 516.11 577.63 514.68C577.47 513.78 577.88 513.43 578.71 513.82C580.83 514.83 589.13 520.07 591.76 521.41C594.38 522.75 595.17 522.70 596.21 522.78C597.26 522.85 598.32 522.52 598.71 521.94C599.10 521.36 599.10 520.00 598.82 518.89C598.54 517.78 597.57 515.87 596.83 514.52C596.08 513.17 595.09 511.54 593.87 509.89C592.66 508.24 589.45 504.32 588.72 503.51C588.26 502.99 589.00 504.36 589.04 504.51"/><path fill="none" stroke="#823ede" stroke-width="5.0" stroke-linecap="round" stroke-linejoin="round" d="M607.48 503.61C606.87 503.48 604.23 502.66 603.45 502.76C602.66 502.87 602.46 503.70 602.24 504.32C602.03 504.95 601.91 506.07 602.03 506.93C602.16 507.80 602.60 509.21 603.09 510.10C603.57 510.99 604.51 512.25 605.27 512.85C606.03 513.45 607.35 514.04 608.15 514.11C608.95 514.18 610.04 513.80 610.58 513.33C611.13 512.85 611.61 511.82 611.81 510.94C612.01 510.07 612.17 508.44 611.93 507.48C611.70 506.51 610.98 505.36 610.24 504.51C609.51 503.66 607.51 502.22 607.03 501.81"/><path fill="none" stroke="#823ede" stroke-width="5.0" stroke-linecap="round" stroke-linejoin="round" d="M614.22 495.97C614.20 495.87 613.84 495.02 614.09 495.35C614.72 496.20 617.43 500.52 618.40 501.63C619.37 502.73 619.98 502.64 620.55 502.73C621.13 502.83 621.80 503.36 622.23 502.28C622.68 501.15 622.75 496.09 623.53 495.21C624.32 494.33 626.55 496.27 627.46 496.42C628.37 496.56 629.13 496.46 629.61 496.19C630.09 495.93 630.60 495.22 630.66 494.64C630.73 494.06 630.43 493.07 630.06 492.33C629.69 491.59 629.16 490.49 628.20 489.69C627.24 488.88 624.41 487.45 623.67 486.97C623.31 486.74 623.28 486.59 623.22 486.52"/><path fill="none" stroke="#823ede" stroke-width="5.0" stroke-linecap="round" stroke-linejoin="round" d="M657.84 453.25C657.58 453.18 655.89 452.54 656.11 452.80C656.32 453.06 657.75 453.49 659.26 454.97C660.76 456.45 664.45 460.20 666.13 462.64C667.80 465.08 669.78 469.94 670.43 471.23"/><path fill="none" stroke="#823ede" stroke-width="5.0" stroke-linecap="round" stroke-linejoin="round" d="M660.99 467.19C660.86 466.99 660.23 466.30 660.15 465.87C660.08 465.44 660.17 464.92 660.49 464.31C660.80 463.70 660.96 463.06 662.25 461.80C663.54 460.55 667.65 456.96 669.08 455.95C670.51 454.93 671.37 455.18 671.78 455.05"/><path fill="none" stroke="#823ede" stroke-width="5.0" stroke-linecap="round" stroke-linejoin="round" d="M674.48 455.50C674.88 455.56 676.31 456.13 677.17 455.89C678.04 455.65 679.70 454.48 680.25 453.92C680.79 453.36 680.79 452.68 680.81 452.16C680.82 451.65 680.66 450.89 680.35 450.50C680.05 450.11 679.34 449.63 678.77 449.55C678.20 449.46 677.17 449.55 676.57 449.93C675.96 450.30 675.12 451.22 674.73 452.05C674.33 452.88 673.91 454.41 673.92 455.44C673.93 456.48 674.34 457.96 674.78 458.95C675.23 459.95 676.05 461.47 676.89 462.07C677.73 462.67 679.33 463.19 680.39 462.94C681.44 462.70 683.12 461.29 683.92 460.44C684.72 459.60 685.45 457.77 685.72 457.30"/><path fill="none" stroke="#823ede" stroke-width="5.0" stroke-linecap="round" stroke-linejoin="round" d="M685.27 443.81C686.00 444.91 689.60 450.94 690.16 451.20C690.72 451.46 689.13 447.40 689.00 445.52C688.87 443.65 689.04 439.82 689.30 438.69C689.54 437.64 690.24 437.86 690.75 437.97C691.26 438.09 691.89 438.48 692.69 439.49C693.50 440.49 695.61 445.21 696.10 444.66C696.58 444.11 695.84 437.52 695.92 435.83C696.01 434.15 696.37 433.91 696.67 433.40C696.96 432.89 697.05 431.78 697.88 432.41C698.86 433.16 702.45 437.51 703.25 438.41"/><path fill="none" stroke="#823ede" stroke-width="5.0" stroke-linecap="round" stroke-linejoin="round" d="M716.29 443.36C716.85 444.04 720.45 448.45 720.00 447.93C719.55 447.40 714.90 442.01 713.31 439.88C711.72 437.74 710.43 435.64 709.42 433.66C708.40 431.69 707.09 428.65 706.55 426.70C706.00 424.75 705.65 422.16 705.78 420.66C705.91 419.17 706.68 417.48 707.39 416.72C708.09 415.95 709.57 415.46 710.48 415.57C711.39 415.68 712.63 416.62 713.44 417.46C714.25 418.30 715.43 419.85 715.89 421.15C716.35 422.44 716.79 424.40 716.51 426.11C716.24 427.83 714.42 431.60 714.05 432.56"/><path fill="none" stroke="#823ede" stroke-width="5.0" stroke-linecap="round" stroke-linejoin="round" d="M669.98 536.43C670.12 536.87 670.52 538.53 670.94 539.35C671.36 540.17 671.87 540.91 672.81 541.88C673.74 542.86 676.52 545.28 677.17 545.88"/><path fill="none" stroke="#823ede" stroke-width="5.0" stroke-linecap="round" stroke-linejoin="round" d="M665.93 531.49C665.72 531.17 664.45 529.67 664.52 529.34C664.59 529.00 666.10 529.25 666.38 529.24"/><path fill="none" stroke="#823ede" stroke-width="5.0" stroke-linecap="round" stroke-linejoin="round" d="M683.02 525.19C682.52 524.87 680.48 523.23 679.65 523.05C678.83 522.88 678.10 523.58 677.55 524.03C677.00 524.48 676.28 525.37 675.99 526.06C675.71 526.76 675.54 527.92 675.64 528.68C675.74 529.43 676.13 530.51 676.65 531.08C677.18 531.66 677.24 532.46 679.15 532.49C681.54 532.53 690.44 531.35 692.54 531.34C693.38 531.34 693.18 532.03 693.17 532.43C693.17 532.83 693.36 533.25 692.51 534.01C691.39 535.01 686.74 538.36 685.72 539.13"/><path fill="none" stroke="#823ede" stroke-width="5.0" stroke-linecap="round" stroke-linejoin="round" d="M711.80 496.41C711.47 496.55 710.10 496.97 709.61 497.35C709.13 497.72 708.73 498.23 708.58 498.92C708.42 499.61 708.03 500.55 708.56 501.94C709.09 503.34 711.02 506.97 712.11 508.21C713.19 509.45 714.71 509.97 715.81 510.22C716.91 510.48 718.63 510.15 719.44 509.90C720.26 509.65 720.97 508.76 721.24 508.56"/><path fill="none" stroke="#823ede" stroke-width="5.0" stroke-linecap="round" stroke-linejoin="round" d="M724.39 486.97C723.82 487.10 721.37 487.40 720.57 487.84C719.77 488.28 719.35 489.07 719.08 489.89C718.82 490.70 718.74 492.22 718.80 493.28C718.85 494.34 719.05 495.95 719.45 496.98C719.84 498.00 720.74 499.39 721.40 500.14C722.07 500.88 723.12 501.71 723.89 501.96C724.66 502.20 725.84 502.15 726.55 501.78C727.26 501.41 728.13 500.37 728.61 499.50C729.09 498.63 729.61 497.11 729.75 495.98C729.88 494.86 729.85 493.07 729.52 491.98C729.19 490.90 728.17 489.52 727.54 488.77C726.90 488.02 725.62 487.24 725.29 486.97"/><path fill="none" stroke="#823ede" stroke-width="5.0" stroke-linecap="round" stroke-linejoin="round" d="M730.23 479.78C731.08 481.27 735.37 489.08 735.87 489.71C736.37 490.34 734.05 486.05 733.57 483.98C733.09 481.91 732.59 477.28 732.67 475.90C732.74 474.69 733.53 474.75 734.08 474.75C734.64 474.75 735.20 474.98 736.36 475.91C737.53 476.85 740.63 480.14 741.83 480.96C743.03 481.79 743.65 481.65 744.37 481.40C745.10 481.16 746.09 480.29 746.69 479.32C747.29 478.35 748.01 476.40 748.38 474.93C748.74 473.47 749.06 471.12 749.12 469.55C749.18 467.97 749.03 465.72 748.77 464.44C748.50 463.15 747.85 461.68 747.34 460.98C746.83 460.29 745.95 459.86 745.35 459.78C744.75 459.70 743.82 460.03 743.36 460.45C742.91 460.88 742.45 461.90 742.31 462.63C742.16 463.35 742.10 464.51 742.38 465.28C742.67 466.06 743.44 467.09 744.21 467.77C744.98 468.45 745.61 469.00 747.50 469.81C749.38 470.63 755.45 472.50 756.79 473.20C757.58 473.61 757.16 473.96 756.44 474.48C755.62 475.06 752.13 476.69 751.37 477.08"/><path fill="none" stroke="#823ede" stroke-width="5.0" stroke-linecap="round" stroke-linejoin="round" d="M758.11 443.81C758.93 445.12 762.36 450.45 763.56 452.54C764.75 454.64 765.61 456.53 766.07 457.78C766.54 459.03 766.57 460.43 766.66 460.89"/><path fill="none" stroke="#823ede" stroke-width="5.0" stroke-linecap="round" stroke-linejoin="round" d="M756.31 455.50C756.36 455.37 756.12 454.99 756.61 454.65C758.63 453.23 767.82 447.34 769.80 446.05"/><path fill="none" stroke="#823ede" stroke-width="5.0" stroke-linecap="round" stroke-linejoin="round" d="M781.94 448.75C781.94 448.75 781.94 448.75 781.94 448.75"/>
</svg>