<?xml version="1.0" encoding="UTF-8"?>
<!DOCTYPE svg PUBLIC "-//W3C//DTD SVG 1.1//EN" "http://www.w3.org/Graphics/SVG/1.1/DTD/svg11.dtd">
<svg  xmlns="http://www.w3.org/2000/svg" xmlns:xlink="http://www.w3.org/1999/xlink" viewport-fill="none" viewBox="0.0, 0.0, 720.9451151414659, 810.52294921875" version="1.1" height="810.52294921875" width="720.9451151414659">
<path fill="none" stroke="#ffd873" stroke-opacity="0.5" stroke-width="20.0" stroke-linecap="round" stroke-linejoin="round" d="M295.42 475.73C295.31 475.36 294.51 473.81 294.68 473.27C294.84 472.73 295.31 472.53 296.53 472.11C297.75 471.69 300.35 470.87 302.81 470.50C305.27 470.13 306.17 469.80 312.96 469.66C322.72 469.47 356.50 469.44 367.94 469.21C379.38 468.98 380.79 468.76 389.22 468.13C397.65 467.50 414.77 466.11 424.16 465.01C433.55 463.91 445.66 462.17 451.83 460.78C457.99 459.38 462.75 456.55 465.26 455.71C467.40 455.00 468.00 455.11 468.59 455.18C469.19 455.26 469.05 455.42 469.24 456.20C469.86 458.67 471.77 466.34 472.73 471.67C473.70 477.00 474.86 483.77 475.66 491.74C476.47 499.72 477.82 517.32 478.09 524.83C478.35 532.33 477.79 537.47 477.44 541.77C477.10 546.07 476.34 550.59 475.79 553.48C475.24 556.38 474.69 559.16 473.77 561.08C472.85 563.01 470.71 565.23 469.65 566.32C468.58 567.41 468.54 567.51 466.68 568.35C464.83 569.20 462.79 570.86 457.27 571.95C451.75 573.05 437.97 574.80 429.89 575.67C421.81 576.53 415.41 577.14 403.39 577.71C391.36 578.29 360.89 579.00 349.71 579.49C338.52 579.99 334.19 580.42 328.83 581.00C323.47 581.57 319.33 582.16 313.95 583.30C308.56 584.45 296.43 587.77 292.94 588.63C291.43 589.00 291.83 588.96 290.65 589.06C289.46 589.15 286.10 589.38 285.05 589.29C284.00 589.20 284.04 588.94 283.64 588.44C283.25 587.94 282.71 587.78 282.42 585.95C282.05 583.67 281.40 578.99 281.19 573.23C280.98 567.48 281.02 553.83 281.03 547.59C281.04 541.34 280.96 538.41 281.26 531.59C281.56 524.76 282.50 508.20 283.02 502.10C283.54 496.01 283.95 494.34 284.73 490.93C285.51 487.51 287.30 481.47 288.23 479.33C289.15 477.18 290.52 477.03 290.92 476.63"/><path fill="none" stroke="#98c2ff" stroke-opacity="0.5" stroke-width="20.0" stroke-linecap="round" stroke-linejoin="round" d="M502.26 461.79C502.19 460.76 502.38 453.85 501.82 454.92C501.25 455.99 499.35 464.45 498.50 468.93C497.64 473.41 497.50 474.19 496.10 484.80C494.63 495.88 490.27 531.97 488.71 542.82C487.33 552.48 486.64 553.46 485.72 557.15C484.79 560.84 483.96 563.56 482.55 567.42C481.14 571.28 477.19 580.37 476.31 582.88C476.02 583.72 476.33 583.87 476.66 584.17C477.00 584.47 477.24 584.59 478.55 584.87C480.31 585.26 485.48 586.38 488.40 586.73C491.31 587.08 492.29 587.36 497.96 587.21C503.64 587.07 514.26 586.76 526.21 585.74C538.15 584.72 562.83 581.61 577.60 580.43C592.36 579.24 612.22 578.64 624.65 577.82C637.07 577.01 650.91 576.05 660.45 575.00C669.99 573.94 683.32 571.58 688.25 570.76C691.69 570.20 692.26 569.97 693.34 569.58C694.41 569.18 694.95 568.47 695.42 568.15C695.90 567.83 696.05 567.70 696.51 567.46C696.97 567.21 698.10 566.82 698.49 566.52C698.88 566.22 698.97 566.26 699.09 565.44C699.32 563.98 699.81 562.58 700.00 556.77C700.28 548.57 700.90 521.11 700.94 510.76C700.98 500.42 700.69 493.26 700.25 487.82C699.82 482.39 698.87 477.87 698.03 474.51C697.19 471.15 695.30 467.03 694.64 465.41C694.14 464.20 694.05 464.15 693.64 463.73C693.23 463.31 692.60 462.85 691.89 462.61C691.17 462.38 689.98 462.24 688.89 462.14C687.79 462.04 687.44 462.09 684.56 461.95C676.97 461.61 653.59 459.89 638.27 459.82C622.96 459.74 598.01 461.29 582.49 461.46C566.97 461.63 545.51 460.83 534.82 460.96C524.13 461.09 515.63 462.00 511.25 462.33C507.47 462.62 507.18 462.85 505.63 463.17C504.08 463.50 501.96 464.09 500.91 464.49C499.87 464.89 499.00 465.64 498.66 465.84"/><path fill="none" stroke="#ffd873" stroke-opacity="0.5" stroke-width="20.0" stroke-linecap="round" stroke-linejoin="round" d="M430.32 619.17C429.31 621.97 425.85 630.26 423.62 637.82C421.39 645.39 417.77 658.80 415.47 669.58C413.18 680.37 409.37 702.95 408.31 709.73C407.80 713.05 408.17 713.78 408.45 714.76C408.73 715.75 409.44 715.88 410.18 716.27C410.92 716.67 412.19 717.02 413.41 717.38C414.63 717.74 416.43 718.36 418.34 718.68C420.25 719.00 423.33 719.43 426.17 719.52C429.00 719.60 429.87 719.75 437.24 719.24C445.85 718.65 474.41 716.09 483.59 715.55C492.77 715.01 491.64 715.48 498.42 715.62C505.21 715.76 521.24 717.04 528.83 716.49C536.41 715.94 545.14 713.01 549.00 711.94C552.85 710.87 553.42 709.97 554.53 709.33C555.64 708.70 555.76 708.87 556.41 707.74C557.07 706.60 558.35 703.57 558.90 701.77C559.44 699.98 559.50 699.81 560.04 695.78C561.30 686.48 566.06 649.49 567.30 639.77C568.04 633.95 567.98 633.95 568.30 631.02C568.62 628.09 569.33 622.21 569.45 620.22C569.56 618.58 569.40 618.29 569.12 617.77C568.85 617.25 568.84 616.87 567.65 616.74C562.76 616.21 543.79 614.61 536.54 614.24C529.28 613.87 524.86 614.04 519.27 614.30C513.69 614.56 505.41 615.18 499.30 615.97C493.18 616.76 484.45 618.30 478.50 619.58C472.55 620.86 466.17 622.59 459.62 624.49C453.06 626.38 438.53 631.05 434.81 632.21"/><path fill="none" stroke="#004dc0" stroke-width="2.5" stroke-linecap="round" stroke-linejoin="round" d="M327.80 782.39C327.69 782.45 326.57 782.76 327.09 782.74C329.66 782.68 342.21 782.06 344.88 781.94"/><path fill="none" stroke="#004dc0" stroke-width="2.5" stroke-linecap="round" stroke-linejoin="round" d="M330.49 789.59C330.31 789.45 328.24 788.85 329.25 788.67C330.81 788.40 339.10 787.92 340.84 787.79"/><path fill="none" stroke="#004dc0" stroke-width="2.5" stroke-linecap="round" stroke-linejoin="round" d="M376.81 754.06C376.81 753.87 376.75 751.87 376.81 752.75C376.88 753.97 377.05 759.73 377.32 762.22C377.59 764.71 378.41 768.28 378.61 769.35"/><path fill="none" stroke="#004dc0" stroke-width="2.5" stroke-linecap="round" stroke-linejoin="round" d="M372.76 783.74C376.81 783.13 395.69 780.30 399.74 779.69"/><path fill="none" stroke="#004dc0" stroke-width="2.5" stroke-linecap="round" stroke-linejoin="round" d="M382.20 791.39C382.18 791.27 381.80 790.12 382.07 790.58C383.21 792.58 389.12 803.06 389.80 804.68C390.49 806.31 387.49 802.07 386.67 801.42C385.84 800.78 385.05 800.52 384.31 800.39C383.58 800.26 382.49 800.36 381.76 800.56C381.02 800.76 380.06 801.15 379.41 801.71C378.77 802.28 377.88 803.41 377.49 804.36C377.10 805.31 376.91 807.47 376.81 808.02"/><path fill="none" stroke="#004dc0" stroke-width="2.5" stroke-linecap="round" stroke-linejoin="round" d="M412.33 769.35C412.02 769.49 408.73 770.40 410.25 770.27C412.48 770.09 427.10 765.88 427.24 768.12C427.37 770.37 413.32 782.61 411.15 785.27C410.44 786.13 412.06 785.79 412.73 785.82C413.40 785.84 413.78 785.90 415.62 785.42C417.46 784.95 422.30 783.77 424.97 782.64C427.65 781.51 432.19 778.61 433.46 777.90"/><path fill="none" stroke="#004dc0" stroke-width="2.5" stroke-linecap="round" stroke-linejoin="round" d="M416.38 750.92C415.97 751.69 413.53 756.39 413.68 756.09C413.83 755.80 416.61 750.22 417.38 748.97C418.03 747.91 418.39 748.00 418.80 747.77C419.21 747.54 419.35 746.95 420.12 747.43C420.97 747.97 423.82 750.78 424.47 751.37"/>
</svg>