<?xml version="1.0" encoding="UTF-8"?>
<!DOCTYPE svg PUBLIC "-//W3C//DTD SVG 1.1//EN" "http://www.w3.org/Graphics/SVG/1.1/DTD/svg11.dtd">
<svg  xmlns="http://www.w3.org/2000/svg" xmlns:xlink="http://www.w3.org/1999/xlink" viewport-fill="none" viewBox="0.0, 0.0, 514.6021728515625, 458.12120675322467" version="1.1" height="458.12120675322467" width="514.6021728515625">
<path fill="none" stroke="#d1000d" stroke-width="2.0" stroke-linecap="round" stroke-linejoin="round" d="M134.90 408.73C134.31 408.86 133.34 409.54 130.97 409.55C128.59 409.55 122.81 408.75 119.06 408.77C115.32 408.78 109.04 409.22 106.00 409.65C102.96 410.08 100.88 410.90 98.82 411.64C96.76 412.39 94.06 413.62 92.25 414.62C90.43 415.61 88.09 417.07 86.71 418.27C85.34 419.48 83.80 421.25 83.10 422.65C82.39 424.05 82.02 425.99 82.03 427.62C82.04 429.26 82.50 431.69 83.17 433.57C83.84 435.46 85.20 438.26 86.49 440.19C87.77 442.13 89.86 444.77 91.74 446.48C93.61 448.19 96.50 450.36 98.99 451.60C101.47 452.85 105.27 454.10 108.30 454.76C111.33 455.42 115.82 455.82 119.18 456.00C122.55 456.18 127.37 456.15 130.71 455.95C134.04 455.76 138.45 455.22 141.42 454.68C144.38 454.15 148.10 453.26 150.48 452.40C152.85 451.54 155.55 450.18 157.26 448.98C158.98 447.78 160.78 445.83 161.89 444.41C163.00 442.98 164.14 441.00 164.68 439.46C165.23 437.92 165.56 435.80 165.53 434.14C165.49 432.48 165.04 430.16 164.47 428.40C163.90 426.63 162.74 424.22 161.71 422.36C160.68 420.51 159.03 417.85 157.62 416.03C156.22 414.21 153.95 411.69 152.33 410.25C150.71 408.81 148.58 407.02 146.84 406.45C145.10 405.89 142.67 406.01 140.74 406.48C138.81 406.96 135.01 409.16 134.00 409.63"/><path fill="none" stroke="#d1000d" stroke-width="2.0" stroke-linecap="round" stroke-linejoin="round" d="M179.41 415.03C178.95 415.72 172.99 421.27 176.31 419.63C182.41 416.60 212.11 399.29 220.11 394.85C226.35 391.40 228.68 390.91 229.68 390.08C230.68 389.25 227.47 389.52 226.80 389.34C226.13 389.17 226.17 389.13 225.23 388.91C224.29 388.70 220.52 387.63 220.52 387.93C220.52 388.23 224.39 390.19 225.22 390.93C226.05 391.67 225.93 392.02 226.08 392.87C226.22 393.72 226.16 396.03 226.17 396.59"/><path fill="none" stroke="#d1000d" stroke-width="2.0" stroke-linecap="round" stroke-linejoin="round" d="M249.11 371.86C248.77 371.87 247.30 372.02 246.86 371.89C246.42 371.76 246.15 371.42 246.20 370.99C246.24 370.56 246.74 369.59 247.14 369.03C247.53 368.48 248.25 367.66 248.85 367.29C249.45 366.92 250.47 366.57 251.12 366.56C251.77 366.55 252.69 366.75 253.19 367.20C253.68 367.65 254.20 368.75 254.42 369.59C254.64 370.42 254.78 371.65 254.63 372.76C254.49 373.87 253.27 376.57 253.47 376.98C253.67 377.39 255.34 375.71 255.99 375.48C256.64 375.25 257.36 375.31 257.81 375.45C258.25 375.60 258.77 376.02 258.93 376.44C259.10 376.87 259.07 377.68 258.90 378.29C258.74 378.90 258.32 379.85 257.81 380.51C257.29 381.18 256.17 382.13 255.47 382.72C254.77 383.31 253.64 384.19 253.15 384.45C252.67 384.71 252.39 384.45 252.25 384.45"/><path fill="none" stroke="#d1000d" stroke-width="2.0" stroke-linecap="round" stroke-linejoin="round" d="M274.29 352.98C274.21 352.82 273.42 351.22 273.75 351.94C274.30 353.17 277.42 359.70 277.99 361.17C278.17 361.62 278.04 361.69 277.56 361.75C276.96 361.82 274.81 361.52 273.99 361.63C273.17 361.74 272.58 362.10 272.10 362.50C271.63 362.90 271.01 363.62 270.85 364.31C270.69 365.00 270.82 366.32 271.05 367.12C271.29 367.91 271.80 369.15 272.42 369.63C273.03 370.11 274.21 370.45 275.16 370.32C276.12 370.18 277.97 369.29 278.78 368.71C279.60 368.14 280.31 366.80 280.58 366.47"/><path fill="none" stroke="#d1000d" stroke-width="2.0" stroke-linecap="round" stroke-linejoin="round" d="M284.63 361.07C284.97 359.83 286.59 354.35 286.93 352.83C287.21 351.57 287.03 351.26 286.92 350.89C286.81 350.53 286.49 350.33 286.20 350.39C285.90 350.45 285.29 350.78 284.93 351.29C284.58 351.80 284.01 352.94 283.83 353.77C283.64 354.60 283.50 356.04 283.70 356.83C283.90 357.62 284.56 358.47 285.16 359.04C285.76 359.62 286.72 360.55 287.73 360.66C288.74 360.77 290.53 360.59 291.89 359.78C293.25 358.96 296.04 355.91 296.77 355.22"/><path fill="none" stroke="#d1000d" stroke-width="2.0" stroke-linecap="round" stroke-linejoin="round" d="M299.92 346.23C299.65 345.69 298.64 343.30 298.12 342.63C297.59 341.97 296.93 341.79 296.42 341.79C295.91 341.79 295.18 342.05 294.72 342.62C294.26 343.19 293.61 344.63 293.36 345.60C293.11 346.58 293.00 348.12 293.07 349.14C293.13 350.16 293.42 351.60 293.80 352.38C294.18 353.16 294.97 354.05 295.59 354.34C296.21 354.64 297.27 354.63 297.92 354.36C298.56 354.09 299.40 353.25 299.88 352.53C300.36 351.81 300.93 350.77 301.13 349.59C301.32 348.40 300.31 343.45 301.20 344.62C302.09 345.80 305.91 354.53 307.06 357.43C308.22 360.33 308.58 362.08 308.88 363.95C309.19 365.83 309.36 368.42 309.11 369.95C308.86 371.49 307.98 373.15 307.22 374.16C306.46 375.16 305.07 376.25 304.04 376.66C303.00 377.08 301.29 377.18 300.33 376.93C299.38 376.68 298.14 375.50 297.67 375.01C297.20 374.52 297.29 373.86 297.22 373.66"/><path fill="none" stroke="#d1000d" stroke-width="2.0" stroke-linecap="round" stroke-linejoin="round" d="M306.66 339.49C307.00 340.22 308.63 343.23 308.95 344.38C309.26 345.53 309.20 347.12 308.77 347.16C308.33 347.20 306.64 345.93 306.03 344.65C305.43 343.37 304.79 339.94 304.72 338.64C304.66 337.34 304.98 336.67 305.61 335.99C306.24 335.30 308.41 334.38 308.91 334.09"/><path fill="none" stroke="#d1000d" stroke-width="2.0" stroke-linecap="round" stroke-linejoin="round" d="M314.31 341.29C314.68 340.30 316.46 336.15 316.82 334.71C317.18 333.27 316.93 331.75 316.73 331.66C316.52 331.57 315.66 333.31 315.47 334.11C315.28 334.92 315.31 336.15 315.44 337.04C315.57 337.93 315.94 339.24 316.32 340.06C316.71 340.89 317.38 342.05 318.03 342.54C318.68 343.03 319.78 343.46 320.63 343.34C321.49 343.22 322.88 342.45 323.75 341.73C324.62 341.02 326.04 339.06 326.45 338.59"/><path fill="none" stroke="#d1000d" stroke-width="2.0" stroke-linecap="round" stroke-linejoin="round" d="M325.55 334.54C325.48 334.47 324.95 334.49 325.10 334.09C325.60 332.70 328.38 326.81 328.92 325.28C329.22 324.41 328.86 324.14 328.66 323.92C328.47 323.70 327.99 323.64 327.61 323.83C327.23 324.02 326.53 324.60 326.12 325.21C325.72 325.82 325.16 327.04 324.94 327.89C324.72 328.75 324.56 330.09 324.65 330.92C324.74 331.74 325.12 332.79 325.55 333.41C325.98 334.03 326.77 334.84 327.53 335.04C328.29 335.24 329.57 335.24 330.62 334.76C331.68 334.28 333.95 332.28 334.54 331.84"/><path fill="none" stroke="#d1000d" stroke-width="2.0" stroke-linecap="round" stroke-linejoin="round" d="M340.84 317.45C340.70 317.32 340.53 316.76 339.94 316.55C339.35 316.35 337.71 315.77 336.90 316.07C336.08 316.36 334.85 317.89 334.50 318.53C334.16 319.16 334.38 319.79 334.61 320.31C334.83 320.83 335.43 321.55 336.01 321.99C336.58 322.43 337.22 322.86 338.45 323.26C339.69 323.65 343.17 324.31 344.22 324.62C345.17 324.91 345.30 325.13 345.50 325.38C345.69 325.62 345.99 325.93 345.50 326.27C344.40 327.04 339.24 329.86 338.14 330.49"/><path fill="none" stroke="#d1000d" stroke-width="2.0" stroke-linecap="round" stroke-linejoin="round" d="M369.61 310.71C369.55 310.38 369.43 308.96 369.20 308.49C368.96 308.03 368.50 307.65 368.06 307.60C367.62 307.54 366.76 307.83 366.26 308.14C365.76 308.45 365.11 309.04 364.74 309.64C364.38 310.24 363.93 311.37 363.82 312.13C363.71 312.89 363.77 314.05 364.00 314.70C364.22 315.35 364.84 316.13 365.33 316.46C365.81 316.80 366.66 317.04 367.22 316.96C367.78 316.89 368.63 316.43 369.06 315.99C369.49 315.55 369.88 314.68 370.08 314.02C370.27 313.36 370.57 312.69 370.37 311.59C370.16 310.49 368.96 307.40 368.71 306.66"/><path fill="none" stroke="#d1000d" stroke-width="2.0" stroke-linecap="round" stroke-linejoin="round" d="M375.46 298.12C375.45 297.64 375.61 295.53 375.43 294.94C375.24 294.35 374.47 293.78 374.20 294.18C373.94 294.58 373.68 296.62 373.66 297.60C373.65 298.59 373.37 298.77 374.11 300.77C374.92 302.94 378.31 310.36 379.06 312.06"/><path fill="none" stroke="#d1000d" stroke-width="2.0" stroke-linecap="round" stroke-linejoin="round" d="M373.21 308.91C373.23 308.67 372.92 307.82 373.31 307.30C373.70 306.77 374.03 306.51 375.79 305.41C377.66 304.24 384.30 300.36 385.80 299.47"/><path fill="none" stroke="#d1000d" stroke-width="2.0" stroke-linecap="round" stroke-linejoin="round" d="M415.48 305.76C415.38 305.38 415.06 303.72 414.81 303.20C414.55 302.67 414.18 302.41 413.76 302.26C413.34 302.10 412.50 302.04 412.01 302.16C411.51 302.27 410.82 302.57 410.47 303.03C410.11 303.49 409.76 304.41 409.62 305.23C409.49 306.04 408.93 306.41 409.58 308.48C410.59 311.73 415.36 324.13 416.38 326.90"/><path fill="none" stroke="#d1000d" stroke-width="2.0" stroke-linecap="round" stroke-linejoin="round" d="M407.38 324.65C407.39 324.34 407.13 323.26 407.42 322.60C407.71 321.94 408.58 321.02 409.32 320.26C410.05 319.49 410.87 318.55 412.33 317.52C413.79 316.49 418.06 314.02 419.07 313.41"/><path fill="none" stroke="#d1000d" stroke-width="2.0" stroke-linecap="round" stroke-linejoin="round" d="M423.57 317.90C423.98 318.75 426.32 323.41 426.28 323.53C426.24 323.65 423.83 320.35 423.29 318.69C422.74 317.04 422.63 313.64 422.67 312.51C422.71 311.43 423.44 311.36 423.57 311.16"/><path fill="none" stroke="#d1000d" stroke-width="2.0" stroke-linecap="round" stroke-linejoin="round" d="M433.01 314.31C433.35 313.96 434.54 313.13 435.25 311.97C435.97 310.80 437.40 307.66 437.77 306.53C438.15 305.40 437.94 304.84 437.76 304.44C437.58 304.05 437.02 303.80 436.57 303.90C436.12 304.00 435.29 304.52 434.76 305.14C434.23 305.76 433.40 307.08 433.03 308.04C432.66 309.00 432.34 310.51 432.29 311.55C432.23 312.58 432.37 314.04 432.68 314.94C432.98 315.85 433.66 317.07 434.33 317.59C434.99 318.12 436.21 318.47 437.09 318.45C437.98 318.43 439.27 318.01 440.21 317.45C441.15 316.90 442.88 315.16 443.36 314.76"/><path fill="none" stroke="#d1000d" stroke-width="2.0" stroke-linecap="round" stroke-linejoin="round" d="M443.81 311.61C444.52 310.48 447.81 305.55 448.59 304.10C449.29 302.81 449.10 302.40 449.03 301.95C448.96 301.50 448.58 301.12 448.15 301.11C447.73 301.10 446.79 301.41 446.19 301.89C445.59 302.38 444.66 303.47 444.14 304.36C443.62 305.25 442.93 306.79 442.74 307.83C442.55 308.86 442.67 310.29 442.89 311.24C443.12 312.20 443.59 313.62 444.24 314.19C444.89 314.77 446.13 315.19 447.22 315.07C448.30 314.96 450.54 313.93 451.45 313.41C452.35 312.89 452.98 311.88 453.25 311.61"/><path fill="none" stroke="#d1000d" stroke-width="2.0" stroke-linecap="round" stroke-linejoin="round" d="M454.60 291.82C454.58 291.63 454.15 290.37 454.47 290.54C454.78 290.71 455.60 291.21 456.70 292.98C457.80 294.75 461.02 300.69 461.79 302.34C462.26 303.34 462.00 303.70 461.84 303.99C461.69 304.28 461.51 304.33 460.77 304.28C460.01 304.23 457.61 303.70 456.72 303.66C455.83 303.63 455.27 303.79 454.83 304.04C454.39 304.28 453.72 304.62 453.77 305.29C453.82 305.97 454.53 307.93 455.14 308.53C455.76 309.12 456.81 309.34 457.88 309.26C458.94 309.18 461.11 308.47 462.24 308.01C463.37 307.55 464.92 306.48 465.39 306.21"/><path fill="none" stroke="#d1000d" stroke-width="2.0" stroke-linecap="round" stroke-linejoin="round" d="M472.13 296.32C471.72 296.19 470.02 295.43 469.40 295.42C468.78 295.42 468.30 295.82 468.01 296.29C467.72 296.75 467.50 297.87 467.47 298.52C467.44 299.17 467.57 300.04 467.83 300.61C468.08 301.18 468.70 301.98 469.20 302.33C469.69 302.69 470.56 302.99 471.14 302.98C471.71 302.97 472.52 302.66 473.04 302.28C473.57 301.91 474.33 301.10 474.65 300.48C474.97 299.85 475.16 299.35 475.18 298.12C475.21 296.89 474.88 293.15 474.83 292.27"/><path fill="none" stroke="#d1000d" stroke-width="2.0" stroke-linecap="round" stroke-linejoin="round" d="M478.88 291.82C478.95 292.43 478.99 294.79 479.33 295.89C479.67 297.00 480.78 298.71 481.15 299.19C481.39 299.52 481.60 299.47 481.75 299.09C482.19 298.00 483.55 293.30 484.10 291.91C484.65 290.52 485.03 290.26 485.43 289.84C485.84 289.42 486.17 288.70 486.79 289.14C487.41 289.58 489.00 292.26 489.55 292.79C490.01 293.23 490.01 293.10 490.50 292.69C491.31 292.00 494.11 288.89 494.97 288.20C495.65 287.67 495.91 287.94 496.26 288.10C496.61 288.26 497.06 288.82 497.30 289.27C497.54 289.71 497.66 290.64 497.86 291.09C498.07 291.54 498.41 292.10 498.66 292.27C498.92 292.45 499.43 292.27 499.56 292.27"/><path fill="none" stroke="#d1000d" stroke-width="2.0" stroke-linecap="round" stroke-linejoin="round" d="M512.60 288.68C512.60 288.54 512.60 287.91 512.60 287.78"/>
</svg>