<?xml version="1.0" encoding="UTF-8"?>
<!DOCTYPE svg PUBLIC "-//W3C//DTD SVG 1.1//EN" "http://www.w3.org/Graphics/SVG/1.1/DTD/svg11.dtd">
<svg  xmlns="http://www.w3.org/2000/svg" xmlns:xlink="http://www.w3.org/1999/xlink" viewport-fill="none" viewBox="0.0, 0.0, 980.0413818359375, 585.2718505859375" version="1.1" height="585.2718505859375" width="980.0413818359375">
<path fill="none" stroke="#004dc0" stroke-width="2.5" stroke-linecap="round" stroke-linejoin="round" d="M796.78 299.49C796.32 303.38 794.21 318.04 793.73 325.39C793.25 332.74 793.11 338.31 793.58 348.48C794.06 358.65 795.85 381.67 796.93 393.18C798.01 404.70 800.14 418.52 800.80 425.24C801.45 431.96 801.21 436.07 801.28 437.98"/><path fill="none" stroke="#004dc0" stroke-width="2.5" stroke-linecap="round" stroke-linejoin="round" d="M721.69 442.93C721.72 443.06 721.32 443.82 721.89 443.76C723.54 443.59 729.06 442.15 732.73 441.76C736.40 441.38 743.69 441.09 746.34 441.21C749.00 441.33 749.60 442.04 750.42 442.58C751.24 443.13 751.63 444.09 751.79 444.85C751.94 445.60 750.07 447.88 751.45 447.62C752.83 447.37 758.66 444.03 760.98 443.15C763.29 442.28 763.87 442.23 766.88 441.80C769.90 441.36 778.08 440.89 781.06 440.25C784.03 439.61 785.35 438.14 786.70 437.53C788.05 436.92 789.47 436.46 790.04 436.19C790.42 436.00 790.42 435.80 790.49 435.74"/><path fill="none" stroke="#004dc0" stroke-width="2.5" stroke-linecap="round" stroke-linejoin="round" d="M732.48 469.01C732.24 468.61 730.05 464.44 730.86 466.35C731.81 468.55 737.46 481.11 738.76 483.66C739.01 484.15 739.34 483.85 739.52 483.35C739.69 482.85 739.85 482.36 739.93 480.33C740.02 477.91 740.10 469.18 740.13 467.21"/><path fill="none" stroke="#004dc0" stroke-width="2.5" stroke-linecap="round" stroke-linejoin="round" d="M711.35 390.32C711.35 395.38 710.94 417.44 711.35 424.05C711.75 430.65 713.64 432.84 714.05 434.39"/><path fill="none" stroke="#004dc0" stroke-width="2.5" stroke-linecap="round" stroke-linejoin="round" d="M748.22 474.86C747.77 474.74 745.85 474.01 745.24 474.07C744.62 474.12 744.42 474.76 744.13 475.24C743.85 475.72 743.35 476.23 743.36 477.26C743.37 478.28 743.90 481.23 744.21 482.09C744.53 482.95 745.07 482.96 745.46 482.99C745.84 483.03 746.21 482.96 746.77 482.31C747.34 481.67 748.34 478.75 749.23 478.71C750.12 478.67 751.65 481.48 752.72 482.05C753.78 482.62 755.77 482.43 756.31 482.50"/><path fill="none" stroke="#004dc0" stroke-width="2.5" stroke-linecap="round" stroke-linejoin="round" d="M878.17 463.16C877.99 462.84 876.22 459.48 876.95 460.98C877.94 463.01 883.44 474.47 884.76 476.71C885.18 477.43 885.60 476.74 885.71 475.91C886.04 473.32 886.52 461.96 886.94 459.45C887.12 458.39 888.14 458.96 888.51 459.12C888.88 459.27 889.27 460.26 889.41 460.47"/><path fill="none" stroke="#ffd873" stroke-opacity="0.5" stroke-width="20.0" stroke-linecap="round" stroke-linejoin="round" d="M733.38 475.75C733.11 476.23 731.20 477.22 731.58 478.90C731.96 480.58 734.21 485.69 735.90 486.97C737.59 488.25 740.68 487.97 742.84 487.43C745.00 486.89 748.42 484.90 750.29 483.37C752.16 481.84 754.33 479.41 755.29 477.23C756.25 475.05 756.93 471.14 756.71 468.83C756.48 466.52 755.40 463.45 753.79 461.82C752.17 460.19 748.60 458.47 745.92 457.95C743.24 457.42 738.93 457.54 735.93 458.34C732.93 459.14 728.47 461.33 725.92 463.27C723.38 465.20 720.32 468.71 718.99 471.27C717.67 473.83 716.86 477.86 717.09 480.33C717.33 482.81 718.94 486.09 720.56 487.77C722.18 489.46 725.43 491.03 727.89 491.56C730.36 492.10 734.34 492.01 736.97 491.35C739.59 490.69 743.27 488.86 745.39 487.18C747.51 485.49 749.89 482.41 751.11 480.11C752.34 477.82 753.40 474.15 753.54 471.88C753.68 469.61 752.97 466.56 752.05 464.97C751.13 463.37 749.03 461.72 747.42 461.26C745.81 460.79 743.07 461.04 741.31 461.85C739.54 462.65 736.85 464.96 735.64 466.61C734.43 468.26 733.60 470.87 733.24 472.85C732.89 474.84 732.54 478.34 733.29 479.85C734.04 481.35 736.34 482.71 738.24 482.91C740.14 483.10 744.47 481.62 745.97 481.15C747.47 480.68 747.88 480.00 748.22 479.80"/><path fill="none" stroke="#004dc0" stroke-width="2.5" stroke-linecap="round" stroke-linejoin="round" d="M819.71 446.53C827.84 446.29 856.00 445.81 873.87 444.94C891.74 444.07 927.96 441.28 938.85 440.71C943.96 440.44 945.37 441.07 946.52 441.13"/><path fill="none" stroke="#004dc0" stroke-width="2.5" stroke-linecap="round" stroke-linejoin="round" d="M894.81 468.56C894.68 468.43 893.65 466.91 893.97 467.66C894.36 468.58 896.32 474.00 897.40 474.70C898.48 475.39 900.17 472.63 901.17 472.30C902.16 471.97 903.58 472.11 904.06 472.49C904.53 472.87 904.50 474.25 904.32 474.82C904.13 475.39 903.62 475.79 902.80 476.27C901.98 476.75 899.44 477.74 898.85 478.00"/><path fill="none" stroke="#000000" stroke-width="2.0" stroke-linecap="round" stroke-linejoin="round" d="M456.85 301.29C456.86 301.51 456.10 302.76 456.91 302.76C457.72 302.76 461.44 301.51 462.24 301.29"/><path fill="none" stroke="#000000" stroke-width="2.0" stroke-linecap="round" stroke-linejoin="round" d="M455.95 228.90C456.13 228.72 456.12 228.10 457.20 227.74C458.41 227.34 463.01 226.43 464.04 226.20"/><path fill="none" stroke="#1eb511" stroke-width="2.0" stroke-linecap="round" stroke-linejoin="round" d="M606.58 99.85C607.60 100.60 612.32 104.22 613.41 104.89C613.82 105.14 613.86 104.68 613.86 104.32C613.85 103.95 613.78 103.67 613.37 102.45C612.90 101.04 611.00 96.24 610.72 94.90C610.51 93.88 611.41 93.75 611.53 93.55"/><path fill="none" stroke="#98c2ff" stroke-opacity="0.5" stroke-width="20.0" stroke-linecap="round" stroke-linejoin="round" d="M891.66 459.12C889.93 458.95 882.60 457.65 880.13 457.97C877.65 458.30 876.36 460.02 875.15 461.27C873.93 462.51 872.68 464.80 872.04 466.28C871.39 467.75 870.72 469.72 870.86 471.10C871.00 472.49 872.05 474.39 872.97 475.51C873.89 476.63 875.48 477.88 876.96 478.59C878.44 479.30 880.93 479.97 882.81 480.24C884.69 480.51 887.51 480.54 889.47 480.38C891.43 480.22 894.15 479.74 895.86 479.17C897.58 478.60 899.71 477.47 900.92 476.56C902.14 475.66 903.36 474.25 903.96 473.13C904.55 472.01 904.94 470.31 904.87 469.13C904.79 467.94 904.19 466.33 903.46 465.24C902.72 464.15 901.25 462.70 899.96 461.86C898.68 461.02 896.54 459.98 894.87 459.62C893.21 459.26 890.59 459.16 888.87 459.47C887.15 459.78 884.77 460.70 883.42 461.72C882.07 462.73 880.53 464.74 879.88 466.24C879.23 467.74 878.88 470.13 879.10 471.71C879.31 473.30 880.32 475.59 881.32 476.82C882.32 478.06 884.30 479.38 885.78 479.95C887.27 480.53 889.61 480.82 891.21 480.68C892.81 480.54 895.07 479.85 896.46 479.03C897.85 478.20 899.59 476.44 900.48 475.19C901.37 473.95 902.08 472.09 902.39 470.72C902.69 469.35 902.85 467.22 902.52 466.04C902.18 464.87 901.09 463.41 900.14 462.91C899.18 462.41 897.22 462.47 896.15 462.72C895.09 462.96 893.48 464.24 893.01 464.51"/><path fill="none" stroke="#1eb511" stroke-width="2.0" stroke-linecap="round" stroke-linejoin="round" d="M601.18 115.13C601.49 114.60 602.89 112.46 603.23 111.57C603.57 110.69 603.46 109.89 603.44 109.24C603.42 108.59 603.31 107.66 603.11 107.23C602.90 106.81 602.43 106.43 602.07 106.39C601.70 106.34 601.06 106.55 600.68 106.93C600.29 107.31 599.74 108.19 599.51 108.94C599.29 109.69 599.10 111.08 599.18 111.93C599.26 112.78 599.58 113.99 600.02 114.62C600.45 115.25 601.36 115.89 602.07 116.15C602.79 116.42 603.93 116.66 604.80 116.39C605.67 116.12 607.12 115.09 607.86 114.37C608.60 113.64 609.45 112.23 609.73 111.54C610.01 110.84 609.73 110.01 609.73 109.74"/><path fill="none" stroke="#1eb511" stroke-width="2.0" stroke-linecap="round" stroke-linejoin="round" d="M549.92 161.90C549.62 162.14 547.99 163.33 547.88 163.53C547.77 163.74 548.46 163.80 549.17 163.28C551.41 161.66 557.89 156.80 562.84 152.73C567.79 148.66 577.72 140.14 582.18 136.14C586.64 132.14 592.41 127.57 592.57 126.06C592.72 124.54 584.49 126.27 583.22 126.03C582.06 125.82 583.69 124.78 584.07 124.48C584.45 124.19 585.17 124.08 585.76 124.06C586.35 124.05 587.30 124.13 587.99 124.38C588.68 124.63 589.71 125.10 590.34 125.73C590.96 126.37 591.74 127.18 592.16 128.62C592.57 130.07 592.95 134.36 593.09 135.37"/><path fill="none" stroke="#98c2ff" stroke-opacity="0.5" stroke-width="20.0" stroke-linecap="round" stroke-linejoin="round" d="M227.52 287.80C227.39 287.80 226.83 287.24 226.62 287.80C226.07 289.32 223.97 295.39 223.81 297.92C223.66 300.45 224.77 303.20 225.57 304.68C226.37 306.16 228.08 307.21 229.14 307.80C230.20 308.38 231.57 308.97 232.62 308.60C233.67 308.23 235.32 306.57 236.12 305.32C236.92 304.07 237.73 301.93 237.98 300.28C238.23 298.63 238.20 295.97 237.78 294.29C237.35 292.61 236.27 290.32 235.15 289.07C234.03 287.82 231.99 286.53 230.31 285.97C228.63 285.41 225.79 285.13 223.95 285.33C222.11 285.54 219.65 286.46 218.04 287.33C216.44 288.20 214.10 290.01 213.25 291.16C212.40 292.30 211.99 293.92 212.38 294.97C212.76 296.02 214.91 297.46 215.83 298.14C216.76 298.82 218.13 299.29 218.53 299.49"/><path fill="none" stroke="#ffd873" stroke-opacity="0.5" stroke-width="20.0" stroke-linecap="round" stroke-linejoin="round" d="M217.18 215.86C217.29 215.31 218.08 212.76 217.88 212.24C217.69 211.71 216.70 211.90 215.86 212.36C215.03 212.81 213.29 214.14 212.30 215.28C211.31 216.42 209.99 218.36 209.25 219.95C208.50 221.55 207.52 224.24 207.34 225.90C207.15 227.57 207.37 229.91 208.03 231.06C208.69 232.21 210.29 233.36 211.72 233.54C213.15 233.72 215.70 233.11 217.56 232.26C219.42 231.42 222.36 229.54 224.11 227.92C225.86 226.31 228.14 223.44 229.21 221.49C230.27 219.54 231.15 216.62 231.19 214.92C231.23 213.21 230.48 211.19 229.47 210.11C228.46 209.03 226.21 207.97 224.46 207.71C222.72 207.45 219.77 207.77 217.85 208.37C215.93 208.97 213.18 210.48 211.67 211.71C210.15 212.94 208.40 215.06 207.77 216.56C207.14 218.05 207.00 220.41 207.46 221.69C207.93 222.97 209.45 224.50 210.85 225.07C212.25 225.63 214.87 225.76 216.78 225.43C218.68 225.10 221.57 223.95 223.55 222.86C225.52 221.77 228.47 219.77 229.94 218.14C231.41 216.51 232.82 213.56 233.34 212.01C233.85 210.45 233.57 208.67 233.37 207.76C233.17 206.86 232.22 206.23 232.02 205.96"/><path fill="none" stroke="#1eb511" stroke-width="2.0" stroke-linecap="round" stroke-linejoin="round" d="M634.91 62.98C634.77 62.84 633.60 61.33 634.01 62.08C635.22 64.30 641.65 75.45 643.00 77.81"/><path fill="none" stroke="#1eb511" stroke-width="2.0" stroke-linecap="round" stroke-linejoin="round" d="M658.29 48.59C658.16 48.59 657.54 48.10 657.46 48.62C657.37 49.14 657.36 51.05 657.74 52.06C658.11 53.06 659.42 54.83 659.93 55.34C660.45 55.84 660.78 55.91 661.19 55.41C661.60 54.92 662.48 53.06 662.66 52.04C662.83 51.02 662.13 48.95 662.35 48.63C662.57 48.32 663.58 49.75 664.13 49.94C664.68 50.13 665.43 50.05 665.99 49.89C666.55 49.73 667.40 49.35 667.88 48.88C668.37 48.40 668.97 47.43 669.22 46.72C669.48 46.00 669.62 44.87 669.56 44.12C669.51 43.37 669.18 42.28 668.84 41.72C668.51 41.16 667.83 40.55 667.33 40.38C666.84 40.20 666.04 40.30 665.56 40.55C665.08 40.79 664.41 41.41 664.12 42.00C663.84 42.59 663.60 43.76 663.65 44.47C663.69 45.18 664.03 46.21 664.43 46.74C664.83 47.27 665.67 47.84 666.31 48.01C666.96 48.18 668.08 48.14 668.73 47.87C669.38 47.61 670.22 46.83 670.65 46.24C671.08 45.65 671.49 44.63 671.59 43.93C671.69 43.24 671.56 42.24 671.32 41.62C671.08 40.99 669.44 38.31 669.98 39.75C670.62 41.49 674.72 50.58 675.62 53.24C676.52 55.91 676.05 56.43 675.98 57.54C675.91 58.64 675.65 60.03 675.16 60.60C674.66 61.17 673.45 61.39 672.68 61.34C671.90 61.29 670.59 60.98 669.98 60.28C669.37 59.58 668.83 57.22 668.63 56.68"/><path fill="none" stroke="#1eb511" stroke-width="2.0" stroke-linecap="round" stroke-linejoin="round" d="M635.36 74.22C635.33 73.85 634.76 73.35 635.17 71.75C635.82 69.19 638.31 57.89 639.69 57.16C641.06 56.43 643.36 64.97 644.34 66.88C645.32 68.78 645.73 69.27 646.22 69.84C646.71 70.40 647.24 71.07 647.59 70.64C647.94 70.20 648.45 68.17 648.55 66.93C648.65 65.69 648.07 62.76 648.25 62.38C648.43 61.99 649.25 64.01 649.74 64.38C650.22 64.74 650.89 64.83 651.50 64.80C652.11 64.78 653.15 64.59 653.79 64.22C654.44 63.84 655.33 62.96 655.79 62.32C656.24 61.68 656.71 60.67 656.84 59.95C656.97 59.23 656.88 58.18 656.64 57.53C656.39 56.88 655.70 56.05 655.20 55.62C654.70 55.19 653.88 54.81 653.31 54.67C652.74 54.52 651.88 54.50 651.39 54.66C650.91 54.82 650.34 55.33 650.10 55.75C649.85 56.18 649.72 56.93 649.75 57.50C649.79 58.06 650.03 58.97 650.34 59.52C650.66 60.07 651.35 60.84 651.85 61.16C652.34 61.49 653.07 61.68 653.65 61.70C654.23 61.73 655.22 61.64 655.71 61.35C656.20 61.06 656.72 60.46 656.91 59.76C657.09 59.06 656.94 57.14 656.94 56.68"/><path fill="none" stroke="#1eb511" stroke-width="2.0" stroke-linecap="round" stroke-linejoin="round" d="M669.98 34.20C670.00 33.98 669.93 33.06 670.14 32.74C670.36 32.42 670.85 31.32 671.44 32.09C672.53 33.51 676.46 40.70 677.44 42.22C677.63 42.51 677.83 42.56 677.96 42.24C678.28 41.46 678.86 37.98 679.55 37.04C680.24 36.10 682.12 36.15 682.57 36.00"/><path fill="none" stroke="#1eb511" stroke-width="2.0" stroke-linecap="round" stroke-linejoin="round" d="M615.57 96.25C615.71 96.38 616.15 97.39 616.47 97.15C616.79 96.90 617.48 95.32 617.69 94.61C617.90 93.91 618.00 93.05 617.86 92.44C617.72 91.83 617.11 90.29 616.74 90.54C616.38 90.80 615.56 93.20 615.45 94.12C615.35 95.04 615.72 96.02 616.04 96.66C616.36 97.30 617.03 98.13 617.59 98.39C618.15 98.64 619.13 98.64 619.78 98.36C620.42 98.07 621.38 97.23 621.90 96.48C622.41 95.72 622.96 94.31 623.21 93.32C623.45 92.33 623.59 90.81 623.53 89.88C623.47 88.96 623.11 87.79 622.83 87.14C622.54 86.49 621.95 85.79 621.63 85.53C621.32 85.27 620.82 85.02 620.72 85.39C620.62 85.77 620.74 87.30 620.96 88.02C621.18 88.75 621.63 89.51 622.19 90.23C622.74 90.96 624.20 92.56 624.66 92.86C625.13 93.15 625.26 92.81 625.28 92.22C625.34 90.97 625.04 85.92 625.05 84.53C625.07 83.46 625.20 83.27 625.39 82.96C625.58 82.65 625.68 82.19 626.31 82.47C626.99 82.78 629.14 84.56 629.96 85.01C630.78 85.46 631.49 85.39 631.76 85.46"/><path fill="none" stroke="#1eb511" stroke-width="2.0" stroke-linecap="round" stroke-linejoin="round" d="M629.06 119.18C629.06 119.05 628.74 117.78 629.06 118.28C629.66 119.21 632.23 124.14 633.05 125.39C633.75 126.45 634.18 126.48 634.54 126.58C634.90 126.67 635.35 126.74 635.45 126.03C635.60 125.02 635.05 120.46 635.51 119.85C635.98 119.24 637.85 121.58 638.56 121.97C639.27 122.36 639.86 122.48 640.25 122.47C640.63 122.47 640.97 122.25 641.12 121.92C641.28 121.59 641.65 121.31 641.27 120.29C640.81 119.07 638.54 114.76 638.05 113.79"/><path fill="none" stroke="#1eb511" stroke-width="2.0" stroke-linecap="round" stroke-linejoin="round" d="M674.48 82.31C674.21 82.22 673.16 81.70 672.71 81.70C672.26 81.69 671.78 81.94 671.46 82.28C671.13 82.62 670.68 83.20 670.52 83.96C670.37 84.71 670.29 86.65 670.42 87.32C670.55 87.99 671.07 88.24 671.40 88.43C671.72 88.61 672.12 88.83 672.57 88.57C673.02 88.31 674.17 87.48 674.39 86.68C674.60 85.88 674.08 83.73 674.03 83.21"/><path fill="none" stroke="#1eb511" stroke-width="2.0" stroke-linecap="round" stroke-linejoin="round" d="M664.58 91.75C664.30 91.61 663.15 90.93 662.69 90.82C662.22 90.72 661.96 90.44 661.47 91.05C660.99 91.67 659.74 93.92 659.44 94.94C659.13 95.95 659.30 97.01 659.43 97.81C659.56 98.61 659.91 99.73 660.29 100.28C660.66 100.84 661.38 101.38 661.93 101.50C662.48 101.62 663.44 101.46 663.97 101.10C664.49 100.75 665.15 100.17 665.43 99.14C665.70 98.10 666.05 95.32 665.79 94.18C665.52 93.04 663.82 91.76 663.63 91.54C663.45 91.32 664.33 92.46 664.53 92.69C664.72 92.91 664.79 92.97 664.94 93.04C665.08 93.10 665.40 93.09 665.48 93.10"/><path fill="none" stroke="#1eb511" stroke-width="2.0" stroke-linecap="round" stroke-linejoin="round" d="M687.07 67.92C686.99 67.67 686.82 66.10 686.58 66.23C686.34 66.36 685.64 68.07 685.47 68.79C685.31 69.50 685.39 70.37 685.48 71.00C685.57 71.63 685.82 72.51 686.09 72.96C686.36 73.42 686.88 73.90 687.27 74.03C687.66 74.15 688.26 74.02 688.68 73.78C689.09 73.55 689.73 72.99 690.01 72.45C690.30 71.92 690.64 71.05 690.60 70.24C690.56 69.42 689.89 67.50 689.76 67.02"/><path fill="none" stroke="#1eb511" stroke-width="2.0" stroke-linecap="round" stroke-linejoin="round" d="M643.45 112.89C643.73 112.17 645.11 109.13 645.28 108.09C645.45 107.04 644.92 105.77 644.59 105.91C644.27 106.05 643.11 107.87 643.13 109.02C643.14 110.16 644.11 112.79 644.71 113.55C645.32 114.31 646.32 114.17 647.15 114.07C647.97 113.97 649.54 113.27 650.20 112.89C650.86 112.51 651.34 111.74 651.54 111.54"/><path fill="none" stroke="#1eb511" stroke-width="2.0" stroke-linecap="round" stroke-linejoin="round" d="M665.48 91.30C665.32 91.25 664.02 90.34 664.42 90.96C664.99 91.85 668.23 95.77 669.27 97.23C670.31 98.69 670.90 99.69 671.37 100.73C671.84 101.76 672.24 103.19 672.39 104.14C672.55 105.10 672.73 106.33 672.40 107.08C672.07 107.82 671.15 108.69 670.18 109.09C669.21 109.49 666.57 109.64 665.93 109.74"/><path fill="none" stroke="#1eb511" stroke-width="2.0" stroke-linecap="round" stroke-linejoin="round" d="M699.21 85.91C698.66 85.42 696.15 82.76 695.56 82.63C694.97 82.50 694.75 83.50 695.25 85.04C695.92 87.11 699.24 94.19 700.04 96.41C700.82 98.59 700.48 99.33 700.56 99.85"/><path fill="none" stroke="#1eb511" stroke-width="2.0" stroke-linecap="round" stroke-linejoin="round" d="M696.51 97.15C696.43 96.90 695.25 96.40 695.97 95.48C696.71 94.54 700.63 91.55 701.46 90.85"/><path fill="none" stroke="#1eb511" stroke-width="2.0" stroke-linecap="round" stroke-linejoin="round" d="M700.11 56.23C700.17 55.83 700.02 54.27 700.56 53.53C701.10 52.79 703.23 51.62 703.70 51.28"/><path fill="none" stroke="#1eb511" stroke-width="2.0" stroke-linecap="round" stroke-linejoin="round" d="M694.26 98.50C694.05 98.20 693.29 96.35 692.82 96.52C692.35 96.69 691.32 98.57 691.15 99.64C690.97 100.71 691.39 102.99 691.65 103.67C691.92 104.36 692.35 104.51 692.94 104.23C693.53 103.95 695.15 102.49 695.59 101.83C696.04 101.16 696.10 100.38 695.90 99.81C695.70 99.25 694.51 98.31 694.26 98.05"/><path fill="none" stroke="#1eb511" stroke-width="2.0" stroke-linecap="round" stroke-linejoin="round" d="M708.65 70.17C708.83 70.21 709.40 69.77 709.87 70.46C710.80 71.83 713.81 78.71 714.86 79.26C715.90 79.81 716.37 74.98 716.81 74.16C717.17 73.51 717.48 73.69 717.84 73.73C718.19 73.77 718.81 74.08 719.17 74.41C719.53 74.73 720.06 75.12 720.22 75.90C720.38 76.68 720.47 78.83 720.23 79.59C719.98 80.36 719.33 80.65 718.61 80.99C717.88 81.33 715.88 81.73 715.39 81.86"/><path fill="none" stroke="#1eb511" stroke-width="2.0" stroke-linecap="round" stroke-linejoin="round" d="M694.71 60.73C694.65 60.89 694.25 61.26 694.30 61.81C694.35 62.36 694.55 63.78 695.03 64.40C695.51 65.03 696.91 65.81 697.50 65.98C698.08 66.15 698.48 66.12 698.92 65.54C699.36 64.96 700.27 63.16 700.42 62.11C700.56 61.06 699.84 58.87 699.89 58.54C699.94 58.22 700.43 59.67 700.74 59.93C701.04 60.19 701.58 60.33 701.90 60.31C702.23 60.28 702.69 60.16 702.90 59.74C703.11 59.32 703.33 58.35 703.32 57.51C703.30 56.67 703.09 55.23 702.78 54.11C702.48 53.00 701.94 51.45 701.29 50.07C700.63 48.68 697.79 43.53 698.42 44.86C699.05 46.19 704.57 56.89 705.50 58.93C705.78 59.54 704.74 58.55 704.60 58.48"/><path fill="none" stroke="#1eb511" stroke-width="2.0" stroke-linecap="round" stroke-linejoin="round" d="M742.82 33.75C742.70 33.55 741.43 31.54 742.02 32.40C743.02 33.86 749.06 41.90 749.47 43.49C749.88 45.07 745.71 42.96 744.76 42.97C743.81 42.99 743.48 43.05 743.14 43.60C742.79 44.15 742.42 46.00 742.47 46.67C742.52 47.33 742.71 47.80 743.46 48.05C744.21 48.30 746.21 48.66 747.46 48.36C748.72 48.05 751.03 46.46 751.82 46.02C752.44 45.67 752.58 45.59 752.72 45.44C752.85 45.28 752.72 45.06 752.72 44.99"/><path fill="none" stroke="#1eb511" stroke-width="2.0" stroke-linecap="round" stroke-linejoin="round" d="M688.42 135.37C688.32 135.00 686.76 131.71 687.75 132.88C688.74 134.05 693.68 141.34 695.01 143.17C696.01 144.54 696.25 144.78 696.67 145.10C697.10 145.41 697.68 145.24 697.86 145.26"/><path fill="none" stroke="#1eb511" stroke-width="2.0" stroke-linecap="round" stroke-linejoin="round" d="M754.96 33.30C754.61 32.96 753.23 31.11 752.63 31.07C752.03 31.03 751.25 32.08 750.98 33.02C750.70 33.95 750.66 36.38 750.79 37.28C750.92 38.18 751.41 38.62 751.85 39.02C752.28 39.43 752.46 39.78 753.72 39.97C754.99 40.16 759.43 40.00 760.27 40.29C761.12 40.59 760.08 41.25 759.35 41.95C758.62 42.66 756.00 44.53 755.41 44.99"/><path fill="none" stroke="#1eb511" stroke-width="2.0" stroke-linecap="round" stroke-linejoin="round" d="M724.39 66.12C724.37 65.99 724.34 64.65 724.24 65.24C724.14 65.84 723.72 69.13 723.73 70.14C723.73 71.15 724.03 71.56 724.28 71.97C724.53 72.39 725.06 72.80 725.40 72.90C725.73 72.99 726.18 73.12 726.50 72.59C726.83 72.07 727.73 70.44 727.55 69.40C727.37 68.36 725.63 66.23 725.29 65.67"/><path fill="none" stroke="#1eb511" stroke-width="2.0" stroke-linecap="round" stroke-linejoin="round" d="M727.99 60.28C728.25 61.00 729.34 64.13 729.77 65.08C730.20 66.03 730.50 66.32 730.86 66.62C731.21 66.91 731.71 67.44 732.13 67.05C732.55 66.67 733.42 64.89 733.68 64.05C733.95 63.22 733.97 62.34 733.89 61.49C733.80 60.64 733.25 58.64 733.13 58.38C733.02 58.13 732.88 59.16 733.14 59.79C733.40 60.42 734.44 62.07 734.87 62.57C735.30 63.07 735.69 63.12 735.99 63.14C736.29 63.16 736.73 63.01 736.88 62.71C737.03 62.42 736.96 61.68 736.98 61.18C736.99 60.68 736.98 59.65 736.98 59.38"/><path fill="none" stroke="#1eb511" stroke-width="2.0" stroke-linecap="round" stroke-linejoin="round" d="M735.18 55.33C735.70 56.08 738.22 60.99 738.68 60.34C739.14 59.70 738.24 52.76 738.23 51.01C738.23 49.46 738.46 49.14 738.67 48.72C738.89 48.30 739.18 47.64 739.67 48.21C740.51 49.18 743.53 54.30 744.27 55.23C744.63 55.69 744.57 54.55 744.62 54.43"/><path fill="none" stroke="#1eb511" stroke-width="2.0" stroke-linecap="round" stroke-linejoin="round" d="M689.76 141.66C689.71 141.59 689.21 141.55 689.37 141.14C689.61 140.53 690.80 139.20 691.37 137.56C691.94 135.93 691.89 129.56 693.17 130.25C694.46 130.93 698.80 140.38 699.92 142.15C700.19 142.57 700.44 142.51 700.67 142.07C701.15 141.13 702.61 136.98 703.17 135.86C703.68 134.82 703.95 135.24 704.37 134.60C704.79 133.96 705.75 132.30 705.97 131.61C706.20 130.92 706.03 130.41 705.87 130.03C705.72 129.64 705.23 129.17 704.94 129.02C704.64 128.87 704.16 128.88 703.89 129.03C703.62 129.18 703.23 129.63 703.14 130.03C703.04 130.44 703.07 131.21 703.26 131.72C703.46 132.23 703.93 133.05 704.44 133.44C704.94 133.84 705.86 134.35 706.63 134.37C707.40 134.39 708.71 134.03 709.55 133.57C710.39 133.11 711.84 131.66 712.25 131.32"/><path fill="none" stroke="#1eb511" stroke-width="2.0" stroke-linecap="round" stroke-linejoin="round" d="M735.18 93.55C735.04 93.75 733.89 93.89 734.28 94.90C734.96 96.67 738.87 104.84 739.70 105.35C740.54 105.86 739.74 99.55 739.84 98.30C739.92 97.37 740.20 97.20 740.42 97.03C740.63 96.85 741.01 96.93 741.25 97.14C741.49 97.35 741.84 97.56 742.00 98.45C742.16 99.34 742.49 102.04 742.34 103.06C742.19 104.08 741.22 104.92 741.02 105.24"/><path fill="none" stroke="#1eb511" stroke-width="2.0" stroke-linecap="round" stroke-linejoin="round" d="M721.69 124.58C721.82 125.10 722.23 127.23 722.56 128.04C722.88 128.85 724.43 130.94 723.86 129.97C723.30 129.00 719.77 123.42 718.78 121.56C717.78 119.70 717.54 118.73 717.23 117.60C716.92 116.47 716.72 114.90 716.73 114.06C716.74 113.21 716.99 112.35 717.30 111.98C717.61 111.60 718.15 110.99 718.79 111.54C719.42 112.10 721.16 113.99 721.53 115.68C721.89 117.36 721.28 121.71 721.24 122.78"/><path fill="none" stroke="#1eb511" stroke-width="2.0" stroke-linecap="round" stroke-linejoin="round" d="M733.83 103.44C733.67 103.36 733.13 102.75 732.77 102.87C732.41 102.99 731.71 103.66 731.42 104.23C731.13 104.81 730.91 105.93 730.83 106.69C730.75 107.44 730.71 108.58 730.89 109.27C731.06 109.95 731.56 110.90 731.99 111.27C732.42 111.65 733.25 111.83 733.74 111.78C734.23 111.74 734.91 111.43 735.25 110.97C735.58 110.50 735.89 109.44 735.97 108.67C736.05 107.91 736.05 106.63 735.79 105.84C735.52 105.04 734.91 104.07 734.21 103.38C733.52 102.68 731.59 101.52 731.13 101.20"/><path fill="none" stroke="#1eb511" stroke-width="2.0" stroke-linecap="round" stroke-linejoin="round" d="M727.54 111.54C727.81 112.30 729.39 116.21 729.33 116.65C729.28 117.09 727.79 115.59 727.17 114.48C726.55 113.36 725.48 110.39 725.18 109.20C724.87 108.01 724.98 107.25 725.13 106.53C725.28 105.80 725.89 104.74 726.19 104.34C726.48 103.95 726.95 103.96 727.09 103.89"/><path fill="none" stroke="#1eb511" stroke-width="2.0" stroke-linecap="round" stroke-linejoin="round" d="M745.07 92.20C744.75 92.08 743.40 91.06 742.93 91.41C742.47 91.76 741.93 93.38 741.96 94.53C741.99 95.68 742.76 98.29 743.11 99.08C743.46 99.88 743.91 99.83 744.28 99.84C744.65 99.85 745.25 99.57 745.59 99.16C745.92 98.75 746.34 98.05 746.49 97.12C746.64 96.19 746.39 93.22 746.56 92.97C746.74 92.72 747.27 94.93 747.63 95.47C747.99 96.00 748.54 96.40 748.97 96.56C749.40 96.72 750.16 96.75 750.51 96.52C750.86 96.28 751.24 95.72 751.30 94.98C751.36 94.24 751.19 92.78 750.90 91.57C750.60 90.37 750.24 89.33 749.32 86.96C748.40 84.59 744.63 75.35 744.76 75.78C744.90 76.22 749.24 88.64 750.19 89.85C751.15 91.07 750.86 85.00 751.13 83.88C751.40 82.75 751.69 82.62 751.99 82.36C752.29 82.10 752.79 82.05 753.10 82.16C753.41 82.27 753.81 82.33 754.06 83.08C754.30 83.83 754.88 86.07 754.75 87.17C754.61 88.26 753.47 89.92 753.17 90.40C753.01 90.66 752.78 90.40 752.72 90.40"/><path fill="none" stroke="#1eb511" stroke-width="2.0" stroke-linecap="round" stroke-linejoin="round" d="M753.62 78.71C753.62 78.65 753.62 78.33 753.62 78.26"/><path fill="none" stroke="#1eb511" stroke-width="2.0" stroke-linecap="round" stroke-linejoin="round" d="M754.51 70.62C754.74 70.72 755.47 70.34 756.05 71.30C757.09 73.02 760.44 80.39 761.42 82.11C761.87 82.89 762.43 82.80 762.61 82.76C762.79 82.72 762.61 82.00 762.61 81.86"/><path fill="none" stroke="#1eb511" stroke-width="2.0" stroke-linecap="round" stroke-linejoin="round" d="M760.81 71.07C760.74 70.93 760.43 70.30 760.36 70.17"/><path fill="none" stroke="#1eb511" stroke-width="2.0" stroke-linecap="round" stroke-linejoin="round" d="M761.26 62.53C761.48 62.63 762.09 62.34 762.71 63.20C763.41 64.18 765.29 67.47 765.95 69.06C766.60 70.65 766.97 73.00 767.06 73.81C767.12 74.34 766.77 74.39 766.57 74.44C766.37 74.49 766.02 74.47 765.74 74.13C765.47 73.78 764.84 72.59 764.72 72.12C764.60 71.64 764.63 71.68 764.94 70.95C765.58 69.44 768.06 62.53 768.98 62.06C769.90 61.60 770.47 66.86 771.04 67.86C771.62 68.85 772.27 68.74 772.79 68.69C773.32 68.65 774.16 68.10 774.55 67.55C774.94 67.00 775.30 65.89 775.38 65.03C775.47 64.16 775.38 62.72 775.14 61.78C774.90 60.85 774.32 59.61 773.78 58.79C773.25 57.97 770.91 55.07 771.58 56.35C772.25 57.62 776.48 63.74 778.26 67.29C780.04 70.84 782.70 77.40 783.45 80.00C784.20 82.60 783.62 83.54 783.26 84.62C782.90 85.71 781.85 86.66 781.04 87.26C780.24 87.85 778.37 88.40 777.90 88.61"/><path fill="none" stroke="#1eb511" stroke-width="2.0" stroke-linecap="round" stroke-linejoin="round" d="M761.71 74.22C761.71 74.08 761.57 72.91 761.71 73.32C761.84 73.72 762.47 76.37 762.61 76.91"/><path fill="none" stroke="#1eb511" stroke-width="2.0" stroke-linecap="round" stroke-linejoin="round" d="M755.41 80.06C755.73 80.37 757.03 81.40 757.50 82.15C757.97 82.89 758.40 84.58 758.56 85.01"/><path fill="none" stroke="#1eb511" stroke-width="2.0" stroke-linecap="round" stroke-linejoin="round" d="M768.90 108.84C769.31 109.95 771.52 116.15 771.63 116.22C771.73 116.28 769.88 110.95 769.61 109.28C769.34 107.60 769.62 105.63 769.84 105.03C770.06 104.42 770.65 104.94 771.08 105.22C771.51 105.50 772.01 105.94 772.69 106.92C773.37 107.90 775.24 111.93 775.62 111.73C776.00 111.53 775.26 106.86 775.21 105.61C775.16 104.36 775.21 103.90 775.30 103.41C775.38 102.93 775.57 102.53 775.78 102.38C775.98 102.23 776.16 102.10 776.66 102.41C777.18 102.73 778.64 104.13 779.25 104.52C779.85 104.90 780.27 104.99 780.67 104.97C781.07 104.95 781.56 105.11 781.92 104.37C782.27 103.62 783.01 101.33 783.00 99.98C783.00 98.62 782.19 96.11 781.88 95.34C781.62 94.67 781.19 94.74 780.94 94.82C780.69 94.89 780.32 95.02 780.23 95.84C780.12 96.79 780.09 99.95 780.26 101.10C780.43 102.26 780.92 103.02 781.35 103.56C781.78 104.11 782.55 104.62 783.15 104.71C783.75 104.79 784.68 104.58 785.33 104.13C785.98 103.68 786.94 102.62 787.48 101.74C788.02 100.86 788.66 99.31 788.93 98.25C789.20 97.18 789.32 95.65 789.28 94.64C789.24 93.64 788.93 92.28 788.66 91.54C788.39 90.81 787.99 90.05 787.48 89.73C786.97 89.41 785.58 89.15 785.26 89.42C784.94 89.69 785.12 91.05 785.35 91.55C785.57 92.04 785.70 92.11 786.76 92.71C788.14 93.49 793.47 95.96 794.57 96.76C795.30 97.30 794.49 97.65 794.08 98.05C793.67 98.44 792.17 99.19 791.84 99.40"/><path fill="none" stroke="#1eb511" stroke-width="2.0" stroke-linecap="round" stroke-linejoin="round" d="M740.13 124.58C740.75 126.84 743.82 138.12 744.31 139.66C744.79 141.21 743.43 136.20 743.38 134.88C743.33 133.56 743.75 131.44 743.98 130.83C744.21 130.24 744.62 130.58 744.93 130.82C745.24 131.07 745.76 131.42 746.08 132.48C746.40 133.54 747.00 136.80 747.05 137.90C747.09 139.01 746.75 139.44 746.39 139.87C746.02 140.29 744.89 140.63 744.62 140.76"/><path fill="none" stroke="#1eb511" stroke-width="2.0" stroke-linecap="round" stroke-linejoin="round" d="M764.86 115.13C764.59 114.66 763.58 112.07 763.06 111.99C762.54 111.90 761.72 113.73 761.39 114.58C761.06 115.42 760.73 116.44 760.88 117.61C761.03 118.79 761.92 121.69 762.38 122.43C762.83 123.17 763.49 122.77 763.90 122.58C764.30 122.39 764.80 121.77 765.08 121.17C765.36 120.57 765.64 119.45 765.77 118.57C765.89 117.70 766.19 116.57 765.91 115.32C765.64 114.06 764.25 110.96 763.96 110.19"/><path fill="none" stroke="#1eb511" stroke-width="2.0" stroke-linecap="round" stroke-linejoin="round" d="M748.67 133.12C748.94 132.16 750.28 128.28 750.46 126.70C750.64 125.11 750.08 123.21 749.85 122.57C749.65 122.00 749.22 121.91 748.95 122.45C748.63 123.11 747.68 125.45 747.71 126.97C747.74 128.49 748.67 131.53 749.16 132.60C749.64 133.67 750.35 133.91 750.95 134.12C751.55 134.33 752.50 134.44 753.17 134.02C753.84 133.60 755.08 131.73 755.41 131.32"/><path fill="none" stroke="#1eb511" stroke-width="2.0" stroke-linecap="round" stroke-linejoin="round" d="M802.63 70.62C802.40 70.38 801.49 69.27 801.09 69.02C800.69 68.77 800.38 68.55 799.97 68.95C799.55 69.34 798.49 71.00 798.33 71.65C798.16 72.29 798.57 72.86 798.87 73.25C799.17 73.63 799.27 73.80 800.32 74.19C801.37 74.59 805.14 75.25 805.88 75.87C806.61 76.48 805.79 77.72 805.23 78.28C804.68 78.84 802.64 79.41 802.18 79.61"/><path fill="none" stroke="#1eb511" stroke-width="2.0" stroke-linecap="round" stroke-linejoin="round" d="M758.56 116.93C758.34 116.97 757.43 116.78 757.09 117.16C756.75 117.55 756.35 118.25 756.31 119.51C756.27 120.76 756.56 124.33 756.82 125.53C757.07 126.73 757.62 127.15 758.03 127.53C758.44 127.91 759.08 128.21 759.55 128.05C760.02 127.89 760.50 127.74 761.16 126.47C761.82 125.21 763.54 120.66 763.96 119.63"/><path fill="none" stroke="#1eb511" stroke-width="2.0" stroke-linecap="round" stroke-linejoin="round" d="M829.61 43.64C830.07 45.13 832.33 52.95 832.71 53.56C833.09 54.18 831.98 49.30 832.13 47.76C832.28 46.23 833.25 44.14 833.69 43.32C834.12 42.50 834.80 42.45 835.00 42.29"/><path fill="none" stroke="#1eb511" stroke-width="2.0" stroke-linecap="round" stroke-linejoin="round" d="M805.33 117.38C805.57 117.93 806.38 120.06 806.96 121.04C807.54 122.01 809.10 124.31 809.20 123.86C809.31 123.42 807.88 119.50 807.66 118.08C807.44 116.65 807.40 114.77 807.73 114.36C808.06 113.96 809.09 114.71 809.86 115.38C810.63 116.05 812.43 119.53 812.85 118.85C813.27 118.17 812.59 112.19 812.66 110.84C812.70 110.04 812.55 109.52 813.29 109.82C814.22 110.20 817.99 112.81 818.81 113.34"/><path fill="none" stroke="#1eb511" stroke-width="2.0" stroke-linecap="round" stroke-linejoin="round" d="M823.76 55.78C824.06 54.95 825.59 51.39 825.73 50.22C825.87 49.05 825.16 47.84 824.68 47.99C824.20 48.14 822.90 50.34 822.52 51.22C822.14 52.09 822.12 53.08 822.15 53.83C822.18 54.57 822.44 55.61 822.71 56.18C822.97 56.76 823.50 57.37 823.94 57.64C824.38 57.90 825.09 58.08 825.63 57.96C826.18 57.83 826.98 57.64 827.58 56.78C828.17 55.91 829.30 52.87 829.61 52.18"/><path fill="none" stroke="#1eb511" stroke-width="2.0" stroke-linecap="round" stroke-linejoin="round" d="M817.92 62.98C818.33 64.49 820.97 73.05 820.67 73.09C820.37 73.13 816.80 65.33 815.92 63.22C815.04 61.12 814.95 60.16 814.79 59.06C814.62 57.96 814.66 56.65 814.84 55.92C815.02 55.18 815.54 54.43 815.98 54.16C816.43 53.89 817.29 53.91 817.83 54.11C818.37 54.32 819.18 54.99 819.60 55.55C820.02 56.10 820.42 57.08 820.63 57.83C820.83 58.58 821.02 59.77 820.95 60.55C820.89 61.32 820.52 62.44 820.20 63.01C819.88 63.57 819.02 64.13 818.81 64.32"/><path fill="none" stroke="#1eb511" stroke-width="2.0" stroke-linecap="round" stroke-linejoin="round" d="M805.77 64.32C806.10 65.16 807.30 68.62 807.96 69.88C808.62 71.14 809.72 72.42 810.18 72.72C810.64 73.02 810.85 72.37 811.04 71.89C811.24 71.42 811.55 70.92 811.47 69.54C811.39 68.16 810.43 63.20 810.54 62.69C810.64 62.19 811.64 65.39 812.16 66.19C812.68 66.99 813.41 67.66 814.00 68.05C814.59 68.45 815.66 68.77 816.12 68.82C816.57 68.87 816.88 68.44 817.02 68.37"/><path fill="none" stroke="#1eb511" stroke-width="2.0" stroke-linecap="round" stroke-linejoin="round" d="M802.63 121.43C801.98 121.09 799.18 119.06 798.29 119.18C797.39 119.30 796.75 121.28 796.65 122.25C796.55 123.22 796.65 124.86 797.64 125.64C798.64 126.43 802.16 126.96 803.27 127.48C804.39 128.01 805.17 128.55 805.07 129.13C804.97 129.70 803.13 130.99 802.63 131.32C802.13 131.65 801.86 131.32 801.73 131.32"/><path fill="none" stroke="#a4a4a4" stroke-width="2.0" stroke-linecap="round" stroke-linejoin="round" d="M203.69 479.80C204.97 479.19 210.95 476.36 212.24 475.75"/><path fill="none" stroke="#1eb511" stroke-width="2.0" stroke-linecap="round" stroke-linejoin="round" d="M823.31 103.44C823.01 103.26 821.76 102.27 821.29 102.19C820.83 102.12 820.51 102.13 820.20 102.96C819.88 103.81 819.15 106.53 819.17 107.81C819.20 109.08 820.01 110.96 820.35 111.48C820.69 112.00 821.13 111.55 821.45 111.27C821.76 110.99 822.09 110.70 822.46 109.61C822.83 108.52 823.25 104.68 823.90 103.97C824.54 103.27 826.08 104.83 826.76 104.91C827.45 105.00 828.04 104.89 828.49 104.54C828.95 104.19 829.55 103.37 829.80 102.60C830.05 101.82 830.24 100.46 830.17 99.36C830.10 98.26 829.72 96.47 829.34 95.26C828.95 94.06 828.16 92.30 827.61 91.31C827.06 90.33 826.17 89.22 825.65 88.70C825.13 88.17 824.44 87.77 824.14 87.82C823.84 87.87 823.65 88.42 823.63 89.02C823.61 89.62 823.77 90.89 824.01 91.84C824.24 92.78 824.47 94.01 825.17 95.34C825.88 96.67 827.86 99.83 828.68 100.70C829.50 101.56 830.11 101.25 830.64 101.09C831.17 100.93 831.86 100.33 832.22 99.61C832.58 98.90 832.91 97.44 833.03 96.32C833.15 95.20 833.17 93.45 833.02 92.15C832.88 90.85 832.58 89.18 832.05 87.65C831.53 86.13 829.98 82.81 829.54 81.96C829.40 81.70 828.98 81.70 829.09 81.98C829.38 82.78 830.44 85.53 831.49 87.26C832.55 88.99 835.13 92.39 836.13 93.52C837.14 94.64 837.68 94.63 838.18 94.77C838.69 94.91 839.17 94.70 839.50 94.45C839.83 94.20 840.26 93.30 840.40 93.10"/><path fill="none" stroke="#a4a4a4" stroke-width="2.0" stroke-linecap="round" stroke-linejoin="round" d="M204.14 469.01C203.73 469.12 200.67 470.04 201.37 469.75C202.06 469.47 207.11 467.58 208.78 467.10C210.46 466.62 212.14 466.39 212.52 466.54C212.90 466.69 211.51 467.88 211.34 468.11"/><path fill="none" stroke="#a4a4a4" stroke-width="2.0" stroke-linecap="round" stroke-linejoin="round" d="M205.49 398.41C205.31 398.36 203.83 398.38 204.27 398.03C204.71 397.68 207.55 396.37 208.42 396.08C209.28 395.79 209.71 395.98 210.05 396.08C210.39 396.19 210.64 396.41 210.68 396.78C210.72 397.15 210.88 397.50 210.29 398.55C209.46 400.03 205.85 405.42 205.13 406.68C204.97 406.94 205.19 407.01 205.49 406.96C206.89 406.73 213.13 405.43 214.48 405.16"/><path fill="none" stroke="#a4a4a4" stroke-width="2.0" stroke-linecap="round" stroke-linejoin="round" d="M213.13 467.66C212.93 467.66 212.20 467.46 211.79 467.66C211.37 467.86 211.11 467.93 210.37 469.01C209.36 470.49 205.84 476.27 205.04 477.55"/><path fill="none" stroke="#a4a4a4" stroke-width="2.0" stroke-linecap="round" stroke-linejoin="round" d="M211.79 390.32C211.69 390.27 210.62 390.03 211.12 389.97C211.66 389.90 214.74 389.89 215.38 389.87"/><path fill="none" stroke="#a4a4a4" stroke-width="2.0" stroke-linecap="round" stroke-linejoin="round" d="M223.03 378.63C223.23 380.05 224.17 386.66 224.38 388.07"/><path fill="none" stroke="#79eb70" stroke-opacity="0.5" stroke-width="16.0" stroke-linecap="round" stroke-linejoin="round" d="M487.87 370.09C487.68 372.95 486.84 382.95 486.61 389.19C486.37 395.43 486.27 399.04 486.30 411.68C486.32 424.32 486.51 460.84 486.76 473.45C487.01 486.07 487.74 492.27 487.97 495.81C488.03 496.66 488.05 496.74 488.29 497.06C488.53 497.37 488.53 497.84 489.56 497.93C492.98 498.25 500.68 499.00 511.11 499.17C521.55 499.35 546.73 498.48 559.10 499.10C571.48 499.72 586.54 502.57 593.64 503.31C600.75 504.05 603.85 503.94 606.46 504.03C609.08 504.13 608.78 503.97 611.08 503.93C613.38 503.88 619.67 504.20 621.78 503.74C623.90 503.29 624.30 502.04 625.19 500.89C626.09 499.73 627.27 499.19 627.77 496.05C628.26 492.91 628.70 489.03 628.51 479.96C628.32 470.89 626.86 443.80 626.48 435.60C626.15 428.76 626.35 430.80 625.93 425.34C625.51 419.88 624.71 407.03 623.68 399.22C622.65 391.40 619.90 377.28 619.04 373.23C618.84 372.26 618.97 372.19 617.99 372.19C615.78 372.19 607.13 373.14 604.33 373.23C601.53 373.32 602.67 372.97 599.31 372.79C595.41 372.57 586.67 371.84 578.33 371.79C569.99 371.75 551.16 372.18 543.71 372.48C536.25 372.77 533.29 373.18 528.63 373.74C523.98 374.31 516.56 375.84 512.66 376.22C508.76 376.60 504.24 376.27 502.64 376.28C502.20 376.28 502.42 376.32 501.97 376.29C500.30 376.16 493.70 375.49 491.49 375.46C489.28 375.43 487.59 375.88 487.21 376.07C486.84 376.27 487.99 376.66 489.00 376.75C490.01 376.84 490.66 376.98 493.95 376.68C497.47 376.35 509.16 374.90 512.42 374.58C514.55 374.37 514.86 374.52 515.63 374.55C516.40 374.58 517.23 374.62 517.53 374.79C517.82 374.97 517.96 375.23 517.58 375.72C515.66 378.22 508.32 386.16 504.71 391.45C501.11 396.73 493.29 410.95 493.54 410.94C493.79 410.94 504.11 394.84 506.39 391.42C507.87 389.19 508.27 388.61 508.69 388.14C508.92 387.88 509.32 387.97 509.18 388.28C508.44 390.04 505.23 396.77 503.73 399.87C502.24 402.96 500.50 406.27 499.21 408.94C497.93 411.61 496.03 415.52 495.17 417.66C494.30 419.80 493.50 422.32 493.47 423.19C493.44 424.05 494.21 424.10 494.94 423.43C495.83 422.60 497.82 420.07 499.42 417.70C501.01 415.32 503.79 410.79 505.58 407.57C507.37 404.35 509.92 399.32 511.37 396.20C512.81 393.08 514.47 388.97 515.21 386.80C515.94 384.62 516.36 382.56 516.28 381.69C516.21 380.82 515.46 380.64 514.71 380.98C513.95 381.31 513.27 381.66 511.24 383.90C508.88 386.52 501.21 395.80 498.99 398.39C497.34 400.30 496.99 400.71 496.41 401.15C495.82 401.59 495.17 402.21 495.07 401.32C494.85 399.24 494.98 389.78 494.91 387.35C494.87 385.84 494.77 385.42 494.63 385.11C494.49 384.80 494.16 384.88 493.98 385.29C493.73 385.84 493.26 386.36 492.96 388.75C492.56 391.84 491.53 400.24 491.35 405.90C491.18 411.56 491.46 422.71 491.79 426.50C492.07 429.80 492.76 430.75 493.53 431.16C494.31 431.56 495.65 430.75 496.97 429.20C498.29 427.65 499.52 425.81 502.31 420.84C505.10 415.86 512.33 401.78 515.57 396.01C518.81 390.24 522.67 384.13 523.94 382.37C524.68 381.34 524.37 383.04 524.04 384.26C523.62 385.79 523.21 387.09 521.17 392.61C517.56 402.41 503.05 440.89 499.97 449.59C499.70 450.34 500.29 451.28 500.67 450.57C506.86 439.17 540.52 374.28 541.23 373.56C541.94 372.84 511.97 432.24 505.39 445.76C499.67 457.53 499.01 459.79 497.39 463.69C495.77 467.59 494.53 471.25 494.62 471.76C494.71 472.27 496.06 470.40 498.00 467.07C503.23 458.14 523.38 422.43 529.46 412.22C534.94 403.03 536.42 401.84 538.54 398.99C540.67 396.14 542.96 393.57 543.62 393.23C544.29 392.90 543.97 394.59 542.97 396.76C541.85 399.21 538.64 404.84 536.14 409.58C533.64 414.32 529.50 422.05 526.29 428.34C523.09 434.63 517.52 445.48 514.76 451.53C512.00 457.58 508.85 465.27 507.92 468.66C506.99 472.04 507.25 474.67 508.55 474.12C509.84 473.57 512.95 469.95 516.56 465.01C520.18 460.08 526.12 451.73 532.64 441.22C539.15 430.71 555.35 403.06 559.99 394.94C562.83 389.97 564.02 387.31 563.55 387.12C563.09 386.94 560.68 388.73 556.89 393.69C551.67 400.53 534.89 423.89 528.75 432.73C522.61 441.58 519.76 445.88 515.94 452.68C512.13 459.48 505.06 474.27 503.30 478.05C503.05 478.59 503.88 478.37 504.18 477.85C504.95 476.53 505.80 475.08 508.45 469.26C512.64 460.02 527.79 426.20 532.12 416.28C535.90 407.63 536.15 406.48 537.32 403.12C538.49 399.76 539.85 395.34 539.91 393.85C539.96 392.37 538.97 392.35 537.71 393.21C536.35 394.12 533.13 396.99 530.87 399.94C528.61 402.89 525.50 407.69 522.64 412.86C519.79 418.03 514.81 427.83 511.84 434.42C508.87 441.00 505.26 450.00 502.85 456.75C500.44 463.51 497.55 473.46 495.78 479.45C494.01 485.44 491.73 493.21 491.03 496.68C490.34 500.14 490.63 502.23 491.15 502.57C491.67 502.91 492.86 501.79 494.51 498.93C501.08 487.51 524.19 445.11 534.95 426.47C545.71 407.84 561.54 382.65 566.26 374.70C566.68 373.99 566.93 372.82 566.41 373.46C565.06 375.11 559.73 381.99 557.28 385.69C554.84 389.38 552.19 394.25 550.13 398.08C548.06 401.90 546.52 404.39 543.51 411.19C540.51 418.00 532.83 435.33 530.08 443.43C527.34 451.52 525.07 462.46 525.21 465.17C525.34 467.87 528.10 464.46 530.97 461.48C533.83 458.50 540.13 450.93 544.33 445.30C548.53 439.68 554.84 430.34 558.98 423.96C563.12 417.59 569.86 406.59 571.94 402.82C573.27 400.43 574.14 397.79 572.86 398.82C571.57 399.86 569.00 401.91 563.37 409.73C557.18 418.33 537.91 446.52 531.59 456.14C525.26 465.76 523.22 470.07 521.19 473.87C519.15 477.68 518.16 480.58 518.03 481.52C517.90 482.45 519.14 481.47 520.32 480.12C521.65 478.60 522.89 477.48 526.87 471.38C531.28 464.64 544.27 443.79 549.67 435.18C555.07 426.57 559.56 419.51 562.89 413.99C566.22 408.46 569.89 402.10 571.87 398.33C573.86 394.56 575.48 391.04 576.12 388.86C576.77 386.69 576.87 384.59 576.16 383.83C575.46 383.08 573.04 383.68 571.43 383.83C569.82 383.99 568.99 383.93 565.41 384.87C561.83 385.81 550.66 389.31 547.56 390.08C545.74 390.54 545.51 389.86 544.74 390.01C543.97 390.15 543.28 390.23 542.45 391.03C541.61 391.83 540.93 392.19 539.19 395.33C537.20 398.91 532.21 408.18 529.20 414.88C526.19 421.58 520.97 434.73 519.12 439.99C517.28 445.25 517.17 447.61 516.89 449.98C516.61 452.35 516.51 454.98 517.25 455.78C517.99 456.57 519.74 456.43 521.81 455.29C523.87 454.15 527.96 451.06 531.04 448.18C534.11 445.29 536.74 442.61 542.32 436.04C547.90 429.47 562.29 411.99 568.23 404.36C574.18 396.73 581.06 386.95 581.96 385.17C582.87 383.39 578.71 386.99 574.25 392.50C568.99 398.99 553.24 419.81 546.92 428.45C540.60 437.08 536.36 443.59 532.11 450.08C527.85 456.58 521.70 466.49 518.56 471.76C515.42 477.03 512.71 482.19 511.17 485.21C509.64 488.24 508.26 491.17 508.31 491.93C508.37 492.69 509.74 491.88 511.53 490.27C513.44 488.55 514.92 487.10 521.03 480.46C527.14 473.82 545.21 453.89 552.26 446.00C559.32 438.11 563.58 433.24 568.06 427.86C572.55 422.47 578.71 414.66 582.18 410.09C585.66 405.52 589.26 400.42 591.24 397.38C593.21 394.34 594.37 391.79 595.34 389.82C596.32 387.85 597.34 385.56 597.73 384.22C598.12 382.87 598.06 381.37 597.94 380.84C597.83 380.31 597.42 380.45 596.97 380.68C596.51 380.90 596.07 381.02 594.91 382.36C592.93 384.66 588.93 388.99 583.79 395.97C578.65 402.95 565.98 421.06 560.65 428.88C555.32 436.71 551.60 442.55 548.27 448.11C544.94 453.67 540.58 461.58 538.43 465.95C536.28 470.33 534.54 474.76 533.92 477.30C533.29 479.85 533.45 482.37 534.28 482.93C535.11 483.48 537.49 482.42 539.44 481.03C541.38 479.63 544.50 476.58 547.25 473.61C549.99 470.63 551.12 469.77 557.74 461.18C564.87 451.95 587.99 421.07 594.73 412.07C600.11 404.86 600.77 403.86 602.64 401.14C604.51 398.42 606.35 395.45 607.18 393.95C608.00 392.46 609.19 391.26 608.15 391.17C607.12 391.07 602.03 392.56 600.26 393.35C598.50 394.13 598.08 394.76 596.39 396.41C594.70 398.07 593.53 398.79 589.00 404.39C584.47 409.98 571.72 426.31 566.16 433.71C560.60 441.11 556.85 446.45 551.95 453.71C547.05 460.97 531.27 484.54 533.50 482.11C535.73 479.68 558.16 448.84 566.82 437.53C575.49 426.22 586.32 412.84 591.27 406.70C596.21 400.56 597.40 399.59 599.80 396.58C602.20 393.56 606.03 388.58 607.25 386.59C608.41 384.71 607.99 384.15 607.93 383.35C607.88 382.54 607.52 381.75 606.92 381.22C606.31 380.70 604.99 380.16 603.87 379.84C602.74 379.53 601.88 379.01 599.42 379.11C596.95 379.21 595.15 378.61 587.44 380.53C579.73 382.45 554.41 390.13 548.01 391.92C545.90 392.51 545.54 392.46 544.77 392.46C544.01 392.47 543.34 392.24 542.90 391.96C542.47 391.68 542.08 391.12 541.89 390.61C541.69 390.10 541.17 389.87 541.59 388.55C542.05 387.09 544.28 381.81 544.95 380.87C545.61 379.93 545.96 381.12 546.04 382.27C546.12 383.43 546.07 385.66 545.47 388.55C544.86 391.44 544.71 392.99 542.01 401.53C538.41 412.92 525.04 453.06 521.46 464.45C518.77 473.00 518.78 474.63 518.13 477.47C517.47 480.32 516.92 482.23 517.06 483.43C517.20 484.63 518.05 485.58 519.06 485.47C520.08 485.35 521.72 484.24 523.83 482.66C525.94 481.09 527.19 480.40 533.12 474.96C539.21 469.39 557.07 452.58 564.43 445.50C571.79 438.41 576.20 434.08 582.18 427.73C588.15 421.39 600.05 408.04 604.27 403.18C608.49 398.33 608.51 398.02 610.31 395.35C612.12 392.68 617.74 384.02 616.32 385.37C614.90 386.73 606.64 396.74 600.88 404.37C595.12 411.99 582.88 429.20 577.94 436.23C573.00 443.27 571.46 445.68 567.96 451.26C564.45 456.83 557.23 468.34 554.56 473.43C551.89 478.52 550.83 482.98 550.15 485.22C549.54 487.21 549.82 487.71 550.00 488.34C550.18 488.97 550.29 489.88 551.37 489.42C552.52 488.93 554.88 487.84 557.71 485.08C560.54 482.31 567.14 474.59 570.22 471.00C573.31 467.42 573.98 466.76 578.26 461.17C582.54 455.58 593.15 441.50 598.76 433.73C604.37 425.96 614.60 410.63 615.66 409.35C616.73 408.07 612.93 414.97 605.88 425.18C597.72 437.00 567.62 479.04 561.26 488.17C560.11 489.82 561.93 487.43 563.43 486.09C570.58 479.71 603.94 448.28 608.95 445.63C613.95 442.98 600.11 462.70 596.81 468.43C593.51 474.17 588.81 481.27 586.97 483.87C585.77 485.56 584.83 485.93 584.51 485.77C584.20 485.61 584.25 484.67 584.89 482.80C585.52 480.94 586.19 479.14 588.74 473.37C591.30 467.60 599.08 450.84 601.92 444.32C604.75 437.80 606.36 433.03 607.63 429.90C608.89 426.77 610.98 418.86 610.38 423.48C609.75 428.28 604.88 454.68 603.45 461.92C602.14 468.59 602.17 468.11 600.86 471.78C599.54 475.46 596.63 483.15 594.68 486.40C592.73 489.65 589.49 492.26 587.85 493.45C586.20 494.64 585.66 494.37 583.70 494.32C581.73 494.27 576.72 493.48 574.76 493.13C572.80 492.78 571.46 492.36 570.60 491.99C569.74 491.62 569.17 491.12 569.04 490.67C568.90 490.22 569.13 489.51 569.71 488.97C570.28 488.44 570.57 487.71 572.85 487.08C575.13 486.44 581.95 485.26 584.91 484.76C587.86 484.25 590.26 484.18 592.56 483.72C594.85 483.26 597.99 482.62 600.23 481.69C602.47 480.77 605.71 479.15 607.46 477.55C609.21 475.94 610.87 473.38 611.88 471.00C612.89 468.62 613.80 464.48 614.17 461.69C614.53 458.90 614.63 455.80 614.32 452.38C614.01 448.96 612.44 439.78 612.10 438.88C611.76 437.98 611.59 441.40 612.08 446.37C612.61 451.82 615.11 470.01 615.66 475.27C616.09 479.36 615.86 479.94 615.76 481.44C615.66 482.95 615.59 483.78 615.00 485.32C614.42 486.87 612.58 490.57 611.89 491.75C611.19 492.92 611.16 493.25 610.39 493.14C609.62 493.03 607.82 491.62 606.77 491.01C605.73 490.39 604.70 489.56 603.42 489.07C602.15 488.58 600.16 487.98 598.28 487.72C596.41 487.47 594.47 487.33 590.92 487.36C587.37 487.39 582.49 487.87 574.64 487.91C566.79 487.94 546.58 487.46 538.59 487.57C530.60 487.68 524.19 488.34 521.39 488.65C520.22 488.78 519.52 489.20 519.93 489.63C520.33 490.05 521.08 491.06 524.09 491.48C529.09 492.17 546.32 493.78 553.25 494.24C560.17 494.70 565.20 494.67 570.25 494.53C575.30 494.40 582.67 493.88 586.91 493.36C591.15 492.83 595.77 491.87 598.52 491.04C601.26 490.21 603.53 489.02 605.21 487.85C606.88 486.67 608.64 484.88 609.68 483.23C610.73 481.57 611.12 480.85 612.19 476.83C613.27 472.80 615.92 461.18 616.82 456.38C617.72 451.57 617.94 448.29 618.17 444.81C618.40 441.34 618.43 436.24 618.37 433.22C618.31 430.21 618.42 428.01 617.78 424.71C617.14 421.41 614.90 412.94 614.10 411.22C613.35 409.63 612.88 412.41 612.42 413.25C611.97 414.10 611.28 416.31 611.08 416.85"/><path fill="none" stroke="#a4a4a4" stroke-width="2.0" stroke-linecap="round" stroke-linejoin="round" d="M219.88 451.92C219.88 452.53 219.88 455.36 219.88 455.97"/><path fill="none" stroke="#a4a4a4" stroke-width="2.0" stroke-linecap="round" stroke-linejoin="round" d="M211.79 460.47C212.12 460.26 213.70 459.32 214.03 459.12"/><path fill="none" stroke="#a4a4a4" stroke-width="2.0" stroke-linecap="round" stroke-linejoin="round" d="M200.54 473.96C200.74 473.95 201.19 474.46 201.83 473.89C202.72 473.10 203.54 472.28 206.51 468.67C210.84 463.42 227.05 443.35 230.67 438.88"/><path fill="none" stroke="#a4a4a4" stroke-width="2.0" stroke-linecap="round" stroke-linejoin="round" d="M200.99 408.31C203.37 405.88 211.84 396.80 216.83 392.15C221.82 387.50 231.65 379.51 234.27 377.28"/><path fill="none" stroke="#004dc0" stroke-width="2.5" stroke-linecap="round" stroke-linejoin="round" d="M715.39 571.98C715.31 571.78 715.11 570.84 714.85 570.63C714.58 570.42 714.22 570.16 713.63 570.56C713.05 570.96 711.43 572.19 710.96 573.31C710.48 574.44 710.37 577.11 710.45 578.05C710.54 578.99 711.11 579.32 711.51 579.59C711.90 579.85 712.59 579.94 713.07 579.82C713.54 579.69 714.11 579.61 714.68 578.76C715.24 577.91 716.38 574.53 716.83 574.14C717.27 573.74 717.12 575.71 717.64 576.13C718.17 576.54 719.94 576.81 720.34 576.93"/><path fill="none" stroke="#004dc0" stroke-width="2.5" stroke-linecap="round" stroke-linejoin="round" d="M733.83 555.34C733.76 554.94 733.25 552.92 733.38 552.65C733.52 552.38 734.53 553.41 734.73 553.54"/><path fill="none" stroke="#004dc0" stroke-width="2.5" stroke-linecap="round" stroke-linejoin="round" d="M697.86 566.13C697.81 565.93 697.32 563.85 697.54 564.76C698.15 567.26 701.25 580.07 701.91 582.77"/><path fill="none" stroke="#004dc0" stroke-width="2.5" stroke-linecap="round" stroke-linejoin="round" d="M736.98 561.64C737.18 562.04 738.12 563.93 738.33 564.34"/><path fill="none" stroke="#004dc0" stroke-width="2.5" stroke-linecap="round" stroke-linejoin="round" d="M700.11 575.58C700.76 574.12 704.24 566.62 704.46 565.84C704.69 565.05 702.07 568.94 701.61 570.35C701.15 571.75 700.98 574.06 701.40 575.19C701.83 576.31 703.37 577.25 704.46 577.84C705.54 578.44 708.02 578.98 708.65 579.17"/><path fill="none" stroke="#004dc0" stroke-width="2.5" stroke-linecap="round" stroke-linejoin="round" d="M791.39 537.36C791.32 537.04 791.10 535.05 790.92 535.24C790.74 535.43 790.25 537.73 790.19 538.62C790.14 539.51 790.34 540.50 790.57 541.16C790.79 541.82 791.29 542.65 791.67 543.01C792.06 543.37 792.70 543.62 793.13 543.56C793.57 543.50 794.22 543.09 794.57 542.61C794.92 542.13 795.34 541.30 795.46 540.38C795.58 539.45 795.06 535.90 795.39 536.44C795.73 536.97 796.97 541.15 797.70 543.94C798.42 546.72 799.80 552.68 800.20 555.02C800.61 557.35 800.62 558.55 800.39 559.49C800.16 560.43 799.29 561.03 798.68 561.29C798.07 561.54 796.89 561.41 796.33 561.19C795.78 560.97 795.19 560.04 794.98 559.84"/><path fill="none" stroke="#004dc0" stroke-width="2.5" stroke-linecap="round" stroke-linejoin="round" d="M775.20 544.10C775.33 544.30 775.90 544.78 776.10 545.45C776.30 546.13 776.48 548.13 776.55 548.60"/><path fill="none" stroke="#004dc0" stroke-width="2.5" stroke-linecap="round" stroke-linejoin="round" d="M761.71 542.30C762.20 544.04 764.38 553.04 764.99 553.88C765.61 554.72 765.52 549.04 765.81 547.90C766.10 546.76 766.53 546.58 766.93 546.29C767.34 545.99 768.05 545.80 768.50 545.93C768.95 546.06 769.66 546.23 769.91 547.16C770.17 548.09 770.38 551.03 770.17 552.12C769.96 553.22 769.25 553.89 768.52 554.44C767.79 554.99 765.79 555.59 765.31 555.79"/><path fill="none" stroke="#004dc0" stroke-width="2.5" stroke-linecap="round" stroke-linejoin="round" d="M747.32 557.59C747.33 557.29 747.53 556.00 747.39 555.61C747.24 555.21 746.80 554.50 746.33 554.97C745.85 555.44 744.39 557.84 744.20 558.74C744.00 559.64 744.15 560.69 745.03 560.96C745.90 561.22 749.10 560.54 750.03 560.49C750.83 560.44 751.05 560.47 751.23 560.60C751.41 560.73 751.35 561.07 751.24 561.36C751.12 561.65 751.22 561.99 750.46 562.54C749.47 563.25 745.50 565.60 744.62 566.13"/><path fill="none" stroke="#004dc0" stroke-width="2.5" stroke-linecap="round" stroke-linejoin="round" d="M781.94 539.61C781.61 540.27 779.95 543.02 779.72 544.02C779.49 545.03 780.14 545.81 780.42 546.30C780.69 546.80 781.16 547.25 781.55 547.33C781.95 547.40 782.61 547.21 783.04 546.78C783.48 546.35 784.19 545.22 784.46 544.47C784.74 543.72 784.96 542.68 784.88 541.76C784.80 540.85 782.99 536.26 783.95 538.38C784.91 540.50 790.10 552.57 791.27 555.91C792.33 558.90 791.81 559.39 791.78 560.63C791.75 561.88 791.60 563.44 791.08 564.19C790.55 564.94 789.13 565.46 788.30 565.62C787.47 565.78 786.09 565.50 785.54 565.24C784.99 564.98 784.78 564.09 784.64 563.89"/><path fill="none" stroke="#004dc0" stroke-width="2.5" stroke-linecap="round" stroke-linejoin="round" d="M772.95 539.61C772.88 539.40 772.43 538.39 772.50 538.26C772.57 538.12 773.26 538.64 773.40 538.71"/><path fill="none" stroke="#004dc0" stroke-width="2.5" stroke-linecap="round" stroke-linejoin="round" d="M860.18 528.36C860.38 529.04 861.33 532.19 861.53 532.86"/><path fill="none" stroke="#004dc0" stroke-width="2.5" stroke-linecap="round" stroke-linejoin="round" d="M801.28 537.81C801.89 537.04 804.74 533.91 805.37 532.67C806.01 531.43 805.65 530.00 805.50 529.54C805.35 529.07 804.76 529.36 804.38 529.54C804.00 529.72 803.32 530.22 802.95 530.73C802.59 531.24 802.16 532.20 801.97 532.97C801.78 533.73 801.63 535.06 801.67 535.83C801.72 536.59 801.97 537.49 802.25 538.07C802.54 538.65 803.09 539.51 803.58 539.69C804.07 539.87 804.86 539.83 805.52 539.28C806.19 538.73 807.65 536.50 808.02 536.01"/><path fill="none" stroke="#004dc0" stroke-width="2.5" stroke-linecap="round" stroke-linejoin="round" d="M851.64 527.46C852.07 528.29 854.23 532.96 854.49 532.99C854.75 533.02 853.49 528.73 853.36 527.66C853.24 526.60 853.32 526.46 853.67 525.89C854.02 525.32 855.38 524.17 855.69 523.87"/><path fill="none" stroke="#004dc0" stroke-width="2.5" stroke-linecap="round" stroke-linejoin="round" d="M836.35 534.66C836.38 534.06 836.74 531.48 836.57 530.69C836.41 529.90 835.75 529.53 835.25 529.39C834.75 529.26 833.82 529.52 833.25 529.78C832.67 530.05 831.92 530.56 831.42 531.17C830.92 531.78 830.16 533.07 829.89 533.84C829.61 534.60 829.48 535.65 829.59 536.27C829.69 536.88 830.12 537.61 830.56 537.95C830.99 538.29 831.22 538.54 832.49 538.54C833.77 538.54 838.00 537.92 839.06 537.96C839.73 537.98 839.56 538.47 839.58 538.82C839.60 539.16 839.46 539.82 839.17 540.23C838.88 540.64 838.33 541.22 837.63 541.54C836.94 541.85 835.01 542.19 834.55 542.30"/><path fill="none" stroke="#004dc0" stroke-width="2.5" stroke-linecap="round" stroke-linejoin="round" d="M843.55 535.11C843.87 536.64 845.97 545.86 845.74 545.35C845.51 544.84 842.56 534.25 842.02 531.72C841.58 529.61 841.97 529.22 842.15 528.49C842.32 527.77 842.76 527.10 843.21 526.89C843.65 526.69 844.34 526.42 845.11 527.13C845.88 527.85 847.87 530.51 848.35 531.66C848.82 532.81 848.51 533.87 848.26 534.79C848.01 535.71 847.13 537.22 846.69 537.81C846.26 538.39 845.55 538.57 845.34 538.71"/><path fill="none" stroke="#004dc0" stroke-width="2.5" stroke-linecap="round" stroke-linejoin="round" d="M808.92 529.26C809.06 529.94 809.52 534.44 809.85 533.77C810.19 533.09 810.97 526.12 811.17 524.77"/><path fill="none" stroke="#004dc0" stroke-width="2.5" stroke-linecap="round" stroke-linejoin="round" d="M869.63 526.12C869.67 526.63 869.95 529.97 869.91 529.52C869.88 529.06 869.29 524.29 869.40 523.08C869.50 521.87 870.06 521.12 870.63 521.44C871.21 521.76 872.83 524.65 873.22 525.22"/><path fill="none" stroke="#004dc0" stroke-width="2.5" stroke-linecap="round" stroke-linejoin="round" d="M905.15 509.93C905.19 509.46 905.62 507.09 905.40 506.83C905.18 506.58 904.16 507.17 903.66 508.23C903.16 509.28 902.24 512.64 902.07 513.86C901.91 515.09 902.26 515.78 902.57 516.42C902.88 517.05 903.45 517.95 904.16 518.11C904.87 518.27 905.80 518.36 907.30 517.47C908.79 516.58 913.11 512.97 914.14 512.18"/><path fill="none" stroke="#004dc0" stroke-width="2.5" stroke-linecap="round" stroke-linejoin="round" d="M882.66 519.37C882.73 518.97 883.47 517.14 883.11 516.67C882.76 516.20 880.95 515.92 880.29 516.23C879.63 516.55 878.91 517.63 878.71 518.76C878.51 519.89 878.63 522.87 878.96 523.75C879.29 524.62 880.26 524.62 880.92 524.59C881.57 524.56 882.69 524.07 883.35 523.56C884.02 523.04 884.87 521.95 885.32 521.16C885.78 520.38 886.26 519.08 886.39 518.32C886.52 517.55 886.36 516.53 886.19 516.05C886.02 515.57 885.49 515.10 885.26 515.12C885.03 515.15 884.64 515.54 884.65 516.20C884.67 516.87 884.40 517.49 885.39 519.54C887.60 524.15 896.92 541.30 899.42 546.93C901.92 552.55 901.72 555.30 902.08 557.05C902.29 558.08 901.94 558.48 901.79 558.60C901.64 558.72 901.25 558.38 901.08 557.84C900.92 557.30 900.68 556.92 900.68 555.02C900.69 552.48 901.04 543.06 901.10 540.95"/><path fill="none" stroke="#004dc0" stroke-width="2.5" stroke-linecap="round" stroke-linejoin="round" d="M919.99 501.83C920.10 502.92 920.50 509.01 920.78 509.08C921.06 509.15 921.56 503.63 921.85 502.29C922.14 500.96 922.44 500.59 922.73 500.17C923.03 499.75 923.25 498.88 923.82 499.51C924.44 500.19 926.24 503.77 926.86 504.72C927.43 505.60 927.59 505.74 927.97 505.84C928.34 505.95 928.77 506.20 929.36 505.43C929.94 504.66 931.41 501.85 931.85 500.70C932.30 499.54 932.31 498.50 932.31 497.73C932.31 496.96 932.11 496.03 931.83 495.56C931.56 495.10 930.94 494.71 930.48 494.61C930.02 494.51 929.20 494.65 928.76 494.90C928.33 495.15 927.75 495.80 927.55 496.26C927.35 496.73 927.24 497.46 927.42 497.99C927.61 498.52 927.65 498.85 928.76 499.78C929.88 500.71 933.89 503.35 934.85 504.19C935.47 504.73 935.79 504.99 935.18 505.38C934.57 505.77 931.44 506.57 930.78 506.78"/><path fill="none" stroke="#004dc0" stroke-width="2.5" stroke-linecap="round" stroke-linejoin="round" d="M914.14 506.78C913.67 506.65 911.57 505.24 910.99 505.88C910.42 506.52 910.17 509.91 910.29 511.06C910.41 512.21 911.25 513.07 911.76 513.54C912.28 514.01 913.15 514.15 913.71 514.20C914.28 514.25 915.09 514.26 915.56 513.87C916.02 513.47 916.55 512.32 916.80 511.58C917.06 510.85 917.30 510.03 917.23 508.97C917.17 507.92 916.52 505.20 916.39 504.53"/><path fill="none" stroke="#004dc0" stroke-width="2.5" stroke-linecap="round" stroke-linejoin="round" d="M857.93 520.72C857.87 520.59 857.28 519.89 857.48 519.82C857.69 519.75 859.01 520.20 859.28 520.27"/><path fill="none" stroke="#004dc0" stroke-width="2.5" stroke-linecap="round" stroke-linejoin="round" d="M965.85 470.36C965.85 470.22 965.66 468.89 965.85 469.46C966.57 471.67 969.96 482.62 970.67 485.12C970.86 485.79 970.85 486.08 970.60 486.16C970.35 486.24 969.24 485.72 969.00 485.65"/><path fill="none" stroke="#004dc0" stroke-width="2.5" stroke-linecap="round" stroke-linejoin="round" d="M964.50 482.50C964.57 482.23 964.21 481.38 964.95 480.70C965.69 480.03 968.77 478.41 969.45 478.00"/><path fill="none" stroke="#004dc0" stroke-width="2.5" stroke-linecap="round" stroke-linejoin="round" d="M950.56 487.45C950.29 487.45 949.21 487.21 948.76 487.45C948.31 487.68 947.98 488.07 947.56 488.99C947.14 489.90 946.16 492.56 945.99 493.54C945.81 494.52 946.18 495.09 946.39 495.53C946.61 495.96 947.05 496.40 947.41 496.43C947.77 496.45 948.34 496.20 948.81 495.70C949.28 495.21 950.10 494.28 950.54 493.14C950.98 491.99 951.43 488.19 951.74 488.04C952.05 487.90 952.28 491.38 952.58 492.17C952.88 492.96 953.36 493.14 953.72 493.31C954.07 493.48 954.59 493.48 954.94 493.28C955.29 493.09 955.73 493.10 956.06 492.03C956.41 490.86 957.11 486.54 957.32 485.47C957.40 485.06 957.37 484.45 957.45 484.86C957.64 485.85 958.41 491.89 958.60 492.11C958.80 492.33 958.59 487.69 958.74 486.32C958.88 484.96 958.84 482.63 959.57 483.00C960.30 483.38 963.00 487.93 963.60 488.79"/><path fill="none" stroke="#004dc0" stroke-width="2.5" stroke-linecap="round" stroke-linejoin="round" d="M936.62 485.65C936.81 485.74 937.47 485.69 937.87 486.26C938.28 486.83 938.76 487.73 939.30 489.43C939.84 491.12 941.13 495.90 941.47 497.56C941.81 499.22 941.55 500.05 941.57 500.49"/><path fill="none" stroke="#004dc0" stroke-width="2.5" stroke-linecap="round" stroke-linejoin="round" d="M977.54 473.96C977.41 473.96 976.78 473.96 976.64 473.96"/><path fill="none" stroke="#004dc0" stroke-width="2.5" stroke-linecap="round" stroke-linejoin="round" d="M937.07 495.09C937.01 494.89 935.86 494.31 936.62 493.74C937.43 493.13 941.59 491.45 942.47 491.04"/>
</svg>