<?xml version="1.0" encoding="UTF-8"?>
<!DOCTYPE svg PUBLIC "-//W3C//DTD SVG 1.1//EN" "http://www.w3.org/Graphics/SVG/1.1/DTD/svg11.dtd">
<svg  xmlns="http://www.w3.org/2000/svg" xmlns:xlink="http://www.w3.org/1999/xlink" viewport-fill="none" viewBox="0.0, 0.0, 840.0683250304137, 742.4403651356939" version="1.1" height="742.4403651356939" width="840.0683250304137">
<path fill="none" stroke="#d1000d" stroke-width="2.0" stroke-linecap="round" stroke-linejoin="round" d="M458.64 448.75C452.83 451.51 434.32 459.57 419.91 467.14C405.50 474.72 372.11 493.87 362.57 499.26C358.30 501.67 357.52 502.25 356.30 503.08C355.07 503.91 354.63 504.45 354.40 504.79C354.17 505.14 354.72 505.32 354.77 505.41"/><path fill="none" stroke="#d1000d" stroke-width="2.0" stroke-linecap="round" stroke-linejoin="round" d="M354.77 498.66C354.84 498.36 355.70 495.31 355.22 496.62C354.70 498.08 351.52 506.57 351.27 508.43C351.06 509.95 351.97 509.01 353.52 508.97C355.12 508.92 360.70 508.24 361.97 508.11"/><path fill="none" stroke="#ff9399" stroke-opacity="0.5" stroke-width="13.0" stroke-linecap="round" stroke-linejoin="round" d="M468.54 404.69C467.19 405.63 461.18 408.98 459.54 410.98C457.91 412.98 457.78 415.77 457.64 418.02C457.49 420.27 457.92 424.06 458.59 426.00C459.26 427.94 460.67 430.08 462.11 430.96C463.55 431.85 466.21 432.30 468.21 431.91C470.20 431.52 473.23 430.02 475.43 428.39C477.63 426.76 480.84 423.52 482.87 421.05C484.89 418.58 487.53 414.69 488.90 411.94C490.27 409.19 491.59 405.25 491.98 402.73C492.36 400.20 492.16 397.00 491.45 395.13C490.74 393.27 488.96 391.23 487.23 390.28C485.50 389.33 482.27 388.70 479.93 388.81C477.60 388.92 474.10 389.82 471.68 391.02C469.25 392.22 465.81 394.65 463.76 396.82C461.72 398.98 459.22 402.71 458.03 405.47C456.83 408.23 455.95 412.40 455.81 415.24C455.66 418.07 456.17 422.00 457.07 424.39C457.96 426.77 460.02 429.71 461.78 431.14C463.53 432.57 466.52 433.67 468.75 433.94C470.98 434.21 474.34 433.72 476.67 432.94C478.99 432.16 482.25 430.33 484.25 428.74C486.25 427.15 488.73 424.35 490.01 422.33C491.29 420.31 492.50 417.33 492.77 415.26C493.04 413.19 492.62 410.29 491.78 408.51C490.94 406.73 488.99 404.45 487.16 403.40C485.33 402.35 482.01 401.48 479.56 401.50C477.11 401.51 473.25 402.26 470.82 403.50C468.38 404.74 465.14 407.44 463.33 409.79C461.51 412.15 459.49 416.27 458.74 419.21C457.99 422.16 457.82 426.60 458.30 429.41C458.78 432.22 460.43 435.98 461.93 437.95C463.43 439.92 466.18 441.83 468.32 442.52C470.45 443.21 473.83 443.17 476.18 442.55C478.53 441.92 481.87 440.07 483.97 438.38C486.07 436.68 488.78 433.58 490.18 431.25C491.58 428.93 492.94 425.35 493.29 422.86C493.65 420.37 493.35 416.87 492.57 414.65C491.78 412.43 489.82 409.64 488.08 408.07C486.35 406.50 483.20 404.80 481.00 404.18C478.80 403.57 475.54 403.40 473.43 403.97C471.33 404.54 468.52 406.28 466.97 407.99C465.42 409.69 463.80 412.93 463.12 415.34C462.45 417.74 462.21 421.60 462.48 424.03C462.74 426.46 463.82 429.83 464.89 431.54C465.97 433.25 468.04 434.92 469.63 435.45C471.22 435.98 473.72 435.84 475.52 435.06C477.32 434.29 480.02 432.21 481.64 430.29C483.26 428.37 485.31 424.77 486.32 422.28C487.33 419.78 488.20 416.02 488.36 413.63C488.51 411.24 488.13 408.04 487.36 406.36C486.59 404.67 484.72 402.92 483.22 402.39C481.72 401.87 479.13 402.07 477.35 402.85C475.57 403.64 472.94 405.73 471.37 407.61C469.80 409.49 467.81 412.96 466.87 415.39C465.93 417.82 465.19 421.60 465.08 423.81C464.98 426.02 465.42 428.79 466.15 430.11C466.88 431.42 468.58 432.44 469.94 432.57C471.30 432.70 473.59 431.97 475.22 431.00C476.85 430.02 479.33 427.74 480.80 426.05C482.27 424.36 484.15 421.49 485.02 419.74C485.90 418.00 486.54 415.65 486.62 414.41C486.70 413.17 486.17 411.88 485.54 411.46C484.92 411.04 483.43 411.18 482.46 411.62C481.48 412.06 479.94 413.36 479.03 414.39C478.13 415.41 476.97 417.26 476.44 418.47C475.91 419.67 475.49 421.50 475.47 422.40C475.45 423.30 475.86 424.21 476.31 424.48C476.76 424.74 477.69 424.59 478.46 424.15C479.23 423.71 480.36 422.74 481.43 421.55C482.50 420.36 485.37 415.80 485.58 416.22C485.79 416.64 483.31 422.54 482.82 424.35C482.34 426.17 482.27 427.48 482.35 428.31C482.43 429.15 482.87 429.92 483.36 429.91C483.86 429.89 484.87 429.19 485.65 428.23C486.42 427.26 487.79 425.13 488.53 423.50C489.26 421.86 490.22 419.11 490.54 417.33C490.86 415.56 490.95 413.05 490.66 411.69C490.36 410.33 489.49 408.80 488.57 408.27C487.66 407.75 485.81 407.71 484.57 408.18C483.33 408.64 481.55 410.12 480.32 411.40C479.10 412.67 477.16 415.00 476.39 416.66C475.62 418.33 474.95 420.77 475.19 422.48C475.43 424.20 477.56 427.23 477.98 428.07"/><path fill="none" stroke="#ff9399" stroke-opacity="0.5" stroke-width="13.0" stroke-linecap="round" stroke-linejoin="round" d="M286.43 516.20C286.29 516.20 285.90 515.73 285.53 516.20C284.19 517.86 280.06 523.04 277.53 527.29C275.00 531.54 266.42 546.51 268.66 544.54C270.90 542.56 288.01 520.05 292.47 514.14C296.78 508.43 299.01 504.65 298.38 505.18C297.74 505.71 290.81 514.18 288.23 517.67C285.66 521.16 283.04 525.30 281.21 528.45C279.38 531.60 277.01 536.19 276.03 538.67C275.05 541.14 274.31 544.11 274.65 544.96C274.99 545.81 276.62 545.45 278.31 544.33C280.01 543.20 283.45 540.05 285.95 537.43C288.46 534.81 292.57 529.93 295.00 526.89C297.43 523.84 300.75 519.14 302.14 517.12C303.53 515.11 305.50 512.12 304.27 513.46C303.04 514.80 296.69 522.43 293.94 526.04C291.18 529.66 287.97 534.38 285.90 537.57C283.82 540.75 281.26 545.03 280.09 547.28C278.92 549.53 278.01 551.91 278.09 552.58C278.16 553.26 279.23 552.88 280.59 551.77C282.01 550.60 283.35 549.86 287.53 544.82C292.89 538.36 314.58 510.52 316.38 508.67C318.18 506.83 302.91 527.48 299.54 532.53C296.17 537.57 294.95 540.10 293.93 542.28C292.90 544.46 292.22 546.73 292.71 547.05C293.19 547.37 295.11 546.20 297.18 544.42C299.25 542.63 303.38 538.54 306.49 535.16C309.60 531.78 314.65 525.82 317.93 521.89C321.22 517.96 325.89 512.16 328.39 508.96C330.88 505.77 333.62 502.03 334.57 500.59C335.02 499.89 335.25 498.73 334.70 499.35C332.38 501.98 323.01 513.19 319.08 518.13C315.16 523.07 311.33 528.33 308.52 532.29C305.71 536.25 302.04 541.74 300.36 544.55C298.67 547.35 297.15 550.33 297.28 551.01C297.40 551.69 299.14 550.79 301.18 549.08C303.22 547.37 304.78 546.28 310.88 539.61C317.30 532.58 341.26 504.96 343.97 502.23C346.68 499.50 332.62 516.50 328.94 521.40C325.26 526.30 321.84 531.12 319.44 534.91C317.03 538.70 314.07 544.01 312.91 546.66C311.75 549.32 311.24 551.91 311.71 552.62C312.18 553.32 314.02 552.77 316.05 551.38C318.08 549.98 319.70 549.30 325.22 543.32C331.02 537.02 353.73 510.36 354.73 509.39C355.74 508.43 336.30 531.38 331.90 536.90C327.50 542.42 326.47 544.38 325.39 546.20C324.40 547.88 323.84 549.41 324.73 549.05C325.62 548.69 328.59 546.35 331.32 543.81C334.06 541.28 336.48 539.10 342.97 532.16C349.47 525.21 373.85 497.74 374.61 497.51C375.36 497.27 353.00 524.21 348.02 530.59C343.31 536.64 342.66 538.00 341.44 540.02C340.23 542.05 339.61 543.78 339.93 544.10C340.26 544.41 341.92 543.48 343.60 542.10C345.28 540.72 346.84 539.56 351.14 534.91C355.44 530.26 371.03 511.49 372.26 511.12C373.48 510.75 362.19 527.47 359.31 532.44C356.43 537.41 354.43 541.35 353.08 544.28C351.73 547.21 350.50 550.63 350.32 551.96C350.14 553.25 350.75 553.90 351.83 553.18C352.98 552.43 354.29 551.47 357.96 546.93C363.16 540.50 381.76 516.24 386.50 510.32C388.26 508.12 390.83 505.06 389.57 507.42C388.32 509.79 381.28 521.07 378.13 526.09C374.99 531.12 370.97 537.13 368.61 540.92C366.26 544.70 363.45 549.34 362.42 551.34C361.51 553.10 361.07 554.60 361.74 554.23C362.40 553.86 364.82 551.33 366.86 548.89C368.91 546.44 371.21 543.70 375.38 537.93C379.55 532.17 393.63 511.54 394.65 510.44C395.68 509.34 385.05 525.68 382.19 530.58C379.33 535.48 376.23 541.65 375.60 543.08C374.96 544.52 376.64 542.29 377.95 540.17C380.27 536.45 388.14 523.46 391.01 518.25C393.89 513.05 395.79 508.65 397.13 505.47C398.46 502.30 399.80 498.53 399.91 497.09C400.01 495.66 399.21 495.10 397.84 495.91C396.46 496.72 393.30 499.73 390.70 502.52C388.10 505.32 385.01 509.01 380.50 514.53C375.99 520.05 364.47 534.64 360.62 539.32C356.97 543.77 356.08 544.73 354.87 545.76C353.67 546.78 352.77 547.06 352.56 546.23C352.35 545.39 352.36 544.10 353.46 540.18C355.25 533.82 362.82 510.27 364.46 503.84C365.54 499.61 365.17 498.14 364.40 497.29C363.63 496.44 361.52 496.90 359.32 498.17C357.13 499.45 354.73 501.36 349.78 505.78C344.83 510.20 331.15 523.29 326.33 527.64C321.51 532.00 319.74 533.45 317.64 534.81C315.54 536.17 313.45 537.01 312.32 536.73C311.20 536.46 310.43 535.86 310.15 532.98C309.76 528.98 310.23 513.85 309.73 510.11C309.41 507.78 308.15 507.95 306.82 508.11C305.49 508.26 304.25 508.25 300.86 511.15C295.89 515.40 276.94 533.56 273.66 536.43C270.38 539.30 276.11 533.11 278.97 530.28C281.83 527.44 290.66 519.46 292.72 517.55"/><path fill="none" stroke="#ffd873" stroke-opacity="0.5" stroke-width="20.0" stroke-linecap="round" stroke-linejoin="round" d="M666.38 406.03C665.76 406.28 663.38 406.53 662.23 407.64C661.09 408.75 658.31 411.98 658.75 413.43C659.20 414.88 662.58 416.46 665.21 417.32C667.85 418.18 672.35 419.08 676.32 419.15C680.29 419.23 686.87 418.76 691.68 417.82C696.48 416.88 704.01 414.51 708.38 412.91C712.76 411.31 717.88 408.91 720.85 407.15C723.82 405.40 726.83 402.79 728.16 401.19C729.50 399.58 730.04 397.67 729.77 396.43C729.50 395.20 727.98 393.84 726.36 392.94C724.74 392.05 721.89 390.93 718.97 390.44C716.05 389.96 711.09 389.58 706.90 389.72C702.72 389.85 696.07 390.47 691.08 391.34C686.09 392.22 678.71 393.93 673.63 395.57C668.54 397.20 661.36 400.06 657.16 402.22C652.96 404.39 648.09 407.73 645.64 409.98C643.19 412.22 641.29 415.17 640.83 417.18C640.37 419.19 640.99 421.87 642.58 423.38C644.18 424.90 648.07 426.53 651.47 427.31C654.87 428.09 660.67 428.54 665.23 428.56C669.78 428.58 676.65 428.28 681.83 427.47C687.01 426.67 694.78 424.75 699.78 423.19C704.78 421.62 711.16 418.99 715.18 417.03C719.20 415.07 724.03 412.20 726.60 410.10C729.16 407.99 731.58 404.89 732.29 403.01C732.99 401.13 732.57 398.87 731.29 397.57C730.02 396.26 727.18 394.77 723.78 394.30C720.38 393.83 713.87 393.91 708.62 394.45C703.37 394.99 694.92 396.51 688.77 397.91C682.61 399.31 673.40 401.72 667.59 403.80C661.79 405.88 654.02 409.34 650.08 411.79C646.13 414.24 642.54 417.65 641.30 420.12C640.07 422.59 640.19 426.09 641.85 428.25C643.50 430.41 648.08 433.20 652.34 434.53C656.59 435.86 664.31 436.94 670.22 437.12C676.14 437.30 685.13 436.82 691.78 435.72C698.44 434.62 708.10 432.01 714.59 429.78C721.09 427.54 729.59 423.57 735.08 420.81C740.57 418.05 747.24 414.07 751.17 411.38C755.10 408.70 759.31 405.10 761.27 402.91C763.24 400.73 764.45 398.22 764.27 396.82C764.10 395.41 762.56 394.07 760.12 393.55C757.67 393.02 752.58 392.88 747.97 393.31C743.37 393.73 735.39 395.10 729.45 396.37C723.51 397.65 714.43 399.86 708.38 401.78C702.34 403.71 693.90 406.81 689.15 409.21C684.39 411.62 679.08 415.24 676.70 417.81C674.32 420.39 672.82 424.06 673.27 426.38C673.73 428.70 676.62 431.75 679.74 433.28C682.87 434.82 689.17 436.18 694.10 436.59C699.02 437.01 706.91 436.78 712.57 436.03C718.23 435.28 726.52 433.23 731.83 431.61C737.13 430.00 743.86 427.19 747.95 425.29C752.03 423.39 756.75 420.63 759.06 418.96C761.36 417.28 763.10 415.21 763.31 414.13C763.52 413.06 762.18 412.19 760.45 411.77C758.71 411.36 754.95 411.08 751.72 411.36C748.50 411.63 742.90 412.52 738.93 413.60C734.97 414.67 729.04 416.77 725.28 418.53C721.51 420.30 716.52 423.22 713.86 425.36C711.20 427.51 708.53 430.88 707.54 432.85C706.56 434.82 706.52 437.34 707.30 438.51C708.08 439.67 710.49 440.59 712.74 440.62C714.99 440.64 719.19 439.74 722.30 438.66C725.40 437.57 730.16 435.18 733.44 433.41C736.72 431.65 741.41 428.81 744.18 426.88C746.95 424.95 750.20 422.32 751.93 420.56C753.66 418.80 755.19 416.68 755.70 415.13C756.21 413.58 756.33 411.52 755.33 410.24C754.33 408.95 751.80 407.35 749.03 406.56C746.25 405.77 741.45 405.07 736.81 404.97C732.17 404.86 724.33 405.19 718.08 405.84C711.83 406.49 706.36 407.11 695.16 409.30C683.97 411.49 651.48 418.55 643.45 420.42C641.99 420.76 641.92 421.57 641.65 421.77"/><path fill="none" stroke="#ffd873" stroke-opacity="0.5" stroke-width="20.0" stroke-linecap="round" stroke-linejoin="round" d="M467.19 519.80C466.58 520.54 461.61 522.72 463.14 524.74C464.67 526.77 472.66 531.64 477.41 533.30C482.17 534.95 490.39 535.90 494.84 535.78C499.28 535.67 504.03 533.76 507.05 532.54C510.07 531.33 513.60 529.52 514.97 527.66C516.34 525.80 516.69 522.44 516.18 520.12C515.68 517.81 513.69 514.20 511.61 512.21C509.53 510.23 505.39 508.05 502.34 506.90C499.29 505.75 494.80 504.69 491.29 504.57C487.79 504.44 482.56 505.10 478.98 506.07C475.39 507.04 470.44 509.29 467.39 511.02C464.33 512.74 460.66 515.52 458.59 517.58C456.52 519.65 454.35 522.71 453.61 524.80C452.87 526.89 452.79 529.71 453.65 531.51C454.51 533.31 456.96 535.54 459.34 536.79C461.72 538.04 466.13 539.40 469.52 539.84C472.92 540.28 478.36 540.26 482.00 539.73C485.64 539.21 490.84 537.73 493.79 536.35C496.75 534.97 500.14 532.48 501.69 530.53C503.23 528.59 504.18 525.52 504.09 523.38C504.00 521.24 502.69 518.14 501.07 516.24C499.44 514.35 496.04 512.03 493.26 510.73C490.47 509.43 485.93 508.03 482.49 507.57C479.05 507.10 474.00 507.17 470.34 507.63C466.69 508.08 461.55 509.43 458.11 510.62C454.67 511.80 450.20 513.94 447.42 515.54C444.65 517.14 441.32 519.65 439.62 521.29C437.91 522.93 436.31 525.04 436.06 526.48C435.80 527.92 436.51 529.75 437.91 530.89C439.32 532.02 442.63 533.40 445.43 534.05C448.23 534.70 453.10 535.18 456.60 535.22C460.11 535.26 465.46 534.89 468.78 534.32C472.09 533.76 476.39 532.52 478.71 531.48C481.02 530.43 483.26 528.67 484.23 527.36C485.19 526.05 485.56 524.15 485.16 522.76C484.76 521.36 483.24 519.35 481.56 518.07C479.89 516.79 476.74 515.16 474.01 514.22C471.28 513.28 466.87 512.23 463.36 511.79C459.85 511.35 454.48 511.13 450.60 511.31C446.71 511.49 441.06 512.25 437.45 512.98C433.85 513.72 429.30 515.08 426.56 516.22C423.82 517.35 420.79 519.18 419.18 520.55C417.58 521.91 416.32 523.86 415.86 525.32C415.41 526.77 415.72 528.83 416.13 530.26C416.54 531.68 417.64 533.68 418.57 534.82C419.51 535.96 421.18 537.35 422.37 537.86C423.56 538.37 425.34 538.57 426.52 538.22C427.71 537.86 429.33 536.69 430.28 535.51C431.24 534.33 432.35 532.05 432.89 530.32C433.42 528.59 433.81 525.81 433.85 523.97C433.88 522.14 433.58 519.60 433.11 518.09C432.65 516.58 431.60 514.79 430.76 513.90C429.92 513.00 428.51 512.24 427.50 512.10C426.50 511.96 424.97 512.32 424.05 512.96C423.13 513.61 421.96 515.07 421.36 516.39C420.77 517.70 420.26 519.96 420.06 521.72C419.86 523.48 419.84 526.20 420.03 528.10C420.21 530.00 420.71 532.70 421.31 534.38C421.90 536.05 422.89 538.09 423.98 539.26C425.07 540.43 426.78 541.66 428.60 542.17C430.42 542.67 433.37 542.91 436.11 542.65C438.85 542.39 443.27 541.38 446.86 540.43C450.44 539.49 452.87 538.85 460.01 536.35C467.16 533.85 488.03 525.98 494.51 523.77C500.16 521.83 502.66 522.48 503.20 521.57C503.74 520.67 499.96 518.66 498.08 517.74C496.21 516.81 493.40 515.97 490.70 515.43C488.00 514.89 483.54 514.26 480.07 514.13C476.60 514.00 471.34 514.11 467.58 514.57C463.81 515.03 458.50 516.14 454.98 517.21C451.46 518.28 446.96 520.25 444.11 521.70C441.26 523.14 438.55 524.77 436.00 526.84C433.46 528.90 428.80 533.93 427.14 535.45C425.80 536.67 425.52 536.80 424.88 536.97C424.24 537.14 423.51 536.99 422.86 536.59C422.22 536.19 421.86 536.04 420.58 534.31C419.13 532.35 414.46 525.52 413.17 523.53C412.17 521.99 412.12 521.61 411.96 521.05C411.80 520.50 411.28 519.86 412.10 519.84C420.10 519.65 455.64 519.88 465.33 519.77C472.88 519.69 471.36 519.98 476.64 519.13C481.93 518.28 496.03 514.92 500.56 514.12C504.67 513.38 505.07 513.63 506.81 513.75C508.56 513.88 510.63 514.53 512.19 514.97C513.74 515.41 515.18 516.25 517.18 516.69C519.18 517.14 523.65 517.91 525.52 517.94C527.38 517.97 528.00 517.53 529.62 516.88C531.24 516.24 535.03 514.37 536.31 513.62C537.60 512.87 537.88 512.34 538.20 511.88C538.52 511.41 538.56 510.81 538.46 510.54C538.36 510.26 537.94 509.98 537.53 510.02C537.13 510.06 536.57 509.80 535.73 510.81C534.82 511.90 532.84 514.26 531.46 517.26C530.08 520.25 527.28 528.39 526.55 530.78C526.07 532.36 526.41 532.82 526.60 533.25C526.80 533.68 527.33 533.86 527.84 533.65C528.36 533.44 529.34 532.73 530.02 531.82C530.71 530.90 531.84 529.07 532.42 527.55C533.00 526.03 533.78 523.45 533.89 521.69C534.01 519.93 533.74 517.42 533.19 515.83C532.64 514.24 531.56 512.00 530.22 511.09C528.89 510.19 526.56 509.35 524.32 509.78C522.08 510.21 517.87 512.11 515.30 513.95C512.73 515.79 508.42 520.83 507.21 522.04"/><path fill="none" stroke="#1eb511" stroke-width="2.0" stroke-linecap="round" stroke-linejoin="round" d="M285.08 620.07C285.01 619.93 285.00 618.64 284.63 619.17C284.26 619.69 283.40 620.44 282.61 623.57C281.70 627.17 279.72 631.22 278.56 643.18C277.39 655.14 275.89 690.99 274.82 703.30C273.75 715.61 271.97 721.39 271.45 725.24C271.11 727.72 271.12 727.86 271.33 728.99C271.53 730.13 272.35 732.03 272.82 732.80C273.29 733.58 273.42 734.06 274.46 734.15C275.49 734.23 278.20 733.45 279.72 733.37C281.24 733.29 281.35 733.42 284.60 733.61C290.07 733.94 300.56 735.48 316.16 735.52C331.76 735.57 358.48 733.62 388.57 733.90C418.67 734.19 483.00 737.21 516.80 737.42C550.61 737.63 592.22 735.58 613.95 735.32C635.67 735.05 651.12 735.44 661.62 735.66C672.12 735.88 671.49 736.12 683.95 736.79C696.41 737.46 730.63 739.59 744.69 740.10C758.75 740.62 769.10 740.45 777.65 740.20C786.20 739.95 795.83 739.11 801.70 738.43C807.57 737.75 813.39 736.45 816.77 735.67C820.16 734.88 822.92 733.90 824.27 733.17C825.63 732.43 825.41 731.90 825.83 730.77C826.25 729.64 826.54 729.11 827.08 725.63C828.05 719.37 830.97 700.73 832.30 689.06C833.63 677.40 835.31 655.56 835.94 647.87C836.50 641.17 836.22 642.00 836.53 637.80C836.85 633.60 837.86 622.87 838.04 619.84C838.13 618.35 837.98 618.21 837.76 617.61C837.53 617.01 837.65 615.86 836.54 615.83C835.42 615.79 833.56 616.96 830.32 617.37C827.07 617.78 825.21 618.55 814.90 618.58C794.15 618.62 713.64 617.85 691.97 617.67C677.61 617.55 684.79 617.70 670.43 617.38C651.03 616.93 585.26 615.11 562.63 614.73C540.00 614.35 541.74 614.44 519.54 614.83C497.35 615.21 437.13 616.40 414.68 617.29C392.23 618.18 377.88 620.13 369.88 620.74C364.20 621.18 366.25 621.12 361.36 621.36C356.46 621.60 345.21 622.19 337.27 622.35C329.33 622.50 313.88 622.26 308.40 622.40C303.28 622.53 303.09 622.80 300.77 623.28C298.45 623.75 294.83 625.17 292.94 625.56C291.06 625.96 288.93 625.86 288.23 625.91"/>
</svg>