<?xml version="1.0" encoding="UTF-8"?>
<!DOCTYPE svg PUBLIC "-//W3C//DTD SVG 1.1//EN" "http://www.w3.org/Graphics/SVG/1.1/DTD/svg11.dtd">
<svg  xmlns="http://www.w3.org/2000/svg" xmlns:xlink="http://www.w3.org/1999/xlink" viewport-fill="none" viewBox="0.0, 0.0, 974.5907291701417, 424.6719970703125" version="1.1" height="424.6719970703125" width="974.5907291701417">
<path fill="none" stroke="#d1000d" stroke-width="2.0" stroke-linecap="round" stroke-linejoin="round" d="M927.63 422.67C932.55 418.83 954.53 402.65 960.45 397.04C966.38 391.44 965.58 389.10 967.15 385.31C968.71 381.51 970.10 376.01 970.91 371.75C971.72 367.50 972.84 363.82 972.54 356.93C972.24 350.03 970.06 332.72 968.91 325.77C967.76 318.82 966.45 315.05 964.87 310.60C963.30 306.14 960.75 300.23 958.41 296.08C956.07 291.93 952.29 286.67 949.29 282.93C946.29 279.18 941.92 274.54 938.40 271.13C934.89 267.73 929.75 263.33 925.86 260.23C921.97 257.13 918.43 254.34 912.46 250.46C906.49 246.57 893.54 238.58 886.06 234.35C878.58 230.12 870.07 225.92 862.60 222.26C855.12 218.61 841.05 212.28 836.24 209.95C832.30 208.05 832.86 208.22 830.52 206.74C828.18 205.25 820.30 199.08 820.65 200.06C821.01 201.05 832.83 213.18 832.88 213.30C832.94 213.42 822.98 203.04 821.00 200.83C819.86 199.56 819.65 199.11 819.72 198.61C819.79 198.12 820.57 197.71 821.45 197.51C822.34 197.32 822.84 197.44 825.62 197.31C828.66 197.15 838.65 196.82 841.75 196.50C844.84 196.17 845.57 195.35 846.24 195.15"/><path fill="none" stroke="#d1000d" stroke-width="2.0" stroke-linecap="round" stroke-linejoin="round" d="M704.60 172.67C705.61 173.96 710.18 180.10 711.34 181.30C711.91 181.87 712.09 181.33 712.37 180.65C712.65 179.97 712.52 176.97 713.23 176.76C713.95 176.54 716.25 178.81 717.15 179.24C718.05 179.67 718.73 179.72 719.21 179.62C719.69 179.53 720.22 179.11 720.35 178.63C720.48 178.14 720.69 177.56 720.09 176.39C719.48 175.23 717.39 172.12 716.32 170.85C715.24 169.57 713.33 168.29 712.93 167.88C712.58 167.54 713.50 168.13 713.60 168.17"/><path fill="none" stroke="#d1000d" stroke-width="2.0" stroke-linecap="round" stroke-linejoin="round" d="M722.14 173.12C722.54 171.77 724.34 164.34 724.84 164.12C725.33 163.91 724.96 170.40 725.43 171.68C725.90 172.96 727.40 172.79 727.99 172.67C728.57 172.54 729.13 171.14 729.33 170.87"/><path fill="none" stroke="#d1000d" stroke-width="2.0" stroke-linecap="round" stroke-linejoin="round" d="M723.04 197.40C722.30 197.62 719.04 198.29 718.12 198.88C717.19 199.46 717.03 200.67 716.87 201.32C716.71 201.96 716.88 202.68 717.04 203.16C717.20 203.64 717.47 204.24 717.96 204.53C718.45 204.83 718.98 205.09 720.30 205.10C721.61 205.10 725.58 204.63 726.71 204.59C727.46 204.56 727.62 204.67 727.81 204.82C728.00 204.97 728.25 205.15 727.95 205.56C727.61 206.05 726.52 207.34 725.52 208.07C724.51 208.80 721.88 210.08 721.24 210.44"/><path fill="none" stroke="#d1000d" stroke-width="2.0" stroke-linecap="round" stroke-linejoin="round" d="M731.13 196.50C730.80 196.43 729.09 195.17 728.88 196.05C728.68 196.93 729.41 201.33 729.75 202.37C730.07 203.34 730.61 203.30 731.15 202.98C731.68 202.66 732.95 200.89 733.29 200.24C733.63 199.59 733.60 199.14 733.41 198.65C733.22 198.15 732.24 197.20 732.03 196.95"/><path fill="none" stroke="#d1000d" stroke-width="2.0" stroke-linecap="round" stroke-linejoin="round" d="M730.23 186.16C730.34 186.54 730.20 187.29 730.91 188.69C731.63 190.09 733.89 193.89 735.00 195.47C736.11 197.05 737.83 198.64 738.33 199.20"/><path fill="none" stroke="#d1000d" stroke-width="2.0" stroke-linecap="round" stroke-linejoin="round" d="M735.63 190.65C735.49 190.45 733.84 188.88 734.73 189.30C735.62 189.72 740.20 192.81 741.54 193.45C742.81 194.07 743.24 194.08 743.64 193.61C744.05 193.15 744.77 191.75 744.24 190.36C743.71 188.97 740.74 185.26 740.13 184.36"/><path fill="none" stroke="#d1000d" stroke-width="2.0" stroke-linecap="round" stroke-linejoin="round" d="M746.87 187.05C747.07 186.65 748.33 185.30 748.22 184.36C748.11 183.42 746.54 181.23 746.11 180.78C745.68 180.33 745.48 180.74 745.34 181.37C745.20 182.04 745.01 184.29 745.17 185.20C745.33 186.12 745.97 186.95 746.43 187.47C746.90 187.99 747.66 188.43 748.26 188.67C748.87 188.91 749.78 189.13 750.45 189.08C751.12 189.04 751.97 189.01 752.72 188.37C753.46 187.73 755.01 185.34 755.41 184.81"/><path fill="none" stroke="#d1000d" stroke-width="2.0" stroke-linecap="round" stroke-linejoin="round" d="M752.72 164.12C753.97 165.84 760.04 174.15 761.07 175.60C761.97 176.87 760.23 174.34 759.57 173.81C758.92 173.28 757.53 172.29 756.72 172.07C755.90 171.86 754.71 171.86 754.16 172.36C753.60 172.87 752.99 174.35 753.02 175.45C753.05 176.55 753.92 178.83 754.36 179.70C754.80 180.56 755.42 180.90 755.96 181.21C756.50 181.52 757.09 181.97 757.95 181.77C758.81 181.57 760.94 180.48 761.71 179.86C762.48 179.24 762.86 177.95 763.06 177.61"/><path fill="none" stroke="#d1000d" stroke-width="2.0" stroke-linecap="round" stroke-linejoin="round" d="M771.15 152.43C771.75 153.17 773.65 156.03 775.12 157.33C776.59 158.62 780.26 160.46 780.95 161.07C781.59 161.65 779.88 161.37 779.69 161.42"/><path fill="none" stroke="#d1000d" stroke-width="2.0" stroke-linecap="round" stroke-linejoin="round" d="M769.35 162.32C770.84 160.91 777.76 154.30 779.25 152.88"/><path fill="none" stroke="#d1000d" stroke-width="2.0" stroke-linecap="round" stroke-linejoin="round" d="M777.45 147.49C778.46 148.30 782.83 151.64 784.20 152.93C785.57 154.22 786.35 156.23 786.58 156.06C786.80 155.88 785.65 153.23 785.72 151.78C785.79 150.33 786.59 147.17 787.06 146.37C787.53 145.57 788.04 145.91 788.84 146.43C789.63 146.96 791.63 149.30 792.35 149.86C793.05 150.41 793.44 150.14 793.63 150.18C793.63 150.18 793.63 150.18 793.63 150.18"/><path fill="none" stroke="#d1000d" stroke-width="2.0" stroke-linecap="round" stroke-linejoin="round" d="M794.53 142.54C794.60 142.81 794.65 143.80 794.98 144.34C795.32 144.88 796.51 145.87 796.78 146.14"/><path fill="none" stroke="#d1000d" stroke-width="2.0" stroke-linecap="round" stroke-linejoin="round" d="M789.59 138.04C789.79 137.77 790.73 136.51 790.94 136.24"/><path fill="none" stroke="#d1000d" stroke-width="2.0" stroke-linecap="round" stroke-linejoin="round" d="M801.73 134.90C801.32 134.90 798.93 134.42 799.03 134.90C799.13 135.37 800.81 137.26 802.40 138.08C804.00 138.90 808.61 139.90 809.67 140.37C810.20 140.60 809.90 140.84 809.46 141.21C808.67 141.87 805.18 144.25 804.43 144.79"/><path fill="none" stroke="#d1000d" stroke-width="2.0" stroke-linecap="round" stroke-linejoin="round" d="M734.28 236.52C735.00 235.09 738.50 228.86 739.08 227.04C739.65 225.26 738.73 224.54 738.16 224.39C737.59 224.24 735.87 225.56 735.29 226.05C734.71 226.54 734.44 226.88 734.27 227.67C734.10 228.46 733.99 230.54 734.15 231.31C734.32 232.07 734.90 232.38 735.36 232.75C735.82 233.12 736.25 233.58 737.22 233.80C738.19 234.01 740.87 234.20 741.83 234.20C742.80 234.19 743.17 234.01 743.66 233.75C744.14 233.49 744.86 232.66 745.07 232.47"/><path fill="none" stroke="#d1000d" stroke-width="2.0" stroke-linecap="round" stroke-linejoin="round" d="M743.72 221.23C745.00 221.43 750.98 222.37 752.27 222.58"/><path fill="none" stroke="#d1000d" stroke-width="2.0" stroke-linecap="round" stroke-linejoin="round" d="M749.12 216.73C748.72 217.73 747.07 221.50 746.46 223.38C745.86 225.27 745.28 228.43 745.07 229.32"/><path fill="none" stroke="#d1000d" stroke-width="2.0" stroke-linecap="round" stroke-linejoin="round" d="M758.56 211.79C758.33 211.57 757.55 210.00 757.02 210.35C756.50 210.69 755.40 213.14 755.06 214.09C754.71 215.03 754.59 215.69 754.73 216.64C754.87 217.59 755.60 219.91 756.00 220.44C756.40 220.96 756.98 220.46 757.40 220.16C757.82 219.86 758.24 219.79 758.79 218.41C759.43 216.79 761.21 210.30 761.71 209.32C762.22 208.34 761.95 211.30 762.16 211.86C762.37 212.43 762.56 212.76 763.11 213.07C763.66 213.38 765.22 213.87 765.81 213.92C766.40 213.98 766.68 213.74 767.07 213.42C767.47 213.10 768.25 212.03 768.45 211.79"/><path fill="none" stroke="#d1000d" stroke-width="2.0" stroke-linecap="round" stroke-linejoin="round" d="M769.35 201.89C769.22 201.62 768.40 200.06 768.45 200.09C768.51 200.13 768.89 201.34 769.73 202.15C770.58 202.96 772.99 205.18 774.08 205.48C775.17 205.78 776.49 204.48 777.00 204.14C777.50 203.81 777.38 203.38 777.45 203.24"/><path fill="none" stroke="#d1000d" stroke-width="2.0" stroke-linecap="round" stroke-linejoin="round" d="M772.05 189.75C773.40 191.37 779.69 198.93 781.04 200.54"/><path fill="none" stroke="#d1000d" stroke-width="2.0" stroke-linecap="round" stroke-linejoin="round" d="M773.40 198.75C774.55 197.87 779.90 193.78 781.04 192.90"/><path fill="none" stroke="#d1000d" stroke-width="2.0" stroke-linecap="round" stroke-linejoin="round" d="M779.25 183.46C780.32 184.94 785.36 191.87 786.44 193.35"/><path fill="none" stroke="#d1000d" stroke-width="2.0" stroke-linecap="round" stroke-linejoin="round" d="M786.44 184.36C786.37 184.76 785.17 186.96 785.99 187.05C786.81 187.15 790.94 185.70 791.93 184.97C792.92 184.25 792.62 183.20 792.58 182.22C792.54 181.25 791.97 179.08 791.67 178.46C791.36 177.84 790.60 177.79 790.53 178.08C790.47 178.38 790.35 179.05 791.22 180.42C792.57 182.55 798.12 190.04 799.59 192.31C800.85 194.28 800.70 194.57 800.96 195.54C801.23 196.51 801.41 197.84 801.36 198.76C801.31 199.68 801.24 200.54 800.63 201.67C800.01 202.80 798.11 205.45 797.26 206.29C796.42 207.13 795.33 207.14 794.98 207.29"/><path fill="none" stroke="#d1000d" stroke-width="2.0" stroke-linecap="round" stroke-linejoin="round" d="M750.02 254.95C750.62 255.49 753.46 258.01 754.06 258.55"/><path fill="none" stroke="#d1000d" stroke-width="2.0" stroke-linecap="round" stroke-linejoin="round" d="M746.87 249.11C746.74 248.84 746.11 247.58 745.97 247.31"/><path fill="none" stroke="#d1000d" stroke-width="2.0" stroke-linecap="round" stroke-linejoin="round" d="M754.51 251.35C755.02 251.65 757.52 254.01 757.90 253.30C758.28 252.58 757.05 247.78 757.06 246.59C757.06 245.60 757.29 245.54 757.96 245.40C758.63 245.26 760.49 245.19 761.53 245.67C762.56 246.16 764.36 248.21 764.86 248.66"/><path fill="none" stroke="#d1000d" stroke-width="2.0" stroke-linecap="round" stroke-linejoin="round" d="M754.51 272.94C755.16 273.53 758.01 277.26 758.80 276.90C759.58 276.55 759.42 271.49 759.75 270.57C760.03 269.78 760.31 270.24 760.99 270.72C762.16 271.55 766.57 275.28 767.55 276.09"/><path fill="none" stroke="#d1000d" stroke-width="2.0" stroke-linecap="round" stroke-linejoin="round" d="M771.15 265.29C770.82 265.40 769.34 265.56 768.91 265.97C768.49 266.38 768.29 267.12 768.33 268.03C768.37 268.93 768.86 271.28 769.17 272.00C769.48 272.72 770.05 272.76 770.41 272.83C770.78 272.89 771.27 272.74 771.61 272.44C771.94 272.14 772.37 271.79 772.63 270.84C772.90 269.89 773.34 267.22 773.40 266.09C773.45 264.96 772.52 263.15 773.01 263.28C773.49 263.42 775.57 266.36 776.65 266.99C777.72 267.63 779.62 267.46 780.14 267.54"/><path fill="none" stroke="#d1000d" stroke-width="2.0" stroke-linecap="round" stroke-linejoin="round" d="M777.00 258.10C777.80 258.91 781.80 263.42 782.35 263.49C782.90 263.56 780.84 259.90 780.65 258.55C780.45 257.20 780.98 255.11 781.04 254.50"/><path fill="none" stroke="#d1000d" stroke-width="2.0" stroke-linecap="round" stroke-linejoin="round" d="M784.64 253.60C784.89 253.87 786.12 256.00 786.28 255.39C786.44 254.77 785.49 250.29 785.70 249.50C785.90 248.71 786.94 249.56 787.66 250.12C788.39 250.68 790.08 252.93 790.50 253.25C790.93 253.57 790.49 252.42 790.49 252.27C790.49 252.25 790.49 252.26 790.49 252.24C790.36 251.64 789.53 249.08 789.66 248.24C789.78 247.40 790.55 246.70 791.34 246.67C792.13 246.63 793.86 247.39 794.92 248.00C795.99 248.61 797.94 250.56 798.42 250.73C798.90 250.91 798.24 249.59 798.13 249.14C798.02 248.69 797.71 248.27 797.71 247.72C797.71 247.18 798.07 245.84 798.13 245.51"/><path fill="none" stroke="#d1000d" stroke-width="2.0" stroke-linecap="round" stroke-linejoin="round" d="M804.88 240.11C804.47 239.91 802.34 238.26 802.18 238.76C802.02 239.27 803.36 243.02 803.80 243.45C804.25 243.89 805.00 242.36 805.16 241.66C805.32 240.96 804.92 239.20 804.88 238.76"/><path fill="none" stroke="#d1000d" stroke-width="2.0" stroke-linecap="round" stroke-linejoin="round" d="M808.47 234.27C808.88 235.01 810.77 239.25 811.17 239.21C811.57 239.18 810.74 234.88 811.15 234.03C811.56 233.18 813.05 233.20 813.92 233.53C814.80 233.86 816.32 235.84 816.98 236.22C817.65 236.60 818.16 236.09 818.36 236.07"/><path fill="none" stroke="#d1000d" stroke-width="2.0" stroke-linecap="round" stroke-linejoin="round" d="M818.36 229.77C818.84 230.24 821.04 232.45 821.51 232.92"/><path fill="none" stroke="#d1000d" stroke-width="2.0" stroke-linecap="round" stroke-linejoin="round" d="M814.32 227.07C814.45 226.94 815.08 226.31 815.22 226.17"/><path fill="none" stroke="#d1000d" stroke-width="2.0" stroke-linecap="round" stroke-linejoin="round" d="M826.46 221.68C826.87 222.66 828.18 227.30 829.19 228.25C830.20 229.19 832.60 228.01 833.20 227.97"/>
</svg>