<?xml version="1.0" encoding="UTF-8"?>
<!DOCTYPE svg PUBLIC "-//W3C//DTD SVG 1.1//EN" "http://www.w3.org/Graphics/SVG/1.1/DTD/svg11.dtd">
<svg  xmlns="http://www.w3.org/2000/svg" xmlns:xlink="http://www.w3.org/1999/xlink" viewport-fill="none" viewBox="0.0, 0.0, 736.552490234375, 406.5265197753906" version="1.1" height="406.5265197753906" width="736.552490234375">
<path fill="none" stroke="#823ede" stroke-width="5.0" stroke-linecap="round" stroke-linejoin="round" d="M557.09 359.26C556.48 359.13 553.84 358.31 553.06 358.41C552.27 358.52 552.07 359.35 551.85 359.97C551.64 360.60 551.51 361.72 551.64 362.58C551.77 363.45 552.21 364.86 552.70 365.75C553.18 366.64 554.12 367.90 554.88 368.50C555.64 369.10 556.96 369.69 557.76 369.76C558.56 369.83 559.64 369.45 560.19 368.98C560.74 368.50 561.22 367.47 561.42 366.59C561.62 365.72 561.78 364.09 561.54 363.13C561.31 362.16 560.59 361.01 559.85 360.16C559.12 359.31 557.12 357.87 556.64 357.46"/><path fill="none" stroke="#823ede" stroke-width="5.0" stroke-linecap="round" stroke-linejoin="round" d="M563.83 351.62C563.81 351.52 563.45 350.67 563.70 351.00C564.33 351.85 567.04 356.17 568.01 357.28C568.98 358.38 569.59 358.29 570.16 358.38C570.74 358.48 571.41 359.01 571.84 357.93C572.29 356.80 572.36 351.74 573.14 350.86C573.93 349.98 576.16 351.92 577.07 352.07C577.98 352.21 578.74 352.11 579.22 351.84C579.70 351.58 580.21 350.87 580.27 350.29C580.34 349.71 580.04 348.72 579.67 347.98C579.30 347.24 578.77 346.14 577.81 345.34C576.85 344.53 574.02 343.10 573.28 342.62C572.92 342.39 572.89 342.24 572.83 342.17"/><path fill="none" stroke="#823ede" stroke-width="5.0" stroke-linecap="round" stroke-linejoin="round" d="M525.16 370.50C525.03 370.50 524.52 370.35 524.26 370.50C524.00 370.65 523.00 370.75 523.44 371.50C524.90 373.99 533.02 385.99 534.00 387.11C534.98 388.23 530.98 381.48 529.97 378.97C528.95 376.45 527.49 371.76 527.24 370.34C527.08 369.43 527.49 369.08 528.32 369.47C530.44 370.48 538.74 375.72 541.37 377.06C543.99 378.40 544.78 378.35 545.82 378.43C546.86 378.50 547.92 378.17 548.32 377.59C548.71 377.01 548.71 375.65 548.43 374.54C548.15 373.43 547.18 371.52 546.43 370.17C545.69 368.82 544.70 367.19 543.48 365.54C542.27 363.89 539.06 359.97 538.33 359.16C537.87 358.64 538.60 360.01 538.65 360.16"/><path fill="none" stroke="#823ede" stroke-width="5.0" stroke-linecap="round" stroke-linejoin="round" d="M624.09 311.15C624.49 311.21 625.92 311.78 626.78 311.54C627.65 311.30 629.31 310.13 629.86 309.57C630.40 309.01 630.40 308.33 630.42 307.81C630.43 307.30 630.27 306.54 629.96 306.15C629.66 305.76 628.95 305.28 628.38 305.20C627.81 305.11 626.78 305.20 626.18 305.58C625.57 305.95 624.73 306.88 624.34 307.70C623.94 308.53 623.52 310.06 623.53 311.09C623.54 312.13 623.95 313.61 624.39 314.60C624.84 315.60 625.66 317.12 626.50 317.72C627.34 318.32 628.94 318.84 630.00 318.59C631.05 318.35 632.73 316.94 633.53 316.09C634.33 315.25 635.06 313.42 635.33 312.95"/><path fill="none" stroke="#823ede" stroke-width="5.0" stroke-linecap="round" stroke-linejoin="round" d="M610.60 322.84C610.47 322.64 609.84 321.95 609.76 321.52C609.69 321.09 609.78 320.57 610.10 319.96C610.41 319.35 610.57 318.71 611.86 317.45C613.15 316.20 617.26 312.61 618.69 311.60C620.12 310.58 620.98 310.83 621.39 310.70"/><path fill="none" stroke="#823ede" stroke-width="5.0" stroke-linecap="round" stroke-linejoin="round" d="M607.45 308.90C607.19 308.83 605.50 308.19 605.72 308.45C605.93 308.71 607.36 309.14 608.87 310.62C610.37 312.10 614.06 315.85 615.74 318.29C617.41 320.73 619.39 325.59 620.04 326.88"/><path fill="none" stroke="#823ede" stroke-width="5.0" stroke-linecap="round" stroke-linejoin="round" d="M665.90 299.01C666.46 299.69 670.06 304.10 669.61 303.58C669.16 303.05 664.51 297.66 662.92 295.53C661.33 293.39 660.04 291.29 659.02 289.31C658.01 287.34 656.70 284.30 656.16 282.35C655.61 280.40 655.26 277.81 655.39 276.31C655.52 274.82 656.29 273.13 657.00 272.37C657.70 271.60 659.18 271.11 660.09 271.22C661.00 271.33 662.24 272.27 663.05 273.11C663.86 273.95 665.04 275.50 665.50 276.80C665.96 278.09 666.40 280.05 666.12 281.76C665.85 283.48 664.03 287.25 663.66 288.21"/><path fill="none" stroke="#823ede" stroke-width="5.0" stroke-linecap="round" stroke-linejoin="round" d="M634.88 299.46C635.61 300.57 639.21 306.59 639.77 306.85C640.33 307.11 638.74 303.05 638.61 301.17C638.48 299.30 638.65 295.47 638.91 294.34C639.15 293.29 639.85 293.51 640.36 293.62C640.87 293.74 641.50 294.13 642.30 295.14C643.11 296.14 645.22 300.86 645.71 300.31C646.19 299.76 645.45 293.17 645.53 291.48C645.62 289.80 645.98 289.56 646.28 289.05C646.57 288.54 646.66 287.43 647.49 288.06C648.47 288.81 652.06 293.16 652.86 294.06"/><path fill="none" stroke="#823ede" stroke-width="5.0" stroke-linecap="round" stroke-linejoin="round" d="M619.59 392.08C619.73 392.52 620.12 394.18 620.55 395.00C620.97 395.82 621.48 396.56 622.41 397.53C623.35 398.51 626.13 400.93 626.78 401.53"/><path fill="none" stroke="#823ede" stroke-width="5.0" stroke-linecap="round" stroke-linejoin="round" d="M674.00 342.62C673.42 342.75 670.98 343.05 670.18 343.49C669.38 343.93 668.96 344.72 668.69 345.54C668.43 346.35 668.35 347.87 668.41 348.93C668.46 349.99 668.66 351.60 669.05 352.63C669.45 353.65 670.35 355.04 671.01 355.79C671.68 356.53 672.73 357.36 673.50 357.61C674.27 357.85 675.45 357.80 676.16 357.43C676.87 357.06 677.74 356.02 678.22 355.15C678.70 354.28 679.22 352.76 679.36 351.63C679.49 350.51 679.46 348.72 679.13 347.63C678.80 346.55 677.78 345.17 677.14 344.42C676.51 343.67 675.23 342.89 674.90 342.62"/><path fill="none" stroke="#823ede" stroke-width="5.0" stroke-linecap="round" stroke-linejoin="round" d="M615.54 387.14C615.33 386.82 614.06 385.32 614.13 384.99C614.20 384.65 615.71 384.90 615.99 384.89"/><path fill="none" stroke="#823ede" stroke-width="5.0" stroke-linecap="round" stroke-linejoin="round" d="M661.41 352.06C661.08 352.20 659.71 352.62 659.22 353.00C658.74 353.37 658.34 353.88 658.19 354.57C658.03 355.26 657.64 356.20 658.17 357.60C658.70 358.99 660.63 362.62 661.72 363.86C662.80 365.10 664.32 365.62 665.42 365.87C666.52 366.13 668.24 365.80 669.05 365.55C669.87 365.30 670.58 364.41 670.85 364.21"/><path fill="none" stroke="#823ede" stroke-width="5.0" stroke-linecap="round" stroke-linejoin="round" d="M679.84 335.43C680.69 336.92 684.98 344.73 685.48 345.36C685.98 345.99 683.66 341.70 683.18 339.63C682.70 337.56 682.20 332.93 682.28 331.55C682.35 330.34 683.14 330.40 683.69 330.40C684.24 330.41 684.81 330.63 685.97 331.56C687.14 332.50 690.24 335.79 691.44 336.61C692.64 337.44 693.26 337.30 693.98 337.05C694.71 336.81 695.70 335.94 696.30 334.97C696.90 334.00 697.62 332.05 697.99 330.58C698.35 329.12 698.67 326.77 698.73 325.20C698.78 323.62 698.64 321.37 698.38 320.09C698.11 318.80 697.46 317.33 696.95 316.63C696.44 315.94 695.56 315.51 694.96 315.43C694.36 315.35 693.43 315.68 692.97 316.10C692.52 316.53 692.06 317.55 691.92 318.28C691.77 319.00 691.70 320.16 691.99 320.93C692.28 321.71 693.05 322.74 693.82 323.42C694.59 324.10 695.22 324.65 697.11 325.46C698.99 326.28 705.06 328.15 706.40 328.85C707.19 329.26 706.77 329.61 706.04 330.13C705.23 330.71 701.74 332.34 700.98 332.73"/><path fill="none" stroke="#823ede" stroke-width="5.0" stroke-linecap="round" stroke-linejoin="round" d="M707.72 299.46C708.54 300.77 711.97 306.10 713.17 308.19C714.36 310.29 715.22 312.18 715.68 313.43C716.15 314.68 716.18 316.08 716.26 316.54"/><path fill="none" stroke="#823ede" stroke-width="5.0" stroke-linecap="round" stroke-linejoin="round" d="M632.63 380.84C632.12 380.52 630.08 378.88 629.26 378.70C628.44 378.53 627.70 379.23 627.16 379.68C626.61 380.13 625.89 381.02 625.60 381.71C625.32 382.41 625.15 383.57 625.25 384.33C625.35 385.08 625.74 386.16 626.26 386.73C626.79 387.31 626.85 388.11 628.76 388.14C631.15 388.18 640.05 387.00 642.15 386.99C642.99 386.99 642.79 387.68 642.78 388.08C642.78 388.48 642.97 388.90 642.12 389.66C641.00 390.66 636.35 394.01 635.33 394.78"/><path fill="none" stroke="#823ede" stroke-width="5.0" stroke-linecap="round" stroke-linejoin="round" d="M731.55 304.40C731.55 304.40 731.55 304.40 731.55 304.40"/><path fill="none" stroke="#823ede" stroke-width="5.0" stroke-linecap="round" stroke-linejoin="round" d="M705.92 311.15C705.97 311.02 705.73 310.64 706.22 310.30C708.24 308.88 717.43 302.99 719.41 301.70"/>
</svg>