<?xml version="1.0" encoding="UTF-8"?>
<!DOCTYPE svg PUBLIC "-//W3C//DTD SVG 1.1//EN" "http://www.w3.org/Graphics/SVG/1.1/DTD/svg11.dtd">
<svg  xmlns="http://www.w3.org/2000/svg" xmlns:xlink="http://www.w3.org/1999/xlink" viewport-fill="none" viewBox="0.0, 0.0, 917.5586857131104, 293.87396240234375" version="1.1" height="293.87396240234375" width="917.5586857131104">
<path fill="none" stroke="#d1000d" stroke-width="2.0" stroke-linecap="round" stroke-linejoin="round" d="M870.60 291.87C875.52 288.03 897.50 271.85 903.42 266.24C909.35 260.64 908.55 258.30 910.11 254.51C911.68 250.71 913.07 245.21 913.88 240.95C914.69 236.70 915.81 233.03 915.51 226.13C915.21 219.23 913.02 201.92 911.87 194.97C910.72 188.03 909.41 184.25 907.84 179.80C906.27 175.35 903.72 169.44 901.38 165.29C899.04 161.14 895.26 155.87 892.26 152.13C889.25 148.39 884.88 143.74 881.37 140.33C877.86 136.93 872.72 132.53 868.83 129.43C864.94 126.33 861.40 123.54 855.43 119.66C849.46 115.78 836.50 107.78 829.02 103.55C821.54 99.32 813.04 95.13 805.57 91.47C798.09 87.81 784.02 81.48 779.21 79.16C775.27 77.25 775.83 77.42 773.49 75.94C771.15 74.45 763.27 68.28 763.62 69.26C763.97 70.25 775.80 82.39 775.85 82.50C775.90 82.62 765.95 72.24 763.97 70.03C762.83 68.76 762.62 68.31 762.69 67.82C762.75 67.32 763.54 66.91 764.42 66.72C765.31 66.52 765.81 66.65 768.59 66.51C771.63 66.36 781.62 66.02 784.71 65.70C787.81 65.38 788.54 64.55 789.21 64.35"/><path fill="none" stroke="#d1000d" stroke-width="2.0" stroke-linecap="round" stroke-linejoin="round" d="M647.57 41.87C648.58 43.16 653.15 49.30 654.31 50.50C654.87 51.08 655.05 50.54 655.34 49.85C655.62 49.17 655.48 46.17 656.20 45.96C656.92 45.75 659.22 48.01 660.12 48.44C661.01 48.87 661.70 48.92 662.18 48.83C662.66 48.73 663.19 48.32 663.32 47.83C663.45 47.35 663.66 46.76 663.05 45.60C662.45 44.43 660.36 41.32 659.28 40.05C658.21 38.77 656.30 37.49 655.89 37.09C655.55 36.74 656.46 37.33 656.56 37.37"/><path fill="none" stroke="#d1000d" stroke-width="2.0" stroke-linecap="round" stroke-linejoin="round" d="M666.01 66.60C665.27 66.82 662.01 67.49 661.09 68.08C660.16 68.67 660.00 69.88 659.84 70.52C659.68 71.16 659.85 71.88 660.01 72.36C660.17 72.84 660.44 73.45 660.93 73.74C661.41 74.03 661.95 74.29 663.26 74.30C664.58 74.31 668.55 73.83 669.68 73.79C670.43 73.76 670.59 73.88 670.78 74.02C670.97 74.17 671.21 74.35 670.92 74.77C670.58 75.25 669.49 76.54 668.48 77.27C667.48 78.00 664.85 79.28 664.21 79.64"/><path fill="none" stroke="#d1000d" stroke-width="2.0" stroke-linecap="round" stroke-linejoin="round" d="M665.11 42.32C665.51 40.97 667.31 33.54 667.81 33.32C668.30 33.11 667.92 39.60 668.40 40.88C668.87 42.16 670.37 41.99 670.95 41.87C671.54 41.75 672.10 40.34 672.30 40.07"/><path fill="none" stroke="#d1000d" stroke-width="2.0" stroke-linecap="round" stroke-linejoin="round" d="M674.10 65.70C673.76 65.63 672.06 64.37 671.85 65.25C671.65 66.13 672.38 70.53 672.72 71.57C673.03 72.54 673.58 72.50 674.11 72.18C674.64 71.86 675.92 70.09 676.26 69.44C676.60 68.79 676.57 68.34 676.38 67.85C676.19 67.36 675.21 66.40 675.00 66.15"/><path fill="none" stroke="#d1000d" stroke-width="2.0" stroke-linecap="round" stroke-linejoin="round" d="M673.20 55.36C673.30 55.74 673.17 56.49 673.88 57.89C674.59 59.29 676.85 63.10 677.97 64.67C679.08 66.25 680.80 67.84 681.29 68.40"/><path fill="none" stroke="#d1000d" stroke-width="2.0" stroke-linecap="round" stroke-linejoin="round" d="M678.60 59.85C678.46 59.65 676.81 58.08 677.70 58.51C678.58 58.93 683.17 62.01 684.50 62.66C685.77 63.27 686.21 63.28 686.61 62.81C687.02 62.35 687.73 60.95 687.21 59.56C686.68 58.17 683.71 54.46 683.09 53.56"/><path fill="none" stroke="#d1000d" stroke-width="2.0" stroke-linecap="round" stroke-linejoin="round" d="M720.41 16.69C721.43 17.50 725.80 20.85 727.17 22.13C728.54 23.42 729.32 25.43 729.54 25.26C729.77 25.09 728.61 22.44 728.69 20.98C728.76 19.53 729.56 16.37 730.03 15.57C730.49 14.77 731.01 15.11 731.80 15.63C732.60 16.16 734.60 18.50 735.32 19.07C736.01 19.61 736.41 19.34 736.60 19.39C736.60 19.39 736.60 19.39 736.60 19.39"/><path fill="none" stroke="#d1000d" stroke-width="2.0" stroke-linecap="round" stroke-linejoin="round" d="M689.84 56.26C690.04 55.85 691.30 54.50 691.19 53.56C691.07 52.62 689.51 50.43 689.08 49.98C688.65 49.53 688.45 49.94 688.31 50.58C688.17 51.24 687.97 53.49 688.14 54.40C688.30 55.32 688.94 56.16 689.40 56.68C689.86 57.20 690.63 57.63 691.23 57.87C691.83 58.11 692.75 58.33 693.42 58.29C694.09 58.24 694.94 58.21 695.68 57.57C696.43 56.93 697.98 54.54 698.38 54.01"/><path fill="none" stroke="#d1000d" stroke-width="2.0" stroke-linecap="round" stroke-linejoin="round" d="M695.68 33.32C696.94 35.05 703.01 43.35 704.03 44.81C704.93 46.08 703.20 43.54 702.54 43.01C701.89 42.48 700.50 41.49 699.68 41.28C698.87 41.06 697.68 41.06 697.13 41.57C696.57 42.07 695.96 43.56 695.99 44.66C696.02 45.76 696.89 48.03 697.33 48.90C697.77 49.76 698.39 50.10 698.93 50.41C699.47 50.72 700.05 51.17 700.92 50.97C701.78 50.77 703.91 49.69 704.68 49.06C705.44 48.44 705.82 47.15 706.03 46.81"/><path fill="none" stroke="#d1000d" stroke-width="2.0" stroke-linecap="round" stroke-linejoin="round" d="M714.12 21.63C714.72 22.37 716.62 25.23 718.09 26.53C719.56 27.83 723.23 29.66 723.91 30.28C724.56 30.85 722.85 30.57 722.66 30.63"/><path fill="none" stroke="#d1000d" stroke-width="2.0" stroke-linecap="round" stroke-linejoin="round" d="M712.32 31.53C713.80 30.11 720.73 23.50 722.21 22.08"/><path fill="none" stroke="#d1000d" stroke-width="2.0" stroke-linecap="round" stroke-linejoin="round" d="M677.25 105.72C677.97 104.30 681.47 98.06 682.05 96.24C682.62 94.46 681.70 93.74 681.13 93.59C680.56 93.45 678.84 94.76 678.26 95.25C677.67 95.74 677.41 96.08 677.24 96.87C677.07 97.66 676.96 99.75 677.12 100.51C677.28 101.27 677.87 101.58 678.33 101.95C678.79 102.33 679.22 102.78 680.19 103.00C681.16 103.21 683.84 103.40 684.80 103.40C685.77 103.39 686.14 103.21 686.63 102.95C687.11 102.70 687.83 101.86 688.04 101.67"/><path fill="none" stroke="#d1000d" stroke-width="2.0" stroke-linecap="round" stroke-linejoin="round" d="M737.50 11.74C737.57 12.01 737.61 13.00 737.95 13.54C738.29 14.08 739.48 15.07 739.75 15.34"/><path fill="none" stroke="#d1000d" stroke-width="2.0" stroke-linecap="round" stroke-linejoin="round" d="M744.70 4.10C744.29 4.10 741.90 3.62 742.00 4.10C742.10 4.58 743.77 6.46 745.37 7.28C746.97 8.10 751.58 9.10 752.64 9.57C753.17 9.81 752.87 10.04 752.43 10.41C751.64 11.07 748.15 13.45 747.39 13.99"/><path fill="none" stroke="#d1000d" stroke-width="2.0" stroke-linecap="round" stroke-linejoin="round" d="M686.69 90.43C687.97 90.63 693.95 91.58 695.23 91.78"/><path fill="none" stroke="#d1000d" stroke-width="2.0" stroke-linecap="round" stroke-linejoin="round" d="M732.56 7.24C732.76 6.98 733.70 5.72 733.90 5.45"/><path fill="none" stroke="#d1000d" stroke-width="2.0" stroke-linecap="round" stroke-linejoin="round" d="M692.09 85.93C691.69 86.93 690.04 90.70 689.43 92.59C688.82 94.47 688.25 97.63 688.04 98.52"/><path fill="none" stroke="#d1000d" stroke-width="2.0" stroke-linecap="round" stroke-linejoin="round" d="M701.53 80.99C701.30 80.77 700.52 79.20 699.99 79.55C699.47 79.89 698.37 82.35 698.02 83.29C697.68 84.23 697.56 84.89 697.70 85.84C697.84 86.80 698.57 89.11 698.97 89.64C699.37 90.17 699.95 89.67 700.37 89.36C700.79 89.06 701.20 88.99 701.75 87.61C702.40 85.99 704.18 79.51 704.68 78.52C705.19 77.54 704.91 80.50 705.12 81.06C705.33 81.63 705.53 81.97 706.08 82.28C706.63 82.58 708.18 83.07 708.78 83.13C709.37 83.18 709.64 82.94 710.04 82.62C710.44 82.30 711.21 81.23 711.42 80.99"/><path fill="none" stroke="#d1000d" stroke-width="2.0" stroke-linecap="round" stroke-linejoin="round" d="M692.99 124.15C693.59 124.69 696.43 127.21 697.03 127.75"/><path fill="none" stroke="#d1000d" stroke-width="2.0" stroke-linecap="round" stroke-linejoin="round" d="M729.41 53.56C729.34 53.96 728.13 56.16 728.96 56.26C729.78 56.35 733.91 54.90 734.90 54.17C735.89 53.45 735.59 52.40 735.55 51.43C735.51 50.45 734.94 48.28 734.63 47.66C734.33 47.04 733.57 46.99 733.50 47.29C733.43 47.58 733.31 48.25 734.18 49.62C735.54 51.75 741.09 59.24 742.55 61.51C743.82 63.48 743.67 63.77 743.93 64.74C744.20 65.71 744.38 67.04 744.33 67.96C744.28 68.88 744.21 69.75 743.59 70.88C742.98 72.01 741.08 74.65 740.23 75.49C739.39 76.34 738.29 76.34 737.95 76.49"/><path fill="none" stroke="#d1000d" stroke-width="2.0" stroke-linecap="round" stroke-linejoin="round" d="M716.37 67.95C717.51 67.07 722.87 62.98 724.01 62.10"/><path fill="none" stroke="#d1000d" stroke-width="2.0" stroke-linecap="round" stroke-linejoin="round" d="M715.02 58.95C716.37 60.57 722.66 68.13 724.01 69.75"/><path fill="none" stroke="#d1000d" stroke-width="2.0" stroke-linecap="round" stroke-linejoin="round" d="M722.21 52.66C723.29 54.14 728.33 61.07 729.41 62.55"/><path fill="none" stroke="#d1000d" stroke-width="2.0" stroke-linecap="round" stroke-linejoin="round" d="M712.32 71.10C712.19 70.83 711.36 69.26 711.42 69.30C711.48 69.34 711.85 70.54 712.70 71.35C713.54 72.16 715.96 74.38 717.05 74.68C718.14 74.98 719.46 73.68 719.96 73.34C720.47 73.01 720.35 72.58 720.41 72.44"/><path fill="none" stroke="#d1000d" stroke-width="2.0" stroke-linecap="round" stroke-linejoin="round" d="M747.84 109.32C747.44 109.11 745.31 107.47 745.15 107.97C744.98 108.47 746.32 112.22 746.77 112.66C747.22 113.09 747.97 111.56 748.13 110.86C748.29 110.16 747.89 108.40 747.84 107.97"/><path fill="none" stroke="#d1000d" stroke-width="2.0" stroke-linecap="round" stroke-linejoin="round" d="M727.61 122.81C727.86 123.07 729.09 125.20 729.25 124.59C729.41 123.97 728.46 119.50 728.67 118.71C728.87 117.92 729.91 118.76 730.63 119.32C731.35 119.89 733.05 122.13 733.47 122.45C733.89 122.78 733.46 121.63 733.45 121.47C733.45 121.45 733.46 121.46 733.45 121.44C733.33 120.84 732.50 118.28 732.62 117.44C732.75 116.61 733.51 115.91 734.30 115.87C735.09 115.83 736.83 116.59 737.89 117.20C738.95 117.81 740.91 119.77 741.39 119.94C741.87 120.11 741.20 118.80 741.10 118.35C740.99 117.89 740.68 117.47 740.68 116.93C740.68 116.38 741.04 115.04 741.10 114.71"/><path fill="none" stroke="#d1000d" stroke-width="2.0" stroke-linecap="round" stroke-linejoin="round" d="M689.84 118.31C689.70 118.04 689.07 116.78 688.94 116.51"/><path fill="none" stroke="#d1000d" stroke-width="2.0" stroke-linecap="round" stroke-linejoin="round" d="M714.12 134.50C713.78 134.60 712.30 134.76 711.88 135.18C711.46 135.59 711.26 136.33 711.30 137.23C711.34 138.13 711.83 140.48 712.14 141.20C712.45 141.92 713.02 141.97 713.38 142.03C713.75 142.10 714.24 141.94 714.57 141.64C714.91 141.34 715.33 140.99 715.60 140.04C715.87 139.09 716.31 136.42 716.37 135.29C716.42 134.16 715.49 132.35 715.97 132.49C716.46 132.62 718.54 135.56 719.61 136.20C720.68 136.84 722.59 136.66 723.11 136.74"/><path fill="none" stroke="#d1000d" stroke-width="2.0" stroke-linecap="round" stroke-linejoin="round" d="M697.48 142.14C698.12 142.73 700.98 146.46 701.76 146.10C702.55 145.75 702.39 140.70 702.72 139.77C703.00 138.98 703.28 139.44 703.96 139.92C705.13 140.75 709.54 144.48 710.52 145.29"/><path fill="none" stroke="#d1000d" stroke-width="2.0" stroke-linecap="round" stroke-linejoin="round" d="M719.96 127.30C720.77 128.11 724.77 132.62 725.32 132.69C725.87 132.76 723.81 129.10 723.62 127.75C723.42 126.40 723.95 124.31 724.01 123.70"/><path fill="none" stroke="#d1000d" stroke-width="2.0" stroke-linecap="round" stroke-linejoin="round" d="M697.48 120.56C697.99 120.85 700.48 123.22 700.87 122.50C701.25 121.79 700.02 116.98 700.03 115.79C700.03 114.80 700.25 114.74 700.92 114.60C701.59 114.47 703.46 114.39 704.49 114.88C705.53 115.36 707.32 117.41 707.82 117.86"/><path fill="none" stroke="#d1000d" stroke-width="2.0" stroke-linecap="round" stroke-linejoin="round" d="M761.33 98.97C761.80 99.45 764.01 101.65 764.48 102.12"/><path fill="none" stroke="#d1000d" stroke-width="2.0" stroke-linecap="round" stroke-linejoin="round" d="M751.44 103.47C751.85 104.21 753.74 108.45 754.14 108.42C754.54 108.38 753.71 104.09 754.12 103.23C754.53 102.38 756.02 102.41 756.89 102.73C757.77 103.06 759.29 105.04 759.95 105.42C760.62 105.80 761.13 105.29 761.33 105.27"/><path fill="none" stroke="#d1000d" stroke-width="2.0" stroke-linecap="round" stroke-linejoin="round" d="M769.43 90.88C769.84 91.87 771.15 96.50 772.16 97.45C773.17 98.39 775.57 97.22 776.17 97.18"/><path fill="none" stroke="#d1000d" stroke-width="2.0" stroke-linecap="round" stroke-linejoin="round" d="M757.29 96.28C757.42 96.14 758.05 95.51 758.19 95.38"/>
</svg>