<?xml version="1.0" encoding="UTF-8"?>
<!DOCTYPE svg PUBLIC "-//W3C//DTD SVG 1.1//EN" "http://www.w3.org/Graphics/SVG/1.1/DTD/svg11.dtd">
<svg  xmlns="http://www.w3.org/2000/svg" xmlns:xlink="http://www.w3.org/1999/xlink" viewport-fill="none" viewBox="0.0, 0.0, 1748.4312341125094, 768.8274240588163" version="1.1" height="768.8274240588163" width="1748.4312341125094">
<path fill="none" stroke="#a4a4a4" stroke-width="5.0" stroke-linecap="round" stroke-linejoin="round" d="M363.74 285.72C363.92 285.74 365.68 285.90 364.90 285.86C357.30 285.45 327.08 283.52 313.04 282.95C299.00 282.39 282.27 282.13 271.29 282.08C260.31 282.03 246.33 282.33 239.85 282.60C233.37 282.87 231.45 283.33 228.11 283.89C224.76 284.46 222.20 284.80 217.53 286.37C212.86 287.94 201.67 292.45 197.00 294.36C192.33 296.27 192.94 296.20 186.37 299.11C179.80 302.02 163.03 309.18 153.19 313.76C143.35 318.34 128.24 325.81 120.75 329.65C113.27 333.50 109.66 335.54 103.28 339.39C96.91 343.24 84.24 351.70 78.26 355.32C72.27 358.95 65.66 362.32 63.39 363.58C63.20 363.68 62.99 363.90 63.09 363.71C64.64 361.05 72.20 348.37 73.67 345.81C74.05 345.15 73.41 346.08 72.92 346.65C71.39 348.44 65.26 355.28 63.46 357.72C61.67 360.17 61.35 362.15 60.96 362.96C60.91 363.06 60.76 363.09 60.87 363.09C63.55 363.07 75.87 362.87 78.86 362.84C80.19 362.83 80.50 362.81 80.85 362.94C81.19 363.07 81.11 363.60 81.16 363.72"/><path fill="none" stroke="#ff9399" stroke-opacity="0.5" stroke-width="20.0" stroke-linecap="round" stroke-linejoin="round" d="M955.46 297.88C955.71 297.79 958.30 297.45 957.14 297.32C955.52 297.14 949.14 296.56 944.69 296.66C940.25 296.75 933.56 297.23 927.51 297.95C921.46 298.67 911.76 299.95 904.36 301.47C896.96 302.99 885.83 305.67 878.17 308.08C870.51 310.49 860.15 314.29 853.29 317.52C846.43 320.75 838.07 325.51 832.44 329.61C826.82 333.71 820.17 339.74 815.80 344.84C811.43 349.94 806.56 357.46 803.31 363.63C800.06 369.79 796.51 378.38 794.15 385.93C791.80 393.49 789.10 405.95 787.60 414.01C786.11 422.07 785.35 428.30 784.18 439.68C783.01 451.06 780.82 479.57 779.81 489.88C778.80 500.19 779.37 496.22 777.44 508.39C775.51 520.56 768.83 558.27 766.92 571.03C765.00 583.80 765.10 587.14 764.68 593.48C764.26 599.83 764.17 607.10 764.13 613.36C764.09 619.62 764.18 628.74 764.43 635.22C764.69 641.70 765.23 650.39 765.83 656.55C766.43 662.71 767.44 670.79 768.43 676.30C769.42 681.81 770.95 688.58 772.42 693.28C773.89 697.99 776.22 703.72 778.23 707.64C780.24 711.57 783.20 716.24 785.81 719.44C788.43 722.64 792.30 726.40 795.65 728.97C799.00 731.54 804.00 734.62 808.14 736.59C812.28 738.57 818.33 740.74 823.24 742.15C828.15 743.56 835.36 745.07 840.88 745.97C846.41 746.87 854.21 747.74 860.04 748.17C865.88 748.60 873.90 748.86 879.77 748.82C885.64 748.79 893.49 748.53 899.17 747.93C904.85 747.34 912.24 746.15 917.66 744.87C923.07 743.58 930.11 741.37 935.26 739.35C940.42 737.33 947.16 734.09 952.03 731.40C956.91 728.71 963.28 724.71 967.75 721.40C972.22 718.08 977.92 713.34 981.82 709.30C985.72 705.26 990.55 699.33 993.74 694.44C996.92 689.55 1000.62 682.63 1003.06 676.67C1005.50 670.72 1008.27 662.05 1010.01 654.76C1011.75 647.47 1013.63 636.58 1014.67 628.09C1015.72 619.60 1016.63 607.68 1016.96 598.16C1017.28 588.64 1017.27 574.99 1016.85 564.61C1016.44 554.22 1015.30 539.58 1014.20 528.90C1013.10 518.23 1011.17 504.10 1009.53 493.44C1007.89 482.78 1005.27 468.04 1003.26 457.85C1001.25 447.66 998.33 434.55 996.13 425.49C993.94 416.44 990.89 405.32 988.63 397.49C986.36 389.65 983.21 379.70 981.02 373.25C978.82 366.79 976.92 361.35 974.00 354.46C971.09 347.57 964.18 332.70 961.59 327.32C958.99 321.94 958.31 320.91 956.72 318.63C955.14 316.35 951.87 313.09 951.01 312.11"/><path fill="none" stroke="#ff9399" stroke-opacity="0.5" stroke-width="20.0" stroke-linecap="round" stroke-linejoin="round" d="M1034.31 389.32C1033.97 389.48 1032.65 390.52 1032.07 390.38C1031.49 390.24 1029.08 389.43 1030.44 388.38C1032.90 386.47 1039.05 382.10 1048.46 377.70C1057.87 373.30 1074.68 365.46 1093.15 359.06C1111.63 352.66 1144.13 342.17 1171.63 335.04C1199.13 327.91 1243.69 317.49 1276.50 311.51C1309.32 305.54 1357.48 298.70 1390.42 295.22C1423.35 291.73 1468.03 289.11 1496.05 288.30C1524.07 287.49 1556.74 288.62 1577.22 289.84C1597.69 291.06 1618.97 294.32 1632.54 296.43C1646.11 298.53 1659.30 301.75 1667.68 303.87C1676.07 306.00 1680.20 307.60 1688.43 310.61C1696.67 313.63 1717.36 321.94 1722.60 323.97C1723.12 324.17 1723.18 324.07 1723.41 324.16C1723.65 324.26 1724.29 325.16 1724.18 324.59C1723.85 322.98 1722.53 317.11 1721.21 313.43C1719.89 309.74 1716.87 303.00 1715.37 300.03C1713.88 297.06 1712.53 295.39 1711.22 293.61C1709.91 291.83 1708.53 290.07 1706.66 288.16C1704.79 286.25 1700.31 282.27 1698.76 280.88C1697.24 279.52 1697.08 279.53 1696.38 278.94C1695.67 278.36 1694.33 276.95 1694.06 277.01C1693.78 277.06 1693.87 277.89 1694.54 279.29C1695.51 281.28 1697.89 286.05 1700.47 290.28C1703.05 294.50 1708.12 302.25 1711.73 307.46C1715.34 312.67 1722.14 321.52 1724.55 325.03C1726.96 328.53 1727.20 329.27 1727.78 330.83C1728.36 332.40 1728.49 334.47 1728.41 335.46C1728.34 336.46 1728.58 336.65 1727.28 337.46C1725.97 338.28 1721.82 340.12 1719.70 340.90C1717.58 341.69 1717.55 341.62 1713.15 342.69C1707.55 344.05 1687.03 348.89 1682.42 349.98"/>
</svg>