<?xml version="1.0" encoding="UTF-8"?>
<!DOCTYPE svg PUBLIC "-//W3C//DTD SVG 1.1//EN" "http://www.w3.org/Graphics/SVG/1.1/DTD/svg11.dtd">
<svg  xmlns="http://www.w3.org/2000/svg" xmlns:xlink="http://www.w3.org/1999/xlink" viewport-fill="none" viewBox="0.0, 0.0, 2702.33544921875, 3271.924072265625" version="1.1" height="3271.924072265625" width="2702.33544921875">
<path fill="none" stroke="#d1000d" stroke-width="5.0" stroke-linecap="round" stroke-linejoin="round" d="M248.54 2717.79C248.48 2717.84 247.94 2718.48 248.13 2718.16C249.29 2716.31 253.61 2709.03 256.24 2705.41C258.88 2701.79 263.62 2696.35 265.69 2694.03C267.76 2691.72 268.20 2691.24 270.03 2689.98C271.85 2688.71 275.52 2686.50 277.84 2685.60C280.16 2684.70 283.83 2684.28 285.47 2683.98C287.11 2683.68 287.51 2683.75 288.77 2683.62C290.03 2683.48 293.00 2683.36 293.88 2683.08C294.76 2682.79 295.05 2682.33 294.64 2681.73C294.23 2681.13 292.74 2679.88 291.16 2679.10C289.59 2678.32 284.66 2676.85 284.14 2676.50C283.62 2676.16 287.01 2676.67 287.71 2676.77C288.41 2676.88 288.39 2676.92 288.81 2677.19C289.24 2677.46 290.11 2677.97 290.57 2678.56C291.02 2679.15 291.56 2680.46 291.83 2681.12C292.10 2681.78 292.36 2682.23 292.36 2682.94C292.35 2683.65 291.86 2685.42 291.78 2685.85"/><path fill="none" stroke="#1eb511" stroke-width="2.0" stroke-linecap="round" stroke-linejoin="round" d="M1980.06 2600.17C1979.75 2601.01 1979.49 2602.58 1977.99 2605.71C1976.49 2608.84 1971.24 2618.29 1970.06 2621.02C1969.30 2622.80 1969.45 2624.03 1970.14 2623.92C1970.83 2623.81 1973.22 2622.50 1974.64 2620.27C1976.06 2618.04 1978.02 2613.77 1979.62 2609.04C1981.21 2604.32 1984.01 2595.29 1985.25 2588.75C1986.48 2582.22 1987.72 2572.38 1987.85 2565.48C1987.98 2558.59 1987.11 2548.54 1986.09 2542.78C1985.08 2537.01 1982.92 2530.07 1981.09 2527.04C1979.27 2524.00 1975.98 2521.82 1973.95 2522.57C1971.91 2523.32 1968.80 2527.50 1967.51 2532.04C1966.22 2536.57 1965.25 2545.77 1965.34 2552.78C1965.43 2559.79 1966.54 2570.81 1968.08 2578.78C1969.63 2586.75 1972.68 2598.98 1975.67 2605.91C1978.66 2612.85 1984.45 2621.91 1988.02 2624.99C1991.58 2628.07 1996.48 2627.39 1999.44 2626.47C2002.40 2625.55 2006.50 2620.00 2007.75 2618.86"/><path fill="none" stroke="#1eb511" stroke-width="2.0" stroke-linecap="round" stroke-linejoin="round" d="M2025.05 2536.50C2024.74 2537.33 2023.54 2538.58 2022.97 2542.04C2022.41 2545.50 2021.20 2554.27 2021.30 2559.54C2021.41 2564.82 2022.98 2572.90 2023.67 2577.20C2024.37 2581.50 2025.32 2586.09 2025.94 2588.20C2026.56 2590.31 2027.11 2593.59 2027.81 2591.29C2029.47 2585.84 2034.83 2559.05 2036.98 2551.89C2038.86 2545.59 2040.42 2544.70 2042.15 2543.49C2043.88 2542.28 2046.74 2541.14 2048.52 2543.80C2050.29 2546.45 2052.40 2555.67 2053.97 2561.22C2055.53 2566.77 2056.97 2575.78 2058.96 2580.80C2060.96 2585.81 2066.02 2592.56 2067.27 2594.64"/><path fill="none" stroke="#1eb511" stroke-width="2.0" stroke-linecap="round" stroke-linejoin="round" d="M2121.25 2467.99C2120.63 2467.26 2118.63 2463.84 2117.10 2463.14C2115.56 2462.45 2113.53 2460.72 2111.01 2463.36C2108.48 2465.99 2103.15 2473.86 2100.25 2480.70C2097.36 2487.55 2093.66 2499.90 2091.73 2508.99C2089.79 2518.08 2087.29 2531.72 2087.35 2541.29C2087.42 2550.87 2089.03 2564.48 2092.15 2572.79C2095.26 2581.11 2102.70 2590.63 2108.10 2596.71C2113.50 2602.79 2125.16 2610.83 2128.17 2613.32"/><path fill="none" stroke="#1eb511" stroke-width="2.0" stroke-linecap="round" stroke-linejoin="round" d="M2164.16 2538.58C2164.06 2536.30 2164.05 2527.47 2163.47 2523.35C2162.88 2519.24 2161.31 2513.79 2160.26 2511.15C2159.21 2508.51 2157.93 2505.75 2156.49 2505.75C2155.05 2505.75 2152.27 2508.65 2150.67 2511.14C2149.07 2513.64 2146.87 2518.50 2145.81 2522.37C2144.75 2526.24 2143.72 2533.10 2143.61 2536.97C2143.50 2540.83 2144.05 2545.98 2145.07 2548.11C2146.09 2550.23 2148.53 2551.51 2150.40 2551.15C2152.27 2550.79 2154.76 2548.91 2157.54 2545.71C2160.32 2542.51 2166.69 2532.62 2168.93 2529.83C2170.80 2527.50 2171.50 2526.15 2172.49 2527.12C2173.48 2528.09 2173.88 2533.44 2175.54 2536.30C2177.19 2539.16 2180.26 2544.92 2183.54 2546.19C2186.81 2547.47 2195.30 2545.02 2197.38 2544.81"/><path fill="none" stroke="#1eb511" stroke-width="2.0" stroke-linecap="round" stroke-linejoin="round" d="M2213.99 2458.30C2213.47 2458.30 2211.32 2457.28 2210.53 2458.30C2209.74 2459.32 2208.26 2460.42 2208.71 2465.09C2209.22 2470.55 2212.63 2489.22 2213.99 2494.68C2215.24 2499.73 2216.47 2500.52 2217.73 2501.53C2218.98 2502.54 2220.82 2502.14 2222.35 2501.42C2223.88 2500.70 2226.22 2497.97 2227.91 2496.73C2229.61 2495.50 2231.91 2493.50 2233.63 2493.19C2235.35 2492.89 2237.84 2493.46 2239.38 2494.68C2240.92 2495.90 2243.00 2498.86 2243.89 2501.32C2244.77 2503.77 2245.22 2508.72 2245.31 2511.04C2245.40 2513.36 2245.54 2516.08 2244.48 2516.79C2243.41 2517.49 2241.02 2516.83 2238.21 2515.74C2235.40 2514.65 2227.62 2510.45 2225.76 2509.51"/><path fill="none" stroke="#1eb511" stroke-width="2.0" stroke-linecap="round" stroke-linejoin="round" d="M2229.91 2414.70C2229.91 2414.49 2229.22 2413.92 2229.91 2413.31C2230.64 2412.66 2231.34 2409.96 2234.78 2410.35C2238.22 2410.75 2247.32 2412.15 2252.86 2415.96C2258.39 2419.76 2267.37 2428.69 2271.71 2435.74C2276.05 2442.79 2279.88 2453.75 2281.79 2462.94C2283.71 2472.13 2286.54 2486.53 2284.49 2496.99C2282.43 2507.44 2274.32 2523.70 2268.11 2532.64C2261.90 2541.58 2248.89 2551.53 2243.06 2556.57C2237.22 2561.62 2231.29 2564.81 2229.22 2566.26"/><path fill="none" stroke="#1eb511" stroke-width="2.0" stroke-linecap="round" stroke-linejoin="round" d="M1942.00 2757.28C1942.00 2757.18 1941.65 2756.89 1942.00 2756.59C1943.56 2755.24 1947.40 2751.19 1952.38 2748.28C1957.36 2745.38 1971.79 2738.87 1975.22 2737.21"/><path fill="none" stroke="#1eb511" stroke-width="2.0" stroke-linecap="round" stroke-linejoin="round" d="M1944.08 2771.12C1943.38 2771.58 1936.15 2775.92 1939.43 2774.19C1945.14 2771.18 1975.73 2754.52 1982.14 2751.05"/><path fill="none" stroke="#1eb511" stroke-width="2.0" stroke-linecap="round" stroke-linejoin="round" d="M2056.89 2756.59C2056.47 2756.28 2054.36 2756.13 2054.12 2754.51C2053.88 2752.89 2053.76 2750.23 2055.28 2745.80C2056.79 2741.38 2061.95 2731.72 2064.23 2725.00C2066.50 2718.28 2069.34 2707.61 2070.43 2701.00C2071.52 2694.39 2071.91 2685.90 2071.50 2680.93C2071.09 2675.97 2069.50 2670.30 2067.72 2667.92C2065.94 2665.54 2062.02 2664.31 2059.67 2665.08C2057.31 2665.84 2053.51 2669.41 2052.02 2673.02C2050.53 2676.62 2049.52 2683.73 2049.72 2689.08C2049.93 2694.44 2051.13 2702.49 2053.40 2708.73C2055.66 2714.97 2060.35 2725.26 2064.82 2730.68C2069.28 2736.09 2077.63 2742.70 2083.19 2744.82C2088.74 2746.94 2099.07 2744.82 2101.87 2744.82"/><path fill="none" stroke="#1eb511" stroke-width="2.0" stroke-linecap="round" stroke-linejoin="round" d="M2114.33 2663.85C2113.91 2664.37 2111.79 2665.00 2111.56 2667.31C2111.33 2669.62 2111.28 2673.31 2112.81 2679.24C2114.34 2685.17 2119.91 2702.40 2121.77 2706.83C2122.78 2709.24 2124.12 2709.56 2125.19 2708.77C2126.27 2707.98 2127.71 2704.57 2128.94 2701.56C2130.16 2698.56 2131.83 2692.30 2133.33 2688.71C2134.84 2685.13 2136.99 2680.40 2138.97 2677.64C2140.95 2674.89 2144.31 2670.44 2146.54 2670.33C2148.77 2670.23 2151.91 2674.17 2153.83 2676.93C2155.74 2679.70 2157.56 2685.74 2159.31 2688.76C2161.07 2691.78 2164.61 2695.82 2165.54 2697.07"/><path fill="none" stroke="#1eb511" stroke-width="2.0" stroke-linecap="round" stroke-linejoin="round" d="M2215.37 2588.41C2214.54 2587.06 2211.76 2581.12 2209.84 2579.41C2207.92 2577.71 2205.11 2576.10 2202.56 2577.05C2200.02 2577.99 2195.60 2581.30 2192.86 2585.71C2190.13 2590.11 2186.02 2599.34 2184.34 2606.44C2182.66 2613.54 2181.83 2624.53 2181.67 2633.05C2181.50 2641.57 2181.37 2654.55 2183.23 2663.25C2185.10 2671.95 2189.78 2684.01 2194.08 2691.05C2198.39 2698.10 2207.89 2706.72 2211.91 2710.22C2215.94 2713.71 2219.56 2713.75 2220.91 2714.37"/><path fill="none" stroke="#1eb511" stroke-width="2.0" stroke-linecap="round" stroke-linejoin="round" d="M2254.82 2619.55C2254.41 2618.72 2253.34 2615.41 2252.05 2614.02C2250.77 2612.62 2248.10 2609.93 2246.23 2610.27C2244.36 2610.60 2241.28 2613.28 2239.59 2616.26C2237.89 2619.23 2235.77 2626.01 2234.93 2630.10C2234.09 2634.20 2233.58 2640.08 2233.99 2643.55C2234.39 2647.01 2236.07 2651.53 2237.63 2653.20C2239.19 2654.88 2242.29 2655.61 2244.38 2654.72C2246.47 2653.83 2249.68 2650.16 2251.57 2647.26C2253.45 2644.36 2255.77 2638.88 2256.95 2635.36C2258.12 2631.85 2259.05 2624.79 2259.40 2623.84C2259.74 2622.89 2258.98 2626.07 2259.26 2629.05C2259.54 2632.02 2259.75 2639.91 2261.27 2643.68C2262.78 2647.44 2267.11 2652.27 2269.36 2654.16C2271.61 2656.04 2275.24 2655.92 2276.28 2656.23"/><path fill="none" stroke="#1eb511" stroke-width="2.0" stroke-linecap="round" stroke-linejoin="round" d="M2264.51 2563.49C2265.76 2563.60 2268.25 2562.53 2272.82 2564.19C2277.39 2565.84 2288.41 2569.86 2294.98 2574.53C2301.54 2579.20 2312.01 2588.16 2316.58 2595.33C2321.14 2602.50 2324.71 2614.33 2325.42 2622.32C2326.12 2630.32 2321.89 2644.68 2321.26 2648.62"/><path fill="none" stroke="#1eb511" stroke-width="2.0" stroke-linecap="round" stroke-linejoin="round" d="M2369.02 2596.71C2369.12 2596.09 2369.13 2593.66 2369.71 2592.56C2370.29 2591.47 2370.91 2590.03 2372.88 2589.40C2374.86 2588.78 2379.09 2588.56 2382.87 2588.41C2386.65 2588.26 2394.04 2588.62 2398.09 2588.41C2402.13 2588.20 2408.09 2587.23 2409.85 2587.03"/><path fill="none" stroke="#1eb511" stroke-width="2.0" stroke-linecap="round" stroke-linejoin="round" d="M2384.24 2560.73C2384.35 2560.73 2384.78 2560.29 2384.94 2560.73C2386.98 2566.34 2394.87 2589.93 2397.88 2598.14C2400.89 2606.34 2403.94 2612.81 2405.01 2615.40"/><path fill="none" stroke="#1eb511" stroke-width="2.0" stroke-linecap="round" stroke-linejoin="round" d="M2454.14 2488.75C2454.56 2488.02 2456.21 2484.23 2456.91 2483.90C2457.62 2483.58 2458.32 2484.63 2458.84 2486.60C2459.36 2488.57 2460.14 2495.49 2460.37 2497.05"/><path fill="none" stroke="#1eb511" stroke-width="2.0" stroke-linecap="round" stroke-linejoin="round" d="M2457.60 2571.80C2459.14 2568.12 2465.58 2554.25 2467.85 2547.27C2470.12 2540.29 2471.60 2532.10 2472.73 2525.25C2473.86 2518.41 2474.97 2508.54 2475.38 2501.64C2475.79 2494.74 2475.80 2485.02 2475.47 2479.27C2475.14 2473.51 2474.03 2466.47 2473.17 2463.29C2472.31 2460.11 2470.87 2457.62 2469.73 2458.08C2468.59 2458.54 2466.59 2462.05 2465.54 2466.35C2464.50 2470.65 2463.12 2479.72 2462.75 2486.74C2462.38 2493.76 2462.70 2504.93 2463.08 2513.17C2463.45 2521.41 2463.55 2534.35 2465.25 2541.67C2466.95 2548.99 2471.09 2558.51 2474.40 2562.00C2477.72 2565.48 2484.17 2565.17 2487.36 2564.88C2490.55 2564.58 2494.42 2560.76 2495.67 2560.03"/><path fill="none" stroke="#1eb511" stroke-width="2.0" stroke-linecap="round" stroke-linejoin="round" d="M2519.20 2480.44C2518.99 2480.34 2518.53 2479.69 2517.82 2479.75C2517.10 2479.81 2515.13 2478.60 2514.46 2480.86C2513.62 2483.65 2512.54 2492.67 2512.26 2498.38C2511.98 2504.08 2512.28 2513.51 2512.62 2518.90C2512.95 2524.29 2513.73 2530.95 2514.51 2534.31C2515.29 2537.68 2516.45 2540.77 2517.81 2541.35C2519.16 2541.93 2520.56 2541.38 2523.54 2538.19C2526.76 2534.74 2535.74 2521.88 2539.25 2518.36C2542.76 2514.84 2544.86 2514.98 2546.92 2514.74C2548.99 2514.50 2551.97 2514.78 2553.02 2516.76C2554.08 2518.74 2553.94 2524.78 2553.96 2527.95C2553.97 2531.11 2553.24 2536.40 2553.11 2537.89"/><path fill="none" stroke="#1eb511" stroke-width="2.0" stroke-linecap="round" stroke-linejoin="round" d="M2591.18 2428.54C2591.39 2428.43 2592.19 2427.76 2592.56 2427.84C2592.93 2427.93 2594.02 2428.06 2593.64 2429.09C2592.69 2431.75 2588.75 2438.94 2586.19 2445.58C2583.63 2452.22 2579.40 2464.72 2576.58 2473.33C2573.77 2481.95 2569.25 2494.48 2567.44 2503.00C2565.64 2511.52 2564.13 2524.06 2564.58 2530.12C2565.02 2536.19 2568.92 2540.81 2570.42 2543.42C2571.91 2546.04 2573.94 2546.95 2574.57 2547.58"/><path fill="none" stroke="#1eb511" stroke-width="2.0" stroke-linecap="round" stroke-linejoin="round" d="M2596.71 2465.22C2597.05 2464.17 2598.02 2459.36 2598.94 2458.21C2599.87 2457.06 2601.94 2456.56 2602.89 2457.54C2603.83 2458.51 2604.35 2460.48 2605.24 2464.72C2606.14 2468.96 2607.94 2481.27 2608.86 2485.78C2609.78 2490.29 2610.52 2492.61 2611.35 2494.79C2612.18 2496.97 2613.47 2499.00 2614.40 2500.34C2615.32 2501.68 2616.82 2502.64 2617.51 2503.72C2618.20 2504.80 2619.04 2506.13 2618.98 2507.53C2618.92 2508.94 2618.11 2511.34 2617.11 2513.08C2616.12 2514.81 2614.06 2517.60 2612.35 2519.11C2610.65 2520.62 2607.83 2522.31 2605.77 2523.17C2603.71 2524.04 2600.50 2525.16 2598.63 2524.89C2596.76 2524.62 2594.42 2522.75 2593.30 2521.38C2592.19 2520.01 2591.50 2516.59 2591.18 2515.74"/><path fill="none" stroke="#d1000d" stroke-width="2.5" stroke-linecap="round" stroke-linejoin="round" d="M2200.15 3056.95C2200.04 3057.01 2199.27 3057.86 2199.46 3057.36C2199.90 3056.16 2202.12 3052.27 2203.14 3049.00C2204.15 3045.73 2205.43 3040.28 2206.20 3035.57C2206.97 3030.86 2208.05 3023.34 2208.28 3017.60C2208.51 3011.87 2208.39 3003.05 2207.74 2997.32C2207.09 2991.59 2205.45 2983.73 2203.96 2979.42C2202.47 2975.11 2199.73 2970.84 2197.80 2968.61C2195.87 2966.38 2192.85 2964.52 2191.10 2964.56C2189.35 2964.60 2187.10 2966.46 2186.12 2968.86C2185.14 2971.27 2184.39 2976.35 2184.56 2980.60C2184.73 2984.84 2185.79 2991.79 2187.27 2997.16C2188.75 3002.54 2191.88 3010.85 2194.43 3016.43C2196.99 3022.01 2201.08 3029.47 2204.30 3034.34C2207.53 3039.21 2212.55 3046.24 2215.92 3048.88C2219.29 3051.53 2224.17 3052.01 2226.79 3051.97C2229.40 3051.94 2231.55 3050.50 2233.37 3048.65C2235.19 3046.80 2238.07 3041.00 2238.90 3039.65"/><path fill="none" stroke="#d1000d" stroke-width="2.5" stroke-linecap="round" stroke-linejoin="round" d="M2241.67 2987.74C2241.57 2988.06 2240.80 2988.56 2240.98 2989.82C2241.16 2991.08 2241.52 2991.96 2242.87 2996.16C2244.44 3001.05 2249.73 3017.55 2251.42 3022.36C2252.85 3026.44 2253.53 3027.77 2254.10 3028.26C2254.68 3028.75 2255.08 3027.54 2255.24 3025.64C2255.61 3021.36 2255.99 3005.55 2256.58 2999.78C2257.17 2994.01 2258.10 2989.85 2259.15 2987.17C2260.20 2984.48 2262.04 2982.20 2263.56 2981.88C2265.08 2981.55 2267.39 2983.02 2269.27 2985.02C2271.15 2987.01 2274.07 2991.67 2276.11 2995.19C2278.15 2998.71 2280.76 3004.85 2282.86 3008.51C2284.96 3012.17 2288.10 3017.09 2290.12 3019.58C2292.14 3022.07 2295.41 3024.29 2296.35 3025.12"/><path fill="none" stroke="#d1000d" stroke-width="2.5" stroke-linecap="round" stroke-linejoin="round" d="M2353.79 2895.00C2353.58 2894.69 2353.28 2892.98 2352.41 2892.93C2351.53 2892.88 2349.40 2893.11 2347.97 2894.65C2346.53 2896.19 2344.15 2898.91 2342.82 2903.19C2341.49 2907.47 2339.84 2916.24 2339.11 2923.19C2338.38 2930.14 2337.62 2941.13 2337.96 2949.55C2338.29 2957.97 2339.80 2970.65 2341.35 2979.31C2342.90 2987.97 2345.38 2999.56 2348.32 3007.26C2351.25 3014.96 2356.90 3024.93 2360.92 3030.65C2364.94 3036.38 2370.61 3042.43 2375.11 3045.43C2379.62 3048.43 2386.25 3050.07 2390.94 3050.66C2395.63 3051.25 2403.66 3049.85 2406.39 3049.34C2408.66 3048.92 2408.74 3047.58 2409.16 3047.26"/><path fill="none" stroke="#d1000d" stroke-width="2.5" stroke-linecap="round" stroke-linejoin="round" d="M2402.93 2969.75C2402.20 2970.79 2398.80 2974.98 2398.09 2976.67C2397.37 2978.36 2397.40 2980.59 2398.19 2981.02C2398.98 2981.46 2401.31 2981.21 2403.35 2979.59C2405.39 2977.97 2409.44 2973.52 2411.77 2970.23C2414.11 2966.94 2417.28 2961.67 2418.93 2957.66C2420.57 2953.64 2422.44 2947.28 2422.74 2943.47C2423.04 2939.66 2422.27 2934.59 2420.92 2932.26C2419.56 2929.92 2416.31 2927.92 2413.71 2927.92C2411.10 2927.91 2406.47 2929.66 2403.57 2932.24C2400.66 2934.82 2396.43 2940.42 2394.35 2945.13C2392.27 2949.84 2390.01 2957.91 2389.70 2963.62C2389.38 2969.33 2390.41 2978.03 2392.27 2983.20C2394.13 2988.38 2398.51 2994.43 2402.09 2998.12C2405.67 3001.81 2411.50 3006.64 2416.14 3007.81C2420.78 3008.98 2428.57 3008.00 2433.03 3005.93C2437.48 3003.85 2443.40 2997.01 2445.84 2993.97C2448.28 2990.93 2448.78 2986.91 2449.30 2985.67"/><path fill="none" stroke="#d1000d" stroke-width="2.5" stroke-linecap="round" stroke-linejoin="round" d="M2427.15 2858.32C2427.11 2858.12 2426.29 2857.65 2426.90 2856.94C2428.74 2854.78 2435.75 2847.46 2439.42 2843.93C2443.09 2840.40 2449.06 2835.30 2451.38 2833.41C2453.46 2831.71 2454.32 2831.64 2454.84 2831.33"/><path fill="none" stroke="#d1000d" stroke-width="2.5" stroke-linecap="round" stroke-linejoin="round" d="M2457.60 2776.66C2457.07 2776.47 2454.69 2775.11 2454.06 2775.42C2453.42 2775.74 2452.85 2776.73 2453.37 2778.77C2453.89 2780.81 2455.87 2785.79 2457.53 2789.05C2459.18 2792.30 2462.02 2797.17 2464.40 2800.46C2466.78 2803.76 2470.74 2808.58 2473.39 2811.00C2476.04 2813.42 2479.84 2815.99 2482.05 2816.59C2484.25 2817.20 2487.02 2816.58 2488.09 2815.06C2489.16 2813.55 2489.55 2809.65 2489.16 2806.48C2488.77 2803.31 2487.06 2797.87 2485.48 2793.96C2483.90 2790.04 2481.09 2784.05 2478.61 2780.37C2476.13 2776.69 2471.35 2771.82 2468.93 2769.40C2466.51 2766.97 2463.42 2764.98 2462.45 2764.20"/><path fill="none" stroke="#d1000d" stroke-width="2.5" stroke-linecap="round" stroke-linejoin="round" d="M2513.66 2757.28C2513.14 2756.45 2511.61 2752.19 2510.20 2751.74C2508.79 2751.30 2506.00 2752.41 2504.26 2754.32C2502.52 2756.24 2499.58 2761.41 2498.61 2764.51C2497.65 2767.61 2497.63 2772.35 2497.85 2775.00C2498.08 2777.66 2499.00 2780.89 2500.11 2782.21C2501.21 2783.53 2503.53 2784.25 2505.22 2783.82C2506.90 2783.40 2509.77 2781.13 2511.33 2779.40C2512.88 2777.67 2514.52 2774.69 2515.59 2772.31C2516.66 2769.94 2517.25 2764.08 2518.45 2763.54C2519.64 2762.99 2521.26 2767.66 2523.55 2768.69C2525.85 2769.73 2530.55 2770.48 2533.73 2770.43C2536.92 2770.38 2543.15 2768.66 2544.81 2768.35"/><path fill="none" stroke="#d1000d" stroke-width="2.5" stroke-linecap="round" stroke-linejoin="round" d="M2490.13 2845.17C2489.39 2845.62 2482.39 2850.79 2485.19 2848.14C2495.01 2838.86 2545.20 2792.44 2555.59 2783.28C2557.55 2781.55 2554.66 2786.47 2554.50 2787.04"/><path fill="none" stroke="#d1000d" stroke-width="2.5" stroke-linecap="round" stroke-linejoin="round" d="M2508.13 2851.40C2507.62 2850.68 2505.11 2846.71 2504.72 2846.57C2504.32 2846.43 2504.36 2848.08 2505.51 2850.48C2507.09 2853.80 2512.83 2864.43 2515.30 2868.77C2517.76 2873.10 2519.69 2876.18 2521.94 2879.39C2524.19 2882.60 2529.02 2888.54 2530.27 2890.16"/><path fill="none" stroke="#d1000d" stroke-width="2.5" stroke-linecap="round" stroke-linejoin="round" d="M2519.20 2874.93C2518.89 2874.83 2517.56 2874.95 2517.12 2874.24C2516.69 2873.54 2515.37 2872.80 2516.29 2870.23C2517.67 2866.37 2525.40 2850.35 2526.32 2848.54C2527.25 2846.73 2523.21 2855.55 2522.46 2858.16C2521.71 2860.77 2521.33 2863.85 2521.31 2865.94C2521.30 2868.03 2521.75 2870.57 2522.38 2872.11C2523.01 2873.65 2524.14 2875.72 2525.52 2876.20C2526.90 2876.68 2529.60 2876.24 2531.56 2875.32C2533.52 2874.41 2537.53 2870.87 2538.58 2870.09"/><path fill="none" stroke="#d1000d" stroke-width="2.5" stroke-linecap="round" stroke-linejoin="round" d="M2555.88 2862.48C2556.22 2863.16 2556.74 2865.44 2558.16 2867.02C2559.58 2868.60 2565.65 2873.87 2565.37 2873.01C2565.09 2872.15 2558.03 2863.96 2556.28 2861.30C2554.53 2858.64 2554.15 2856.94 2553.72 2855.28C2553.30 2853.61 2553.18 2851.35 2553.45 2850.20C2553.72 2849.05 2554.75 2847.87 2555.55 2847.61C2556.36 2847.35 2557.91 2847.66 2558.82 2848.43C2559.73 2849.21 2561.01 2851.24 2561.63 2852.79C2562.25 2854.34 2562.68 2856.87 2562.94 2858.77C2563.20 2860.67 2562.69 2865.41 2563.35 2865.46C2564.01 2865.51 2566.12 2860.58 2567.31 2859.09C2568.50 2857.59 2570.05 2856.18 2571.28 2855.50C2572.51 2854.82 2574.37 2854.30 2575.50 2854.57C2576.64 2854.84 2578.24 2856.07 2578.83 2857.30C2579.43 2858.52 2579.52 2860.94 2579.44 2862.71C2579.37 2864.49 2579.19 2867.32 2578.32 2869.13C2577.45 2870.93 2575.33 2873.34 2573.62 2874.73C2571.92 2876.12 2568.27 2877.84 2566.95 2878.39C2565.68 2878.93 2565.19 2878.39 2564.88 2878.39"/><path fill="none" stroke="#d1000d" stroke-width="2.5" stroke-linecap="round" stroke-linejoin="round" d="M2571.80 2810.57C2571.40 2810.46 2569.17 2809.28 2569.13 2809.83C2569.10 2810.38 2569.66 2811.48 2571.58 2814.24C2573.74 2817.36 2581.77 2828.18 2583.56 2830.64"/><path fill="none" stroke="#d1000d" stroke-width="2.5" stroke-linecap="round" stroke-linejoin="round" d="M2552.42 2823.72C2552.21 2823.62 2551.00 2824.06 2551.04 2823.03C2551.08 2821.99 2550.50 2820.51 2552.69 2816.83C2556.40 2810.60 2571.58 2788.10 2575.80 2781.45C2579.46 2775.68 2579.74 2774.68 2580.80 2772.50C2581.86 2770.33 2582.56 2767.80 2582.87 2766.97"/><path fill="none" stroke="#d1000d" stroke-width="2.5" stroke-linecap="round" stroke-linejoin="round" d="M2515.05 2689.45C2516.50 2687.48 2520.75 2679.53 2524.74 2676.30C2528.72 2673.08 2535.58 2668.65 2541.60 2667.95C2547.62 2667.25 2557.24 2668.39 2564.85 2671.65C2572.47 2674.92 2584.15 2683.35 2592.36 2689.70C2600.58 2696.05 2611.78 2706.07 2619.63 2713.99C2627.48 2721.91 2638.03 2733.87 2644.69 2742.48C2651.35 2751.10 2659.19 2762.52 2664.03 2771.43C2668.88 2780.33 2673.97 2793.02 2677.00 2801.87C2680.03 2810.71 2682.76 2821.30 2684.22 2830.39C2685.67 2839.49 2686.32 2852.10 2686.69 2862.52C2687.06 2872.94 2686.58 2891.34 2686.69 2899.85C2686.79 2908.36 2687.27 2916.32 2687.38 2919.23"/><path fill="none" stroke="#d1000d" stroke-width="2.5" stroke-linecap="round" stroke-linejoin="round" d="M2369.02 3269.42C2368.46 3268.77 2366.32 3268.73 2365.30 3265.04C2363.42 3258.20 2358.81 3233.29 2356.43 3223.78C2354.04 3214.27 2351.68 3207.67 2349.39 3201.64C2347.11 3195.61 2343.60 3187.49 2341.18 3183.57C2338.76 3179.65 2335.38 3176.48 2333.27 3175.51C2331.16 3174.53 2328.32 3175.13 2327.12 3177.09C2325.92 3179.04 2324.97 3184.00 2325.29 3188.54C2325.61 3193.08 2327.19 3201.44 2329.28 3207.35C2331.38 3213.25 2335.74 3221.63 2339.27 3227.90C2342.80 3234.18 2348.40 3243.80 2352.81 3249.15C2357.21 3254.50 2364.12 3261.46 2368.63 3263.57C2373.14 3265.68 2380.21 3263.67 2382.86 3263.20C2385.51 3262.72 2385.80 3260.84 2386.32 3260.43"/><path fill="none" stroke="#d1000d" stroke-width="2.5" stroke-linecap="round" stroke-linejoin="round" d="M2414.00 3173.22C2412.11 3172.05 2404.88 3165.51 2401.41 3165.39C2397.93 3165.26 2393.14 3168.98 2390.83 3172.38C2388.52 3175.77 2386.56 3183.40 2386.00 3188.04C2385.44 3192.68 2385.74 3199.09 2387.08 3203.31C2388.43 3207.53 2392.18 3213.43 2394.97 3216.19C2397.76 3218.95 2402.76 3221.50 2405.69 3221.72C2408.62 3221.94 2412.35 3219.82 2414.49 3217.66C2416.62 3215.51 2419.58 3211.01 2419.92 3207.36C2420.25 3203.71 2418.63 3197.83 2416.71 3193.33C2414.78 3188.83 2408.53 3179.77 2407.08 3177.38"/><path fill="none" stroke="#d1000d" stroke-width="2.5" stroke-linecap="round" stroke-linejoin="round" d="M2491.52 3156.61C2488.95 3154.51 2478.79 3145.61 2474.40 3142.58C2470.02 3139.56 2465.81 3137.22 2462.30 3136.43C2458.78 3135.64 2454.05 3135.98 2450.96 3137.31C2447.86 3138.63 2443.67 3141.85 2441.66 3145.27C2439.65 3148.68 2437.82 3155.33 2437.55 3160.10C2437.28 3164.87 2438.27 3172.50 2439.86 3177.08C2441.44 3181.66 2445.08 3187.83 2448.11 3190.63C2451.15 3193.42 2456.73 3195.79 2460.09 3195.70C2463.44 3195.61 2468.07 3192.93 2470.47 3190.05C2472.86 3187.16 2475.30 3180.92 2476.05 3176.48C2476.81 3172.04 2476.35 3164.81 2475.50 3160.42C2474.66 3156.04 2471.88 3150.08 2470.45 3147.25C2469.02 3144.42 2466.66 3142.02 2465.98 3141.55C2465.30 3141.08 2465.02 3142.65 2465.91 3144.12C2468.55 3148.48 2479.22 3163.79 2483.59 3170.61C2487.96 3177.42 2492.41 3183.79 2495.04 3189.56C2497.66 3195.32 2500.07 3203.44 2501.11 3209.03C2502.16 3214.61 2503.39 3222.09 2501.99 3226.77C2500.60 3231.44 2495.14 3237.02 2491.81 3240.21C2488.47 3243.39 2481.97 3246.80 2479.75 3247.97C2478.12 3248.83 2477.40 3247.97 2476.98 3247.97"/><path fill="none" stroke="#d1000d" stroke-width="2.5" stroke-linecap="round" stroke-linejoin="round" d="M2533.73 3173.92C2533.73 3174.02 2533.53 3175.02 2533.73 3174.61C2534.21 3173.65 2536.09 3170.39 2536.90 3167.56C2537.70 3164.72 2538.74 3158.91 2539.07 3155.71C2539.40 3152.51 2539.46 3148.34 2539.12 3146.24C2538.79 3144.15 2537.77 3141.79 2536.83 3141.74C2535.88 3141.70 2533.91 3143.39 2532.81 3145.94C2531.71 3148.49 2529.96 3154.23 2529.50 3158.75C2529.03 3163.27 2528.82 3171.28 2529.73 3176.07C2530.63 3180.86 2533.21 3186.91 2535.53 3190.70C2537.84 3194.48 2541.72 3199.90 2545.14 3201.31C2548.57 3202.73 2554.67 3202.17 2558.36 3200.14C2562.05 3198.10 2567.71 3190.13 2569.72 3187.76C2571.46 3185.71 2571.49 3184.82 2571.80 3184.30"/><path fill="none" stroke="#d1000d" stroke-width="2.5" stroke-linecap="round" stroke-linejoin="round" d="M2575.26 3085.33C2574.70 3086.32 2571.34 3091.95 2571.51 3091.95C2571.68 3091.95 2574.55 3088.51 2576.38 3085.33C2578.21 3082.15 2581.72 3075.29 2583.72 3070.76C2585.73 3066.23 2588.44 3059.63 2589.75 3055.14C2591.06 3050.65 2592.43 3044.25 2592.47 3040.81C2592.51 3037.37 2591.45 3033.60 2590.03 3032.20C2588.60 3030.80 2585.41 3030.45 2582.98 3031.47C2580.55 3032.49 2576.21 3035.75 2573.82 3038.98C2571.44 3042.20 2568.35 3048.24 2567.07 3052.98C2565.78 3057.71 2564.74 3065.51 2565.27 3070.56C2565.80 3075.62 2568.21 3082.32 2570.59 3086.65C2572.98 3090.98 2577.46 3096.96 2581.15 3099.43C2584.85 3101.89 2591.14 3104.17 2595.24 3103.09C2599.34 3102.02 2605.56 3095.64 2608.48 3092.25C2611.40 3088.86 2613.77 3082.25 2614.71 3080.48"/><path fill="none" stroke="#d1000d" stroke-width="2.5" stroke-linecap="round" stroke-linejoin="round" d="M2545.50 3028.58C2545.19 3028.58 2543.50 3029.31 2543.42 3028.58C2543.35 3027.85 2543.49 3026.37 2545.02 3023.72C2546.56 3021.06 2550.47 3015.33 2553.65 3010.87C2556.84 3006.41 2562.71 2998.17 2566.26 2993.97C2569.81 2989.78 2575.67 2984.56 2577.34 2982.90"/><path fill="none" stroke="#d1000d" stroke-width="2.5" stroke-linecap="round" stroke-linejoin="round" d="M2578.72 2955.22C2578.41 2955.42 2576.77 2954.94 2576.64 2956.60C2576.52 2958.30 2576.70 2963.46 2577.89 2966.53C2579.08 2969.59 2582.45 2974.72 2584.56 2977.03C2586.68 2979.33 2589.87 2981.25 2592.02 2981.87C2594.16 2982.49 2597.20 2982.52 2598.88 2981.15C2600.57 2979.78 2602.34 2975.98 2603.23 2972.75C2604.12 2969.52 2604.90 2963.88 2604.84 2959.62C2604.78 2955.37 2604.15 2948.47 2602.83 2944.38C2601.51 2940.29 2597.56 2934.59 2596.02 2932.38C2594.48 2930.16 2593.08 2930.02 2592.56 2929.61"/><path fill="none" stroke="#d1000d" stroke-width="2.5" stroke-linecap="round" stroke-linejoin="round" d="M2618.17 2933.76C2617.74 2933.80 2615.91 2933.16 2615.30 2934.01C2614.69 2934.86 2614.09 2937.31 2614.10 2939.43C2614.11 2941.54 2614.77 2946.06 2615.38 2948.10C2616.00 2950.14 2617.20 2952.18 2618.19 2953.04C2619.18 2953.90 2620.88 2954.29 2621.97 2953.85C2623.05 2953.42 2624.41 2952.35 2625.41 2950.14C2626.42 2947.93 2627.97 2940.94 2628.67 2939.11C2629.11 2937.98 2629.61 2937.65 2630.09 2937.96C2630.57 2938.27 2630.81 2940.18 2631.86 2941.17C2632.90 2942.16 2635.17 2944.19 2637.06 2944.53C2638.95 2944.87 2642.84 2944.03 2644.47 2943.45C2646.10 2942.87 2647.41 2941.10 2647.93 2940.68"/><path fill="none" stroke="#d1000d" stroke-width="2.5" stroke-linecap="round" stroke-linejoin="round" d="M2599.48 3006.43C2598.76 3006.74 2594.90 3009.06 2594.64 3008.51C2594.38 3007.96 2594.97 3006.12 2597.76 3002.77C2603.00 2996.46 2622.45 2974.37 2629.60 2966.46C2636.76 2958.55 2642.18 2953.17 2645.45 2950.03C2648.72 2946.89 2650.19 2946.20 2651.39 2945.53C2652.59 2944.85 2653.15 2945.53 2653.47 2945.53"/><path fill="none" stroke="#d1000d" stroke-width="2.5" stroke-linecap="round" stroke-linejoin="round" d="M2629.93 3008.51C2630.03 3009.13 2629.73 3011.14 2630.54 3012.66C2631.35 3014.18 2633.57 3016.06 2635.31 3018.64C2637.06 3021.23 2641.51 3029.64 2642.18 3029.91C2642.85 3030.19 2640.17 3023.28 2639.76 3020.49C2639.35 3017.69 2639.36 3014.07 2639.43 3011.29C2639.49 3008.51 2639.83 3004.38 2640.21 3001.95C2640.59 2999.52 2641.51 2996.46 2641.98 2995.08C2642.46 2993.69 2643.05 2992.67 2643.38 2992.73C2643.71 2992.79 2644.03 2993.58 2644.16 2995.47C2644.34 2998.14 2644.29 3007.30 2644.58 3010.53C2644.87 3013.75 2645.19 3015.71 2646.10 3016.96C2647.02 3018.22 2648.97 3019.53 2650.70 3018.89C2652.42 3018.24 2656.58 3013.59 2657.62 3012.66"/><path fill="none" stroke="#d1000d" stroke-width="2.5" stroke-linecap="round" stroke-linejoin="round" d="M2665.23 2991.90C2665.27 2992.53 2664.71 2994.37 2665.48 2996.10C2666.25 2997.83 2669.77 3002.33 2670.35 3003.41C2670.67 3003.99 2669.90 3003.67 2669.37 3003.27C2668.82 3002.86 2667.55 3001.79 2666.70 3000.67C2665.85 2999.55 2664.38 2997.40 2663.71 2995.80C2663.04 2994.21 2662.34 2991.67 2662.22 2990.02C2662.11 2988.37 2662.41 2985.92 2662.97 2984.79C2663.52 2983.65 2664.95 2982.58 2665.96 2982.45C2666.97 2982.31 2668.71 2982.96 2669.70 2983.89C2670.70 2984.82 2671.86 2986.37 2672.60 2988.64C2673.34 2990.91 2673.69 2998.16 2674.65 2999.03C2675.62 2999.90 2677.99 2995.21 2679.04 2994.44C2680.09 2993.66 2681.11 2993.61 2681.65 2993.88C2682.19 2994.15 2682.61 2995.17 2682.64 2996.23C2682.68 2997.29 2682.55 2999.49 2681.89 3000.97C2681.23 3002.45 2679.69 3005.10 2678.23 3006.13C2676.77 3007.15 2673.06 3007.56 2672.15 3007.81"/><path fill="none" stroke="#d1000d" stroke-width="2.5" stroke-linecap="round" stroke-linejoin="round" d="M2681.15 2944.83C2681.13 2944.99 2680.71 2945.23 2681.00 2945.87C2682.48 2949.16 2688.97 2962.17 2691.03 2966.79C2693.08 2971.40 2694.20 2974.71 2694.69 2976.61C2695.17 2978.45 2694.77 2979.43 2694.30 2979.44C2693.83 2979.45 2691.95 2977.09 2691.53 2976.67"/><path fill="none" stroke="#d1000d" stroke-width="2.5" stroke-linecap="round" stroke-linejoin="round" d="M2673.54 2955.22C2672.91 2955.01 2670.12 2954.50 2669.38 2953.83C2668.64 2953.16 2667.74 2952.66 2668.60 2950.76C2669.47 2948.86 2672.31 2944.85 2675.12 2941.16C2677.94 2937.47 2683.67 2930.06 2687.38 2926.15C2691.08 2922.24 2697.97 2916.74 2699.84 2915.07"/>
</svg>