<?xml version="1.0" encoding="UTF-8"?>
<!DOCTYPE svg PUBLIC "-//W3C//DTD SVG 1.1//EN" "http://www.w3.org/Graphics/SVG/1.1/DTD/svg11.dtd">
<svg  xmlns="http://www.w3.org/2000/svg" xmlns:xlink="http://www.w3.org/1999/xlink" viewport-fill="none" viewBox="0.0, 0.0, 557.0098122468696, 165.97774458094048" version="1.1" height="165.97774458094048" width="557.0098122468696">
<path fill="none" stroke="#d1000d" stroke-width="5.0" stroke-linecap="round" stroke-linejoin="round" d="M22.94 160.15C22.60 160.15 19.20 160.15 20.70 160.15C61.70 160.15 253.73 160.15 296.27 160.15C301.63 160.15 298.95 160.11 304.31 160.15C319.84 160.27 378.91 160.89 399.81 160.96C420.71 161.04 435.99 160.75 443.64 160.66C448.43 160.61 446.04 160.58 450.82 160.40C455.77 160.22 467.14 159.61 476.65 159.45C486.16 159.29 507.61 159.44 514.22 159.34C518.56 159.27 519.70 158.84 520.70 158.73C520.83 158.71 520.74 158.66 520.88 158.63C523.22 158.08 533.54 155.91 536.31 155.10C538.57 154.44 538.36 154.90 539.32 153.24C540.28 151.58 541.82 147.34 542.71 144.01C543.60 140.68 544.76 134.30 545.27 131.04C545.79 127.79 545.78 128.08 546.17 122.33C546.56 116.59 547.06 101.70 547.87 92.77C548.67 83.83 550.91 69.97 551.52 62.78C552.12 55.58 551.83 47.52 551.91 44.82C551.91 44.75 552.05 44.81 552.00 44.78C551.17 44.34 549.19 42.93 546.39 41.87C543.58 40.81 538.48 39.04 533.30 37.72C528.12 36.41 516.93 34.07 511.85 33.09C506.78 32.11 506.38 31.93 499.47 31.20C492.56 30.46 478.49 28.70 465.77 28.19C453.05 27.69 423.52 27.89 414.69 27.84C409.48 27.80 412.08 27.83 406.88 27.84C394.87 27.84 348.86 27.69 334.61 27.85C320.35 28.01 318.63 28.36 311.85 28.88C305.07 29.41 298.02 30.18 289.41 31.32C280.80 32.47 267.72 34.13 254.46 36.52C241.20 38.91 210.62 45.34 201.00 47.27C193.89 48.69 197.44 47.96 190.32 49.35C181.88 51.00 156.37 56.15 144.74 58.26C133.11 60.36 121.98 62.10 112.80 63.38C103.62 64.66 91.29 66.26 83.53 66.80C75.77 67.34 64.87 66.96 61.08 66.98C59.22 67.00 60.15 66.92 58.29 66.97C55.61 67.03 47.88 67.08 43.25 67.42C38.61 67.76 30.20 68.77 27.40 69.26C25.33 69.62 25.38 70.07 24.59 70.68C23.80 71.28 22.61 72.67 22.16 73.28C21.72 73.89 21.90 73.74 21.64 74.75C20.32 79.85 14.89 100.86 13.39 107.27C11.89 113.69 12.01 114.50 11.66 117.51C11.32 120.51 11.19 125.84 11.11 127.31"/><path fill="none" stroke="#d1000d" stroke-width="5.0" stroke-linecap="round" stroke-linejoin="round" d="M412.24 47.38C409.49 47.36 396.74 46.94 393.90 47.26C392.37 47.44 393.40 48.25 393.34 49.51C393.29 50.77 393.28 53.50 393.52 55.68C393.76 57.86 394.50 62.18 394.95 64.05C395.40 65.91 395.97 66.93 396.52 68.10C397.07 69.26 397.51 70.40 398.61 71.83C399.71 73.25 402.60 76.43 403.86 77.58C405.12 78.74 405.33 78.94 406.99 79.54C408.65 80.15 409.46 81.37 414.91 81.62C427.59 82.21 479.72 83.24 491.48 83.44C492.74 83.47 492.77 83.57 493.31 82.98C493.85 82.39 494.75 81.17 495.08 79.52C495.41 77.86 495.53 73.84 495.51 71.96C495.49 70.08 495.31 68.56 494.95 66.98C494.58 65.39 493.90 63.13 493.10 61.42C492.29 59.71 490.91 57.36 489.57 55.59C488.24 53.82 486.09 51.35 484.20 49.62C482.31 47.90 479.41 45.61 477.00 44.06C474.59 42.52 470.95 40.59 468.14 39.34C465.34 38.09 461.32 36.62 458.29 35.73C455.26 34.85 450.99 33.99 447.94 33.46C444.89 32.93 442.47 32.43 437.97 32.20C433.47 31.96 421.42 31.85 417.95 31.89C415.84 31.91 415.91 31.80 414.84 32.42C413.76 33.04 411.39 35.47 410.78 36.00"/>
</svg>