<?xml version="1.0" encoding="UTF-8"?>
<!DOCTYPE svg PUBLIC "-//W3C//DTD SVG 1.1//EN" "http://www.w3.org/Graphics/SVG/1.1/DTD/svg11.dtd">
<svg  xmlns="http://www.w3.org/2000/svg" xmlns:xlink="http://www.w3.org/1999/xlink" viewport-fill="none" viewBox="0.0, 0.0, 1191.7143375659532, 513.6192626953125" version="1.1" height="513.6192626953125" width="1191.7143375659532">
<path fill="none" stroke="#1eb511" stroke-width="2.5" stroke-linecap="round" stroke-linejoin="round" d="M800.06 396.00C799.99 400.34 799.71 420.65 799.63 424.92C799.63 425.24 799.61 424.49 799.57 424.43C799.54 424.37 799.41 424.40 799.38 424.51C799.35 424.62 799.19 425.03 799.40 425.17C799.61 425.31 800.07 425.51 800.81 425.44C801.54 425.37 802.09 425.58 804.30 424.70C806.99 423.62 810.55 423.02 818.74 418.28C826.92 413.54 852.00 397.29 858.86 393.10C862.43 390.92 863.27 390.76 864.48 390.32C865.70 389.87 866.57 390.17 866.96 390.14C867.06 390.13 867.08 390.22 867.11 390.13C867.15 389.95 867.24 389.14 867.27 388.96"/><path fill="none" stroke="#1eb511" stroke-width="2.5" stroke-linecap="round" stroke-linejoin="round" d="M872.43 337.05C872.43 340.97 872.43 359.23 872.43 363.16C872.43 363.20 872.46 363.19 872.43 363.22C872.35 363.28 871.57 363.75 871.94 363.58C872.70 363.24 873.98 363.03 877.53 360.93C881.84 358.38 894.72 350.13 900.71 346.58C906.70 343.02 913.26 339.33 917.44 337.21C921.63 335.10 925.81 333.36 928.60 332.46C931.40 331.56 934.92 331.42 936.06 331.23C936.17 331.22 936.17 331.33 936.23 331.24C936.35 331.09 936.72 330.38 936.81 330.23"/><path fill="none" stroke="#ff9399" stroke-opacity="0.5" stroke-width="20.0" stroke-linecap="round" stroke-linejoin="round" d="M980.29 398.30C984.50 398.30 1003.93 398.30 1008.36 398.30C1009.32 398.30 1008.84 398.30 1009.80 398.30C1012.49 398.30 1023.63 398.30 1026.30 398.30C1027.14 398.30 1026.72 398.29 1027.56 398.30C1028.62 398.31 1032.31 398.32 1033.32 398.40C1034.00 398.45 1034.12 398.58 1034.27 398.79C1034.42 399.01 1034.33 399.64 1034.34 399.84C1034.35 400.03 1034.34 399.94 1034.34 400.13C1034.28 401.98 1034.15 410.32 1033.99 412.14C1033.95 412.62 1033.76 412.32 1033.28 412.28C1027.69 411.88 1002.39 409.88 996.74 409.45C995.99 409.40 996.37 409.46 995.62 409.46C993.70 409.47 985.86 409.62 983.97 409.50C983.12 409.45 983.16 408.92 983.00 408.67C982.83 408.43 982.90 408.41 982.86 407.86C982.65 405.46 981.02 395.17 981.63 392.67C982.24 390.17 984.05 391.66 986.91 391.20C989.77 390.73 997.95 389.86 1000.70 389.58C1003.44 389.30 1002.19 389.35 1005.20 389.31C1010.40 389.24 1030.77 389.12 1035.34 389.12C1035.59 389.12 1035.48 389.16 1035.66 389.32C1035.85 389.47 1036.44 390.02 1036.58 390.14"/><path fill="none" stroke="#79eb70" stroke-opacity="0.5" stroke-width="20.0" stroke-linecap="round" stroke-linejoin="round" d="M1049.80 410.94C1055.58 410.94 1082.04 410.94 1088.30 410.94C1090.47 410.94 1089.38 410.94 1091.55 410.94C1096.85 410.94 1118.59 410.94 1123.64 410.94C1124.69 410.94 1124.17 410.98 1125.22 410.94C1128.17 410.83 1140.49 410.30 1143.36 410.19C1143.98 410.16 1143.67 410.19 1144.29 410.18C1145.23 410.16 1148.50 410.38 1149.66 410.03C1150.82 409.69 1151.31 409.01 1152.01 407.87C1152.72 406.73 1153.92 403.52 1154.35 402.41C1154.78 401.31 1154.67 401.81 1154.88 400.52C1155.11 399.14 1160.67 394.08 1155.85 393.24C1149.51 392.14 1119.95 393.17 1112.63 393.16C1108.87 393.16 1110.75 393.14 1106.99 393.21C1102.92 393.28 1090.95 393.41 1085.53 393.67C1080.11 393.94 1073.29 394.77 1070.85 394.98C1069.76 395.07 1070.30 395.03 1069.21 395.07C1067.01 395.16 1058.27 395.54 1056.17 395.56C1055.48 395.56 1055.41 395.39 1055.21 395.17C1055.01 394.94 1054.91 394.30 1054.85 394.08C1054.79 393.85 1054.82 393.94 1054.81 393.65C1054.81 393.24 1054.11 391.73 1054.81 391.33C1055.51 390.92 1056.36 390.97 1059.49 390.95C1064.54 390.91 1080.07 390.87 1088.45 391.08C1096.83 391.29 1110.95 392.14 1115.36 392.34C1117.00 392.42 1116.19 392.27 1117.83 392.42C1119.47 392.56 1123.36 392.76 1126.34 393.32C1129.31 393.88 1135.97 395.71 1137.67 396.14"/><path fill="none" stroke="#1eb511" stroke-width="2.5" stroke-linecap="round" stroke-linejoin="round" d="M972.31 508.60C981.97 508.60 1026.86 508.60 1036.73 508.60C1037.64 508.60 1037.45 508.61 1038.10 508.60C1038.75 508.59 1040.33 508.78 1041.06 508.55C1041.79 508.33 1042.10 508.45 1042.96 507.12C1043.88 505.69 1046.26 501.40 1047.22 499.04C1048.18 496.68 1048.95 494.23 1049.36 491.38C1049.76 488.53 1049.84 482.06 1049.93 480.04C1049.99 478.64 1049.92 478.75 1049.95 477.94C1049.97 477.14 1050.20 475.35 1050.09 474.69C1049.98 474.03 1050.06 474.00 1049.22 473.54C1048.20 472.98 1045.10 471.45 1043.26 470.95C1041.43 470.46 1040.11 470.35 1036.97 470.27C1033.83 470.19 1025.05 470.35 1022.32 470.43C1019.94 470.50 1021.10 470.31 1018.78 470.81C1013.42 471.96 994.63 475.88 986.61 478.08C978.59 480.28 968.82 484.23 965.33 485.47C963.94 485.97 964.04 486.01 963.32 486.42C962.61 486.83 961.32 487.52 960.57 488.20C959.83 488.88 958.80 490.10 958.33 490.95C957.85 491.80 957.62 492.47 957.41 493.87C957.19 495.27 956.72 498.37 956.91 500.31C957.09 502.25 957.73 505.17 958.64 506.79C959.55 508.41 962.32 510.47 962.97 511.12"/><path fill="none" stroke="#d1000d" stroke-width="5.0" stroke-linecap="round" stroke-linejoin="round" d="M1047.29 429.98C1047.20 429.98 1046.38 429.98 1046.74 429.98C1062.51 429.98 1136.42 429.98 1152.41 429.99C1153.03 429.99 1152.74 430.20 1153.34 430.04C1153.99 429.87 1154.62 429.98 1156.77 428.86C1159.09 427.64 1165.45 424.19 1168.82 421.94C1172.19 419.69 1177.55 415.28 1179.24 413.83C1180.14 413.06 1179.89 413.44 1180.09 412.28C1180.34 410.88 1180.51 406.85 1180.90 404.51C1181.28 402.18 1182.24 398.48 1182.68 396.70C1183.12 394.92 1183.39 394.29 1183.84 392.63C1184.28 390.97 1185.23 387.84 1185.66 385.64C1186.08 383.45 1186.91 379.39 1186.67 378.00C1186.44 376.61 1186.08 376.80 1184.10 376.38C1182.10 375.96 1179.36 375.51 1173.35 375.21C1167.34 374.91 1151.28 374.47 1144.03 374.39C1136.78 374.30 1132.99 374.32 1125.03 374.63C1117.07 374.95 1097.45 376.15 1090.97 376.49C1084.89 376.82 1087.92 376.53 1081.84 376.93C1075.19 377.37 1053.10 378.84 1046.59 379.43C1041.11 379.93 1040.51 380.31 1038.46 380.85C1036.42 381.39 1034.43 381.90 1032.94 383.04C1031.45 384.18 1029.75 386.22 1028.52 388.45C1027.29 390.68 1025.69 394.46 1024.72 397.91C1023.76 401.35 1022.42 408.35 1022.09 411.43C1021.76 414.52 1022.33 417.13 1022.53 418.48C1022.72 419.83 1022.56 419.28 1023.38 420.43C1024.25 421.65 1026.39 425.38 1028.34 426.59C1030.29 427.80 1035.17 428.22 1036.38 428.50"/>
</svg>